<?xml version="1.0" encoding="UTF-8"?>
<svg xmlns="http://www.w3.org/2000/svg" version="1.1" viewBox="0 0 2342.27 1117.68">
  <defs>
    <style>
      .cls-1 {
        fill: #197d8e;
      }
    </style>
  </defs>
  <!-- Generator: Adobe Illustrator 28.7.1, SVG Export Plug-In . SVG Version: 1.2.0 Build 142)  -->
  <g>
    <g id="Layer_1">
      <g id="Create_With_Personalisation_background">
        <path class="cls-1" d="M2346.36,830.81c-81.85,9.65-170.31,18.11-241.85-21.35-22.57-12.45-43.48-29.66-69.16-33.68-25.68-4.01-57.38,14.09-53.32,38.83,1.38,8.42,8.9,33.1,15.17,38.89,8.11,7.49,30.03,60.82-53.5,57.69-81.51-3.05-98.48,95-162.13,75.45-135.83-41.73-276.41-28.63-410.32,29.13-117.64,50.74-263.05,69.28-388.36,35.92-19.22-5.12-31.37-22.79-30.03-41.94.55-7.82-1.48-16-6.35-22.16-12.53-15.84-34.73-20.83-55.21-23.65-142.39-19.55-287.36,14.77-430.79,4.35-13.57-.99-29.58-4.02-34.94-16.06-13.92-31.29,61.11-43.9,55.67-77.54-2.32-14.31-18.75-21.76-33.25-25.62-76.42-20.35-157.48-8.69-236.77-8.96-79.29-.27-166.34-16.95-215.33-76.98V0h2345.33l5.13,830.81Z"/>
      </g>
    </g>
  </g>
</svg>