<?xml version="1.0" encoding="UTF-8"?>
<svg xmlns="http://www.w3.org/2000/svg" version="1.1" viewBox="0 0 109.96 114.04">
  <defs>
    <style>
      .cls-1 {
        fill: #fefcfd;
      }

      .cls-2 {
        fill: #197d8e;
      }
    </style>
  </defs>
  <!-- Generator: Adobe Illustrator 28.7.1, SVG Export Plug-In . SVG Version: 1.2.0 Build 142)  -->
  <g>
    <g id="Layer_1">
      <g>
        <rect class="cls-1" x="31.98" y="32.08" width="45.99" height="45.99" rx="23" ry="23"/>
        <path class="cls-2" d="M69.44,47.75c-.2-1.93-.94-3.65-2.38-5.02-1.51-1.44-3.36-2.08-5.39-2.19-3.46-.19-11.66-.31-14.54.16-3.29.54-5.45,2.46-6.36,5.71-.7,2.5-.56,14.03-.15,16.51.56,3.38,2.56,5.55,5.91,6.41,2.32.6,13.72.52,16.28.11,3.38-.55,5.56-2.54,6.44-5.88.67-2.57.44-13.5.2-15.81ZM66.74,62.45c-.39,2.57-2.1,4.16-4.68,4.44-2.37.26-12.96.4-15.16-.21-2.1-.59-3.31-2.03-3.66-4.15-.33-2.02-.42-12.13,0-14.84.39-2.55,2.09-4.14,4.66-4.42,2.6-.29,11.98-.33,14.47.06,2.56.39,4.15,2.1,4.43,4.69.26,2.41.34,11.84-.06,14.44ZM54.98,47.54c-4.16,0-7.54,3.37-7.54,7.54,0,4.16,3.37,7.54,7.54,7.54,4.16,0,7.54-3.37,7.54-7.54,0-4.16-3.37-7.54-7.54-7.54ZM54.93,59.95c-2.69-.02-4.86-2.23-4.83-4.92.02-2.69,2.23-4.86,4.92-4.83,2.69.02,4.86,2.23,4.83,4.92-.02,2.69-2.23,4.86-4.92,4.83ZM64.58,47.25c0,.97-.79,1.76-1.77,1.76-.97,0-1.76-.79-1.76-1.77,0-.98.79-1.76,1.77-1.76.97,0,1.76.79,1.76,1.77Z"/>
      </g>
    </g>
  </g>
</svg>