<?xml version="1.0" encoding="UTF-8"?>
<svg xmlns="http://www.w3.org/2000/svg" version="1.1" viewBox="0 0 109.96 114.04">
  <defs>
    <style>
      .cls-1 {
        fill: #fefcfd;
      }

      .cls-2 {
        fill: #197d8e;
      }
    </style>
  </defs>
  <!-- Generator: Adobe Illustrator 28.7.1, SVG Export Plug-In . SVG Version: 1.2.0 Build 142)  -->
  <g>
    <g id="Layer_1">
      <g>
        <rect class="cls-1" x="33.7" y="29.41" width="45.99" height="45.99" rx="23" ry="23"/>
        <g>
          <rect class="cls-2" x="44.22" y="46.83" width="5.71" height="18.35"/>
          <path class="cls-2" d="M47.08,37.71c-4.33.02-4.33,6.59,0,6.62,4.32-.02,4.33-6.59,0-6.62Z"/>
          <path class="cls-2" d="M71.42,55.83v-.06s0,0,0,0c-.04-5.01-1.08-9.59-6.96-9.4-2.78,0-4.64,1.52-5.4,2.96h-.07v-2.51h-5.47v18.35h5.7v-9.08c0-2.39.45-4.71,3.42-4.71s2.96,2.74,2.96,4.87v8.92h5.7c0-1.26.12-8.25.12-9.35Z"/>
        </g>
      </g>
    </g>
  </g>
</svg>