<?xml version="1.0" encoding="UTF-8"?>
<svg xmlns="http://www.w3.org/2000/svg" version="1.1" viewBox="0 0 109.96 114.04">
  <defs>
    <style>
      .cls-1 {
        fill: #fefcfd;
      }

      .cls-2 {
        fill: #197d8e;
      }
    </style>
  </defs>
  <!-- Generator: Adobe Illustrator 28.7.1, SVG Export Plug-In . SVG Version: 1.2.0 Build 142)  -->
  <g>
    <g id="Layer_1">
      <g>
        <rect class="cls-1" x="29.6" y="33.1" width="45.99" height="45.99" rx="23" ry="23"/>
        <g>
          <polygon class="cls-2" points="67.41 50.22 67.41 61.93 60.26 56.07 67.41 50.22"/>
          <g>
            <polygon class="cls-2" points="44.98 56.06 37.67 62.02 37.67 50.09 44.98 56.06"/>
            <path class="cls-2" d="M67.49,47.98l-8.91,7.35s-.06.05-.08.07l-5.69,4.67-2.38-1.95-3.31-2.72h0s-.02-.02-.04-.03l-.52-.43-8.43-6.93c.32-.8.93-1.49,1.68-1.74h26.01c.74.25,1.35.93,1.67,1.72Z"/>
            <path class="cls-2" d="M67.51,64.11c-.34.83-.99,1.47-1.8,1.82-.04,0-.07-.01-.11-.01h-25.57s-.07.02-.11,0c-.82-.35-1.47-1.01-1.8-1.85l8.39-6.88,2.76,2.27,2.93,2.41c.11.11.26.18.41.22.06.01.13.02.2.02.2,0,.4-.07.56-.2l5.74-4.7,8.39,6.89Z"/>
          </g>
        </g>
      </g>
    </g>
  </g>
</svg>