<?xml version="1.0" encoding="UTF-8"?>
<svg xmlns="http://www.w3.org/2000/svg" version="1.1" viewBox="0 0 109.96 114.04">
  <defs>
    <style>
      .cls-1 {
        fill: #197d8e;
        fill-rule: evenodd;
      }

      .cls-2 {
        fill: #fefcfd;
      }
    </style>
  </defs>
  <!-- Generator: Adobe Illustrator 28.7.1, SVG Export Plug-In . SVG Version: 1.2.0 Build 142)  -->
  <g>
    <g id="Layer_1">
      <g>
        <rect class="cls-2" x="31.98" y="29.41" width="45.99" height="45.99" rx="23" ry="23"/>
        <g>
          <path class="cls-1" d="M39.59,67.83c.17-.67.32-1.25.48-1.84.51-1.86,1.03-3.73,1.52-5.6.07-.28.04-.65-.09-.9-4.74-9.03.15-19.96,10.09-22.3,9.03-2.12,17.15,3.98,18.63,12.13,1.54,8.5-4.02,16.58-12.45,18.05-3.35.58-6.56.09-9.62-1.4-.27-.14-.66-.17-.95-.1-4.08,1.02-6.79,1.79-7.61,1.95ZM43.17,64.29c1.53-.4,2.95-.75,4.35-1.15.4-.11.7-.05,1.05.15,2.65,1.53,5.49,2.1,8.53,1.61,6.99-1.12,11.78-7.66,10.71-14.62-1.11-7.22-7.88-12.06-15.03-10.75-8.65,1.59-13.25,11.24-8.94,18.87.48.85.61,1.54.29,2.44-.38,1.08-.62,2.21-.95,3.44Z"/>
          <path class="cls-1" d="M59.09,59.56c-3.01-.11-7.8-2.48-11.08-8.18-1.16-2.02-1-4.33.71-5.92.58-.54,1.3-.41,1.98-.29.17.02.34.28.42.47.44.99.87,1.99,1.25,3.01.2.54-.17,1.04-.95,1.94-.25.28-.3.55-.11.87,1.26,2.14,3.02,3.68,5.34,4.59.34.13.6.05.81-.22,1.23-1.5,1.35-1.94,2-1.63,3.11,1.49,3.35,1.55,3.37,1.9.11,2.62-2.3,3.57-3.76,3.46Z"/>
        </g>
      </g>
    </g>
  </g>
</svg>