<?xml version="1.0" encoding="UTF-8"?>
<svg xmlns="http://www.w3.org/2000/svg" version="1.1" xmlns:xlink="http://www.w3.org/1999/xlink" viewBox="0 0 828.02 732.54">
  <defs>
    <style>
      .cls-1 {
        fill: url(#linear-gradient-15);
      }

      .cls-2 {
        fill: url(#linear-gradient-13);
      }

      .cls-3 {
        fill: url(#linear-gradient-28);
      }

      .cls-4 {
        fill: url(#linear-gradient-2);
      }

      .cls-5 {
        fill: url(#linear-gradient-25);
      }

      .cls-6 {
        fill: url(#linear-gradient-10);
      }

      .cls-7 {
        fill: url(#linear-gradient-12);
      }

      .cls-8 {
        fill: url(#linear-gradient-27);
      }

      .cls-9 {
        fill: url(#linear-gradient-26);
      }

      .cls-10 {
        fill: url(#linear-gradient-4);
      }

      .cls-11 {
        fill: url(#linear-gradient-30);
      }

      .cls-12 {
        fill: url(#linear-gradient-3);
      }

      .cls-13 {
        fill: url(#linear-gradient-5);
      }

      .cls-14 {
        fill: url(#linear-gradient-22);
      }

      .cls-15 {
        fill: url(#linear-gradient-24);
      }

      .cls-16 {
        fill: url(#linear-gradient-8);
      }

      .cls-17 {
        fill: url(#linear-gradient-14);
      }

      .cls-18 {
        fill: url(#linear-gradient-29);
      }

      .cls-19 {
        fill: url(#linear-gradient-20);
      }

      .cls-20 {
        fill: url(#linear-gradient-17);
      }

      .cls-21 {
        fill: url(#linear-gradient-7);
      }

      .cls-22 {
        fill: url(#linear-gradient-9);
      }

      .cls-23 {
        fill: url(#linear-gradient-11);
      }

      .cls-24 {
        fill: url(#linear-gradient-19);
      }

      .cls-25 {
        fill: url(#linear-gradient-6);
      }

      .cls-26 {
        fill: url(#linear-gradient-21);
      }

      .cls-27 {
        fill: url(#linear-gradient-32);
      }

      .cls-28 {
        fill: url(#linear-gradient-16);
      }

      .cls-29 {
        fill: url(#linear-gradient);
      }

      .cls-30 {
        fill: url(#linear-gradient-23);
      }

      .cls-31 {
        fill: url(#linear-gradient-31);
      }

      .cls-32 {
        fill: url(#linear-gradient-18);
      }
    </style>
    <linearGradient id="linear-gradient" x1="2102.49" y1="297.37" x2="1939.9" y2="239.93" gradientTransform="translate(-1385.86)" gradientUnits="userSpaceOnUse">
      <stop offset="0" stop-color="#21201e"/>
      <stop offset="1" stop-color="#21201e"/>
    </linearGradient>
    <linearGradient id="linear-gradient-2" x1="1945.34" y1="216.43" x2="1924.49" y2="233.57" gradientTransform="translate(-1385.86)" gradientUnits="userSpaceOnUse">
      <stop offset="0" stop-color="#cfdc2a"/>
      <stop offset="1" stop-color="#1ea6c4"/>
    </linearGradient>
    <linearGradient id="linear-gradient-3" x1="1924.05" y1="247.06" x2="1963.89" y2="264.67" xlink:href="#linear-gradient-2"/>
    <linearGradient id="linear-gradient-4" x1="1907.17" y1="281.54" x2="1909.95" y2="256.06" xlink:href="#linear-gradient-2"/>
    <linearGradient id="linear-gradient-5" x1="1887.14" y1="238.83" x2="1848.69" y2="250.41" gradientTransform="translate(-1385.86)" gradientUnits="userSpaceOnUse">
      <stop offset="0" stop-color="#0f8d82"/>
      <stop offset="1" stop-color="#5e2f81"/>
    </linearGradient>
    <linearGradient id="linear-gradient-6" x1="1885.89" y1="197.38" x2="1911.83" y2="214.52" xlink:href="#linear-gradient-5"/>
    <linearGradient id="linear-gradient-7" x1="1821.72" y1="324.62" x2="1801.8" y2="312.57" xlink:href="#linear-gradient-5"/>
    <linearGradient id="linear-gradient-8" x1="1854.43" y1="365.86" x2="1823.85" y2="334.82" xlink:href="#linear-gradient-5"/>
    <linearGradient id="linear-gradient-9" x1="1918.05" y1="325.32" x2="1903.69" y2="375.35" xlink:href="#linear-gradient-5"/>
    <linearGradient id="linear-gradient-10" x1="1797.38" y1="394.56" x2="1754.76" y2="480.73" xlink:href="#linear-gradient-5"/>
    <linearGradient id="linear-gradient-11" x1="1827.21" y1="511.2" x2="1849.44" y2="443.1" xlink:href="#linear-gradient-5"/>
    <linearGradient id="linear-gradient-12" x1="1897.14" y1="408.17" x2="1895.29" y2="490.63" xlink:href="#linear-gradient-5"/>
    <linearGradient id="linear-gradient-13" x1="1746.24" y1="504.72" x2="1711.96" y2="633.5" gradientTransform="translate(-1385.86)" gradientUnits="userSpaceOnUse">
      <stop offset="0" stop-color="#ee6e0f"/>
      <stop offset="1" stop-color="#e41369"/>
    </linearGradient>
    <linearGradient id="linear-gradient-14" x1="1727.48" y1="690.96" x2="1783.07" y2="544.57" xlink:href="#linear-gradient-13"/>
    <linearGradient id="linear-gradient-15" x1="1764.39" y1="160.7" x2="1702.32" y2="61.57" xlink:href="#linear-gradient-13"/>
    <linearGradient id="linear-gradient-16" x1="1794.84" y1="218.3" x2="1765.81" y2="163.33" xlink:href="#linear-gradient-13"/>
    <linearGradient id="linear-gradient-17" x1="1754.98" y1="195.4" x2="1815.51" y2="268.28" xlink:href="#linear-gradient-13"/>
    <linearGradient id="linear-gradient-18" x1="1483.22" y1="142.17" x2="1564.75" y2="195.9" xlink:href="#linear-gradient-2"/>
    <linearGradient id="linear-gradient-19" x1="1570.06" y1="229.46" x2="1620.71" y2="226.99" xlink:href="#linear-gradient-2"/>
    <linearGradient id="linear-gradient-20" x1="1648.44" y1="240.16" x2="1744.18" y2="261.78" xlink:href="#linear-gradient-2"/>
    <linearGradient id="linear-gradient-21" x1="1744.05" y1="364.26" x2="1648.93" y2="317.32" xlink:href="#linear-gradient-2"/>
    <linearGradient id="linear-gradient-22" x1="1610.82" y1="306.33" x2="1563.26" y2="264.95" xlink:href="#linear-gradient-2"/>
    <linearGradient id="linear-gradient-23" x1="1658.46" y1="64.56" x2="1651.05" y2="86.8" xlink:href="#linear-gradient-13"/>
    <linearGradient id="linear-gradient-24" x1="1675.21" y1="156.63" x2="1662.55" y2="154.16" xlink:href="#linear-gradient-13"/>
    <linearGradient id="linear-gradient-25" x1="1439.98" y1="227.07" x2="1461.9" y2="229.54" xlink:href="#linear-gradient-13"/>
    <linearGradient id="linear-gradient-26" x1="1443.3" y1="325.4" x2="1432.49" y2="306.56" xlink:href="#linear-gradient-13"/>
    <linearGradient id="linear-gradient-27" x1="1507.77" y1="316.11" x2="1525.99" y2="344.84" xlink:href="#linear-gradient-13"/>
    <linearGradient id="linear-gradient-28" x1="1613.46" y1="379.13" x2="1615.62" y2="399.82" xlink:href="#linear-gradient-13"/>
    <linearGradient id="linear-gradient-29" x1="1476.57" y1="392.62" x2="1475.33" y2="402.51" xlink:href="#linear-gradient-13"/>
    <linearGradient id="linear-gradient-30" x1="1496.65" y1="464.05" x2="1514.87" y2="472.08" xlink:href="#linear-gradient-13"/>
    <linearGradient id="linear-gradient-31" x1="1597.36" y1="461.1" x2="1597.97" y2="473.15" xlink:href="#linear-gradient-13"/>
    <linearGradient id="linear-gradient-32" x1="1694.89" y1="449.83" x2="1684.39" y2="477.01" xlink:href="#linear-gradient-13"/>
  </defs>
  <!-- Generator: Adobe Illustrator 28.7.1, SVG Export Plug-In . SVG Version: 1.2.0 Build 142)  -->
  <g>
    <g id="Layer_1">
      <g>
        <polygon class="cls-29" points="598.25 235.22 828.02 333.43 593.31 274.14 598.25 235.22"/>
        <polygon class="cls-4" points="527.22 238.93 598.25 235.22 539.57 182.11 527.22 238.93"/>
        <polygon class="cls-12" points="527.22 238.93 558.72 294.52 593.31 274.14 598.25 235.22 527.22 238.93"/>
        <polygon class="cls-10" points="482.95 277.22 527.22 238.93 558.72 294.52 482.95 277.22"/>
        <polygon class="cls-13" points="527.22 238.93 466.28 216.49 453.51 232.34 463.19 263.43 482.95 277.22 527.22 238.93"/>
        <polygon class="cls-25" points="466.28 216.49 539.57 182.11 527.22 238.93 466.28 216.49"/>
        <polygon class="cls-21" points="449.81 240.89 457.84 269.61 479.15 284.33 376.31 380.78 449.81 240.89"/>
        <polygon class="cls-16" points="376.31 380.78 464.32 377.39 502.93 292.15 479.15 284.33 376.31 380.78"/>
        <polygon class="cls-22" points="464.32 377.39 558.72 417.23 554.81 304.2 502.93 292.15 464.32 377.39"/>
        <polygon class="cls-6" points="376.31 380.78 334.31 461.08 395.45 514.51 464.32 377.39 376.31 380.78"/>
        <polygon class="cls-23" points="482.95 520.99 464.32 377.39 395.45 514.51 482.95 520.99"/>
        <polygon class="cls-7" points="558.72 417.23 482.95 520.99 464.32 377.39 558.72 417.23"/>
        <polygon class="cls-2" points="334.31 461.08 283.35 732.54 395.45 514.51 334.31 461.08"/>
        <polygon class="cls-17" points="395.45 514.51 402.56 642.36 283.35 732.54 395.45 514.51"/>
        <polygon class="cls-1" points="294.62 0 312.22 151.02 445.18 170.94 294.62 0"/>
        <polygon class="cls-28" points="312.22 151.02 449.81 240.89 445.18 170.94 312.22 151.02"/>
        <polygon class="cls-20" points="312.22 151.02 416.55 304.18 449.81 240.89 312.22 151.02"/>
        <polygon class="cls-32" points="0 77.36 231.16 158.89 147.77 246.86 151.02 202.44 105.62 200.58 0 77.36"/>
        <polygon class="cls-24" points="250.15 294.52 231.16 158.89 147.77 246.86 250.15 294.52"/>
        <polygon class="cls-19" points="250.15 294.52 395.45 344.34 416.55 304.18 345.28 199.54 231.16 158.89 250.15 294.52"/>
        <polygon class="cls-26" points="216.33 332.56 250.15 294.52 395.45 344.34 377.6 378.32 259.42 332.56 216.33 332.56"/>
        <polygon class="cls-14" points="147.77 246.86 216.33 332.56 250.15 294.52 147.77 246.86"/>
        <polygon class="cls-30" points="274.7 25.48 276.56 85.47 245.98 115.35 274.7 25.48"/>
        <polygon class="cls-15" points="250.15 147.77 294.62 147.77 302.5 169.08 250.15 147.77"/>
        <polygon class="cls-5" points="25.02 216.49 94.96 216.49 94.96 246.86 25.02 216.49"/>
        <polygon class="cls-9" points="48.64 284.33 72.73 339.09 41.23 322.88 48.64 284.33"/>
        <polygon class="cls-8" points="106.08 294.52 122.76 354.69 168.62 352.53 106.08 294.52"/>
        <polygon class="cls-3" points="161.21 371.98 231.16 371.98 295.55 401.17 192.25 411.82 161.21 371.98"/>
        <polygon class="cls-18" points="51.88 397 129.71 386.81 94.96 411.82 51.88 397"/>
        <polygon class="cls-11" points="94.5 453.98 142.22 465.09 125.08 483.16 94.5 453.98"/>
        <polygon class="cls-31" points="168.62 461.08 253.86 451.2 246.44 483.16 168.62 461.08"/>
        <polygon class="cls-27" points="295.55 523.93 331.68 417.23 289.53 461.08 295.55 523.93"/>
      </g>
    </g>
  </g>
</svg>