<?xml version="1.0" encoding="UTF-8"?>
<svg xmlns="http://www.w3.org/2000/svg" version="1.1" xmlns:xlink="http://www.w3.org/1999/xlink" viewBox="0 0 1044.77 1354.21">
  <defs>
    <style>
      .cls-1 {
        fill: url(#linear-gradient-15);
      }

      .cls-2 {
        fill: url(#linear-gradient-13);
      }

      .cls-3 {
        fill: url(#linear-gradient-28);
      }

      .cls-4 {
        fill: url(#linear-gradient-2);
      }

      .cls-5 {
        fill: url(#linear-gradient-25);
      }

      .cls-6 {
        fill: url(#linear-gradient-10);
      }

      .cls-7 {
        fill: url(#linear-gradient-12);
      }

      .cls-8 {
        fill: url(#linear-gradient-27);
      }

      .cls-9 {
        fill: url(#linear-gradient-26);
      }

      .cls-10 {
        fill: none;
      }

      .cls-11 {
        fill: url(#linear-gradient-4);
      }

      .cls-12 {
        fill: url(#linear-gradient-30);
      }

      .cls-13 {
        fill: url(#linear-gradient-3);
      }

      .cls-14 {
        fill: url(#linear-gradient-34);
      }

      .cls-15 {
        fill: url(#linear-gradient-5);
      }

      .cls-16 {
        fill: url(#linear-gradient-22);
      }

      .cls-17 {
        fill: url(#linear-gradient-24);
      }

      .cls-18 {
        fill: url(#linear-gradient-33);
      }

      .cls-19 {
        fill: url(#linear-gradient-8);
      }

      .cls-20 {
        fill: url(#linear-gradient-14);
      }

      .cls-21 {
        fill: url(#linear-gradient-29);
      }

      .cls-22 {
        fill: url(#linear-gradient-20);
      }

      .cls-23 {
        fill: url(#linear-gradient-17);
      }

      .cls-24 {
        fill: url(#linear-gradient-7);
      }

      .cls-25 {
        fill: url(#linear-gradient-9);
      }

      .cls-26 {
        fill: url(#linear-gradient-11);
      }

      .cls-27 {
        fill: url(#linear-gradient-19);
      }

      .cls-28 {
        fill: url(#linear-gradient-6);
      }

      .cls-29 {
        fill: url(#linear-gradient-21);
      }

      .cls-30 {
        fill: url(#linear-gradient-32);
      }

      .cls-31 {
        fill: url(#linear-gradient-16);
      }

      .cls-32 {
        fill: url(#linear-gradient);
      }

      .cls-33 {
        fill: url(#linear-gradient-23);
      }

      .cls-34 {
        fill: url(#linear-gradient-31);
      }

      .cls-35 {
        clip-path: url(#clippath);
      }

      .cls-36 {
        fill: url(#linear-gradient-18);
      }
    </style>
    <clipPath id="clippath">
      <rect class="cls-10" x="47.2" y="-117.03" width="1062.19" height="1418.84" transform="translate(1156.58 1184.78) rotate(-180)"/>
    </clipPath>
    <linearGradient id="linear-gradient" x1="384.82" y1="505.61" x2="1324.54" y2="1304.6" gradientTransform="translate(1294.87) rotate(-180) scale(1 -1)" gradientUnits="userSpaceOnUse">
      <stop offset="0" stop-color="#cfdc2a"/>
      <stop offset=".6" stop-color="#1ea6c4"/>
      <stop offset="1" stop-color="#1ea6c4" stop-opacity=".2"/>
    </linearGradient>
    <linearGradient id="linear-gradient-2" x1="2239.83" y1="18021.2" x2="2829.15" y2="18650.12" gradientTransform="translate(-2427.9 18844.64) scale(1 -1)" gradientUnits="userSpaceOnUse">
      <stop offset=".12" stop-color="#0f8d82"/>
      <stop offset=".54" stop-color="#5e2f81"/>
    </linearGradient>
    <linearGradient id="linear-gradient-3" x1="2185.91" y1="588.8" x2="2023.31" y2="531.36" gradientTransform="translate(-1385.86)" gradientUnits="userSpaceOnUse">
      <stop offset="0" stop-color="#21201e"/>
      <stop offset="1" stop-color="#21201e"/>
    </linearGradient>
    <linearGradient id="linear-gradient-4" x1="2028.75" y1="507.86" x2="2007.91" y2="525" gradientTransform="translate(-1385.86)" gradientUnits="userSpaceOnUse">
      <stop offset="0" stop-color="#cfdc2a"/>
      <stop offset="1" stop-color="#1ea6c4"/>
    </linearGradient>
    <linearGradient id="linear-gradient-5" x1="2007.47" y1="538.49" x2="2047.3" y2="556.1" xlink:href="#linear-gradient-4"/>
    <linearGradient id="linear-gradient-6" x1="1990.59" y1="572.97" x2="1993.37" y2="547.49" xlink:href="#linear-gradient-4"/>
    <linearGradient id="linear-gradient-7" x1="1970.56" y1="530.26" x2="1932.11" y2="541.84" gradientTransform="translate(-1385.86)" gradientUnits="userSpaceOnUse">
      <stop offset="0" stop-color="#0f8d82"/>
      <stop offset="1" stop-color="#5e2f81"/>
    </linearGradient>
    <linearGradient id="linear-gradient-8" x1="1969.31" y1="488.81" x2="1995.25" y2="505.95" xlink:href="#linear-gradient-7"/>
    <linearGradient id="linear-gradient-9" x1="1905.13" y1="616.05" x2="1885.21" y2="604" xlink:href="#linear-gradient-7"/>
    <linearGradient id="linear-gradient-10" x1="1937.85" y1="657.29" x2="1907.27" y2="626.25" xlink:href="#linear-gradient-7"/>
    <linearGradient id="linear-gradient-11" x1="2001.46" y1="616.75" x2="1987.1" y2="666.78" xlink:href="#linear-gradient-7"/>
    <linearGradient id="linear-gradient-12" x1="1880.8" y1="685.99" x2="1838.18" y2="772.16" xlink:href="#linear-gradient-7"/>
    <linearGradient id="linear-gradient-13" x1="1910.63" y1="802.62" x2="1932.86" y2="734.53" xlink:href="#linear-gradient-7"/>
    <linearGradient id="linear-gradient-14" x1="1980.56" y1="699.6" x2="1978.7" y2="782.06" xlink:href="#linear-gradient-7"/>
    <linearGradient id="linear-gradient-15" x1="1829.66" y1="796.14" x2="1795.38" y2="924.93" gradientTransform="translate(-1385.86)" gradientUnits="userSpaceOnUse">
      <stop offset="0" stop-color="#ee6e0f"/>
      <stop offset="1" stop-color="#e41369"/>
    </linearGradient>
    <linearGradient id="linear-gradient-16" x1="1810.9" y1="982.39" x2="1866.49" y2="836" xlink:href="#linear-gradient-15"/>
    <linearGradient id="linear-gradient-17" x1="1847.81" y1="452.13" x2="1785.73" y2="353" xlink:href="#linear-gradient-15"/>
    <linearGradient id="linear-gradient-18" x1="1878.25" y1="509.73" x2="1849.22" y2="454.76" xlink:href="#linear-gradient-15"/>
    <linearGradient id="linear-gradient-19" x1="1838.4" y1="486.83" x2="1898.93" y2="559.71" xlink:href="#linear-gradient-15"/>
    <linearGradient id="linear-gradient-20" x1="1566.64" y1="433.6" x2="1648.17" y2="487.33" xlink:href="#linear-gradient-4"/>
    <linearGradient id="linear-gradient-21" x1="1653.48" y1="520.89" x2="1704.13" y2="518.42" xlink:href="#linear-gradient-4"/>
    <linearGradient id="linear-gradient-22" x1="1731.86" y1="531.59" x2="1827.59" y2="553.21" xlink:href="#linear-gradient-4"/>
    <linearGradient id="linear-gradient-23" x1="1827.47" y1="655.69" x2="1732.35" y2="608.74" xlink:href="#linear-gradient-4"/>
    <linearGradient id="linear-gradient-24" x1="1694.24" y1="597.76" x2="1646.68" y2="556.38" xlink:href="#linear-gradient-4"/>
    <linearGradient id="linear-gradient-25" x1="1741.88" y1="355.99" x2="1734.47" y2="378.23" xlink:href="#linear-gradient-15"/>
    <linearGradient id="linear-gradient-26" x1="1758.63" y1="448.06" x2="1745.96" y2="445.59" xlink:href="#linear-gradient-15"/>
    <linearGradient id="linear-gradient-27" x1="1523.39" y1="518.5" x2="1545.32" y2="520.97" xlink:href="#linear-gradient-15"/>
    <linearGradient id="linear-gradient-28" x1="1526.72" y1="616.83" x2="1515.91" y2="597.99" xlink:href="#linear-gradient-15"/>
    <linearGradient id="linear-gradient-29" x1="1591.18" y1="607.54" x2="1609.4" y2="636.27" xlink:href="#linear-gradient-15"/>
    <linearGradient id="linear-gradient-30" x1="1696.88" y1="670.56" x2="1699.04" y2="691.25" xlink:href="#linear-gradient-15"/>
    <linearGradient id="linear-gradient-31" x1="1559.99" y1="684.05" x2="1558.75" y2="693.94" xlink:href="#linear-gradient-15"/>
    <linearGradient id="linear-gradient-32" x1="1580.07" y1="755.48" x2="1598.29" y2="763.51" xlink:href="#linear-gradient-15"/>
    <linearGradient id="linear-gradient-33" x1="1680.77" y1="752.53" x2="1681.39" y2="764.58" xlink:href="#linear-gradient-15"/>
    <linearGradient id="linear-gradient-34" x1="1778.3" y1="741.26" x2="1767.8" y2="768.44" xlink:href="#linear-gradient-15"/>
  </defs>
  <!-- Generator: Adobe Illustrator 28.6.0, SVG Export Plug-In . SVG Version: 1.2.0 Build 709)  -->
  <g>
    <g id="Layer_1">
      <g id="Illustration">
        <g class="cls-35">
          <path class="cls-32" d="M36.66,1722.48v-881.64s437.86-437.86,437.86-437.86c119.14-119.14,312.31-119.14,431.45,0l9.36,9.36c119.14,119.14,119.14,312.32,0,431.47L36.66,1722.48Z"/>
          <path class="cls-4" d="M482.92,458.92L38.64,903.2H-239.26v-376.87S155.53,131.54,155.53,131.54c88.48-88.48,231.95-88.48,320.44,0l6.95,6.94c88.48,88.5,88.48,231.95,0,320.44Z"/>
        </g>
        <g>
          <polygon class="cls-13" points="681.67 526.65 911.44 624.86 676.73 565.57 681.67 526.65"/>
          <polygon class="cls-11" points="610.64 530.36 681.67 526.65 622.99 473.54 610.64 530.36"/>
          <polygon class="cls-15" points="610.64 530.36 642.14 585.95 676.73 565.57 681.67 526.65 610.64 530.36"/>
          <polygon class="cls-28" points="566.37 568.65 610.64 530.36 642.14 585.95 566.37 568.65"/>
          <polygon class="cls-24" points="610.64 530.36 549.7 507.92 536.93 523.77 546.61 554.86 566.37 568.65 610.64 530.36"/>
          <polygon class="cls-19" points="549.7 507.92 622.99 473.54 610.64 530.36 549.7 507.92"/>
          <polygon class="cls-25" points="533.23 532.32 541.25 561.04 562.56 575.76 459.72 672.21 533.23 532.32"/>
          <polygon class="cls-6" points="459.72 672.21 547.74 668.82 586.34 583.58 562.56 575.76 459.72 672.21"/>
          <polygon class="cls-26" points="547.74 668.82 642.14 708.66 638.23 595.62 586.34 583.58 547.74 668.82"/>
          <polygon class="cls-7" points="459.72 672.21 417.72 752.51 478.87 805.94 547.74 668.82 459.72 672.21"/>
          <polygon class="cls-2" points="566.37 812.42 547.74 668.82 478.87 805.94 566.37 812.42"/>
          <polygon class="cls-20" points="642.14 708.66 566.37 812.42 547.74 668.82 642.14 708.66"/>
          <polygon class="cls-1" points="417.72 752.51 366.77 1023.97 478.87 805.94 417.72 752.51"/>
          <polygon class="cls-31" points="478.87 805.94 485.97 933.79 366.77 1023.97 478.87 805.94"/>
          <polygon class="cls-23" points="378.04 291.43 395.64 442.45 528.59 462.37 378.04 291.43"/>
          <polygon class="cls-36" points="395.64 442.45 533.23 532.32 528.59 462.37 395.64 442.45"/>
          <polygon class="cls-27" points="395.64 442.45 499.97 595.61 533.23 532.32 395.64 442.45"/>
          <polygon class="cls-22" points="83.42 368.79 314.58 450.32 231.19 538.29 234.43 493.87 189.04 492.01 83.42 368.79"/>
          <polygon class="cls-29" points="333.57 585.95 314.58 450.32 231.19 538.29 333.57 585.95"/>
          <polygon class="cls-16" points="333.57 585.95 478.87 635.77 499.97 595.61 428.7 490.97 314.58 450.32 333.57 585.95"/>
          <polygon class="cls-33" points="299.75 623.99 333.57 585.95 478.87 635.77 461.02 669.74 342.83 623.99 299.75 623.99"/>
          <polygon class="cls-17" points="231.19 538.29 299.75 623.99 333.57 585.95 231.19 538.29"/>
          <polygon class="cls-5" points="358.12 316.91 359.97 376.9 329.4 406.78 358.12 316.91"/>
          <polygon class="cls-9" points="333.57 439.2 378.04 439.2 385.91 460.51 333.57 439.2"/>
          <polygon class="cls-8" points="108.43 507.92 178.38 507.92 178.38 538.29 108.43 507.92"/>
          <polygon class="cls-3" points="132.06 575.76 156.15 630.52 124.65 614.31 132.06 575.76"/>
          <polygon class="cls-21" points="189.5 585.95 206.18 646.12 252.04 643.96 189.5 585.95"/>
          <polygon class="cls-12" points="244.63 663.41 314.58 663.41 378.97 692.6 275.66 703.25 244.63 663.41"/>
          <polygon class="cls-34" points="135.3 688.43 213.13 678.24 178.38 703.25 135.3 688.43"/>
          <polygon class="cls-30" points="177.92 745.41 225.63 756.52 208.49 774.59 177.92 745.41"/>
          <polygon class="cls-18" points="252.04 752.51 337.27 742.63 329.86 774.59 252.04 752.51"/>
          <polygon class="cls-14" points="378.97 815.36 415.1 708.66 372.94 752.51 378.97 815.36"/>
        </g>
      </g>
    </g>
  </g>
</svg>