<?xml version="1.0" encoding="UTF-8"?>
<svg xmlns="http://www.w3.org/2000/svg" version="1.1" viewBox="0 0 2191.9 343.15">
  <defs>
    <style>
      .cls-1 {
        fill: #197d8e;
      }
    </style>
  </defs>
  <!-- Generator: Adobe Illustrator 28.7.1, SVG Export Plug-In . SVG Version: 1.2.0 Build 142)  -->
  <g>
    <g id="Layer_1">
      <g id="Celebrations_Background">
        <path class="cls-1" d="M709.48-908.66c525.21,89.19,1201.2,18.98,1346.3-742.43l-4.25,1578.89V192.82l-1920-13.27.86-633.41c-7.08-304.53,244.77-511.23,577.09-454.8Z"/>
        <path class="cls-1" d="M2051.53,192.76c-42.61,54.24-118.23,70.71-187.17,68.43-68.94-2.28-137.13-19.47-206.06-16.79-89.05,3.46-174.79,39.94-263.91,39.7-103.61-.27-204.61-50.21-307.37-36.94-45.8,5.91-89.04,24.16-134.11,34.24-72.57,16.22-149.86,10.62-219.33-15.9-33.55-12.81-66.75-30.66-102.66-29.99-28.67.53-55.58,12.91-83.2,20.63-45.04,12.59-93.48,12.78-138.62.55-29.9-8.11-58.65-21.59-89.52-24.24-36.63-3.14-73.05,9.26-109.79,8-36.74-1.26-78.39-24.79-78.21-61.55l1919.95,13.89Z"/>
      </g>
    </g>
  </g>
</svg>