<?xml version="1.0" encoding="UTF-8"?>
<svg xmlns="http://www.w3.org/2000/svg" version="1.1" viewBox="0 0 1468.6 1791.14">
  <defs>
    <style>
      .cls-1 {
        fill: #db5c3c;
      }
    </style>
  </defs>
  <!-- Generator: Adobe Illustrator 28.7.1, SVG Export Plug-In . SVG Version: 1.2.0 Build 142)  -->
  <g>
    <g id="Layer_1">
      <g>
        <path class="cls-1" d="M1303.54,1037.04L534.61,268.11l-484.41.12v651.73l686.72,683.67c153.14,153.14,401.44,153.14,554.58,0l12.03-12.01c153.14-153.16,153.14-401.44,0-554.58Z"/>
        <path class="cls-1" d="M534.75,268.23c-18.12-14.2-26.08-27.07-39.94-36.16-11.36-7.45-24.87-12.39-38.17-14.58-29.54-4.86-59.81.04-89.68-1.93-42.58-2.81-84.08-20.08-116.08-48.3-28.89-25.48-53.33-61.22-91.29-67.75-20.91-3.6-43.07,2.6-63.26-3.91-19.51-6.3-33.39-23.2-46.12-39.27v244.81l484.55-32.89Z"/>
      </g>
    </g>
  </g>
</svg>