<?xml version="1.0" encoding="UTF-8"?>
<svg xmlns="http://www.w3.org/2000/svg" version="1.1" xmlns:xlink="http://www.w3.org/1999/xlink" viewBox="0 0 176.47 163.15">
  <defs>
    <style>
      .cls-1 {
        fill: url(#linear-gradient-2);
      }

      .cls-2 {
        fill: url(#linear-gradient-4);
      }

      .cls-3 {
        fill: url(#linear-gradient-3);
      }

      .cls-4 {
        fill: url(#linear-gradient-5);
      }

      .cls-5 {
        fill: url(#linear-gradient-7);
      }

      .cls-6 {
        fill: url(#linear-gradient-6);
      }

      .cls-7 {
        fill: url(#linear-gradient);
      }
    </style>
    <linearGradient id="linear-gradient" x1="85.85" y1="31.91" x2="125.84" y2="31.91" gradientTransform="translate(211.69 63.82) rotate(180)" gradientUnits="userSpaceOnUse">
      <stop offset="0" stop-color="#ee6e0f"/>
      <stop offset="1" stop-color="#e41369"/>
    </linearGradient>
    <linearGradient id="linear-gradient-2" x1="11.62" y1="62.85" x2="125.41" y2="62.85" gradientUnits="userSpaceOnUse">
      <stop offset="0" stop-color="#cfdc2a"/>
      <stop offset="1" stop-color="#1ea6c4"/>
    </linearGradient>
    <linearGradient id="linear-gradient-3" x1="88.77" y1="119.15" x2="144.46" y2="119.15" gradientTransform="matrix(1,0,0,1,0,0)" xlink:href="#linear-gradient"/>
    <linearGradient id="linear-gradient-4" x1="33.22" y1="119.38" x2="61.3" y2="119.38" gradientTransform="matrix(1,0,0,1,0,0)" xlink:href="#linear-gradient"/>
    <linearGradient id="linear-gradient-5" x1="33.22" y1="105.19" x2="88.77" y2="105.19" gradientUnits="userSpaceOnUse">
      <stop offset="0" stop-color="#0f8d82"/>
      <stop offset="1" stop-color="#5e2f81"/>
    </linearGradient>
    <linearGradient id="linear-gradient-6" x1="33.22" y1="119.11" x2="144.46" y2="119.11" xlink:href="#linear-gradient-5"/>
    <linearGradient id="linear-gradient-7" x1="85.81" y1="71.46" x2="165.45" y2="71.46" xlink:href="#linear-gradient-5"/>
  </defs>
  <!-- Generator: Adobe Illustrator 28.6.0, SVG Export Plug-In . SVG Version: 1.2.0 Build 709)  -->
  <g>
    <g id="Layer_1">
      <g>
        <rect class="cls-7" x="85.85" y="11.92" width="39.99" height="39.99" transform="translate(211.69 63.82) rotate(-180)"/>
        <polygon class="cls-1" points="125.41 91.3 68.52 34.4 11.62 91.3 125.41 91.3"/>
        <polygon class="cls-3" points="144.46 146.99 144.46 91.3 88.77 91.3 144.46 146.99"/>
        <polygon class="cls-2" points="33.22 147.45 61.3 119.38 33.22 91.3 33.22 147.45"/>
        <polygon class="cls-4" points="33.22 91.3 60.99 119.07 88.77 91.3 33.22 91.3"/>
        <polygon class="cls-6" points="144.46 146.92 88.85 91.3 33.22 146.92 144.46 146.92"/>
        <polygon class="cls-5" points="125.87 51.61 165.45 91.2 125.4 91.3 85.81 51.71 125.87 51.61"/>
      </g>
    </g>
  </g>
</svg>