<?xml version="1.0" encoding="UTF-8"?>
<svg xmlns="http://www.w3.org/2000/svg" version="1.1" viewBox="0 0 57 53.96">
  <defs>
    <style>
      .cls-1 {
        fill: #fefcfd;
      }

      .cls-2 {
        fill: #362c60;
      }
    </style>
  </defs>
  <!-- Generator: Adobe Illustrator 28.6.0, SVG Export Plug-In . SVG Version: 1.2.0 Build 709)  -->
  <g>
    <g id="Layer_1">
      <g>
        <rect class="cls-1" x="5.51" y="3.98" width="45.99" height="45.99" rx="23" ry="23"/>
        <g>
          <g>
            <path class="cls-2" d="M37.95,17.66c-2.81-2.81-6.54-4.35-10.51-4.35-.57,0-1.03.46-1.03,1.03s.46,1.02,1.03,1.02c3.42,0,6.64,1.33,9.06,3.75,2.42,2.42,3.75,5.64,3.75,9.06,0,.57.46,1.03,1.02,1.03.27,0,.53-.11.72-.3.19-.19.3-.45.3-.73,0-3.97-1.55-7.7-4.35-10.51Z"/>
            <path class="cls-2" d="M27.21,19.52c-.57,0-1.03.46-1.03,1.03s.46,1.03,1.03,1.03c1.83,0,3.54.71,4.84,2,1.29,1.29,2,3.01,2,4.84,0,.57.46,1.03,1.03,1.03.27,0,.53-.11.72-.3.19-.19.3-.45.3-.73,0-2.38-.92-4.61-2.6-6.29-1.68-1.68-3.91-2.6-6.29-2.6Z"/>
          </g>
          <path class="cls-2" d="M35.74,38.37s-.01.01-.05.04c-2.29,2.12-3.79,2.24-3.89,2.23,0,0-.01,0-.01,0,0,0,0,0,0,0-.17-.03-.34-.07-.51-.13-2.33-.87-7.33-3.12-11.4-8.36-3.7-4.76-4.79-9.62-5.15-12.04-.03-.17-.04-.34-.03-.51,0,0,0,0,0,0,0,0,0,0,0-.01,0-.1.44-1.54,2.98-3.35.04-.03.04-.03.05-.04,1.24-.85,2.89-.4,3.37.92l1.45,3.96c.04.11.08.23.1.35.07.34.1.77-.05,1.21-.22.63-.67.88-.91,1.17-.9,1.07.25,3.72,1.27,5.25,1.72,2.59,4.81,4.64,6.16,3.9.32-.17.66-.57,1.33-.65.46-.06.86.05,1.18.19.12.05.23.11.34.18l3.57,2.23c1.19.74,1.29,2.46.21,3.49Z"/>
        </g>
      </g>
    </g>
  </g>
</svg>