<?xml version="1.0" encoding="UTF-8"?>
<svg xmlns="http://www.w3.org/2000/svg" version="1.1" viewBox="0 0 57 53.96">
  <defs>
    <style>
      .cls-1 {
        fill: #fefcfd;
      }

      .cls-2, .cls-3 {
        fill: #362c60;
      }

      .cls-4 {
        display: none;
      }

      .cls-3 {
        fill-rule: evenodd;
      }
    </style>
  </defs>
  <!-- Generator: Adobe Illustrator 28.6.0, SVG Export Plug-In . SVG Version: 1.2.0 Build 709)  -->
  <g>
    <g id="Layer_1">
      <g class="cls-4">
        <rect class="cls-1" x="5.51" y="3.98" width="45.99" height="45.99" rx="23" ry="23"/>
        <path class="cls-2" d="M42.96,19.65c-.2-1.93-.94-3.65-2.38-5.02-1.51-1.44-3.36-2.08-5.39-2.19-3.46-.19-11.66-.31-14.54.16-3.29.54-5.45,2.46-6.36,5.71-.7,2.5-.56,14.03-.15,16.51.56,3.38,2.56,5.55,5.91,6.41,2.32.6,13.72.52,16.28.11,3.38-.55,5.56-2.54,6.44-5.88.67-2.57.44-13.5.2-15.81ZM40.26,34.35c-.39,2.57-2.1,4.16-4.68,4.44-2.37.26-12.96.4-15.16-.21-2.1-.59-3.31-2.03-3.66-4.15-.33-2.02-.42-12.13,0-14.84.39-2.55,2.09-4.14,4.66-4.42,2.6-.29,11.98-.33,14.47.06,2.56.39,4.15,2.1,4.43,4.69.26,2.41.34,11.84-.06,14.44ZM28.5,19.44c-4.16,0-7.54,3.37-7.54,7.54,0,4.16,3.37,7.54,7.54,7.54,4.16,0,7.54-3.37,7.54-7.54,0-4.16-3.37-7.54-7.54-7.54ZM28.45,31.85c-2.69-.02-4.86-2.23-4.83-4.92.02-2.69,2.23-4.86,4.92-4.83,2.69.02,4.86,2.23,4.83,4.92-.02,2.69-2.23,4.86-4.92,4.83ZM38.1,19.16c0,.97-.79,1.76-1.77,1.76-.97,0-1.76-.79-1.76-1.77,0-.98.79-1.76,1.77-1.76.97,0,1.76.79,1.76,1.77Z"/>
      </g>
      <g>
        <rect class="cls-1" x="5.51" y="3.98" width="45.99" height="45.99" rx="23" ry="23"/>
        <g>
          <rect class="cls-2" x="16.03" y="21.4" width="5.71" height="18.35"/>
          <path class="cls-2" d="M18.89,12.28c-4.33.02-4.33,6.59,0,6.62,4.32-.02,4.33-6.59,0-6.62Z"/>
          <path class="cls-2" d="M43.23,30.41v-.06s0,0,0,0c-.04-5.01-1.08-9.59-6.96-9.4-2.78,0-4.64,1.52-5.4,2.96h-.07v-2.51h-5.47v18.35h5.7v-9.08c0-2.39.45-4.71,3.42-4.71s2.96,2.74,2.96,4.87v8.92h5.7c0-1.26.12-8.25.12-9.35Z"/>
        </g>
      </g>
      <g class="cls-4">
        <rect class="cls-1" x="-81.61" y="-61.82" width="45.99" height="45.99" rx="5.19" ry="5.19"/>
        <g>
          <path class="cls-3" d="M-74-23.4c.17-.67.32-1.25.48-1.84.51-1.86,1.03-3.73,1.52-5.6.07-.28.04-.65-.09-.9-4.74-9.03.15-19.96,10.09-22.3,9.03-2.12,17.15,3.98,18.63,12.13,1.54,8.5-4.02,16.58-12.45,18.05-3.35.58-6.56.09-9.62-1.4-.27-.14-.66-.17-.95-.1-4.08,1.02-6.79,1.79-7.61,1.95ZM-70.42-26.94c1.53-.4,2.95-.75,4.35-1.15.4-.11.7-.05,1.05.15,2.65,1.53,5.49,2.1,8.53,1.61,6.99-1.12,11.78-7.66,10.71-14.62-1.11-7.22-7.88-12.06-15.03-10.75-8.65,1.59-13.25,11.24-8.94,18.87.48.85.61,1.54.29,2.44-.38,1.08-.62,2.21-.95,3.44Z"/>
          <path class="cls-3" d="M-54.5-31.66c-3.01-.11-7.8-2.48-11.08-8.18-1.16-2.02-1-4.33.71-5.92.58-.54,1.3-.41,1.98-.29.17.02.34.28.42.47.44.99.87,1.99,1.25,3.01.2.54-.17,1.04-.95,1.94-.25.28-.3.55-.11.87,1.26,2.14,3.02,3.68,5.34,4.59.34.13.6.05.81-.22,1.23-1.5,1.35-1.94,2-1.63,3.11,1.49,3.35,1.55,3.37,1.9.11,2.62-2.3,3.57-3.76,3.46Z"/>
        </g>
      </g>
      <g class="cls-4">
        <rect class="cls-1" x="107.69" y="-61.82" width="45.99" height="45.99" rx="15.08" ry="15.08"/>
        <g>
          <polygon class="cls-2" points="145.51 -44.7 145.51 -32.98 138.36 -38.85 145.51 -44.7"/>
          <g>
            <polygon class="cls-2" points="123.07 -38.86 115.77 -32.9 115.77 -44.83 123.07 -38.86"/>
            <path class="cls-2" d="M145.59-46.94l-8.91,7.35s-.06.05-.08.07l-5.69,4.67-2.38-1.95-3.31-2.72h0s-.02-.02-.04-.03l-.52-.43-8.43-6.93c.32-.8.93-1.49,1.68-1.74h26.01c.74.25,1.35.93,1.67,1.72Z"/>
            <path class="cls-2" d="M145.61-30.81c-.34.83-.99,1.47-1.8,1.82-.04,0-.07-.01-.11-.01h-25.57s-.07.02-.11,0c-.82-.35-1.47-1.01-1.8-1.85l8.39-6.88,2.76,2.27,2.93,2.41c.11.11.26.18.41.22.06.01.13.02.2.02.2,0,.4-.07.56-.2l5.74-4.7,8.39,6.89Z"/>
          </g>
        </g>
      </g>
      <g class="cls-4">
        <rect class="cls-1" x="44.59" y="-61.82" width="45.99" height="45.99" rx="15.08" ry="15.08"/>
        <g>
          <g>
            <path class="cls-2" d="M77.04-48.13c-2.81-2.81-6.54-4.35-10.51-4.35-.57,0-1.03.46-1.03,1.03s.46,1.02,1.03,1.02c3.42,0,6.64,1.33,9.06,3.75,2.42,2.42,3.75,5.64,3.75,9.06,0,.57.46,1.03,1.02,1.03.27,0,.53-.11.72-.3.19-.19.3-.45.3-.73,0-3.97-1.55-7.7-4.35-10.51Z"/>
            <path class="cls-2" d="M66.29-46.28c-.57,0-1.03.46-1.03,1.03s.46,1.03,1.03,1.03c1.83,0,3.54.71,4.84,2,1.29,1.29,2,3.01,2,4.84,0,.57.46,1.03,1.03,1.03.27,0,.53-.11.72-.3.19-.19.3-.45.3-.73,0-2.38-.92-4.61-2.6-6.29-1.68-1.68-3.91-2.6-6.29-2.6Z"/>
          </g>
          <path class="cls-2" d="M74.83-27.43s-.01.01-.05.04c-2.29,2.12-3.79,2.24-3.89,2.23,0,0-.01,0-.01,0,0,0,0,0,0,0-.17-.03-.34-.07-.51-.13-2.33-.87-7.33-3.12-11.4-8.36-3.7-4.76-4.79-9.62-5.15-12.04-.03-.17-.04-.34-.03-.51,0,0,0,0,0,0,0,0,0,0,0-.01,0-.1.44-1.54,2.98-3.35.04-.03.04-.03.05-.04,1.24-.85,2.89-.4,3.37.92l1.45,3.96c.04.11.08.23.1.35.07.34.1.77-.05,1.21-.22.63-.67.88-.91,1.17-.9,1.07.25,3.72,1.27,5.25,1.72,2.59,4.81,4.64,6.16,3.9.32-.17.66-.57,1.33-.65.46-.06.86.05,1.18.19.12.05.23.11.34.18l3.57,2.23c1.19.74,1.29,2.46.21,3.49Z"/>
        </g>
      </g>
    </g>
  </g>
</svg>