<?xml version="1.0" encoding="UTF-8"?>
<svg xmlns="http://www.w3.org/2000/svg" version="1.1" viewBox="0 0 1920 967.86">
  <defs>
    <style>
      .cls-1 {
        fill: #197d8e;
      }
    </style>
  </defs>
  <!-- Generator: Adobe Illustrator 28.7.1, SVG Export Plug-In . SVG Version: 1.2.0 Build 142)  -->
  <g>
    <g id="Layer_1">
      <g id="Create_With_Personalisation_background">
        <path class="cls-1" d="M1920.25,808.29c-66.99,5.08-139.39,9.53-197.95-11.23-18.48-6.55-35.59-15.6-56.6-17.71-21.02-2.11-46.97,7.41-43.64,20.43,1.13,4.43,7.28,17.41,12.42,20.46,6.64,3.94,24.58,31.99-43.79,30.35-66.72-1.61-80.6,49.97-132.7,39.69-111.18-21.95-226.24-15.06-335.84,15.32-96.29,26.69-215.3,36.44-317.87,18.89-15.73-2.69-25.68-11.99-24.58-22.06.45-4.12-1.21-8.42-5.2-11.66-10.26-8.33-28.43-10.96-45.19-12.44-116.55-10.29-235.2,7.77-352.59,2.29-11.11-.52-24.21-2.12-28.59-8.45-11.4-16.46,50.02-23.09,45.56-40.79-1.9-7.53-15.35-11.45-27.21-13.48-62.55-10.7-128.89-4.57-193.8-4.71-64.9-.14-136.15-8.92-176.25-40.49V0h1927.15l-3.32,808.29Z"/>
      </g>
    </g>
  </g>
</svg>