<?xml version="1.0" encoding="UTF-8"?>
<svg xmlns="http://www.w3.org/2000/svg" version="1.1" xmlns:xlink="http://www.w3.org/1999/xlink" viewBox="0 0 176.47 277.88">
  <defs>
    <style>
      .cls-1 {
        fill: url(#linear-gradient-2);
      }

      .cls-2 {
        fill: url(#linear-gradient-4);
      }

      .cls-3 {
        fill: url(#linear-gradient-3);
      }

      .cls-4 {
        fill: url(#linear-gradient-5);
      }

      .cls-5 {
        fill: #21201e;
      }

      .cls-6 {
        fill: url(#linear-gradient-6);
      }

      .cls-7 {
        fill: url(#linear-gradient);
      }
    </style>
    <linearGradient id="linear-gradient" x1="-11558.61" y1="49.35" x2="-11558.61" y2="66.93" gradientTransform="translate(-10659.7) rotate(-180) scale(.93 -1)" gradientUnits="userSpaceOnUse">
      <stop offset="0" stop-color="#ee6e0f"/>
      <stop offset="1" stop-color="#e41369"/>
    </linearGradient>
    <linearGradient id="linear-gradient-2" x1="-11533.96" y1="91.01" x2="-11549.72" y2="107.91" gradientTransform="translate(-10659.7) rotate(-180) scale(.93 -1)" gradientUnits="userSpaceOnUse">
      <stop offset="0" stop-color="#cfdc2a"/>
      <stop offset="1" stop-color="#1ea6c4"/>
    </linearGradient>
    <linearGradient id="linear-gradient-3" x1="-11535.23" y1="200.6" x2="-11546.88" y2="226.96" xlink:href="#linear-gradient"/>
    <linearGradient id="linear-gradient-4" x1="-11539.72" y1="138.35" x2="-11526.03" y2="170.88" gradientTransform="translate(-10659.7) rotate(-180) scale(.93 -1)" gradientUnits="userSpaceOnUse">
      <stop offset="0" stop-color="#0f8d82"/>
      <stop offset="1" stop-color="#5e2f81"/>
    </linearGradient>
    <linearGradient id="linear-gradient-5" x1="-11620.52" y1="86.53" x2="-11590.39" y2="88.36" xlink:href="#linear-gradient-4"/>
    <linearGradient id="linear-gradient-6" x1="-11597.66" y1="25.63" x2="-11519.28" y2="25.63" xlink:href="#linear-gradient-4"/>
  </defs>
  <!-- Generator: Adobe Illustrator 28.6.0, SVG Export Plug-In . SVG Version: 1.2.0 Build 709)  -->
  <g>
    <g id="Layer_1">
      <g>
        <g>
          <polygon class="cls-7" points="91.03 73.78 64.48 45.23 91.03 16.68 117.59 45.23 91.03 73.78"/>
          <polygon class="cls-1" points="50.81 151.82 50.81 73.9 123.29 73.9 50.81 151.82"/>
          <polygon class="cls-5" points="3.63 202.55 3.62 165.05 38.51 165.05 3.63 202.55"/>
          <polygon class="cls-5" points="113.56 270.11 78.68 270.11 78.68 232.6 113.56 270.11"/>
          <polygon class="cls-3" points="37.7 188.45 90.9 188.45 90.9 245.65 37.7 188.45"/>
          <polygon class="cls-2" points="90.89 108.78 90.9 188.45 16.79 188.45 90.89 108.78"/>
          <polygon class="cls-4" points="147.89 100.86 98.44 100.86 123.4 73.9 172.85 73.9 147.89 100.86"/>
        </g>
        <polygon class="cls-6" points="127.35 45.23 90.9 6.04 54.45 45.23 127.35 45.23"/>
      </g>
    </g>
  </g>
</svg>