<?xml version="1.0" encoding="UTF-8"?>
<svg xmlns="http://www.w3.org/2000/svg" version="1.1" xmlns:xlink="http://www.w3.org/1999/xlink" viewBox="0 0 176.47 264.01">
  <defs>
    <style>
      .cls-1 {
        stroke-width: 2.69px;
      }

      .cls-1, .cls-2, .cls-3, .cls-4, .cls-5 {
        fill: none;
      }

      .cls-1, .cls-2, .cls-4, .cls-5 {
        stroke-miterlimit: 10;
      }

      .cls-1, .cls-4, .cls-5 {
        stroke: #fafafa;
      }

      .cls-6 {
        fill: url(#linear-gradient-2);
      }

      .cls-7, .cls-8, .cls-9 {
        fill: #ffda40;
      }

      .cls-2 {
        stroke: #fefcfd;
      }

      .cls-10 {
        fill: #464087;
        font-family: GothamRounded-Bold, 'Gotham Rounded';
      }

      .cls-10, .cls-11, .cls-12, .cls-8, .cls-13, .cls-9, .cls-14 {
        font-weight: 700;
      }

      .cls-10, .cls-15 {
        font-size: 45px;
      }

      .cls-11, .cls-12, .cls-14 {
        font-family: QuattrocentoSans-Bold, 'Quattrocento Sans';
      }

      .cls-11, .cls-16, .cls-17, .cls-13, .cls-14 {
        fill: #fefcfd;
      }

      .cls-11, .cls-17 {
        font-size: 30px;
      }

      .cls-15 {
        font-family: QuattrocentoSans, 'Quattrocento Sans';
      }

      .cls-18 {
        fill: url(#linear-gradient-4);
      }

      .cls-12 {
        fill: #fff;
        font-size: 41.51px;
      }

      .cls-3 {
        stroke: #fff;
        stroke-linecap: round;
        stroke-width: 4.01px;
      }

      .cls-19 {
        fill: url(#linear-gradient-3);
      }

      .cls-20 {
        fill: url(#linear-gradient-5);
      }

      .cls-16 {
        font-family: Gotham-Light, Gotham;
        font-size: 20px;
        font-weight: 300;
      }

      .cls-21 {
        fill: #21201e;
      }

      .cls-22 {
        fill: url(#linear-gradient-8);
      }

      .cls-17 {
        font-family: Gotham-Book, Gotham;
      }

      .cls-8 {
        font-size: 50px;
      }

      .cls-8, .cls-13, .cls-9 {
        font-family: Gotham-Bold, Gotham;
      }

      .cls-23 {
        fill: url(#linear-gradient-7);
      }

      .cls-24 {
        fill: url(#linear-gradient-9);
      }

      .cls-4 {
        stroke-width: 2.59px;
      }

      .cls-13 {
        font-size: 80px;
      }

      .cls-25 {
        fill: url(#linear-gradient-6);
      }

      .cls-26 {
        fill: #1d1d1b;
      }

      .cls-9, .cls-14 {
        font-size: 40px;
      }

      .cls-27 {
        fill: #fafafa;
      }

      .cls-28 {
        fill: url(#linear-gradient);
      }

      .cls-5 {
        stroke-width: 3.27px;
      }
    </style>
    <linearGradient id="linear-gradient" x1="-11558.51" y1="46.14" x2="-11558.51" y2="63.09" gradientTransform="translate(-10659.7) rotate(-180) scale(.93 -1)" gradientUnits="userSpaceOnUse">
      <stop offset="0" stop-color="#ee6e0f"/>
      <stop offset="1" stop-color="#e41369"/>
    </linearGradient>
    <linearGradient id="linear-gradient-2" x1="-11534.74" y1="86.32" x2="-11549.93" y2="102.61" gradientTransform="translate(-10659.7) rotate(-180) scale(.93 -1)" gradientUnits="userSpaceOnUse">
      <stop offset="0" stop-color="#cfdc2a"/>
      <stop offset="1" stop-color="#1ea6c4"/>
    </linearGradient>
    <linearGradient id="linear-gradient-3" x1="-11535.96" y1="192.01" x2="-11547.19" y2="217.44" xlink:href="#linear-gradient"/>
    <linearGradient id="linear-gradient-4" x1="-11540.29" y1="131.98" x2="-11527.08" y2="163.35" gradientTransform="translate(-10659.7) rotate(-180) scale(.93 -1)" gradientUnits="userSpaceOnUse">
      <stop offset="0" stop-color="#0f8d82"/>
      <stop offset="1" stop-color="#5e2f81"/>
    </linearGradient>
    <linearGradient id="linear-gradient-5" x1="-11618.22" y1="81.99" x2="-11589.16" y2="83.76" xlink:href="#linear-gradient-4"/>
    <linearGradient id="linear-gradient-6" x1="-11596.17" y1="23.26" x2="-11520.57" y2="23.26" xlink:href="#linear-gradient-4"/>
    <linearGradient id="linear-gradient-7" x1="2432.31" y1="285.87" x2="2446.48" y2="270.92" gradientTransform="translate(515.56 1805.66) rotate(-45)" xlink:href="#linear-gradient-2"/>
    <linearGradient id="linear-gradient-8" x1="2418.32" y1="299.35" x2="2405.87" y2="312.14" gradientTransform="translate(488.01 1794.25) rotate(-45)" xlink:href="#linear-gradient-4"/>
    <linearGradient id="linear-gradient-9" x1="2403.32" y1="274.02" x2="2417.49" y2="288.05" gradientTransform="translate(904.17 -1621.87) rotate(45)" xlink:href="#linear-gradient"/>
  </defs>
  <!-- Generator: Adobe Illustrator 28.6.0, SVG Export Plug-In . SVG Version: 1.2.0 Build 709)  -->
  <g>
    <g id="Layer_1">
      <text class="cls-13" transform="translate(5496.07 905.5)"><tspan x="0" y="0">Shipping &amp; Delivery Policy</tspan></text>
      <text class="cls-15" transform="translate(4343.18 3301.57)"><tspan x="0" y="0">Last updated: 28-02-2024 12:30:59</tspan><tspan x="-444.35" y="90">For our international customers, we dispatch orders using registered international </tspan><tspan x="-470.07" y="135">courier companies and/or international speed post exclusively. Domestic orders are </tspan><tspan x="-389.99" y="180">shipped through registered domestic courier companies and/or speed post. </tspan><tspan x="-380.36" y="225">Our goal is to send out orders within 3-5 business days or according to the </tspan><tspan x="-376.65" y="270">agreed-upon delivery date confirmed during the order process. The actual </tspan><tspan x="-418.07" y="315">delivery time is contingent on the norms of the courier company or post office.</tspan><tspan x="-455.53" y="405">Nexibles is not responsible for any delays in delivery caused by courier companies</tspan><tspan x="-463.09" y="450" xml:space="preserve"> or postal authorities. We assure you that we will hand over the consignment to the </tspan><tspan x="-465.9" y="495">courier company or postal authorities within 3-5 business days from the date of the </tspan><tspan x="-436.07" y="540">order and payment or as per the agreed-upon delivery date. The delivery will be </tspan><tspan x="-435.67" y="585">made to the address specified by the buyer during the order placement. You will </tspan><tspan x="-361.91" y="630">receive confirmation of service delivery at your registered email address.</tspan><tspan x="-368.48" y="720">If you encounter any issues while using our services, please don&apos;t hesitate </tspan><tspan x="-135.81" y="765">to contact our helpdesk at support@nexibles.com</tspan></text>
      <text class="cls-8" transform="translate(2245.03 494.45)"><tspan x="0" y="0">Get in touch</tspan></text>
      <text class="cls-14" transform="translate(2244.68 553.88)"><tspan x="0" y="0">Make your journey of personalised gifting easy </tspan><tspan x="0" y="48">with us.</tspan><tspan x="0" y="144">Do you have any questions? Please contact us </tspan><tspan x="0" y="192">right away. We&apos;d be delighted to address any </tspan><tspan x="0" y="240">queries you may have!</tspan></text>
      <g id="Inquiry_Form">
        <text class="cls-17" transform="translate(2251.5 890.97)"><tspan x="0" y="0">Name</tspan></text>
        <text class="cls-16" transform="translate(2264.59 940.17)"><tspan x="0" y="0">eg John Smith</tspan></text>
        <text class="cls-16" transform="translate(2713.95 940.17)"><tspan x="0" y="0">eg JohnSmith@gmail.com</tspan></text>
        <text class="cls-16" transform="translate(2714.71 1050.96)"><tspan x="0" y="0">eg Diwali Gifting Inquiry</tspan></text>
        <text class="cls-16" transform="translate(2264.59 1050.96)"><tspan x="0" y="0">eg +91 88745 6xxxx</tspan></text>
        <text class="cls-16" transform="translate(2264.59 1159.17)"><tspan x="0" y="0">eg Looking for customised pouches to give as gifts for my diwali party</tspan></text>
        <text class="cls-17" transform="translate(2697.41 891.68)"><tspan x="0" y="0">Email</tspan></text>
        <text class="cls-17" transform="translate(2251.2 1002.82)"><tspan x="0" y="0">Number</tspan></text>
        <text class="cls-17" transform="translate(2699.09 1002.82)"><tspan x="0" y="0">Subject</tspan></text>
        <text class="cls-17" transform="translate(2251.13 1112.35)"><tspan x="0" y="0">Message</tspan></text>
        <rect class="cls-2" x="2253.69" y="906.74" width="407" height="60" rx="20" ry="20"/>
        <rect class="cls-2" x="2700.11" y="906.72" width="407" height="60" rx="20" ry="20"/>
        <rect class="cls-2" x="2253.69" y="1017.68" width="407" height="60" rx="20" ry="20"/>
        <rect class="cls-2" x="2700.38" y="1017.68" width="407" height="60" rx="20" ry="20"/>
        <rect class="cls-2" x="2254.45" y="1127.98" width="848" height="60" rx="20" ry="20"/>
        <g>
          <rect class="cls-7" x="2458.76" y="1229.5" width="441" height="60" rx="30" ry="30"/>
          <text class="cls-10" transform="translate(2598.15 1273.33)"><tspan x="0" y="0">Submit</tspan></text>
        </g>
      </g>
      <text class="cls-9" transform="translate(3259.87 894.59)"><tspan x="0" y="0">Address</tspan></text>
      <text class="cls-11" transform="translate(3261.72 929.8)"><tspan x="0" y="0">Art NEXT Pvt Ltd,</tspan><tspan x="0" y="43">A/463, Ground Floor, TTC Industrial Area,</tspan><tspan x="0" y="86">Mahape, MIDC, Navi Mumbai, Thane - 400710, MH, </tspan></text>
      <text class="cls-9" transform="translate(3259.87 1079.07)"><tspan x="0" y="0">Call us</tspan></text>
      <text class="cls-14" transform="translate(3261.88 1127.18)"><tspan x="0" y="0">+91 9821045101</tspan></text>
      <text class="cls-9" transform="translate(3259.87 1185.42)"><tspan x="0" y="0">Write to us</tspan></text>
      <text class="cls-14" transform="translate(3261.87 1233.05)"><tspan x="0" y="0">sales@artnext.in</tspan></text>
      <g>
        <g>
          <polygon class="cls-28" points="90.94 69.7 65.32 42.16 90.94 14.63 116.55 42.16 90.94 69.7"/>
          <polygon class="cls-6" points="52.15 144.96 52.14 69.81 122.05 69.81 52.15 144.96"/>
          <polygon class="cls-21" points="6.64 193.89 6.63 157.72 40.28 157.72 6.64 193.89"/>
          <polygon class="cls-21" points="112.66 259.05 79.02 259.05 79.02 222.88 112.66 259.05"/>
          <polygon class="cls-19" points="39.5 180.29 90.81 180.29 90.81 235.46 39.5 180.29"/>
          <polygon class="cls-18" points="90.8 103.45 90.81 180.29 19.34 180.29 90.8 103.45"/>
          <polygon class="cls-20" points="145.78 95.81 98.09 95.81 122.15 69.81 169.84 69.81 145.78 95.81"/>
        </g>
        <polygon class="cls-25" points="125.96 42.16 90.81 4.36 55.65 42.16 125.96 42.16"/>
      </g>
      <g id="Header">
        <g id="Logo">
          <g>
            <g>
              <rect class="cls-23" x="2431.12" y="261.14" width="12.57" height="38.71" rx="6.15" ry="6.15" transform="translate(912.24 -1641.36) rotate(45)"/>
              <rect class="cls-22" x="2403.56" y="288.7" width="12.57" height="38.71" rx="6.15" ry="6.15" transform="translate(923.65 -1613.8) rotate(45)"/>
            </g>
            <g>
              <rect class="cls-24" x="2403.56" y="261.14" width="12.57" height="38.71" rx="6.15" ry="6.15" transform="translate(507.49 1786.18) rotate(-45)"/>
              <rect class="cls-26" x="2431.12" y="288.7" width="12.57" height="38.71" rx="6.15" ry="6.15" transform="translate(496.08 1813.73) rotate(-45)"/>
            </g>
            <g>
              <path d="M2517.31,292.46c.16.14.29.26.42.37,3.05,2.46,5.02,5.6,5.75,9.44,1.02,5.38-.3,10.16-3.98,14.24-2.14,2.37-4.82,3.88-7.95,4.58-.98.22-1.97.34-2.97.34-8.74,0-17.49-.02-26.23.01-2.42.01-4.53-1.94-4.53-4.53,0-2.72,0-5.44,0-8.16,0-12.24,0-24.48,0-36.72,0-.88.15-1.72.6-2.48.83-1.41,2.07-2.18,3.73-2.25.16,0,.32,0,.48,0,7.49,0,14.99,0,22.48,0,4.66,0,8.51,1.82,11.55,5.32,2.09,2.41,3.3,5.23,3.67,8.41.47,4.02-.46,7.69-2.74,11.03-.09.13-.17.26-.27.41ZM2486.67,298.58c-.08.6-.12,12.04-.06,13.46,0,.11.03.21.05.34.29.08.56.05.83.05,6.84,0,13.67,0,20.51,0,.14,0,.27,0,.41,0,1.65-.06,3.12-.6,4.34-1.72,1.75-1.61,2.53-3.62,2.27-5.99-.26-2.42-1.5-4.24-3.64-5.42-1.04-.57-2.17-.76-3.35-.76-6.88,0-13.76,0-20.64,0-.22,0-.45.01-.71.02ZM2486.67,289.45c.23.14.48.08.73.08,5.92,0,11.85,0,17.77,0,.05,0,.09,0,.14,0,1.41-.02,2.69-.43,3.79-1.31,2.04-1.64,2.89-3.79,2.51-6.37-.48-3.23-3.16-5.55-6.4-5.56-5.99-.02-11.98,0-17.97,0-.18,0-.35.02-.56.04-.02.16-.05.29-.06.42-.08,2.48-.03,12.11.06,12.7Z"/>
              <path d="M2332.27,305.85c0-.44,0-.71,0-.98,0-10.97,0-21.94,0-32.91,0-.81.14-1.58.53-2.29.9-1.61,2.27-2.48,4.12-2.36,1.84.12,3.1,1.15,3.8,2.86.19.47.28.96.29,1.46,0,.27,0,.54,0,.82,0,14.37,0,28.74,0,43.11,0,.57,0,1.13-.03,1.7-.05,1.62-1.21,3.71-3.69,4.12-1.35.22-2.58-.16-3.57-1.11-.72-.69-1.39-1.43-2.08-2.15-1.47-1.54-2.94-3.09-4.41-4.63-1.53-1.61-3.06-3.22-4.6-4.83-1.46-1.52-2.92-3.04-4.37-4.57-1.47-1.54-2.94-3.09-4.41-4.63-1.46-1.53-2.91-3.05-4.37-4.57-1.49-1.56-2.97-3.12-4.46-4.67-1.27-1.33-2.54-2.66-3.81-3.98-.96-1-1.91-2-2.87-3-.08-.08-.16-.16-.28-.28-.05.12-.1.19-.1.26-.01.23,0,.45,0,.68,0,10.86,0,21.71,0,32.57,0,.32,0,.64-.03.95-.19,2.2-2.09,4.13-4.58,4.02-1.88-.09-3.56-1.52-4.01-3.42-.11-.47-.13-.94-.13-1.42,0-13.58,0-27.15,0-40.73,0-1.36-.01-2.72,0-4.08.01-1.18.41-2.22,1.22-3.09,1.7-1.83,4.47-1.87,6.25-.07.81.82,1.6,1.67,2.4,2.51,1.5,1.57,3.01,3.15,4.51,4.73,1.7,1.79,3.41,3.58,5.11,5.37,1.44,1.51,2.88,3.01,4.32,4.52,1.5,1.57,3,3.15,4.5,4.73,1.24,1.3,2.48,2.59,3.71,3.88,1.47,1.54,2.94,3.08,4.42,4.62,1.24,1.3,2.47,2.59,3.71,3.89.83.87,1.66,1.74,2.49,2.61.09.09.19.17.41.37Z"/>
              <path d="M2577.51,298.61c-.03.08-.06.15-.06.21,0,4.44,0,8.89,0,13.33,0,.06.04.13.07.23.12.01.25.04.38.04.2,0,.41,0,.61,0,8.77,0,17.53,0,26.3,0,.94,0,1.8.21,2.58.72,1.42.94,2.31,2.79,1.89,4.76-.38,1.76-1.75,3.12-3.53,3.46-.31.06-.63.06-.95.06-2.52,0-5.04,0-7.56,0-7.97,0-15.94,0-23.91,0-.53,0-1.04-.04-1.54-.2-1.59-.51-2.95-1.99-3.08-4.09-.01-.18,0-.36,0-.54,0-14.82,0-29.65,0-44.47,0-.93.14-1.81.62-2.61.88-1.46,2.17-2.22,3.88-2.22,4.68,0,9.36,0,14.03,0,6.11,0,12.22,0,18.33,0,1.16,0,2.2.33,3.05,1.12,1.32,1.23,1.79,2.77,1.35,4.52-.42,1.7-1.52,2.81-3.22,3.26-.37.1-.76.11-1.15.11-1.88.01-3.77,0-5.65,0-7.2,0-14.4,0-21.6,0-.27,0-.54-.04-.79.04-.16.23-.1.46-.1.68,0,1.61,0,3.22,0,4.83,0,2.29,0,4.58,0,6.87,0,.24-.04.49.07.76.11.02.22.05.33.05.23,0,.45,0,.68,0,7.74,0,15.49,0,23.23,0,.55,0,1.09.01,1.62.17,1.86.56,3.13,2.23,3.19,4.2.06,2-1.14,3.77-3,4.41-.5.17-1.01.23-1.54.23-5.15,0-10.31,0-15.46,0-2.77,0-5.54,0-8.31,0-.24,0-.49-.04-.73.06Z"/>
              <path d="M2358.04,289.46c.14.03.25.07.36.07.23.01.45,0,.68,0,7.72,0,15.44,0,23.16,0,.29,0,.59.01.88.03,1.66.08,3.47,1.36,3.92,3.51.35,1.71-.13,3.19-1.41,4.38-.76.71-1.68,1.05-2.72,1.1-.18,0-.36,0-.54,0-7.81,0-15.62,0-23.43,0-.27,0-.54,0-.85,0-.02.22-.06.39-.06.56,0,1.25,0,2.49,0,3.74,0,2.9,0,5.8,0,8.7v.77c.15.04.28.08.41.09.2.01.41,0,.61,0,8.74,0,17.48,0,26.23,0,.36,0,.73,0,1.09.05,1.96.34,3.47,2.09,3.59,4.08.07,1.33-.29,2.51-1.21,3.49-.81.87-1.82,1.32-3.02,1.37-.11,0-.23,0-.34,0-10.49,0-20.98,0-31.47,0-.81,0-1.58-.13-2.29-.53-1.39-.79-2.12-2-2.3-3.56-.03-.29-.03-.59-.03-.88,0-14.73,0-29.47,0-44.2,0-.45.03-.91.11-1.35.36-2.02,2.15-3.62,4.39-3.62,10.81.01,21.62.01,32.43,0,2.16,0,3.91,1.51,4.38,3.49.43,1.84-.37,4.17-2.5,5.15-.48.22-.98.35-1.51.37-.23,0-.45,0-.68,0-8.99,0-17.98,0-26.98,0-.27,0-.54.01-.81.02-.13.27-.08.52-.08.77,0,2.29,0,4.58,0,6.87,0,1.61,0,3.22,0,4.83,0,.22.01.45.02.69Z"/>
              <path d="M2629.44,321.42c-3.72,0-7.45,0-11.17,0-1.12,0-2.11-.32-2.93-1.07-1.39-1.26-1.86-2.83-1.39-4.62.45-1.72,1.59-2.81,3.34-3.23.33-.08.68-.08,1.01-.08,1.79,0,3.59,0,5.38,0,5.36,0,10.72,0,16.08,0,1.11,0,2.17-.21,3.15-.74,1.9-1.03,3.04-2.62,3.42-4.73.24-1.33.21-2.67-.26-3.96-.88-2.44-2.6-3.92-5.17-4.38-.42-.08-.86-.06-1.29-.06-4.16,0-8.31.02-12.47,0-4-.02-7.44-1.47-10.32-4.22-2.58-2.47-4.14-5.5-4.63-9.03-.72-5.22.74-9.79,4.43-13.57,2.28-2.34,5.09-3.75,8.34-4.26.67-.11,1.36-.16,2.03-.17,6.13-.01,12.26-.01,18.39,0,1.74,0,3.07.77,3.91,2.28,1.51,2.72-.04,5.96-2.8,6.6-.37.09-.76.11-1.15.11-2.11.01-4.22,0-6.34,0-3.88,0-7.77,0-11.65,0-1.68,0-3.16.53-4.41,1.66-1.08.98-1.77,2.18-2.05,3.6-.41,2.1.05,4.02,1.42,5.67,1.27,1.54,2.94,2.31,4.95,2.31,4.22,0,8.45,0,12.67,0,2.99,0,5.74.8,8.22,2.46,3.46,2.31,5.67,5.52,6.61,9.55.7,2.99.65,6-.28,8.93-1.54,4.83-4.66,8.22-9.42,10.05-1.62.62-3.32.9-5.06.9-3.52,0-7.04,0-10.56,0Z"/>
              <path d="M2537.03,312.41c.37,0,.64.02.91.02,7.65,0,15.3,0,22.96,0,.38,0,.78,0,1.15.08,2.34.49,3.85,2.77,3.45,5.17-.31,1.88-1.65,3.27-3.48,3.66-.31.06-.63.08-.95.08-2.07,0-4.13,0-6.2,0-7.31,0-14.62,0-21.94,0-.36,0-.73,0-1.08-.07-2.07-.41-3.52-2.15-3.6-4.29,0-.16,0-.32,0-.48,0-14.82,0-29.65,0-44.47,0-.8.09-1.59.46-2.31.8-1.56,2.07-2.45,3.84-2.51,1.83-.07,3.5,1.11,4.15,2.85.21.56.29,1.14.32,1.73.01.2,0,.41,0,.61,0,12.99,0,25.98,0,38.96,0,.29,0,.58,0,.95Z"/>
              <path d="M2470.2,294.38c0,7.3,0,14.59,0,21.89,0,.63,0,1.27-.17,1.89-.56,2.02-2.39,3.35-4.4,3.27-1.69-.07-3.28-1.22-3.88-2.85-.22-.6-.3-1.22-.3-1.87,0-14.64,0-29.28,0-43.91,0-.36,0-.73,0-1.09.02-2.21,1.64-3.98,3.54-4.33,1.56-.28,2.88.17,3.96,1.29.77.79,1.18,1.76,1.22,2.88.01.36.03.72.03,1.09,0,7.25,0,14.5,0,21.75Z"/>
            </g>
          </g>
        </g>
        <g id="Menu">
          <text class="cls-12" transform="translate(3755.74 392.85)"><tspan x="0" y="0">MENU</tspan></text>
          <line class="cls-3" x1="3891.38" y1="369.22" x2="3940.45" y2="369.22"/>
          <line class="cls-3" x1="3891.38" y1="378.61" x2="3940.45" y2="378.61"/>
          <line class="cls-3" x1="3891.38" y1="387.99" x2="3940.45" y2="387.99"/>
        </g>
        <g id="Cart">
          <path class="cls-4" d="M3935.78,314.27c0,2.4-1.95,4.34-4.35,4.34s-4.34-1.95-4.34-4.34,1.95-4.34,4.34-4.34,4.35,1.95,4.35,4.34Z"/>
          <path class="cls-4" d="M3907.59,314.27c0,2.4-1.95,4.34-4.34,4.34s-4.34-1.95-4.34-4.34,1.95-4.34,4.34-4.34,4.34,1.95,4.34,4.34Z"/>
          <path class="cls-27" d="M3936.27,304.86h-36.87l-9.55-33.1s-.02-.04-.03-.07c-.02-.04-.03-.09-.05-.13-.02-.04-.04-.07-.06-.11-.02-.04-.04-.07-.07-.11-.03-.03-.05-.07-.08-.1-.03-.03-.06-.06-.09-.09-.03-.03-.06-.05-.1-.08-.03-.03-.07-.05-.1-.07-.03-.02-.07-.04-.11-.06-.04-.02-.08-.04-.12-.05-.04-.01-.08-.03-.12-.04-.04-.01-.08-.02-.12-.03-.05,0-.09-.01-.14-.01-.02,0-.05,0-.07,0h-7.24c-.71,0-1.29.58-1.29,1.29s.58,1.29,1.29,1.29h6.27l9.55,33.1s.02.06.03.08c.01.03.02.06.03.09.02.05.05.1.08.15.01.02.02.04.03.05.04.06.09.12.15.18,0,0,.02.02.03.03.05.04.09.08.14.12.02.02.05.03.07.04.04.03.09.05.13.07.03.01.05.02.08.03.05.02.1.03.15.05.03,0,.05.01.07.02.08.01.16.02.24.02,0,0,0,0,0,0h37.84c.71,0,1.29-.58,1.29-1.29s-.58-1.29-1.29-1.29Z"/>
          <path class="cls-27" d="M3940.44,278.71s0-.09-.01-.14c0-.04-.02-.08-.03-.12-.01-.04-.02-.08-.04-.12-.02-.04-.03-.08-.05-.12-.02-.04-.04-.07-.06-.11-.02-.04-.05-.07-.07-.1-.03-.03-.05-.07-.08-.1-.03-.03-.06-.06-.09-.08-.03-.03-.06-.06-.1-.08-.03-.03-.07-.05-.11-.07-.03-.02-.07-.04-.11-.06-.04-.02-.09-.04-.13-.05-.03,0-.05-.02-.08-.03-.01,0-.02,0-.03,0-.04-.01-.09-.01-.13-.02-.04,0-.09-.01-.13-.01-.01,0-.02,0-.03,0h-43.62c-.71,0-1.29.58-1.29,1.29s.58,1.29,1.29,1.29h41.95l-4.32,16.47h-30.73c-.71,0-1.29.58-1.29,1.29s.58,1.29,1.29,1.29h31.72s0,0,0,0c.08,0,.16,0,.24-.02.03,0,.05-.01.08-.02.05-.01.1-.03.15-.05.03-.01.06-.02.08-.04.04-.02.09-.04.13-.07.03-.02.05-.03.07-.05.04-.03.08-.07.12-.1.02-.02.04-.03.05-.05.11-.11.2-.24.26-.38.01-.03.02-.05.03-.08.01-.04.03-.07.04-.11l5-19.06s0-.02,0-.03c.01-.04.02-.09.02-.13,0-.04.01-.09.01-.13,0-.01,0-.02,0-.03,0-.03,0-.06,0-.08Z"/>
        </g>
        <g id="Search">
          <circle class="cls-5" cx="3776.86" cy="288.81" r="15.89"/>
          <line class="cls-5" x1="3788.39" y1="299.73" x2="3810.6" y2="319.64"/>
        </g>
        <g id="Profile">
          <circle class="cls-1" cx="3849.79" cy="284.39" r="13.08"/>
          <path class="cls-1" d="M3871.41,317.23c0-9.29-9.68-16.81-21.62-16.81s-21.62,7.53-21.62,16.81h43.24Z"/>
        </g>
      </g>
    </g>
  </g>
</svg>