<?xml version="1.0" encoding="UTF-8"?>
<svg xmlns="http://www.w3.org/2000/svg" version="1.1" viewBox="0 0 1327.43 644.58">
  <defs>
    <style>
      .cls-1 {
        fill: #db5c3c;
      }
    </style>
  </defs>
  <!-- Generator: Adobe Illustrator 28.7.1, SVG Export Plug-In . SVG Version: 1.2.0 Build 142)  -->
  <g>
    <g id="Layer_1">
      <g id="Create_With_Personalisation_background">
        <path class="cls-1" d="M983.49,625c14.93-20.79-27.53-51.59-88.57-69.77-19.26-5.73-45.89-11.04-52.1-17.57-6.21-6.52,21.8-14.58,60.07-13.54,13.03.35,51.21,2.26,60.17,3.85,11.58,2.06,94.09,7.63,89.25-13.59-4.72-20.71,146.97-25.02,116.72-41.19-64.55-34.51-44.28-70.22,45.06-104.23,78.5-29.88,107.18-66.82,55.57-98.66-7.92-4.88-35.25-7.97-64.88-7.63-12.1.14-24.75-.38-34.28-1.61-24.5-3.18-32.23-8.82-36.58-14.02-30.25-36.17,22.85-73,6.73-109.43-1.52-3.45-6.22-7.51-24.85-8.87-48.41-3.54-67.92,15.52-119.95,14.14-22.14-.59-33.67-4.76-39.64-8.45-31.48-19.41-13.44-40-13.87-60.15-.42-20.14-26.23-42.26-119.08-54.7L2.39,21.87,0,625h983.49Z"/>
      </g>
    </g>
  </g>
</svg>