<?xml version="1.0" encoding="UTF-8"?>
<svg xmlns="http://www.w3.org/2000/svg" version="1.1" xmlns:xlink="http://www.w3.org/1999/xlink" viewBox="0 0 410.55 323.23">
  <defs>
    <style>
      .cls-1 {
        fill: url(#linear-gradient-15);
      }

      .cls-2 {
        fill: url(#linear-gradient-13);
      }

      .cls-3 {
        fill: url(#linear-gradient-2);
      }

      .cls-4 {
        fill: url(#linear-gradient-10);
      }

      .cls-5 {
        fill: url(#linear-gradient-12);
      }

      .cls-6 {
        opacity: .68;
      }

      .cls-7 {
        fill: #262626;
      }

      .cls-8 {
        fill: url(#linear-gradient-4);
      }

      .cls-9 {
        fill: url(#radial-gradient-5);
      }

      .cls-10 {
        fill: url(#radial-gradient);
      }

      .cls-11 {
        fill: url(#radial-gradient-3);
      }

      .cls-12 {
        fill: url(#linear-gradient-3);
      }

      .cls-13 {
        fill: url(#linear-gradient-5);
      }

      .cls-14 {
        fill: #21201e;
      }

      .cls-15 {
        fill: url(#linear-gradient-8);
      }

      .cls-16 {
        fill: url(#radial-gradient-2);
      }

      .cls-17 {
        fill: url(#linear-gradient-14);
      }

      .cls-18 {
        fill: url(#radial-gradient-4);
      }

      .cls-19 {
        fill: url(#linear-gradient-7);
      }

      .cls-20 {
        fill: url(#linear-gradient-9);
      }

      .cls-21 {
        fill: url(#linear-gradient-11);
      }

      .cls-22 {
        fill: url(#linear-gradient-6);
      }

      .cls-23 {
        fill: url(#linear-gradient-16);
      }

      .cls-24 {
        fill: url(#linear-gradient);
      }
    </style>
    <linearGradient id="linear-gradient" x1="-6120.61" y1="170.56" x2="-6043.85" y2="170.56" gradientTransform="translate(-5742.31) rotate(-180) scale(1 -1)" gradientUnits="userSpaceOnUse">
      <stop offset="0" stop-color="#0f8d82"/>
      <stop offset="1" stop-color="#5e2f81"/>
    </linearGradient>
    <linearGradient id="linear-gradient-2" x1="-6018.26" y1="166.93" x2="-5973.69" y2="166.93" gradientTransform="translate(-5742.31) rotate(-180) scale(1 -1)" gradientUnits="userSpaceOnUse">
      <stop offset="0" stop-color="#cfdc2a"/>
      <stop offset="1" stop-color="#1ea6c4"/>
    </linearGradient>
    <linearGradient id="linear-gradient-3" x1="-6008.89" y1="171.64" x2="-5990.54" y2="171.64" xlink:href="#linear-gradient-2"/>
    <linearGradient id="linear-gradient-4" x1="-6113.22" y1="154.48" x2="-6013.37" y2="154.48" xlink:href="#linear-gradient-2"/>
    <linearGradient id="linear-gradient-5" x1="-6086.8" y1="135.96" x2="-6018.26" y2="135.96" xlink:href="#linear-gradient-2"/>
    <linearGradient id="linear-gradient-6" x1="-6113.93" y1="180.14" x2="-6071.66" y2="180.14" xlink:href="#linear-gradient-2"/>
    <radialGradient id="radial-gradient" cx="-5790.47" cy="282.52" fx="-5790.47" fy="282.52" r="11.56" gradientTransform="translate(-5742.31) rotate(-180) scale(1 -1)" gradientUnits="userSpaceOnUse">
      <stop offset="0" stop-color="#ee6e0f"/>
      <stop offset=".18" stop-color="#ed6814"/>
      <stop offset=".42" stop-color="#eb5725"/>
      <stop offset=".69" stop-color="#e83b40"/>
      <stop offset=".98" stop-color="#e41566"/>
      <stop offset="1" stop-color="#e41369"/>
    </radialGradient>
    <linearGradient id="linear-gradient-7" x1="-5793.77" y1="263.57" x2="-5765.32" y2="263.57" xlink:href="#linear-gradient"/>
    <linearGradient id="linear-gradient-8" x1="-5775.94" y1="264.26" x2="-5755.85" y2="264.26" xlink:href="#linear-gradient-2"/>
    <linearGradient id="linear-gradient-9" x1="-6067.81" y1="276.35" x2="-5841.92" y2="276.35" xlink:href="#linear-gradient"/>
    <linearGradient id="linear-gradient-10" x1="-5836.86" y1="284.21" x2="-5797.59" y2="284.21" xlink:href="#linear-gradient"/>
    <linearGradient id="linear-gradient-11" x1="-5927.67" y1="298.01" x2="-5925.33" y2="298.01" xlink:href="#linear-gradient"/>
    <radialGradient id="radial-gradient-2" cx="-5853.02" cy="259.31" fx="-5853.02" fy="259.31" r="14.97" xlink:href="#radial-gradient"/>
    <linearGradient id="linear-gradient-12" x1="-5864.67" y1="262.4" x2="-5791.5" y2="262.4" xlink:href="#linear-gradient"/>
    <linearGradient id="linear-gradient-13" x1="-5853.34" y1="271.56" x2="-5782.9" y2="271.56" xlink:href="#linear-gradient-2"/>
    <linearGradient id="linear-gradient-14" x1="-6105.32" y1="227.63" x2="-5845.02" y2="227.63" xlink:href="#linear-gradient"/>
    <linearGradient id="linear-gradient-15" x1="-5952.65" y1="201.88" x2="-5945.27" y2="201.88" gradientTransform="translate(-4152.64 -3851.2) rotate(-139.03) scale(1 -1)" xlink:href="#linear-gradient"/>
    <linearGradient id="linear-gradient-16" x1="-6106.47" y1="276.24" x2="-5986.71" y2="276.24" xlink:href="#linear-gradient"/>
    <radialGradient id="radial-gradient-3" cx="-6080.44" cy="73.15" fx="-6080.44" fy="73.15" r="19.09" xlink:href="#radial-gradient"/>
    <radialGradient id="radial-gradient-4" cx="-6078.91" cy="84.75" fx="-6078.91" fy="84.75" r="4.53" xlink:href="#radial-gradient"/>
    <radialGradient id="radial-gradient-5" cx="-6062.76" cy="66.98" fx="-6062.76" fy="66.98" r="5.45" xlink:href="#radial-gradient"/>
  </defs>
  <!-- Generator: Adobe Illustrator 28.6.0, SVG Export Plug-In . SVG Version: 1.2.0 Build 709)  -->
  <g>
    <g id="Layer_1">
      <g>
        <path class="cls-24" d="M307.97,118.8c15.46-17.05,23.39-25.43,23.39-25.43l24.66-7.52c34.73,18.58,19.19,147.31,16.51,167.53,0,0-.61,2.48-2.67,1.79l-.27-.1s0,0,0,0c-.07-.03-.13-.05-.19-.07l-6.68-2.54-57.03-38.99,5.59-58.84s-19.47-17.96-3.3-35.81Z"/>
        <g>
          <g>
            <path class="cls-3" d="M275.95,164.38s-2.59-.05-7.18-2.29c-4.6-2.24-11.84-6.74-19.91-7.21-8.49-.5-15.09-1.98-17.48,1.31l39.68,23.56,4.89-15.36Z"/>
            <path class="cls-12" d="M266.58,177.08c-.87-.75-5.4-9.16-9.44-9.35-4.04-.19-8.91-1.55-8.91-1.55l18.35,10.9Z"/>
          </g>
          <g>
            <path class="cls-8" d="M299.24,164.64l29.72,2.99-4.4-49.1s2.24-16.96,19.85-18.48c17.62-1.53,22.13,14.51,22.13,14.51,0,0,6.24,71.28,3.79,81.55-2.45,10.27-6.78,19-40.71,7.46-13.13-4.47-24.86-9.04-34.32-12.97l-24.25-10.84,5.43-17.05,22.75,1.94Z"/>
            <g>
              <path class="cls-13" d="M328.65,111.01c-2.44,3.88-3.12,7.68-3.22,8.29l4.33,48.35,14.44,2.64-.31,1.69-15.06-2.75-52.89-4.85.54-1.68,51.24,4.37-4.03-47.71v-.09s0-.09,0-.09c.02-.18.62-4.48,3.44-9.01,2.62-4.21,7.74-9.4,17.19-10.22l.15,1.72c-7,.61-12.33,3.75-15.84,9.36Z"/>
              <path class="cls-22" d="M363.18,206.43c3.64-2.01,5.12-5.52,6.32-10.54.62-2.6.84-12.58-1.66-45.37l1.72-.13c2.02,26.5,2.56,41.95,1.62,45.9-1.02,4.29-2.51,9.08-7.16,11.65-2.35,1.3-5.36,1.95-9.12,1.95-6.29,0-14.67-1.83-25.54-5.53l.55-1.63c16.64,5.66,27.53,6.87,33.27,3.7Z"/>
            </g>
          </g>
        </g>
        <polygon class="cls-14" points="210.57 74.6 210.57 144.18 277.46 183.33 273.79 189.73 204.87 149.4 204.87 74.6 210.57 74.6"/>
        <path class="cls-10" d="M46.73,293.56c-4.7-.63-6.38-2.07-6.12-9.83.26-7.75,0-8.21,0-8.21,0,0,5.03-2.58,6.51-6.66.96-.65.67-.38.67-.38l7.93-.46v28.99h-5.79c-.6-.92-1.59-3.24-3.21-3.46Z"/>
        <path class="cls-19" d="M32.95,275.01c-.29-3.57-2.77-5.34-5.16-7.06-1.92-1.38-3.73-2.68-4.25-4.8-.94-3.88-.37-26.9-.25-35.52,10.87-.2,11.04,11.49,13.44,19.49,2.43,8.12,10.82,13.26,11.34,18.94.52,5.68-7.01,9.47-7.01,9.47,0,0,.27.45,0,8.21-.27,7.75,1.44,9.2,6.22,9.83,4.78.63,4.15,5.95,4.15,5.95h-18.08c.02-6.58,0-19.68-.4-24.5Z"/>
        <path class="cls-15" d="M13.56,300.74l.3-74.81c.01-.26.11-.9.83-.9h8.07c.72,0,.82.64.83.91-.08,5.67-.79,32.98.22,37.15,1.11,4.6,8.88,5.32,9.42,11.9.42,5.15.41,19.66.39,25.75,0,0,.03.24,0,.57h0c-.08.81-.52,2.17-2.6,2.17h-14.86c-2.1,0-2.53-1.39-2.6-2.19-.03-.32,0-.55,0-.55Z"/>
        <g>
          <g>
            <path class="cls-20" d="M109.9,291.41c1.33-1.32.91-2.46.33-3.19h0c-.2-.26-.38-.4-.38-.4h-.01s-1.08-1.11-1.08-1.11l13.29-13.14c-.41-.46-1.67-1.74-3.33-2.1l-.46-.1,5.31-5.04,2.14,2.33,10.27-8.49c17.13-1.66,33.37-3.38,44.43-4.89,23.53-3.22,50.99-5.14,64.65-5.97,3.93,4.12,11.51,11.8,22.27,21.49,21.62,19.47,38.33,30.14,49.68,31.71,2.83.39,5.58.6,8.18.63l.33.25-140.45-1.81h-85.43s10.28-10.17,10.28-10.17Z"/>
            <path class="cls-4" d="M94.55,301.58h-38.82s-.45-34.36-.45-34.36c0,0,1.77-.14,4.9-.39l34.37,34.75Z"/>
          </g>
          <rect class="cls-21" x="183.02" y="294.44" width="2.34" height="7.15"/>
        </g>
        <path class="cls-16" d="M114.48,272.6c-3.97,3-6.29,3.16-11.81-2.82-5.52-5.98-6.05-6.12-6.05-6.12,0,0,1.41-5.96-.5-10.1.24-1.19.22-.78.22-.78l9.18-8.81,19.79,21.02-7.03,6.67c-1.13-.25-2.44-.1-3.81.94Z"/>
        <path class="cls-5" d="M90.52,268.93c-2.84-2.45-6-1.94-9.06-1.46-2.45.39-4.76.76-6.7-.45-3.56-2.2-19.3-19.05-25.57-25.57,7.96-8.16,15.89-.3,23.59,3.9,7.8,4.26,17.84,1.91,22.42,5.76,4.57,3.86,1.76,12.23,1.76,12.23,0,0,.53.14,6.05,6.12,5.52,5.98,7.86,5.8,11.89,2.74,4.03-3.05,7.48,1.38,7.48,1.38l-13.48,13.33c-4.84-4.92-14.52-14.67-18.36-17.98Z"/>
        <path class="cls-2" d="M95.03,302.42l-54.13-55.28c-.19-.21-.58-.75-.05-1.28l6.02-5.95c.54-.53,1.08-.12,1.28.07,4.12,4.29,22.92,24.44,26.75,26.81,4.22,2.61,10.55-2.58,15.8,1.93,4.1,3.53,14.81,14.36,19.28,18.91,0,0,.2.16.42.43h0c.53.66,1.21,2-.34,3.53l-11.08,10.96c-1.56,1.55-2.91.82-3.55.28-.26-.22-.41-.41-.41-.41Z"/>
        <g>
          <path class="cls-17" d="M362.71,252.44s-130.49-93.96-144.13-97.18c-12.06-2.85-25.57-8.88-59.12,26.3-33.42,35.05-56.75,62.42-56.75,62.42l22.96,25.02,77.86-64.41s84.27,94.35,113.55,97.31c52.52,5.31,45.64-49.46,45.64-49.46Z"/>
          <g>
            <rect class="cls-1" x="202.51" y="201.02" width="8.28" height="1.72" transform="translate(-81.75 184.95) rotate(-40.97)"/>
            <path class="cls-23" d="M247.07,248.77l.14.15c.97,1.11,6.58,7.3,21.29,20.55,21.04,18.96,37.89,29.77,48.73,31.26,2.99.41,5.88.62,8.58.62,10.25,0,18.47-2.96,24.43-8.81,7.37-7.22,10.05-17.67,11-25.16,1.04-8.17.3-14.75.29-14.81l-.04-.31,2.33-.27.04.31c.03.28.78,6.87-.29,15.34-1,7.88-3.83,18.88-11.69,26.58-6.42,6.29-15.19,9.48-26.06,9.48-2.82,0-5.82-.22-8.92-.64-11.46-1.58-28.28-12.29-49.98-31.84-14.68-13.22-20.98-20.36-22.09-21.65l-.04-.05-.41-.45,2.68-.3Z"/>
          </g>
        </g>
        <g>
          <path class="cls-7" d="M357.52,40.66c-16.31-22.57-44.41-7.76-44.44,7.49-.01,6.82,4.54,9.44,7.68,10.43-.13-2.02-.22-3.49-.25-3.98,1.32-.65,2.88-1.1,4.5-1.3,4.05-.51,8.65.54,9.18,4.04.57,3.81,2.77,7.68,3.88,7.54h0c.24-.03.52-.22.5-.95-.03-1.54,1.23-4.07,2.99-4.29.69-.09,1.37.2,2.04.85,1.69,1.63,1.59,2.64,1.38,4.85-.12,1.32-.29,3.12-.1,5.69.13,1.73.75,3.07,1.85,3.96,1.81,1.48,4.46,1.4,5.88,1.22.33-.04.59-.09.77-.12v.02c.13-.2.19-.33.19-.33,0,0,20.25-12.55,3.95-35.11Z"/>
          <path class="cls-7" d="M394.09,52.69s-6.79,7.47-12.83-1.09c-6.04-8.56,2.98-38.42-17.18-37.02-11.63.81-18.11,8.96-19.46,16.4,2.43,1.2,8.39,5.27,10.79,7.77l2.39-1.41s10.21-6.74,5.14,9.75c-.28.93-.52,1.86-.71,2.81,1.4,3.96,1.75,7.8,1.02,11.48-.16.79-.36,1.55-.6,2.28,2.82,10.84,11.37,19.48,23.15,17.87,17.54-2.41,14.36-23.1,8.29-28.82Z"/>
        </g>
        <g class="cls-6">
          <path class="cls-11" d="M356.02,85.84l-2.44-10.06s-7.92,1.96-8.43-4.78c-.51-6.73,1.49-7.94-1.36-10.69s-5.51,1.24-5.46,3.63c.05,2.39-3.14-1.77-3.87-6.63-.73-4.86-9.05-5.47-14.2-2.85,0,0,1.4,21.58,1.42,25.15.02,3.56,1.09,5.56,10.17,4.95l-.47,8.81,24.66-7.52Z"/>
          <g>
            <path class="cls-18" d="M331.83,84.55s4.93-1.11,9.77-3.81l-9.99,8.02.23-4.21Z"/>
            <path class="cls-9" d="M320.57,59.57s.18,5.63-1.4,9.44-.95,3.66,1.99,5.21c2.93,1.56.64-9.12-.59-14.66Z"/>
          </g>
        </g>
      </g>
    </g>
  </g>
</svg>