<?xml version="1.0" encoding="UTF-8"?>
<svg xmlns="http://www.w3.org/2000/svg" version="1.1" xmlns:xlink="http://www.w3.org/1999/xlink" viewBox="0 0 439.15 398.3">
  <defs>
    <style>
      .cls-1 {
        fill: url(#linear-gradient-15);
      }

      .cls-2 {
        fill: url(#linear-gradient-13);
      }

      .cls-3 {
        fill: url(#linear-gradient-28);
      }

      .cls-4 {
        fill: url(#linear-gradient-2);
      }

      .cls-5 {
        fill: url(#linear-gradient-25);
      }

      .cls-6 {
        fill: url(#linear-gradient-10);
      }

      .cls-7 {
        fill: url(#linear-gradient-12);
      }

      .cls-8 {
        fill: url(#linear-gradient-27);
      }

      .cls-9 {
        fill: url(#linear-gradient-26);
      }

      .cls-10 {
        fill: url(#linear-gradient-4);
      }

      .cls-11 {
        fill: url(#linear-gradient-30);
      }

      .cls-12 {
        fill: url(#linear-gradient-3);
      }

      .cls-13 {
        fill: url(#linear-gradient-5);
      }

      .cls-14 {
        fill: url(#linear-gradient-22);
      }

      .cls-15 {
        fill: url(#linear-gradient-24);
      }

      .cls-16 {
        fill: url(#linear-gradient-8);
      }

      .cls-17 {
        fill: url(#linear-gradient-14);
      }

      .cls-18 {
        fill: url(#linear-gradient-29);
      }

      .cls-19 {
        fill: url(#linear-gradient-20);
      }

      .cls-20 {
        fill: url(#linear-gradient-17);
      }

      .cls-21 {
        fill: url(#linear-gradient-7);
      }

      .cls-22 {
        fill: url(#linear-gradient-9);
      }

      .cls-23 {
        fill: url(#linear-gradient-11);
      }

      .cls-24 {
        fill: url(#linear-gradient-19);
      }

      .cls-25 {
        fill: url(#linear-gradient-6);
      }

      .cls-26 {
        fill: url(#linear-gradient-21);
      }

      .cls-27 {
        fill: url(#linear-gradient-32);
      }

      .cls-28 {
        fill: url(#linear-gradient-16);
      }

      .cls-29 {
        fill: url(#linear-gradient);
      }

      .cls-30 {
        fill: url(#linear-gradient-23);
      }

      .cls-31 {
        fill: url(#linear-gradient-31);
      }

      .cls-32 {
        fill: url(#linear-gradient-18);
      }
    </style>
    <linearGradient id="linear-gradient" x1="-10782.85" y1="170.95" x2="-10860.27" y2="143.6" gradientTransform="translate(-10704.96) rotate(-180) scale(1 -1)" gradientUnits="userSpaceOnUse">
      <stop offset="0" stop-color="#21201e"/>
      <stop offset="1" stop-color="#21201e"/>
    </linearGradient>
    <linearGradient id="linear-gradient-2" x1="-10857.68" y1="132.41" x2="-10867.6" y2="140.57" gradientTransform="translate(-10704.96) rotate(-180) scale(1 -1)" gradientUnits="userSpaceOnUse">
      <stop offset="0" stop-color="#cfdc2a"/>
      <stop offset="1" stop-color="#1ea6c4"/>
    </linearGradient>
    <linearGradient id="linear-gradient-3" x1="-10867.81" y1="147" x2="-10848.85" y2="155.38" xlink:href="#linear-gradient-2"/>
    <linearGradient id="linear-gradient-4" x1="-10875.85" y1="163.41" x2="-10874.53" y2="151.28" xlink:href="#linear-gradient-2"/>
    <linearGradient id="linear-gradient-5" x1="-10885.39" y1="143.08" x2="-10903.69" y2="148.59" gradientTransform="translate(-10704.96) rotate(-180) scale(1 -1)" gradientUnits="userSpaceOnUse">
      <stop offset="0" stop-color="#0f8d82"/>
      <stop offset="1" stop-color="#5e2f81"/>
    </linearGradient>
    <linearGradient id="linear-gradient-6" x1="-10885.98" y1="123.35" x2="-10873.63" y2="131.51" xlink:href="#linear-gradient-5"/>
    <linearGradient id="linear-gradient-7" x1="-10916.54" y1="183.93" x2="-10926.02" y2="178.19" xlink:href="#linear-gradient-5"/>
    <linearGradient id="linear-gradient-8" x1="-10900.96" y1="203.56" x2="-10915.52" y2="188.78" xlink:href="#linear-gradient-5"/>
    <linearGradient id="linear-gradient-9" x1="-10870.67" y1="184.26" x2="-10877.51" y2="208.08" xlink:href="#linear-gradient-5"/>
    <linearGradient id="linear-gradient-10" x1="-10928.12" y1="217.23" x2="-10948.42" y2="258.25" xlink:href="#linear-gradient-5"/>
    <linearGradient id="linear-gradient-11" x1="-10913.92" y1="272.76" x2="-10903.34" y2="240.34" xlink:href="#linear-gradient-5"/>
    <linearGradient id="linear-gradient-12" x1="-10880.63" y1="223.71" x2="-10881.51" y2="262.97" xlink:href="#linear-gradient-5"/>
    <linearGradient id="linear-gradient-13" x1="-10952.47" y1="269.67" x2="-10968.79" y2="330.99" gradientTransform="translate(-10704.96) rotate(-180) scale(1 -1)" gradientUnits="userSpaceOnUse">
      <stop offset="0" stop-color="#ee6e0f"/>
      <stop offset="1" stop-color="#e41369"/>
    </linearGradient>
    <linearGradient id="linear-gradient-14" x1="-10961.4" y1="358.35" x2="-10934.94" y2="288.65" xlink:href="#linear-gradient-13"/>
    <linearGradient id="linear-gradient-15" x1="-10943.83" y1="105.88" x2="-10973.39" y2="58.68" xlink:href="#linear-gradient-13"/>
    <linearGradient id="linear-gradient-16" x1="-10929.33" y1="133.31" x2="-10943.16" y2="107.13" xlink:href="#linear-gradient-13"/>
    <linearGradient id="linear-gradient-17" x1="-10948.31" y1="122.4" x2="-10919.49" y2="157.1" xlink:href="#linear-gradient-13"/>
    <linearGradient id="linear-gradient-18" x1="-11077.7" y1="97.06" x2="-11038.88" y2="122.64" xlink:href="#linear-gradient-2"/>
    <linearGradient id="linear-gradient-19" x1="-11036.36" y1="138.62" x2="-11012.24" y2="137.44" xlink:href="#linear-gradient-2"/>
    <linearGradient id="linear-gradient-20" x1="-10999.04" y1="143.71" x2="-10953.45" y2="154.01" xlink:href="#linear-gradient-2"/>
    <linearGradient id="linear-gradient-21" x1="-10953.51" y1="202.8" x2="-10998.8" y2="180.45" xlink:href="#linear-gradient-2"/>
    <linearGradient id="linear-gradient-22" x1="-11016.95" y1="175.22" x2="-11039.59" y2="155.51" xlink:href="#linear-gradient-2"/>
    <linearGradient id="linear-gradient-23" x1="-10994.27" y1="60.11" x2="-10997.79" y2="70.7" xlink:href="#linear-gradient-13"/>
    <linearGradient id="linear-gradient-24" x1="-10986.29" y1="103.94" x2="-10992.32" y2="102.77" xlink:href="#linear-gradient-13"/>
    <linearGradient id="linear-gradient-25" x1="-11098.29" y1="137.48" x2="-11087.85" y2="138.66" xlink:href="#linear-gradient-13"/>
    <linearGradient id="linear-gradient-26" x1="-11096.71" y1="184.3" x2="-11101.85" y2="175.33" xlink:href="#linear-gradient-13"/>
    <linearGradient id="linear-gradient-27" x1="-11066.01" y1="179.88" x2="-11057.34" y2="193.55" xlink:href="#linear-gradient-13"/>
    <linearGradient id="linear-gradient-28" x1="-11015.69" y1="209.88" x2="-11014.66" y2="219.73" xlink:href="#linear-gradient-13"/>
    <linearGradient id="linear-gradient-29" x1="-11080.87" y1="216.3" x2="-11081.46" y2="221.01" xlink:href="#linear-gradient-13"/>
    <linearGradient id="linear-gradient-30" x1="-11071.31" y1="250.31" x2="-11062.63" y2="254.14" xlink:href="#linear-gradient-13"/>
    <linearGradient id="linear-gradient-31" x1="-11023.36" y1="248.91" x2="-11023.07" y2="254.64" xlink:href="#linear-gradient-13"/>
    <linearGradient id="linear-gradient-32" x1="-10976.92" y1="243.54" x2="-10981.92" y2="256.48" xlink:href="#linear-gradient-13"/>
  </defs>
  <!-- Generator: Adobe Illustrator 28.7.1, SVG Export Plug-In . SVG Version: 1.2.0 Build 142)  -->
  <g>
    <g id="Layer_1">
      <g>
        <polygon class="cls-29" points="134.25 141.36 24.86 188.12 136.61 159.89 134.25 141.36"/>
        <polygon class="cls-4" points="168.07 143.13 134.25 141.36 162.19 116.07 168.07 143.13"/>
        <polygon class="cls-12" points="168.07 143.13 153.07 169.59 136.61 159.89 134.25 141.36 168.07 143.13"/>
        <polygon class="cls-10" points="189.15 161.36 168.07 143.13 153.07 169.59 189.15 161.36"/>
        <polygon class="cls-13" points="168.07 143.13 197.09 132.44 203.17 139.99 198.56 154.79 189.15 161.36 168.07 143.13"/>
        <polygon class="cls-25" points="197.09 132.44 162.19 116.07 168.07 143.13 197.09 132.44"/>
        <polygon class="cls-21" points="204.93 144.06 201.11 157.73 190.96 164.74 239.93 210.67 204.93 144.06"/>
        <polygon class="cls-16" points="239.93 210.67 198.02 209.05 179.64 168.47 190.96 164.74 239.93 210.67"/>
        <polygon class="cls-22" points="198.02 209.05 153.07 228.02 154.94 174.2 179.64 168.47 198.02 209.05"/>
        <polygon class="cls-6" points="239.93 210.67 259.92 248.9 230.81 274.34 198.02 209.05 239.93 210.67"/>
        <polygon class="cls-23" points="189.15 277.42 198.02 209.05 230.81 274.34 189.15 277.42"/>
        <polygon class="cls-7" points="153.07 228.02 189.15 277.42 198.02 209.05 153.07 228.02"/>
        <polygon class="cls-2" points="259.92 248.9 284.18 378.15 230.81 274.34 259.92 248.9"/>
        <polygon class="cls-17" points="230.81 274.34 227.43 335.21 284.18 378.15 230.81 274.34"/>
        <polygon class="cls-1" points="278.82 29.37 270.44 101.27 207.14 110.75 278.82 29.37"/>
        <polygon class="cls-28" points="270.44 101.27 204.93 144.06 207.14 110.75 270.44 101.27"/>
        <polygon class="cls-20" points="270.44 101.27 220.76 174.2 204.93 144.06 270.44 101.27"/>
        <polygon class="cls-32" points="419.09 66.2 309.03 105.02 348.73 146.9 347.19 125.75 368.8 124.87 419.09 66.2"/>
        <polygon class="cls-24" points="299.99 169.59 309.03 105.02 348.73 146.9 299.99 169.59"/>
        <polygon class="cls-19" points="299.99 169.59 230.81 193.32 220.76 174.2 254.7 124.38 309.03 105.02 299.99 169.59"/>
        <polygon class="cls-26" points="316.09 187.7 299.99 169.59 230.81 193.32 239.31 209.49 295.58 187.7 316.09 187.7"/>
        <polygon class="cls-14" points="348.73 146.9 316.09 187.7 299.99 169.59 348.73 146.9"/>
        <polygon class="cls-30" points="288.3 41.5 287.42 70.06 301.98 84.29 288.3 41.5"/>
        <polygon class="cls-15" points="299.99 99.73 278.82 99.73 275.07 109.87 299.99 99.73"/>
        <polygon class="cls-5" points="407.18 132.44 373.88 132.44 373.88 146.9 407.18 132.44"/>
        <polygon class="cls-9" points="395.93 164.74 384.46 190.82 399.46 183.1 395.93 164.74"/>
        <polygon class="cls-8" points="368.58 169.59 360.64 198.24 338.81 197.21 368.58 169.59"/>
        <polygon class="cls-3" points="342.34 206.48 309.03 206.48 278.38 220.37 327.56 225.44 342.34 206.48"/>
        <polygon class="cls-18" points="394.39 218.39 357.34 213.53 373.88 225.44 394.39 218.39"/>
        <polygon class="cls-11" points="374.1 245.52 351.38 250.81 359.54 259.41 374.1 245.52"/>
        <polygon class="cls-31" points="338.81 248.9 298.23 244.19 301.76 259.41 338.81 248.9"/>
        <polygon class="cls-27" points="278.38 278.82 261.17 228.02 281.24 248.9 278.38 278.82"/>
      </g>
    </g>
  </g>
</svg>