<?xml version="1.0" encoding="UTF-8"?>
<svg xmlns="http://www.w3.org/2000/svg" version="1.1" xmlns:xlink="http://www.w3.org/1999/xlink" viewBox="0 0 20.36 113.19">
  <defs>
    <style>
      .cls-1 {
        fill: url(#linear-gradient);
      }

      .cls-1, .cls-2, .cls-3, .cls-4, .cls-5, .cls-6, .cls-7 {
        stroke: #000;
        stroke-miterlimit: 10;
        stroke-width: .47px;
      }

      .cls-2 {
        fill: #ffc533;
      }

      .cls-2, .cls-5 {
        fill-rule: evenodd;
      }

      .cls-8 {
        opacity: .72;
      }

      .cls-3 {
        fill: url(#linear-gradient-2);
      }

      .cls-4 {
        fill: url(#linear-gradient-3);
      }

      .cls-5 {
        fill: #ffef7d;
      }

      .cls-6 {
        fill: url(#radial-gradient);
      }

      .cls-7 {
        fill: url(#radial-gradient-2);
      }
    </style>
    <linearGradient id="linear-gradient" x1="-176.84" y1="298.08" x2="125.01" y2="-3.77" gradientUnits="userSpaceOnUse">
      <stop offset="0" stop-color="#0f8d82"/>
      <stop offset="1" stop-color="#362c60"/>
    </linearGradient>
    <radialGradient id="radial-gradient" cx="10.01" cy="93.89" fx="10.01" fy="93.89" r="10.61" gradientUnits="userSpaceOnUse">
      <stop offset="0" stop-color="#ee6e0f"/>
      <stop offset=".18" stop-color="#ed6715"/>
      <stop offset=".42" stop-color="#eb5527"/>
      <stop offset=".71" stop-color="#e83844"/>
      <stop offset="1" stop-color="#e41369"/>
    </radialGradient>
    <radialGradient id="radial-gradient-2" cy="61.7" fy="61.7" r="10.58" xlink:href="#radial-gradient"/>
    <linearGradient id="linear-gradient-2" x1="-156" y1="243.77" x2="85.49" y2="2.28" xlink:href="#linear-gradient"/>
    <linearGradient id="linear-gradient-3" x1="-205.83" y1="260.65" x2="79.07" y2="-24.25" xlink:href="#linear-gradient"/>
  </defs>
  <!-- Generator: Adobe Illustrator 28.7.1, SVG Export Plug-In . SVG Version: 1.2.0 Build 142)  -->
  <g>
    <g id="Layer_1">
      <g>
        <path class="cls-5" d="M10.01.74c-14.26,20.57-3.07,37.59,0,41.58,3.07-3.99,14.26-21.01,0-41.58Z"/>
        <path class="cls-2" d="M10.01.74v41.58c3.07-3.99,14.26-21.01,0-41.58Z"/>
      </g>
      <g class="cls-8">
        <path class="cls-1" d="M18.22,109.5v-9.39c0-1.59-1.93-2.39-3.05-1.26l-9.32,9.39c-1.12,1.13-.32,3.04,1.27,3.04h9.32c.99,0,1.79-.8,1.79-1.79Z"/>
        <path class="cls-6" d="M4.67,105.81l13.21-13.21c.33-.33.52-.79.52-1.26v-8.1c0-1.59-1.92-2.39-3.05-1.26l-13.21,13.21c-.33.33-.52.79-.52,1.26v8.1c0,1.59,1.92,2.39,3.05,1.26Z"/>
        <path class="cls-7" d="M4.7,73.57l13.16-13.16c.33-.33.52-.79.52-1.26v-8.06c0-1.59-1.92-2.39-3.05-1.26l-13.16,13.16c-.33.33-.52.79-.52,1.26v8.06c0,1.59,1.92,2.39,3.05,1.26Z"/>
        <path class="cls-3" d="M4.7,89.63l13.16-13.16c.33-.33.52-.79.52-1.26v-8.06c0-1.59-1.92-2.39-3.05-1.26l-13.16,13.16c-.33.33-.52.79-.52,1.26v8.06c0,1.59,1.92,2.39,3.05,1.26Z"/>
        <path class="cls-4" d="M4.89,57.1l9.29-9.29c1.13-1.13.33-3.05-1.26-3.05H3.63c-.99,0-1.79.8-1.79,1.79v9.29c0,1.59,1.92,2.39,3.05,1.26Z"/>
      </g>
    </g>
  </g>
</svg>