<?xml version="1.0" encoding="UTF-8"?>
<svg xmlns="http://www.w3.org/2000/svg" version="1.1" xmlns:xlink="http://www.w3.org/1999/xlink" viewBox="0 0 112.55 108.55">
  <defs>
    <style>
      .cls-1 {
        fill: url(#linear-gradient-15);
      }

      .cls-2 {
        fill: url(#linear-gradient-13);
      }

      .cls-3 {
        fill: url(#linear-gradient-2);
      }

      .cls-4 {
        fill: url(#linear-gradient-10);
      }

      .cls-5 {
        fill: url(#linear-gradient-12);
      }

      .cls-6 {
        fill: url(#linear-gradient-4);
      }

      .cls-7 {
        fill: url(#linear-gradient-3);
      }

      .cls-8 {
        fill: url(#linear-gradient-5);
      }

      .cls-9 {
        fill: url(#linear-gradient-8);
      }

      .cls-10 {
        fill: url(#linear-gradient-14);
      }

      .cls-11 {
        fill: url(#linear-gradient-7);
      }

      .cls-12 {
        fill: url(#linear-gradient-9);
      }

      .cls-13 {
        fill: url(#linear-gradient-11);
      }

      .cls-14 {
        fill: url(#linear-gradient-6);
      }

      .cls-15 {
        fill: url(#linear-gradient);
      }
    </style>
    <linearGradient id="linear-gradient" x1="2598.01" y1="-5556.33" x2="2622.25" y2="-5562.09" gradientTransform="translate(1564.17 6007.67) rotate(-39.02)" gradientUnits="userSpaceOnUse">
      <stop offset="0" stop-color="#ee6e0f"/>
      <stop offset="1" stop-color="#e41369"/>
    </linearGradient>
    <linearGradient id="linear-gradient-2" x1="2574.09" y1="-5556.19" x2="2546.01" y2="-5561.94" xlink:href="#linear-gradient"/>
    <linearGradient id="linear-gradient-3" x1="2590.28" y1="-5540.4" x2="2598.5" y2="-5517.93" xlink:href="#linear-gradient"/>
    <linearGradient id="linear-gradient-4" x1="2608.78" y1="-5542.23" x2="2587.68" y2="-5549.9" xlink:href="#linear-gradient"/>
    <linearGradient id="linear-gradient-5" x1="2578.54" y1="-5541.45" x2="2567.58" y2="-5513.64" xlink:href="#linear-gradient"/>
    <linearGradient id="linear-gradient-6" x1="2557.87" y1="-5542.44" x2="2574.45" y2="-5552.72" xlink:href="#linear-gradient"/>
    <linearGradient id="linear-gradient-7" x1="2578.87" y1="-5518.34" x2="2578.46" y2="-5533.54" xlink:href="#linear-gradient"/>
    <linearGradient id="linear-gradient-8" x1="2589.22" y1="-5515.32" x2="2587.26" y2="-5532.99" xlink:href="#linear-gradient"/>
    <linearGradient id="linear-gradient-9" x1="2578.46" y1="-5537.47" x2="2589.26" y2="-5537.47" gradientTransform="translate(1564.17 6007.67) rotate(-39.02)" gradientUnits="userSpaceOnUse">
      <stop offset="0" stop-color="#21201e"/>
      <stop offset="1" stop-color="#21201e"/>
    </linearGradient>
    <linearGradient id="linear-gradient-10" x1="-13251.71" y1="9.55" x2="-13234.68" y2="27.15" gradientTransform="translate(13260.38)" gradientUnits="userSpaceOnUse">
      <stop offset="0" stop-color="#0f8d82"/>
      <stop offset="1" stop-color="#5e2f81"/>
    </linearGradient>
    <linearGradient id="linear-gradient-11" x1="-13247.35" y1="33.44" x2="-13240.65" y2="18.23" gradientTransform="translate(13260.38)" gradientUnits="userSpaceOnUse">
      <stop offset="0" stop-color="#cfdc2a"/>
      <stop offset="1" stop-color="#1ea6c4"/>
    </linearGradient>
    <linearGradient id="linear-gradient-12" x1="-13224.12" y1="28.68" x2="-13230.63" y2="10.12" xlink:href="#linear-gradient-11"/>
    <linearGradient id="linear-gradient-13" x1="-13236.64" y1="14.04" x2="-13236.91" y2="32.06" xlink:href="#linear-gradient-11"/>
    <linearGradient id="linear-gradient-14" x1="-13221.54" y1="36.26" x2="-13247.13" y2="38.67" xlink:href="#linear-gradient-11"/>
    <linearGradient id="linear-gradient-15" x1="-13258" y1="41.2" x2="-13223.1" y2="41.2" gradientTransform="translate(13260.38)" xlink:href="#linear-gradient-9"/>
  </defs>
  <!-- Generator: Adobe Illustrator 28.7.1, SVG Export Plug-In . SVG Version: 1.2.0 Build 142)  -->
  <g>
    <g id="Layer_1">
      <g id="Butterflies_2">
        <g>
          <polygon class="cls-15" points="76.03 63.93 93.57 29.48 108 38.03 76.03 63.93"/>
          <polygon class="cls-3" points="74.97 64.79 35.08 76.88 40.04 93.1 74.97 64.79"/>
          <polygon class="cls-7" points="74.97 64.79 110.17 93.73 108.42 76.16 74.97 64.79"/>
          <polygon class="cls-6" points="105.77 75.26 104.38 40.96 74.97 64.79 105.77 75.26"/>
          <polygon class="cls-8" points="73.69 65.83 94.71 106.25 77.88 100.9 73.69 65.83"/>
          <polygon class="cls-14" points="77.55 98.13 44.29 89.66 73.69 65.83 77.55 98.13"/>
          <polygon class="cls-11" points="73.69 65.83 95.63 92.9 94.71 106.25 73.69 65.83"/>
          <polygon class="cls-9" points="74.97 64.79 97.03 92.01 110.17 93.73 74.97 64.79"/>
          <polygon class="cls-12" points="68.59 66.84 69.39 59.24 76.96 59.99 101 98.16 68.59 66.84"/>
        </g>
        <g>
          <polygon class="cls-4" points="9.39 35.97 5.88 2.3 26.5 2.3 9.39 35.97"/>
          <polygon class="cls-13" points="9.39 35.97 15.09 34.48 22.62 9.93 9.39 35.97"/>
          <polygon class="cls-5" points="26.5 2.3 41.11 25.93 31.8 32.52 26.5 2.3"/>
          <polygon class="cls-2" points="15.09 34.48 31.8 32.52 26.5 2.3 22.62 9.93 15.09 34.48"/>
          <polygon class="cls-10" points="9.39 35.97 14.14 37.97 47.46 40.14 42.06 31.27 31.8 32.52 15.09 34.48 9.39 35.97"/>
          <polygon class="cls-1" points="9.47 34.93 2.38 33.78 8.16 42.75 37.28 48.61 9.41 35.7 9.47 34.93"/>
        </g>
      </g>
    </g>
  </g>
</svg>