<?xml version="1.0" encoding="UTF-8"?>
<svg xmlns="http://www.w3.org/2000/svg" version="1.1" xmlns:xlink="http://www.w3.org/1999/xlink" viewBox="0 0 58.48 74.43">
  <defs>
    <style>
      .cls-1 {
        fill: url(#linear-gradient-2);
      }

      .cls-2 {
        fill: url(#linear-gradient-4);
      }

      .cls-3 {
        fill: url(#linear-gradient-3);
      }

      .cls-4 {
        fill: url(#linear-gradient-5);
      }

      .cls-5 {
        fill: url(#linear-gradient-6);
      }

      .cls-6 {
        fill: url(#linear-gradient);
      }
    </style>
    <linearGradient id="linear-gradient" x1="-14078.32" y1="111.87" x2="-14055.18" y2="135.78" gradientTransform="translate(-13546.32 3701.01) rotate(164.35) scale(1 -1)" gradientUnits="userSpaceOnUse">
      <stop offset="0" stop-color="#0f8d82"/>
      <stop offset="1" stop-color="#5e2f81"/>
    </linearGradient>
    <linearGradient id="linear-gradient-2" x1="-14072.39" y1="144.32" x2="-14063.3" y2="123.66" gradientTransform="translate(-13546.32 3701.01) rotate(164.35) scale(1 -1)" gradientUnits="userSpaceOnUse">
      <stop offset="0" stop-color="#cfdc2a"/>
      <stop offset="1" stop-color="#1ea6c4"/>
    </linearGradient>
    <linearGradient id="linear-gradient-3" x1="-14040.84" y1="137.85" x2="-14049.69" y2="112.65" xlink:href="#linear-gradient-2"/>
    <linearGradient id="linear-gradient-4" x1="-14057.85" y1="117.98" x2="-14058.22" y2="142.44" xlink:href="#linear-gradient-2"/>
    <linearGradient id="linear-gradient-5" x1="-14037.35" y1="148.15" x2="-14072.09" y2="151.42" xlink:href="#linear-gradient-2"/>
    <linearGradient id="linear-gradient-6" x1="-14086.85" y1="154.85" x2="-14039.46" y2="154.85" gradientTransform="translate(-13546.32 3701.01) rotate(164.35) scale(1 -1)" gradientUnits="userSpaceOnUse">
      <stop offset="0" stop-color="#21201e"/>
      <stop offset="1" stop-color="#21201e"/>
    </linearGradient>
  </defs>
  <!-- Generator: Adobe Illustrator 28.7.1, SVG Export Plug-In . SVG Version: 1.2.0 Build 142)  -->
  <g>
    <g id="Layer_1">
      <g>
        <polygon class="cls-6" points="49.18 46.51 41.43 1.19 14.48 8.74 49.18 46.51"/>
        <polygon class="cls-1" points="49.18 46.51 41.18 46.64 22.35 17.3 49.18 46.51"/>
        <polygon class="cls-3" points="14.48 8.74 4.02 44.99 18.62 50.19 14.48 8.74"/>
        <polygon class="cls-2" points="41.18 46.64 18.62 50.19 14.48 8.74 22.35 17.3 41.18 46.64"/>
        <polygon class="cls-4" points="49.18 46.51 43.7 50.85 .93 65.89 4.75 52.31 18.62 50.19 41.18 46.64 49.18 46.51"/>
        <polygon class="cls-5" points="48.69 45.18 57.55 41.08 53.28 54.92 17.34 73.25 49.06 46.16 48.69 45.18"/>
      </g>
    </g>
  </g>
</svg>