<?xml version="1.0" encoding="UTF-8"?>
<svg xmlns="http://www.w3.org/2000/svg" version="1.1" xmlns:xlink="http://www.w3.org/1999/xlink" viewBox="0 0 57.04 72.57">
  <defs>
    <style>
      .cls-1 {
        fill: url(#linear-gradient-2);
      }

      .cls-2 {
        fill: url(#linear-gradient-4);
      }

      .cls-3 {
        fill: url(#linear-gradient-3);
      }

      .cls-4 {
        fill: url(#linear-gradient-5);
      }

      .cls-5 {
        fill: url(#linear-gradient-6);
      }

      .cls-6 {
        fill: url(#linear-gradient);
      }
    </style>
    <linearGradient id="linear-gradient" x1="564.24" y1="-880.18" x2="586.67" y2="-857.01" gradientTransform="translate(-762.7 707.37) rotate(15.61)" gradientUnits="userSpaceOnUse">
      <stop offset="0" stop-color="#ee6e0f"/>
      <stop offset="1" stop-color="#e41369"/>
    </linearGradient>
    <linearGradient id="linear-gradient-2" x1="569.98" y1="-848.73" x2="578.8" y2="-868.75" xlink:href="#linear-gradient"/>
    <linearGradient id="linear-gradient-3" x1="600.57" y1="-855" x2="591.99" y2="-879.42" xlink:href="#linear-gradient"/>
    <linearGradient id="linear-gradient-4" x1="584.08" y1="-874.26" x2="583.72" y2="-850.55" xlink:href="#linear-gradient"/>
    <linearGradient id="linear-gradient-5" x1="603.96" y1="-845.02" x2="570.27" y2="-841.84" xlink:href="#linear-gradient"/>
    <linearGradient id="linear-gradient-6" x1="555.97" y1="-838.52" x2="601.91" y2="-838.52" gradientTransform="translate(-762.7 707.37) rotate(15.61)" gradientUnits="userSpaceOnUse">
      <stop offset="0" stop-color="#21201e"/>
      <stop offset="1" stop-color="#21201e"/>
    </linearGradient>
  </defs>
  <!-- Generator: Adobe Illustrator 28.7.1, SVG Export Plug-In . SVG Version: 1.2.0 Build 142)  -->
  <g>
    <g id="Layer_1">
      <g>
        <polygon class="cls-6" points="9.18 45.3 16.67 1.36 42.8 8.67 9.18 45.3"/>
        <polygon class="cls-1" points="9.18 45.3 16.94 45.43 35.18 16.97 9.18 45.3"/>
        <polygon class="cls-3" points="42.8 8.67 52.96 43.8 38.81 48.86 42.8 8.67"/>
        <polygon class="cls-2" points="16.94 45.43 38.81 48.86 42.8 8.67 35.18 16.97 16.94 45.43"/>
        <polygon class="cls-4" points="9.18 45.3 14.5 49.51 55.96 64.06 52.26 50.9 38.81 48.86 16.94 45.43 9.18 45.3"/>
        <polygon class="cls-5" points="9.66 44.01 1.07 40.04 5.22 53.45 40.07 71.2 9.31 44.96 9.66 44.01"/>
      </g>
    </g>
  </g>
</svg>