<?xml version="1.0" encoding="UTF-8"?>
<svg xmlns="http://www.w3.org/2000/svg" version="1.1" xmlns:xlink="http://www.w3.org/1999/xlink" viewBox="0 0 60.83 106.99">
  <defs>
    <style>
      .cls-1 {
        opacity: .74;
      }

      .cls-2 {
        opacity: .67;
      }

      .cls-3 {
        fill: url(#radial-gradient);
        stroke-width: .18px;
      }

      .cls-3, .cls-4, .cls-5 {
        stroke: #000;
        stroke-miterlimit: 10;
      }

      .cls-6 {
        fill: #1e0f00;
      }

      .cls-4 {
        fill: url(#linear-gradient);
        stroke-width: .23px;
      }

      .cls-5 {
        fill: url(#radial-gradient-2);
        stroke-width: .17px;
      }
    </style>
    <radialGradient id="radial-gradient" cx="2321.9" cy="1075.68" fx="2321.9" fy="1075.68" r="7.96" gradientTransform="translate(-1150.91 -2253.43) rotate(37.17)" gradientUnits="userSpaceOnUse">
      <stop offset=".25" stop-color="#cfdc2a"/>
      <stop offset="1" stop-color="#1ea6c4"/>
    </radialGradient>
    <radialGradient id="radial-gradient-2" cx="2348.44" cy="1151.53" fx="2348.44" fy="1151.53" r="19.69" xlink:href="#radial-gradient"/>
    <linearGradient id="linear-gradient" x1="25.38" y1="31.03" x2="59.39" y2="31.03" gradientUnits="userSpaceOnUse">
      <stop offset="0" stop-color="#0f8d82"/>
      <stop offset="1" stop-color="#5e2f81"/>
    </linearGradient>
  </defs>
  <!-- Generator: Adobe Illustrator 28.7.1, SVG Export Plug-In . SVG Version: 1.2.0 Build 142)  -->
  <g>
    <g id="Layer_1">
      <g class="cls-2">
        <path class="cls-3" d="M39.05,2.62s.03-.02.04-.03c.34-.24.81-.29,1.22-.32.65-.04,1.3,0,1.94.09,1.88.23,3.72.72,5.52,1.3,2.2.7,4.36,1.56,6.44,2.58,1.57.77,3.15,1.63,4.49,2.77.33.28,1.07.91,1.12,1.48-.21.21-.58.3-.89.34-.59.08-1.2.06-1.79,0-1.8-.17-3.58-.62-5.31-1.14-2.21-.67-4.38-1.5-6.46-2.48-1.66-.79-3.33-1.66-4.78-2.8-.45-.35-.9-.73-1.23-1.2-.13-.18-.24-.38-.28-.59Z"/>
        <path d="M59.8,9.66c-.07-.11-.15-.22-.23-.32-.42-.51-.93-.93-1.46-1.32-1.57-1.16-3.33-2.06-5.1-2.87-2.1-.96-4.28-1.76-6.51-2.39-1.68-.47-3.42-.89-5.17-.96-.48-.02-.98-.02-1.46.09.31-.17.7-.21,1.05-.23.63-.04,1.26.01,1.88.09,1.82.23,3.61.71,5.36,1.27,2.13.69,4.22,1.52,6.23,2.51,1.51.75,3.04,1.58,4.32,2.68.36.31.75.67.98,1.1.06.11.1.23.12.34Z"/>
        <path d="M.96,94.18c.02.16.05.32.09.46.19.63.6,1.18,1.03,1.67,1.33,1.53,3.11,2.68,4.85,3.68,2.32,1.33,4.8,2.4,7.33,3.25,2.21.74,4.49,1.32,6.81,1.58.9.1,1.82.15,2.73.1.69-.04,1.39-.13,2.05-.36.38-.14.89-.4,1.24-.74-.32,1.22-2.12,1.44-3.16,1.49-2.31.12-4.66-.36-6.89-.95-2.96-.79-5.86-1.89-8.59-3.27-1.24-.63-2.45-1.32-3.59-2.1-.9-.62-1.77-1.29-2.53-2.07-.53-.55-1.05-1.17-1.29-1.9-.09-.27-.12-.56-.08-.83Z"/>
        <polygon class="cls-6" points="1.54 93.41 1.54 93.42 1.54 93.41 1.54 93.41"/>
        <path class="cls-6" d="M26.56,56s0,0,0,0h0Z"/>
        <path class="cls-5" d="M27,56.67c.62.84,1.42,1.52,2.44,1.9,0,0,0,0,0,0,.01,0,.03.01.04.02,0,0,0,0,0,0,.25.1.5.17.75.23.75.16,1.51.13,2.26-.01-.3.33-.55.72-.79,1.07-.64.95-1.2,1.95-1.74,2.96-.71,1.32-1.39,2.67-2.04,4.02-.76,1.57-1.49,3.16-2.2,4.75-.75,1.69-1.49,3.4-2.2,5.11-.7,1.7-1.39,3.4-2.04,5.12-.6,1.58-1.19,3.16-1.74,4.76-.46,1.33-.89,2.68-1.27,4.03-.27.98-.53,1.97-.66,2.98-.05.41-.09.82-.02,1.23.1.53.3,1.05.53,1.54.02.04.04.09.06.13-.01.05,0,.1.04.12.01,0,.02.01.03.02.19.36.41.72.71.99.08.07.23.12.34.09.09-.03.13-.12.05-.19-.16-.14-.29-.31-.41-.49.15.09.3.17.45.26,1.69.99,3.36,2.02,4.95,3.17.63.46,1.26.94,1.82,1.49.19.19.43.43.59.69,0,0,0,.01,0,.02.09.16.14.34.16.51,0,.02-.01.04-.03.07-.02.03-.11.18-.12.19-.13.17-.27.28-.45.39-.49.3-1.07.44-1.63.53-1.73.26-3.53.06-5.24-.25-2.34-.42-4.64-1.11-6.86-1.96-2.36-.9-4.66-1.99-6.79-3.35-.85-.54-1.67-1.12-2.43-1.78-.59-.51-1.16-1.06-1.61-1.71-.31-.44-.59-.95-.61-1.5,0-.11,0-.21.02-.32,0-.04.02-.1.03-.13,0-.02.02-.05.03-.07,0-.01,0-.02,0-.03.04-.04.09-.07.14-.1.05-.02.09-.04.16-.06.58-.18,1.23-.15,1.83-.13.9.03,1.8.13,2.69.24,1.77.23,3.52.55,5.27.9-.24.09-.49.16-.73.14-.3-.03-.22.45.03.47.39.03.8-.13,1.16-.28.49-.2.97-.46,1.42-.75.31-.2.62-.41.86-.69.25-.28.47-.6.67-.92.59-.91,1.08-1.89,1.56-2.87.64-1.33,1.23-2.68,1.8-4.04.67-1.6,1.3-3.22,1.91-4.84.66-1.74,1.29-3.49,1.89-5.25.61-1.76,1.19-3.52,1.75-5.29.52-1.65,1.02-3.32,1.48-4.99.39-1.4.76-2.81,1.07-4.24.23-1.04.44-2.08.53-3.14.02-.24.05-.52.05-.8Z"/>
        <path class="cls-4" d="M35.32,11.97c1.09-2.89,2.2-5.82,3.57-8.6.15.35.41.65.66.91.49.51,1.06.94,1.65,1.34,1.69,1.16,3.55,2.08,5.44,2.89,2.1.91,4.27,1.67,6.49,2.25,1.57.41,3.21.77,4.84.75.36,0,.97-.02,1.42-.22-1,3.49-2.32,6.9-3.65,10.28-1.7,4.33-3.52,8.61-5.4,12.87-1.59,3.58-3.22,7.14-5.01,10.62-.75,1.46-1.56,2.88-2.47,4.25-1.5,2.27-3.19,4.47-5.23,6.29-1.32,1.17-2.82,2.24-4.52,2.77-1.13.35-2.38.47-3.51.02-.23-.09-.45-.19-.67-.31-.82-.49-1.45-1.23-1.93-2.05-.03-.1-.07-.19-.12-.28-.02-.04-.05-.07-.09-.09-.11-.22-.22-.44-.31-.67-.8-1.9-1.05-4.01-1.1-6.05-.09-4.17.71-8.26,1.8-12.26,1.07-3.94,2.3-7.84,3.57-11.71,1.43-4.36,2.93-8.7,4.56-12.99Z"/>
        <path d="M14.35,98.51c1.18.4,2.43.65,3.67.4.09-.02.23.02.22.13,0,.12-.16.18-.26.2-1.31.27-2.65.01-3.9-.41-1.31-.44-2.79-1.03-3.67-2.14-.14-.18.3-.38.43-.22.84,1.07,2.26,1.63,3.51,2.05Z"/>
        <path class="cls-1" d="M38.2,6.13c-.17.39-.34.79-.51,1.19.2-.1.45-.13.69-.12.26,0,.27.5.01.49-.24,0-.61.02-.73.21-.06.1-.06.16-.05.28.02.34.2.71.37,1.02.64,1.15,1.57,2.16,2.49,3.09.18.18-.06.57-.27.35-.85-.87-1.68-1.79-2.34-2.83-.25-.39-.55-.9-.63-1.4-1.14,2.77-2.17,5.59-3.17,8.42-1.45,4.08-2.81,8.18-4.09,12.31-1.03,3.31-2.03,6.63-2.87,9.99-.42,1.67-.75,3.36-.98,5.07-.31,2.3-.47,4.64-.26,6.96.14,1.58.46,3.19,1.16,4.63.47.97,1.15,1.9,2.11,2.45.18.1.37.19.56.26,1.59.63,3.4.01,4.8-.78,2.65-1.5,4.75-3.94,6.51-6.38,1.76-2.44,3.2-5.05,4.53-7.75,1.56-3.19,3.03-6.43,4.45-9.68,1.62-3.7,3.19-7.43,4.67-11.18.09-.23.18-.46.27-.69-.02,0-.03,0-.05.01-.5.1-1.04-.03-1.52-.17-.73-.21-1.42-.52-2.1-.86-.91-.45-1.78-.96-2.63-1.51-1.11-.71-2.18-1.48-3.22-2.29-.09-.07-.05-.17.04-.21.11-.05.25,0,.34.07,1.62,1.26,3.33,2.44,5.14,3.41.67.36,1.35.69,2.07.95.47.17.96.33,1.45.33.15,0,.31-.02.42-.09.32-.2.24-.66.13-.98-.07-.21.42-.18.48.01.11.34.18.77-.06,1.06-1.46,3.72-2.99,7.41-4.58,11.08-1.48,3.4-2.99,6.78-4.61,10.12-1.31,2.7-2.69,5.34-4.41,7.81-1.79,2.59-3.91,5.18-6.63,6.86-1.51.93-3.36,1.61-5.14,1.14-.16-.04-.31-.09-.47-.15,0,0,0,0,0,0-.01,0-.03,0-.04-.01,0,0-.01,0-.02,0-.94-.36-1.7-1.04-2.27-1.85-.81-1.16-1.25-2.55-1.51-3.94-.39-2.05-.39-4.17-.24-6.25.16-2.16.49-4.31.98-6.42.32-1.38.68-2.74,1.06-4.1.5-1.79,1.03-3.57,1.57-5.34.62-2.03,1.26-4.05,1.92-6.07.68-2.09,1.38-4.18,2.11-6.26.7-2.01,1.42-4.01,2.17-6.01.66-1.75,1.34-3.5,2.07-5.23.16-.37.31-.73.47-1.1.04-.09.38.02.35.1Z"/>
        <path d="M53.84,18.75c-1.22-1.7-2.78-3.16-4.36-4.51-1.87-1.6-3.87-3.07-6.01-4.3-.89-.52-1.81-1-2.78-1.35-.27-.1-.14-.57.13-.47,1.93.71,3.72,1.83,5.4,3,2.06,1.43,4.03,3.04,5.8,4.82.77.77,1.51,1.58,2.14,2.47.16.23-.15.6-.33.35Z"/>
        <path d="M35.41,31.2c-.27-.27-.26-.71,0-.98.27-.27.71-.26.98,0,.27.27.26.71,0,.98-.27.27-.71.26-.98,0ZM36.23,30.41c-.17-.18-.45-.18-.63,0-.18.17-.18.45,0,.63.17.18.45.18.63,0,.18-.17.18-.45,0-.63Z"/>
        <path d="M35.45,35.53c-.27-.27-.26-.71,0-.98.27-.27.71-.26.98,0,.27.27.26.71,0,.98-.27.27-.71.26-.98,0Z"/>
        <path d="M37.49,24.52c-.27-.27-.26-.71,0-.98.27-.27.71-.26.98,0,.27.27.26.71,0,.98-.27.27-.71.26-.98,0Z"/>
        <path d="M32.73,38.61c-.27-.27-.26-.71,0-.98.27-.27.71-.26.98,0,.27.27.26.71,0,.98-.27.27-.71.26-.98,0ZM33.55,37.81c-.17-.18-.45-.18-.63,0-.18.17-.18.45,0,.63.17.18.45.18.63,0,.18-.17.18-.45,0-.63Z"/>
        <path d="M38.3,28.22c-.26-.28-.25-.72.03-.98.28-.26.72-.25.98.03.26.28.25.72-.03.98-.28.26-.72.25-.98-.03ZM39.13,27.45c-.17-.18-.45-.19-.63-.02-.18.17-.19.45-.02.63.17.18.45.19.63.02.18-.17.19-.45.02-.63Z"/>
        <path d="M38.19,29.77c-.26-.28-.25-.72.03-.98.28-.26.72-.25.98.03.26.28.25.72-.03.98-.28.26-.72.25-.98-.03ZM39.02,29c-.17-.18-.45-.19-.63-.02-.18.17-.19.45-.02.63.17.18.45.19.63.02.18-.17.19-.45.02-.63Z"/>
        <path d="M28.24,47.5c-.3-.23-.36-.67-.13-.97s.66-.36.97-.13.36.67.13.97-.67.36-.97.13Z"/>
        <path d="M28.22,50.24c-.3-.23-.36-.67-.13-.97s.67-.36.97-.13.36.67.13.97-.67.36-.97.13ZM28.91,49.33c-.2-.15-.48-.11-.62.09s-.11.48.09.62.48.11.62-.09.11-.48-.09-.62Z"/>
        <path d="M30.38,46.38c-.3-.23-.36-.67-.13-.97s.66-.36.97-.13.36.67.13.97-.66.36-.97.13ZM31.07,45.48c-.2-.15-.48-.11-.62.09s-.11.48.09.62.48.11.62-.09.11-.48-.09-.62Z"/>
        <path d="M35.62,49.5c-.3-.23-.36-.67-.13-.97s.67-.36.97-.13.36.67.13.97-.66.36-.97.13ZM36.3,48.59c-.2-.15-.48-.11-.62.09s-.11.48.09.62.48.11.62-.09.11-.48-.09-.62Z"/>
        <path d="M37.04,42.02c-.27-.27-.26-.71,0-.98.27-.27.71-.26.98,0,.27.27.26.71,0,.98-.27.27-.71.26-.98,0Z"/>
        <path d="M39.03,41.26c-.27-.27-.26-.71,0-.98.27-.27.71-.26.98,0,.27.27.26.71,0,.98-.27.27-.71.26-.98,0ZM39.84,40.46c-.17-.18-.45-.18-.63,0-.18.17-.18.45,0,.63.17.18.45.18.63,0,.18-.17.18-.45,0-.63Z"/>
      </g>
    </g>
  </g>
</svg>