<?xml version="1.0" encoding="UTF-8"?>
<svg xmlns="http://www.w3.org/2000/svg" version="1.1" xmlns:xlink="http://www.w3.org/1999/xlink" viewBox="0 0 186.41 276.92">
  <defs>
    <style>
      .cls-1 {
        fill: url(#linear-gradient-15);
      }

      .cls-2 {
        fill: url(#linear-gradient-13);
      }

      .cls-3 {
        fill: url(#linear-gradient-28);
      }

      .cls-4 {
        fill: url(#linear-gradient-42);
      }

      .cls-5 {
        fill: url(#linear-gradient-46);
      }

      .cls-6 {
        fill: url(#linear-gradient-2);
      }

      .cls-7 {
        fill: url(#linear-gradient-43);
      }

      .cls-8 {
        fill: url(#linear-gradient-25);
      }

      .cls-9 {
        fill: url(#linear-gradient-10);
      }

      .cls-10 {
        fill: url(#linear-gradient-12);
      }

      .cls-11 {
        fill: url(#linear-gradient-40);
      }

      .cls-12 {
        fill: url(#linear-gradient-27);
      }

      .cls-13 {
        fill: url(#linear-gradient-37);
      }

      .cls-14 {
        fill: url(#linear-gradient-39);
      }

      .cls-15 {
        fill: url(#linear-gradient-47);
      }

      .cls-16 {
        fill: url(#linear-gradient-26);
      }

      .cls-17 {
        fill: url(#linear-gradient-4);
      }

      .cls-18 {
        fill: url(#linear-gradient-35);
      }

      .cls-19 {
        fill: url(#linear-gradient-30);
      }

      .cls-20 {
        fill: url(#linear-gradient-44);
      }

      .cls-21 {
        fill: url(#linear-gradient-49);
      }

      .cls-22 {
        fill: url(#linear-gradient-3);
      }

      .cls-23 {
        fill: url(#linear-gradient-34);
      }

      .cls-24 {
        fill: url(#linear-gradient-5);
      }

      .cls-25 {
        fill: url(#linear-gradient-38);
      }

      .cls-26 {
        fill: url(#linear-gradient-22);
      }

      .cls-27 {
        fill: url(#linear-gradient-24);
      }

      .cls-28 {
        fill: url(#linear-gradient-33);
      }

      .cls-29 {
        fill: url(#linear-gradient-8);
      }

      .cls-30 {
        fill: url(#linear-gradient-14);
      }

      .cls-31 {
        fill: url(#linear-gradient-29);
      }

      .cls-32 {
        fill: url(#linear-gradient-20);
      }

      .cls-33 {
        fill: url(#linear-gradient-17);
      }

      .cls-34 {
        fill: url(#linear-gradient-7);
      }

      .cls-35 {
        fill: url(#linear-gradient-9);
      }

      .cls-36 {
        fill: url(#linear-gradient-11);
      }

      .cls-37 {
        fill: url(#linear-gradient-19);
      }

      .cls-38 {
        fill: url(#linear-gradient-6);
      }

      .cls-39 {
        fill: url(#linear-gradient-36);
      }

      .cls-40 {
        fill: url(#linear-gradient-21);
      }

      .cls-41 {
        fill: url(#linear-gradient-45);
      }

      .cls-42 {
        fill: url(#linear-gradient-48);
      }

      .cls-43 {
        fill: url(#linear-gradient-32);
      }

      .cls-44 {
        fill: url(#linear-gradient-41);
      }

      .cls-45 {
        fill: url(#linear-gradient-16);
      }

      .cls-46 {
        fill: url(#linear-gradient);
      }

      .cls-47 {
        fill: url(#linear-gradient-23);
      }

      .cls-48 {
        fill: url(#linear-gradient-31);
      }

      .cls-49 {
        fill: url(#linear-gradient-18);
      }
    </style>
    <linearGradient id="linear-gradient" x1="87.28" y1="-279.31" x2="87.78" y2="-247.99" gradientTransform="translate(0 276.44)" gradientUnits="userSpaceOnUse">
      <stop offset="0" stop-color="#ee6e0f"/>
      <stop offset=".18" stop-color="#eb5724"/>
      <stop offset=".54" stop-color="#e73249"/>
      <stop offset=".82" stop-color="#e41b60"/>
      <stop offset="1" stop-color="#e41369"/>
    </linearGradient>
    <linearGradient id="linear-gradient-2" x1="70.66" y1="-217.2" x2="89.83" y2="-218" gradientTransform="translate(0 276.44)" gradientUnits="userSpaceOnUse">
      <stop offset="0" stop-color="#ee6e0f"/>
      <stop offset="1" stop-color="#e41369"/>
    </linearGradient>
    <linearGradient id="linear-gradient-3" x1="90.68" y1="-217.89" x2="103.3" y2="-217.73" xlink:href="#linear-gradient-2"/>
    <linearGradient id="linear-gradient-4" x1="100.58" y1="-228.95" x2="106.81" y2="-232.78" xlink:href="#linear-gradient-2"/>
    <linearGradient id="linear-gradient-5" x1="116.79" y1="-222.78" x2="135.96" y2="-222.78" xlink:href="#linear-gradient-2"/>
    <linearGradient id="linear-gradient-6" x1="78.61" y1="-227.06" x2="67.75" y2="-234.4" xlink:href="#linear-gradient-2"/>
    <linearGradient id="linear-gradient-7" x1="47.61" y1="-232.65" x2="45.37" y2="-216.51" xlink:href="#linear-gradient-2"/>
    <linearGradient id="linear-gradient-8" x1="65.5" y1="-197.67" x2="49.52" y2="-190.64" xlink:href="#linear-gradient-2"/>
    <linearGradient id="linear-gradient-9" x1="87.07" y1="-188.53" x2="73.66" y2="-185.82" xlink:href="#linear-gradient-2"/>
    <linearGradient id="linear-gradient-10" x1="105.34" y1="-185.7" x2="88.09" y2="-188.42" xlink:href="#linear-gradient-2"/>
    <linearGradient id="linear-gradient-11" x1="121.28" y1="-195.63" x2="109.14" y2="-199.3" xlink:href="#linear-gradient-2"/>
    <linearGradient id="linear-gradient-12" x1="110.87" y1="-173.27" x2="128.21" y2="-173.27" gradientTransform="translate(0 276.44)" gradientUnits="userSpaceOnUse">
      <stop offset="0" stop-color="#21201e"/>
      <stop offset="1" stop-color="#21201e"/>
    </linearGradient>
    <linearGradient id="linear-gradient-13" x1="63.89" y1="-157.88" x2="73.5" y2="-157.88" xlink:href="#linear-gradient-12"/>
    <linearGradient id="linear-gradient-14" x1="71.2" y1="-139.41" x2="101.1" y2="-157.95" gradientTransform="translate(0 276.44)" gradientUnits="userSpaceOnUse">
      <stop offset="0" stop-color="#cfdc2a"/>
      <stop offset="1" stop-color="#1ea6c4"/>
    </linearGradient>
    <linearGradient id="linear-gradient-15" x1="94.25" y1="-130.54" x2="83.06" y2="-120.52" xlink:href="#linear-gradient-14"/>
    <linearGradient id="linear-gradient-16" x1="87.82" y1="-106.48" x2="87.18" y2="-66.86" gradientTransform="translate(0 276.44)" gradientUnits="userSpaceOnUse">
      <stop offset="0" stop-color="#0f8d82"/>
      <stop offset="1" stop-color="#5e2f81"/>
    </linearGradient>
    <linearGradient id="linear-gradient-17" x1="86.21" y1="-35.88" x2="86.64" y2="-56.54" xlink:href="#linear-gradient-14"/>
    <linearGradient id="linear-gradient-18" x1="92.43" y1="-28.91" x2="93.5" y2="-58.09" xlink:href="#linear-gradient-14"/>
    <linearGradient id="linear-gradient-19" x1="87.68" y1="-19.11" x2="87.94" y2="-19.11" xlink:href="#linear-gradient-14"/>
    <linearGradient id="linear-gradient-20" x1="93.88" y1="-66.25" x2="98.68" y2="-85.31" xlink:href="#linear-gradient-14"/>
    <linearGradient id="linear-gradient-21" x1="95.11" y1="-47.53" x2="98.63" y2="-65.42" xlink:href="#linear-gradient-14"/>
    <linearGradient id="linear-gradient-22" x1="101.27" y1="-51.66" x2="103.72" y2="-77.75" xlink:href="#linear-gradient-14"/>
    <linearGradient id="linear-gradient-23" x1="110.06" y1="-81.07" x2="106.34" y2="-62.54" xlink:href="#linear-gradient-14"/>
    <linearGradient id="linear-gradient-24" x1="107.55" y1="-52.26" x2="121.92" y2="-90.28" xlink:href="#linear-gradient-14"/>
    <linearGradient id="linear-gradient-25" x1="96.72" y1="-32.72" x2="96.75" y2="-32.72" xlink:href="#linear-gradient-14"/>
    <linearGradient id="linear-gradient-26" x1="105.49" y1="-26.68" x2="147.81" y2="-62.14" xlink:href="#linear-gradient-14"/>
    <linearGradient id="linear-gradient-27" x1="132" y1="-39.65" x2="100.7" y2="-15.21" xlink:href="#linear-gradient-14"/>
    <linearGradient id="linear-gradient-28" x1="87.77" y1="-19.06" x2="87.78" y2="-19.06" xlink:href="#linear-gradient-14"/>
    <linearGradient id="linear-gradient-29" x1="88.13" y1="-46.57" x2="90.83" y2="-46.57" xlink:href="#linear-gradient-14"/>
    <linearGradient id="linear-gradient-30" x1="94.35" y1="-55.16" x2="94.36" y2="-55.16" xlink:href="#linear-gradient-14"/>
    <linearGradient id="linear-gradient-31" x1="95.64" y1="-43.5" x2="98.92" y2="-43.5" xlink:href="#linear-gradient-14"/>
    <linearGradient id="linear-gradient-32" x1="96.58" y1="-32.49" x2="96.73" y2="-32.49" xlink:href="#linear-gradient-14"/>
    <linearGradient id="linear-gradient-33" x1="130.64" y1="-60.69" x2="131" y2="-60.69" xlink:href="#linear-gradient-14"/>
    <linearGradient id="linear-gradient-34" x1="140.56" y1="-86.01" x2="102.39" y2="-30.75" xlink:href="#linear-gradient-14"/>
    <linearGradient id="linear-gradient-35" x1="142.54" y1="-248.96" x2="152.56" y2="-238.61" xlink:href="#linear-gradient-16"/>
    <linearGradient id="linear-gradient-36" x1="145.1" y1="-234.91" x2="149.04" y2="-243.85" xlink:href="#linear-gradient-14"/>
    <linearGradient id="linear-gradient-37" x1="158.77" y1="-237.71" x2="154.93" y2="-248.62" xlink:href="#linear-gradient-14"/>
    <linearGradient id="linear-gradient-38" x1="151.4" y1="-246.32" x2="151.24" y2="-235.72" xlink:href="#linear-gradient-14"/>
    <linearGradient id="linear-gradient-39" x1="160.28" y1="-233.25" x2="145.23" y2="-231.83" xlink:href="#linear-gradient-14"/>
    <linearGradient id="linear-gradient-40" x1="151.57" y1="-229.32" x2="162.47" y2="-228.22" xlink:href="#linear-gradient-14"/>
    <linearGradient id="linear-gradient-41" x1="160.94" y1="-226.88" x2="164.89" y2="-226.88" xlink:href="#linear-gradient-12"/>
    <linearGradient id="linear-gradient-42" x1="138.84" y1="-230.35" x2="159.37" y2="-230.35" xlink:href="#linear-gradient-12"/>
    <linearGradient id="linear-gradient-43" x1="80.63" y1="-53.75" x2="77.33" y2="-34.16" xlink:href="#linear-gradient-14"/>
    <linearGradient id="linear-gradient-44" x1="45.12" y1="-48.43" x2="73.66" y2="-23.61" xlink:href="#linear-gradient-16"/>
    <linearGradient id="linear-gradient-45" x1="60.75" y1="-44.71" x2="31.68" y2="-72.29" xlink:href="#linear-gradient-16"/>
    <linearGradient id="linear-gradient-46" x1="51.91" y1="-83.73" x2="61.81" y2="-56.36" xlink:href="#linear-gradient-16"/>
    <linearGradient id="linear-gradient-47" x1="68.97" y1="-65.86" x2="57.36" y2="-97.7" xlink:href="#linear-gradient-16"/>
    <linearGradient id="linear-gradient-48" x1="75.53" y1="-88.78" x2="76.17" y2="-64.29" xlink:href="#linear-gradient-16"/>
    <linearGradient id="linear-gradient-49" x1="76.7" y1="-27.44" x2="61.9" y2="-45.87" xlink:href="#linear-gradient-14"/>
  </defs>
  <!-- Generator: Adobe Illustrator 28.7.1, SVG Export Plug-In . SVG Version: 1.2.0 Build 142)  -->
  <g>
    <g id="Layer_1">
      <g id="Flower">
        <polygon class="cls-46" points="110.87 43.57 88.03 32.63 65.18 43.57 88.03 21.69 110.87 43.57"/>
        <polygon class="cls-6" points="88.03 32.63 88.03 84.41 65.18 63.43 88.03 32.63"/>
        <polygon class="cls-22" points="110.87 63.75 88.03 84.41 88.03 32.63 110.87 63.75"/>
        <polygon class="cls-17" points="110.87 43.57 110.87 63.75 88.03 32.63 110.87 43.57"/>
        <polygon class="cls-24" points="149.47 50.12 110.87 63.75 110.87 43.57 149.47 50.12"/>
        <polygon class="cls-38" points="88.03 32.63 65.18 63.43 65.18 43.57 88.03 32.63"/>
        <polygon class="cls-34" points="65.18 43.57 65.18 63.43 26.48 49.8 65.18 43.57"/>
        <polygon class="cls-29" points="26.48 49.8 73.5 120.6 81.21 118 65.18 63.43 26.48 49.8"/>
        <polygon class="cls-35" points="88.03 84.41 88.03 115.87 81.21 118 65.18 63.43 88.03 84.41"/>
        <polygon class="cls-9" points="110.87 63.75 96.97 112.68 88.03 115.87 88.03 84.41 110.87 63.75"/>
        <polygon class="cls-36" points="110.87 107.99 149.47 50.12 110.87 63.75 96.97 112.68 110.87 107.99"/>
        <polygon class="cls-10" points="117.3 98.35 128.21 102.31 110.87 107.99 117.3 98.35"/>
        <polygon class="cls-2" points="68.65 113.3 63.89 123.82 73.5 120.6 68.65 113.3"/>
        <polygon class="cls-30" points="63.89 123.82 79.22 149.81 128.21 102.31 63.89 123.82"/>
        <polygon class="cls-1" points="79.22 149.81 86.04 161.31 89.23 161.31 97.62 131.97 79.22 149.81"/>
        <polygon class="cls-45" points="89.02 161.31 89.02 214.16 88.42 216.15 87.53 210.08 86.04 218.54 86.04 161.31 89.02 161.31"/>
        <polygon class="cls-33" points="88.42 216.15 88.34 225.73 88.13 251.58 88.08 257.46 87.94 257.46 87.78 257.3 87.68 257.21 84.23 228.82 86.04 218.54 87.53 210.08 88.42 216.15"/>
        <polygon class="cls-49" points="96.72 243.73 96.05 244.85 88.79 256.96 88.49 257.46 88.08 257.46 88.13 251.58 90.83 208.16 91.57 196.45 92.43 203.05 94.35 221.27 94.34 221.36 94.36 221.3 95.64 233.48 95.64 233.48 96.5 241.63 96.72 243.73"/>
        <polygon class="cls-37" points="87.94 257.46 87.71 257.46 87.68 257.21 87.78 257.3 87.94 257.46"/>
        <polygon class="cls-32" points="97.62 185.37 94.35 221.27 92.43 203.05 97.62 185.37"/>
        <polygon class="cls-40" points="99.99 216.57 98.92 224.25 95.64 233.48 94.36 221.3 94.36 221.3 99.35 192.61 99.99 216.57"/>
        <polygon class="cls-26" points="104.7 222.19 96.75 243.69 96.75 243.69 96.72 243.73 96.5 241.63 98.92 224.25 99.99 216.57 103.61 181.11 104.14 207.84 104.7 222.19"/>
        <polygon class="cls-47" points="112.45 182.28 112.13 202.09 104.7 222.19 104.14 207.84 112.45 182.28"/>
        <polygon class="cls-27" points="126.4 164.29 116.28 211.14 96.75 243.69 104.7 222.19 112.13 202.09 126.4 164.29"/>
        <polygon class="cls-8" points="96.73 243.76 96.72 243.73 96.75 243.69 96.73 243.76"/>
        <polygon class="cls-16" points="155.04 200.92 134.91 232.44 97.87 254.59 94.41 256.66 93.07 257.46 88.49 257.46 88.79 256.96 95.12 251.6 97.35 249.7 130.68 221.44 155.04 200.92"/>
        <polygon class="cls-12" points="149.82 223.6 117.98 257.46 93.07 257.46 94.41 256.66 97.87 254.59 134.91 232.44 149.82 223.6"/>
        <line class="cls-3" x1="87.78" y1="257.3" x2="87.77" y2="257.46"/>
        <polygon class="cls-31" points="90.83 208.16 88.13 251.58 88.34 225.73 88.42 216.15 89.02 214.16 90.83 208.16"/>
        <line class="cls-19" x1="94.36" y1="221.3" x2="94.35" y2="221.27"/>
        <polygon class="cls-48" points="98.92 224.25 96.5 241.63 95.64 233.48 95.64 233.48 98.92 224.25"/>
        <line class="cls-43" x1="96.73" y1="243.76" x2="96.58" y2="244.15"/>
        <polyline class="cls-28" points="130.64 219.39 130.98 212.52 131 212.11"/>
        <polygon class="cls-23" points="146.95 199.64 130.76 218.81 130.68 221.44 97.35 249.7 95.12 251.6 88.79 256.96 96.05 244.85 96.72 243.73 96.73 243.76 96.75 243.69 96.75 243.69 116.28 211.14 133 182.92 131 212.1 131 212.11 130.97 212.53 130.98 212.52 146.95 199.64"/>
        <polygon class="cls-18" points="142.96 43.02 140.9 23.22 153.03 23.22 142.96 43.02"/>
        <polygon class="cls-39" points="142.96 43.02 146.32 42.15 150.74 27.71 142.96 43.02"/>
        <polygon class="cls-13" points="153.03 23.22 161.62 37.12 156.14 40.99 153.03 23.22"/>
        <polygon class="cls-25" points="146.32 42.15 156.14 40.99 153.03 23.22 150.74 27.71 146.32 42.15"/>
        <polygon class="cls-14" points="142.96 43.02 145.76 44.2 165.35 45.47 162.17 40.26 156.14 40.99 146.32 42.15 142.96 43.02"/>
        <polygon class="cls-11" points="145.76 44.2 160.73 51.08 164.08 47.01 165.35 45.47 145.76 44.2"/>
        <polygon class="cls-44" points="163.03 48.29 164.89 50.82 160.94 50.82 163.03 48.29"/>
        <polygon class="cls-4" points="143.01 42.41 138.84 41.74 142.24 47.01 159.37 50.46 142.98 42.87 143.01 42.41"/>
        <polygon class="cls-7" points="87.68 257.21 79.47 249.12 68.8 238.62 65.61 235.47 67.08 236.91 69.5 231.61 73.91 221.9 75.61 218.18 78.23 212.43 81.14 206.03 84.23 228.82 87.68 257.21"/>
        <polygon class="cls-20" points="72.81 249.12 60.22 249.12 28.48 214.62 43.5 223.78 61.72 234.46 72.81 249.12"/>
        <polygon class="cls-41" points="69.5 231.61 67.08 236.91 65.61 235.47 65.58 235.44 53.67 223.81 61.72 234.46 43.5 223.78 23.58 192.47 47.97 213.45 69.5 231.61"/>
        <polygon class="cls-5" points="73.91 221.9 69.5 231.61 47.97 213.45 45.31 174.69 61.92 202.09 73.91 221.9"/>
        <polygon class="cls-15" points="75.61 218.18 73.91 221.9 61.92 202.09 52.02 155.73 74.16 213.98 75.61 218.18"/>
        <polygon class="cls-42" points="78.23 212.43 75.61 218.18 74.16 213.98 75.02 172.67 78.23 212.43"/>
        <polygon class="cls-21" points="87.71 257.46 79.12 257.46 72.81 249.12 61.72 234.46 53.67 223.81 65.58 235.44 65.61 235.47 68.8 238.62 79.47 249.12 87.68 257.21 87.71 257.46"/>
      </g>
    </g>
  </g>
</svg>