<?xml version="1.0" encoding="UTF-8"?>
<svg xmlns="http://www.w3.org/2000/svg" version="1.1" xmlns:xlink="http://www.w3.org/1999/xlink" viewBox="0 0 473.16 652.8">
  <defs>
    <style>
      .cls-1 {
        fill: url(#linear-gradient-15);
      }

      .cls-2 {
        fill: url(#linear-gradient-13);
      }

      .cls-3 {
        fill: url(#linear-gradient-2);
      }

      .cls-4 {
        fill: url(#linear-gradient-10);
      }

      .cls-5 {
        fill: url(#linear-gradient-12);
      }

      .cls-6 {
        fill: url(#linear-gradient-4);
      }

      .cls-7 {
        fill: url(#radial-gradient);
      }

      .cls-8 {
        fill: url(#linear-gradient-3);
      }

      .cls-9 {
        fill: url(#linear-gradient-5);
      }

      .cls-10 {
        fill: url(#linear-gradient-22);
      }

      .cls-11 {
        fill: url(#linear-gradient-8);
      }

      .cls-12 {
        fill: url(#linear-gradient-14);
      }

      .cls-13 {
        fill: url(#linear-gradient-20);
      }

      .cls-14 {
        fill: url(#linear-gradient-17);
      }

      .cls-15 {
        fill: url(#linear-gradient-7);
      }

      .cls-16 {
        fill: url(#linear-gradient-9);
      }

      .cls-17 {
        fill: url(#linear-gradient-11);
      }

      .cls-18 {
        fill: url(#linear-gradient-19);
      }

      .cls-19 {
        fill: url(#linear-gradient-6);
      }

      .cls-20 {
        fill: none;
        stroke: #000;
        stroke-miterlimit: 10;
        stroke-width: .98px;
      }

      .cls-21 {
        fill: url(#linear-gradient-21);
      }

      .cls-22 {
        fill: url(#linear-gradient-16);
      }

      .cls-23 {
        fill: url(#linear-gradient);
      }

      .cls-24 {
        fill: url(#linear-gradient-23);
      }

      .cls-25 {
        fill: url(#linear-gradient-18);
      }
    </style>
    <radialGradient id="radial-gradient" cx="305.86" cy="178.7" fx="305.86" fy="178.7" r="31.8" gradientUnits="userSpaceOnUse">
      <stop offset="0" stop-color="#0f8d82"/>
      <stop offset="1" stop-color="#5e2f81"/>
    </radialGradient>
    <linearGradient id="linear-gradient" x1="313.03" y1="230.44" x2="323.42" y2="209.15" gradientUnits="userSpaceOnUse">
      <stop offset="0" stop-color="#cfdc2a"/>
      <stop offset="1" stop-color="#1ea6c4"/>
    </linearGradient>
    <linearGradient id="linear-gradient-2" x1="378.56" y1="270.05" x2="373.2" y2="303.51" xlink:href="#linear-gradient"/>
    <linearGradient id="linear-gradient-3" x1="432.74" y1="332.94" x2="430.95" y2="288.5" xlink:href="#linear-gradient"/>
    <linearGradient id="linear-gradient-4" x1="367.06" y1="315.06" x2="383.92" y2="261.93" xlink:href="#linear-gradient"/>
    <linearGradient id="linear-gradient-5" x1="311.26" y1="252.97" x2="283.16" y2="314.79" xlink:href="#linear-gradient"/>
    <linearGradient id="linear-gradient-6" x1="263.09" y1="220.32" x2="309.32" y2="255.32" xlink:href="#linear-gradient"/>
    <linearGradient id="linear-gradient-7" x1="252.04" y1="172.06" x2="216.28" y2="214.97" xlink:href="#linear-gradient"/>
    <linearGradient id="linear-gradient-8" x1="261.55" y1="148.07" x2="238.05" y2="181.79" xlink:href="#linear-gradient"/>
    <linearGradient id="linear-gradient-9" x1="226.14" y1="74.41" x2="251.68" y2="80.03" xlink:href="#linear-gradient"/>
    <linearGradient id="linear-gradient-10" x1="238.1" y1="304.7" x2="288.93" y2="360.13" xlink:href="#linear-gradient"/>
    <linearGradient id="linear-gradient-11" x1="288.39" y1="380.84" x2="294.14" y2="408.81" xlink:href="#linear-gradient"/>
    <linearGradient id="linear-gradient-12" x1="298.11" y1="411.89" x2="332.21" y2="407.68" xlink:href="#linear-gradient"/>
    <linearGradient id="linear-gradient-13" x1="318.41" y1="416.52" x2="357.87" y2="402.73" xlink:href="#linear-gradient"/>
    <linearGradient id="linear-gradient-14" x1="347.11" y1="457.34" x2="319.52" y2="506.38" xlink:href="#linear-gradient"/>
    <linearGradient id="linear-gradient-15" x1="279.92" y1="451.66" x2="253.1" y2="457.79" xlink:href="#linear-gradient"/>
    <linearGradient id="linear-gradient-16" x1="267.23" y1="457.91" x2="238.11" y2="453.31" xlink:href="#linear-gradient"/>
    <linearGradient id="linear-gradient-17" x1="247.51" y1="537.51" x2="262.46" y2="593.45" xlink:href="#linear-gradient"/>
    <linearGradient id="linear-gradient-18" x1="290.28" y1="140.74" x2="338.39" y2="140.74" gradientUnits="userSpaceOnUse">
      <stop offset="0" stop-color="#21201e"/>
      <stop offset="1" stop-color="#21201e"/>
    </linearGradient>
    <linearGradient id="linear-gradient-19" x1="113.78" y1="384.1" x2="247.9" y2="384.1" gradientUnits="userSpaceOnUse">
      <stop offset="0" stop-color="#ee6e0f"/>
      <stop offset="1" stop-color="#e41369"/>
    </linearGradient>
    <linearGradient id="linear-gradient-20" x1="184.04" y1="460.14" x2="224.91" y2="304.84" gradientUnits="userSpaceOnUse">
      <stop offset="0" stop-color="#0f8d82"/>
      <stop offset="1" stop-color="#5e2f81"/>
    </linearGradient>
    <linearGradient id="linear-gradient-21" x1="5.48" y1="466.91" x2="113.78" y2="466.91" xlink:href="#linear-gradient-19"/>
    <linearGradient id="linear-gradient-22" x1="300.23" y1="478.99" x2="307.39" y2="428.42" xlink:href="#linear-gradient-20"/>
    <linearGradient id="linear-gradient-23" x1="333.16" y1="375.3" x2="337.25" y2="342.6" xlink:href="#linear-gradient-20"/>
  </defs>
  <!-- Generator: Adobe Illustrator 28.7.1, SVG Export Plug-In . SVG Version: 1.2.0 Build 142)  -->
  <g>
    <g id="Layer_1">
      <g id="Illustration_1">
        <polygon class="cls-7" points="290.28 144.21 334.73 151.88 326.04 213.18 277 201.94 290.28 144.21"/>
        <polygon class="cls-23" points="277 201.94 326.04 213.18 355.8 245.11 277 201.94"/>
        <polygon class="cls-3" points="355.8 245.11 395.65 330.42 397.44 293.9 355.8 245.11"/>
        <polygon class="cls-8" points="397.44 293.9 467.68 281.89 395.65 330.42 397.44 293.9"/>
        <polygon class="cls-6" points="343.03 291.09 395.65 330.42 355.8 245.11 343.03 291.09"/>
        <polygon class="cls-9" points="247.9 254.21 321.32 368.99 355.8 245.11 247.9 254.21"/>
        <polygon class="cls-19" points="247.9 254.21 277 201.94 355.8 245.11 247.9 254.21"/>
        <polygon class="cls-15" points="211.99 142.94 247.9 254.21 276.46 202.91 211.99 142.94"/>
        <polygon class="cls-11" points="211.99 142.94 241.37 125.06 276.46 202.91 211.99 142.94"/>
        <polygon class="cls-16" points="211.99 142.94 247.9 7.56 241.37 125.06 211.99 142.94"/>
        <polygon class="cls-4" points="247.9 254.21 253.37 382.53 321.32 368.99 247.9 254.21"/>
        <polygon class="cls-17" points="253.37 382.53 286.58 423.4 321.32 368.99 253.37 382.53"/>
        <polygon class="cls-5" points="321.32 368.99 330.51 447.92 286.58 423.4 321.32 368.99"/>
        <path class="cls-20" d="M330.51,447.92"/>
        <polygon class="cls-2" points="377.38 442.43 321.32 368.99 330.51 447.92 377.38 442.43"/>
        <polygon class="cls-12" points="299.73 528.76 377.38 442.43 330.51 447.92 299.73 528.76"/>
        <polygon class="cls-1" points="263.72 530.55 286.58 423.4 253.37 382.53 263.72 530.55"/>
        <polygon class="cls-22" points="223.36 514.71 253.37 382.53 263.72 530.55 223.36 514.71"/>
        <polygon class="cls-14" points="279.3 645.24 263.72 530.55 223.36 514.71 279.3 645.24"/>
        <polygon class="cls-25" points="290.28 144.21 338.39 129.61 334.73 151.88 290.28 144.21"/>
        <polygon class="cls-18" points="244.23 242.84 113.78 408.46 113.78 525.36 247.9 254.21 244.23 242.84"/>
        <polygon class="cls-13" points="227.05 498.48 113.78 525.36 247.9 254.21 253.37 382.53 227.05 498.48"/>
        <polygon class="cls-21" points="5.48 476.32 113.78 525.36 113.78 408.46 5.48 476.32"/>
        <polygon class="cls-10" points="273.63 484.11 316.17 485.6 330.51 447.92 286.58 423.4 273.63 484.11"/>
        <polygon class="cls-24" points="321.32 368.99 343.03 397.43 343.03 291.09 321.32 368.99"/>
      </g>
    </g>
  </g>
</svg>