<?xml version="1.0" encoding="UTF-8"?>
<svg xmlns="http://www.w3.org/2000/svg" version="1.1" xmlns:xlink="http://www.w3.org/1999/xlink" viewBox="0 0 123.96 160.59">
  <defs>
    <style>
      .cls-1 {
        fill: url(#linear-gradient-15);
      }

      .cls-2 {
        fill: url(#linear-gradient-13);
      }

      .cls-3 {
        fill: url(#linear-gradient-2);
      }

      .cls-4 {
        fill: url(#linear-gradient-10);
      }

      .cls-5 {
        fill: url(#linear-gradient-12);
      }

      .cls-6 {
        fill: url(#linear-gradient-4);
      }

      .cls-7 {
        fill: url(#linear-gradient-3);
      }

      .cls-8 {
        fill: url(#linear-gradient-5);
      }

      .cls-9 {
        fill: url(#linear-gradient-8);
      }

      .cls-10 {
        fill: url(#linear-gradient-14);
      }

      .cls-11 {
        fill: url(#linear-gradient-20);
      }

      .cls-12 {
        fill: url(#linear-gradient-17);
      }

      .cls-13 {
        fill: url(#linear-gradient-7);
      }

      .cls-14 {
        fill: url(#linear-gradient-9);
      }

      .cls-15 {
        fill: url(#linear-gradient-11);
      }

      .cls-16 {
        fill: url(#linear-gradient-19);
      }

      .cls-17 {
        fill: url(#linear-gradient-6);
      }

      .cls-18 {
        fill: url(#linear-gradient-21);
      }

      .cls-19 {
        fill: url(#linear-gradient-16);
      }

      .cls-20 {
        fill: url(#linear-gradient);
      }

      .cls-21 {
        fill: url(#linear-gradient-18);
      }
    </style>
    <linearGradient id="linear-gradient" x1="53.53" y1="23.05" x2="35.88" y2="55.14" gradientUnits="userSpaceOnUse">
      <stop offset="0" stop-color="#cfdc2a"/>
      <stop offset="1" stop-color="#1ea6c4"/>
    </linearGradient>
    <linearGradient id="linear-gradient-2" x1="26.29" y1="68.62" x2="13.09" y2="79.13" xlink:href="#linear-gradient"/>
    <linearGradient id="linear-gradient-3" x1="47.56" y1="75.88" x2="31.16" y2="76.23" xlink:href="#linear-gradient"/>
    <linearGradient id="linear-gradient-4" x1="61.44" y1="65.18" x2="61.26" y2="85.68" xlink:href="#linear-gradient"/>
    <linearGradient id="linear-gradient-5" x1="89.73" y1="60" x2="67.45" y2="26.31" xlink:href="#linear-gradient"/>
    <linearGradient id="linear-gradient-6" x1="81.49" y1="87.05" x2="99.68" y2="63.7" xlink:href="#linear-gradient"/>
    <linearGradient id="linear-gradient-7" x1="34.07" y1="94.94" x2="30.67" y2="101.12" xlink:href="#linear-gradient"/>
    <linearGradient id="linear-gradient-8" x1="28.82" y1="103.72" x2="26.28" y2="105.75" xlink:href="#linear-gradient"/>
    <linearGradient id="linear-gradient-9" x1="32.92" y1="105.12" x2="29.76" y2="105.19" xlink:href="#linear-gradient"/>
    <linearGradient id="linear-gradient-10" x1="35.6" y1="103.06" x2="35.56" y2="107.01" xlink:href="#linear-gradient"/>
    <linearGradient id="linear-gradient-11" x1="41.05" y1="102.06" x2="36.76" y2="95.57" xlink:href="#linear-gradient"/>
    <linearGradient id="linear-gradient-12" x1="39.46" y1="107.28" x2="42.97" y2="102.77" xlink:href="#linear-gradient"/>
    <linearGradient id="linear-gradient-13" x1="96.13" y1="101.15" x2="89.3" y2="113.56" xlink:href="#linear-gradient"/>
    <linearGradient id="linear-gradient-14" x1="85.59" y1="118.77" x2="80.49" y2="122.84" xlink:href="#linear-gradient"/>
    <linearGradient id="linear-gradient-15" x1="93.82" y1="121.58" x2="87.48" y2="121.72" xlink:href="#linear-gradient"/>
    <linearGradient id="linear-gradient-16" x1="99.19" y1="117.44" x2="99.12" y2="125.37" xlink:href="#linear-gradient"/>
    <linearGradient id="linear-gradient-17" x1="110.13" y1="115.44" x2="101.51" y2="102.41" xlink:href="#linear-gradient"/>
    <linearGradient id="linear-gradient-18" x1="106.94" y1="125.9" x2="113.97" y2="116.87" xlink:href="#linear-gradient"/>
    <linearGradient id="linear-gradient-19" x1="66.8" y1="135.63" x2="98.96" y2="135.63" gradientUnits="userSpaceOnUse">
      <stop offset="0" stop-color="#ee6e0f"/>
      <stop offset="1" stop-color="#e41369"/>
    </linearGradient>
    <linearGradient id="linear-gradient-20" x1="39.79" y1="111.98" x2="55.81" y2="111.98" xlink:href="#linear-gradient-19"/>
    <linearGradient id="linear-gradient-21" x1="54.77" y1="124.09" x2="67.41" y2="124.09" xlink:href="#linear-gradient-19"/>
  </defs>
  <!-- Generator: Adobe Illustrator 28.7.1, SVG Export Plug-In . SVG Version: 1.2.0 Build 142)  -->
  <g>
    <g id="Layer_1">
      <g id="Tree">
        <g>
          <polygon class="cls-20" points="3.57 61.12 61.61 61.13 61.61 3.08 3.57 61.12"/>
          <polygon class="cls-3" points="31.92 90.67 31.93 61.13 2.38 61.13 31.92 90.67"/>
          <polygon class="cls-7" points="31.93 61.13 31.93 90.67 61.47 90.67 31.93 61.13"/>
          <polygon class="cls-6" points="32.34 61.54 61.47 90.67 90.6 61.54 32.34 61.54"/>
          <polygon class="cls-8" points="119.34 61.12 61.61 61.13 61.61 3.39 119.34 61.12"/>
          <polygon class="cls-17" points="119.31 61.13 90.19 61.13 61.05 90.67 90.17 90.67 119.31 61.13"/>
        </g>
        <g>
          <g>
            <polygon class="cls-13" points="24.44 102.28 35.63 102.28 35.63 91.09 24.44 102.28"/>
            <polygon class="cls-9" points="29.91 107.97 29.91 102.28 24.21 102.28 29.91 107.97"/>
            <polygon class="cls-14" points="29.91 102.28 29.91 107.97 35.6 107.97 29.91 102.28"/>
            <polygon class="cls-4" points="29.99 102.36 35.6 107.97 41.22 102.36 29.99 102.36"/>
            <polygon class="cls-15" points="46.76 102.28 35.63 102.28 35.63 91.15 46.76 102.28"/>
            <polygon class="cls-5" points="46.75 102.28 41.14 102.28 35.52 107.97 41.14 107.97 46.75 102.28"/>
          </g>
          <g>
            <polygon class="cls-2" points="76.81 115.88 99.25 115.88 99.25 93.43 76.81 115.88"/>
            <polygon class="cls-10" points="87.77 127.3 87.77 115.88 76.35 115.88 87.77 127.3"/>
            <polygon class="cls-1" points="87.77 115.88 87.77 127.3 99.2 127.3 87.77 115.88"/>
            <polygon class="cls-19" points="87.93 116.04 99.2 127.3 110.46 116.04 87.93 116.04"/>
            <polygon class="cls-12" points="121.58 115.88 99.25 115.88 99.25 93.55 121.58 115.88"/>
            <polygon class="cls-21" points="121.57 115.88 110.3 115.88 99.04 127.3 110.3 127.3 121.57 115.88"/>
          </g>
          <polygon class="cls-16" points="66.8 127.59 82.88 143.67 98.96 127.59 66.8 127.59"/>
        </g>
        <polygon class="cls-11" points="39.79 107.97 47.8 115.99 55.81 107.97 39.79 107.97"/>
        <rect class="cls-18" x="54.77" y="90.67" width="12.63" height="66.84"/>
      </g>
    </g>
  </g>
</svg>