<?xml version="1.0" encoding="UTF-8"?>
<svg xmlns="http://www.w3.org/2000/svg" version="1.1" xmlns:xlink="http://www.w3.org/1999/xlink" viewBox="0 0 131.2 219.77">
  <defs>
    <style>
      .cls-1 {
        fill: url(#linear-gradient-2);
      }

      .cls-2 {
        fill: url(#linear-gradient-4);
      }

      .cls-3 {
        fill: url(#linear-gradient-3);
      }

      .cls-4 {
        fill: url(#linear-gradient-5);
      }

      .cls-5 {
        fill: #21201e;
      }

      .cls-6 {
        fill: url(#linear-gradient-6);
      }

      .cls-7 {
        fill: url(#linear-gradient);
      }
    </style>
    <linearGradient id="linear-gradient" x1="82.3" y1="15.45" x2="81.9" y2="46.12" gradientTransform="translate(45.16 -49.32) rotate(45)" gradientUnits="userSpaceOnUse">
      <stop offset="0" stop-color="#ee6e0f"/>
      <stop offset="1" stop-color="#e41369"/>
    </linearGradient>
    <linearGradient id="linear-gradient-2" x1="61.64" y1="125.83" x2="38.74" y2="127.06" gradientUnits="userSpaceOnUse">
      <stop offset="0" stop-color="#cfdc2a"/>
      <stop offset="1" stop-color="#1ea6c4"/>
    </linearGradient>
    <linearGradient id="linear-gradient-3" x1="73.04" y1="89.32" x2="103.3" y2="89.73" gradientUnits="userSpaceOnUse">
      <stop offset="0" stop-color="#0f8d82"/>
      <stop offset="1" stop-color="#5e2f81"/>
    </linearGradient>
    <linearGradient id="linear-gradient-4" x1="98.63" y1="145.65" x2="71.03" y2="145.85" xlink:href="#linear-gradient-2"/>
    <linearGradient id="linear-gradient-5" x1="58.41" y1="155.29" x2="58.82" y2="180.64" gradientTransform="matrix(1,0,0,1,0,0)" xlink:href="#linear-gradient"/>
    <linearGradient id="linear-gradient-6" x1="9.81" y1="187.98" x2="19.22" y2="198.2" xlink:href="#linear-gradient-3"/>
  </defs>
  <!-- Generator: Adobe Illustrator 28.7.1, SVG Export Plug-In . SVG Version: 1.2.0 Build 142)  -->
  <g>
    <g id="Layer_1">
      <g>
        <rect class="cls-7" x="63.72" y="11.46" width="36.79" height="36.79" transform="translate(2.94 66.81) rotate(-45)"/>
        <polygon class="cls-1" points="66.97 137.49 66.86 88.51 40.23 115.03 40.35 164.01 66.97 137.49"/>
        <polygon class="cls-3" points="115.37 89.12 67.07 40.83 66.85 137.64 115.37 89.12"/>
        <polygon class="cls-2" points="58.84 145.69 107.13 193.99 107.35 97.17 58.84 145.69"/>
        <polygon class="cls-4" points="58.75 145.62 23.02 181.35 94.65 181.52 58.75 145.62"/>
        <polygon class="cls-6" points="2.29 181.38 2.29 215.63 36.7 181.38 2.29 181.38"/>
        <polygon class="cls-5" points="94.65 215.93 128.9 215.93 94.65 181.52 94.65 215.93"/>
      </g>
    </g>
  </g>
</svg>