<?xml version="1.0" encoding="UTF-8"?>
<svg xmlns="http://www.w3.org/2000/svg" version="1.1" xmlns:xlink="http://www.w3.org/1999/xlink" viewBox="0 0 227.49 152.43">
  <defs>
    <style>
      .cls-1 {
        fill: url(#radial-gradient);
        stroke-width: 1.39px;
      }

      .cls-1, .cls-2, .cls-3, .cls-4 {
        stroke: #000;
        stroke-miterlimit: 10;
      }

      .cls-2 {
        fill: url(#linear-gradient);
        stroke-width: 1.26px;
      }

      .cls-3 {
        fill: url(#linear-gradient-2);
        stroke-width: 1.26px;
      }

      .cls-4 {
        fill: url(#radial-gradient-2);
        stroke-width: 1.36px;
      }
    </style>
    <radialGradient id="radial-gradient" cx="191.59" cy="76.4" fx="191.59" fy="76.4" r="32.3" gradientUnits="userSpaceOnUse">
      <stop offset="0" stop-color="#ee6e0f"/>
      <stop offset=".21" stop-color="#ed6a12"/>
      <stop offset=".42" stop-color="#ec5e1e"/>
      <stop offset=".63" stop-color="#ea4a32"/>
      <stop offset=".84" stop-color="#e72e4d"/>
      <stop offset="1" stop-color="#e41369"/>
    </radialGradient>
    <radialGradient id="radial-gradient-2" cx="39.3" cy="76.4" fx="39.3" fy="76.4" r="32.48" xlink:href="#radial-gradient"/>
    <linearGradient id="linear-gradient" x1="16.47" y1="59.3" x2="213.98" y2="59.3" gradientUnits="userSpaceOnUse">
      <stop offset=".25" stop-color="#cfdc2a"/>
      <stop offset="1" stop-color="#1ea6c4"/>
    </linearGradient>
    <linearGradient id="linear-gradient-2" x1="16.47" y1="112.68" x2="214.07" y2="112.68" xlink:href="#linear-gradient"/>
  </defs>
  <!-- Generator: Adobe Illustrator 28.7.1, SVG Export Plug-In . SVG Version: 1.2.0 Build 142)  -->
  <g>
    <g id="Layer_1">
      <g>
        <path class="cls-1" d="M217.45,46.19v60.41c0,6.28-7.3,9.73-12.16,5.75l-36.85-30.25c-3.63-2.98-3.62-8.53,0-11.5l36.85-30.16c4.86-3.97,12.15-.52,12.15,5.76Z"/>
        <path class="cls-4" d="M62.62,82.06l-37.39,30.54c-4.77,3.9-11.93.5-11.93-5.66v-61.09c0-6.16,7.16-9.56,11.93-5.66l37.39,30.55c3.58,2.92,3.58,8.4,0,11.32Z"/>
        <path class="cls-2" d="M212.74,16.3c2.05,2.94,1.48,7.14-1.15,9.48l-56.82,50.53c-.2.16-.39.34-.57.53l-34.82,30.81c-2.4,2.12-5.85,2.12-8.24,0l-12.17-10.76-22.7-20.1h-.01c-.08-.09-.16-.17-.24-.24l-3.59-3.16L18.87,25.92c-2.63-2.33-3.2-6.5-1.18-9.46,1.92-2.8,4.33-5.1,7.07-6.47.85-.43,1.78-.63,2.72-.63h175.6c.94,0,1.87.21,2.72.63,2.68,1.35,5.05,3.58,6.95,6.3Z"/>
        <path class="cls-3" d="M211.67,126.74c2.69,2.39,3.23,6.71,1.07,9.67-2.4,3.3-5.56,5.9-9.18,7.6-.25.07-.49-.08-.73-.08H27.73c-.24,0-.49.14-.74.07-3.7-1.72-6.87-4.4-9.25-7.8-2.08-2.98-1.54-7.23,1.13-9.6l49.17-43.69c2.4-2.13,5.85-2.13,8.25,0l14.78,13.17,20.06,17.86c.78.79,1.75,1.36,2.81,1.62.44.11.89.16,1.34.16,1.39,0,2.76-.51,3.86-1.49l35.18-31.21c2.4-2.13,5.85-2.12,8.24,0l49.1,43.68Z"/>
      </g>
    </g>
  </g>
</svg>