<?xml version="1.0" encoding="UTF-8"?>
<svg xmlns="http://www.w3.org/2000/svg" version="1.1" xmlns:xlink="http://www.w3.org/1999/xlink" viewBox="0 0 275.38 173.85">
  <defs>
    <style>
      .cls-1 {
        fill: url(#linear-gradient-15);
      }

      .cls-2 {
        fill: url(#linear-gradient-13);
      }

      .cls-3 {
        fill: url(#linear-gradient-2);
      }

      .cls-4 {
        fill: url(#linear-gradient-10);
      }

      .cls-5 {
        fill: url(#linear-gradient-12);
      }

      .cls-6 {
        fill: url(#linear-gradient-4);
      }

      .cls-7 {
        fill: url(#linear-gradient-3);
      }

      .cls-8 {
        fill: url(#linear-gradient-5);
      }

      .cls-9 {
        fill: url(#linear-gradient-8);
      }

      .cls-10 {
        fill: url(#linear-gradient-14);
      }

      .cls-11 {
        fill: url(#linear-gradient-7);
      }

      .cls-12 {
        fill: url(#linear-gradient-9);
      }

      .cls-13 {
        fill: url(#linear-gradient-11);
      }

      .cls-14 {
        fill: url(#linear-gradient-6);
      }

      .cls-15 {
        fill: url(#linear-gradient);
      }
    </style>
    <linearGradient id="linear-gradient" x1="-13071.92" y1="106.46" x2="-13048.21" y2="130.96" gradientTransform="translate(13260.38)" gradientUnits="userSpaceOnUse">
      <stop offset="0" stop-color="#0f8d82"/>
      <stop offset="1" stop-color="#5e2f81"/>
    </linearGradient>
    <linearGradient id="linear-gradient-2" x1="-13065.85" y1="139.71" x2="-13056.52" y2="118.54" gradientTransform="translate(13260.38)" gradientUnits="userSpaceOnUse">
      <stop offset="0" stop-color="#cfdc2a"/>
      <stop offset="1" stop-color="#1ea6c4"/>
    </linearGradient>
    <linearGradient id="linear-gradient-3" x1="-13033.51" y1="133.09" x2="-13042.58" y2="107.26" xlink:href="#linear-gradient-2"/>
    <linearGradient id="linear-gradient-4" x1="-13050.94" y1="112.72" x2="-13051.32" y2="137.79" xlink:href="#linear-gradient-2"/>
    <linearGradient id="linear-gradient-5" x1="-13029.93" y1="143.64" x2="-13065.54" y2="147" xlink:href="#linear-gradient-2"/>
    <linearGradient id="linear-gradient-6" x1="-13080.66" y1="150.51" x2="-13032.09" y2="150.51" gradientTransform="translate(13260.38)" gradientUnits="userSpaceOnUse">
      <stop offset="0" stop-color="#21201e"/>
      <stop offset="1" stop-color="#21201e"/>
    </linearGradient>
    <linearGradient id="linear-gradient-7" x1="2706.22" y1="-4544.47" x2="2726.89" y2="-4549.38" gradientTransform="translate(821.5 5269.15) rotate(-39.02)" gradientUnits="userSpaceOnUse">
      <stop offset="0" stop-color="#ee6e0f"/>
      <stop offset="1" stop-color="#e41369"/>
    </linearGradient>
    <linearGradient id="linear-gradient-8" x1="2685.84" y1="-4544.35" x2="2661.91" y2="-4549.25" xlink:href="#linear-gradient-7"/>
    <linearGradient id="linear-gradient-9" x1="2699.64" y1="-4530.89" x2="2706.64" y2="-4511.74" xlink:href="#linear-gradient-7"/>
    <linearGradient id="linear-gradient-10" x1="2715.4" y1="-4532.45" x2="2697.42" y2="-4538.99" xlink:href="#linear-gradient-7"/>
    <linearGradient id="linear-gradient-11" x1="2689.63" y1="-4531.79" x2="2680.29" y2="-4508.09" xlink:href="#linear-gradient-7"/>
    <linearGradient id="linear-gradient-12" x1="2672.02" y1="-4532.64" x2="2686.14" y2="-4541.39" xlink:href="#linear-gradient-7"/>
    <linearGradient id="linear-gradient-13" x1="2689.91" y1="-4512.09" x2="2689.56" y2="-4525.05" xlink:href="#linear-gradient-7"/>
    <linearGradient id="linear-gradient-14" x1="2698.73" y1="-4509.52" x2="2697.07" y2="-4524.58" xlink:href="#linear-gradient-7"/>
    <linearGradient id="linear-gradient-15" x1="2689.56" y1="-4528.4" x2="2698.77" y2="-4528.4" gradientTransform="translate(821.5 5269.15) rotate(-39.02)" xlink:href="#linear-gradient-6"/>
  </defs>
  <!-- Generator: Adobe Illustrator 28.7.1, SVG Export Plug-In . SVG Version: 1.2.0 Build 142)  -->
  <g>
    <g id="Layer_1">
      <g>
        <polygon class="cls-15" points="189.47 143.24 184.59 96.37 213.28 96.37 189.47 143.24"/>
        <polygon class="cls-3" points="189.47 143.24 197.41 141.16 207.88 106.99 189.47 143.24"/>
        <polygon class="cls-7" points="213.28 96.37 233.62 129.26 220.65 138.43 213.28 96.37"/>
        <polygon class="cls-6" points="197.41 141.16 220.65 138.43 213.28 96.37 207.88 106.99 197.41 141.16"/>
        <polygon class="cls-8" points="189.47 143.24 196.09 146.01 242.45 149.03 234.93 136.69 220.65 138.43 197.41 141.16 189.47 143.24"/>
        <polygon class="cls-14" points="189.59 141.79 179.72 140.19 187.75 152.67 228.29 160.82 189.5 142.86 189.59 141.79"/>
      </g>
      <g>
        <polygon class="cls-11" points="55.73 42.12 70.68 12.75 82.97 20.04 55.73 42.12"/>
        <polygon class="cls-9" points="54.83 42.85 20.83 53.15 25.05 66.98 54.83 42.85"/>
        <polygon class="cls-12" points="54.83 42.85 84.82 67.51 83.34 52.54 54.83 42.85"/>
        <polygon class="cls-4" points="81.08 51.77 79.89 22.54 54.83 42.85 81.08 51.77"/>
        <polygon class="cls-13" points="53.73 43.73 71.65 78.19 57.31 73.63 53.73 43.73"/>
        <polygon class="cls-5" points="57.03 71.26 28.67 64.04 53.73 43.73 57.03 71.26"/>
        <polygon class="cls-2" points="53.73 43.73 72.43 66.8 71.65 78.19 53.73 43.73"/>
        <polygon class="cls-10" points="54.83 42.85 73.63 66.05 84.82 67.51 54.83 42.85"/>
        <polygon class="cls-1" points="49.39 44.59 50.07 38.11 56.52 38.76 77.01 71.29 49.39 44.59"/>
      </g>
    </g>
  </g>
</svg>