<?xml version="1.0" encoding="UTF-8"?>
<svg xmlns="http://www.w3.org/2000/svg" version="1.1" viewBox="0 0 120.17 120.17">
  <defs>
    <style>
      .cls-1 {
        fill: #fafafa;
      }
    </style>
  </defs>
  <!-- Generator: Adobe Illustrator 28.7.1, SVG Export Plug-In . SVG Version: 1.2.0 Build 142)  -->
  <g>
    <g id="Layer_1">
      <g>
        <path class="cls-1" d="M60.09,118.84C27.69,118.84,1.33,92.48,1.33,60.09S27.69,1.33,60.09,1.33s58.76,26.36,58.76,58.76-26.36,58.76-58.76,58.76ZM60.09,5.98C30.25,5.98,5.98,30.25,5.98,60.09s24.27,54.11,54.11,54.11,54.11-24.27,54.11-54.11S89.92,5.98,60.09,5.98Z"/>
        <g>
          <path class="cls-1" d="M82.51,57.71c3.36,1.35,6.55,2.63,9.74,3.91,1.38.55,2.75,1.11,4.13,1.64.56.22.81.58.81,1.19-.01,7.66-.01,15.32,0,22.99,0,.64-.26,1.01-.84,1.24-6.74,2.69-13.46,5.39-20.21,8.07-.34.14-.84.13-1.18,0-6.76-2.68-13.51-5.39-20.27-8.09-.61-.24-.76-.71-.76-1.3,0-2.42,0-4.85,0-7.27,0-.24,0-.48,0-.79-.21.06-.37.1-.51.16-2.73,1.09-5.46,2.2-8.2,3.26-.36.14-.88.15-1.24,0-6.64-2.63-13.27-5.3-19.9-7.95-1.02-.41-1.09-.51-1.09-1.58,0-7.49,0-14.97,0-22.46,0-1.07.06-1.16,1.03-1.55,6.15-2.47,12.29-4.94,18.45-7.38.51-.2.62-.46.62-.96-.02-2.64-.01-5.28,0-7.92,0-.99.1-1.16,1-1.52,6.59-2.65,13.18-5.3,19.78-7.91.4-.16.97-.15,1.36,0,6.63,2.62,13.23,5.29,19.86,7.92.67.27.93.69.93,1.39-.01,7.51,0,15.02,0,22.53,0,.71-.26,1.14-.94,1.38-.82.29-1.61.64-2.57,1.03ZM74.54,94.41c.02-.27.04-.44.04-.61,0-6.68,0-13.36.01-20.04,0-.43-.16-.61-.53-.75-5.89-2.35-11.77-4.71-17.66-7.06-.13-.05-.27-.07-.43-.11-.01.16-.03.27-.03.38,0,6.74,0,13.49-.01,20.23,0,.45.21.59.56.73,2.73,1.08,5.46,2.18,8.19,3.28,3.25,1.3,6.51,2.61,9.86,3.95ZM24.99,51.74c0,.34,0,.58,0,.81,0,6.5.01,13.01-.02,19.51,0,.68.21.98.82,1.22,5.23,2.07,10.44,4.17,15.66,6.26.68.27,1.37.54,2.09.82.01-.18.03-.28.03-.39,0-6.77,0-13.53.01-20.3,0-.46-.23-.59-.57-.73-4.98-1.98-9.95-3.97-14.92-5.96-1-.4-2.01-.8-3.11-1.24ZM63.54,62.31c0-.35,0-.61,0-.87,0-6.33,0-12.65,0-18.98,0-1.15,0-1.15-1.04-1.57-1.47-.59-2.94-1.17-4.5-1.79,0,1.4,0,2.7,0,4,0,1.31,0,2.62,0,3.93,0,.52-.26.89-.77,1-.5.12-.9-.09-1.14-.55-.13-.25-.24-.51-.36-.77-.5-1.05-1.01-2.1-1.53-3.19-.55.4-.99.8-1.51,1.06-.35.18-.83.28-1.2.19-.51-.12-.58-.63-.58-1.12,0-1.83,0-3.66,0-5.5,0-.63.18-1.4-.12-1.84-.3-.44-1.09-.55-1.68-.78-1.3-.53-2.61-1.04-3.98-1.59-.02.28-.04.47-.04.66,0,6.59,0,13.18-.02,19.76,0,.52.24.67.63.82,5.52,2.2,11.04,4.42,16.56,6.62.4.16.8.31,1.28.5ZM76.59,94.39c.26-.1.44-.16.62-.23,5.78-2.32,11.57-4.64,17.36-6.94.46-.18.62-.39.62-.89-.02-6.61-.01-13.23-.01-19.84,0-.21-.02-.42-.03-.71-1.64.66-3.21,1.3-4.79,1.9-.44.17-.59.38-.59.85.02,2.34,0,4.67.01,7.01,0,.51-.07.95-.59,1.21-.5.24-.88,0-1.26-.27-.47-.34-.94-.67-1.45-1.03-.62,1.3-1.21,2.51-1.77,3.74-.25.55-.59.93-1.24.81-.69-.13-.79-.65-.81-1.23-.06-2.38-.12-4.76-.18-7.13,0-.22-.02-.45-.04-.75-1.82.73-3.52,1.43-5.25,2.08-.46.18-.6.4-.6.9.02,5.91.01,11.83.01,17.74,0,.89,0,1.79,0,2.79ZM71.45,38.95c-1.89.76-3.58,1.46-5.29,2.1-.51.19-.63.45-.63.95.02,6.53.01,13.05.01,19.58,0,.21,0,.43,0,.7.23-.07.4-.11.56-.18,5.8-2.33,11.61-4.66,17.42-6.97.41-.16.49-.39.49-.78,0-6.59,0-13.18,0-19.78,0-.18-.03-.37-.05-.63-1.63.65-3.17,1.29-4.74,1.88-.44.17-.58.39-.57.86.02,2.29.01,4.58.01,6.88,0,.49-.01.97-.54,1.23-.51.25-.92.06-1.32-.25-.45-.34-.92-.65-1.43-1.01-.62,1.31-1.21,2.57-1.8,3.82-.24.51-.62.8-1.2.68-.59-.12-.78-.56-.79-1.12-.03-1.57-.08-3.14-.11-4.71-.02-1.04,0-2.08,0-3.25ZM57.55,62.14c-.25-.12-.4-.2-.55-.27-2.47-.99-4.97-1.89-7.38-3-1.23-.56-2.28-.55-3.43.04-.42.22-.61.41-.61.91.02,6.59.01,13.18.01,19.78,0,.23,0,.46,0,.75.23-.08.36-.11.47-.15,2.43-.97,4.85-1.96,7.28-2.91.47-.18.6-.42.6-.9-.02-3.93,0-7.86-.02-11.79,0-.71.26-1.14.93-1.39.87-.32,1.73-.69,2.69-1.07ZM57.66,64.28c6,2.4,11.82,4.73,17.65,7.06.13.05.31.08.43.03,1.59-.63,3.18-1.27,4.89-1.95-.25-.12-.38-.19-.51-.24-3.93-1.55-7.89-3.04-11.79-4.66-1.09-.45-2.01-.52-3.01.06-.51.3-1.02.26-1.56.02-1-.44-2.02-.83-3.03-1.22-.19-.07-.44-.13-.61-.07-.77.28-1.53.6-2.46.97ZM45.04,57.29l.02-.18c-.34-.14-.67-.31-1.03-.41-.72-.22-1-.69-.97-1.42.03-.67-.01-1.35.01-2.03.01-.36-.11-.54-.45-.67-3.53-1.37-7.05-2.77-10.58-4.13-.25-.1-.6-.08-.86.01-1.24.46-2.47.97-3.7,1.46-.22.09-.44.19-.7.31.1.09.12.1.14.11,5.78,2.32,11.55,4.64,17.33,6.94.22.09.51.01.77.01ZM93.45,64.28c-.29-.13-.44-.2-.59-.26-3.58-1.44-7.2-2.78-10.72-4.35-1.67-.74-3.12-.86-4.71.03-.8.45-1.7.71-2.68,1.11.28.12.41.19.54.24,4.13,1.63,8.27,3.24,12.4,4.89.59.23,1.09.26,1.67,0,1.3-.57,2.64-1.08,4.09-1.67ZM74.74,29.54c-1.06-.42-1.91-1.17-3.23-.63-5.95,2.43-11.94,4.74-17.93,7.08-.49.19-.7.42-.69.98.05,1.46.01,2.92.02,4.39,0,.16.03.31.04.39.61-.26,1.2-.75,1.73-.69.48.05.89.7,1.31,1.08,0-1.35.02-2.81,0-4.26-.01-.69.26-1.08.9-1.33,4.77-1.86,9.53-3.73,14.3-5.6,1.19-.47,2.37-.94,3.56-1.41ZM69.62,62.87c.34.14.56.24.78.33,4.35,1.71,8.7,3.43,13.07,5.12.69.27,1.01.69.99,1.42-.02.76.01,1.53.02,2.29,0,.81,0,1.61,0,2.44.53-.59.9-1.36,1.41-1.46.55-.11,1.23.41,1.89.67,0-1.59-.02-3.22.01-4.85.01-.51-.14-.76-.63-.95-4.93-1.91-9.84-3.86-14.77-5.79-.17-.07-.4-.15-.55-.09-.71.25-1.4.55-2.21.88ZM67.54,34.54c1.6.63,3.03,1.2,4.46,1.76,1.31.51,1.3.5,1.34,1.87.04,1.44.09,2.88.13,4.23.43-.46.8-1.21,1.32-1.32.53-.11,1.19.39,1.81.64-.02.03.02,0,.02-.03,0-1.7.02-3.4,0-5.1,0-.17-.22-.41-.4-.48-2-.81-4-1.59-6.01-2.36-.16-.06-.39-.08-.55-.03-.65.23-1.29.49-2.13.82ZM59.49,27.36c1.21.47,2.3.79,3.29,1.32,1.39.73,2.67.73,4.05-.02.9-.49,1.9-.78,3-1.21-1.79-.72-3.41-1.38-5.05-2.02-.16-.06-.39-.02-.56.04-1.52.59-3.03,1.21-4.72,1.89ZM56.8,32.58c-.11-.09-.15-.13-.2-.15-1.55-.62-3.11-1.24-4.67-1.84-.17-.07-.42-.02-.61.05-1.36.53-2.71,1.07-4.06,1.62-.1.04-.19.12-.33.23,1.63.65,3.18,1.28,4.73,1.9.13.05.31.08.43.03,1.56-.6,3.1-1.21,4.71-1.84ZM59.73,37.61c1.64.66,3.13,1.26,4.62,1.85.11.04.27.05.38,0,1.57-.62,3.14-1.26,4.86-1.95-1.66-.65-3.17-1.24-4.68-1.83-.09-.03-.22-.01-.31.02-1.58.61-3.15,1.23-4.87,1.9ZM72.67,32.53c1.23.49,2.32.84,3.35,1.35.96.47,1.8.46,2.76,0,1.08-.53,2.22-.92,3.49-1.43-1.59-.64-3.01-1.22-4.44-1.78-.13-.05-.31-.03-.44.02-1.52.59-3.03,1.19-4.72,1.86ZM34.38,47.17c2.97,1.17,5.79,2.28,8.7,3.42,0-.55-.02-.98,0-1.41.03-.37-.12-.53-.46-.67-1.85-.71-3.68-1.45-5.53-2.17-.15-.06-.35-.12-.49-.07-.71.26-1.4.55-2.23.89ZM62.01,30.52c-1.77-.7-3.36-1.33-4.96-1.95-.13-.05-.31-.08-.44-.04-.68.25-1.35.53-2.19.87,1.8.71,3.43,1.35,5.07,1.98.11.04.26.04.38,0,.67-.25,1.33-.53,2.14-.85ZM43.06,43.68c-1.2.48-2.3.93-3.58,1.44,1.3.5,2.41.93,3.58,1.39v-2.83Z"/>
          <path class="cls-1" d="M88.73,89.14c-.28-.31-.68-.58-.81-.95-.19-.51.11-.93.61-1.14,1.23-.5,2.46-.99,3.69-1.48.36-.15.72-.31,1.09-.43.58-.19,1.07.04,1.28.57.2.5.03,1.03-.5,1.25-1.64.69-3.3,1.33-4.96,1.99-.08.03-.17.04-.25.06-.05.04-.1.08-.14.12Z"/>
          <path class="cls-1" d="M92.68,82.72c.54.13.87.35,1,.84.12.49-.03.91-.47,1.11-.85.39-1.72.74-2.6,1.05-.46.16-.87-.07-1.09-.5-.22-.43-.21-.96.2-1.18.95-.5,1.97-.89,2.96-1.32Z"/>
          <path class="cls-1" d="M83.48,54.32c-.13.14-.33.53-.64.66-1.54.67-3.1,1.28-4.66,1.89-.62.24-1.15.01-1.36-.51-.23-.57,0-1.09.64-1.35,1.51-.62,3.02-1.23,4.54-1.81.81-.31,1.5.14,1.48,1.13Z"/>
          <path class="cls-1" d="M82.54,52.05c-.13.14-.34.52-.66.68-.71.36-1.47.64-2.22.92-.6.22-1.18-.03-1.36-.54-.2-.55.03-1.07.62-1.32.76-.32,1.52-.64,2.3-.91.7-.24,1.31.21,1.32,1.17Z"/>
        </g>
      </g>
    </g>
  </g>
</svg>