<?xml version="1.0" encoding="UTF-8"?>
<svg xmlns="http://www.w3.org/2000/svg" version="1.1" viewBox="0 0 120.71 120.71">
  <defs>
    <style>
      .cls-1 {
        fill: #fafafa;
      }

      .cls-2 {
        fill: #fafafa;
      }
    </style>
  </defs>
  <!-- Generator: Adobe Illustrator 28.7.1, SVG Export Plug-In . SVG Version: 1.2.0 Build 142)  -->
  <g>
    <g id="Layer_1">
      <g>
        <path class="cls-2" d="M60.35,119.11C27.96,119.11,1.6,92.75,1.6,60.35S27.96,1.6,60.35,1.6s58.76,26.36,58.76,58.76-26.36,58.76-58.76,58.76ZM60.35,6.25C30.52,6.25,6.25,30.52,6.25,60.35s24.27,54.11,54.11,54.11,54.11-24.27,54.11-54.11S90.19,6.25,60.35,6.25Z"/>
        <g>
          <path class="cls-1" d="M33.67,49.52c-1.24,12.36,1.31,22.66,12.33,29.58.59-.9,1.07-1.68,1.6-2.42.45-.63.96-1.22,1.84-2.34.7,1.18,1.29,1.94,1.63,2.81,1.59,4,3.22,7.99,4.59,12.06.29.86-.27,2.88-.71,2.96-5.42,1.04-10.89,1.83-17.32,2.83,1.04-2.44,1.68-3.94,2.47-5.81-9.49-6.39-14.31-15.39-13.25-27.12.49-5.38,2.94-9.8,6.81-12.55Z"/>
          <path class="cls-1" d="M99.49,61.87c-2.66.38-4.31.62-6.32.9-.79,10.74-5.59,19.18-15.41,24.31-5.14,2.69-10.35,3.08-15.63,1.16,10.91-5.18,18.88-12.32,19.39-25.43-1.76-.23-3.4-.45-5.41-.72.29-.92.33-1.77.75-2.31,2.87-3.66,5.77-7.31,8.8-10.84.5-.58,2.25-1.03,2.5-.75,3.69,4.25,7.21,8.64,11.33,13.68Z"/>
          <path class="cls-1" d="M40.78,25.8c.9,1.3,1.81,2.59,2.93,4.21,9.56-4.6,19.15-4.82,28.44.9,5.11,3.14,8.02,7.22,9.56,13.51-10.14-7.19-20.44-10.58-32.11-4.3.75,1.68,1.43,3.21,2.27,5.09-1.09.18-1.85.5-2.56.4-4.49-.64-8.98-1.3-13.43-2.16-.85-.16-2.29-1.53-2.16-1.89,1.82-5.33,3.85-10.58,5.84-15.85.4.03.81.06,1.21.09Z"/>
        </g>
      </g>
    </g>
  </g>
</svg>