<?xml version="1.0" encoding="UTF-8"?>
<svg xmlns="http://www.w3.org/2000/svg" version="1.1" viewBox="0 0 121.24 121.24">
  <defs>
    <style>
      .cls-1 {
        fill: #fafafa;
      }

      .cls-2 {
        fill: #fafafa;
      }
    </style>
  </defs>
  <!-- Generator: Adobe Illustrator 28.7.1, SVG Export Plug-In . SVG Version: 1.2.0 Build 142)  -->
  <g>
    <g id="Layer_1">
      <g>
        <path class="cls-2" d="M60.62,119.38C28.22,119.38,1.86,93.02,1.86,60.62S28.22,1.86,60.62,1.86s58.76,26.36,58.76,58.76-26.36,58.76-58.76,58.76ZM60.62,6.51C30.78,6.51,6.51,30.78,6.51,60.62s24.27,54.11,54.11,54.11,54.11-24.27,54.11-54.11S90.46,6.51,60.62,6.51Z"/>
        <g>
          <path class="cls-1" d="M24.05,94.99c-.8-.4-1.08-1.05-1.08-1.95.02-8.19.02-16.39,0-24.58,0-1.02.4-1.61,1.32-2,2.94-1.25,5.85-2.56,8.78-3.84,1.81-.79,3.25-.52,4.61.92.3.32.51.18.77.06,2.49-1.09,4.98-2.19,7.48-3.25,1.83-.78,3.76-1.2,5.75-1.2.75,0,.88-.27.88-.96,0-2.85-.14-5.7.07-8.54.56-7.6,6.13-14.12,13.56-15.84.75-.17.86-.49.92-1.19.23-2.43-.28-4.61-1.69-6.63-.7-1-1.2-2.13-1.79-3.2-.79-1.43-.51-2.16,1.02-2.77,1.5-.59,3.01-1.19,4.51-1.79.25,0,.5,0,.75,0,.98.4,1.96.81,2.94,1.21.16.06.31.13.5.05,1.1-.43,2.25-.73,3.31-1.26.25,0,.5,0,.75,0,1.54.7,3.09,1.39,4.63,2.1,1.26.58,1.52,1.39.82,2.59-1.09,1.88-2.18,3.76-3.29,5.63-.23.38-.33.76-.32,1.2.02,1.02.05,2.05-.01,3.07-.04.65.23.84.8.98,5.24,1.31,9.1,4.4,11.63,9.15,1.23,2.3,1.88,4.78,1.94,7.39.04,1.52.05,3.05.02,4.57-.02.93-.59,1.51-1.4,1.55-.83.04-1.45-.54-1.55-1.48-.03-.3-.02-.6-.03-.9-.01-1.2.01-2.4-.04-3.6-.31-7.58-6.2-13.68-13.75-14.14-3.01-.19-6.04-.27-9.05.17-5.38.79-10.35,5.28-11.7,10.55-.39,1.51-.57,3.04-.57,4.59,0,2.37,0,4.75,0,7.12,0,.34,0,.59.45.71,3.76.94,7.29,2.54,10.94,3.8,1.86.64,3.7,1.35,5.55,2.04,2.5.94,3.89,3.02,3.78,5.6-.1,2.31-1.73,4.31-4.02,4.94-1.15.32-2.27.23-3.39-.14-3.5-1.18-6.99-2.35-10.49-3.54-1.23-.42-1.68-1.43-1.07-2.36.42-.65,1.08-.8,2.07-.47,3.35,1.13,6.7,2.27,10.06,3.4.54.18,1.09.39,1.68.3,1.16-.17,2.01-1.03,2.16-2.17.15-1.15-.42-2.2-1.54-2.63-2-.78-4.02-1.49-6.03-2.23-2.64-.97-5.29-1.95-7.93-2.92-3.83-1.41-7.62-1.35-11.37.28-2.22.97-4.42,1.97-6.65,2.92-.47.2-.48.39-.29.82,1.59,3.55,3.16,7.11,4.7,10.68.22.52.45.58.95.38,4-1.57,7.91-1.28,11.74.6,2.17,1.07,4.34,2.15,6.5,3.23,3.28,1.64,6.61,1.77,9.97.29,6.33-2.78,12.65-5.57,18.96-8.37,1.58-.7,2.21-2.26,1.56-3.69-.66-1.44-2.24-1.98-3.8-1.26-2.97,1.36-5.94,2.73-8.9,4.11-.6.28-1.2.37-1.77-.04-.46-.33-.65-.8-.59-1.37.06-.59.4-.97.9-1.2,3.17-1.47,6.31-2.99,9.52-4.37,2.3-.98,4.87-.33,6.37,1.39,1.7,1.95,1.98,4.38.76,6.67-.6,1.12-1.52,1.91-2.67,2.42-6.59,2.91-13.17,5.87-19.8,8.69-3.92,1.67-7.86,1.34-11.67-.51-2.27-1.1-4.51-2.25-6.77-3.35-2.97-1.46-6.02-1.66-9.14-.5-.47.17-.63.36-.55.91.22,1.5-.66,2.93-2.23,3.73-2.53,1.3-5.08,2.57-7.62,3.86-3.52,1.78-7.04,3.55-10.56,5.33-.13.06-.24.16-.36.24h-.9ZM25.98,81.5c.15.01.17.02.19.02.81-.39,1.61-.78,2.43-1.16,1.01-.47,1.85-.25,2.25.57.4.81.04,1.61-.95,2.12-1.11.56-2.23,1.12-3.36,1.65-.41.19-.59.42-.58.9.03,1.57.03,3.15,0,4.72-.01.63.1.71.68.42,5.11-2.6,10.24-5.18,15.36-7.76.8-.4.87-.64.5-1.49-2.27-5.16-4.55-10.31-6.82-15.46-.39-.89-.62-.98-1.49-.6-2.54,1.11-5.06,2.24-7.61,3.32-.47.2-.62.43-.62.93.03,2.57.01,5.14.01,7.71,0,1.37,0,2.74,0,4.12ZM73.2,27.18c1.07,0,2.14,0,3.22,0,.33,0,.55-.09.73-.39.74-1.3,1.49-2.59,2.26-3.87.2-.33.09-.45-.2-.62-1.3-.76-2.62-1.17-4.03-.29-.14.09-.33.1-.49.18-1.06.55-2.11.55-3.13-.06-1.39-.85-2.75-.77-4.12.02-.02.01-.05.02-.07.03-.4.1-.51.28-.27.68.74,1.27,1.44,2.56,2.14,3.85.19.35.43.48.83.47,1.05-.03,2.09,0,3.14,0ZM73.22,33.25c.85,0,1.7,0,2.54,0,.32,0,.52-.07.51-.45-.02-.72-.02-1.45,0-2.17,0-.38-.18-.45-.51-.45-1.72,0-3.44.01-5.16,0-.39,0-.53.14-.51.53.02.65.03,1.3,0,1.94-.02.45.13.62.59.6.85-.03,1.69,0,2.54,0Z"/>
          <path class="cls-1" d="M72.85,53.07c-1.54.11-3.2-.52-4.18-2.42-1.26-2.43-.38-5.82,1.8-7.02.32-.18.68-.34,1.04-.38.59-.07.73-.38.66-.9-.02-.15,0-.3,0-.45.05-.92.66-1.58,1.47-1.59.82-.01,1.44.62,1.52,1.54,0,.07.02.15,0,.22-.17.77.17,1.03.92,1.19,1.78.4,2.98,1.97,3.02,3.72.02.91-.47,1.52-1.31,1.63-.75.1-1.39-.39-1.6-1.24-.28-1.15-.46-1.29-1.64-1.29-.67,0-1.35-.02-2.02.01-.77.03-1.19.42-1.29,1.18-.04.32-.05.65-.05.97.01,1.37.43,1.77,1.8,1.79.77.01,1.55-.04,2.32.07,2.13.28,3.64,1.84,3.78,3.99.1,1.45.15,2.91-.81,4.16-.65.85-1.47,1.43-2.52,1.63-.45.09-.66.24-.6.72.03.29.02.6-.03.9-.14.8-.74,1.29-1.51,1.27-.73-.02-1.46-.54-1.39-1.29.12-1.22-.46-1.52-1.48-1.81-1.49-.43-2.49-2.02-2.52-3.56-.01-.87.48-1.5,1.24-1.61.81-.12,1.46.36,1.67,1.24.28,1.13.49,1.29,1.64,1.3.65,0,1.3.03,1.95,0,.87-.05,1.34-.51,1.38-1.37.09-2.12.02-2.75-3.26-2.6Z"/>
          <path class="cls-1" d="M93.64,61.33c0,.83-.65,1.46-1.48,1.46-.82,0-1.47-.66-1.47-1.48,0-.8.68-1.48,1.48-1.47.81,0,1.47.68,1.46,1.49Z"/>
          <path class="cls-1" d="M36.22,79.17c.02.82-.62,1.5-1.43,1.52-.81.02-1.48-.63-1.5-1.45-.02-.82.61-1.49,1.43-1.51.82-.02,1.48.62,1.5,1.44Z"/>
        </g>
      </g>
    </g>
  </g>
</svg>