<?xml version="1.0" encoding="UTF-8"?>
<svg xmlns="http://www.w3.org/2000/svg" version="1.1" viewBox="0 0 121.24 121.24">
  <defs>
    <style>
      .cls-1 {
        fill: #fafafa;
      }

      .cls-2 {
        fill: #fafafa;
      }
    </style>
  </defs>
  <!-- Generator: Adobe Illustrator 28.7.1, SVG Export Plug-In . SVG Version: 1.2.0 Build 142)  -->
  <g>
    <g id="Layer_1">
      <g>
        <path class="cls-2" d="M60.62,119.38C28.22,119.38,1.86,93.02,1.86,60.62S28.22,1.86,60.62,1.86s58.76,26.36,58.76,58.76-26.36,58.76-58.76,58.76ZM60.62,6.51C30.78,6.51,6.51,30.78,6.51,60.62s24.27,54.11,54.11,54.11,54.11-24.27,54.11-54.11S90.46,6.51,60.62,6.51Z"/>
        <g>
          <path class="cls-1" d="M75.59,103.89c-.47-.37-.76-.85-.99-1.4-3.74-9.06-7.5-18.11-11.22-27.18-.29-.71-.62-.94-1.39-.91-6.97.31-13.14-1.8-18.5-6.26-.58-.48-1.12-1-1.64-1.55-.44-.47-.63-.46-.89.18-1.72,4.22-3.48,8.42-5.22,12.62-1.81,4.38-3.62,8.76-5.43,13.14-.09.21-.16.43-.29.77,2.09-.6,4.06-1.18,6.03-1.75.87-.25,1.75-.51,2.63-.75,1.02-.28,1.46-.11,1.98.83,1.34,2.41,2.67,4.83,4,7.25.09.16.19.31.29.47.29-.13.3-.4.39-.6,2.85-6.85,5.69-13.71,8.53-20.56.05-.12.1-.25.16-.37.44-1.01,1.08-1.38,1.84-1.07.77.31,1,1.05.59,2.05-.82,2.01-1.65,4.01-2.48,6.02-2.44,5.89-4.89,11.77-7.32,17.67-.23.56-.52,1.04-.99,1.4h-.97c-.47-.37-.77-.86-1.05-1.37-1.51-2.78-3.05-5.54-4.56-8.32-.28-.51-.53-.65-1.12-.47-3.15.95-6.32,1.84-9.48,2.77-.63.19-1.22.26-1.71-.27-.52-.56-.36-1.18-.1-1.8,4.11-9.92,8.22-19.84,12.34-29.76.26-.62.27-1.07-.15-1.67-3.14-4.47-4.76-9.48-4.71-14.93.08-8.65,3.55-15.73,10.37-21.08,4.11-3.23,8.82-5.01,14.04-5.41.16-.01.31-.07.46-.11,1.07,0,2.15,0,3.22,0,1.91.27,3.82.48,5.67,1.03,5.79,1.73,10.52,4.99,14.09,9.87,3.14,4.29,4.8,9.09,5.07,14.41.56,11.01-5.99,21.24-16.01,25.53-1.53.65-3.1,1.18-4.73,1.51-.39.08-.69.14-.45.72,3.42,8.21,6.81,16.42,10.22,24.63.03.07.09.12.2.27.66-1.19,1.29-2.33,1.92-3.46.79-1.43,1.57-2.87,2.37-4.29.56-1,.95-1.17,2.03-.86,2.83.8,5.65,1.62,8.61,2.47-.13-.36-.22-.61-.32-.87-3.08-7.45-6.16-14.89-9.25-22.34-.05-.12-.1-.25-.15-.37-.34-.95-.1-1.64.69-1.93.73-.27,1.38.06,1.76.97.85,2.02,1.68,4.06,2.52,6.09,2.7,6.51,5.39,13.01,8.09,19.52.17.42.36.83.23,1.32-.21.79-.91,1.13-1.86.86-3.16-.91-6.33-1.81-9.48-2.76-.71-.21-1.02-.07-1.36.57-1.48,2.79-3.04,5.55-4.54,8.33-.26.48-.59.87-.98,1.23h-.97ZM60.63,71.84c13.16-.02,23.87-10.78,23.84-23.95-.03-13.09-10.67-23.79-23.82-23.78-13.33,0-23.85,10.74-23.87,23.81-.02,13.19,10.72,23.94,23.86,23.92Z"/>
          <path class="cls-1" d="M60.6,69.2c-9.35-.11-17.28-5.91-20.22-14.78-2.99-9.01.81-19.49,8.96-24.4,7.29-4.4,14.78-4.51,22.12-.25,5.8,3.36,9.14,8.6,10.19,15.25.12.75-.29,1.4-.94,1.56-.77.19-1.41-.2-1.6-1.05-.33-1.46-.62-2.93-1.16-4.34-3.08-8.06-11.78-13.03-20.28-11.57-7.82,1.35-13.79,7.12-15.3,14.79-1.95,9.91,4.56,19.72,14.44,21.77,10.35,2.15,20.5-4.83,22.17-15.25.03-.21.08-.42.14-.63.24-.75.83-1.12,1.52-.98.7.15,1.13.81,1.01,1.59-.49,3.26-1.6,6.28-3.5,8.98-3.73,5.32-8.85,8.37-15.3,9.18-.74.09-1.5.08-2.25.12Z"/>
          <path class="cls-1" d="M50.69,59.66c.38-2.55.73-5.12,1.16-7.68.14-.84.03-1.43-.62-2.05-1.76-1.69-3.43-3.47-5.14-5.21-.46-.47-.91-.93-.65-1.68.25-.72.85-.88,1.51-.99,2.59-.42,5.17-.87,7.76-1.28.45-.07.7-.29.9-.68,1.18-2.31,2.39-4.61,3.59-6.92.3-.59.62-1.15,1.4-1.16.82-.01,1.14.58,1.46,1.19,1.18,2.28,2.38,4.56,3.55,6.85.23.46.54.66,1.04.74,2.62.42,5.23.86,7.84,1.3.62.1,1.12.34,1.33.99.2.64-.11,1.08-.52,1.5-1.8,1.84-3.58,3.7-5.42,5.5-.54.52-.63,1.02-.53,1.7.4,2.51.76,5.03,1.15,7.54.09.6.05,1.14-.45,1.53-.53.42-1.11.3-1.67.03-2.3-1.15-4.61-2.27-6.89-3.45-.64-.33-1.13-.32-1.77.02-2.3,1.2-4.64,2.34-6.97,3.48-1.1.53-2.1-.09-2.05-1.26ZM49.55,44.3l-.21.36c1.56,1.47,3.12,2.94,4.69,4.4.54.5.75,1.08.63,1.8-.15.9-.27,1.8-.41,2.7-.19,1.28-.37,2.55-.58,3.96,1.94-.96,3.76-1.81,5.52-2.76.97-.53,1.8-.56,2.79-.02,1.78.97,3.63,1.82,5.56,2.79-.32-2.13-.59-4.15-.93-6.15-.17-1-.02-1.79.76-2.53,1.49-1.42,2.89-2.93,4.39-4.47-.3-.08-.49-.16-.69-.19-1.93-.33-3.85-.67-5.79-.96-.76-.11-1.27-.47-1.61-1.15-.86-1.7-1.74-3.38-2.64-5.06-.13-.23-.15-.58-.53-.67-1,1.9-2,3.79-2.97,5.7-.36.71-.88,1.07-1.67,1.19-2.11.32-4.22.71-6.33,1.07Z"/>
        </g>
      </g>
    </g>
  </g>
</svg>