<?xml version="1.0" encoding="UTF-8"?>
<svg xmlns="http://www.w3.org/2000/svg" version="1.1" viewBox="0 0 120.97 120.97">
  <defs>
    <style>
      .cls-1 {
        fill: #fafafa;
      }

      .cls-2 {
        fill: #fafafa;
      }
    </style>
  </defs>
  <!-- Generator: Adobe Illustrator 28.7.1, SVG Export Plug-In . SVG Version: 1.2.0 Build 142)  -->
  <g>
    <g id="Layer_1">
      <g>
        <path class="cls-2" d="M60.49,119.24C28.09,119.24,1.73,92.88,1.73,60.49S28.09,1.73,60.49,1.73s58.76,26.36,58.76,58.76-26.36,58.76-58.76,58.76ZM60.49,6.38C30.65,6.38,6.38,30.65,6.38,60.49s24.27,54.11,54.11,54.11,54.11-24.27,54.11-54.11S90.32,6.38,60.49,6.38Z"/>
        <path class="cls-1" d="M25.24,84.37c-.07-2.07,1.25-3.79,2.87-5.4,4.48-4.44,8.82-9.04,13.43-13.34,2.44-2.27,3.35-3.98.16-6.29-9.58-6.95-11.01-18.38-15.28-28.23-1.21-2.8.57-3.01,2.53-2.15,9.83,4.32,21.24,5.8,28.18,15.41,1.79,2.47,3.36,2.59,5.58.13,3.88-4.3,8.06-8.34,12.26-12.34,3.83-3.65,6.84-3.56,10.71-.03,11.96,10.91,11.92,11.41.41,22.98-2.96,2.98-8.24,5.6-7.99,9.26.21,3.13,5.08,5.96,7.93,8.89,2.5,2.57,5.08,5.05,7.57,7.63,2.86,2.95,2.74,6.04.25,9.16-.21.27-.47.5-.7.74-9.04,9.63-10.76,10.01-19.33.7-3-3.26-6.48-6.09-9.36-9.45-2.23-2.6-3.59-2.01-5.62.13-4.57,4.83-9.34,9.47-14.06,14.16-3.35,3.33-6.82,3.56-10.29.17-2.44-2.38-4.85-4.8-7.23-7.24-1.22-1.25-2.06-2.71-2.03-4.89ZM38.6,78.48c-2.41.84-2.84-3.04-5.03-1.61-3.63,2.36-.96,4,.74,5.88,1.04,1.14,3.71,2.37,2.31,3.88-1.72,1.85-2.48-1.24-3.75-2.01-.71-.43-1.19-1.23-1.86-1.74-.64-.49-1.4-.82-2.11-1.22-.48.88-1.12,1.71-1.4,2.64-.38,1.3.47,2.3,1.33,3.14,12.45,12.29,9.19,12.21,20.38,1.2,3.51-3.45,9.45-7.08,9.52-10.71.08-4.56-6.54-7.55-9.94-11.51-.11-.13-.25-.23-.35-.37-1.36-1.8-2.4-1.16-4.17-.12-4,2.34-.25,5.19-.63,7.45-2.39,1.02-2.91-3.28-5.53-1.2-3.07,2.44,1.08,4.03.5,6.31ZM74.21,43.06c-2.3.42-2.92-3.23-5.6-1.41-3.57,2.43,2.09,4.23.2,6.51-.56-.16-1.15-.15-1.42-.44-1.52-1.58-2.97-2.23-4.61-.15-1.53,1.95.35,2.71,1.3,3.69,2.95,3.07,6,6.03,8.98,9.08,1.31,1.34,2.41,2.18,4.14.36,4.47-4.67,9.12-9.16,13.65-13.78,1.4-1.43,2.37-3.39.89-5.04-3.06-3.41-6.37-6.6-9.76-9.68-1.3-1.18-3.04-.62-4.08.69-1.08,1.38.54,2.03,1.2,2.88,1.25,1.63,3.53,2.55,3.81,5.5-3.17-.5-4.31-3.01-6.13-4.52-1.04-.87-1.83-1.47-2.94-.22-.88.98-2.26,1.77-.9,3.36.72.84,2.05,1.41,1.26,3.15ZM46.36,45.99c-1.02,0-2.25-.1-2.58,1.1-.64,2.32.1,4.24,1.86,5.97,8.85,8.74,17.68,17.49,26.37,26.38,1.9,1.94,3.03,1.94,4.9.05,1.74-1.76,2.35-2.89.28-4.91-9.02-8.81-17.9-17.75-26.81-26.67-1.14-1.14-2.37-1.92-4.02-1.92ZM36.04,34.17c-1.39,1.57-4.66,2.01-3.82,5.21.8,3.08,2.36,5.97,3.4,9,.67,1.96,2.11,1.89,3.65,1.89,1.74,0,1.75-1.23,1.77-2.45.06-2.91,1.61-4.32,4.44-4.4,1.27-.04,2.43-.08,2.36-1.82-.04-1.17.23-2.58-1.08-3.15-3.41-1.47-6.9-2.77-10.72-4.28ZM83.37,95.91c3.22-1.11,4.9-4.3,7.48-6.41,3.56-2.91,2.72-5.37-.15-8.43-3.26-3.49-4.51-.32-6.29,1.32-1.75,1.61-3.48,3.25-5.02,5.06-.97,1.14-3.57,1.93-2.14,3.91,1.42,1.98,3.03,4.18,6.11,4.55ZM50.64,41.11c-.24,1.48-.35,1.71-.29,1.8,8.75,11.56,20.07,20.65,29.94,31.14.51.54,1.2.66,1.74-.03.55-.7.08-1.28-.37-1.75-2.14-2.19-4.32-4.35-6.48-6.52-8.02-8.05-16.04-16.1-24.55-24.64ZM38.72,53.44c10.41,10.28,20.55,20.3,30.71,30.3.57.56,1.27,1.5,2.09.75,1.5-1.37-.26-2.13-.93-2.8-8.97-9.09-18-18.12-27.05-27.13-1.05-1.05-2.2-2.2-4.82-1.11ZM85.98,77.1c-.82-1.85-1.77-1.74-2.83-.68-3,3-5.99,6.02-8.97,9.04-.69.7-1.65,1.43-.44,2.44,1.15.96,1.82-.06,2.52-.74,2.78-2.74,5.56-5.49,8.31-8.26.56-.57.99-1.26,1.4-1.79Z"/>
      </g>
    </g>
  </g>
</svg>