<?xml version="1.0" encoding="UTF-8"?>
<svg xmlns="http://www.w3.org/2000/svg" version="1.1" viewBox="0 0 1920.01 473.37">
  <defs>
    <style>
      .cls-1 {
        fill: #197d8e;
      }
    </style>
  </defs>
  <!-- Generator: Adobe Illustrator 28.7.1, SVG Export Plug-In . SVG Version: 1.2.0 Build 142)  -->
  <g>
    <g id="Layer_1">
      <path class="cls-1" d="M1919.87,389.41c-42.61,36.51-118.23,47.6-187.17,46.06-68.94-1.54-137.13-13.11-206.05-11.3-89.05,2.33-174.78,26.88-263.9,26.72-103.61-.18-204.6-33.8-307.36-24.87-45.8,3.98-89.04,16.26-134.11,23.05-72.56,10.92-149.86,7.15-219.32-10.7-33.55-8.62-66.75-20.64-102.66-20.19-28.67.36-55.58,8.69-83.2,13.89-45.04,8.48-93.48,8.61-138.61.37-29.9-5.46-58.65-14.54-89.52-16.32-36.63-2.12-73.04,6.23-109.78,5.38C41.47,420.65-.18,404.81,0,380.06V18.18s1920.01,0,1920.01,0l-.14,371.23Z"/>
    </g>
  </g>
</svg>