<?xml version="1.0" encoding="UTF-8"?>
<svg xmlns="http://www.w3.org/2000/svg" version="1.1" xmlns:xlink="http://www.w3.org/1999/xlink" viewBox="0 0 167.93 163.75">
  <defs>
    <style>
      .cls-1 {
        fill: url(#radial-gradient-11);
      }

      .cls-1, .cls-2, .cls-3, .cls-4, .cls-5, .cls-6, .cls-7, .cls-8, .cls-9, .cls-10, .cls-11, .cls-12, .cls-13, .cls-14 {
        stroke: #000;
        stroke-miterlimit: 10;
      }

      .cls-1, .cls-3, .cls-5, .cls-7, .cls-8, .cls-9, .cls-10, .cls-11, .cls-12, .cls-13, .cls-14 {
        stroke-width: .38px;
      }

      .cls-2 {
        fill: url(#radial-gradient-12);
      }

      .cls-2, .cls-4, .cls-6 {
        stroke-width: .82px;
      }

      .cls-3 {
        fill: url(#radial-gradient-8);
      }

      .cls-4 {
        fill: url(#radial-gradient-13);
      }

      .cls-5 {
        fill: url(#radial-gradient-10);
      }

      .cls-6 {
        fill: url(#radial-gradient-14);
      }

      .cls-7 {
        fill: url(#radial-gradient-5);
      }

      .cls-8 {
        fill: url(#radial-gradient-3);
      }

      .cls-9 {
        fill: url(#radial-gradient-4);
      }

      .cls-10 {
        fill: url(#radial-gradient);
      }

      .cls-11 {
        fill: url(#radial-gradient-6);
      }

      .cls-12 {
        fill: url(#radial-gradient-2);
      }

      .cls-13 {
        fill: url(#radial-gradient-7);
      }

      .cls-14 {
        fill: url(#radial-gradient-9);
      }
    </style>
    <radialGradient id="radial-gradient" cx="44.86" cy="133.24" fx="44.86" fy="133.24" r="3.6" gradientUnits="userSpaceOnUse">
      <stop offset="0" stop-color="#ee6e0f"/>
      <stop offset=".21" stop-color="#ed6a12"/>
      <stop offset=".42" stop-color="#ec5e1e"/>
      <stop offset=".63" stop-color="#ea4a32"/>
      <stop offset=".84" stop-color="#e72e4d"/>
      <stop offset="1" stop-color="#e41369"/>
    </radialGradient>
    <radialGradient id="radial-gradient-2" cx="44.86" cy="133.24" fx="44.86" fy="133.24" r="3.88" xlink:href="#radial-gradient"/>
    <radialGradient id="radial-gradient-3" cx="14.04" cy="62.36" fx="14.04" fy="62.36" r="6.06" xlink:href="#radial-gradient"/>
    <radialGradient id="radial-gradient-4" cx="14.04" cy="62.36" fx="14.04" fy="62.36" r="6.54" xlink:href="#radial-gradient"/>
    <radialGradient id="radial-gradient-5" cx="155.54" cy="62.74" fx="155.54" fy="62.74" r="6.06" xlink:href="#radial-gradient"/>
    <radialGradient id="radial-gradient-6" cx="155.54" cy="62.74" fx="155.54" fy="62.74" r="6.54" xlink:href="#radial-gradient"/>
    <radialGradient id="radial-gradient-7" cx="138.39" cy="100.86" fx="138.39" fy="100.86" r="1.97" xlink:href="#radial-gradient"/>
    <radialGradient id="radial-gradient-8" cx="113.49" cy="68.48" fx="113.49" fy="68.48" r="2.24" xlink:href="#radial-gradient"/>
    <radialGradient id="radial-gradient-9" cx="59.85" cy="8.76" fx="59.85" fy="8.76" r="2.78" xlink:href="#radial-gradient"/>
    <radialGradient id="radial-gradient-10" cx="8.05" cy="109.33" fx="8.05" fy="109.33" r="2.14" xlink:href="#radial-gradient"/>
    <radialGradient id="radial-gradient-11" cx="154.35" cy="16.06" fx="154.35" fy="16.06" r="1.19" xlink:href="#radial-gradient"/>
    <radialGradient id="radial-gradient-12" cx="4147.83" cy="982.53" fx="4147.83" fy="982.53" r="26.96" gradientTransform="translate(4311.29 989.02) rotate(-155.23) scale(1.01 -1)" xlink:href="#radial-gradient"/>
    <radialGradient id="radial-gradient-13" cx="4171.31" cy="862.25" fx="4171.31" fy="862.25" r="21.41" gradientTransform="translate(4246.47 994.56) rotate(-155.97) scale(1.01 -1)" xlink:href="#radial-gradient"/>
    <radialGradient id="radial-gradient-14" cx="4089.86" cy="3232.66" fx="4089.86" fy="3232.66" r="18.78" gradientTransform="translate(3865.89 3643.2) rotate(-98.23) scale(1.01 -.99)" xlink:href="#radial-gradient"/>
  </defs>
  <!-- Generator: Adobe Illustrator 28.7.1, SVG Export Plug-In . SVG Version: 1.2.0 Build 142)  -->
  <g>
    <g id="Layer_1">
      <g>
        <g>
          <path class="cls-10" d="M41.3,133.08s3.96.15,3.84-3.48c0,0-.28,3.29,3.27,3.34,0,0-3.15.29-3.37,3.92,0,0-.08-3.85-3.75-3.79Z"/>
          <path class="cls-12" d="M41.3,133.37c.13,0,.27,0,.4-.01.34-.03.69-.08,1.02-.17.42-.11.83-.27,1.2-.5.43-.27.79-.63,1.05-1.06.32-.54.45-1.16.46-1.77,0-.08,0-.17,0-.25,0-.15-.13-.29-.29-.29-.17,0-.27.13-.29.29,0,.11,0,.22,0,.33.01.29.06.59.13.87.09.36.24.72.45,1.03.26.38.6.71,1.01.93.52.29,1.12.42,1.72.46.08,0,.17,0,.25,0v-.58c-.13.01-.26.04-.39.07-.29.07-.57.17-.83.29-.36.16-.7.38-1,.64-.36.32-.67.71-.89,1.13-.3.57-.45,1.19-.52,1.82,0,.08-.02.17-.02.26h.58c0-.15-.02-.31-.05-.46-.04-.31-.11-.63-.21-.93-.14-.41-.32-.82-.57-1.17-.3-.42-.68-.78-1.13-1.04-.55-.31-1.18-.45-1.82-.47-.09,0-.17,0-.26,0-.15,0-.29.13-.29.29,0,.15.13.29.29.29.24,0,.47,0,.7.04-.03,0-.05,0-.08-.01.31.04.62.12.91.25l-.07-.03c.17.07.34.16.5.27.04.02.07.05.11.08.02.01.03.02.05.04,0,0,0,0,.01.01.02.02-.05-.04-.04-.03,0,0,.02.01.03.02.07.05.13.11.2.17.06.06.12.12.18.18.03.03.05.06.08.09.01.02.03.03.04.05,0,0,.01.01.02.02,0,.01.04.05,0,0-.04-.05,0,0,.01.02.01.02.03.04.04.05.02.03.05.06.07.1.04.07.09.13.13.2.09.15.16.3.23.46l-.03-.07c.14.34.25.7.31,1.06.01.08.03.15.04.23,0-.03,0-.05-.01-.08.02.12.03.24.03.36,0,0,0,.01,0,.02,0,.15.13.29.29.29.16,0,.28-.13.29-.29,0-.15.02-.3.04-.45,0,.03,0,.05-.01.08.06-.41.16-.81.32-1.2l-.03.07c.09-.21.2-.41.32-.61.03-.04.06-.09.09-.13.01-.02.03-.04.05-.06,0-.01.02-.02.02-.03.03-.04-.05.06-.01.02.06-.08.13-.16.2-.23.13-.14.27-.27.42-.38.04-.03-.05.04-.03.02,0,0,.02-.01.03-.02.02-.01.03-.03.05-.04.04-.03.07-.05.11-.08.07-.05.14-.09.21-.13.15-.09.3-.16.46-.23-.02,0-.05.02-.07.03.27-.11.54-.2.83-.25.04,0,.08-.01.12-.02-.03,0-.05,0-.08.01.01,0,.03,0,.04,0,.08,0,.15-.03.2-.08.05-.05.09-.13.08-.2,0-.16-.13-.29-.29-.29-.2,0-.4-.02-.59-.04.03,0,.05,0,.08.01-.32-.04-.64-.12-.95-.25.02,0,.05.02.07.03-.15-.06-.29-.14-.42-.22-.06-.04-.12-.08-.18-.13-.03-.03.06.05.03.02,0,0-.01-.01-.02-.02-.01-.01-.03-.02-.04-.03-.03-.02-.06-.05-.08-.07-.1-.09-.19-.19-.28-.29,0-.01-.02-.02-.03-.04-.03-.03.05.07.03.03,0,0,0-.01-.01-.02-.02-.03-.04-.05-.06-.08-.04-.05-.07-.11-.1-.16-.07-.12-.13-.24-.18-.37,0,.02.02.05.03.07-.1-.23-.17-.48-.21-.72-.01-.06-.02-.12-.03-.18,0,.03,0,.05.01.08-.03-.21-.04-.42-.03-.63,0-.01,0-.03,0-.04h-.58c0,.24,0,.48-.03.72,0-.03,0-.05.01-.08-.04.28-.11.56-.22.82,0-.02.02-.05.03-.07-.06.15-.14.3-.23.44-.02.03-.04.07-.07.1-.01.02-.02.03-.03.05,0,0-.01.01-.02.02-.02.03.05-.07.02-.02-.05.06-.1.12-.15.17-.1.11-.21.21-.33.3-.03.03.03-.02.03-.03,0,0-.01.01-.02.02-.01.01-.03.02-.05.03-.03.02-.06.04-.09.06-.06.04-.12.08-.18.11-.14.08-.28.15-.42.21.02,0,.05-.02.07-.03-.32.13-.65.23-.98.29-.08.01-.16.03-.25.04.03,0,.05,0,.08-.01-.23.03-.45.05-.68.05-.01,0-.03,0-.04,0-.15,0-.29.14-.29.29,0,.16.13.28.29.29Z"/>
        </g>
        <g>
          <path class="cls-8" d="M8.05,62.11s6.68.26,6.47-5.86c0,0-.48,5.54,5.52,5.63,0,0-5.31.49-5.67,6.61,0,0-.13-6.5-6.31-6.38Z"/>
          <path class="cls-9" d="M8.05,62.59c.22,0,.45,0,.68-.02.58-.04,1.16-.13,1.72-.28.7-.18,1.4-.46,2.01-.85.72-.45,1.34-1.06,1.77-1.79.53-.9.76-1.95.78-2.99,0-.14,0-.28,0-.43,0-.25-.22-.5-.49-.49-.28.01-.46.21-.49.49-.02.19-.01.37,0,.56.02.49.09.99.22,1.47.16.61.41,1.21.77,1.73.44.65,1.02,1.19,1.7,1.57.88.49,1.89.71,2.89.77.14,0,.28.01.43.02v-.97c-.22.02-.44.06-.66.11-.48.11-.95.28-1.41.49-.61.28-1.18.65-1.69,1.09-.61.53-1.13,1.19-1.5,1.91-.5.96-.76,2-.87,3.07-.01.14-.03.29-.03.43h.97c0-.26-.04-.52-.08-.78-.07-.53-.19-1.05-.36-1.56-.23-.7-.54-1.38-.97-1.98-.5-.71-1.14-1.32-1.9-1.75-.93-.52-1.99-.76-3.06-.8-.15,0-.29,0-.44,0-.25,0-.5.22-.49.49.01.26.21.49.49.49.4,0,.79.01,1.19.06-.04,0-.09-.01-.13-.02.53.07,1.05.21,1.54.41-.04-.02-.08-.03-.12-.05.29.12.57.27.83.45.06.04.13.09.19.13.03.02.06.04.08.06,0,0,.02.01.02.02.04.03-.08-.07-.07-.05.01.01.03.02.05.04.11.09.23.19.33.29.1.1.2.2.3.31.05.05.09.1.13.15.02.03.04.05.07.08,0,.01.02.02.03.03.01.02.07.09,0,0-.07-.09,0,.01.02.03.02.03.04.06.06.09.04.05.08.11.11.16.07.11.15.23.21.34.14.25.27.51.38.77-.02-.04-.03-.08-.05-.12.24.57.41,1.18.53,1.79.02.13.04.26.06.39,0-.04-.01-.09-.02-.13.03.2.05.4.06.6,0,.01,0,.02,0,.03,0,.25.22.5.48.49.28-.01.47-.21.49-.49.02-.25.04-.5.07-.75,0,.04-.01.09-.02.13.09-.69.26-1.37.53-2.01-.02.04-.03.08-.05.12.15-.36.33-.7.54-1.02.05-.08.1-.15.15-.22.02-.03.05-.07.08-.1.01-.02.03-.03.04-.05.05-.07-.09.11-.02.03.11-.13.22-.26.33-.39.22-.23.45-.45.7-.64.07-.06-.09.07-.04.03.01-.01.03-.02.04-.03.03-.02.06-.04.09-.06.06-.04.12-.09.19-.13.12-.08.24-.15.36-.23.25-.15.51-.28.78-.39-.04.02-.08.03-.12.05.45-.19.91-.33,1.39-.42.06-.01.13-.02.19-.03-.04,0-.09.01-.13.02.02,0,.05,0,.07,0,.13-.01.25-.05.34-.14.08-.08.15-.22.14-.34-.01-.27-.21-.48-.49-.49-.33,0-.67-.03-1-.07.04,0,.09.01.13.02-.55-.07-1.09-.21-1.59-.42.04.02.08.03.12.05-.25-.1-.49-.23-.71-.37-.11-.07-.21-.14-.31-.21-.06-.04.11.08.05.04-.01,0-.02-.02-.03-.03-.02-.02-.05-.04-.07-.06-.05-.04-.09-.08-.14-.12-.17-.15-.32-.32-.46-.49-.02-.02-.03-.04-.05-.06-.04-.05.08.11.04.06,0-.01-.02-.02-.02-.03-.03-.05-.07-.09-.1-.14-.06-.09-.12-.18-.17-.27-.12-.2-.22-.4-.31-.62.02.04.03.08.05.12-.16-.39-.28-.8-.36-1.22-.02-.1-.04-.21-.05-.31,0,.04.01.09.02.13-.05-.35-.07-.71-.05-1.07,0-.02,0-.04,0-.07h-.97c.01.41,0,.81-.06,1.22,0-.04.01-.09.02-.13-.06.48-.18.94-.37,1.39.02-.04.03-.08.05-.12-.11.26-.24.5-.39.74-.04.06-.07.11-.11.16-.02.03-.04.05-.06.08,0,.01-.02.02-.03.03-.03.04.09-.11.03-.04-.08.1-.16.2-.25.29-.17.18-.36.35-.55.5-.06.05.05-.04.06-.04-.01,0-.03.02-.04.03-.03.02-.05.04-.08.06-.05.04-.1.07-.15.1-.1.07-.2.13-.3.19-.23.13-.47.25-.71.35.04-.02.08-.03.12-.05-.53.22-1.09.38-1.66.49-.14.03-.28.05-.42.07.04,0,.09-.01.13-.02-.38.05-.77.08-1.15.08-.02,0-.05,0-.07,0-.25,0-.5.23-.49.49.01.27.21.47.49.49Z"/>
        </g>
        <g>
          <path class="cls-7" d="M149.55,62.48s6.68.26,6.47-5.86c0,0-.48,5.54,5.52,5.63,0,0-5.31.49-5.67,6.61,0,0-.13-6.5-6.31-6.38Z"/>
          <path class="cls-11" d="M149.55,62.97c.22,0,.45,0,.68-.02.58-.04,1.16-.13,1.72-.28.7-.18,1.4-.46,2.01-.85.72-.45,1.34-1.06,1.77-1.79.53-.9.76-1.95.78-2.99,0-.14,0-.28,0-.43,0-.25-.22-.5-.49-.49-.28.01-.46.21-.49.49-.02.19-.01.37,0,.56.02.49.09.99.22,1.47.16.61.41,1.21.77,1.73.44.65,1.02,1.19,1.7,1.57.88.49,1.89.71,2.89.77.14,0,.28.01.43.02v-.97c-.22.02-.44.06-.66.11-.48.11-.95.28-1.41.49-.61.28-1.18.65-1.69,1.09-.61.53-1.13,1.19-1.5,1.91-.5.96-.76,2-.87,3.07-.01.14-.03.29-.03.43h.97c0-.26-.04-.52-.08-.78-.07-.53-.19-1.05-.36-1.56-.23-.7-.54-1.38-.97-1.98-.5-.71-1.14-1.32-1.9-1.75-.93-.52-1.99-.76-3.06-.8-.15,0-.29,0-.44,0-.25,0-.5.22-.49.49.01.26.21.49.49.49.4,0,.79.01,1.19.06-.04,0-.09-.01-.13-.02.53.07,1.05.21,1.54.41-.04-.02-.08-.03-.12-.05.29.12.57.27.83.45.06.04.13.09.19.13.03.02.06.04.08.06,0,0,.02.01.02.02.04.03-.08-.07-.07-.05.01.01.03.02.05.04.11.09.23.19.33.29.1.1.2.2.3.31.05.05.09.1.13.15.02.03.04.05.07.08,0,.01.02.02.03.03.01.02.07.09,0,0-.07-.09,0,.01.02.03.02.03.04.06.06.09.04.05.08.11.11.16.07.11.15.23.21.34.14.25.27.51.38.77-.02-.04-.03-.08-.05-.12.24.57.41,1.18.53,1.79.02.13.04.26.06.39,0-.04-.01-.09-.02-.13.03.2.05.4.06.6,0,.01,0,.02,0,.03,0,.25.22.5.48.49.28-.01.47-.21.49-.49.02-.25.04-.5.07-.75,0,.04-.01.09-.02.13.09-.69.26-1.37.53-2.01-.02.04-.03.08-.05.12.15-.36.33-.7.54-1.02.05-.08.1-.15.15-.22.02-.03.05-.07.08-.1.01-.02.03-.03.04-.05.05-.07-.09.11-.02.03.11-.13.22-.26.33-.39.22-.23.45-.45.7-.64.07-.06-.09.07-.04.03.01-.01.03-.02.04-.03.03-.02.06-.04.09-.06.06-.04.12-.09.19-.13.12-.08.24-.15.36-.23.25-.15.51-.28.78-.39-.04.02-.08.03-.12.05.45-.19.91-.33,1.39-.42.06-.01.13-.02.19-.03-.04,0-.09.01-.13.02.02,0,.05,0,.07,0,.13-.01.25-.05.34-.14.08-.08.15-.22.14-.34-.01-.27-.21-.48-.49-.49-.33,0-.67-.03-1-.07.04,0,.09.01.13.02-.55-.07-1.09-.21-1.59-.42.04.02.08.03.12.05-.25-.1-.49-.23-.71-.37-.11-.07-.21-.14-.31-.21-.06-.04.11.08.05.04-.01,0-.02-.02-.03-.03-.02-.02-.05-.04-.07-.06-.05-.04-.09-.08-.14-.12-.17-.15-.32-.32-.46-.49-.02-.02-.03-.04-.05-.06-.04-.05.08.11.04.06,0-.01-.02-.02-.02-.03-.03-.05-.07-.09-.1-.14-.06-.09-.12-.18-.17-.27-.12-.2-.22-.4-.31-.62.02.04.03.08.05.12-.16-.39-.28-.8-.36-1.22-.02-.1-.04-.21-.05-.31,0,.04.01.09.02.13-.05-.35-.07-.71-.05-1.07,0-.02,0-.04,0-.07h-.97c.01.41,0,.81-.06,1.22,0-.04.01-.09.02-.13-.06.48-.18.94-.37,1.39.02-.04.03-.08.05-.12-.11.26-.24.5-.39.74-.04.06-.07.11-.11.16-.02.03-.04.05-.06.08,0,.01-.02.02-.03.03-.03.04.09-.11.03-.04-.08.1-.16.2-.25.29-.17.18-.36.35-.55.5-.06.05.05-.04.06-.04-.01,0-.03.02-.04.03-.03.02-.05.04-.08.06-.05.04-.1.07-.15.1-.1.07-.2.13-.3.19-.23.13-.47.25-.71.35.04-.02.08-.03.12-.05-.53.22-1.09.38-1.66.49-.14.03-.28.05-.42.07.04,0,.09-.01.13-.02-.38.05-.77.08-1.15.08-.02,0-.05,0-.07,0-.25,0-.5.23-.49.49.01.27.21.47.49.49Z"/>
        </g>
        <circle class="cls-13" cx="138.39" cy="100.86" r="1.97"/>
        <circle class="cls-3" cx="113.49" cy="68.48" r="2.24"/>
        <circle class="cls-14" cx="59.85" cy="8.76" r="2.78"/>
        <circle class="cls-5" cx="8.05" cy="109.33" r="2.14"/>
        <circle class="cls-1" cx="154.35" cy="16.06" r="1.19"/>
        <path class="cls-2" d="M96.44,157.73c.12.03.25.04.37.03,2.61-.11,5.17-.4,7.63-.85,18.6-4.74,28.94-16.17,32.46-25.31,2.02-5.24,1.98-10.04-.09-13.16-1.87-2.82-4.22-4.56-6.98-5.16-6.65-1.44-13.96,4.18-18.03,8.02.61-6.61.35-18.24-8.67-20.19-1.54-.33-3.28-.35-5.16-.05-4.73.76-9.1,5.54-11.68,12.79-3.86,10.84-3.72,28.72,9.36,43.41.21.24.49.4.79.46Z"/>
        <path class="cls-4" d="M70.88,96.73c.24-.09.46-.26.61-.48,1.14-1.63,2.16-3.33,3.03-5.05,5.76-13.58,3.55-25.3-.43-31.76-2.3-3.74-5.31-6.01-8.25-6.23-1.59-.12-3.04.06-4.29.54-6.07,2.3-6.29,10.61-5.82,15.68-3.37-3.02-9.1-7.08-14.04-5.2-1.89.72-3.46,2.22-4.67,4.48-1.77,3.29-.87,8.25,2.41,13.28,4.87,7.48,15.93,15.85,31.07,14.82.13,0,.26-.04.38-.08Z"/>
        <path class="cls-6" d="M135.85,18.25c.76.57,1.44,1.4,2,2.47.96,1.81.63,4.76-.91,7.88-3.05,6.23-11.12,13.66-24.61,15.87-1.52.14-3.15.19-4.8.13-7.87-11.2-6.78-23.65-3.41-30.99,2.04-4.43,5.08-7.42,7.75-7.6,1.9-.13,3.42.22,4.52,1.04,4.01,3.02,2.26,12.39,1.25,15.74-.17.58.06,1.22.58,1.52.51.32,1.17.24,1.6-.19,2.87-2.83,11.34-9.41,16.03-5.87Z"/>
      </g>
    </g>
  </g>
</svg>