<?xml version="1.0" encoding="UTF-8"?>
<svg xmlns="http://www.w3.org/2000/svg" version="1.1" xmlns:xlink="http://www.w3.org/1999/xlink" viewBox="0 0 236.94 258.04">
  <defs>
    <style>
      .cls-1 {
        fill: url(#radial-gradient-4);
      }

      .cls-1, .cls-2, .cls-3, .cls-4, .cls-5, .cls-6, .cls-7, .cls-8, .cls-9, .cls-10, .cls-11, .cls-12, .cls-13, .cls-14, .cls-15, .cls-16, .cls-17, .cls-18, .cls-19, .cls-20, .cls-21, .cls-22, .cls-23, .cls-24, .cls-25, .cls-26, .cls-27, .cls-28, .cls-29, .cls-30, .cls-31, .cls-32, .cls-33, .cls-34, .cls-35, .cls-36, .cls-37, .cls-38 {
        stroke: #000;
        stroke-miterlimit: 10;
      }

      .cls-1, .cls-2, .cls-4, .cls-5, .cls-7, .cls-8, .cls-9, .cls-10, .cls-12, .cls-13, .cls-15, .cls-16, .cls-17, .cls-18, .cls-19, .cls-20, .cls-21, .cls-22, .cls-23, .cls-26, .cls-27, .cls-28, .cls-29, .cls-30, .cls-31, .cls-32, .cls-33, .cls-34, .cls-35, .cls-36, .cls-37 {
        stroke-width: .19px;
      }

      .cls-2 {
        fill: url(#radial-gradient-19);
      }

      .cls-39 {
        fill: #fefcfd;
      }

      .cls-3 {
        fill: url(#radial-gradient-36);
      }

      .cls-3, .cls-6, .cls-11 {
        stroke-width: .41px;
      }

      .cls-4 {
        fill: url(#radial-gradient-35);
      }

      .cls-5 {
        fill: url(#radial-gradient-33);
      }

      .cls-6 {
        fill: url(#radial-gradient-38);
      }

      .cls-7 {
        fill: url(#radial-gradient-21);
      }

      .cls-8 {
        fill: url(#radial-gradient-15);
      }

      .cls-9 {
        fill: url(#radial-gradient-23);
      }

      .cls-10 {
        fill: url(#radial-gradient-24);
      }

      .cls-11 {
        fill: url(#radial-gradient-37);
      }

      .cls-12 {
        fill: url(#radial-gradient-3);
      }

      .cls-13 {
        fill: url(#radial-gradient-6);
      }

      .cls-14 {
        fill: url(#radial-gradient-2);
      }

      .cls-14, .cls-38 {
        stroke-width: .38px;
      }

      .cls-15 {
        fill: url(#radial-gradient-8);
      }

      .cls-16 {
        fill: url(#radial-gradient-14);
      }

      .cls-17 {
        fill: url(#radial-gradient-17);
      }

      .cls-18 {
        fill: url(#radial-gradient-29);
      }

      .cls-19 {
        fill: url(#radial-gradient-34);
      }

      .cls-20 {
        fill: url(#radial-gradient-30);
      }

      .cls-21 {
        fill: url(#radial-gradient-22);
      }

      .cls-22 {
        fill: url(#radial-gradient-25);
      }

      .cls-23 {
        fill: url(#radial-gradient-11);
      }

      .cls-24 {
        fill: url(#radial-gradient-9);
      }

      .cls-24, .cls-25 {
        stroke-width: .76px;
      }

      .cls-25 {
        fill: url(#radial-gradient);
      }

      .cls-26 {
        fill: url(#radial-gradient-27);
      }

      .cls-27 {
        fill: url(#radial-gradient-12);
      }

      .cls-28 {
        fill: url(#radial-gradient-16);
      }

      .cls-29 {
        fill: url(#radial-gradient-20);
      }

      .cls-30 {
        fill: url(#radial-gradient-26);
      }

      .cls-31 {
        fill: url(#radial-gradient-31);
      }

      .cls-32 {
        fill: url(#radial-gradient-5);
      }

      .cls-33 {
        fill: url(#radial-gradient-32);
      }

      .cls-34 {
        fill: url(#radial-gradient-13);
      }

      .cls-35 {
        fill: url(#radial-gradient-28);
      }

      .cls-36 {
        fill: url(#radial-gradient-7);
      }

      .cls-37 {
        fill: url(#radial-gradient-18);
      }

      .cls-38 {
        fill: url(#radial-gradient-10);
      }
    </style>
    <radialGradient id="radial-gradient" cx="79.78" cy="143.76" fx="79.78" fy="143.76" r="48.36" gradientUnits="userSpaceOnUse">
      <stop offset="0" stop-color="#0f8d82"/>
      <stop offset="1" stop-color="#5e2f81"/>
    </radialGradient>
    <radialGradient id="radial-gradient-2" cx="83.22" cy="119.96" fx="83.22" fy="119.96" r="23.32" gradientUnits="userSpaceOnUse">
      <stop offset=".25" stop-color="#cfdc2a"/>
      <stop offset="1" stop-color="#1ea6c4"/>
    </radialGradient>
    <radialGradient id="radial-gradient-3" cx="79.46" cy="133.23" fx="79.46" fy="133.23" r=".51" xlink:href="#radial-gradient"/>
    <radialGradient id="radial-gradient-4" cx="70.25" cy="127.99" fx="70.25" fy="127.99" r=".91" xlink:href="#radial-gradient"/>
    <radialGradient id="radial-gradient-5" cx="65.63" cy="118" fx="65.63" fy="118" r=".51" xlink:href="#radial-gradient"/>
    <radialGradient id="radial-gradient-6" cx="95.72" cy="118.83" fx="95.72" fy="118.83" r=".83" xlink:href="#radial-gradient"/>
    <radialGradient id="radial-gradient-7" cx="76.12" cy="111.18" fx="76.12" fy="111.18" r=".91" xlink:href="#radial-gradient"/>
    <radialGradient id="radial-gradient-8" cx="84.32" cy="127.33" fx="84.32" fy="127.33" r="1.25" xlink:href="#radial-gradient"/>
    <radialGradient id="radial-gradient-9" cx="147.39" cy="160.18" fx="147.39" fy="160.18" r="46.33" xlink:href="#radial-gradient"/>
    <radialGradient id="radial-gradient-10" cx="146.12" cy="136.25" fx="146.12" fy="136.25" r="23.19" xlink:href="#radial-gradient-2"/>
    <radialGradient id="radial-gradient-11" cx="149.16" cy="147.94" fx="149.16" fy="147.94" r=".51" xlink:href="#radial-gradient"/>
    <radialGradient id="radial-gradient-12" cx="132.76" cy="132.78" fx="132.76" fy="132.78" r=".83" xlink:href="#radial-gradient"/>
    <radialGradient id="radial-gradient-13" cx="143.44" cy="142.17" fx="143.44" fy="142.17" r="1.25" xlink:href="#radial-gradient"/>
    <radialGradient id="radial-gradient-14" cx="136.72" cy="151.32" fx="136.72" fy="151.32" r="1.79" gradientUnits="userSpaceOnUse">
      <stop offset="0" stop-color="#ee6e0f"/>
      <stop offset=".21" stop-color="#ed6a12"/>
      <stop offset=".42" stop-color="#ec5e1e"/>
      <stop offset=".63" stop-color="#ea4a32"/>
      <stop offset=".84" stop-color="#e72e4d"/>
      <stop offset="1" stop-color="#e41369"/>
    </radialGradient>
    <radialGradient id="radial-gradient-15" cx="136.72" cy="151.32" fx="136.72" fy="151.32" r="1.93" xlink:href="#radial-gradient-14"/>
    <radialGradient id="radial-gradient-16" cx="77.04" cy="151.43" fx="77.04" fy="151.43" r="2.42" xlink:href="#radial-gradient-14"/>
    <radialGradient id="radial-gradient-17" cx="77.04" cy="151.43" fx="77.04" fy="151.43" r="2.71" xlink:href="#radial-gradient-14"/>
    <radialGradient id="radial-gradient-18" cx="47.76" cy="108.26" fx="47.76" fy="108.26" r="3.01" xlink:href="#radial-gradient-14"/>
    <radialGradient id="radial-gradient-19" cx="47.76" cy="108.26" fx="47.76" fy="108.26" r="3.25" xlink:href="#radial-gradient-14"/>
    <radialGradient id="radial-gradient-20" cx="167.42" cy="94.95" fx="167.42" fy="94.95" r="3.01" xlink:href="#radial-gradient-14"/>
    <radialGradient id="radial-gradient-21" cx="167.42" cy="94.95" fx="167.42" fy="94.95" r="3.25" xlink:href="#radial-gradient-14"/>
    <radialGradient id="radial-gradient-22" cx="128.86" cy="113.2" fx="128.86" fy="113.2" r="1.21" xlink:href="#radial-gradient-14"/>
    <radialGradient id="radial-gradient-23" cx="144.69" cy="108.16" fx="144.69" fy="108.16" r=".98" xlink:href="#radial-gradient-14"/>
    <radialGradient id="radial-gradient-24" cx="127.86" cy="102.02" fx="127.86" fy="102.02" r="1" xlink:href="#radial-gradient-14"/>
    <radialGradient id="radial-gradient-25" cx="160.91" cy="103.02" fx="160.91" fy="103.02" r="1.12" xlink:href="#radial-gradient-14"/>
    <radialGradient id="radial-gradient-26" cx="101.2" cy="80.96" fx="101.2" fy="80.96" r="1.5" xlink:href="#radial-gradient-14"/>
    <radialGradient id="radial-gradient-27" cx="112.13" cy="100.21" fx="112.13" fy="100.21" r="1.81" xlink:href="#radial-gradient-14"/>
    <radialGradient id="radial-gradient-28" cx="180.01" cy="103.4" fx="180.01" fy="103.4" r="1.38" xlink:href="#radial-gradient-14"/>
    <radialGradient id="radial-gradient-29" cx="83.22" cy="93.53" fx="83.22" fy="93.53" r="1.42" xlink:href="#radial-gradient-14"/>
    <radialGradient id="radial-gradient-30" cx="148.45" cy="75.42" fx="148.45" fy="75.42" r="1.06" xlink:href="#radial-gradient-14"/>
    <radialGradient id="radial-gradient-31" cx="152" cy="91.52" fx="152" fy="91.52" r=".59" xlink:href="#radial-gradient-14"/>
    <radialGradient id="radial-gradient-32" cx="94.89" cy="95.42" fx="94.89" fy="95.42" r=".63" xlink:href="#radial-gradient-14"/>
    <radialGradient id="radial-gradient-33" cx="106.6" cy="137.96" fx="106.6" fy="137.96" r="4.44" xlink:href="#radial-gradient-14"/>
    <radialGradient id="radial-gradient-34" cx="98.19" cy="134.2" fx="98.19" fy="134.2" r="4.66" xlink:href="#radial-gradient-14"/>
    <radialGradient id="radial-gradient-35" cx="115.38" cy="135.3" fx="115.38" fy="135.3" r="4.66" xlink:href="#radial-gradient-14"/>
    <radialGradient id="radial-gradient-36" cx="1843.63" cy="423.99" fx="1843.63" fy="423.99" r="13.4" gradientTransform="translate(1998.7 481) rotate(-155.23) scale(1.01 -1)" xlink:href="#radial-gradient-14"/>
    <radialGradient id="radial-gradient-37" cx="1815.71" cy="342.15" fx="1815.71" fy="342.15" r="10.64" gradientTransform="translate(1917.74 498.69) rotate(-155.97) scale(1.01 -1)" xlink:href="#radial-gradient-14"/>
    <radialGradient id="radial-gradient-38" cx="3230.81" cy="2507.3" fx="3230.81" fy="2507.3" r="9.33" gradientTransform="translate(3048.86 2917.99) rotate(-98.23) scale(1.01 -.99)" xlink:href="#radial-gradient-14"/>
  </defs>
  <!-- Generator: Adobe Illustrator 28.7.1, SVG Export Plug-In . SVG Version: 1.2.0 Build 142)  -->
  <g>
    <g id="Layer_1">
      <g>
        <circle class="cls-39" cx="118.28" cy="134.41" r="106.62"/>
        <g>
          <path class="cls-25" d="M66.95,183.6l17.8,14.03-47.09-10.83,22.14-4.85c.59-.13,1.28-.16,2.01-.11l9.37-40.76-27.75-51.2,78.47,18.04-47.33,33.94-9.37,40.76c.67.27,1.28.6,1.76.98Z"/>
          <path class="cls-14" d="M112.15,111.18l-31.97,23.24c-3.61,2.59-8.68,1.43-10.8-2.48l-15.09-27.82s7.74,3.4,13.55,1.77c0,0,7.38-1.79,14.21,1.5,0,0,8.09,2.88,15.67,2.21,0,0,10.26-.74,14.44,1.58Z"/>
          <path class="cls-12" d="M79.95,133.34c-.06.27-.34.44-.61.38-.27-.06-.44-.34-.38-.61.06-.27.34-.44.61-.38s.44.34.38.61Z"/>
          <circle class="cls-1" cx="70.25" cy="127.99" r=".91"/>
          <path class="cls-32" d="M66.13,118.11c-.06.27-.34.44-.61.38-.27-.06-.44-.34-.38-.61s.34-.44.61-.38c.27.06.44.34.38.61Z"/>
          <circle class="cls-13" cx="95.72" cy="118.83" r=".83"/>
          <circle class="cls-36" cx="76.12" cy="111.18" r=".91"/>
          <circle class="cls-15" cx="84.32" cy="127.33" r="1.25"/>
          <path class="cls-24" d="M156.2,199.66l-18.88,12.55,47.81-6.98-21.68-6.62c-.58-.18-1.26-.26-1.99-.27l-6.04-41.38,31.8-48.79-79.67,11.64,44.43,37.66,6.04,41.38c-.69.22-1.32.5-1.83.83Z"/>
          <path class="cls-38" d="M117,123.82l29.99,25.75c3.39,2.87,8.53,2.12,10.96-1.6l17.29-26.51s-7.99,2.77-13.65.67c0,0-7.21-2.38-14.28.35,0,0-8.29,2.21-15.8.94,0,0-10.17-1.57-14.52.4Z"/>
          <path class="cls-23" d="M148.66,148.01c.04.28.3.47.58.43.28-.04.47-.3.43-.58-.04-.28-.3-.47-.58-.43-.28.04-.47.3-.43.58Z"/>
          <circle class="cls-27" cx="132.76" cy="132.78" r=".83"/>
          <circle class="cls-34" cx="143.44" cy="142.17" r="1.25"/>
          <g>
            <path class="cls-16" d="M134.95,151.25s1.97.08,1.91-1.73c0,0-.14,1.63,1.63,1.66,0,0-1.57.14-1.67,1.95,0,0-.04-1.92-1.86-1.88Z"/>
            <path class="cls-8" d="M134.95,151.39c.07,0,.13,0,.2,0,.17-.01.34-.04.51-.08.21-.05.41-.14.59-.25.21-.13.39-.31.52-.53.16-.27.22-.58.23-.88,0-.04,0-.08,0-.13,0-.07-.06-.15-.14-.14-.08,0-.14.06-.14.14,0,.05,0,.11,0,.16,0,.15.03.29.06.43.05.18.12.36.23.51.13.19.3.35.5.46.26.15.56.21.85.23.04,0,.08,0,.13,0v-.29c-.07,0-.13.02-.19.03-.14.03-.28.08-.41.14-.18.08-.35.19-.5.32-.18.16-.33.35-.44.56-.15.28-.22.59-.26.91,0,.04,0,.08-.01.13h.29c0-.08-.01-.15-.02-.23-.02-.16-.06-.31-.11-.46-.07-.21-.16-.41-.29-.58-.15-.21-.34-.39-.56-.52-.28-.15-.59-.22-.9-.24-.04,0-.09,0-.13,0-.07,0-.15.06-.14.14,0,.08.06.14.14.14.12,0,.23,0,.35.02-.01,0-.03,0-.04,0,.16.02.31.06.45.12h-.03c.09.02.17.07.25.12.02.01.04.03.06.04,0,0,.02.01.02.02,0,0,0,0,0,0,.01,0-.02-.02-.02-.02,0,0,0,0,.01.01.03.03.07.06.1.09.03.03.06.06.09.09.01.01.03.03.04.05,0,0,.01.02.02.02,0,0,0,0,0,0,0,0,.02.03,0,0-.02-.03,0,0,0,0,0,0,.01.02.02.03.01.02.02.03.03.05.02.03.04.07.06.1.04.07.08.15.11.23v-.03c.06.17.11.35.14.53,0,.04.01.08.02.11,0-.01,0-.03,0-.04,0,.06.01.12.02.18,0,0,0,0,0,.01,0,.07.06.15.14.14.08,0,.14-.06.14-.14,0-.07.01-.15.02-.22,0,.01,0,.03,0,.04.03-.2.08-.4.16-.59v.03c.03-.1.08-.21.14-.3.01-.02.03-.04.04-.07,0-.01.01-.02.02-.03,0,0,0-.01.01-.02.01-.02-.03.03,0,0,.03-.04.06-.08.1-.11.06-.07.13-.13.21-.19.02-.02-.03.02-.01,0,0,0,0,0,.01,0,0,0,.02-.01.03-.02.02-.01.04-.03.05-.04.03-.02.07-.05.11-.07.07-.04.15-.08.23-.11-.01,0-.02,0-.03.01.13-.06.27-.1.41-.12.02,0,.04,0,.06,0-.01,0-.03,0-.04,0,0,0,.01,0,.02,0,.04,0,.07-.01.1-.04.02-.02.04-.07.04-.1,0-.08-.06-.14-.14-.14-.1,0-.2,0-.3-.02.01,0,.03,0,.04,0-.16-.02-.32-.06-.47-.12.01,0,.02,0,.03.01-.07-.03-.14-.07-.21-.11-.03-.02-.06-.04-.09-.06-.02-.01.03.03.02.01,0,0,0,0-.01,0,0,0-.01-.01-.02-.02-.01-.01-.03-.02-.04-.04-.05-.04-.09-.09-.14-.14,0,0,0-.01-.01-.02-.01-.02.02.03.01.02,0,0,0,0,0,0-.01-.01-.02-.03-.03-.04-.02-.03-.04-.05-.05-.08-.03-.06-.07-.12-.09-.18,0,.01,0,.02.01.03-.05-.12-.08-.24-.11-.36,0-.03-.01-.06-.01-.09,0,.01,0,.03,0,.04-.01-.1-.02-.21-.02-.31,0,0,0-.01,0-.02h-.29c0,.12,0,.24-.02.36,0-.01,0-.03,0-.04-.02.14-.05.28-.11.41,0-.01,0-.02.01-.03-.03.08-.07.15-.11.22-.01.02-.02.03-.03.05,0,0-.01.02-.02.02,0,0,0,0,0,.01,0,.01.03-.03,0-.01-.02.03-.05.06-.07.09-.05.05-.1.1-.16.15-.02.01.01-.01.02-.01,0,0,0,0-.01,0,0,0-.01.01-.02.02-.01.01-.03.02-.04.03-.03.02-.06.04-.09.06-.07.04-.14.07-.21.1.01,0,.02,0,.03-.01-.16.07-.32.11-.49.14-.04,0-.08.01-.12.02.01,0,.03,0,.04,0-.11.02-.23.02-.34.02,0,0-.01,0-.02,0-.07,0-.15.07-.14.14,0,.08.06.14.14.14Z"/>
          </g>
          <g>
            <path class="cls-28" d="M74.65,151.33s2.66.1,2.58-2.34c0,0-.19,2.21,2.2,2.25,0,0-2.12.2-2.26,2.64,0,0-.05-2.59-2.52-2.54Z"/>
            <path class="cls-17" d="M74.65,151.62c.09,0,.18,0,.27,0,.24-.02.48-.05.71-.12.29-.08.57-.19.83-.35.3-.19.56-.44.74-.75.22-.37.31-.8.32-1.23,0-.06,0-.12,0-.18,0-.15-.13-.3-.29-.29-.17,0-.28.13-.29.29,0,.07,0,.15,0,.23,0,.21.04.41.09.61.15.57.51,1.08,1.03,1.37.42.23.9.32,1.37.33v-.58c-.31.03-.6.13-.88.25-.55.25-1.02.69-1.3,1.23-.23.45-.34.94-.37,1.44h.58c0-.11-.02-.22-.03-.34-.03-.21-.08-.42-.14-.62-.09-.29-.22-.57-.4-.81-.21-.3-.47-.55-.79-.73-.39-.22-.82-.32-1.26-.33-.06,0-.12,0-.18,0-.15,0-.3.13-.29.29,0,.16.13.29.29.29.16,0,.32,0,.47.03-.03,0-.05,0-.08-.01.21.03.42.08.61.16-.02,0-.05-.02-.07-.03.12.05.23.11.34.18.02.02.05.03.07.05.01,0,.02.02.04.03.05.04-.07-.05-.01,0,.04.04.09.07.13.11.04.04.08.08.12.12.02.02.04.04.05.06.02.02.09.11.01.02.06.09.12.17.18.26.06.1.11.2.15.31,0-.02-.02-.05-.03-.07.1.23.16.47.21.71,0,.05.02.1.02.16v-.08c0,.08.01.17.01.25,0,.15.13.3.29.29.17,0,.28-.13.29-.29,0-.1.02-.2.03-.29v.08c.03-.28.1-.55.21-.81,0,.02-.02.05-.03.07.06-.14.13-.28.22-.41.02-.03.04-.05.06-.08.01-.02.02-.03.03-.05,0,0,0-.01.01-.02.03-.04-.05.07-.02.02.04-.05.08-.1.13-.15.09-.09.18-.18.28-.25.03-.03-.07.05-.03.03,0,0,0,0,.01,0,.01,0,.03-.02.04-.03.02-.02.05-.03.07-.05.05-.03.09-.06.14-.09.1-.06.2-.11.31-.15-.02,0-.05.02-.07.03.18-.08.37-.13.56-.17.03,0,.05,0,.08-.01h-.08s.02,0,.03,0c.08,0,.15-.03.21-.08.05-.05.09-.13.08-.21,0-.16-.13-.29-.29-.29-.13,0-.27-.01-.4-.03h.08c-.22-.02-.43-.07-.63-.15.02,0,.05.02.07.03-.1-.04-.19-.09-.28-.15-.04-.03-.08-.06-.13-.09-.03-.02.07.05.02.02,0,0-.02-.01-.03-.02-.02-.01-.03-.03-.05-.04-.07-.06-.13-.13-.19-.2,0,0-.01-.02-.02-.03-.02-.02.05.07.02.03-.01-.02-.03-.04-.04-.06-.02-.03-.05-.07-.07-.11-.05-.08-.09-.16-.12-.25,0,.02.02.05.03.07-.08-.2-.13-.4-.16-.61,0,.03,0,.05.01.08-.02-.14-.03-.28-.02-.42,0,0,0-.02,0-.03h-.58c0,.16,0,.32-.02.48,0-.03,0-.05.01-.08-.03.19-.07.38-.15.56,0-.02.02-.05.03-.07-.04.1-.1.2-.16.29-.01.02-.03.04-.04.06,0,.01-.02.02-.02.03-.03.05.05-.06.01-.02-.03.04-.07.08-.1.12-.07.07-.14.14-.22.2.08-.06.03-.02,0,0-.02.01-.04.03-.06.04-.04.03-.08.05-.12.08-.09.05-.18.1-.28.14.02,0,.05-.02.07-.03-.26.11-.54.18-.83.22.03,0,.05,0,.08-.01-.15.02-.3.03-.46.03,0,0-.02,0-.03,0-.15,0-.3.14-.29.29,0,.16.13.28.29.29Z"/>
          </g>
          <g>
            <path class="cls-37" d="M44.78,108.13s3.32.13,3.22-2.91c0,0-.24,2.75,2.74,2.8,0,0-2.64.24-2.82,3.29,0,0-.06-3.23-3.14-3.17Z"/>
            <path class="cls-2" d="M44.78,108.37c.11,0,.22,0,.34-.01.29-.02.57-.07.85-.14.35-.09.69-.23,1-.42.36-.22.66-.52.88-.89.26-.45.38-.97.39-1.49,0-.07,0-.14,0-.21,0-.13-.11-.25-.24-.24-.14,0-.23.11-.24.24,0,.09,0,.19,0,.28.01.25.05.49.11.73.08.3.2.6.38.86.22.32.51.59.85.78.44.24.94.35,1.44.38.07,0,.14,0,.21,0v-.48c-.11.01-.22.03-.33.06-.24.06-.47.14-.7.24-.3.14-.59.32-.84.54-.3.26-.56.59-.75.95-.25.48-.38.99-.43,1.53,0,.07-.01.14-.02.21h.48c0-.13-.02-.26-.04-.39-.04-.26-.1-.52-.18-.78-.11-.35-.27-.68-.48-.98-.25-.35-.57-.66-.95-.87-.46-.26-.99-.38-1.52-.4-.07,0-.14,0-.22,0-.13,0-.25.11-.24.24,0,.13.11.24.24.24.2,0,.39,0,.59.03-.02,0-.04,0-.06,0,.26.04.52.1.77.21-.02,0-.04-.02-.06-.02.14.06.28.14.41.22.03.02.06.04.09.06.01.01.03.02.04.03,0,0,0,0,.01,0,.02.01-.04-.03-.03-.03,0,0,.02.01.02.02.06.05.11.09.17.14.05.05.1.1.15.15.02.03.04.05.07.08.01.01.02.03.03.04,0,0,0,.01.01.02,0,0,.03.04,0,0-.03-.04,0,0,.01.02.01.01.02.03.03.04.02.03.04.05.06.08.04.06.07.11.11.17.07.12.13.25.19.39,0-.02-.02-.04-.02-.06.12.29.21.59.26.89.01.06.02.13.03.19,0-.02,0-.04,0-.06.01.1.02.2.03.3,0,0,0,.01,0,.02,0,.13.11.25.24.24.14,0,.23-.11.24-.24,0-.12.02-.25.04-.37,0,.02,0,.04,0,.06.05-.34.13-.68.27-1,0,.02-.02.04-.02.06.07-.18.16-.35.27-.51.02-.04.05-.07.08-.11.01-.02.02-.03.04-.05,0,0,.01-.02.02-.03.02-.03-.04.05-.01.01.05-.07.11-.13.16-.19.11-.12.23-.22.35-.32.04-.03-.04.03-.02.02,0,0,.01-.01.02-.02.01-.01.03-.02.04-.03.03-.02.06-.04.09-.06.06-.04.12-.08.18-.11.12-.07.25-.14.39-.19-.02,0-.04.02-.06.02.22-.09.45-.17.69-.21.03,0,.06-.01.1-.02-.02,0-.04,0-.06,0,.01,0,.02,0,.04,0,.07,0,.12-.02.17-.07.04-.04.07-.11.07-.17,0-.13-.11-.24-.24-.24-.17,0-.33-.01-.5-.04.02,0,.04,0,.06,0-.27-.04-.54-.1-.79-.21.02,0,.04.02.06.02-.12-.05-.24-.11-.35-.19-.05-.03-.1-.07-.15-.11-.03-.02.05.04.03.02,0,0-.01,0-.02-.01-.01,0-.02-.02-.03-.03-.02-.02-.05-.04-.07-.06-.08-.08-.16-.16-.23-.24,0-.01-.02-.02-.02-.03-.02-.03.04.06.02.03,0,0,0-.01-.01-.02-.02-.02-.03-.05-.05-.07-.03-.04-.06-.09-.09-.13-.06-.1-.11-.2-.15-.31,0,.02.02.04.02.06-.08-.19-.14-.4-.18-.6,0-.05-.02-.1-.02-.15,0,.02,0,.04,0,.06-.02-.18-.04-.35-.03-.53,0-.01,0-.02,0-.03h-.48c0,.2,0,.4-.03.6,0-.02,0-.04,0-.06-.03.24-.09.47-.18.69,0-.02.02-.04.02-.06-.05.13-.12.25-.19.37-.02.03-.04.05-.06.08,0,.01-.02.03-.03.04,0,0,0,.01-.01.02-.02.02.04-.06.02-.02-.04.05-.08.1-.12.15-.08.09-.18.17-.27.25-.03.02.02-.02.03-.02,0,0-.01,0-.02.01-.01,0-.03.02-.04.03-.02.02-.05.03-.07.05-.05.03-.1.06-.15.09-.11.07-.23.12-.35.18.02,0,.04-.02.06-.02-.26.11-.54.19-.82.24-.07.01-.14.02-.21.03.02,0,.04,0,.06,0-.19.03-.38.04-.57.04-.01,0-.02,0-.04,0-.13,0-.25.11-.24.24,0,.13.11.24.24.24Z"/>
          </g>
          <g>
            <path class="cls-29" d="M164.44,94.82s3.32.13,3.22-2.91c0,0-.24,2.75,2.74,2.8,0,0-2.64.24-2.82,3.29,0,0-.06-3.23-3.14-3.17Z"/>
            <path class="cls-7" d="M164.44,95.06c.11,0,.22,0,.34-.01.29-.02.57-.07.85-.14.35-.09.69-.23,1-.42.36-.22.66-.52.88-.89.26-.45.38-.97.39-1.49,0-.07,0-.14,0-.21,0-.13-.11-.25-.24-.24-.14,0-.23.11-.24.24,0,.09,0,.19,0,.28.01.25.05.49.11.73.08.3.2.6.38.86.22.32.51.59.85.78.44.24.94.35,1.44.38.07,0,.14,0,.21,0v-.48c-.11.01-.22.03-.33.06-.24.06-.47.14-.7.24-.3.14-.59.32-.84.54-.3.26-.56.59-.75.95-.25.48-.38.99-.43,1.53,0,.07-.01.14-.02.21h.48c0-.13-.02-.26-.04-.39-.04-.26-.1-.52-.18-.78-.11-.35-.27-.68-.48-.98-.25-.35-.57-.66-.95-.87-.46-.26-.99-.38-1.52-.4-.07,0-.14,0-.22,0-.13,0-.25.11-.24.24,0,.13.11.24.24.24.2,0,.39,0,.59.03-.02,0-.04,0-.06,0,.26.04.52.1.77.21-.02,0-.04-.02-.06-.02.14.06.28.14.41.22.03.02.06.04.09.06.01.01.03.02.04.03,0,0,0,0,.01,0,.02.01-.04-.03-.03-.03,0,0,.02.01.02.02.06.05.11.09.17.14.05.05.1.1.15.15.02.03.04.05.07.08.01.01.02.03.03.04,0,0,0,.01.01.02,0,0,.03.04,0,0-.03-.04,0,0,.01.02.01.01.02.03.03.04.02.03.04.05.06.08.04.06.07.11.11.17.07.12.13.25.19.39,0-.02-.02-.04-.02-.06.12.29.21.59.26.89.01.06.02.13.03.19,0-.02,0-.04,0-.06.01.1.02.2.03.3,0,0,0,.01,0,.02,0,.13.11.25.24.24.14,0,.23-.11.24-.24,0-.12.02-.25.04-.37,0,.02,0,.04,0,.06.05-.34.13-.68.27-1,0,.02-.02.04-.02.06.07-.18.16-.35.27-.51.02-.04.05-.07.08-.11.01-.02.02-.03.04-.05,0,0,.01-.02.02-.03.02-.03-.04.05-.01.01.05-.07.11-.13.16-.19.11-.12.23-.22.35-.32.04-.03-.04.03-.02.02,0,0,.01-.01.02-.02.01-.01.03-.02.04-.03.03-.02.06-.04.09-.06.06-.04.12-.08.18-.11.12-.07.25-.14.39-.19-.02,0-.04.02-.06.02.22-.09.45-.17.69-.21.03,0,.06-.01.1-.02-.02,0-.04,0-.06,0,.01,0,.02,0,.04,0,.07,0,.12-.02.17-.07.04-.04.07-.11.07-.17,0-.13-.11-.24-.24-.24-.17,0-.33-.01-.5-.04.02,0,.04,0,.06,0-.27-.04-.54-.1-.79-.21.02,0,.04.02.06.02-.12-.05-.24-.11-.35-.19-.05-.03-.1-.07-.15-.11-.03-.02.05.04.03.02,0,0-.01,0-.02-.01-.01,0-.02-.02-.03-.03-.02-.02-.05-.04-.07-.06-.08-.08-.16-.16-.23-.24,0-.01-.02-.02-.02-.03-.02-.03.04.06.02.03,0,0,0-.01-.01-.02-.02-.02-.03-.05-.05-.07-.03-.04-.06-.09-.09-.13-.06-.1-.11-.2-.15-.31,0,.02.02.04.02.06-.08-.19-.14-.4-.18-.6,0-.05-.02-.1-.02-.15,0,.02,0,.04,0,.06-.02-.18-.04-.35-.03-.53,0-.01,0-.02,0-.03h-.48c0,.2,0,.4-.03.6,0-.02,0-.04,0-.06-.03.24-.09.47-.18.69,0-.02.02-.04.02-.06-.05.13-.12.25-.19.37-.02.03-.04.05-.06.08,0,.01-.02.03-.03.04,0,0,0,.01-.01.02-.02.02.04-.06.02-.02-.04.05-.08.1-.12.15-.08.09-.18.17-.27.25-.03.02.02-.02.03-.02,0,0-.01,0-.02.01-.01,0-.03.02-.04.03-.02.02-.05.03-.07.05-.05.03-.1.06-.15.09-.11.07-.23.12-.35.18.02,0,.04-.02.06-.02-.26.11-.54.19-.82.24-.07.01-.14.02-.21.03.02,0,.04,0,.06,0-.19.03-.38.04-.57.04-.01,0-.02,0-.04,0-.13,0-.25.11-.24.24,0,.13.11.24.24.24Z"/>
          </g>
          <circle class="cls-21" cx="128.86" cy="113.2" r="1.21"/>
          <circle class="cls-9" cx="144.69" cy="108.16" r=".98"/>
          <circle class="cls-10" cx="127.86" cy="102.02" r="1"/>
          <circle class="cls-22" cx="160.91" cy="103.02" r="1.12"/>
          <circle class="cls-30" cx="101.2" cy="80.96" r="1.5"/>
          <circle class="cls-26" cx="112.13" cy="100.21" r="1.81"/>
          <circle class="cls-35" cx="180.01" cy="103.4" r="1.38"/>
          <circle class="cls-18" cx="83.22" cy="93.53" r="1.42"/>
          <circle class="cls-20" cx="148.45" cy="75.42" r="1.06"/>
          <circle class="cls-31" cx="152" cy="91.52" r=".59"/>
          <circle class="cls-33" cx="94.89" cy="95.42" r=".63"/>
          <path class="cls-5" d="M105.77,133c-.07,1.12-.14,2.23-.21,3.35-.11,1.79-.23,3.57-.34,5.36-.03.41-.05.82-.08,1.22-.04.6.56,1.17,1.15,1.15.65-.03,1.11-.5,1.15-1.15.07-1.12.14-2.23.21-3.35.11-1.79.23-3.57.34-5.36.03-.41.05-.82.08-1.22.04-.6-.56-1.17-1.15-1.15-.65.03-1.11.5-1.15,1.15h0Z"/>
          <path class="cls-19" d="M101.11,130.11c-.84.74-1.68,1.48-2.52,2.21-1.34,1.18-2.69,2.36-4.03,3.55-.31.27-.61.54-.92.81-.45.4-.44,1.22,0,1.62.48.44,1.14.42,1.62,0,.84-.74,1.68-1.48,2.52-2.21,1.34-1.18,2.69-2.36,4.03-3.55.31-.27.61-.54.92-.81.45-.4.44-1.22,0-1.62-.48-.44-1.14-.42-1.62,0h0Z"/>
          <path class="cls-4" d="M111.29,132.38c.74.84,1.48,1.68,2.21,2.52,1.18,1.34,2.36,2.69,3.55,4.03.27.31.54.61.81.92.4.45,1.22.44,1.62,0,.44-.48.42-1.14,0-1.62-.74-.84-1.48-1.68-2.21-2.52-1.18-1.34-2.36-2.69-3.55-4.03-.27-.31-.54-.61-.81-.92-.4-.45-1.22-.44-1.62,0-.44.48-.42,1.14,0,1.62h0Z"/>
          <path class="cls-3" d="M130.55,100.19c.06.01.12.02.19.02,1.3-.06,2.57-.2,3.79-.42,9.24-2.35,14.39-8.04,16.13-12.58,1-2.6.99-4.99-.04-6.54-.93-1.4-2.1-2.27-3.47-2.56-3.3-.72-6.94,2.08-8.96,3.99.3-3.29.17-9.06-4.31-10.03-.77-.17-1.63-.17-2.57-.03-2.35.38-4.52,2.75-5.8,6.35-1.92,5.39-1.85,14.27,4.65,21.58.1.12.24.2.39.23Z"/>
          <path class="cls-11" d="M114.88,78.03c.12-.05.23-.13.3-.24.57-.81,1.07-1.66,1.51-2.51,2.86-6.75,1.76-12.57-.21-15.79-1.14-1.86-2.64-2.99-4.1-3.1-.79-.06-1.51.03-2.13.27-3.02,1.14-3.13,5.27-2.89,7.79-1.68-1.5-4.52-3.52-6.98-2.59-.94.36-1.72,1.11-2.32,2.22-.88,1.63-.43,4.1,1.2,6.6,2.42,3.72,7.92,7.88,15.44,7.37.07,0,.13-.02.19-.04Z"/>
          <path class="cls-6" d="M142.86,49.61c.38.28.71.7,1,1.23.48.9.31,2.36-.45,3.92-1.52,3.09-5.53,6.79-12.23,7.89-.75.07-1.57.09-2.39.07-3.91-5.56-3.37-11.76-1.7-15.4,1.01-2.2,2.52-3.69,3.85-3.78.95-.07,1.7.11,2.25.52,1.99,1.5,1.12,6.16.62,7.82-.09.29.03.61.29.75.26.16.58.12.8-.09,1.42-1.41,5.63-4.68,7.97-2.92Z"/>
        </g>
      </g>
    </g>
  </g>
</svg>