<?xml version="1.0" encoding="UTF-8"?>
<svg xmlns="http://www.w3.org/2000/svg" version="1.1" viewBox="0 0 168.64 210.86">
  <defs>
    <style>
      .cls-1 {
        fill: #3a95a6;
      }

      .cls-2 {
        fill: #43acbf;
      }

      .cls-3 {
        fill: #73b31b;
      }

      .cls-4 {
        fill: #ff5e33;
      }

      .cls-5 {
        fill: #a6f1ff;
      }

      .cls-5, .cls-6 {
        opacity: .7;
      }

      .cls-7 {
        fill: #639917;
      }

      .cls-8 {
        fill: #902593;
      }

      .cls-9 {
        fill: #94d936;
      }

      .cls-10 {
        fill: #bfa213;
      }

      .cls-11 {
        fill: #ffc2b3;
      }

      .cls-11, .cls-12 {
        opacity: .5;
      }

      .cls-13 {
        fill: #d94821;
      }

      .cls-6 {
        fill: #fff0a6;
      }

      .cls-14 {
        fill: #b34323;
      }

      .cls-15 {
        fill: #d9b816;
      }

      .cls-16 {
        fill: #ff5426;
      }

      .cls-17 {
        fill: #657f8c;
      }

      .cls-18 {
        fill: #913f93;
      }

      .cls-12 {
        fill: #d8ffa3;
      }

      .cls-19 {
        fill: #651966;
      }

      .cls-20 {
        fill: #721d73;
      }

      .cls-21 {
        fill: #ffd919;
      }

      .cls-22 {
        fill: #405159;
      }

      .cls-23 {
        fill: #fda3ff;
        opacity: .4;
      }

      .cls-24 {
        fill: #51d0e8;
      }

      .cls-25 {
        fill: #8bd921;
      }
    </style>
  </defs>
  <!-- Generator: Adobe Illustrator 28.7.1, SVG Export Plug-In . SVG Version: 1.2.0 Build 142)  -->
  <g>
    <g id="Layer_1">
      <g>
        <path class="cls-17" d="M85.21,189.59c-2.39,1.59-2.22,4.22-3.34,6.58-1.15,2.43-3.4,4.15-4.88,6.37-.22.33.31.64.53.31,1.36-2.02,3.3-3.61,4.54-5.72,1.34-2.29,1.06-5.4,3.47-7.01.33-.22.02-.75-.31-.53h0Z"/>
        <path class="cls-17" d="M85.07,189.78c-.65,2.72-.33,5.62-1.56,8.19-1.13,2.37-2.12,4.38-1.98,7.08.02.39.64.39.62,0-.07-1.39.09-2.77.58-4.08.46-1.21,1.2-2.29,1.67-3.5.94-2.39.67-5.05,1.26-7.53.09-.39-.5-.55-.6-.16h0Z"/>
        <path class="cls-17" d="M85.07,189.94c.37,1.59.79,3.21.84,4.85.06,1.7-.37,3.34-.63,5.01-.46,2.94-.39,5.91.14,8.83.07.39.66.22.59-.17-.63-3.48-.43-6.82.18-10.28.52-2.94.14-5.53-.53-8.4-.09-.39-.68-.22-.59.17h0Z"/>
        <path class="cls-17" d="M85.1,190.02c1.62,2.52,2.8,5.33,2.81,8.36,0,2.75-.5,5.5.47,8.16.14.37.73.21.59-.17-1.11-3.03-.19-6.16-.5-9.27-.26-2.66-1.41-5.17-2.84-7.4-.21-.33-.75-.02-.53.31h0Z"/>
        <path class="cls-17" d="M85.15,190.08c2.43,1.89,4.92,4.14,6.37,6.9.72,1.38.65,2.95,1.21,4.39.51,1.3,1.31,2.42,2.33,3.37.29.27.72-.17.43-.44-1.29-1.2-2.19-2.69-2.56-4.42-.3-1.42-.47-2.58-1.24-3.85-1.53-2.51-3.79-4.6-6.1-6.39-.31-.24-.75.19-.43.44h0Z"/>
        <g>
          <path class="cls-4" d="M42.43,76.29l-1.25.43-1.31.45-2.48.18s.79-.93.68-1.78c-.02-.15-.07-.29-.15-.43l2.98-.62c-.13,1.11,1.53,1.76,1.53,1.76Z"/>
          <path class="cls-14" d="M43.29,76.45c-.11-.29-.44-.3-.94-.2-.33-.14-1.57-.76-1.46-1.73l-2.98.62c.08.14.13.28.15.43,2.26-.59,2.62.13,2.6.52,0,.08-.07.19-.15.29-.26.31-.63.51-1.03.58-1.52.26-2.74.25-2.72.84.02.61,1.59.64,3.45.25,1.87-.38,3.31-.98,3.07-1.6Z"/>
          <path class="cls-13" d="M58.35,33.12c2.55,12.28-7.66,29.95-13.67,38.41-1.49,2.1-2.75,2.72-3.79,3.01-.08.02-.16.04-.23.06-.24.06-.46.1-.67.14-.04,0-.09.02-.14.03h0c-.07.01-.13.03-.2.04-.05,0-.1.02-.15.03-.05.01-.1.02-.15.03-.07.02-.13.03-.2.04-.37.08-.77.18-1.23.23-1.05.12-2.42-.02-4.5-1.27-.83-.5-1.72-1.06-2.66-1.67-2.87-1.87-6.2-4.24-9.47-6.95-7-5.79-13.8-13.16-15.59-20.62h0c-.04-.18-.08-.36-.12-.53-.47-2.25-.69-4.42-.69-6.5,0,0,0,0,0,0-.02-13.43,9.03-23.11,19.13-26.19.72-.22,1.45-.41,2.18-.56,1.99-.41,4.07-.58,6.16-.5.06,0,.12,0,.18,0,11.06.48,22.73,7.86,25.83,22.77Z"/>
          <path class="cls-16" d="M54.34,33.93c2.67,12.83-7.66,37.84-14.34,40.78-.05.02-.11.05-.16.07h0c-.07.01-.13.03-.2.04-.05,0-.1.02-.15.03-.05.01-.1.02-.15.03-.07.02-.13.03-.2.04-.37.08-.77.18-1.23.23-1.05.12-2.42-.02-4.5-1.27-.83-.5-1.72-1.06-2.66-1.67-2.87-1.87-6.2-4.24-9.47-6.95-7-5.79-13.8-13.16-15.59-20.62h0c-.04-.18-.08-.36-.12-.53-.47-2.25-.69-4.42-.69-6.5,0,0,0,0,0,0-.02-13.43,9.03-23.11,19.13-26.19.72-.22,1.45-.41,2.18-.56,1.99-.41,4.07-.58,6.16-.5.06,0,.12,0,.18,0,9.69,2.2,18.98,9.93,21.82,23.58Z"/>
          <path class="cls-11" d="M16.64,45.75c-.26-3.55.45-7.19,2.19-10.56,1.32-2.53,2.39-3.86,4.53-6.42.15-.15.28-.31.41-.48,1.4-1.94,3.26-5.64-.41-7.11-3.72-1.43-7.34,1.81-8.63,3.91-1.59,2.19-2.64,5.3-3.23,8.07-.8,3.68.46,9.12,2.16,12.3.91,1.7,1.38,2.33,2.4,3.63,1.8,2.34.93,1.25.58-3.34Z"/>
        </g>
        <path class="cls-17" d="M37.89,75.9c1.7-.3,3.96-1.29,5.16.51.89,1.32,1.37,3.01,1.78,4.54.84,3.14,1.1,6.38,1.47,9.6.33,2.89.86,5.67,1.6,8.48,1.79,6.8,3.87,13.53,5.93,20.25,2.36,7.68,4.77,15.34,7.22,22.99,1.86,5.83,3.91,11.62,5.59,17.5,1.67,5.86,3.16,11.84,6.56,16.97,3.29,4.97,7.44,9.47,11.93,13.37.3.26.73-.18.43-.44-4.27-3.7-8.22-7.95-11.42-12.62-3.25-4.74-4.86-10.13-6.4-15.61-1.76-6.28-3.9-12.44-5.89-18.65-4.65-14.53-9.45-29.09-13.35-43.84-1.03-3.9-1.51-7.8-1.98-11.81-.39-3.27-.9-6.57-2.23-9.61-.48-1.09-1.02-2.29-2.25-2.67-1.37-.42-2.99.22-4.33.45-.39.07-.22.66.17.59h0Z"/>
        <g>
          <path class="cls-24" d="M138.11,84.96l-1.33.04-1.38.04-2.42-.58s1.04-.64,1.18-1.49c.03-.14.02-.3-.01-.45l3.03.3c-.46,1.02.93,2.14.93,2.14Z"/>
          <path class="cls-1" d="M138.88,85.37c-.02-.31-.33-.42-.83-.47-.27-.24-1.27-1.2-.87-2.09l-3.03-.3c.04.15.04.31.01.45,2.34.12,2.46.91,2.32,1.28-.03.08-.12.16-.23.23-.34.22-.75.3-1.15.25-1.53-.21-2.69-.58-2.85,0-.16.59,1.32,1.08,3.22,1.27,1.89.19,3.45.06,3.41-.61Z"/>
          <path class="cls-2" d="M166.25,48.56c-1.25,12.48-16.29,26.27-24.56,32.54-2.05,1.55-3.44,1.78-4.52,1.73-.08,0-.16,0-.24-.01-.24-.02-.47-.04-.69-.07-.04,0-.09-.01-.14-.02h0c-.07,0-.13-.01-.2-.02-.05,0-.1-.01-.15-.02-.05,0-.1-.01-.15-.02-.07,0-.13-.01-.2-.02-.38-.04-.79-.06-1.24-.15-1.04-.2-2.3-.74-3.91-2.56-.64-.73-1.32-1.53-2.04-2.4-2.18-2.65-4.64-5.9-6.95-9.47-4.94-7.63-9.21-16.7-8.69-24.35h0c.01-.19.03-.36.05-.54.23-2.29.67-4.42,1.29-6.41,0,0,0,0,0,0,4.01-12.82,15.55-19.33,26.11-19.24.75,0,1.5.05,2.24.12,2.02.2,4.05.66,6.03,1.37.06.02.11.04.17.06,10.41,3.78,19.32,14.32,17.8,29.47Z"/>
          <path class="cls-24" d="M162.19,48.12c-1.3,13.04-18.66,33.8-25.91,34.6-.06,0-.12.01-.18.02h0c-.07,0-.13-.01-.2-.02-.05,0-.1-.01-.15-.02-.05,0-.1-.01-.15-.02-.07,0-.13-.01-.2-.02-.38-.04-.79-.06-1.24-.15-1.04-.2-2.3-.74-3.91-2.56-.64-.73-1.32-1.53-2.04-2.4-2.18-2.65-4.64-5.9-6.95-9.47-4.94-7.63-9.21-16.7-8.69-24.35h0c.01-.19.03-.36.05-.54.23-2.29.67-4.42,1.29-6.41,0,0,0,0,0,0,4.01-12.82,15.55-19.33,26.11-19.24.75,0,1.5.05,2.24.12,2.02.2,4.05.66,6.03,1.37.06.02.11.04.17.06,8.59,5.01,15.12,15.17,13.74,29.04Z"/>
          <path class="cls-5" d="M122.68,48.09c.82-3.46,2.59-6.72,5.26-9.42,2.02-2.02,3.44-2.96,6.25-4.77.19-.1.36-.21.53-.34,1.92-1.44,4.81-4.41,1.74-6.91-3.12-2.48-7.55-.47-9.41,1.14-2.17,1.62-4.11,4.26-5.5,6.73-1.87,3.27-2.3,8.84-1.63,12.38.36,1.9.62,2.64,1.2,4.18,1.02,2.77.51,1.47,1.56-3.02Z"/>
        </g>
        <g>
          <path class="cls-9" d="M80.92,69.43l-1.32.14-1.37.14-2.46-.39s.98-.72,1.06-1.58c.01-.15,0-.3-.05-.45l3.04.07c-.38,1.05,1.09,2.07,1.09,2.07Z"/>
          <path class="cls-7" d="M81.72,69.79c-.04-.31-.36-.4-.87-.41-.28-.21-1.36-1.1-1.03-2.02l-3.04-.07c.05.15.06.3.05.45,2.34-.06,2.52.72,2.41,1.1-.02.08-.11.17-.22.25-.32.25-.73.36-1.13.33-1.54-.09-2.73-.38-2.84.2-.12.6,1.4.98,3.31,1.02,1.9.05,3.45-.2,3.35-.86Z"/>
          <path class="cls-3" d="M106.24,31.02c-.3,12.54-14.27,27.42-22.04,34.3-1.93,1.71-3.29,2.03-4.38,2.07-.08,0-.16,0-.24,0-.24,0-.47,0-.69-.02-.04,0-.09,0-.14,0h0c-.07,0-.13,0-.2,0-.05,0-.1,0-.15,0-.05,0-.1,0-.15,0-.07,0-.13,0-.2,0-.38,0-.79,0-1.25-.05-1.05-.12-2.35-.56-4.09-2.26-.69-.68-1.44-1.42-2.21-2.24-2.37-2.47-5.07-5.54-7.65-8.92-5.5-7.23-10.45-15.95-10.5-23.62h0c0-.19,0-.37,0-.54.06-2.3.33-4.46.8-6.49,0,0,0,0,0,0,3.04-13.08,14.04-20.45,24.58-21.15.75-.05,1.5-.07,2.24-.05,2.03.05,4.09.36,6.12.91.06.01.11.03.17.05,10.67,2.99,20.34,12.82,19.97,28.05Z"/>
          <path class="cls-25" d="M102.15,30.89c-.32,13.1-16.06,35.11-23.23,36.46-.06.01-.12.02-.17.03h0c-.07,0-.13,0-.2,0-.05,0-.1,0-.15,0-.05,0-.1,0-.15,0-.07,0-.13,0-.2,0-.38,0-.79,0-1.25-.05-1.05-.12-2.35-.56-4.09-2.26-.69-.68-1.44-1.42-2.21-2.24-2.37-2.47-5.07-5.54-7.65-8.92-5.5-7.23-10.45-15.95-10.5-23.62h0c0-.19,0-.37,0-.54.06-2.3.33-4.46.8-6.49,0,0,0,0,0,0,3.04-13.08,14.04-20.45,24.58-21.15.75-.05,1.5-.07,2.24-.05,2.03.05,4.09.36,6.12.91.06.01.11.03.17.05,8.94,4.35,16.22,13.98,15.89,27.92Z"/>
          <path class="cls-12" d="M62.75,33.84c.55-3.51,2.07-6.9,4.53-9.79,1.87-2.17,3.2-3.21,5.87-5.22.18-.11.35-.24.51-.38,1.8-1.58,4.46-4.76,1.22-7.02-3.29-2.24-7.56.1-9.29,1.85-2.04,1.77-3.77,4.56-4.98,7.13-1.62,3.4-1.63,8.99-.69,12.47.5,1.87.82,2.59,1.51,4.08,1.22,2.68.62,1.43,1.32-3.12Z"/>
        </g>
        <path class="cls-17" d="M79.93,67.6c-2.37-.46-4.56-.27-5.2,2.4-.63,2.65-.37,5.45.2,8.08,1.27,5.91,4.33,11.57,4.09,17.73-.16,4.31-.11,8.59-.07,12.91.02,2.06.06,4.15-.17,6.19-.12,1.04-.35,2.05-.41,3.1-.16,2.83.1,5.7.38,8.52.38,3.85.89,7.7,1.43,11.53,1.28,9.09,2.74,18.16,3.9,27.27.57,4.5,1.09,9.02,1.35,13.55.2,3.34.36,6.8-.24,10.11-.07.39.53.55.6.16.48-2.7.46-5.48.36-8.21-.14-3.8-.51-7.6-.94-11.38-.99-8.68-2.34-17.32-3.61-25.97-1.09-7.41-2.33-14.89-2.61-22.38-.09-2.32.25-4.45.46-6.74.38-4.29.06-8.65,0-12.94-.03-2.18.22-4.34.2-6.51-.02-3.15-.87-6.23-1.8-9.21-1-3.21-2.18-6.41-2.66-9.76-.24-1.71-.29-3.45-.01-5.16.18-1.1.46-2.36,1.64-2.78.93-.33,2.01-.13,2.95.05.39.07.55-.52.16-.6h0Z"/>
        <path class="cls-17" d="M137.05,83.12c-1.37-.2-3.24-1.04-3.91.61-.37.9-.25,1.96-.48,2.9-.16.63-.38,1.24-.6,1.85-1.24,3.5-2.69,6.93-3.92,10.44-.66,1.89-1.03,3.85-1.52,5.78-.7,2.73-1.48,5.44-2.36,8.12-1.39,4.23-3.04,8.38-5.06,12.36-2.77,5.46-6.38,10.29-9.86,15.29-1.84,2.65-3.39,5.41-4.87,8.28-2.7,5.25-5.19,10.6-7.6,15.99-2.33,5.21-4.56,10.46-6.9,15.67-1.39,3.09-2.7,6.58-4.83,9.27-.24.31.19.74.44.43,1.69-2.13,2.8-4.77,3.94-7.21,1.96-4.24,3.79-8.54,5.67-12.81,2.27-5.18,4.59-10.35,7.05-15.44,1.89-3.92,3.77-7.9,6.11-11.57,3.02-4.71,6.57-9.05,9.39-13.9,4.47-7.68,7.41-16.15,9.59-24.74.51-2.02.93-4.03,1.64-5.99.73-2.02,1.52-4.03,2.29-6.03.65-1.69,1.32-3.37,1.85-5.1.28-.9.27-1.79.45-2.71.16-.81.31-1.26,1.1-1.21.75.05,1.5.23,2.24.33.39.06.55-.54.16-.6h0Z"/>
        <g>
          <path class="cls-21" d="M108.67,113.87l-1.32.09-1.38.09-2.44-.48s1.01-.68,1.12-1.54c.02-.15.01-.3-.03-.45l3.04.18c-.42,1.04,1.02,2.1,1.02,2.1Z"/>
          <path class="cls-10" d="M109.45,114.25c-.03-.31-.35-.41-.85-.44-.28-.22-1.32-1.15-.95-2.05l-3.04-.18c.04.15.05.3.03.45,2.34.02,2.5.81,2.37,1.18-.03.08-.11.16-.22.24-.33.24-.74.33-1.14.29-1.54-.15-2.71-.48-2.84.1-.14.59,1.36,1.03,3.27,1.14,1.9.12,3.45-.08,3.38-.74Z"/>
          <path class="cls-15" d="M135.33,76.38c-.75,12.52-15.23,26.9-23.24,33.5-1.99,1.64-3.36,1.91-4.45,1.91-.08,0-.16,0-.24,0-.24,0-.47-.03-.69-.04-.04,0-.09,0-.14,0h0c-.07,0-.13,0-.2-.01-.05,0-.1,0-.15,0s-.1,0-.15,0c-.07,0-.13,0-.2,0-.38-.02-.79-.03-1.25-.1-1.05-.16-2.33-.65-4.01-2.41-.67-.7-1.38-1.47-2.13-2.31-2.28-2.56-4.87-5.71-7.33-9.19-5.24-7.42-9.87-16.31-9.65-23.98h0c0-.19.01-.37.02-.54.14-2.29.49-4.45,1.03-6.46,0,0,0,0,0,0,3.5-12.97,14.76-19.94,25.32-20.27.75-.02,1.5-.01,2.25.03,2.03.12,4.08.5,6.08,1.13.06.02.11.03.17.05,10.55,3.36,19.88,13.54,18.97,28.74Z"/>
          <path class="cls-21" d="M131.25,76.1c-.78,13.08-17.3,34.52-24.51,35.61-.06,0-.12.02-.17.02h0c-.07,0-.13,0-.2-.01-.05,0-.1,0-.15,0s-.1,0-.15,0c-.07,0-.13,0-.2,0-.38-.02-.79-.03-1.25-.1-1.05-.16-2.33-.65-4.01-2.41-.67-.7-1.38-1.47-2.13-2.31-2.28-2.56-4.87-5.71-7.33-9.19-5.24-7.42-9.87-16.31-9.65-23.98h0c0-.19.01-.37.02-.54.14-2.29.49-4.45,1.03-6.46,0,0,0,0,0,0,3.5-12.97,14.76-19.94,25.32-20.27.75-.02,1.5-.01,2.25.03,2.03.12,4.08.5,6.08,1.13.06.02.11.03.17.05,8.78,4.66,15.72,14.55,14.89,28.46Z"/>
          <path class="cls-6" d="M91.77,77.65c.68-3.49,2.32-6.82,4.88-9.62,1.94-2.1,3.31-3.1,6.05-5.01.18-.11.36-.23.52-.36,1.86-1.51,4.63-4.59,1.47-6.97-3.21-2.35-7.56-.17-9.35,1.52-2.11,1.7-3.93,4.42-5.23,6.95-1.74,3.34-1.95,8.93-1.13,12.44.43,1.88.73,2.61,1.37,4.13,1.13,2.73.57,1.45,1.43-3.08Z"/>
        </g>
        <g>
          <path class="cls-18" d="M68.84,113.64l-1.3.29-1.35.3-2.48-.11s.9-.83.88-1.69c0-.15-.03-.29-.1-.44l3.03-.28c-.26,1.09,1.32,1.93,1.32,1.93Z"/>
          <path class="cls-19" d="M69.67,113.91c-.08-.3-.41-.35-.91-.3-.31-.18-1.48-.94-1.25-1.89l-3.03.28c.07.14.1.29.1.44,2.32-.33,2.59.43,2.52.81-.01.08-.09.18-.19.27-.29.28-.68.44-1.09.46-1.54.09-2.75-.06-2.8.53-.05.61,1.5.82,3.4.64,1.9-.17,3.4-.59,3.23-1.24Z"/>
          <path class="cls-20" d="M89.58,72.58c1.14,12.49-11.03,28.88-17.96,36.6-1.72,1.92-3.04,2.39-4.11,2.56-.08.01-.16.02-.24.03-.24.03-.47.05-.69.06-.04,0-.09,0-.14.01h0c-.07,0-.13.01-.2.02-.05,0-.1,0-.15.01-.05,0-.1,0-.15.01-.07,0-.13.01-.2.02-.38.03-.79.09-1.25.09-1.06,0-2.4-.29-4.33-1.78-.77-.59-1.59-1.25-2.46-1.97-2.64-2.19-5.67-4.92-8.62-7.99-6.29-6.55-12.21-14.65-13.14-22.26h0c-.02-.19-.04-.36-.06-.54-.21-2.29-.18-4.47.05-6.54,0,0,0,0,0,0,1.51-13.35,11.6-21.93,22-23.83.74-.14,1.48-.24,2.22-.31,2.02-.18,4.11-.12,6.18.2.06,0,.12.02.17.03,10.94,1.74,21.68,10.4,23.06,25.57Z"/>
          <path class="cls-8" d="M85.51,72.92c1.19,13.05-11.93,36.72-18.89,38.88-.06.02-.11.03-.17.05h0c-.07,0-.13.01-.2.02-.05,0-.1,0-.15.01-.05,0-.1,0-.15.01-.07,0-.13.01-.2.02-.38.03-.79.09-1.25.09-1.06,0-2.4-.29-4.33-1.78-.77-.59-1.59-1.25-2.46-1.97-2.64-2.19-5.67-4.92-8.62-7.99-6.29-6.55-12.21-14.65-13.14-22.26h0c-.02-.19-.04-.36-.06-.54-.21-2.29-.18-4.47.05-6.54,0,0,0,0,0,0,1.51-13.35,11.6-21.93,22-23.83.74-.14,1.48-.24,2.22-.31,2.02-.18,4.11-.12,6.18.2.06,0,.12.02.17.03,9.38,3.29,17.72,12.03,18.99,25.91Z"/>
          <path class="cls-23" d="M46.71,80.36c.15-3.55,1.27-7.09,3.38-10.24,1.6-2.37,2.81-3.56,5.23-5.86.16-.13.32-.28.46-.43,1.61-1.77,3.88-5.24.4-7.11-3.53-1.84-7.5.97-9.02,2.9-1.83,2-3.23,4.96-4.13,7.65-1.22,3.57-.59,9.12.75,12.47.71,1.8,1.11,2.47,1.97,3.88,1.52,2.53.78,1.35.96-3.26Z"/>
        </g>
        <path class="cls-17" d="M67.56,111.98c-1.02.14-2.82-.06-3.5.92-.82,1.18.01,3.29.5,4.41.59,1.38,1.44,2.55,1.98,3.97,1.64,4.33,2.95,8.8,4.28,13.24,3.67,12.3,7.15,24.72,9.8,37.28.51,2.41,1,4.84,1.29,7.28.47,3.96.49,7.82,3.24,11.02.26.3.69-.14.43-.44-2.63-3.06-2.61-6.81-3.05-10.59-.23-1.92-.58-3.82-.96-5.71-1.12-5.6-2.5-11.15-3.93-16.67-2.87-11.1-5.9-22.23-9.61-33.09-.48-1.4-.94-2.85-1.59-4.18-.51-1.05-1.2-1.95-1.59-3.08-.29-.83-.95-2.7-.03-3.33.67-.46,1.98-.32,2.75-.42.39-.05.39-.67,0-.62h0Z"/>
        <path class="cls-17" d="M107.9,112.26c-1.17-.16-3-.83-4.14-.26-1.09.54-.36,2.13-.4,3.05-.08,1.8-.7,3.55-1.38,5.21-.77,1.89-1.41,3.84-2.08,5.77-2.5,7.18-4.88,14.42-6.87,21.76-1.01,3.74-1.94,7.51-2.55,11.34-.36,2.21-.59,4.44-.91,6.65-.62,4.29-1.23,8.59-1.96,12.87-.64,3.74-1.25,7.59-2.56,11.17-.14.37.46.53.6.16,1.06-2.91,1.63-6.02,2.18-9.06.7-3.84,1.28-7.71,1.84-11.58.42-2.9.79-5.81,1.2-8.71,1.31-9.37,4.31-18.53,7.26-27.48,1.45-4.38,2.88-8.78,4.58-13.06.68-1.7,1.27-3.53,1.27-5.38,0-.93-.54-2.25.81-2.25.98,0,1.97.26,2.94.4.39.05.55-.54.16-.6h0Z"/>
        <g>
          <path class="cls-22" d="M73.77,195.36l-.39-.55c1.55-1.09,5.19-3.66,7.49-4.3,1.03-.29,2.08-.41,3.08-.52.45-.05.92-.09,1.37-.14l-.18-.26c1.02-.72,1.74-2.11,2.49-3.59.69-1.36,1.41-2.76,2.44-3.73,1.72-1.64,4.63-2.16,6.9-1.25.9.36,1.76,1.24,2.15,2.18.44,1.07.17,2.43-.68,3.46-.83,1.01-2.05,1.58-2.89,1.92-3.1,1.26-6.49,1.58-9.77,1.89-.58.05-1.18.11-1.76.17-.97.1-1.99.22-2.97.5-2.19.62-5.76,3.13-7.29,4.21ZM94.54,181.25c-1.49,0-2.98.54-4.01,1.51-.94.89-1.63,2.24-2.3,3.55-.69,1.35-1.35,2.63-2.27,3.48,3.15-.3,6.4-.63,9.33-1.82.78-.32,1.89-.84,2.63-1.73.7-.85.93-1.94.58-2.78-.32-.78-1.05-1.52-1.78-1.81-.69-.27-1.43-.4-2.18-.4Z"/>
          <path class="cls-22" d="M99.41,195.27c-2.16-.59-4.15-1.66-5.91-2.6-1.32-.71-2.47-1.32-3.38-1.56-.98-.26-2-.37-2.97-.46-.8-.07-1.63-.13-2.42-.18-3.1-.21-6.3-.42-9.14-1.76-1.29-.61-2.24-1.29-2.84-2.04-.54-.68-.79-1.39-.73-2.13.12-1.42,1.39-2.52,2.52-2.84,1.24-.35,2.26-.38,3.19-.11.88.26,1.69.8,2.55,1.69.66.69,1.17,1.44,1.72,2.23.85,1.23,1.8,2.63,3.55,4.1l-.18.21c.62.04,1.24.09,1.85.14,1,.09,2.06.21,3.08.48.99.27,2.16.89,3.52,1.62,1.73.92,3.68,1.97,5.77,2.54l-.18.65ZM76.43,182.07c-.52,0-1.07.1-1.69.27-.93.26-1.95,1.17-2.04,2.25-.05.56.15,1.11.58,1.65.53.66,1.41,1.29,2.6,1.85,2.71,1.27,5.82,1.49,8.84,1.69-1.56-1.4-2.47-2.72-3.27-3.89-.53-.77-1.03-1.5-1.65-2.15-1.1-1.15-2.11-1.68-3.37-1.67Z"/>
          <path class="cls-22" d="M84.86,189.17c0,.49,0,.98,0,1.46,0,.24.22.48.47.46.25-.01.46-.21.46-.47,0-.49,0-.98,0-1.46,0-.24-.22-.48-.47-.46-.25.01-.46.21-.46.47h0Z"/>
        </g>
      </g>
    </g>
  </g>
</svg>