<?xml version="1.0" encoding="UTF-8"?>
<svg xmlns="http://www.w3.org/2000/svg" version="1.1" viewBox="0 0 161.69 192.57">
  <defs>
    <style>
      .cls-1 {
        fill: #565464;
      }

      .cls-2 {
        fill: #aec0d3;
      }

      .cls-3 {
        fill: #fa9a78;
      }

      .cls-4 {
        fill: #887599;
      }

      .cls-5 {
        fill: #f49d7b;
      }

      .cls-6 {
        fill: #4e0c09;
      }

      .cls-7 {
        fill: #fff;
      }

      .cls-8 {
        fill: #c02328;
      }

      .cls-9 {
        fill: #d47155;
      }

      .cls-10 {
        fill: #f6b542;
      }

      .cls-11 {
        fill: #47487f;
      }

      .cls-12 {
        fill: #31303f;
      }

      .cls-13 {
        fill: #eb8361;
      }

      .cls-14 {
        fill: #d25c48;
      }

      .cls-15 {
        fill: #1a1a1a;
      }

      .cls-16 {
        fill: #953b16;
      }

      .cls-17 {
        fill: #e5eaec;
      }

      .cls-18 {
        fill: #b9522a;
      }

      .cls-19 {
        fill: #e08257;
      }

      .cls-20 {
        fill: #5e76b5;
      }

      .cls-21 {
        fill: #ed4450;
      }

      .cls-22 {
        fill: #3c1712;
      }

      .cls-23 {
        opacity: .5;
      }
    </style>
  </defs>
  <!-- Generator: Adobe Illustrator 28.7.1, SVG Export Plug-In . SVG Version: 1.2.0 Build 142)  -->
  <g>
    <g id="Layer_1">
      <g>
        <path class="cls-4" d="M156.39,184.38c.07,1.42-15.01,1.69-30.09,1.78-24.78.15-53.38.36-53.46-1.4-.06-1.36,40.03-1.09,53.36-1.09s30.09-1.25,30.19.71Z"/>
        <g>
          <g>
            <path class="cls-5" d="M97.58,169.04c-1.58-.37-1.85-.66-3.44-.99-1.86-.39-3.7-1.06-5.58-1.4.05,1.57.3,3.16.13,4.73-.2,1.9-1.7,3.61-3.02,4.82-1.57,1.44-3.54,2.67-5.52,3.49-3.06,1.26-5.57,1.8-6.29,3.42-.69,1.55-.18,1.8.36,1.98.54.18,20.31.54,22.28-.54,1.61-.88,1.96-2.58,1.72-6.32-.11-1.64-.75-2.22-.64-9.19Z"/>
            <path class="cls-7" d="M97.72,174.66c-1.56-.16-3.12-.37-4.67-.58-1.64-.23-3.26-.55-4.81-1.1-.59,1.26-1.62,2.37-2.55,3.23-1.57,1.44-3.54,2.67-5.52,3.49-3.06,1.26-5.57,1.8-6.29,3.42-.69,1.55-.18,1.8.36,1.98.54.18,20.31.54,22.28-.54,1.61-.88,1.96-2.58,1.72-6.32-.07-1.01-.34-1.62-.51-3.58Z"/>
            <path class="cls-10" d="M99.18,182.94c-.23-1.41-.12-3.11-.96-4.71-2.05.94-7.92,1.54-10.04.45-1.21-.62.9-2.3.17-2.71-.69-.39-2.54-.58-3.2,0-1.78,1.57-3.42,3.07-5,3.72-3.06,1.26-5.57,1.8-6.29,3.42-.27.6-.35,1.01-.33,1.29.04.44.36.58.69.69.54.18,22.19,1.08,24.17,0,.65-.35.94-1.15.78-2.15Z"/>
            <path class="cls-15" d="M93.21,184.76s-12.2.06-15.56,0c-3.36-.06-4.09-.64-4.09-.64-.01.11-.02.2,0,.28.04.44.36.58.69.69.54.18,22.19,1.08,24.17,0,.65-.35.94-1.15.78-2.15,0,0,0,0,0-.01-.29.05-.93.16-1.97.33-1.49.23-4.07,1.36-4.01,1.51Z"/>
          </g>
          <g>
            <g>
              <path class="cls-20" d="M99.23,172.42c.61,0,1.22-.02,1.85-.04.35,0,.71-.06,1.07-.16-.25-.41-.49-1.64-.72-3.32-.74,1.16-1.48,2.33-2.2,3.51Z"/>
              <path class="cls-20" d="M98.84,172.43c.81-1.4-.47-.39.39-1.76-.76-6.22.9-15.48.9-21.96,3.79.27,9.73.67,9.74.64,2.24-3.83,4.25-6.18,6.67-9.9,2.36-3.62,7.5-7.19,9.87-10.81l-8.07-.1c-1.34,2.15-2.56,2.34-4.64,2.16-4.34-.4-22.82-2.13-24.56-1.92-4.02.48-7.39,5.48-7.59,7.6-.89,9.39,3.01,22.88,1.8,35.32,0,0,5.6.81,15.49.73Z"/>
              <path class="cls-20" d="M136.11,151.34c-8.21,7.68-14.96,17-16.91,18.25.31.94,23.03-5.52,23.29-3.74.65,4.43,1.38,14.01.78,15.35-.04.09-.16.19-.33.29-3.85,2.12-38.14,4.62-40.6,3.86-2.57-.79-8.58-6.79-3.7-14.69,4.15-6.72,21.09-42.1,21.09-42.1h19.87s1.99,17.66-3.49,22.78Z"/>
              <path class="cls-15" d="M118.8,137.79c1.08,1.15,2.38,2.1,3.67,3.01,2.31,1.6,4.87,2.85,7.51,3.78,2.61.91,5.32,1.54,8.05,2.01.21.04.42.07.64.11,2.16-7.15.92-18.13.92-18.13h-19.87s-5.94,3.92-.93,9.23Z"/>
            </g>
            <path class="cls-15" d="M143.27,181.21c-.04.09-.16.19-.33.29-1.31-.38-2.84-8.73-2.84-8.73l2.76-3.17c.65,4.43,1.01,10.27.41,11.61Z"/>
            <path class="cls-7" d="M144.31,164.86l-4.11.83s-1.38,2.17.2,8.7c0,0,3.36-.59,4.35-.4.99.2,3.56-3.56,3.56-3.56l-1.19-4.35-2.81-1.22Z"/>
            <path class="cls-10" d="M154.52,184.47c-1.13.75-7.18.75-7.37.19-.38-1.12,1.59-4.24,1.59-4.24-.19-1.68-1.51-3.74-3.02-4.48-.9-.44-1.56-.69-2.67-.69s-1.73.29-1.72-.3c0-.33-.04-.67.09-.98.09-.21.24-.38.4-.55.91-.94,2.26-1.51,2.5-2.92.38-2.24-3.11-3.36-2.73-5.23,0,0,2.38-.78,4.24-1.11.71-.13,1.33-.04,1.86.13,2.75.89,3.26,4.95,4.37,8.08,1.17,3.29,3.59,11.35,2.46,12.1Z"/>
            <path class="cls-15" d="M154.52,184.47c-1.13.75-7.18.75-7.37.19,2.08.37,3.98-.21,4.55-.58.57-.37-1.04-3.67-1.78-5.88-.65-1.91-2.39-7.33-2.96-10.87-.41-2.59.3-3,.72-3.04h0c2.75.89,3.5,4.71,4.61,7.84,1.17,3.29,3.35,11.59,2.22,12.34Z"/>
            <path class="cls-15" d="M150.65,167.47s-1.02-2.61-2.36-3.53c-1.06-.72-2.46.22-2.46.22,0,0-.54,1.48-.11,3.26.43,1.78,1.56,2.67,2.08,3.73.52,1.06,2.86-3.68,2.86-3.68Z"/>
            <path class="cls-11" d="M139.29,166.12c-5.89,1.5-11.88,2.61-17.92,3.34-.04.04-.09.07-.15.09-4.66,1.51-9.45,2.59-14.32,3.14-.45.05-.48-.64-.04-.7,3.65-.48,7.26-1.18,10.81-2.13-2.21.21-4.42.37-6.63.48-.47.02-.51-.7-.04-.73,9.47-.54,18.84-1.95,28.07-4.14.42-.1.65.54.22.65Z"/>
          </g>
          <g class="cls-23">
            <path class="cls-11" d="M113.67,168.48s0,0,0,0c-.11,0-.19-.1-.19-.21.03-.66.54-.85.85-.96.07-.03.18-.07.22-.1-.01-.04-.07-.15-.35-.42-.14-.14-.27-.24-.37-.32-.2-.17-.35-.29-.36-.48-.01-.23.17-.42.66-.93.55-.56,1.46-1.51,2.89-3.29,3.85-4.79,12.43-15.98,12.53-16.11.07-.09.19-.1.28-.04.09.07.1.19.04.28-.1.13-8.69,11.33-12.54,16.12-1.44,1.79-2.36,2.74-2.91,3.31-.29.3-.54.56-.55.64.01.03.12.12.22.2.11.09.24.19.39.34.38.36.51.58.47.79-.05.22-.27.3-.48.38-.35.13-.58.24-.59.61,0,.11-.09.19-.2.19Z"/>
          </g>
        </g>
        <path class="cls-11" d="M115.61,135.65c-.58,1.32-1.41,2.18-1.32,2.6-.41.91-.81,1.82-1.23,2.73-1.19,2.58-2.42,5.14-3.68,7.69-2.5,5.08-5.07,10.13-7.66,15.16l-2.24,4.37c-.75,1.46-1.52,2.9-2.21,4.39-.13.29.27.53.43.25.73-1.28,1.39-2.59,2.08-3.9.67-1.28,1.33-2.55,1.99-3.83,1.32-2.54,2.66-5.06,3.97-7.6,2.61-5.05,5.16-10.13,7.56-15.28,1.35-2.89,1.77-3.34,2.95-6.3.15-.37-.48-.63-.64-.27Z"/>
        <path class="cls-7" d="M100.98,141.66c-.08-.34-.58-.32-.67,0-.13.46-.11,1-.12,1.48-.01.49-.02.99-.02,1.48-.01.99-.02,1.98-.03,2.96,0,.99,0,1.98-.01,2.96,0,1,.06,1.97.14,2.96.02.26.37.25.4,0,.1-.99.19-1.97.21-2.96.02-.99.05-1.98.07-2.96.02-.99.05-1.98.07-2.96.01-.49.02-.99.03-1.48,0-.48.05-1.01-.06-1.48Z"/>
        <g>
          <g>
            <path class="cls-22" d="M141.27,74.27c-.29-.1-.61-.15-.91-.12-.02,0-.03,0-.05,0,.05-1.17-.54-3.5-3.67-4.17-3.26-.7-2.35.12-4.42-.12-1.29-.15-2.15-.91-3.93.62-1.48,1.27-.57,2.8-.57,2.8,0,0-.84,3.25-.03,6.75.59,2.55,2.12,6.07,4.85,6.84,2.72.77,2.8.08,2.8.08,0,0,1.49-.41,3.51-1.73,2.02-1.32,2.37-4.34,2.37-4.34,0,0-.16-1.04.27-2.85.37-1.54-.77-2.87-1.12-3.23.02,0,.03,0,.05,0,.24.04.48.09.71.18.09.04.17.08.25.13.04.03.09.06.13.09.05.04.05.04.08.07.08.08.16.16.23.25.07.09.13.19.22.26.1.09.21.13.33.07.1-.05.2-.17.19-.31-.08-.66-.75-1.1-1.28-1.28Z"/>
            <path class="cls-3" d="M124.27,94.42c.71.31,10.58.73,10.96.85-.08-.79.25-4.37.22-4.87,0-.41.01-3.39.01-3.39-.76-.5-1.37-.34-2.33-2.1.42-.01,1.16-.45,1.91-.93.9-.57,1.49-2.21.56-3.01-.39-.34-.95-.46-1.46-.43-.31.02-.61.08-.9.19-.24.09-.72.26-.86.48,0,0-.95,1.45-.95,1.45,0,0-1.11.2-1.15-.27-.03-.37.28-.9.41-1.24.2-.54.4-1.07.6-1.61.04-.11.08-.23.06-.35-.01-.08-.06-.16-.1-.23-.58-.98-.89-2.12-.87-3.26,0-.16,0-.32-.08-.45-.05-.07-.12-.12-.19-.16-.43-.28-.3-2.1-.66-2.46-.47-.46-4.25,1.01-4.87,2.18-.43.8-.64,1.25-.97,2.09-.14.38-1.15.95-2.04,1.71-.6.51-1.13.67-1.06,1.25.02.21.57.64,1,.86.04.07-.11.56-.46,1.45-.07.18.19.42.12.61-.21.13-.51.68-.46.79.32.64-.11,1.38-.17,1.83-.21,1.45,1.1,1.88,1.64,2.1,1.61.65,3.04.36,3.87.51.15.03-.03.41.01.46.13.21-1.44,5.43-1.78,5.93Z"/>
            <path class="cls-15" d="M126,78.26c.15.04.23.17.25.32.03.2-.06.44-.17.61-.14.22-.36.42-.64.32-.54-.2-.3-.94-.02-1.25.14-.16.45-.17.58.01Z"/>
            <path class="cls-13" d="M122.08,79.69c.16.1.28.22.38.37.14.2-.18.4-.32.2-.08-.11-.17-.19-.27-.27-.16-.13.03-.41.21-.3Z"/>
            <path class="cls-9" d="M121.05,82.17c-.07.18.06.43.12.61.71.15.54.24,1.27.33.37.04.32-.28-.05-.33-.7-.08-.64-.46-1.33-.61Z"/>
            <path class="cls-22" d="M128.05,78.33c-.06-.39-.15-.8-.3-1.17-.08-.19-.17-.37-.27-.54-.12-.2-.24-.41-.43-.54-.23-.16-.55.1-.47.36.06.19.21.35.31.53.1.16.18.33.26.5.04.09.08.17.12.25.04.08.06.13.09.22.06.18.11.36.15.54.03.15.2.23.34.19.16-.04.22-.19.19-.34Z"/>
          </g>
          <path class="cls-22" d="M121.51,80.72s-1.67,4.58-1.59,5.98c.2,3.36,6.13,2.57,8.11,1.78,1.34-.53,4.35-7.51,4.35-7.51l-1.34-.33s-1.43,2.11-2.02,2.3-3.36.59-4.15,0-1.97-1.63-3.36-2.22Z"/>
          <path class="cls-7" d="M121.36,81.73s1.45.85,1.53,1.21c.08.36-2.11,1.37-2.08.96.03-.4.55-2.18.55-2.18Z"/>
        </g>
        <g>
          <path class="cls-18" d="M141.28,126.8c0,.99.4,14.53.4,14.53,0,0-21.69,1.26-24.52-7.88-1.32-4.26-.76-7.17-.76-8.16s-.03-7-.03-9.17c0-.26,0-.63.03-1.1.05-1.54.16-4.63.37-7.21.27-3.27-.49-6.05,0-7.51.99-2.97,6.33-5.54,6.33-5.54,0,0,.13-1.25.53-1.65s11.73-3.89,12.72-3.3-.59,2.77-.2,3.36c.4.59,5.54,4.94,5.54,11.07,0,7.32-2.02,15.65-1.78,16.61.4,1.58,1.38,4.94,1.38,5.93Z"/>
          <path class="cls-15" d="M129.64,111.7s-1.25,3.33-13.25,3.33c.05-1.54.19-4.07.41-6.65l12.85,3.33Z"/>
          <path class="cls-16" d="M140.08,109.37c.27-1.67.3-3.37.11-5.05-.22-1.87-.72-3.69-1.48-5.41-.08-.19-.36-.03-.28.16,1.39,3.19,1.87,6.76,1.31,10.2-.28,1.73-.83,3.4-1.26,5.1-.43,1.72-.67,3.47-.65,5.24,0,.89-.02,1.92.25,2.78.13.4.4.74.48,1.16.11.51.05,1.04-.03,1.55-.03.2.33.26.36.05.1-.72.18-1.46-.12-2.14-.16-.37-.36-.69-.42-1.09-.08-.51-.11-1.02-.14-1.54-.09-1.93.11-3.85.56-5.73.43-1.76,1.01-3.49,1.29-5.29Z"/>
        </g>
        <g>
          <path class="cls-18" d="M96.78,111.7c-.34.66,3.43,4.45,7.69,3.85,2.19-.31,14.58-3.49,14.58-3.49l-16.91-3.69-5.36,3.33Z"/>
          <path class="cls-18" d="M92.41,82.62s7.91,9.08,10.17,11.84c2.26,2.76,3.94,4.98,3.94,4.98l-7.61,1.82-8.76-14.4-1.8-.95,4.05-3.28Z"/>
          <path class="cls-17" d="M90.29,81.02c.12-.05.43.18.93.68.58.57,1.13,1.12,1.13,1.12,0,0-.29,1.45-2.2,3.09-1.91,1.64-2.59,1.91-2.59,1.91l-2.25-2.9s.86-1.01,2.59-2.33c1.73-1.31,2.38-1.56,2.38-1.56Z"/>
          <polygon class="cls-8" points="81.54 78.68 84.74 77.58 84.07 80.37 81.05 81.33 81.54 78.68"/>
          <path class="cls-21" d="M85.64,68.55l-3.34.45-.76,9.68,3.2-1.1,1.36-1.68s.51-4.48.45-5.3c-.05-.75-.77-1.8-.9-2.05-.01-.02,0,0,0,0Z"/>
          <path class="cls-8" d="M81.54,78.68l.76-9.68s.99,1.56,1.05,2.38c.06.82-.45,5.61-.45,5.61l-1.36,1.68Z"/>
          <path class="cls-3" d="M86.93,84.46s2.45-2.08,3.36-3.44c0,0-.51-.57-1.59-2.2-1.08-1.63-1.12-5.82-1.18-6.74-.06-.92-.97-1.21-.97-1.21l-.14,1.93s-.2,1.61-1.97,2.85c-.94.66-1.3-.85-2.58-1.08-1.28-.23-.87.93-.15,1.85.73.93,1.62,1.94,1.64,2.08.01.13.99,2.63.99,2.63,0,0,1.44,2.54,2.59,3.35Z"/>
        </g>
        <g>
          <path class="cls-3" d="M99.92,100.44c-3.96-3.67-14.19-16.97-14.65-17.87-.47-.9-1.33-2.05-2.41-1.93-1.01.11-3.1,1.18-3.1,1.18-.67-.12-.94-.4-1.58-.7-1-1.31-2.51-2.05-3.4-2.17-.28-.04-.79.14-.7.51-.56-.28-.86-.51-1.38-.23-.58.3.15,1.07.57,1.37.1.07.19.14.29.21.7.5,1.4,1.01,2.1,1.51.19.14.38.28.49.49.23.46-2.02.69-1.74,1.15.21.35,1.41.41,2.4.74.46.15,2.34,1.82,2.67,2.15.47.46,3.43,3.15,4,4.36.91,1.95,1.61,2.96,2.55,4.9,1.51,3.1,5.38,9.05,7.79,12.37.36.49.73.92,1.11,1.29.04-.12.08-.23.13-.35,1.07-2.86,2.48-5.63,4.28-8.1.21-.29.42-.57.64-.84-.01-.01-.02-.02-.04-.04Z"/>
          <polygon class="cls-2" points="77.1 78.06 76.16 76.89 76.42 76.23 77.49 76.09 77.91 76.59 77.49 78.01 77.1 78.06"/>
          <path class="cls-10" d="M77.62,81.12c-.55,0-1.06-.64-1.19-1.51-.06-.42-.02-.84.11-1.17.15-.37.4-.59.7-.63.59-.08,1.15.57,1.29,1.5h0c.06.42.02.84-.11,1.17-.15.37-.4.59-.7.63-.03,0-.07,0-.1,0ZM77.35,78.19s-.03,0-.04,0c-.15.02-.29.17-.39.39-.11.27-.14.61-.09.96.11.74.53,1.21.84,1.17.15-.02.29-.17.39-.39.11-.27.14-.61.09-.96h0c-.1-.71-.49-1.17-.8-1.17Z"/>
          <path class="cls-21" d="M73.61,82.58l7.45-1.25s.55-2.48.49-2.65c-.06-.17-9.27,1.52-9.27,1.52l1.33,2.39Z"/>
          <path class="cls-3" d="M87.1,85.37s-.55-1.39-1.47-2.61c-.22-.3-1.33-1.26-1.57-2.39-.54-2.57-1.02-3.03-1.62-3.03-.8,0-1.04.72-.91,1.34.08.36.17.9.25,1.38.09.55-.27,1.07-.82,1.18l-3.94.78s-3.72,0-3.86-.21c-.22-.32-.6-1.08-1.57-.8-.47.14.65,2.68,2.01,2.89,1.36.21,3.39.18,4.59,1.2,1.2,1.02,8.9.28,8.9.28Z"/>
          <path class="cls-13" d="M87.46,85.09c-.14-.18-.32-.32-.45-.51-.13-.18-.23-.37-.34-.57-.21-.4-.4-.82-.67-1.19-.28-.38-.63-.67-.97-.99-.21-.2-.38-.41-.51-.65.01-.05.01-.1-.01-.15-.07-.16-.16-.32-.22-.48,0-.02-.01-.04-.01-.06,0-.03-.02-.05-.03-.07-.04-.14-.08-.28-.12-.42-.08-.36-.14-.73-.24-1.1-.17-.64-.48-1.28-1.1-1.59-.25-.13-.45.22-.22.37.52.35.76,1,.89,1.59.08.35.14.7.23,1.04.07.27.17.58.33.83.12.32.29.61.53.87.34.38.75.68,1.04,1.1.28.39.46.84.68,1.26.2.4.47.9.88,1.12.27.14.49-.18.31-.4Z"/>
          <path class="cls-13" d="M79.01,84.92c-.7-.25-1.43-.41-2.14-.59-.72-.18-1.44-.38-2.17-.48-.26-.04-.37.31-.11.41.7.25,1.43.41,2.14.59.72.19,1.43.4,2.16.53.3.06.42-.36.13-.46Z"/>
        </g>
        <g>
          <path class="cls-7" d="M90.15,87.72l-.81-1.62-1.41-1.33s-1.68.87-3.25,3.28c-1.57,2.41-1.52,3.95-1.68,4.11-.16.16.03,1.79,1.52,2.87,1.49,1.08,5.63-7.3,5.63-7.3Z"/>
          <path class="cls-18" d="M132.68,93.38s-12.63,2.4-16.1,3.21c-1.3.3-15.11,2.94-15.62,2.76-.18-.06-11.23-13.59-11.51-13.35-1.61,1.34-2.51,2.54-2.74,3.01-.67,1.41-3.13,5.45-2.4,7.02,1.57,3.39,11.22,15.39,12,16.04,2.2,1.83,4.68.62,6.98,1.2,1.44.36,3.01-.47,4.5-.33,3.42.31,6.91.17,10.3.22,3.8.05,9.01.42,12.28-1.91,4.11-2.92,6.31-13.34,2.31-17.86Z"/>
          <path class="cls-16" d="M131.8,93.12c-3.59.51-7.14,1.26-10.65,2.21-.42.11-.31.79.12.68,3.51-.91,7.07-1.6,10.66-2.15.47-.07.34-.8-.13-.73Z"/>
          <path class="cls-16" d="M111.82,98.16c-1.4.46-2.78-.32-4.19-.23-.32.02-.64.08-.94.21-.31.13-.55.4-.86.53-.31.13-.68.03-.99-.04-.33-.07-.67-.14-1.01-.11-.78.08-1.5.56-2.29.46-.11-.01-.18.06-.21.15-1.09-1.28-2.19-2.54-3.34-3.76-.07-.09-.14-.18-.21-.26-.62-.77-1.24-1.54-1.87-2.3-1.24-1.5-2.5-2.98-3.8-4.42-.74-.82-1.48-1.67-2.29-2.42-.25-.23-.58.11-.37.37.62.75,1.31,1.44,1.96,2.16.65.72,1.3,1.44,1.94,2.17,1.28,1.46,2.55,2.93,3.77,4.44.33.41.67.83,1,1.25.35.44.68.9,1.06,1.31,0,0,0,0,0,0,.34.43.67.86,1.02,1.28.95,1.17,1.92,2.33,2.89,3.49.33.39.88-.17.56-.56-.68-.81-1.36-1.63-2.05-2.44.67.08,1.27-.18,1.91-.32.36-.08.7-.06,1.06.02.34.07.69.17,1.04.15.36-.02.63-.18.91-.38.28-.2.58-.33.92-.38.72-.1,1.43.09,2.13.22.82.16,1.68.26,2.44-.15.25-.13.08-.54-.19-.45Z"/>
          <path class="cls-16" d="M112.77,112.71c-.44-.05-.87-.12-1.31-.15-.44-.03-.87-.07-1.31-.1-.87-.05-1.74-.11-2.61-.15-.84-.04-1.69-.02-2.49.22-.7.22-1.4.6-2.16.57-.39-.02-.75-.18-1.11-.3-.37-.12-.76-.17-1.15-.18-.77-.01-1.54.16-2.31.11-1.46-.08-2.34-1.3-3.11-2.39-.57-.81-1.15-1.63-1.72-2.44-.57-.81-1.12-1.64-1.75-2.41-.24-.29-.71.08-.52.4.46.77,1,1.49,1.52,2.22.52.73,1.03,1.47,1.55,2.2.82,1.17,1.68,2.53,3.11,3,.75.25,1.55.16,2.33.09.4-.03.8-.06,1.2-.03.39.03.74.17,1.11.3.79.26,1.53.16,2.3-.12.38-.13.75-.29,1.14-.39.41-.1.83-.14,1.25-.15.99-.01,1.98.07,2.97.11.5.02,1,.04,1.5.05.52.01,1.03,0,1.55-.01.3,0,.29-.42,0-.46Z"/>
        </g>
        <path class="cls-16" d="M130.25,127.88c-.41-.09-.85-.06-1.27-.08-.42-.02-.84-.04-1.26-.07-.82-.05-1.65-.11-2.47-.17-.82-.07-1.64-.15-2.46-.23-.83-.08-1.67-.14-2.5-.23-.31-.03-.38.49-.07.55.83.15,1.65.32,2.48.43.84.11,1.67.2,2.51.28.84.08,1.68.15,2.52.2.42.03.84.05,1.26.07.42.02.85.07,1.27,0,.39-.06.36-.68,0-.76Z"/>
        <g>
          <path class="cls-4" d="M65.11,185.28c0,.53-13.39.97-29.9.97s-29.9-.43-29.9-.97,13.39-.97,29.9-.97,29.9.43,29.9.97Z"/>
          <g>
            <path class="cls-6" d="M54.75,23.97s-1.26,6.59.32,9.55c0,0,2.32,5.21-.55,7.33-2.38,1.76-20.08-10.86-15.98-7.36l10.58-12.81,5.63,3.28Z"/>
            <path class="cls-6" d="M57.23,11.53c-2.38-1.15-3.82-4.34-6.08-4.74-1.99-.35-3.27.24-4.09.83.14-.16.29-.32.45-.46.17-.16.36-.29.52-.46.08-.08.09-.21.02-.29-.07-.09-.18-.11-.29-.06-.22.1-.42.27-.61.43-.18.16-.35.34-.51.52-.31.37-.56.77-.74,1.21,0,0-.02,0-.03,0-1.82-.49-4.63,1.12-6.25,3.63-1.62,2.51-1.74,6.15-2.86,6.57-2.88,1.08-6.1,7.68-6.24,10.82-.05,1.05.01,2.13-.37,3.13-.56,1.46.62,2.2.29,3.72-.29,1.34-2.23,2.97-1.32,3.82,1.65,1.56,4,2.05,6.3,2.13,1.21.05,2.44,0,3.63-.38,1.55-.48,2.95-1.47,4.24-2.56.8-.68,1.57-1.4,2.36-2.09.42-.37.87-.7,1.3-1.05.39-.32.77-.66,1.1-1.06,1.2-1.45,2.15-6.05,3.42-7.44,1.37-1.5,2.52-3.18,3.75-4.81,1.07-1.42-.32.42.75-1,0,0,3.93-3.87,4.05-6.55.1-2.3-.43-2.72-2.81-3.87Z"/>
          </g>
          <g>
            <path class="cls-8" d="M54.14,28.16c-.77,0-1.38-1.12-1.38-2.55s.61-2.55,1.38-2.55,1.38,1.12,1.38,2.55-.61,2.55-1.38,2.55ZM54.14,23.41c-.5,0-1.03.88-1.03,2.2s.53,2.2,1.03,2.2,1.03-.88,1.03-2.2-.53-2.2-1.03-2.2Z"/>
            <g>
              <path class="cls-3" d="M41.26,31.12c.84,1.06,1.7,2.08,2.45,3.21.71,1.07,1.36,2.17,2.13,3.2.74.99,1.6,1.92,2.51,2.76.81.75,1.7,1.45,2.69,1.94.08.04.16.08.25.12.01-.02.02-.04.03-.06.21-.44.37-.91.49-1.39.06-1.3.13-2.61.01-3.9-.37-.42-.71-.81-.94-1.07-.11-.13-.36-.5-.49-.65-.4-.47-.72-.78-1.02-1.25-.21-.33-.41-.68-.56-1.06-.11-.27-.18-.54-.21-.81-.05-.55-.03-1.16.09-1.7.11-.5.28-.91.42-1.43.08-.3.12-.32.2-.6.29-1.05.53-1.87.53-1.87l-2.71-2.68-4.02-3.97s-1.21,4.87-1.52,5.86c-.07.22-.14.46-.22.7,0,.02,0,.03-.02.04-.11.36-.24.73-.37,1.1v.02c-.2.55-.41,1.11-.64,1.6-.01.03-.02.06-.04.08-.02.04-.04.08-.06.12-.03.06-.06.12-.09.18.33.51.69,1.01,1.07,1.48Z"/>
              <path class="cls-15" d="M44.54,27.58c.9,1.6,2.52,2.28,4.2,2.73.11-.43.26-.81.38-1.28.08-.3.12-.32.2-.6.29-1.05.53-1.87.53-1.87l-2.71-2.68-3.47-2.39c.01,2.08-.19,4.18.87,6.08Z"/>
            </g>
            <path class="cls-19" d="M28.56,44.57c-.81-.15-1.61-.15-2.42.02-.45.09-.28.78.17.7.68-.13,1.36-.12,2.04,0,.47.09.69-.63.21-.72Z"/>
            <path class="cls-3" d="M56.81,19.15c-.04.5-.17,1.02-.22,1.44-.13,1.1-.71,2.27-1.1,3.31-1.04,2.79-3.25,5.01-5.26,5.04-3.42.05-6.73-4.15-6.64-7.44,0,0-2.4-1.59-.95-4.26.67-1.23,2.16-.94,2.58.06.38-.24.71-.58.93-.97.23-.41.39-.92.81-1.11.38-.17.82-.02,1.23.06,1.24.22,2.49-.31,3.57-.94.29-.17.62-.36.95-.28.33.08.54.39.65.71.1.32.12.66.23.97.1.3.28.57.51.78.34.31.79.48,1.22.65.43.17.87.36,1.19.7.3.32.35.8.31,1.3Z"/>
            <path class="cls-15" d="M49.87,18.95c-.07-.13-.18-.22-.32-.24-.02,0-.03,0-.04-.01,0,0-.01,0-.02,0,0,0-.01,0-.02,0-.47-.08-.76.52-.63.92,0,.09.03.18.09.25.06.07.15.11.24.13,0,0,.01.01.02.02.2.1.38.01.51-.15.26-.2.34-.62.16-.92Z"/>
            <path class="cls-15" d="M55.73,20.94c-.12-.3-.47-.44-.77-.29-.03.01-.05.03-.07.05-.08.05-.13.14-.16.23,0,.01,0,.02,0,.03,0,0,0,0,0,.01-.02.18-.03.36.03.53.12.33.53.39.79.19.23-.17.29-.49.18-.75Z"/>
            <g class="cls-23">
              <path class="cls-14" d="M51.97,23.39c0-.16-.13-.31-.29-.31-.16,0-.32,0-.48-.01-.16,0-.31.13-.31.29,0,.16.13.31.29.31.16,0,.32,0,.48.01.16,0,.31-.13.31-.29Z"/>
            </g>
            <path class="cls-6" d="M51.32,16.44c-.41.08-.84.09-1.25.19-.42.1-.82.25-1.23.37-.37.11-.24.69.14.59.41-.12.81-.27,1.23-.37.41-.1.83-.11,1.25-.19.38-.07.25-.66-.14-.59Z"/>
            <path class="cls-6" d="M56.9,19.51c-.17-.34-.44-.51-.75-.71-.33-.2-.68.29-.35.49.21.13.43.23.55.46.18.34.73.1.55-.25Z"/>
            <path class="cls-7" d="M51.71,25.67s-1.8-.62-2.72-1.35c-.83-.66-.29,1.95.23,2.11,1.47.47,2.49-.76,2.49-.76Z"/>
            <path class="cls-8" d="M43.13,20.27c-.14.04-.12.28-.12.28,0,0,0,0,0,0,.2.43.03,1.3-.64,2.19-.79,1.05-1.74,1.44-2.14,1.15-.4-.3-.29-1.32.49-2.38.61-.82,1.33-1.24,1.8-1.24-.07-.12-.12-.24-.16-.34-.6.08-1.34.58-1.93,1.37-.86,1.14-1.04,2.4-.42,2.87.62.46,1.77-.07,2.63-1.22.74-.99.98-2.06.63-2.63-.03-.04-.08-.07-.15-.05Z"/>
          </g>
          <path class="cls-15" d="M64.81,116.04l3.45,5.4s.98,3.04-2.71,3.85c-3.69.81-3.32,1.06-2.4,3.06.92,2-12.93,9.61-17.9,10.25-4.96.64-9.99.6-9.1-1.86.89-2.46-1.59-1.68-5.11-1.27-3.51.41-.74-4.81-.74-4.81,0,0-9.73,5.58-8.06-2.12,1.67-7.7,13.59-16.52,23.19-21.29,9.6-4.77,19.37,8.79,19.37,8.79Z"/>
          <path class="cls-3" d="M59.48,110.36s-1.62,21.11-2.64,25.12c-1.01,4.01-2.83,13.09-4.25,23.19-1.42,10.1-2.43,14.82-1.62,17.31.81,2.48,11.91,5.81,12.31,7.48.4,1.67-11.91.15-18.78-.61-6.87-.76-4.24-3.34-1.61-9.57,2.63-6.24-.19-18.07.01-26.05.21-7.98,3.03-9.57,3.24-13.6.2-4.03-1.64-19.05-1.64-19.05,0,0,11.14-5.08,14.98-4.21Z"/>
          <path class="cls-8" d="M55.97,179.41c-.44.18.1.68-.23,1.03-.98,1.04-3.96.97-6,.71-.91-.12-1.81-.33-2.66-.69-.74-.31-1.46-.72-1.97-1.35-.24-.3-.42-.63-.52-1-.11-.4-.2-.89-.1-1.3.19-.74,1.02-.66,1.61-.62.97.06,1.93-.03,2.87-.31.51-.15,1.01-.35,1.46-.64.11-.07.21-.14.31-.21-.07-.54-.09-1.17-.07-1.89-1.16.52-2.4.91-3.66,1.05-.82.09-1.69.05-2.47-.2-.39-.12-.74-.29-1.06-.55-.17-.15-.33-.31-.5-.46-.04.1-.07.2-.12.3-2.63,6.24-5.25,8.82,1.61,9.57,6.87.76,18.76,2.33,18.78.61.01-.77.55-2.57-7.31-4.05Z"/>
          <path class="cls-15" d="M40.13,180.22v4.83s1.52.52,5.76.24v-2.3s3.43,1.5,5.49,2.19c2.06.69,3.49.53,7.18.59,3.69.06,4.83-.24,5.01-.48s.06-2.09-.15-2.36c-.21-.27.21.15-3.66.14-3.87,0-10.78-.03-12.97-.79-2.19-.75-5.03-1.9-6.67-2.07Z"/>
          <path class="cls-3" d="M30.97,120.36s-.39,8.1-2,9.57c-1.62,1.47-6.98,5.98-9.35,13.13-2.88,8.68-4.32,12.64-4.29,11.66,0,0-2.61.23-3.21,3.26-.61,3.03-4.86,16.69-3.45,18.84,1.41,2.15,7.67,4.39,8.68,2.97,1.01-1.42,2.22-16.97,4.44-22.22,2.22-5.25,14.25-19.93,18.69-23.55,4.44-3.62,6.66-20.2,6.66-20.2,0,0-8.65-3.62-16.17,6.54Z"/>
          <path class="cls-13" d="M47.18,113.18c-.36.79-.47,1.71-.64,2.55-.17.83-.34,1.67-.51,2.5-.17.83-.34,1.67-.51,2.5-.18.87-.31,1.75-.45,2.62-.04.26.32.37.4.11.25-.85.51-1.69.71-2.55.2-.83.39-1.66.58-2.49.19-.83.37-1.66.56-2.49.09-.42.18-.83.27-1.25.09-.45.19-.9.18-1.36,0-.29-.45-.46-.59-.16Z"/>
          <path class="cls-1" d="M33.09,65.57s-6.14,5.29-8.44,19.81c-1.45,9.13-2.4,43.16-2.4,43.16,0,0,1.51-2.34,3.71-3.89,3.21-2.26,3.04-1.5,3.36-2.67,4.22-3.62,14.97-7.29,16.52-7.67,2.28-.55,1.55,1.37,1.55,1.37,0,0,4.36-2.89,8.22-4.11,3.86-1.22,4.42.26,4.42.26,0,0,.34,1.99.38,3.37.05,1.56,1.14,1.76,1.14,1.76,0,0,5.13,1.62,6.71,4.48,0,0-6.23-29.06-8.75-38.33-2.52-9.27-7.49-18-7.49-18l-18.93.46Z"/>
          <path class="cls-8" d="M32.78,63.31l.3,2.26s6.03.63,11.8.59c5.23-.04,7.13-1.05,7.13-1.05v-2.72l-19.23.92Z"/>
          <path class="cls-15" d="M13.03,156s-1.53,1.1-1.73,2.17c-.2,1.08-.84,3.88-.84,3.88.39,0,.43-.05.23.59-.2.64-1.92,7.57-2.31,9.36-.39,1.78-1.23,5.49-.76,6.78.47,1.29,3.41,2.51,5.67,3.12,2.25.61,3.27.25,3.68-.29.41-.54.8-1.91.59-2.21-.21-.3-5.19-2.42-5.82-3.02-.63-.6.03-12.61.27-14.11.25-1.5,1.01-6.28,1.01-6.28Z"/>
          <path class="cls-8" d="M12.12,157.98c-.61,3.03-4.86,16.69-3.45,18.84,1.41,2.15,7.67,4.39,8.68,2.97.73-1.02,1.03-4.12,1.92-10.71,0,0-.5,2.12-1.66,3.56-.85,1.06-.3-.12-2.74-.47-.88-.13-2.31.26-2.66-.77-.5-1.5-.59-3.56-.49-5.81.21-4.58,1.76-8.99,1.92-8.28.21.92-.26,3.49,2.08,4.92,1.57.96,4.02.23,4.82-.38.29-1.01.33-1.46.58-2.33-1,1.23-3.88,1.5-5.44,0-1.56-1.5-.37-4.78-.37-4.78,0,0-2.61.23-3.21,3.26Z"/>
          <g>
            <path class="cls-3" d="M67.41,46.12c-.09.29-7.04,9.61-10.99,13.18-5.33,4.81-7.94-.42-8.87-2.28-.94-1.86,7.19-13.11,7.19-13.11l2.76,3.19,9.91-.98Z"/>
            <path class="cls-1" d="M34.25,32.41l-1.42-4.21s3.75.75,5.66.68c1.6-.06,2.31-.68,2.31-.68,0,0,7.39,12,9.51,12.85,2.12.85-.07-5.94-.07-5.94,0,0,1.12.68,2.17,1.61,1.91-.59,9.52,12.06,6.54,13.55-5.74,2.87-5.71,9.31-6.92,12.13-1.21,2.81-17.52,1.24-19.23.92,0,0-1.78-1.88-1.68-6.3.1-4.42-2.85-15.55-2.85-15.55l5.99-9.06Z"/>
            <path class="cls-7" d="M55.16,48.63c-.36-1.07-.77-2.13-1.04-3.23-.32-1.28-.49-2.59-.59-3.91-.02-.29-.44-.29-.45,0-.04,1.15.07,2.3.3,3.43.23,1.12.58,2.19.96,3.27.36,1.02.73,2.07.8,3.16.07,1.05-.21,2.01-.65,2.95-.24.52-.55,1.02-.75,1.56-.77,2.09-1.64,5.29-1.74,6.53-.03.35.37.36.42,0,.19-1.35,1.11-4.47,1.85-6.22.2-.47.45-.91.67-1.36.44-.93.8-1.89.83-2.93.03-1.11-.27-2.21-.63-3.25Z"/>
            <g>
              <path class="cls-12" d="M24.64,50.27s3.08.28,5.59,0c2.52-.28,1.1-1.56,2.51-2.08,1.41-.53,5.33-1.18,7.34-2.11,2.02-.93,3.76-3.54,3.76-3.54,0,0-5.59-1.01-8.16-1.07-2.57-.05-8.2,4.92-8.74,5-.54.08-2.31,3.81-2.31,3.81Z"/>
              <path class="cls-3" d="M64.59,47.36l-.45.23s-1.55,1.83-3.16,2.68c-1.62.86-4.18-4.52-4.18-4.52,0,0,1.85-.51,2.02-1.22.18-.7-.02-1.13.81-1.99.84-.86,1.12-1.09,1.12-1.09,0,0,.66-2.02.83-2.77.18-.75.99-.59,1.26-.08.27.51.53.85.53.85l.44.42s.46-.42.71-.51c.25-.1.13-.78.61-1.05.48-.27.8-.4.8-.4,0,0-.18-.57.3-.93.49-.36,1.57-.36,2.46-.06.89.3,1.24.89,1.14,1.25-.1.35-.15.51-.15.51,0,0,.74.72.34,1.2-.4.48-.55.55-.48,1.14.08.59.31.8-.08,1.28-.38.48-.69.86-.59,1.62.07.54-.67,1.42-1.11,1.88-.19.2-.96.79-1.22.9l-1.97.65"/>
              <path class="cls-3" d="M56.79,45.75c-4.11,1.13-12.31,1.2-13.35,1.35l-3.63-7.93s-2.09-5.86-4.88-5.59c-3.34.32-5.94,5.26-5.94,5.26l3.02,7.29s2.87,9.96,9.17,10.82c6.3.86,20.02-6.8,20.02-6.8,0,0-4.01-4.5-4.4-4.39Z"/>
              <path class="cls-13" d="M43.85,46.74c-.33-.07-.68-.06-1.01-.04-.35.02-.69.06-1.03.13-.32.06-.64.15-.95.25-.31.11-.69.22-.94.44-.24.22.04.53.28.48h0c.29-.04.58-.21.86-.3.29-.09.59-.16.89-.22.29-.05.59-.08.89-.09.31-.01.61.03.92,0,.36-.02.48-.58.09-.66Z"/>
              <path class="cls-12" d="M37.25,43.06l1.18,2.13s.79-.59.83-1.65-2.01-.48-2.01-.48Z"/>
              <path class="cls-1" d="M43.85,42.53s-3.08-7.37-7.27-11.84c-4.2-4.47-7.37-2.42-8.76.47-1.4,2.89-3.17,19.11-3.17,19.11,0,0,3.19-.19,4.34-.84,1.16-.65-1.16-1.77,0-2.52,1.16-.75,7.96-3.45,9.18-3.45s-.47,2.14.65,1.77c1.12-.37,5.03-2.7,5.03-2.7Z"/>
              <path class="cls-12" d="M38.63,42.75c-.23-.78-.57-1.54-.88-2.3-.31-.77-.63-1.53-.97-2.29-.66-1.52-1.38-3.01-2.15-4.48-.13-.25-.49-.03-.37.22.71,1.48,1.39,2.98,2.05,4.49.33.76.65,1.53.96,2.3.3.75.56,1.53.91,2.26.12.25.52.07.44-.19Z"/>
              <path class="cls-12" d="M27.81,43.99c-.12-.96-.2-1.93-.24-2.89-.04-.97-.05-1.94-.01-2.9.02-.48.05-.95.08-1.43.04-.5.12-1.01.13-1.52,0-.3-.45-.37-.52-.07-.11.48-.14,1-.18,1.49-.04.47-.07.95-.09,1.43-.04,1-.04,2,0,3,.04.98.14,1.96.27,2.93.13.97.27,1.99.58,2.93.07.21.44.19.41-.06-.11-.97-.31-1.94-.44-2.91Z"/>
              <path class="cls-13" d="M69.84,37.43c-.48-.39-1.04-.68-1.65-.8-.6-.12-1.22-.09-1.8.09-.23.07-.48.18-.61.4-.14.23-.06.49-.08.74-.07.02-.14.05-.2.08-.49.22-.93.68-1.01,1.23,0,0,0,0,0,.01-.23.06-.45.17-.61.34-.08-.08-.48-.11-.58-.11-1.53,0-2.31,1.34-2.85,1.96-.18.21.09.47.3.3.55-.45,1.34-1.75,2.85-1.64-.06.25-.03.51.11.73-.07.15-.1.32-.11.48-.03.36.04.72.19,1.05.29.66.86,1.14,1.48,1.49.15.09.34.13.4.31.07.22.11.46.17.68.13.49.26.97.37,1.46.06.26.46.15.41-.11-.1-.48-.18-.96-.27-1.44-.06-.37-.07-.89-.38-1.15-.27-.23-.63-.36-.92-.58-.33-.25-.61-.57-.77-.95-.07-.17-.13-.37-.14-.55,0-.1.04-.23.03-.33,0,0,0-.01,0-.02.03.01.05.03.08.04.29.17.52.43.79.62.34.25.7.31,1.1.36.46.06.77.28,1.12.57.25.21.58-.11.36-.36-.25-.28-.5-.52-.86-.66-.35-.13-.74-.09-1.09-.22-.31-.11-.54-.36-.79-.56-.21-.17-.51-.41-.8-.39-.08-.21-.02-.46.14-.63.23-.24.62-.28.94-.23.79.12,1.55.75,2.37.57.28-.06.19-.44-.06-.46-.26-.02-.51-.05-.77-.13-.22-.07-.44-.16-.66-.24-.35-.13-.71-.24-1.08-.24.16-.35.48-.59.84-.72.26-.09.53-.14.8-.15.3-.01.66.06.94-.08.16-.08.15-.33,0-.41-.16-.09-.34-.08-.52-.09-.17,0-.35,0-.52.02-.1,0-.2.02-.3.04,0-.07,0-.15,0-.22,0-.22.17-.27.35-.33.44-.13.91-.16,1.36-.09.45.07.87.24,1.26.49.16.1.43.24.51.42.07.16-.04.36-.14.48-.23.26.15.64.38.38.4-.44.45-1.04-.04-1.43Z"/>
              <path class="cls-13" d="M65.53,44.03c-.23.35-.32.8-.48,1.18-.17.41-.33.83-.58,1.18-1.52,2.09-2.14,2.42-2.72,2.82-.63.43-1.27.85-1.92,1.25-.64.4-1.29.79-1.95,1.16-.64.36-1.28.74-1.95,1.03-.23.1-.06.49.17.4,1.44-.52,2.76-1.34,4.05-2.14.66-.41,1.32-.84,1.96-1.28.46-.32.93-.64,1.34-1.03.63-.5,1.12-1.19,1.54-1.87.24-.39.44-.8.62-1.21.18-.42.43-.9.42-1.37,0-.27-.35-.35-.49-.13Z"/>
              <path class="cls-13" d="M64.09,45.75c-.23-.14-.52-.07-.77,0-.2.07-.46.21-.66.1-.21-.12-.35-.33-.58-.44-.23-.1-.48-.14-.72-.2-.21-.06-.4-.14-.46-.36-.06-.23-.03-.48-.08-.71-.02-.13-.07-.26-.15-.37-.08-.12-.21-.19-.3-.3-.17-.22,0-.54.05-.78.06-.23-.27-.38-.38-.16-.22.42-.31.99.05,1.35.08.07.16.13.2.23.04.09.04.2.05.29.01.22,0,.46.09.67.16.44.57.59,1,.69.19.04.39.08.55.2.2.14.33.34.57.42.23.08.48.03.71-.05.12-.04.24-.09.36-.12.12-.03.21-.01.33,0,.26.02.33-.34.13-.46Z"/>
              <path class="cls-12" d="M44.15,42.53c-.14-.43-.36-.83-.57-1.23-.21-.41-.43-.81-.65-1.22-.43-.78-.87-1.55-1.33-2.32-.94-1.56-1.95-3.06-3.02-4.52-.16-.21-.51-.01-.36.21,1.01,1.48,1.98,3,2.9,4.54.46.76.9,1.54,1.33,2.32.21.39.42.78.63,1.18.21.41.4.83.67,1.21.14.2.51.09.43-.18Z"/>
            </g>
          </g>
          <path class="cls-12" d="M60.11,105.07c-.05-.3-.53-.22-.52.07,0,.91.07,1.82.06,2.74-.01.91-.06,1.83-.14,2.73-.02.25.4.31.44.06.17-.93.28-1.85.31-2.79.03-.93.02-1.9-.15-2.81Z"/>
          <path class="cls-12" d="M48.83,92.97c0-1.81-.01-3.62-.1-5.43-.02-.37-.57-.37-.58,0-.03,1.61-.01,3.23,0,4.84,0,1.61.01,3.23,0,4.84,0,3.19-.04,6.39-.09,9.58-.03,1.81-.08,3.62-.04,5.43,0,.27.39.26.41,0,.26-3.21.28-6.45.33-9.68.05-3.19.07-6.39.06-9.58Z"/>
          <path class="cls-12" d="M30.09,92.79c-.71,3.64-1.11,7.35-1.41,11.04-.3,3.7-.45,7.42-.43,11.13.01,2.1.09,4.2.21,6.29.02.3.47.28.46-.02-.11-3.7-.08-7.4.07-11.1.15-3.68.44-7.35.87-11.01.24-2.07.53-4.14.8-6.2.05-.37-.5-.51-.57-.13Z"/>
        </g>
      </g>
    </g>
  </g>
</svg>