<?xml version="1.0" encoding="UTF-8"?>
<svg xmlns="http://www.w3.org/2000/svg" version="1.1" xmlns:xlink="http://www.w3.org/1999/xlink" viewBox="0 0 236.94 258.04">
  <defs>
    <style>
      .cls-1 {
        fill: #fefcfd;
      }

      .cls-2 {
        fill: url(#radial-gradient-3);
      }

      .cls-2, .cls-3, .cls-4, .cls-5, .cls-6, .cls-7, .cls-8, .cls-9, .cls-10, .cls-11, .cls-12 {
        stroke: #000;
        stroke-miterlimit: 10;
        stroke-width: 1.45px;
      }

      .cls-3 {
        fill: url(#linear-gradient-2);
      }

      .cls-4 {
        fill: url(#radial-gradient-4);
      }

      .cls-5 {
        fill: url(#radial-gradient-8);
      }

      .cls-6 {
        fill: url(#radial-gradient-2);
      }

      .cls-7 {
        fill: url(#linear-gradient);
      }

      .cls-8 {
        fill: url(#radial-gradient-5);
      }

      .cls-9 {
        fill: url(#radial-gradient-7);
      }

      .cls-10 {
        fill: url(#radial-gradient);
      }

      .cls-11 {
        fill: url(#radial-gradient-6);
      }

      .cls-12 {
        fill: url(#linear-gradient-3);
      }
    </style>
    <linearGradient id="linear-gradient" x1="26.86" y1="143.1" x2="133.16" y2="143.1" gradientUnits="userSpaceOnUse">
      <stop offset="0" stop-color="#0f8d82"/>
      <stop offset="1" stop-color="#5e2f81"/>
    </linearGradient>
    <linearGradient id="linear-gradient-2" x1="120.39" y1="145.99" x2="206.9" y2="145.99" gradientUnits="userSpaceOnUse">
      <stop offset=".25" stop-color="#cfdc2a"/>
      <stop offset="1" stop-color="#1ea6c4"/>
    </linearGradient>
    <linearGradient id="linear-gradient-3" x1="100.53" y1="133.32" x2="137.76" y2="133.32" xlink:href="#linear-gradient-2"/>
    <radialGradient id="radial-gradient" cx="154.73" cy="94.18" fx="154.73" fy="94.18" r="12.79" gradientUnits="userSpaceOnUse">
      <stop offset="0" stop-color="#ee6e0f"/>
      <stop offset=".21" stop-color="#ed6a12"/>
      <stop offset=".42" stop-color="#ec5e1e"/>
      <stop offset=".63" stop-color="#ea4a32"/>
      <stop offset=".84" stop-color="#e72e4d"/>
      <stop offset="1" stop-color="#e41369"/>
    </radialGradient>
    <radialGradient id="radial-gradient-2" cx="135.11" cy="93.89" fx="135.11" fy="93.89" r="14.69" xlink:href="#radial-gradient"/>
    <radialGradient id="radial-gradient-3" cx="172.31" cy="93.73" fx="172.31" fy="93.73" r="14.58" xlink:href="#radial-gradient"/>
    <radialGradient id="radial-gradient-4" cx="154.69" cy="68.19" fx="154.69" fy="68.19" r="8.9" xlink:href="#radial-gradient"/>
    <radialGradient id="radial-gradient-5" cx="129.06" cy="68.89" fx="129.06" fy="68.89" r="8.2" xlink:href="#radial-gradient"/>
    <radialGradient id="radial-gradient-6" cx="165.64" cy="67.05" fx="165.64" fy="67.05" r="7.91" xlink:href="#radial-gradient"/>
    <radialGradient id="radial-gradient-7" cx="179.27" cy="68.73" fx="179.27" fy="68.73" r="7.75" xlink:href="#radial-gradient"/>
    <radialGradient id="radial-gradient-8" cx="141.81" cy="66.68" fx="141.81" fy="66.68" r="7.73" xlink:href="#radial-gradient"/>
  </defs>
  <!-- Generator: Adobe Illustrator 28.7.1, SVG Export Plug-In . SVG Version: 1.2.0 Build 142)  -->
  <g>
    <g id="Layer_1">
      <g>
        <circle class="cls-1" cx="118.47" cy="134" r="106.62"/>
        <g>
          <path class="cls-7" d="M125.26,115.31c11.74,18.02,10.25,43.95-3.42,60.74-12.09,14.86-27.85,21.49-46.87,20.11-23.19-1.68-43.55-20.45-47.31-43.31-4.89-29.69,12.92-56.01,42.38-61.93,15.31-3.07,29.42.46,42.07,9.72,1.31.96,1.68,1.65.32,2.91-1.35,1.26-2.55,2.7-3.65,4.18-.86,1.16-1.38,1.21-2.62.31-12.93-9.31-27.01-11.35-41.93-5.79-30.26,11.29-37.92,51.41-13.95,73.03,12.98,11.71,28.13,14.88,44.49,9.01,16.29-5.84,25.81-17.97,28.6-35.06,1.36-8.29.11-16.4-3.47-24.06-.57-1.22-.63-2.12.16-3.29,1.54-2.28,3.24-4.4,5.19-6.58Z"/>
          <path class="cls-3" d="M170.18,102.43c1.86-2.07,3.69-4.01,5.38-6.06,1.06-1.28,1.99-.87,3.14-.23,15.59,8.7,25.12,21.82,27.64,39.47,3.85,26.88-12.49,51.76-38.49,58.8-16.63,4.51-32.07,1.48-46.11-8.6-1.49-1.07-1.94-1.81-.37-3.25,1.71-1.57,2.94-4.45,4.79-4.83,1.54-.32,3.61,2.22,5.53,3.36,26.93,15.9,62.34-1.84,65.52-32.81,2-19.54-7.87-36.91-25.67-45.14-.58-.27-1.13-.58-1.37-.71Z"/>
          <path class="cls-12" d="M108.39,170.99c-11.7-18.12-10.15-44.26,3.37-60.71,4.72-5.75,10.21-10.48,16.73-14.08,1.58-.87,2.52-.69,3.69.6,1.68,1.84,3.58,3.48,5.57,5.38-3.9,1.8-7.58,3.75-10.9,6.32-15.96,12.34-21.48,33.98-13.22,52.38.67,1.5.7,2.59-.27,3.94-1.51,2.09-3.02,4.16-4.97,6.16Z"/>
          <path class="cls-10" d="M153.82,108.77c-3.32-9.58-6.43-18.63-9.61-27.66-.47-1.32,0-1.51,1.16-1.51,6.21.03,12.42.03,18.62,0,1.31,0,1.76.24,1.19,1.62-3.74,8.99-7.43,18-11.36,27.55Z"/>
          <path class="cls-6" d="M149.87,108.19c-9.78-9.38-19.56-18.75-29.82-28.58,6.73,0,12.82.02,18.9-.02,1.03,0,1.36.54,1.65,1.38,3.18,9,6.38,18,9.58,26.99-.1.07-.21.15-.31.22Z"/>
          <path class="cls-2" d="M187.3,79.61c-10.19,9.74-19.88,19.01-29.58,28.29-.13-.08-.27-.16-.4-.24,1.16-2.7,2.32-5.4,3.49-8.1,2.62-6.06,5.27-12.11,7.86-18.18.49-1.14.98-1.82,2.41-1.8,5.15.09,10.31.04,16.23.04Z"/>
          <path class="cls-4" d="M164.46,76.12c-6.45,0-12.4,0-18.36,0-.78,0-1.61,0-.92-1.17,2.8-4.79,5.59-9.58,8.58-14.69,3.6,5.33,6.99,10.37,10.69,15.86Z"/>
          <path class="cls-8" d="M120.01,76.13c3.37-4.89,6.45-9.32,9.47-13.78.72-1.07,1.15-.85,1.66.1,2.23,4.11,4.45,8.22,6.7,12.32.62,1.13.16,1.38-.92,1.38-5.47-.02-10.93,0-16.91,0Z"/>
          <path class="cls-11" d="M157.45,59.43c5.54,0,10.5,0,15.45,0,.93,0,1.11.35.74,1.18-1.96,4.55-3.9,9.11-6.01,14.07-3.43-5.13-6.62-9.9-10.19-15.24Z"/>
          <path class="cls-9" d="M177.15,61.33c3.42,4.95,6.65,9.63,10.2,14.79-5.43,0-10.37,0-15.3,0-1.04,0-.97-.48-.65-1.22,1.89-4.41,3.75-8.83,5.76-13.57Z"/>
          <path class="cls-5" d="M133.52,59.56h16.58c-2.78,4.77-5.39,9.26-8.01,13.75-.47.8-.81.52-1.17-.13-2.4-4.44-4.82-8.88-7.4-13.62Z"/>
        </g>
      </g>
    </g>
  </g>
</svg>