<?xml version="1.0" encoding="UTF-8"?>
<svg xmlns="http://www.w3.org/2000/svg" version="1.1" xmlns:xlink="http://www.w3.org/1999/xlink" viewBox="0 0 147.25 136.36">
  <defs>
    <style>
      .cls-1 {
        fill: url(#radial-gradient-2);
        stroke-width: 1.69px;
      }

      .cls-1, .cls-2 {
        stroke: #000;
        stroke-miterlimit: 10;
      }

      .cls-2 {
        fill: url(#radial-gradient);
        stroke-width: 1.7px;
      }
    </style>
    <radialGradient id="radial-gradient" cx="2405.4" cy="600.4" fx="2405.4" fy="600.4" r="67.76" gradientTransform="translate(2467.92 586.95) rotate(-153.49) scale(.99 -1)" gradientUnits="userSpaceOnUse">
      <stop offset="0" stop-color="#0f8d82"/>
      <stop offset="1" stop-color="#5e2f81"/>
    </radialGradient>
    <radialGradient id="radial-gradient-2" cx="2419.44" cy="596.26" fx="2419.44" fy="596.26" r="32.76" gradientTransform="translate(2463.36 584.67) rotate(-153.49) scale(.98 -1)" gradientUnits="userSpaceOnUse">
      <stop offset="0" stop-color="#ee6e0f"/>
      <stop offset=".21" stop-color="#ed6a12"/>
      <stop offset=".42" stop-color="#ec5e1e"/>
      <stop offset=".63" stop-color="#ea4a32"/>
      <stop offset=".84" stop-color="#e72e4d"/>
      <stop offset="1" stop-color="#e41369"/>
    </radialGradient>
  </defs>
  <!-- Generator: Adobe Illustrator 28.7.1, SVG Export Plug-In . SVG Version: 1.2.0 Build 142)  -->
  <g>
    <g id="Layer_1">
      <g>
        <path class="cls-2" d="M3.8,4.71l80.26,4.39c3.12.17,6.02,1.61,8.04,4l51.26,60.42c.44.52.31,1.23-.14,1.62h.02c-.08.07-.16.14-.24.21-.06.03-.12.05-.18.08,0,0,0,0-.01,0-.09,0-.17-.01-.27-.02-.04,0-.09.02-.13.01-4.53-.24-13.98-.73-21.81-1.17l-4.54,9.64c6.44,6.45-2.07,6.77-2.07,6.77l-3.03,5.91c-.4.77-1.04,1.34-1.76,1.8-.94.6-1.44,2.39-1.44,2.39l-11.82,32.39-2.73-1.48c-2.09,2.44-3.98-.07-3.98-.07l-3.14-4.21,18.23-27.99c1.14-1.02,1.34-2.04,1.27-2.77-.08-.93.1-1.88.55-2.73l2.89-5.47c-4.79-8.03,4.7-5.94,4.7-5.94l4.18-8.38c-5.46-.31-9.6-.55-9.71-.61h0s0,0,0,0l2.45-5.78c-13.3-20.35-35.28-31.14-35.28-31.14,0,0-21.97-10.81-46.28-9.09l-3.17,5.49c-.3-.15-18.14-21.57-22.72-27.08-.4-.49-.03-1.22.6-1.19Z"/>
        <path class="cls-1" d="M107.52,68.39l-10.23,20.5C67.17,47.83,20.9,50.78,20.9,50.78l10.23-20.5c52.82,2.06,76.4,38.11,76.4,38.11Z"/>
      </g>
    </g>
  </g>
</svg>