<?xml version="1.0" encoding="UTF-8"?>
<svg xmlns="http://www.w3.org/2000/svg" version="1.1" viewBox="0 0 312.02 184.12">
  <defs>
    <style>
      .cls-1 {
        fill: #201b2c;
      }

      .cls-2 {
        opacity: .76;
      }

      .cls-3 {
        opacity: .28;
      }

      .cls-3, .cls-4 {
        fill: #070716;
      }

      .cls-5 {
        fill: #603a3e;
      }

      .cls-6 {
        opacity: .3;
      }

      .cls-6, .cls-7, .cls-8, .cls-9, .cls-10, .cls-11 {
        fill: #1f1f39;
      }

      .cls-7 {
        opacity: .63;
      }

      .cls-12 {
        fill: #334;
      }

      .cls-13 {
        fill: #32323f;
      }

      .cls-13, .cls-9 {
        opacity: .14;
      }

      .cls-14 {
        fill: #2e2e49;
      }

      .cls-15 {
        fill: #fff;
      }

      .cls-16 {
        fill: #f4ad00;
      }

      .cls-17 {
        fill: #0267a4;
      }

      .cls-18 {
        fill: #eeada5;
      }

      .cls-19 {
        fill: #efaea6;
      }

      .cls-20 {
        fill: #775155;
      }

      .cls-21 {
        fill: #cd2b31;
      }

      .cls-4 {
        opacity: .17;
      }

      .cls-22 {
        fill: #f5b1b4;
      }

      .cls-23 {
        fill: #3b3b4c;
      }

      .cls-10 {
        opacity: .4;
      }

      .cls-24 {
        fill: #0067a7;
      }

      .cls-11 {
        opacity: .18;
      }
    </style>
  </defs>
  <!-- Generator: Adobe Illustrator 28.7.1, SVG Export Plug-In . SVG Version: 1.2.0 Build 142)  -->
  <g>
    <g id="Layer_1">
      <g>
        <path class="cls-15" d="M177.17,71.76c-.63-1.1-1.38-2.01-2.33-2.5-.22-.12-.5-.19-.81-.24.69-.83,1.59-2.07,2.01-2.87.46.18.89.45,1.26.86.55.6,1.15,1.54,1.72,2.55-.32,1.01-1.17,1.75-1.84,2.2Z"/>
        <path class="cls-15" d="M229.44,92.05c-4.11-2.35-4.73-4.25-2.52-5.92,2.21-1.67.37.81,3.23,1.28,2.85.47,2.97.18,2.15,2.22-.82,2.04-2.85,2.42-2.85,2.42Z"/>
        <path class="cls-21" d="M117.65,15.52c-5.71,4.31,12.14,25.48,35.27,37.21,20.86,10.57,25.31,9,48.76,9.35,16.05.24,34.44,13.27,35.81,10.87,3.17-5.54-17.22-16.04-34.38-17.46-9.26-.76-25.52,1.66-45.53-10.69-26.45-16.33-29.01-32.66-31.49-31.72-2.13.82-1.51,4.78-3.12,6.02-1.76,1.36-4.05-4.55-5.33-3.58Z"/>
        <path class="cls-13" d="M109.86,173.01c0,1.73,35.53,3.73,76.47,3.73s74.12-1.4,74.12-3.13-33.19-3.13-74.12-3.13-76.47.79-76.47,2.52Z"/>
        <g>
          <g>
            <path class="cls-1" d="M181.91,45.73s0,0,0,0c.02.01.04.02.06.04.34.2.6.49.71.84,0,.02.02.05.02.07,0,.03.01.06.02.09l.21,1.17s0,0,0,0h0s0,.05,0,.05t0,0l.02.09.23,1.29.63,3.44c.04.23.02.46-.05.68-.22.68-.92,1.26-1.84,1.43l-1.3.25-2.07.4s-.03,0-.04-.03l-.21-1.12s0-.03.02-.04l2.07-.4h0s.3-.06.3-.06c.68-.13,1.2-.56,1.37-1.05.06-.17.08-.35.04-.52l-.53-2.91-.23-1.26h0s-.06-.35-.06-.35c-.06-.33-.28-.6-.6-.77-.27-.15-.62-.23-.99-.21-.09,0-.18.02-.27.03h-.01s-.26.05-.26.05l-2.1.4h-.01s-.03,0-.03-.03l-.21-1.12s0-.03.02-.04h.01s2.11-.41,2.11-.41l1.25-.24c.62-.12,1.22-.03,1.68.22Z"/>
            <path class="cls-1" d="M181.92,45.72s0,0,0,0h0s.04.02.06.03c.35.2.61.49.72.85,0,.02.02.05.02.07,0,.03.01.06.02.09l.2,1.17h0s0,.05,0,.05t0,0s-.01.03-.03.03l-.33-.04h0s0,0,0,0h0s-.56-.07-.56-.07h-.01s0,0,0,0l-.66-.09c-.06-.33-.28-.6-.6-.77h0c-.28-.15-.63-.23-1-.21-.09,0-.18.02-.27.03h-.01s-.26.05-.26.05l-2.1.4h0s-.03-.01-.03-.03l-.21-1.12s0-.04.02-.04l2.11-.4,1.26-.24c.62-.12,1.22-.03,1.68.22Z"/>
            <g>
              <path class="cls-5" d="M172.41,32.98l-15.09,2.8c-.91.17-1.51,1.11-1.33,2.1v.02s4.86,29.39,4.86,29.39c.59,3.31,2.73,2.89,3.63,2.72l14.34-2.18c.9-.17,3.05-1.78,2.54-4.42l-4.61-26.09-.17-.98c-.38-2.15-2.14-3.73-4.16-3.36Z"/>
              <path class="cls-20" d="M172.41,32.98l-15.09,2.8c-.91.17-1.51,1.11-1.33,2.1h0s.01.02.02.03c.95.17,2.4.12,4.59-.45,5.31-1.39,11.71-.84,16.11-.14.02,0,.04-.02.03-.04l-.16-.94c-.38-2.15-2.14-3.73-4.16-3.36Z"/>
            </g>
          </g>
          <path class="cls-19" d="M283.93,42.05c1.25-.94,10.52-12.74,11.84-11.83,1.32.91-3.99,4.42-2.55,5.06,1.45.63,3.65,1.98,1.43,3.69-2.22,1.7-2.45,0-5.37,4.54-2.2,3.42-5.36-1.45-5.36-1.45Z"/>
          <g>
            <path class="cls-15" d="M198.74,165.21c1.78-1.77,5.66-6.74,5.66-6.74l-4.94-4.4-5.77,7.53,1.44,5.11,3.61-1.49Z"/>
            <path class="cls-8" d="M199.81,164.74c.63.34-.03.64-.54,1.59-1.17,2.17,4.94,3.89,6.13,4.47.62.3,1.26,3.33-2.1,2.97-3.6-.39-5.49-.06-13.01-7.12-.49-.46-.62-1.18-.31-1.77,1.12-2.1,3.64-4.67,4.36-4.13,1.29.58,2.86,2.57,5.47,3.99Z"/>
          </g>
          <g>
            <path class="cls-15" d="M192.53,141.95c2.52-.59,8.64-2.85,8.64-2.85l-1.95-6.55-9.16,3.48-1.51,5.28,3.98.65Z"/>
            <path class="cls-8" d="M193.72,142.11c.36.64-.37.54-1.34,1.1-2.21,1.28-1.57,8.59-1.41,9.96.08.71-1.98,2.47-3.16-.82-.99-2.75-.72-3.45-3.49-13.74-.18-.67.09-1.37.69-1.72,2.13-1.24,5.74-2.12,6.07-1.26.82,1.21,1.12,3.81,2.64,6.47Z"/>
          </g>
          <path class="cls-23" d="M203.55,79.83c6.2.79,10.42,9.95,11.76,15.81,3.34,14.6,8.95,28.71,8.17,35.04-.87,7.06-20.03,30.77-21.21,32.07-1.18,1.29-8.47-3.97-7.71-5.75.76-1.77,16.72-24.96,16.59-27.15-.62-10.14-16.91-35.42-16.13-42.42,1.36-12.13,8.52-7.6,8.52-7.6Z"/>
          <path class="cls-7" d="M203.55,79.83c6.2.79,10.42,9.95,11.76,15.81,3.34,14.6,8.95,28.71,8.17,35.04-.87,7.06-20.03,30.77-21.21,32.07-1.18,1.29-8.47-3.97-7.71-5.75.76-1.77,16.72-24.96,16.59-27.15-.62-10.14-16.91-35.42-16.13-42.42,1.36-12.13,8.52-7.6,8.52-7.6Z"/>
          <path class="cls-10" d="M205.32,89.35c-.07-7.05,7.03-12.27,7.03-12.27"/>
          <path class="cls-23" d="M243.61,118.75c-.99,10.43-43.46,22.35-45.53,22.52-2.07.18-5.41-7.33-5.3-8.46,5.13-3.73,36.19-13.3,36.01-16.09-.34-5.15-22.7-13.45-26.66-16.8-5.94-5.03-7.48-12.06-6.78-15.32.7-3.27,2.22-7.55,7.08-6.35,4.31,1.07,6.21,2.85,7.48,4.86.89,1.41,8.52,5.46,10.35,6.6,6.63,4.12,24.34,18.61,23.35,29.04Z"/>
          <path class="cls-19" d="M195.42,45.4c-1.55.2-3.87.28-5.84.87-1.91.57-2.76.84-4.42.44-1.48-.36-4.66-.82-5.26,1.37-.26.94.47,5.36,2.15,4.79,3.24-1.1.72,1.5,2.28,1.51,1.17,0,1.56-3.43,5.27-2.52,2.06.51,5.96-.26,6.73-.71.78-.46-.9-5.75-.9-5.75Z"/>
          <path class="cls-19" d="M252.69,44.48l-.57,4.93v.11s-.29.31-.29.31c0,0-.6.95-1.18,2.14-.21.42-.41.86-.59,1.3-.27.68-.48,1.35-.53,1.91-.1,1.11-1,2.39-.71,4.31.22,1.44-3.66-1.93-3.66-1.93l-3.95-3.53c.99-2.1,5.38-5.36,6.64-7.06,1.37-1.86,4.84-2.49,4.84-2.49Z"/>
          <path class="cls-9" d="M252.13,49.41v.11s-.29.31-.29.31c0,0-.6.95-1.18,2.14-2.44-1.05-3.53-4.38-2.67-4.72.7-.28,3.2.92,3.2.92l.94,1.23Z"/>
          <path class="cls-15" d="M244.59,49.88c2.08.93-.13,3.92,1.46,5.47.84.82,2.4-.21,3.18-.29.48-.05.95-.13,1.02.64.97,10.7-27.55,31.31-27.77,33.75-.18,2-9.07-2.15-12.6-6.96-4.85-6.6,2.62-9.44,3.87-10.59,1.26-1.16,21.56-22.67,21.56-22.67,0,0,4.49.88,9.29.65Z"/>
          <path class="cls-17" d="M291.18,42.78c-.3.75-14.06,11.26-19.17,14.76-3.82,2.62-13.75,7.58-19.03,8.7-10.3,2.19-11.18,8.5-13.86,10.84-1.97,1.72-7.91,8-8.59,9.04-1.75,2.66-5.28,6.83-6.59,6.11-3.1-1.72-5.4-2.82-7.04-3.93-1.77-1.2,8-1.9,13.84-12.98,3.75-7.12,10.34-7.95,13.92-13.58,2.71-4.26,5.58-6.15,5.58-6.15,9.87-1.2,14.44-3.26,17.94-4.99,3.9-1.93,16.6-11.51,17.76-13.28.7-1.07,5.46,4.85,5.22,5.46Z"/>
          <g>
            <path class="cls-19" d="M254.67,40.93c.39,1.91,2.92,5.32,1.61,5.49-1.31.17.83,4.03-.56,4.25-3.36.55-7.5-1.07-8.13-2.64-.63-1.56-.93-6.12-.93-6.12l8.01-.98Z"/>
            <path class="cls-8" d="M251.41,43.23c1.08-.01,1.14.23,1.85-.22.7-.46-.71-1.31.66-1.72s2.88-.69,2.84-2.29c-.06-2.32-2.06-1.7-3.29-1.27-.79.28-1.2-1.45-2.81-1.17-1.27.22-1.03.94-2.15,1.19-.68.15-2.15-.8-3.12.16-1.8,1.78.07,3.43-1.38,5.27-1.7,2.14,3.24,5.6,3.69,5.05.53-.65-.59-2.49-.03-3.03.84-.81,1.04-.05,1.9.57.91.66,2.44.51,1.29-.85-1.15-1.36-.41-1.68.56-1.69Z"/>
          </g>
          <path class="cls-17" d="M244.59,49.88h0s0,0,0,0c-.03.06-1.13,1.95-2.91,4.67-.17.27-.35.54-.54.82-.25.37-.51.76-.78,1.15-.22.32-.44.65-.67.98-3.66,5.28-8.85,11.92-13.74,15.19-.59.39-1.17.74-1.75,1.03-3.84,1.92-6.32,4.54-8.19,6.88-1.48,1.84-2.57,3.51-3.64,4.52-.15.14-.31.28-.46.39-2.59,1.95-11.97-.2-14.86-2.91-1.04-.97-1.67-1.82-2-2.57-1.82-4.19,6.18-5.16,8.54-6.45,2.14-1.17,3.91-2.29,5.41-3.37,3.67-2.64,5.77-5.07,7.92-7.55.27-.31.54-.62.81-.93,2.54-2.89,5.71-3.56,5.2-6.19-.04-.21-.12-.41-.23-.61-.16-.29-.39-.58-.69-.85-2.41-2.26-8.99-3.86-14.39-3.85-3.64,0-15.37,2.81-18.37,2.98-1.62.09-1.68-7.06-.1-7.52,1.51-.44,13.54-3.02,18.5-3.39.21-.02.41-.03.59-.04,3.65-.24,10.28.55,17.02,1.86.8.15,1.61.32,2.41.49,1.51.32,3.02.66,4.47,1.02,5.22,1.29,9.87,2.8,12.46,4.26Z"/>
          <g>
            <path class="cls-6" d="M246.72,56.15c-.26.33-.75.8-1.17.78-.56-.03-.72-.17-1.04-.42-.02-.01-.05-.04-.11-.05-.44-.05-2.11.19-4.03.07-.13,0-.25-.02-.38-.03-.13-.01-.27-.03-.41-.04-1.15-.14-2.34-.42-3.39-1-.33-.18-.64-.38-.93-.62-1.39-1.12-2.96-3.03-4.52-4.94-.31-.37-.61-.75-.91-1.12-.16-.2-.33-.4-.49-.6-1.26-1.53-2.46-2.91-3.47-3.67-.19-.14-.39-.27-.62-.39.8.16,1.61.32,2.41.49,1.51.32,3.02.66,4.47,1.02.45.71.88,1.45,1.3,2.16.2.34.39.67.58,1,1,1.7,1.92,3.18,2.83,3.85.73.53,1.52.94,2.33,1.24.76.29,1.54.49,2.3.63.06.01.13.02.19.04,0,0,0,0,.01,0,1.05.18,2.05.25,2.93.27.74.02.97-.15,1.49.29.69.58.88.71.62,1.05Z"/>
            <path class="cls-16" d="M245.74,56.65c-.49-.27-.56-.58-.64-.91,0-.02-.05-.04-.11-.05-.5-.07-2.58.22-4.82-.07-1.15-.15-2.33-.46-3.37-1.04-.32-.18-.63-.39-.92-.63-1.37-1.14-2.92-3.07-4.45-5-.3-.38-.6-.76-.9-1.13-.16-.21-.32-.41-.49-.61-1.24-1.55-2.42-2.94-3.42-3.72-2.57-2.01-8.83-1.64-12.98-4.58-2.54-1.8-10.57-10.36-11.18-11.66-.61-1.29-.46-2.84,0-3.42.47-.58,1.59-.1,3.19.95,1.6,1.05,4.82,7.73,10.2,11.35,5.38,3.62,9.06,1.64,12.97,3.96,2.16,1.28,3.84,4.16,5.32,6.78.19.34.38.68.57,1.01.98,1.72,1.87,3.21,2.78,3.89.72.54,1.51.96,2.31,1.28.76.3,1.53.52,2.29.67,1.12.23,2.2.32,3.13.35.74.03.97-.14,1.49.31.68.59.43,1.29.17,1.62-.27.33-.8.86-1.14.67Z"/>
          </g>
          <path class="cls-11" d="M227.32,57.52c-2.97,3.16-8.13,4.46-10.41,5.14.27-.31.54-.62.81-.93,2.54-2.89,5.71-3.56,5.2-6.19-.04-.21-.12-.41-.23-.61-.16-.29-.39-.58-.69-.85.37.03,1.3.14,1.69.35.5.27,4.47,2.2,3.63,3.1Z"/>
        </g>
        <path class="cls-15" d="M275.8,76.18c-4.3-.7-4.89-2.56-5.6-8.3-.63,5.43-1.38,7.48-5.76,8.04,3.8,1.6,5.13,2.19,5.72,8.48,1.03-6.35,1.88-6.9,5.64-8.22Z"/>
        <path class="cls-15" d="M221.64,13.54c-3.18-.52-3.62-1.9-4.15-6.15-.47,4.02-1.02,5.54-4.27,5.96,2.81,1.19,3.8,1.62,4.24,6.28.76-4.71,1.39-5.12,4.18-6.09Z"/>
        <path class="cls-15" d="M186.97,96.94s-.05,0-.07,0c-.96.04-2.04,2.2-2.64,3.57-1.41-.23-2.95-.59-4.53-1.13.39-1.05,1.1-2.58,2.29-4.04,1.71.72,3.36,1.22,4.95,1.59Z"/>
        <path class="cls-15" d="M102.57,31.45c-2.86-3.77-2.69-5.77,0-6.43,2.69-.67.03.89,2.47,2.44,2.44,1.55,2.66,1.33,1.11,2.88s-3.58,1.11-3.58,1.11Z"/>
        <path class="cls-21" d="M252.35,82.34c-.64.59-1.21,2.16-1.48,3.01-.9-.25-2.02-.49-3.49-.75.23-.87.71-2.26,1.67-3.59,1.21.4,2.31.86,3.3,1.32Z"/>
        <path class="cls-15" d="M165.59,23.94c-1.61,1.29-2.45,2.53-2.87,3.39-3.18-.21-3.77-.45-6.15-.35,1.07-1.06,2.79-2.69,4.12-3.54,2.45-.03,2.7.28,4.89.5,0,0,.01,0,.02,0Z"/>
        <path class="cls-21" d="M152.52,105.92c-1.44-2.86,3.58-4.36,3.58-4.36l.83,1.55-4.4,2.81Z"/>
        <path class="cls-15" d="M104.03,64.07c-3.91,3.24-2.9,6.84-2.9,6.84l-2.86-.17s-.14-6.23,1.95-6.65,3.81-.02,3.81-.02Z"/>
        <path class="cls-21" d="M234.37,30.13c-.57,1.84-4.06,1.45-4.06,1.45,0,0,0-1.66.05-1.89.05-.23,1.66.26,1.88-.77.22-1.02,2.13,1.21,2.13,1.21Z"/>
        <path class="cls-21" d="M120.46,69.08c-.89-3,3.96-3.8,3.96-3.8,0,0,1.69,2.3,1.84,2.65.15.35-4.04,2.39-3.37,3.98.67,1.59-2.44-2.83-2.44-2.83Z"/>
        <path class="cls-21" d="M188.07,33.96c-.56-2.38,3.5-4.2,3.5-4.2,0,0,1.07,1.82,1.16,2.1s-3.54,3.08-3.12,4.34c.42,1.26-1.54-2.24-1.54-2.24Z"/>
        <path class="cls-15" d="M143.08,61.21c-.58-7.1.53-5.99,1.42-4.88.89,1.11,3.19,1.77.89,3.33l-2.3,1.55Z"/>
        <path class="cls-21" d="M232.22,143.93c.07-1.82-.02-3.92-1.64-3.5-1.62.42.35-4.34.35-4.34,0,0,3.72,1.54,3.87,3.92.16,2.38-2.58,3.92-2.58,3.92Z"/>
        <path class="cls-15" d="M114.96,119.22c-1.61-.94-3.54-1.91-3.83-.47-.29,1.44-3.77-2.39-3.77-2.39,0,0,2.92-2.06,5.13-1.01,2.21,1.05,2.47,3.88,2.47,3.88Z"/>
        <g class="cls-2">
          <path class="cls-5" d="M195.66,109.34c-.07.11-.19.19-.33.2-5.13.27-9.2,2.28-12.43,6.15-.15.17-.4.2-.58.05-.17-.15-.2-.4-.05-.58,3.39-4.06,7.65-6.17,13.02-6.45.23-.01.42.16.43.39,0,.08-.02.16-.06.23Z"/>
          <path class="cls-5" d="M188.55,107.54c-.05.08-.12.14-.22.18-2.56.87-4.55,1.94-6.26,3.37-1.67,1.39-3.09,3.14-4.47,5.49,0,0,0,0,0,0-.12.19-.36.26-.56.14-.2-.11-.26-.37-.15-.56,2.82-4.81,6.06-7.48,11.18-9.22.21-.07.45.04.52.26.04.12.02.24-.04.34Z"/>
        </g>
        <g>
          <path class="cls-13" d="M16.03,156.74c0,1.6,28.1,3.47,60.48,3.47s58.63-1.3,58.63-2.91-26.25-2.91-58.63-2.91-60.48.74-60.48,2.34Z"/>
          <g>
            <path class="cls-22" d="M114.87,46.59c6.53-3.55,2.98-5.37,4.26-5.89,1.17-.47.97,3.1,2,.52,1.44-3.61,3.36.2,3.16,1.67-.21,1.53-2.1,3.26-4.55,4.66-1.88,1.08-2.59,2.24-2.59,2.24l-2.29-3.2Z"/>
            <path class="cls-19" d="M72.72,112.49c-1.76,3.44-3.72,6.97-5.38,10.57-5.04,10.89-33.19,2.19-34.6,2.57-3.01.8-3.38,1.66-4.13,2.55l-2.77,2.85-2.22-4.87,3.75-4.94s30.96.84,32.57-2.06c.63-1.14,1.86-4.84,3.11-8.91.37-1.2.74-2.43,1.1-3.63,1.53-5.15,2.85-9.87,2.85-9.87.36-.77,1.86-7.85,1.78-8.69-.22-2.24,4.49-12.93,9.02-9.47,7.44,5.69,6.03,12.4,6.03,12.4,0,0-4.64,8.91-10.21,19.77l-.89,1.74Z"/>
            <path class="cls-24" d="M31.05,120.92c-.87-.71-3.06-2.12-5.63-.8-2.5,1.47-5.55,1.56-5.55,1.56l.1.91s4.13-.58,4.98.18c-.59,1.47-4.67,7.27-4.41,8.53.4,1.92,1.76,4.43,2.35,4.92.72.6,2.45,1.8,2.42.27-.07-2.97,1.15-6.03,1.15-6.03,0,0,.01-.19-.17-.19-.41.02-1.1.01-.93-1.71.23-2.28,3.82-5.84,5.65-7.04.22-.14.24-.45.04-.62Z"/>
            <g>
              <path class="cls-19" d="M74.19,81.71l3.36,1.22c.12.04.24.11.34.2,1.23,1.09,8.06,6.13,10.95,8.7.02.02,1.1-4.04,3.13-2.51,2.53,1.92,10.1,14.53,11.71,19.22,2.07,6.06,11.07,32.99,11.97,34.5s2.18,2.36,5.01,3.07c.03,0,.06.01.09.02h0c1.14.18,1.2,1.84.07,2.09l-4.77,1.04c-.11.02-.22.03-.33.02l-2.95-.34c-.36-.04-.68-.27-.83-.6,0,0-16.68-35.52-17.99-37.95-1.31-2.43-15.21-17.68-15.21-17.68-.26-.19-4.05,3.91-4.35,4-1.04.29-3.95.41-8.32-4.84-1.31-1.58.13-5.22.62-6.34.1-.22.26-.39.47-.5l6.21-3.26c.26-.13.56-.15.83-.06Z"/>
              <path class="cls-24" d="M116.15,151.62c.97-.26,4.14-.52,6.47-.86,1.04-.15,1.92-.32,2.36-.51.04-.02.08-.04.12-.06,1.18-.65,3.6-2.39,3.77-3.18.17-.8-1.03-1.8-2.55-1.84-.64-.01-1.65.15-2.6.34-.97.19-1.88.42-2.29.52-.14.04-.22.06-.22.06,0,0-.16.1-.05.23.24.31.62.85-.79,1.69-1.88,1.12-6.6.36-8.51-.38-.22-.08-.46.07-.47.3-.07,1.06.03,3.59,2.48,4.83,2.5,1.09,4.24,3.4,4.24,3.4l.65-.59s-2.71-2.86-2.59-3.96Z"/>
            </g>
            <path class="cls-12" d="M61.8,111.49c.72,1.91,11.81,1.65,18.22-.28,5.9-1.77,21.47-4.72,22.86-7.83.92-2.05-9.53-13-14.34-29.07-7.4,2.34-18.62-4.2-18.62-4.2,0,0-.07.11-.2.32-.76,1.21-3.49,5.67-5.17,9.92-.67,1.7-1.18,3.37-1.33,4.78-.43,4.11,1.86,12.53,1.22,18.34-.42,3.82-3.46,5.87-2.65,8.01Z"/>
            <path class="cls-15" d="M84.54,39.52l3.12,1.93,3.56,17.92s-2.04,10.76-4.68,14.43c-3.44,4.78-13.49-1.15-12.99-2.26,4.53-10.2,7.1-32.22,7.1-32.22l3.9.19Z"/>
            <path class="cls-3" d="M64.56,80.36c5.9,3.49,14.59-.38,14.59-.38l-8.34-8.44-1.08-1.1c-.76,1.21-3.49,5.67-5.17,9.92Z"/>
            <g>
              <path class="cls-1" d="M45.58,74.43c.2-.31.31-.63.35-.94.03-.26,0-.5-.1-.7-.05-.12-.13-.23-.23-.32l-.67-.62-.02-.02h0s-.08-.08-.08-.08l-2.75-2.55-.03-.03c-.14-.12-.3-.21-.48-.24h0c-.56-.12-1.28.14-1.82.73l-.77.83-1.25,1.34.7.65,1.25-1.34.18-.19c.4-.43.93-.63,1.35-.55h0s.07.02.11.03c.1.03.19.09.26.16l2.45,2.28h0s.2.19.2.19c.41.38.3,1.16-.24,1.74l-.15.17h0s-1.26,1.36-1.26,1.36h0s.7.66.7.66l1.28-1.38.75-.81s.08-.09.12-.14c.06-.07.11-.15.16-.22Z"/>
              <path class="cls-18" d="M48.18,67.96c-.61.93-.62.89-1.25,2.22-.63,1.34-1,3.25-1.7,2.93-.7-.31-.16-.94-.32-1.3-.16-.37-.08.8-.86,1.04-.78.24-2.44-.67-2.73-1.63-.28-.96.51-1.69,1.4-2.79.9-1.1,1.73-1.32,2.68-2.98l2.78,2.51Z"/>
              <path class="cls-1" d="M45.58,74.43c.2-.3.32-.63.36-.94h0c.03-.26,0-.5-.1-.71-.05-.12-.13-.23-.23-.32l-.68-.61-.02-.02h0s0,0,0,0l-.05-.04-.14.28h0s0,0,0,0h0s0,.01,0,.01h0s-.2.41-.2.41h0s-.26.53-.26.53c.41.38.3,1.16-.24,1.74h0s-.15.17-.15.17h0s-1.26,1.36-1.26,1.36l.7.65,1.27-1.36.75-.81s.08-.09.12-.14c.06-.07.11-.15.16-.22Z"/>
              <g>
                <path class="cls-5" d="M50.74,85.53l-9.25,10.06c-.55.6-1.48.64-2.07.09l-.03-.03-18.15-16.26c-2.02-1.86-.7-3.28-.15-3.87l8.44-9.75c.55-.6,2.71-1.5,4.31,0l15.97,14.66.6.55c1.32,1.21,1.57,3.2.33,4.55Z"/>
                <path class="cls-20" d="M50.74,85.53l-9.25,10.06c-.55.6-1.48.64-2.07.09l-.03-.03c.34-.79,1.07-1.85,2.54-3.24,3.54-3.37,6.25-8.39,7.89-11.97l.6.55c1.32,1.21,1.57,3.2.33,4.55Z"/>
              </g>
            </g>
            <path class="cls-24" d="M54.48,53.22c-2.52,3.67-10.4,13.02-10.4,13.02,1.5,3.04,3.72,3.68,3.74,3.71.05-.2,10.12-12.18,11.06-13.48,1.33-1.86,11.66-4.81,12.75-3.79,1.31,1.22,2.32,7.21,1.53,11.23-.17.85-.41,1.62-.76,2.23-1.98,3.52-3.92,3.73-3.79,5.68.12,1.95,9.53,9.11,10.55,8.17,1.02-.94,1.51-13.93,2.69-16.83,1.04-2.57,3.44-7.2,2.02-11-1.05-2.8-2.25-8.56-2.82-11.4,0-.04-.02-.09-.03-.13-.19-.94-.3-1.53-.3-1.53-.76.18-1.63.48-2.58.89-2.12.91-4.62,2.33-7.13,3.97-6.66,4.35-14.62,6.5-16.51,9.26Z"/>
            <path class="cls-24" d="M90.34,55.9c.94,3.68-4.44,12.26-5.26,18.92-.01.09-.02.18-.03.26-.12,1.14-.1,2.21.11,3.2.29,1.33,2.14,2.4,3.39,2.61.86.14,1.53-.21,1.44-1.15-.75-8.52,4.52-15.32,5.16-24.64.14-2.1-1.07-2.91-1.68-2.91-2.08,0,6.92,6.14,11.33,6.49,3.24.25,11.73-6.79,14.88-10.03,1.03-1.07-1.56-5.33-2.28-4.77-6.68,5.19-9.83,7.97-12.77,8.06-3.73.11-9.34-8.22-17.4-10.77-.11-.04.25.77.29,2.08.03.99.19,2.2.24,3.58.13,3.92,1.48,4.71,2.59,9.07Z"/>
            <path class="cls-4" d="M73.15,63.91c.99-1.45,2.41-3.65,2.53-4.53.19-1.36-1.6-4.9-4.06-6.7,1.28,1.26,2.32,7.21,1.53,11.23Z"/>
            <path class="cls-4" d="M71,43.96c5.94.22,8.53-.78,10.04-3.21.02-.03.04-.07.06-.11l-.09-.02-2.88-.64c-2.12.91-4.62,2.33-7.13,3.97Z"/>
            <g>
              <path class="cls-22" d="M89.67,27.75c.33,1.33-.44,2.04.37,3.31.65,1,1.34,1.19,1.06,1.6-.28.42-1.14.18-1.11.64.03.46.38.81-.12.97-.34.11-.7.08-.32.37.15.11.46,0,.15.53-.31.53.46,2.35-.47,2.58-.46.11-1.96-.99-2.8-.36-.76.57.63,2.88.8,3.93.17,1.05-.38,6.56-.95,6.39-1.42-.43-1.55-3.75-5.08-6.7-4.21-3.52,1.29-9.15,1.29-9.15l1.51-3.43,5.68-.68Z"/>
              <path class="cls-14" d="M53.1,42.32c1.43,1.54,8.67-4.03,12.67.68,1.58,1.86,3.4.03,5.29-.31.31-.06.62-.07.94-.02,1.18.18,1.82.52,2.85.57h0c.24.01.5,0,.8-.02.24-.02.51-.06.81-.11.54-.1,1.18-.25,1.96-.49.82-.25,1.54-.69,2.18-1.26,0,0,0,0,0,0,.02-.02.04-.04.06-.06,2.28-2.08,3.46-5.71,4.11-6.99.22-.43.25-1.1-.03-1.5-.38-.54-.88-1.2-.49-1.78.36-.54,1.16-.41,1.33,0,.44,1.02,1,1.33,1.15.04.25-2.11,1.52-2.58,2.13-2.66.39-.05.68-.17.89-.33h0c.81-.63.42-1.89.25-2.36-.83-2.22-3.38-2.68-6.55-2.17-4.48.72-6.19,7.13-7.34,7.83-1.15.7-2.05-.91-5.07.33-3.52,1.46-3.16,3.27-4.41,3.86-1.09.51-3.07-.05-5.51.17-4.16.37-10.26,4.17-8,6.6Z"/>
            </g>
          </g>
        </g>
        <path class="cls-21" d="M247.9,67.94c-20.23,7.4-26.23.48-41.11.67-30.49.39-55.49,22.94-85.15,18.3-29.33-4.59-56.23-35.64-56.9-31.52-.64,3.9,3.94,8.05-.35,9.46-1.95.64-7.92,1.2-5.71,3.65,2.21,2.45,36.19,27.28,60.89,30.85,35.86,5.17,66.36-23.44,86.99-21.26,19.07,2.02,27.99,2.37,35.94-2.26,3.55-2.06,5.87-8.05,5.4-7.88Z"/>
      </g>
    </g>
  </g>
</svg>