<?xml version="1.0" encoding="UTF-8"?>
<svg xmlns="http://www.w3.org/2000/svg" version="1.1" viewBox="0 0 394.58 133.13">
  <defs>
    <style>
      .cls-1 {
        fill: #220300;
      }

      .cls-2 {
        fill: #e05555;
      }

      .cls-3 {
        fill: #c45727;
      }

      .cls-4 {
        fill: #21b4d6;
      }

      .cls-5 {
        fill: #fc9460;
      }

      .cls-6 {
        fill: #ff9797;
      }

      .cls-7 {
        fill: #007689;
      }

      .cls-8 {
        fill: #d89879;
      }

      .cls-9 {
        fill: #3f0d0a;
      }

      .cls-10 {
        fill: #6b1910;
      }

      .cls-11 {
        fill: #fdd26b;
      }

      .cls-12 {
        fill: #ffe0d7;
      }

      .cls-13 {
        fill: #a03c28;
      }

      .cls-14 {
        fill: #c17e59;
      }

      .cls-15 {
        fill: #a05b38;
      }

      .cls-16 {
        fill: #892c1d;
      }

      .cls-17 {
        fill: #fcbbbb;
      }

      .cls-18 {
        fill: #f4caae;
      }

      .cls-19 {
        fill: #561716;
      }
    </style>
  </defs>
  <!-- Generator: Adobe Illustrator 28.7.1, SVG Export Plug-In . SVG Version: 1.2.0 Build 142)  -->
  <g>
    <g id="Layer_1">
      <g>
        <g>
          <path class="cls-18" d="M274.49,109.14c.86.16,1.72.39,2.48.81,1.12.62,1.98,1.68,2.39,2.89.08.23.13.51-.03.7-.15.18-.43.18-.64.09-.21-.1-.37-.27-.55-.42-1.22-1.07-3.02-1.06-4.64-.99-1.91.08-3.82.15-5.72.23.24,0,1.15-1.59,1.33-1.83.31-.42.7-1.3,1.13-1.58.95-.61,3.21-.09,4.26.11Z"/>
          <path class="cls-18" d="M268.51,112.32c.58-.09,1.16-.2,1.67-.49.46-.26.83-.65,1.17-1.06,1.06-1.28,1.86-2.77,2.61-4.26,1.25-2.47,2.4-4.99,3.45-7.54.66-1.62,1.3-3.31,1.24-5.06-.06-1.75-.98-3.58-2.61-4.2-.7-.27-1.47-.3-2.23-.3-.72,0-1.45.02-2.12.29-1.19.48-1.94,1.63-2.59,2.73-3.11,5.28-5.66,10.92-7.25,16.84-.21.78-.49,1.7-.36,2.52.13.86.68.74,1.48.79,1.85.11,3.71.02,5.55-.26Z"/>
          <path class="cls-18" d="M236.98,112.29c6.68-.16,17.67-.04,20.24-.23.03-.45-.61-1.56-.8-1.97-.5-1.09-1.02-2.2-1.85-3.06-.64-.67-1.45-1.16-2.28-1.58-3.15-1.59-6.79-2.28-9.52-4.5-.08.52.19,1.03.43,1.51.72,1.46,1.17,3.05,1.31,4.67-1.65-.06-3.29-.11-4.94-.16-.86-.03-1.74-.06-2.57.15-.84.21-1.65.68-2.06,1.43-.51.91-.49,2.06-.08,2.97.36.81,1.18.8,2.13.78Z"/>
          <path class="cls-18" d="M232.17,64.81c-.11.43-.13.88-.35,1.26-.16.29-.41.51-.61.78-.82,1.12-.44,2.66-.61,4.04-.16,1.29-.81,2.45-1.24,3.68-1.66,4.69-.03,9.97,2.66,14.17,2.68,4.19,6.34,7.66,9.3,11.66,2.18,2.95,3.98,6.17,6.24,9.06.51.65,1.06,1.29,1.79,1.66.68.34,1.46.42,2.22.48,5.17.43,10.37.56,15.56.41.7-.02,1.46-.07,2.02-.49.68-.51.89-1.42,1.05-2.25.9-4.61,1.76-9.26,1.73-13.95-.03-4.7-1-9.49-3.51-13.45-.68-1.07-1.48-2.12-1.69-3.37-.12-.72-.04-1.46-.2-2.17-.31-1.36-1.5-2.45-1.6-3.85-.04-.53.08-1.05.12-1.57.1-1.64-.74-3.31-2.12-4.2-.98-.63-2.14-.87-3.28-1.1-5.44-1.1-10.89-2.21-16.33-3.31-2.24-.45-4.97-1.32-7.27-1.08-1.58.16-3.48,2.07-3.86,3.6Z"/>
          <path class="cls-18" d="M249.14,44.64c.99.25,1.89.8,2.88,1.1.93.28,1.92.32,2.88.51,1.1.22,2.15.63,3.19,1.04,1.6.63,3.25,1.29,4.42,2.55,1.17,1.26,1.72,2.99,1.86,4.7.13,1.71-.12,3.43-.37,5.12-.25,1.73-.51,3.46-.76,5.19-.1.67-.2,1.36-.49,1.97-.33.68-.87,1.23-1.43,1.73-1.57,1.38-3.41,2.43-5.3,3.34-2.52,1.21-5.22,2.2-8.01,2.17-4.03-.04-7.84-2.25-10.39-5.36-1.03-1.26-1.89-2.7-2.25-4.29-.27-1.22-.23-2.48-.2-3.73.05-1.77.11-3.54.16-5.32.03-.96.06-1.93.23-2.88.26-1.41.82-2.74,1.39-4.06.51-1.18,1.08-2.42,2.13-3.17,1.32-.95,3.11-.91,4.66-.86,1.74.06,3.69-.21,5.4.22Z"/>
          <path class="cls-14" d="M239.34,50.32c.6-1.15,1.79-1.94,3.06-2.19,1.27-.25,2.62.02,3.77.61,1.57.81,2.88,2.48,2.59,4.22,1.93.04,3.56.46,5.14,2.23.25-1.17,1.35-2.04,2.53-2.26,1.18-.22,2.4.11,3.47.65.59.3,1.15.68,1.54,1.21.78,1.06.72,2.53.29,3.77-.52,1.5-1.53,2.83-2.84,3.72.29.64.58,1.28.73,1.97.3,1.37-.4,3.11-1.33,4.16-2.34,2.64-6.8,2.45-8.44,2.27-2.47-.27-10.78-2.57-12.39-7.54-.76-2.36-.7-4.42,1.03-6.19.3-.3,1.66-1.11,1.66-1.11,0,0-.47-.8-.56-.99-.16-.29-.29-.6-.4-.91-.4-1.18-.44-2.51.15-3.63Z"/>
          <path class="cls-6" d="M243.74,46.02c-.34.11-.55-.15-.99-.2-.56-.07-1.01.25-1.48.59-.94.68-1.47,1.49-1.75,1.92-.5.77-1.24,1.88-2.26,3.29-.13-.67-.59-3.51,1.19-5.78.96-1.22,2.92-2.73,4.45-2.2.67.24,1.48.94,1.41,1.61-.03.31-.26.67-.57.77Z"/>
          <g>
            <path class="cls-11" d="M266.21,26.85c-.06-.24-.31-.39-.55-.32l-4.15,1.1,3.61-2.34c.21-.14.27-.42.13-.63-.14-.21-.42-.27-.63-.13l-1.39.9,1.21-1.14c.18-.17.19-.46.02-.64-.17-.18-.46-.19-.64-.02l-2.31,2.17,1.76-2.64c.14-.21.08-.49-.12-.63-.21-.14-.49-.08-.63.12l-1.65,2.46,1.04-2.75c.09-.23-.03-.5-.26-.58h0c-.23-.09-.5.03-.58.26l-.62,1.64.31-1.68c.04-.25-.12-.48-.36-.53-.25-.04-.48.12-.53.36l-.59,3.22-.2-3.38c-.01-.25-.23-.44-.48-.43h0c-.25.01-.44.23-.43.48l.19,3.17-.89-3.04c-.07-.24-.32-.38-.56-.31-.24.07-.38.32-.31.56l.47,1.59-.74-1.48c-.11-.22-.39-.31-.61-.2-.22.11-.31.38-.2.61l1.93,3.85-3.02-3.04c-.18-.18-.46-.18-.64,0h0c-.18.18-.18.46,0,.64l4.89,4.92s.03.03.04.05c.07.08.16.14.27.16.13.02.26-.01.36-.09l6.55-1.73c.24-.06.39-.31.32-.55Z"/>
            <g>
              <path class="cls-2" d="M258.8,48.28c-1.72.28-5.45-.66-8.06-1.86-1.12-.51-2.03-1.07-2.49-1.61-.07-.08-.1-.19-.07-.29,0-.04.02-.09.05-.13.29-.45.58-.89.87-1.33.27-.42.55-.84.83-1.27.36-.55.73-1.1,1.09-1.65.3-.45.59-.9.89-1.34.44-.66.88-1.32,1.32-1.98.33-.49.65-.97.97-1.46.47-.71.94-1.41,1.41-2.12.36-.54.73-1.09,1.09-1.64h0c.69-1.05,1.38-2.1,2.07-3.15.19-.29.65-.16.65.19,0,.66,0,1.32-.01,1.99h0c0,.51-.01,1.03-.02,1.54,0,.55-.02,1.1-.03,1.64h0c-.01.52-.02,1.04-.03,1.56-.01.55-.02,1.11-.04,1.66-.01.53-.03,1.05-.04,1.58h0c-.01.55-.03,1.09-.04,1.64-.01.52-.03,1.05-.03,1.57-.01.62-.03,1.25-.04,1.88,0,.52-.01,1.03-.02,1.55-.01.89-.01,1.79-.02,2.68,0,.17-.12.32-.29.35Z"/>
              <g>
                <path class="cls-11" d="M259.1,45.25c-1.2.53-2.61.97-4.21,1.2-1.39.2-2.87.12-4.15-.03-1.12-.51-2.03-1.07-2.49-1.61-.07-.08-.1-.19-.07-.29,1.2.3,4.04.9,6.53.55,1.72-.24,3.21-.76,4.42-1.37,0,.52-.01,1.03-.02,1.55Z"/>
                <path class="cls-11" d="M259.16,41.83c-1.29.62-2.85,1.15-4.65,1.4-1.81.26-3.63.2-5.42-.17.27-.42.55-.84.83-1.27,1.46.24,2.93.26,4.4.06,1.94-.27,3.58-.91,4.87-1.6-.01.52-.03,1.05-.03,1.57Z"/>
                <path class="cls-11" d="M259.23,38.61h0c-1.31.63-2.88,1.17-4.7,1.43-1.17.16-2.35.2-3.52.1.3-.45.59-.9.89-1.34.81.02,1.63-.02,2.44-.14,1.97-.28,3.63-.92,4.93-1.63-.01.53-.03,1.05-.04,1.58Z"/>
                <path class="cls-11" d="M259.31,35.37c-1.25.58-2.74,1.06-4.43,1.3-.55.08-1.1.13-1.65.15.33-.49.65-.97.97-1.46.16-.02.32-.04.48-.06,1.84-.26,3.4-.84,4.66-1.49-.01.52-.02,1.04-.03,1.56Z"/>
                <path class="cls-11" d="M259.37,32.16c-1.1.46-2.35.85-3.77,1.07.36-.54.73-1.09,1.09-1.64h0c1-.26,1.91-.6,2.7-.97,0,.51-.01,1.02-.02,1.54Z"/>
              </g>
            </g>
          </g>
          <path class="cls-1" d="M243.63,53.02c.02-.15.08-.3.18-.42.11-.14.3-.24.48-.19.23.06.33.28.34.51,0,.06,0,.11-.01.17,0,.02-.02.05-.02.07,0,.01,0,.03-.01.04-.02.04-.04.09-.06.13-.08.15-.18.31-.34.37-.18.07-.38-.02-.47-.19-.08-.15-.1-.32-.08-.48Z"/>
          <path class="cls-1" d="M257.83,58.47c.11-.11.18-.26.21-.4.04-.17,0-.38-.15-.49-.19-.13-.43-.08-.61.06-.05.03-.09.07-.12.11-.02.02-.03.04-.04.06,0,.01-.01.02-.02.03-.02.04-.04.08-.06.13-.06.16-.12.33-.07.5.06.18.26.28.44.24.17-.03.31-.12.43-.24Z"/>
          <path class="cls-9" d="M249.44,58.53c-.23.69-.49,1.37-.79,2.04-.05.1-.03.22.07.29.09.05.24.03.29-.07.31-.7.59-1.41.83-2.14.08-.26-.32-.37-.4-.11Z"/>
          <path class="cls-9" d="M249.14,60.91c-.66-.36-1.42-.53-2.18-.45-.84.09-1.6.49-2.37.8-.79.31-1.65.57-2.51.43-.72-.12-1.41-.55-1.66-1.26-.09-.25-.49-.14-.4.11.55,1.6,2.42,1.81,3.84,1.41.87-.24,1.67-.7,2.53-.95.85-.25,1.76-.15,2.54.27.24.13.45-.23.21-.36Z"/>
          <path class="cls-9" d="M248.42,60.61c.72.22,1.37.65,1.84,1.24.52.66.77,1.48,1.09,2.25.33.78.75,1.58,1.45,2.09.59.43,1.38.62,2.06.3.24-.11.45.25.2.36-1.53.72-2.99-.46-3.7-1.75-.44-.79-.67-1.68-1.1-2.47-.42-.78-1.12-1.36-1.97-1.62-.26-.08-.15-.48.11-.4Z"/>
          <path class="cls-9" d="M248.85,63.72c-.75.07-1.74-.1-2.06-.88-.04-.1-.14-.18-.26-.15-.1.03-.19.15-.15.26.18.43.5.78.93.96.48.21,1.02.28,1.53.23.11-.01.21-.09.21-.21,0-.1-.1-.22-.21-.21Z"/>
          <path class="cls-9" d="M255.71,60.91c-.27-.9-.78-1.69-1.39-2.41-.63-.73-1.33-1.46-2.12-2.02-1.63-1.14-3.72-1.42-5.66-1.24-1.24.12-2.46.4-3.66.73-.26.07-.15.47.11.4,1.95-.53,4.01-.98,6.04-.66.9.14,1.78.42,2.57.88.8.47,1.46,1.14,2.09,1.82.7.76,1.33,1.61,1.62,2.61.08.26.48.15.4-.11Z"/>
          <path class="cls-9" d="M255.88,52.74c-.82.36-1.69.82-2.01,1.72-.03.08-.05.15-.06.23-1.3-1.27-3.09-2-4.92-1.98,0-.03.01-.06.02-.09.11-.75-.04-1.63-.49-2.25-.16-.21-.52,0-.36.21.39.53.5,1.23.45,1.87-.03.34-.2.56-.47.75-.29.2-.61.34-.95.43-.26.07-.15.47.11.4.54-.14,1.18-.42,1.51-.91,0,0,0,0,0,0,1.92-.07,3.79.72,5.08,2.14.09.67.52,1.28.93,1.8.17.21.46-.09.3-.3-.5-.62-1.07-1.44-.72-2.27.31-.74,1.1-1.11,1.79-1.41.25-.11.03-.47-.21-.36Z"/>
          <path class="cls-14" d="M253.71,48.39c-.22.13-.4.3-.56.49.02-.23.03-.47.02-.7,0-.11-.09-.21-.21-.21-.11,0-.22.1-.21.21.04.54-.04,1.06-.21,1.57-.03.06-.07.11-.11.17-.33.59-.57,1.23-.72,1.88-.06.26.34.37.4.11.13-.61.35-1.19.65-1.74.03-.06.07-.12.11-.18.02-.02.04-.05.05-.08,0,0,0,0,0,0,.1-.17.21-.33.33-.49.19-.25.39-.51.67-.67.23-.13.02-.49-.21-.36Z"/>
          <path class="cls-14" d="M256.74,49.7c-.68,0-1.34.29-1.81.78-.19.19.11.49.3.3.4-.41.95-.65,1.51-.66.27,0,.27-.42,0-.42Z"/>
          <path class="cls-14" d="M250.28,47.29c-.05-.1-.19-.13-.29-.07-.1.06-.12.18-.07.29.24.49.36,1.03.37,1.58,0,.27.42.27.42,0,0-.62-.16-1.23-.43-1.79Z"/>
          <path class="cls-9" d="M262.04,55.99c-.02-.27-.1-.52-.23-.75-.27-.48-.74-.82-1.22-1.06-.24-.12-.43.25-.19.37.42.21.81.48,1.05.89.1.18.17.38.18.58.02.26-.05.52-.13.77-.03.11.06.23.16.25.12.03.21-.05.25-.16.09-.29.16-.58.14-.89Z"/>
          <path class="cls-9" d="M244.99,48.31c-.47-.36-1.12-.44-1.7-.44-.55,0-1.12.15-1.53.53-.08.08-.11.19-.04.29.06.08.21.12.29.04.35-.32.81-.45,1.28-.45.47,0,1.05.06,1.44.35.21.16.48-.16.26-.33Z"/>
          <path class="cls-19" d="M243.89,46.18c-.75-.1-.87-1.06-1.58-1.24-.86-.22-1.83.88-2.16,1.27-1.11,1.26-1.41,2.59-1.64,3.31-.44,1.39-1.51,3.25-4.3,5.13-.4-.68-.99-1.77-1.58-3.18-1.15-2.77-2.05-4.94-1.08-6.68.53-.95,1.43-1.43,1.76-1.61,1.02-.54,1.77-.46,3.43-.53,3.69-.15,4.05-.76,5.81-.28.76.21,2.18.59,2.57,1.73.22.64.11,1.32-.12,1.64-.21.29-.68.49-1.11.43Z"/>
          <path class="cls-6" d="M261.38,51.82c.18.31.51.25.88.5.47.31.6.85.74,1.42.27,1.13.13,2.09.07,2.59-.12.91-.29,2.23-.45,3.97.54-.43,2.74-2.27,2.88-5.15.08-1.55-.42-3.98-1.93-4.57-.66-.26-1.73-.26-2.12.29-.18.26-.24.67-.07.96Z"/>
          <path class="cls-19" d="M261.16,51.83c.64.41,1.35-.23,2,.1.79.4.8,1.86.81,2.38.01,1.68-.63,2.88-.93,3.57-.58,1.34-.99,3.44-.11,6.69.74-.25,1.91-.69,3.28-1.38,2.68-1.34,4.78-2.4,5.19-4.34.22-1.06-.14-2.01-.28-2.37-.41-1.08-1.04-1.5-2.25-2.64-2.69-2.53-2.56-3.22-4.21-4.02-.71-.34-2.03-.98-3.07-.37-.59.34-.95.92-.98,1.32-.03.36.19.82.56,1.06Z"/>
          <path class="cls-14" d="M232.26,74.42c-.73-1.36-1.25-2.82-1.54-4.34-.05-.26-.45-.15-.4.11.3,1.55.84,3.05,1.59,4.44.13.24.49.03.36-.21Z"/>
          <path class="cls-14" d="M232.36,78.6c-.81-.56-1.39-1.43-1.61-2.39-.06-.26-.46-.15-.4.11.24,1.07.9,2.02,1.8,2.64.22.15.43-.21.21-.36Z"/>
          <path class="cls-14" d="M265.01,71.87c-.02-.27-.44-.27-.42,0,.1,1.52-.33,3.02-1.18,4.28-.42.62-.94,1.18-1.53,1.63-.62.47-1.45,1-2.25,1.01-.27,0-.27.42,0,.42.69,0,1.36-.34,1.93-.7.53-.33,1.02-.73,1.45-1.18.86-.92,1.5-2.06,1.81-3.29.18-.71.25-1.44.2-2.16Z"/>
          <path class="cls-14" d="M266.81,77.93c-.02-.27-.44-.27-.42,0,.11,1.16.03,2.33-.25,3.46-.06.26.34.37.4.11.29-1.17.38-2.37.27-3.57Z"/>
          <path class="cls-14" d="M259.82,84.99c-.31,1-1.14,1.81-2.15,2.09-.26.07-.15.48.11.4,1.15-.33,2.09-1.24,2.45-2.39.08-.26-.32-.37-.4-.11Z"/>
          <path class="cls-14" d="M261.57,85.08c-.11-.03-.23.04-.26.15-.15.56-.48,1.06-.94,1.43-.09.07-.07.22,0,.3.09.09.21.07.3,0,.51-.41.87-.99,1.05-1.62.03-.11-.04-.23-.15-.26Z"/>
          <path class="cls-14" d="M231.27,86.95c-.5-.77-.92-1.59-1.35-2.4-.12-.24-.48-.03-.36.21.4.76.8,1.53,1.26,2.26.4.64,1.08,1.31,1.09,2.11,0,.27.42.27.42,0,0-.85-.62-1.5-1.05-2.18Z"/>
          <path class="cls-18" d="M229.78,108.69c-1-.26-2.13.13-2.76.95-.63.81-.73,2.01-.23,2.91.14.26.34.51.6.66.35.2.78.21,1.19.21,1.39,0,2.79,0,4.18-.02.62,0,1.27-.02,1.83-.28,1.08-.5,1.57-1.74,1.96-2.86,1.66-4.79,3.37-9.63,6.13-13.88.15-.22.3-.47.28-.73-.02-.27-.21-.49-.4-.69-2.55-2.75-5.34-5.27-8.32-7.54-.82-.62-1.67-1.37-2.58-1.84-.2.67-.16,1.52-.23,2.23-.07.75-.14,1.5-.2,2.25-.13,1.51-.26,3.03-.39,4.54-.25,3-.48,5.99-.7,8.99-.12,1.7-.24,3.41-.35,5.11Z"/>
          <path class="cls-18" d="M259.64,109.28c.37-.44,1.75-.39,2.2-.01.45.37.8.59.87,1.17.11,1.08-.27,2.33-1.28,2.74-.41.17-.86.17-1.3.18-1.92.01-3.83.02-5.75.04-.54,0-1.12,0-1.55-.34-.33-.26-.5-.67-.64-1.07-.62-1.79-.83-3.68-1.04-5.56-.48-4.36-.97-8.8-2.67-12.85-.12-.28-.24-.59-.14-.88.09-.25.33-.41.56-.54,1.24-.7,2.65-1,4.05-1.26,1.83-.34,3.67-.64,5.52-.88.66-.09,2.14.54,1.97,1.23-.84,3.61-1.84,7.71-1.86,11.42-.01,2.12.43,4.58,1.06,6.61Z"/>
          <path class="cls-14" d="M243.24,95.82c-1.79,1.27-2.62,3.34-3.31,5.34-.09.25.32.36.4.11.65-1.89,1.43-3.89,3.12-5.09.22-.15,0-.52-.21-.36Z"/>
          <path class="cls-14" d="M229.42,110.45c-.63-.17-1.32-.05-1.84.34-.52.39-.83,1-.85,1.65,0,.27.41.27.42,0,.02-.51.26-1,.67-1.31.42-.32.98-.42,1.49-.28.26.07.37-.33.11-.4Z"/>
          <path class="cls-14" d="M229.23,109.31c-1.04-.4-2.22.04-2.77.99-.13.23.23.44.36.21.47-.81,1.44-1.13,2.3-.8.11.04.23-.04.26-.15.03-.12-.04-.22-.15-.26Z"/>
          <path class="cls-14" d="M259.59,110.16c.63-.17,1.32-.05,1.84.34.52.39.83,1,.85,1.65,0,.27-.41.27-.42,0-.02-.51-.26-1-.67-1.31-.42-.32-.98-.42-1.49-.28-.26.07-.37-.33-.11-.4Z"/>
          <path class="cls-14" d="M259.79,109.03c1.04-.4,2.22.04,2.77.99.13.23-.23.44-.36.21-.47-.81-1.44-1.13-2.3-.8-.11.04-.23-.04-.26-.15-.03-.12.04-.22.15-.26Z"/>
          <path class="cls-14" d="M247.7,108.92c-1.53-1.88-2.96-3.84-4.27-5.88-.14-.23-.51-.02-.36.21,1.33,2.07,2.78,4.06,4.33,5.97.17.21.46-.09.3-.3Z"/>
          <path class="cls-14" d="M245.54,107.88c-.3-.41-.75-.63-1.24-.74-.57-.13-1.18-.17-1.76-.23-.27-.03-.27.39,0,.42.52.05,1.05.09,1.57.19.4.08.82.22,1.07.56.16.22.52,0,.36-.21Z"/>
          <path class="cls-14" d="M251.9,109.47c-.23-.83-.31-1.69-.4-2.55-.19-1.74-.46-3.47-.74-5.2-.08-.49-.16-.98-.24-1.47-.07-.4-.1-.82-.37-1.14-.17-.21-.47.09-.3.3.15.18.17.43.21.66.05.27.09.54.14.81.09.54.18,1.08.27,1.63.17,1.08.34,2.17.48,3.26.13,1.02.2,2.06.39,3.07.18,1,.68,1.93.78,2.94.03.27.44.27.42,0-.08-.8-.4-1.52-.62-2.29Z"/>
          <path class="cls-14" d="M272,97.16c-2.01-.04-3.58,1.67-4.79,3.07-1.33,1.54-2.45,3.26-3.3,5.1-.49,1.04-.89,2.12-1.21,3.22-.07.26.33.37.4.11.54-1.88,1.34-3.67,2.36-5.34.99-1.62,2.2-3.18,3.63-4.44.81-.72,1.79-1.33,2.9-1.3.27,0,.27-.41,0-.42Z"/>
          <path class="cls-14" d="M267.36,96.12c-.42,1.21-.85,2.42-1.27,3.64-.09.25.31.36.4.11.42-1.21.85-2.42,1.27-3.64.09-.25-.31-.36-.4-.11Z"/>
          <path class="cls-14" d="M274.42,89.16c-1.71-.47-3.51.17-4.55,1.6-.16.22.2.43.36.21.93-1.27,2.56-1.82,4.08-1.4.26.07.37-.33.11-.4Z"/>
          <path class="cls-14" d="M248.71,100.87c-.28-1.36-.8-2.66-1.53-3.84-.14-.23-.5-.02-.36.21.71,1.15,1.21,2.41,1.49,3.74.05.26.46.15.4-.11Z"/>
          <path class="cls-14" d="M269.63,108.15c-.5-.4-1.3-.18-1.85-.01-.05.02-.08.05-.11.08-.07-.09-.16-.17-.26-.23-.28-.17-.64-.15-.95-.13-.34.02-.68.09-1.01.19-.01,0-.02.01-.03.02-.01,0-.02-.02-.04-.03-.25-.16-.56-.16-.85-.12-.66.09-1.26.58-1.25,1.29,0,.27.42.27.42,0,0-.63.75-1.02,1.32-.87.51.13.5.92.5,1.32,0,.6-.05,1.29-.3,1.84-.11.25-.29.46-.56.53-.28.07-.58.01-.86-.04-.26-.05-.38.35-.11.4.56.1,1.19.17,1.62-.28.41-.43.52-1.09.59-1.65.07-.59.13-1.29-.09-1.87-.02-.06-.05-.12-.08-.18.21-.06.42-.11.64-.13.24-.02.57-.07.8.03.42.19.49.85.48,1.24-.01.51-.17,1.02-.37,1.49-.18.43-.47.92-1,.93-.27,0-.27.42,0,.42.63,0,1.06-.5,1.31-1.03.27-.58.47-1.22.47-1.87,0-.3-.05-.65-.18-.95,0,0,.01,0,.02,0,.26-.08.53-.15.8-.18.23-.02.49-.04.68.11.33.26.32.81.3,1.18-.04.82-.41,2.29-1.5,2.17-.27-.03-.26.39,0,.42.6.07,1.13-.32,1.43-.81.33-.54.47-1.21.49-1.84.02-.5-.04-1.1-.46-1.44Z"/>
          <path class="cls-14" d="M237.8,105.45c-.37,1.39-.81,2.76-1.33,4.1-.25.65-.51,1.31-.82,1.94-.26.53-.57,1.03-1.11,1.31-.24.12-.03.48.21.36.53-.28.9-.76,1.17-1.28.33-.62.58-1.29.84-1.94.57-1.43,1.04-2.89,1.43-4.37.07-.26-.33-.37-.4-.11Z"/>
          <path class="cls-14" d="M260.03,92.39c-.91,4.14-1.97,8.36-1.55,12.64.11,1.17.34,2.32.7,3.43.08.25.48.15.4-.11-1.29-4.02-.75-8.29.08-12.34.24-1.17.51-2.34.77-3.51.06-.26-.34-.37-.4-.11Z"/>
          <path class="cls-1" d="M252.92,57.34c-.06-.23-.22-.41-.39-.57-.12-.12-.26-.22-.4-.32-.15-.13-.32-.24-.49-.34-.8-.5-3.45-1.13-3.75-.82-.29.3-.2.71-.07,1.07.31.91.92,1.69,1.7,2.24.02.02.05.02.07.03.05.03.1.05.16.05.55-.03,1.1-.09,1.64-.19.46-.08,1.03-.14,1.36-.52.15-.17.22-.41.16-.63Z"/>
          <path class="cls-4" d="M263.82,67.45c-.1,1.2-.5,2.29-1.06,3.34-.45.83-.93,1.63-1.46,2.41-.05.08-.1.16-.16.23-1.57,2.29-3.45,4.36-5.58,6.11-.67.55-1.36,1.07-2.08,1.56-1.54,1.05-3.19,1.94-4.92,2.66-.42.18-.87.34-1.33.33-.4,0-.78-.15-1.14-.3-2.47-1.01-4.73-2.53-6.61-4.42-.25-.25-.5-.51-.73-.77l-.02-.03c-.05-.06-.1-.11-.15-.17,0,0,0,0,0,0-.31-.36-.61-.72-.9-1.09-1.56-2.05-2.74-4.38-3.4-6.86-.18-.68-.32-1.37-.42-2.07-.04-.25-.07-.51-.11-.77h0c-.19-1.47-.34-3.1-.36-4.52,0-.28.05-.55.17-.79.24-.49.76-.83,1.58-.83.11.28.23.56.35.83,1.3,2.99,2.81,5.4,5.38,7.57.14.12.5.35.99.64.21.13.45.26.71.4,1.67.91,4.06,2.05,5.15,2.09.69.03,1.38,0,2.07-.07.89-.09,1.79-.26,2.66-.51.67-.19,1.34-.42,1.98-.7,2.3-.99,5.08-2.58,7.26-4.18.4-.3.78-.59,1.14-.88.5-.41.79-.05.92.33.06.19.09.38.08.48Z"/>
          <path class="cls-11" d="M244.61,75.9l.74.78c.06.06.14.09.22.07l1.06-.17c.21-.03.36.18.26.37l-.51.95c-.04.07-.04.16,0,.23l.49.96c.1.19-.06.4-.27.36l-1.06-.19c-.08-.01-.17.01-.22.07l-.76.76c-.15.15-.4.06-.43-.14l-.15-1.07c-.01-.08-.06-.15-.14-.19l-.96-.48c-.19-.09-.18-.36,0-.45l.97-.47c.07-.04.13-.11.14-.19l.16-1.06c.03-.21.29-.29.43-.14Z"/>
          <path class="cls-11" d="M255.56,79.54c-.67.55-1.36,1.07-2.08,1.56l-.13-.26c-.04-.07-.11-.13-.19-.14l-1.07-.14c-.21-.03-.29-.28-.14-.43l.77-.76c.06-.06.09-.14.07-.23l-.19-1.06c-.04-.21.18-.36.36-.27l.96.49c.08.04.16.04.24,0l.95-.51c.19-.1.4.06.37.26l-.17,1.06c-.01.08.01.17.07.22l.2.19Z"/>
          <path class="cls-11" d="M253.12,74.03l-1.06.16c-.08.01-.15.06-.19.14l-.47.97c-.09.19-.36.19-.45,0l-.48-.96c-.04-.07-.11-.13-.19-.14l-1.07-.14c-.21-.03-.29-.28-.14-.43l.72-.72c.89-.09,1.79-.26,2.66-.51l-.04.23c-.01.08.01.16.07.22l.78.75c.15.14.07.4-.14.43Z"/>
          <path class="cls-11" d="M260.4,70.99l-.17,1.06c-.01.08.01.17.07.22l.78.74c.15.14.07.4-.14.43l-1.06.16c-.08.01-.15.06-.19.14l-.47.97c-.09.19-.36.19-.45,0l-.48-.96c-.04-.07-.11-.12-.19-.14l-1.07-.15c-.21-.03-.29-.28-.14-.43l.76-.76c.06-.06.09-.14.07-.22l-.19-1.06c-.04-.21.18-.36.36-.27l.96.49c.07.04.16.04.23,0l.95-.51c.18-.1.4.06.37.26Z"/>
          <path class="cls-11" d="M263.73,66.97l-.61.09c-.08.01-.15.06-.19.14l-.47.97c-.09.19-.36.19-.45,0l-.33-.66c.4-.3.78-.59,1.14-.88.5-.41.79-.05.92.33Z"/>
          <path class="cls-11" d="M243.16,73.01l-1.06.16c-.08.01-.15.06-.19.14l-.47.97c-.09.19-.36.19-.45,0l-.48-.96c-.04-.07-.11-.12-.19-.13l-1.07-.15c-.21-.03-.29-.28-.14-.43l.76-.76c.06-.06.09-.14.07-.23l-.19-1.06c-.04-.21.18-.36.36-.27l.95.49c.08.04.16.04.24,0l.55-.3c.21.13.45.26.71.4l-.12.72c-.01.08.01.16.07.22l.78.74c.15.14.07.4-.14.43Z"/>
          <path class="cls-11" d="M238.73,77.2l-.17,1.06s0,.09.01.14c-.31-.36-.61-.72-.9-1.09l.69-.37c.18-.1.4.06.37.26Z"/>
          <path class="cls-11" d="M239.48,79.37c-.25-.25-.5-.51-.73-.77l.66.63s.07.09.07.14Z"/>
          <path class="cls-11" d="M237.09,70.26l-1.06.16c-.08.01-.15.06-.19.14l-.47.97c-.09.19-.36.19-.45,0l-.48-.96c-.03-.07-.09-.11-.16-.13-.18-.68-.32-1.37-.42-2.07-.04-.25-.07-.51-.11-.77h0c.07-.08.19-.11.29-.05l.96.49c.08.04.16.04.24,0l.95-.51c.18-.1.4.06.37.26l-.17,1.06c-.01.08.01.16.07.22l.78.74c.15.14.07.4-.14.43Z"/>
          <path class="cls-11" d="M235.49,62.29h-.04c-.08.02-.15.07-.19.14l-.47.97c-.09.19-.36.19-.45,0l-.48-.96c-.04-.08-.11-.13-.19-.14h-.1c.24-.51.76-.85,1.58-.85.11.28.23.56.35.83Z"/>
          <path class="cls-7" d="M252.27,73.33c-1.91.22-3.93-.04-5.76-.62-1.76-.56-3.33-1.59-4.86-2.6-.23-.15-.43.21-.21.36,1.57,1.03,3.16,2.07,4.96,2.64,1.86.59,3.93.85,5.87.63.26-.03.27-.45,0-.42Z"/>
          <path class="cls-7" d="M263.41,66.76c-.24,1.23-1.04,2.22-1.81,3.16-.17.21.12.5.3.3.82-.99,1.67-2.05,1.92-3.35.05-.26-.35-.37-.4-.11Z"/>
          <path class="cls-7" d="M235.88,69.37c-.74-1.11-1.03-2.43-1.17-3.73-.14-1.32-.16-2.72.43-3.95.12-.24-.24-.45-.36-.21-.62,1.3-.63,2.76-.48,4.16.14,1.38.45,2.77,1.23,3.95.15.22.51.01.36-.21Z"/>
          <path class="cls-7" d="M252.77,79.96c-1.95,1.25-4.17,2.06-6.47,2.34-.26.03-.27.45,0,.42,2.38-.29,4.66-1.11,6.68-2.4.23-.14.02-.51-.21-.36Z"/>
        </g>
        <g>
          <path class="cls-16" d="M49.19,28.55c.18.28.4.54.66.75-.08-1.88.58-3.78,1.81-5.21.15.27-.06.59-.07.9,0,.14.02.27.07.4,0,0,0,0,0,0,.23-.68.89-2.73,2.14-4.27.45-.55,1.56-1.42,2.12-1.85.28-.21.57-.4.88-.56.27-.14.54-.29.97-.39-.48.38-.88.87-1.15,1.41.71-.64,1.3-1.05,2.24-1.23.94-.18,1.58-.25,2.54-.26.66,0,2.01.09,2.57.44-.61.05-1.21.09-1.82.14,1.65.11,2.84.51,3.58.71.02,0,.03,0,.05.01.3.07.61.15.91.24,3.81,1.19,6.95,4.35,8.1,8.17-.59.41-1.37,0-2-.35-2.26-1.24-4.97-1.51-7.5-1.06-1.3.23-2.58.65-3.72,1.32-2.83,1.67-4.59,4.94-4.58,8.22.01,3.37,1.78,6.33,4.36,8.39-2.09,1.25-5.34-1.34-6.82-2.71-1.51-1.39-2.73-3.11-3.5-5.01-.23-.21-.42-.9-.51-1.11-.19-.44-.37-.89-.54-1.35-.34-.91-.63-1.83-.87-2.77-.26-.99-.45-2.1.07-2.98Z"/>
          <path class="cls-16" d="M119.8,96.2c-.02.25-.02.52.1.74.12.24.36.4.59.54,1.52.9,3.31,1.22,5.07,1.42,5.41.61,10.92.19,16.29,1.09.94.16,1.95.4,2.56,1.13.84,1.01.43,2.78-.77,3.32-.52.23-1.11.25-1.67.26-12.34.23-24.64-1.46-36.76-3.76-1.16-.22-2.43-.51-3.15-1.45-.76-1-.64-2.43-.22-3.62.42-1.19,1.11-2.28,1.4-3.5.31-1.31.14-2.74-.48-3.94-.31-.6-.74-1.21-.67-1.88.12-1.14,1.51-1.6,2.65-1.71,3.46-.33,6.93.25,10.35.84,1.81.31,3.62.62,5.39,1.1.98.27,3.48.57,2.95,1.77-1.08,2.45-3.41,4.85-3.64,7.64Z"/>
          <path class="cls-16" d="M72.76,83.86c-.14.72-.13,6.07-.01,6.79.24,1.45.82,1.47,1.38,2.17.74.95.45,2.39-.19,2.99-.96.9-2.26,1-3.61.68-1.05-.25-2.32-1.14-2.93-2.03-.58-.84-.52-1.95-.47-2.97.16-3.4-.1-6.82-.75-10.16-.1-.51-.21-1.02-.12-1.53.1-.58.76-1.94.9-2.51.75-3.07-1.15-12.31-1.61-14.5,1.61.25,4.71,2.87,6.07,3.78,1.05.7,2.19,1.29,3.16,2.1s1.77,1.93,1.85,3.2c.08,1.41-.73,2.66-1.53,3.75-.85,1.15-1.49,4.94-2.13,8.25Z"/>
          <path class="cls-6" d="M153.56,89.56c.96.4,1.88.91,2.64,1.62.75.71,1.33,1.64,1.5,2.66.13.8-.05,1.72-.7,2.19-.74.53-2.09.58-2.58-.2-1.09-1.76-1.6-2.57-2.87-3.51-1.21-.9-2.33-1.15-3.82-1.4-1.49-.25-4-.21-5.46-.61-1.46-.4-2.88-1.12-3.78-2.34-.15-.2-.28-.43-.3-.68-.02-.25.12-.53.36-.59.17-.05.36.02.53.08,1.86.71,2.71,1.36,4.68,1.64.95.13,2.49.24,3.45.16.86-.07,2.12.25,2.98.23,1.34-.03,2.34.29,3.37.73Z"/>
          <path class="cls-13" d="M35.95,101.53c.66,2.18,2.49,4.17,4.76,4.27,1.66.08,3.48-1.3,3.21-2.94-.09-.52-.36-.98-.59-1.46-1.78-3.75-.5-8.16.81-12.09.35-1.07.72-2.16,1.44-3.03,1.67-2.02,4.77-2.95,7.08-4.19,2.86-1.55,8.61-5.13,10.31-7.8,5.5.82,6.9,5.47,10.11,10.01,3.21,4.54,5.85,9.62,10.06,13.26,2.87,2.48,6.35,4.17,9.91,5.48,5.24,1.93,10.83,3.11,16.39,2.68,5.56-.43,11.11-2.57,15.02-6.55,2.44-2.49,4.42-6.33,7.85-6.95,1.76-.31,5.99-.37,7.76-.21,3.18.3,8.99.31,8.39-.71-.22-.37-.96-.42-1.35-.48-1.44-.23-2.89-.37-4.31-.72-1.41-.35-2.8-.93-3.85-1.94-.23-.21-.44-.58-.23-.81,3.74,1.51,7.89,1.55,11.93,1.45h0c.43-.01.83-.25,1.03-.63.54-1.02.89-2.51,1.12-4.16.07-.49.13-.99.18-1.5.09-.93.65-1.9.14-2.67-.31-.48-.89-.54-1.45-.63-.44-.07-.88-.14-1.31-.2-4.2-.6-7.9-.83-10.42-3.68-1.17-1.32-1.74-3.24-3.28-4.1-.96-.53-2.11-.55-3.21-.55-5.05,0-8.95.63-13.32,3.13-4.13,2.36-9.17,2.98-13.82,2.13-5.33-.97-10.21-3.79-14.2-7.46-5.05-4.65-8.69-10.6-13.24-15.75-4.55-5.14-10.52-9.68-17.38-9.97-3.14-.13-6.27.65-9.12,1.97-1.47.68-2.9,1.52-3.96,2.75-3.23,3.73-2.01,12.3-2.3,17.22-.32,5.35-2.76,10.55-6.67,14.22-.6.56-1.25,1.11-1.65,1.83-.43.78-.55,1.68-.65,2.57-.44,3.81-.88,7.62-1.33,11.43-.26,2.26-.52,4.59.14,6.77Z"/>
          <path class="cls-13" d="M115.81,106.19c-.02.25-.02.52.1.74.12.24.36.4.59.54,1.52.9,15.99,1.61,21.36,2.51.94.16,1.95.4,2.56,1.13.84,1.01.43,2.78-.77,3.32-.52.23-1.11.25-1.67.26-12.34.23-24.64-1.46-36.76-3.76-1.16-.22-2.23-.49-2.95-1.43-.76-1-.84-2.45-.42-3.64.42-1.19,1.11-2.28,1.4-3.5.31-1.31.14-2.74-.48-3.94-.31-.6-.74-1.21-.67-1.88.12-1.14,1.51-1.61,2.65-1.71,3.46-.33,6.93.25,10.35.84,1.81.31,3.62.62,5.39,1.1.99.27,3.48.57,2.95,1.77-1.08,2.45-3.41,4.85-3.64,7.64Z"/>
          <path class="cls-16" d="M129.24,76.47c-.14.58-.07,1.18.02,1.77.13.86.3,1.71.51,2.55.41,1.61.98,3.27.57,4.88-.14.53-.37,1.02-.61,1.51-.78,1.62-1.55,3.24-2.33,4.85-.35.72-.84,1.54-1.64,1.58-.34.01-.67-.13-.96-.29-1.37-.77-2.34-2.09-3.19-3.42-1.83-2.88-3.28-6-4.3-9.25-.15-.47-.29-.95-.23-1.44.09-.78.67-1.41,1.24-1.96,1.08-1.03,2.23-1.97,3.46-2.82.7-.49,1.43-.95,2.25-1.18.82-.23,1.69-.23,2.55-.2.68.02,3.55-.18,3.9.44.35.62-1.09,2.31-1.25,2.98Z"/>
          <path class="cls-1" d="M134.29,75.16c.15-.08.32-.18.37-.34.04-.14-.02-.3-.13-.4-.11-.1-.27-.14-.41-.14-.53-.02-1,.38-1.22.86s-.24,1.03-.24,1.55c0,.08.03.24.15.18.05-.02.06-.19.07-.24.07-.22.2-.43.34-.61.29-.36.67-.65,1.07-.87Z"/>
          <path class="cls-10" d="M137.19,111.89c.73-.13,1.48-.06,2.17.24.61.26,1.17.75,1.17,1.46,0,.27-.42.27-.42,0,0-.58-.53-.94-1.02-1.12-.57-.22-1.19-.28-1.79-.18-.26.05-.38-.36-.11-.4Z"/>
          <path class="cls-10" d="M137.82,110.56c1.11-.03,2.43.15,3.01,1.24.13.24-.23.45-.36.21-.5-.95-1.69-1.06-2.65-1.03-.27,0-.27-.41,0-.42Z"/>
          <path class="cls-10" d="M141.18,101.93c.73-.13,1.48-.06,2.17.24.61.26,1.17.75,1.17,1.46,0,.27-.42.27-.42,0,0-.58-.53-.94-1.02-1.12-.57-.22-1.19-.28-1.79-.18-.26.05-.38-.36-.11-.4Z"/>
          <path class="cls-10" d="M141.82,100.6c1.11-.03,2.43.15,3.01,1.24.13.24-.23.45-.36.21-.51-.95-1.69-1.06-2.65-1.03-.27,0-.27-.41,0-.42Z"/>
          <path class="cls-10" d="M96.58,96.93c.02.9.44,1.75,1.14,2.32.09.07.07.22,0,.3-.09.09-.21.07-.3,0-.78-.63-1.24-1.61-1.26-2.61,0-.27.41-.27.42,0Z"/>
          <path class="cls-10" d="M92.5,96.09c.04-.26.44-.15.4.11-.1.67.04,1.37.36,1.96.16.29.36.56.6.79.06.06.13.12.2.17.02.02.07.04.09.06-.04-.19-.04-.41-.07-.61-.02-.17.25-.28.36-.15.23.28.48.54.77.75.05.04.35.28.39.25.02-.02,0-.19-.01-.22-.02-.1-.05-.2-.1-.29-.12-.24.24-.45.36-.21.11.24.22.55.15.82-.07.26-.31.37-.56.28-.25-.09-.47-.29-.67-.46-.07-.06-.13-.12-.19-.18,0,.06,0,.12-.02.18-.06.25-.32.32-.53.23-.2-.08-.38-.26-.53-.42-.15-.16-.29-.33-.41-.51-.51-.75-.71-1.68-.57-2.57Z"/>
          <path class="cls-10" d="M102.72,81.96c.35.41.78.72,1.26.96.16.08,1.19.66,1.3.44.05-.1.19-.12.29-.07.29.15.6.27.92.35.18.05.75.23.9.03.16-.21.52,0,.36.21-.26.33-.66.29-1.03.23-.41-.07-.81-.2-1.19-.38-.35.29-1.06-.12-1.38-.27-.64-.29-1.25-.66-1.71-1.21-.17-.2.12-.5.3-.3Z"/>
          <path class="cls-10" d="M101.67,83.77c.11-.06.22-.02.29.07.14.19.38.35.6.43.06.02.13.04.19.05.08.02.1.02.18.03.15,0,.26,0,.4-.03.11-.03.23.03.26.15.03.11-.04.23-.15.26-.69.17-1.41-.11-1.83-.67-.07-.09-.01-.23.07-.29Z"/>
          <path class="cls-1" d="M147.59,85.03s0-.02,0-.03c0-.03.02-.05.03-.07,0-.02.02-.03.03-.05.02-.03.04-.06.07-.08.02-.02.04-.03.06-.05,0,0,.02-.01.03-.02.02-.01.05-.02.07-.03.02,0,.04,0,.07,0,0,0,0,0,.01,0,.05,0,.08.01.12.03,0,0,0,0,0,0,.02.01.03.02.05.04,0,0,0,0,0,0,.01.01.03.03.04.05,0,0,0,0,0,0,0,0,.02,0,.02.02.04.04.06.09.06.15,0,.04,0,.07-.01.11,0,.02,0,.04-.01.05-.01.03-.02.07-.04.09-.01.02-.03.04-.05.06,0,0-.01.01-.02.02-.02.02-.04.03-.06.04-.02.01-.05.02-.07.03-.03.01-.06.01-.09.02-.03,0-.07,0-.1,0,0,0-.01,0-.02,0-.02,0-.05-.02-.07-.03-.03-.01-.05-.03-.07-.06-.01-.02-.03-.04-.04-.06,0-.02-.02-.04-.02-.06,0,0,0,0,0-.01-.01-.06-.01-.1,0-.16Z"/>
          <path class="cls-1" d="M147.26,83s.03-.05.05-.07c.02-.02.05-.04.07-.05.04-.02.08-.03.13-.04.03,0,.06,0,.08,0,.03,0,.05,0,.08.02.02.01.04.03.06.05.03,0,.06,0,.09,0,.05.02.1.05.12.1,0,.02.01.03.02.05.01.04.01.07,0,.11,0,.02-.02.05-.03.07-.01.02-.03.04-.05.06-.04.04-.08.06-.14.08-.02,0-.04.01-.06.02-.04,0-.08.01-.12.01-.02,0-.04,0-.06,0-.03,0-.06,0-.08-.01-.01,0-.02,0-.04-.01-.01,0-.03,0-.04-.02-.02-.01-.04-.02-.05-.04,0,0,0,0-.01,0-.03-.03-.05-.07-.06-.11-.02-.07,0-.15.03-.21Z"/>
          <path class="cls-1" d="M147.93,81.59s.03-.07.05-.09c0,0,.01-.01.02-.02.02-.02.04-.03.07-.04.02-.01.05-.02.08-.02.03,0,.06,0,.08.02.03,0,.05.02.07.04.01.01.02.03.03.04.02.03.03.07.03.11,0,.02,0,.04,0,.06,0,.04-.03.07-.05.09,0,0-.01.01-.02.02-.02.02-.04.03-.07.04-.02.01-.05.02-.08.02-.03,0-.06,0-.08-.02-.03,0-.05-.02-.07-.04-.01-.01-.02-.03-.03-.04-.02-.03-.03-.07-.03-.11,0-.02,0-.04,0-.06Z"/>
          <path class="cls-1" d="M146.07,82.16s.02-.05.04-.07c.01-.02.03-.04.06-.05.05-.03.11-.04.16-.02.02,0,.04.02.06.03.02-.01.04-.02.06-.03.03,0,.06-.01.08,0,.03,0,.05,0,.08.02.04.03.08.07.1.12.01.05,0,.11-.02.16-.01.02-.03.04-.04.06,0,0,0,0-.01.01-.02.02-.04.04-.07.05-.06.03-.11.04-.17.04-.12,0-.23-.06-.3-.16-.02-.02-.02-.05-.02-.08,0-.03,0-.06,0-.08Z"/>
          <path class="cls-1" d="M145.44,83.77s.03-.04.04-.05c0,0,0,0,.01-.01.02-.02.05-.04.08-.05.03-.01.06-.03.09-.04.03,0,.06,0,.08,0,.02,0,.03,0,.05.02,0,0,.02,0,.02,0,.04,0,.07,0,.11,0,.03,0,.05.02.07.03.04.02.07.05.09.09.03.05.04.1.04.16,0,.06-.01.08-.04.13-.01.03-.03.05-.05.07-.02.02-.04.04-.07.05-.02.01-.04.02-.07.03,0,0-.01,0-.02,0-.03,0-.06.01-.09.01-.01,0-.03,0-.04,0-.04,0-.08,0-.12-.02-.05-.02-.1-.04-.14-.08-.02-.02-.04-.04-.05-.06,0-.02-.02-.04-.02-.06,0-.01,0-.02,0-.03,0-.01,0-.03,0-.04,0-.05.01-.09.04-.14Z"/>
          <path class="cls-1" d="M145.56,85.4s.03-.07.05-.09l.02-.02s.04-.03.07-.04c.02-.01.05-.02.08-.02.03,0,.06,0,.08.02.03,0,.05.02.07.04.01.01.02.03.03.04.02.03.03.07.03.11,0,.02,0,.04,0,.06,0,.04-.03.07-.05.09,0,0-.01.01-.02.02-.02.02-.04.03-.07.04-.02.01-.05.02-.08.02-.03,0-.06,0-.08-.02-.03,0-.05-.02-.07-.04-.01-.01-.02-.03-.03-.04-.02-.03-.03-.07-.03-.11,0-.02,0-.04,0-.06Z"/>
          <path class="cls-1" d="M149.55,84.04s.03-.07.05-.09l.02-.02s.04-.03.07-.04c.02-.01.05-.02.08-.02.03,0,.06,0,.08.02.03,0,.05.02.07.04.01.01.02.03.03.04.02.03.03.07.03.11,0,.02,0,.04,0,.06,0,.04-.03.07-.05.09,0,0-.01.01-.02.02-.02.02-.04.03-.07.04-.02.01-.05.02-.08.02-.03,0-.06,0-.08-.02-.03,0-.05-.02-.07-.04-.01-.01-.02-.03-.03-.04-.02-.03-.03-.07-.03-.11,0-.02,0-.04,0-.06Z"/>
          <path class="cls-1" d="M143.58,84.83s0-.02,0-.03c0-.02.01-.04.03-.06.03-.04.04-.06.09-.09.02-.01.04-.02.06-.03.04-.01.08-.01.12,0,0,0,0,0,0,0h.03s.07,0,.11.02c.04.03.06.04.08.08.02.04.02.05.03.09,0,0,0,.02,0,.03,0,0,0,0,0,0,0,.02,0,.04,0,.06,0,0,0,0,0,0,0,.02-.01.04-.02.05,0,0,0,0,0,0-.01.02-.02.04-.04.05-.02.02-.04.03-.06.04-.02,0-.04.02-.05.02,0,0,0,0,0,0,0,0,0,0,0,0-.02,0-.05,0-.08,0-.02,0-.03,0-.04,0-.01,0-.03,0-.05,0-.05-.02-.08-.03-.12-.07,0,0,0,0,0,0-.01-.01-.02-.03-.03-.04,0,0,0,0,0,0-.01-.02-.02-.04-.03-.06,0-.02,0-.04,0-.06,0,0,0-.03,0-.03Z"/>
          <path class="cls-1" d="M144.39,82.82s0-.05.03-.09c.01-.02.03-.04.04-.06,0,0,.02-.02.03-.02.01,0,.02-.02.03-.02.01,0,.02-.01.04-.02.01,0,.02-.01.04-.01.03-.01.07-.01.11-.02.02-.02.04-.03.07-.04.03,0,.06,0,.08,0,.03,0,.05,0,.08.02.04.03.08.07.1.12,0,.02,0,.04,0,.06,0,.04,0,.07-.03.11-.04.05-.07.09-.12.13-.01.01-.03.03-.05.04-.02.02-.04.03-.06.05-.02.01-.03.02-.05.03-.03.01-.03.01-.06.02-.01,0-.02,0-.04,0-.04,0-.08-.01-.12-.03,0,0,0,0,0,0-.01,0-.03-.03-.04-.03,0,0,0,0,0,0,0,0-.03-.03-.03-.04,0,0,0,0,0,0-.01-.02-.02-.04-.02-.06,0-.02,0-.05-.01-.07,0-.02,0-.03,0-.05Z"/>
          <path class="cls-1" d="M143,83.22s0-.04,0-.06c0,0,0,0,0-.01,0-.02.01-.04.02-.05,0,0,0,0,0,0,0,0,0,0,0,0,.01-.02.03-.04.05-.06.02-.02.04-.03.07-.04.03,0,.06-.01.08,0,.03,0,.05,0,.08.02.01.01.03.02.04.03h0s0,0,0,0c0,0,.02,0,.03.01.02,0,.03.02.05.03.02.01.03.03.04.05.02.04.03.07.03.11,0,.02,0,.04,0,.06,0,.02-.01.04-.02.05h0s-.02.03-.03.04c-.01.01-.04.03-.05.04,0,0,0,0-.01,0-.02,0-.04.02-.06.02-.02,0-.04,0-.07,0,0,0,0,0-.01,0-.02,0-.04,0-.07,0,0,0,0,0,0,0,0,0,0,0,0,0-.02,0-.04-.01-.05-.02,0,0,0,0-.01,0-.02-.01-.03-.02-.05-.04,0,0,0,0,0,0-.01-.02-.03-.03-.04-.05-.01-.02-.02-.04-.03-.06,0,0,0,0,0-.01,0,0,0,0,0,0,0-.02,0-.04,0-.06,0,0,0,0,0,0,0,0,0,0,0,0Z"/>
          <path class="cls-1" d="M144.42,81.28s.02-.04.02-.06c0,0,0-.01,0-.01.03-.05.05-.06.1-.1,0,0,0,0,.01,0,.02,0,.04-.02.06-.03.03,0,.06-.01.08-.01,0,0,0,0,.01,0,0,0,0,0,0,0,.02,0,.03-.01.05-.02.04,0,.07,0,.11,0,.02,0,.03.01.05.02.03.02.06.04.07.07.03.05.04.1.04.16,0,.03,0,.06,0,.08,0,.03-.02.06-.03.08,0,0,0,.02-.02.03-.02.02-.03.05-.05.06-.04.04-.09.07-.14.08-.06.01-.11.01-.17,0-.05-.01-.1-.04-.14-.08-.02-.02-.03-.04-.05-.06-.03-.05-.03-.08-.04-.13,0-.03,0-.06,0-.08Z"/>
          <path class="cls-1" d="M141.58,84.19s0-.04,0-.06c0,0,0,0,0,0,0,0,0,0,0,0,0,0,0,0,0,0,0-.02.01-.04.02-.05,0,0,0,0,0,0,0,0,0,0,0,0,0-.01.02-.03.03-.04,0,0,0,0,0,0,0,0,.03-.03.04-.03h0s0,0,0,0c.02,0,.04-.02.05-.02,0,0,0,0,0,0,0,0,0,0,.01,0,.02,0,.04,0,.06,0,0,0,0,0,.01,0,.02,0,.03,0,.05,0,.02,0,.03,0,.05,0,.03,0,.05.02.07.04.02.01.04.03.05.06,0,0,0,.01,0,.02,0,0,.02,0,.03.02.02.02.03.04.04.07.01.02.02.05.02.08,0,.02,0,.04,0,.06,0,.04-.03.07-.05.09-.01.01-.03.02-.04.03-.03.02-.07.03-.11.03-.03,0-.06,0-.09,0-.01,0-.03,0-.04,0,0,0,0,0,0,0-.02,0-.04,0-.06,0,0,0,0,0,0,0-.02,0-.04-.01-.06-.03-.04-.02-.06-.04-.08-.08,0,0,0,0,0,0,0-.01-.02-.04-.02-.05,0,0,0,0,0,0,0,0,0-.03,0-.03,0,0,0-.02,0-.03,0,0,0,0,0,0Z"/>
          <path class="cls-1" d="M143.32,81.46c.27,0,.27.42,0,.42s-.27-.42,0-.42Z"/>
          <path class="cls-10" d="M77.6,82.3c.44.75,1.18,1.27,2.02,1.45.26.05.15.46-.11.4-.95-.2-1.79-.81-2.27-1.64-.14-.23.22-.44.36-.21Z"/>
          <path class="cls-10" d="M75.5,82.54c.1-.05.22-.02.29.07.03.04.05.08.08.12.01.02.03.04.04.06,0,0,.01.02.02.03,0,0,0,0,0,0,.06.08.12.15.19.22.07.07.13.13.2.19.04.03.07.06.11.09,0,0,0,0,0,0,0,0,.02.01.03.02.02.02.04.03.06.05.09.06.14.19.07.29-.06.09-.19.14-.29.07-.35-.25-.66-.56-.89-.93-.06-.09-.02-.23.07-.29Z"/>
          <path class="cls-10" d="M59.36,77.41c2.32-1.65,4.16-3.96,5.26-6.59.31-.74.56-1.51.74-2.29.06-.26.47-.15.4.11-.69,2.84-2.19,5.48-4.27,7.53-.6.59-1.24,1.12-1.92,1.6-.22.16-.43-.21-.21-.36Z"/>
          <path class="cls-10" d="M66.13,75.17c1.49.97,2.62,2.35,3.63,3.79,1.18,1.68,2.29,3.4,3.42,5.1.15.22-.21.43-.36.21-1.1-1.65-2.19-3.33-3.32-4.96-.99-1.43-2.11-2.82-3.58-3.78-.22-.15-.02-.51.21-.36Z"/>
          <path class="cls-10" d="M40.1,101.63c.69.29,1.08.96,1.25,1.67.18.75.16,1.61-.32,2.25-.16.21-.52,0-.36-.21.4-.54.43-1.24.29-1.87-.13-.56-.41-1.19-.97-1.43-.24-.1-.14-.51.11-.4Z"/>
          <path class="cls-10" d="M42.54,101.34c.88.95,1.08,2.33.5,3.49-.12.24-.48.03-.36-.21.49-.98.32-2.18-.43-2.98-.18-.2.11-.49.3-.3Z"/>
          <path class="cls-10" d="M70.65,92.9c.74.14,1.26.71,1.58,1.37.33.69.5,1.54.17,2.26-.11.24-.51.12-.4-.13.28-.61.15-1.3-.12-1.89-.24-.52-.65-1.08-1.25-1.19-.26-.05-.24-.47.02-.42Z"/>
          <path class="cls-10" d="M72.98,92.1c1.06.74,1.55,2.05,1.23,3.3-.07.26-.46.13-.4-.13.27-1.07-.15-2.2-1.06-2.82-.22-.15,0-.5.23-.35Z"/>
          <path class="cls-10" d="M53,30.36c.09-.31.35-1.15.83-.77.18.14.21.42.25.63.02.09.03.18.05.28.25-.43.54-.84.95-1.14.21-.16.42.2.21.36-.51.38-.81.97-1.09,1.52-.11.21-.36.08-.39-.11-.03-.23-.07-.46-.11-.68-.02-.1-.04-.21-.07-.31-.01-.06-.03-.11-.04-.17,0,0,0-.01,0-.02-.11.16-.16.4-.21.59-.05.21-.1.42-.12.64-.1.85-.01,1.72.08,2.57.03.27-.39.26-.42,0-.12-1.12-.23-2.29.08-3.39Z"/>
          <path class="cls-10" d="M59.72,25.73c.78-.33,1.59-.6,2.42-.77.2-.04.4-.08.6-.11.1-.02.2-.03.3-.05.07,0,.25,0,.3-.04.02-.02.03,0,.03-.02,0-.04-.06-.07-.08-.08-.08-.04-.18-.05-.27-.06-.18-.03-.33-.08-.48-.2-.06-.05-.08-.18-.03-.25.15-.19.32-.34.55-.43.04-.02.25-.06.25-.09.02-.12-.26-.13-.32-.14-.27-.02-.27-.44,0-.42.35.03.83.21.72.66-.04.17-.19.27-.35.33-.11.04-.22.08-.31.14.12.03.26.03.37.08.18.07.32.21.36.41.09.54-.59.52-.94.58-1,.16-1.99.45-2.93.84-.24.1-.46-.26-.21-.36Z"/>
          <path class="cls-10" d="M56.89,25.25c.53-.8,1.4-1.37,2.36-1.5.11-.02.22.03.26.15.03.1-.03.24-.15.26-.85.12-1.63.59-2.11,1.31-.15.22-.51.01-.36-.21Z"/>
          <path class="cls-10" d="M55.72,33.64c.06-.26.47-.15.4.11-.48,1.94-.26,4.02.61,5.83.12.24-.24.45-.36.21-.93-1.91-1.16-4.09-.65-6.15Z"/>
          <path class="cls-10" d="M81.07,62.81c.1-.06.22-.02.29.07.68.96,1.41,1.97,2.53,2.47.1.05.13.2.07.29-.06.11-.18.12-.29.07-1.17-.52-1.95-1.6-2.68-2.62-.07-.09-.02-.23.08-.29Z"/>
          <path class="cls-10" d="M76.55,64.66c.31.12.62.25.93.37.15.06.3.12.44.18.07.03.15.06.22.09,0-.04,0-.07.02-.11.04-.11.13-.19.25-.22.3-.08.63.13.89.24.73.32,1.43.72,2.09,1.17.22.15.01.51-.21.36-.42-.29-.86-.56-1.31-.8-.39-.2-.83-.47-1.27-.56.01.03.02.07.02.1,0,.07,0,.14-.05.2-.13.16-.31.09-.47.03-.55-.22-1.09-.43-1.64-.65-.25-.1-.14-.5.11-.4Z"/>
          <path class="cls-10" d="M72.2,51.78c.46.17.92.34,1.38.52.06-.16.19-.29.37-.33.26-.06.5.06.73.17.24.12.47.26.7.41.88.58,1.62,1.33,2.21,2.19.15.22-.21.43-.36.21-.4-.59-.88-1.11-1.42-1.57-.27-.23-.56-.43-.86-.61-.15-.09-.29-.17-.45-.25-.09-.05-.18-.1-.28-.13-.04,0-.33-.02-.25.07.13.14,0,.43-.2.35-.56-.21-1.12-.42-1.68-.63-.25-.09-.14-.5.11-.4Z"/>
          <path class="cls-10" d="M48.44,56.31c.1-.25.5-.14.4.11-.25.63-.52,1.29-.54,1.98,0,.31.03.63.15.92.02.06.08.19.12.25h0c.06-.05.1-.14.15-.2.09-.12.21-.23.38-.21.26.03.27.3.28.52.03.57-.29,1.35.24,1.78.21.17-.09.46-.3.3-.64-.51-.34-1.31-.36-2.01-.02.03-.04.05-.06.08-.08.1-.18.18-.31.2-.39.05-.57-.54-.64-.82-.25-.98.11-1.96.47-2.87Z"/>
          <path class="cls-10" d="M39.87,80.76c.07-.08.22-.08.3,0,.08.08.07.21,0,.3-.39.45-.26,1.25.25,1.56.23.14.02.5-.21.36-.75-.45-.91-1.56-.33-2.22Z"/>
          <path class="cls-10" d="M116.2,104.24c.72-1.28,1.82-2.36,2.34-3.75.33-.88.37-1.82.34-2.76,0-.27.41-.27.42,0,.03.95,0,1.93-.34,2.83-.3.81-.78,1.52-1.27,2.21-.51.71-1.04,1.42-1.4,2.22-.34.77-.48,2.04.51,2.41.25.09.14.5-.11.4-.6-.22-.98-.78-1.07-1.41-.1-.76.22-1.51.58-2.16Z"/>
          <path class="cls-10" d="M97.59,106.11c.12-.51.38-.96.62-1.42.24-.47.43-.95.56-1.46.25-1.03.26-2.12.08-3.17-.21-1.2-.64-2.35-1.19-3.43-.12-.24.24-.45.36-.21.9,1.79,1.52,3.79,1.33,5.81-.09.97-.37,1.89-.83,2.75-.24.46-.48.91-.58,1.42-.09.54-.06,1.09.04,1.62.09.55.18,1.14.59,1.54.4.4.91.69,1.44.88.25.09.14.49-.11.4-.83-.29-1.8-.85-2.1-1.73-.31-.92-.45-2.06-.22-3.01Z"/>
          <path class="cls-10" d="M120.31,83.36c.01-.27.43-.27.42,0-.06,1.12.18,2.25.67,3.26.25.5.55.97.91,1.39.18.21.37.4.57.59.12.11.65.58.71.19.03-.22.34-.17.4,0,.13.34.4.8.74.96.15.07.15,0,.2-.14.04-.1.06-.2.09-.3.05-.23.06-.47.03-.71-.02-.27.39-.27.42,0,.03.36,0,.73-.12,1.08-.08.25-.21.58-.53.55-.28-.02-.56-.3-.73-.49-.14-.15-.25-.31-.34-.49-.09.06-.2.09-.31.1-.33.01-.6-.23-.83-.43-.51-.46-.95-1-1.3-1.58-.71-1.19-1.07-2.59-1.01-3.98Z"/>
          <g>
            <path class="cls-6" d="M123.62,49.26c.13-.22.4-.29.62-.17l3.72,2.15-2.87-3.21c-.17-.19-.15-.47.04-.64.19-.17.47-.15.64.04l1.1,1.23-.87-1.42c-.13-.21-.06-.49.15-.62.21-.13.49-.06.62.15l1.66,2.7-1.01-3.01c-.08-.24.05-.49.29-.57.24-.08.49.05.57.29l.95,2.81-.28-2.93c-.02-.25.16-.47.41-.49h0c.25-.02.47.16.49.41l.17,1.75.14-1.7c.02-.25.24-.43.49-.41.25.02.43.24.41.49l-.28,3.26,1.08-3.21c.08-.24.34-.36.57-.29h0c.24.08.36.34.28.57l-1.01,3.01,1.66-2.7c.13-.21.41-.28.62-.15.21.13.28.41.15.62l-.87,1.42,1.1-1.23c.17-.19.45-.2.64-.04.19.17.2.45.04.64l-2.87,3.21,3.72-2.15c.22-.13.49-.05.62.17h0c.13.22.05.49-.17.62l-6.01,3.47s-.04.03-.05.04c-.08.06-.19.1-.3.09-.13-.01-.25-.08-.32-.18l-5.86-3.39c-.22-.13-.29-.4-.17-.62Z"/>
            <g>
              <path class="cls-4" d="M125.15,71.88c1.59.72,5.43.79,8.27.31,1.21-.2,2.24-.5,2.83-.9.09-.06.14-.16.15-.26,0-.04,0-.09-.01-.14-.16-.51-.33-1.01-.49-1.51-.15-.48-.31-.96-.47-1.44-.21-.63-.41-1.26-.62-1.88-.17-.51-.34-1.02-.51-1.53-.25-.75-.5-1.51-.75-2.26-.19-.56-.37-1.11-.56-1.67-.27-.8-.54-1.61-.8-2.42-.21-.62-.41-1.24-.62-1.87h0c-.39-1.19-.78-2.38-1.17-3.58-.11-.33-.58-.32-.67.02-.17.64-.34,1.28-.51,1.92h0c-.13.5-.26.99-.38,1.49-.14.53-.27,1.06-.4,1.59h0c-.13.51-.25,1.01-.38,1.52-.13.54-.27,1.08-.4,1.61-.13.51-.25,1.02-.38,1.54h0c-.13.53-.26,1.06-.39,1.59-.13.51-.25,1.02-.38,1.53-.15.61-.3,1.22-.46,1.82-.13.5-.26,1-.39,1.5-.22.86-.45,1.73-.69,2.59-.04.16.03.34.19.41Z"/>
              <g>
                <path class="cls-7" d="M125.65,68.88c1.02.82,2.26,1.62,3.75,2.26,1.29.55,2.74.87,4.02,1.05,1.21-.2,2.24-.5,2.83-.9.09-.06.14-.16.15-.26-1.24-.02-4.13-.19-6.44-1.18-1.6-.68-2.89-1.58-3.91-2.48-.13.5-.26,1-.39,1.5Z"/>
                <path class="cls-7" d="M126.5,65.56c1.09.94,2.45,1.85,4.12,2.57,1.68.72,3.45,1.14,5.28,1.26-.15-.48-.31-.96-.47-1.44-1.47-.15-2.9-.52-4.26-1.1-1.8-.77-3.22-1.81-4.29-2.82-.13.51-.25,1.02-.38,1.53Z"/>
                <path class="cls-7" d="M127.27,62.44h0c1.1.95,2.47,1.88,4.16,2.61,1.09.46,2.22.81,3.37,1.02-.17-.51-.34-1.02-.51-1.53-.79-.19-1.56-.45-2.32-.77-1.83-.78-3.26-1.84-4.33-2.87-.13.51-.25,1.02-.38,1.54Z"/>
                <path class="cls-7" d="M128.05,59.29c1.05.88,2.36,1.74,3.94,2.42.51.22,1.03.41,1.56.57-.19-.56-.37-1.11-.56-1.67-.15-.06-.3-.12-.45-.18-1.71-.73-3.06-1.7-4.11-2.66-.13.51-.25,1.01-.38,1.52Z"/>
                <path class="cls-7" d="M128.83,56.18c.94.73,2.05,1.44,3.35,2.02-.21-.62-.41-1.24-.62-1.87h0c-.9-.51-1.68-1.07-2.35-1.64-.13.5-.26.99-.38,1.49Z"/>
              </g>
            </g>
          </g>
          <path class="cls-1" d="M135.88,77.46c-.04-.15-.12-.29-.23-.39-.13-.12-.33-.2-.5-.13-.22.09-.29.33-.27.55,0,.06.01.11.03.16,0,.02.02.05.03.07,0,.01.01.02.02.04.02.04.05.08.08.12.1.13.22.28.39.32.19.05.37-.07.44-.25.06-.16.06-.33.02-.49Z"/>
          <path class="cls-1" d="M150.44,81.93c.27.76.75,1.46,1.42,1.91.27.18.62.33.92.2,0,0,.01,0,.01,0,.07-.49.13-.99.18-1.5.09-.93.65-1.9.14-2.67-.31-.48-.89-.54-1.45-.63-.44-.07-.88-.14-1.31-.2-.1.14-.13.33-.15.51-.08.8-.02,1.63.24,2.39Z"/>
        </g>
        <g>
          <path class="cls-14" d="M344.11,102.98c.18.27.4.56.72.62.32.06.69-.3.51-.58,1.64,3.56,5.32,5.64,8.61,7.78.56.36,1.11.74,1.57,1.22,1.2,1.26,1.57,3.25.9,4.86-.91-.05-1.84.42-2.26,1.23-.42.8-.23,1.9.48,2.46.51.41,1.2.5,1.86.54,1.43.07,2.86-.11,4.23-.52.36-.11.72-.24,1.01-.47.6-.49.78-1.33.89-2.1.35-2.36.49-4.76.42-7.14-.01-.38-.03-.76-.17-1.11-.2-.51-.65-.88-1.04-1.27-1.06-1.03-1.89-2.29-2.4-3.68.22-.04.43-.07.65-.11-.27-1.07-.77-2.08-1.46-2.94.36.08.53-.44.5-.81-.1-1.29-.51-2.56-1.21-3.65.31.11.66-.09.81-.38.16-.29.16-.63.16-.95-.01-1.1-.1-2.2-.28-3.29.05.21.25.37.46.37.74-3.55-.62-7.46-3.41-9.78-4.73,1.79-8.32,5.72-12.73,8.2-.83.46-1.8.97-2.35,1.78-.66.98-.1,1.96.24,3,.78,2.38,1.89,4.65,3.29,6.73Z"/>
          <path class="cls-14" d="M296.69,96.3c-.95.79-1.9,1.6-2.52,2.66-.24.4-.43.85-.42,1.31,0,.28.08.56.16.83.41,1.41.89,2.8,1.45,4.15.27.67.59,1.36,1.2,1.75.83.52,1.99.27,2.68-.42.69-.69.96-1.72.94-2.7-.02-.98-.31-1.93-.59-2.87,2.74-1.28,5.91-.89,8.94-.96.19,0,.38-.01.54-.12.41-.28.2-.91-.05-1.33-1.2-1.96-2.71-3.74-4.44-5.24-.33-.29-1.2-1.43-1.57-1.5-.47-.09-1.76,1-2.16,1.26-1.45.96-2.81,2.05-4.14,3.15Z"/>
          <path class="cls-8" d="M371.63,80.53c2.23-.52,4.5-1.06,6.49-2.2.73-.42,1.43-.93,2.25-1.15.38.64.3,1.48-.03,2.14-.34.66-.9,1.19-1.48,1.66-.38.31-.77.6-1.17.87.24.08.49-.05.74-.13.24-.08.58-.04.65.2.06.23-.18.42-.38.54-.62.36-1.24.73-1.86,1.09.2-.04.41-.07.59,0,.19.07.33.29.25.47-.04.09-.13.15-.21.2-.74.47-1.59.77-2.46.89.31-.02.48.41.34.68-.14.27-.45.41-.74.51-1.5.52-3.11.7-4.7.62.02-.51-.25-.99-.51-1.43-.49-.82-.99-1.65-1.48-2.47-.25-.42-.52-.86-.93-1.14-.26-.17-1.27-.36-.8-.73.31-.25,1.3.01,1.7,0,1.28-.04,2.53-.33,3.77-.62Z"/>
          <path class="cls-8" d="M302.31,55.86c-3.88-1.81-9.28-1.47-11.74,2.03-.52.74-.97,1.59-1.77,1.99-.62.31-1.35.3-2.05.27-2.81-.14-5.61-.56-8.34-1.25-.33-.08-.7-.16-.98.03-.23.15-.32.44-.39.7-.67,2.73.37,7.57,1.1,9.27.37.87,3.82,2.24,4.73,2.45,5.84,1.41,10.53,5.83,13.93,10.79,3.4,4.96,5.76,10.54,8.79,15.72,1.19,2.02,2.5,4.01,4.24,5.58,4.64,4.16,15.11,5.53,16.81,4.87.77-.3.88-1.08.69-1.84.83.64,1.8,1.25,2.84,1.13,1.04-.11,1.96-1.33,1.41-2.22.42.56,1.27.73,1.87.37.6-.36.85-1.19.56-1.82.42.77,1.45,1.16,2.27.85.83-.31,1.36-1.26,1.17-2.12,3.51,1.68,7.92-1.43,11.62-2.66,3.7-1.23,6.99-.55,10.81-1.3,2.77-.55,5.74-.54,8.19-1.94,2.79-1.58,4.43-4.9,4.22-8.1-.2-3.2-2.13-6.19-4.84-7.92-5.22-3.32-12.07-1.89-18.08-3.36-1.63-.4-3.43-.41-5.09-.16-2.66.4-5.11-.74-7.99-.69-1.95.03-3.89-.36-5.8-.75-5.05-1.03-12-1.82-16.03-5.3-3.35-2.89-4.91-7.21-7.32-10.8-1.33-1.99-2.64-2.79-4.84-3.82Z"/>
          <g>
            <path class="cls-6" d="M314.79,37.97c-.05-.25-.29-.4-.54-.35l-4.2.86,3.74-2.14c.22-.12.29-.4.17-.62-.12-.22-.4-.29-.62-.17l-1.44.82,1.27-1.07c.19-.16.22-.45.06-.64-.16-.19-.45-.22-.64-.06l-2.42,2.04,1.91-2.53c.15-.2.11-.48-.09-.64-.2-.15-.48-.11-.63.09l-1.78,2.37,1.19-2.69c.1-.23,0-.5-.23-.6h0c-.23-.1-.5,0-.6.23l-.71,1.61.4-1.66c.06-.24-.09-.49-.33-.55-.24-.06-.49.09-.55.33l-.77,3.18v-3.39c-.01-.25-.22-.45-.47-.45h0c-.25,0-.45.2-.45.46v3.17s-.71-3.08-.71-3.08c-.06-.24-.3-.39-.55-.34-.24.06-.4.3-.34.55l.38,1.62-.66-1.52c-.1-.23-.37-.34-.6-.24-.23.1-.34.37-.24.6l1.71,3.95-2.85-3.21c-.17-.19-.45-.2-.64-.04h0c-.19.17-.2.45-.04.64l4.61,5.19s.03.03.04.05c.06.09.15.15.26.18.13.03.26,0,.36-.07l6.63-1.36c.25-.05.4-.29.35-.54Z"/>
            <path class="cls-4" d="M306.2,58.95c-.77.08-1.91-.1-3.18-.44-.58-.16-1.17-.35-1.77-.56-.17-.06-.33-.12-.49-.18-.52-.2-1.04-.41-1.53-.64-.34-.15-.67-.32-.98-.48-1.09-.58-1.97-1.18-2.4-1.74-.07-.08-.09-.19-.06-.29,0-.04.03-.09.06-.13.02-.02.03-.04.04-.06.23-.31.46-.62.69-.93.02-.02.03-.04.05-.06.05-.08.11-.15.17-.23.11-.15.22-.3.33-.45.19-.26.38-.51.57-.77.38-.51.75-1.01,1.13-1.52.02-.02.04-.05.05-.07.21-.29.43-.58.64-.86.11-.14.22-.29.32-.43.43-.58.87-1.16,1.3-1.74.04-.06.08-.11.13-.17.13-.17.25-.34.38-.5.11-.15.23-.3.34-.46.11-.15.22-.3.34-.45.12-.16.24-.33.36-.49.25-.33.49-.66.74-.99.14-.19.28-.38.42-.56.03-.04.06-.07.08-.11.36-.49.73-.98,1.09-1.47h0s.07-.1.11-.15c.36-.48.71-.95,1.06-1.43.36-.49.72-.97,1.07-1.46.21-.28.66-.12.63.23-.03.49-.06.97-.09,1.46-.01.17-.02.35-.04.52h0c0,.11-.01.22-.02.33,0,.14-.02.28-.03.41-.02.26-.03.53-.06.79,0,.1-.01.2-.02.29-.03.45-.06.9-.1,1.35h0s0,.09,0,.13c-.02.28-.05.57-.07.85-.02.19-.03.39-.05.58-.02.3-.05.6-.07.89-.02.25-.04.51-.06.76,0,.11-.02.21-.03.32-.01.15-.02.29-.03.44-.02.27-.04.54-.07.81h0s0,.03,0,.04c-.04.53-.08,1.07-.13,1.6-.02.31-.05.62-.07.93-.02.21-.03.43-.05.64-.01.15-.02.29-.03.44-.04.48-.07.95-.11,1.43-.04.52-.07,1.03-.1,1.54,0,.07,0,.13-.01.2-.03.49-.06.98-.09,1.47-.02.34-.04.68-.06,1.01,0,.17-.14.31-.31.33Z"/>
            <path class="cls-7" d="M298.74,54.78c-.11.34-.48.52-.82.41-.34-.11-.52-.48-.41-.82.11-.34.48-.52.82-.41.34.11.52.48.41.82Z"/>
            <path class="cls-7" d="M299.22,50.95c-.11.34-.48.52-.82.41-.34-.11-.52-.48-.41-.82.11-.34.48-.52.82-.41.34.11.52.48.41.82Z"/>
            <path class="cls-7" d="M301.81,53.64c-.11.34-.48.52-.82.41-.34-.11-.52-.48-.41-.82.11-.34.48-.52.82-.41.34.11.52.48.41.82Z"/>
            <path class="cls-7" d="M302.77,57.34c-.11.34-.48.52-.82.41-.34-.11-.52-.48-.41-.82.11-.34.48-.52.82-.41.34.11.52.48.41.82Z"/>
            <path class="cls-7" d="M305.67,56.06c-.11.34-.48.52-.82.41-.34-.11-.52-.48-.41-.82.11-.34.48-.52.82-.41.34.11.52.48.41.82Z"/>
            <path class="cls-7" d="M307.35,53.65c-.11.34-.48.52-.82.41-.34-.11-.52-.48-.41-.82.11-.34.48-.52.82-.41.34.11.52.48.41.82Z"/>
            <path class="cls-7" d="M304.33,51.96c-.11.34-.48.52-.82.41-.34-.11-.52-.48-.41-.82.11-.34.48-.52.82-.41.34.11.52.48.41.82Z"/>
            <path class="cls-7" d="M302.1,49.34c-.11.34-.48.52-.82.41-.34-.11-.52-.48-.41-.82.11-.34.48-.52.82-.41.34.11.52.48.41.82Z"/>
            <path class="cls-7" d="M306.99,50.02c-.11.34-.48.52-.82.41-.34-.11-.52-.48-.41-.82.11-.34.48-.52.82-.41.34.11.52.48.41.82Z"/>
            <path class="cls-7" d="M304.72,47.95c-.11.34-.48.52-.82.41-.34-.11-.52-.48-.41-.82.11-.34.48-.52.82-.41.34.11.52.48.41.82Z"/>
            <path class="cls-7" d="M302.73,45.92c-.11.34-.48.52-.82.41-.34-.11-.52-.48-.41-.82.11-.34.48-.52.82-.41.34.11.52.48.41.82Z"/>
            <path class="cls-7" d="M307.58,46.63c-.11.34-.48.52-.82.41-.34-.11-.52-.48-.41-.82.11-.34.48-.52.82-.41.34.11.52.48.41.82Z"/>
            <path class="cls-7" d="M305.45,44.75c-.11.34-.48.52-.82.41-.34-.11-.52-.48-.41-.82.11-.34.48-.52.82-.41.34.11.52.48.41.82Z"/>
            <path class="cls-7" d="M307.88,43.22c-.11.34-.48.52-.82.41-.34-.11-.52-.48-.41-.82.11-.34.48-.52.82-.41.34.11.52.48.41.82Z"/>
            <path class="cls-7" d="M306.47,41.39c-.11.34-.48.52-.82.41-.34-.11-.52-.48-.41-.82.11-.34.48-.52.82-.41.34.11.52.48.41.82Z"/>
            <path class="cls-7" d="M308.44,40.27c-.11.34-.48.52-.82.41-.34-.11-.52-.48-.41-.82.11-.34.48-.52.82-.41.34.11.52.48.41.82Z"/>
          </g>
          <path class="cls-15" d="M282.5,65.24s0-.02,0-.03c0-.03,0-.05,0-.08,0-.02,0-.04-.02-.06-.01-.03-.02-.07-.04-.1-.01-.02-.03-.04-.04-.06,0,0-.01-.02-.02-.02-.02-.02-.04-.03-.06-.05-.02-.01-.04-.02-.06-.03,0,0,0,0-.01,0-.05-.01-.08-.01-.12,0,0,0,0,0,0,0-.02,0-.04.01-.06.02,0,0,0,0,0,0-.02.01-.03.02-.05.04,0,0,0,0,0,0,0,0-.02,0-.03,0-.05.03-.09.07-.1.12,0,.03-.01.07-.02.1,0,.02,0,.04,0,.05,0,.03,0,.07.01.1,0,.02.02.05.03.07,0,0,0,.02.01.02.01.02.03.04.04.06.02.02.04.03.06.05.03.02.06.03.09.04.03.01.06.02.09.02,0,0,.01,0,.02,0,.02,0,.05,0,.07,0,.03,0,.06-.02.08-.03.02-.01.04-.03.06-.04.01-.01.03-.03.04-.05,0,0,0,0,0-.01.03-.05.04-.09.05-.15Z"/>
          <path class="cls-15" d="M283.41,63.39s-.02-.06-.03-.08c-.02-.03-.03-.05-.05-.07-.04-.03-.07-.06-.11-.08-.02-.02-.05-.03-.08-.03-.03,0-.05,0-.08,0-.02,0-.05.02-.07.03-.03-.01-.06-.02-.08-.02-.05,0-.11.02-.15.05-.01.01-.02.03-.03.04-.02.03-.03.07-.03.11,0,.03,0,.05.01.08,0,.02.02.05.03.07.03.05.06.08.11.12.02.01.03.02.05.03.03.02.07.03.11.05.02,0,.04.01.06.02.03,0,.05.01.08.01.01,0,.03,0,.04,0,.01,0,.03,0,.04,0,.02,0,.04-.01.06-.02,0,0,0,0,.01,0,.04-.02.07-.05.09-.09.04-.06.05-.14.04-.21Z"/>
          <path class="cls-15" d="M283.18,61.85s0-.07-.02-.1c0,0,0-.01-.01-.02-.01-.02-.03-.05-.05-.06-.02-.02-.04-.03-.07-.04-.03,0-.05-.01-.08,0-.03,0-.05,0-.08.02-.01.01-.03.02-.04.03-.03.03-.05.06-.06.09,0,.02,0,.04,0,.06,0,.04,0,.07.02.1,0,0,0,.01.01.02.01.02.03.05.05.06.02.02.04.03.07.04.03,0,.05.01.08,0,.03,0,.05,0,.08-.02.01-.01.03-.02.04-.03.03-.03.05-.06.06-.09,0-.02,0-.04,0-.06Z"/>
          <path class="cls-15" d="M284.79,62.94s0-.05-.01-.08c0-.03-.02-.05-.04-.07-.04-.04-.09-.07-.15-.07-.02,0-.05,0-.07.01-.01-.02-.03-.03-.05-.05-.02-.02-.05-.03-.08-.03-.03,0-.05,0-.08,0-.05.01-.1.04-.13.09-.03.05-.04.11-.03.16,0,.02.01.04.02.07,0,0,0,.01,0,.02.01.02.03.05.05.07.05.04.09.07.15.09.12.03.24.01.33-.07.02-.02.04-.04.05-.07.01-.02.02-.05.02-.08Z"/>
          <path class="cls-15" d="M284.92,64.67s-.01-.04-.02-.06c0,0,0-.01,0-.02-.02-.03-.03-.05-.06-.07-.02-.02-.05-.04-.07-.06-.02-.02-.05-.03-.08-.03-.02,0-.03,0-.05,0,0,0-.01-.01-.02-.02-.03-.02-.07-.03-.11-.03-.03,0-.05,0-.08,0-.04.01-.08.03-.11.06-.04.04-.07.09-.08.14-.01.05-.01.08,0,.13,0,.03.02.05.03.08.01.02.03.05.05.07.02.02.04.03.05.05,0,0,.01,0,.02.01.03.02.06.03.08.04.01,0,.03.01.04.01.04.01.08.02.12.02.06,0,.11,0,.16-.03.02-.01.05-.03.06-.05.01-.01.03-.03.04-.05,0,0,.01-.02.01-.03,0-.01.01-.02.02-.03.01-.05.02-.09,0-.14Z"/>
          <path class="cls-15" d="M284.33,66.19s0-.07-.02-.1v-.02s-.04-.05-.06-.06c-.02-.02-.04-.03-.07-.04-.03,0-.05-.01-.08,0-.03,0-.05,0-.08.02-.01.01-.03.02-.04.03-.03.03-.05.06-.06.09,0,.02,0,.04,0,.06,0,.04,0,.07.02.1,0,0,0,.01.01.02.01.02.03.05.05.06.02.02.04.03.07.04.03,0,.05.01.08,0,.03,0,.05,0,.08-.02.01-.01.03-.02.04-.03.03-.03.05-.06.06-.09,0-.02,0-.04,0-.06Z"/>
          <path class="cls-15" d="M280.91,63.71s0-.07-.02-.1v-.02s-.04-.05-.06-.06c-.02-.02-.04-.03-.07-.04-.03,0-.05-.01-.08,0-.03,0-.05,0-.08.02-.01.01-.03.02-.04.03-.03.03-.05.06-.06.09,0,.02,0,.04,0,.06,0,.04,0,.07.02.1,0,0,0,.01.01.02.01.02.03.05.05.06.02.02.04.03.07.04.03,0,.05.01.08,0,.03,0,.05,0,.08-.02.01-.01.03-.02.04-.03.03-.03.05-.06.06-.09,0-.02,0-.04,0-.06Z"/>
          <path class="cls-15" d="M286.39,66.23s0-.02,0-.03c0-.02,0-.05,0-.07-.02-.05-.02-.07-.06-.11-.01-.02-.03-.03-.05-.04-.04-.02-.07-.03-.12-.04,0,0,0,0,0,0h-.03s-.07-.03-.11-.02c-.04.02-.07.02-.1.06-.03.03-.04.04-.05.08,0,0-.01.02-.01.03,0,0,0,0,0,0,0,.02,0,.04,0,.06,0,0,0,0,0,0,0,.02,0,.04,0,.06,0,0,0,0,0,0,0,.02.01.04.02.06.01.02.03.04.04.06.01.01.03.03.04.04,0,0,0,0,0,0,0,0,0,0,0,0,.02.01.05.02.07.03.01,0,.03,0,.04,0,.01,0,.03,0,.05,0,.05,0,.09,0,.13-.03,0,0,0,0,0,0,.01,0,.03-.02.05-.03,0,0,0,0,0,0,.02-.02.03-.03.04-.05,0-.02.02-.04.03-.06,0,0,0-.03,0-.03Z"/>
          <path class="cls-15" d="M286.21,64.07s0-.05,0-.1c0-.02-.01-.05-.02-.07,0-.01-.01-.02-.02-.03,0-.01-.01-.02-.02-.03,0,0-.02-.02-.03-.03-.01,0-.02-.02-.03-.03-.03-.02-.06-.03-.1-.05-.01-.02-.03-.04-.05-.05-.02-.02-.05-.03-.08-.03-.03,0-.05,0-.08,0-.05.01-.1.04-.13.09,0,.02-.02.03-.02.05-.01.04-.01.07,0,.11.02.06.04.11.07.16.01.02.02.04.03.05.01.02.03.04.05.07.01.02.02.03.04.04.02.02.03.02.06.04.01,0,.02.01.03.01.04.01.08.01.12,0,0,0,0,0,0,0,.01,0,.04-.01.05-.02,0,0,0,0,0,0,0,0,.04-.02.04-.03,0,0,0,0,0,0,.02-.01.03-.03.04-.05.01-.02.02-.04.03-.06,0-.01,0-.03.01-.05Z"/>
          <path class="cls-15" d="M287.42,64.85s0-.04.01-.06c0,0,0,0,0-.01,0-.02,0-.04,0-.05,0,0,0,0,0,0,0,0,0,0,0,0,0-.03-.02-.05-.03-.07-.01-.02-.03-.04-.06-.06-.02-.02-.05-.03-.08-.03-.03,0-.05,0-.08,0-.02,0-.03.01-.05.02h0s0,0-.01,0c0,0-.02,0-.03,0-.02,0-.04.01-.05.02-.02,0-.04.02-.05.04-.03.03-.05.05-.06.1,0,.02-.01.04-.01.06,0,.02,0,.04,0,.06h0s.01.03.02.05c0,.02.03.04.03.05,0,0,0,0,0,0,.02.01.03.03.05.04.02.01.04.02.06.03,0,0,0,0,.01,0,.02,0,.04,0,.07.01,0,0,0,0,0,0,0,0,0,0,0,0,.02,0,.04,0,.06,0,0,0,0,0,.01,0,.02,0,.04-.01.05-.02,0,0,0,0,0,0,.02-.01.04-.02.05-.04.02-.01.03-.04.04-.05,0,0,0,0,0,0,0,0,0,0,0,0,0-.02.02-.04.02-.05,0,0,0,0,0,0,0,0,0,0,0,0Z"/>
          <path class="cls-15" d="M286.63,62.58s0-.04,0-.06c0,0,0-.01,0-.02-.02-.05-.03-.08-.06-.12,0,0,0,0-.01-.01-.02-.01-.03-.03-.05-.04-.02-.02-.05-.03-.08-.03,0,0,0,0-.01,0,0,0,0,0,0,0-.01-.01-.03-.02-.04-.03-.03-.02-.07-.03-.11-.03-.02,0-.04,0-.05,0-.04,0-.07.02-.09.05-.04.04-.07.09-.09.14,0,.03-.01.05-.01.08,0,.03,0,.06,0,.09,0,.01,0,.02,0,.03,0,.02.02.05.03.08.03.05.06.09.11.12.05.03.1.05.16.05.05,0,.11-.01.16-.04.02-.01.04-.03.06-.04.04-.04.05-.07.07-.11.01-.03.01-.05.01-.08Z"/>
          <path class="cls-15" d="M288.48,66.2s0-.04,0-.06c0,0,0,0,0,0,0,0,0,0,0,0,0,0,0,0,0,0,0-.02,0-.04,0-.06,0,0,0,0,0,0,0,0,0,0,0,0,0-.02-.01-.04-.02-.05,0,0,0,0,0-.01,0,0-.02-.04-.03-.04,0,0,0,0,0,0,0,0,0,0,0,0-.01-.01-.03-.03-.04-.04,0,0,0,0,0,0,0,0,0,0,0,0-.02,0-.04-.02-.06-.03,0,0,0,0-.01,0-.02,0-.03,0-.05,0-.02,0-.03,0-.05,0-.03,0-.05,0-.08.01-.03,0-.05.02-.07.04,0,0,0,.01-.01.02-.01,0-.02,0-.03,0-.02.01-.05.03-.06.05-.02.02-.03.04-.04.07,0,.02,0,.04,0,.06,0,.04,0,.07.02.1.01.01.02.03.03.04.03.03.06.05.09.06.03,0,.06.02.08.03.01,0,.03,0,.04.01,0,0,0,0,0,0,.02,0,.04,0,.06,0,0,0,0,0,0,0,.02,0,.05,0,.07,0,.04-.01.07-.03.1-.05,0,0,0,0,0,0,0,0,.03-.03.04-.04,0,0,0,0,0,0,0,0,.01-.02.01-.03,0,0,.01-.02.01-.03,0,0,0,0,0,0Z"/>
          <path class="cls-15" d="M287.63,63.08c-.26-.08-.38.32-.12.4.26.08.38-.32.12-.4Z"/>
          <path class="cls-1" d="M293.6,61.85c.02-.15.08-.3.18-.42.11-.14.3-.24.48-.19.23.06.33.28.34.51,0,.06,0,.11-.01.17,0,.02-.02.05-.02.07,0,.01,0,.03-.01.04-.02.04-.04.09-.06.13-.08.15-.18.31-.34.37-.18.07-.38-.02-.47-.19-.08-.15-.1-.32-.08-.48Z"/>
          <path class="cls-8" d="M305.19,94.82c.48,1.23.83,2.5,1.13,3.79,1.66,7.27,1.62,14.92-.14,22.17-.75.25-1.56.28-2.32.51-.76.23-1.51.75-1.67,1.53-.16.78.35,1.58,1.04,1.99.69.41,1.51.5,2.31.54,1.18.07,2.36.05,3.53-.05.58-.05,1.18-.12,1.7-.38.95-.47,1.52-1.46,1.95-2.42.56-1.24,1-2.53,1.31-3.85-.05.44.16.9.52,1.16.84-1.15,1.32-2.57,1.33-4-.02.35.06.71.23,1.02.63,0,.89-.8.94-1.43.1-1.23.13-2.47.09-3.71-.07.47.59.76,1.01.55.42-.21.64-.68.81-1.12.55-1.39,1.02-2.99.36-4.33-.15.14.1.36.31.36.55.01,1.06-.35,1.35-.82.29-.47.39-1.03.44-1.58.08-.82.05-1.64-.07-2.46.47.25.97-.32,1.14-.83.61-1.92-.16-3.98-.93-5.85-.12-.3-.25-.6-.49-.82-.24-.22-.56-.32-.87-.41-3.43-1.01-6.99-1.5-10.39-2.6-1.22-.39-2.41-.87-3.63-1.26-.85-.27-2.8-1.09-3.63-.67.76,1.72,1.95,3.22,2.64,4.99Z"/>
          <path class="cls-8" d="M357.78,107.24c.18.27.4.56.72.62.32.06.69-.3.51-.58,1.64,3.56,5.32,5.64,8.61,7.78.56.36,1.11.74,1.57,1.22,1.2,1.26,1.57,3.25.9,4.86-.91-.05-1.84.42-2.26,1.23-.42.8-.23,1.9.48,2.46.51.41,1.2.5,1.86.54,1.43.07,2.87-.11,4.23-.52.36-.11.72-.24,1.01-.47.6-.49.78-1.33.89-2.1.35-2.36.49-4.76.42-7.14-.01-.38-.03-.76-.17-1.11-.2-.51-.65-.88-1.04-1.27-1.06-1.03-1.89-2.29-2.4-3.68.22-.04.43-.07.65-.11-.27-1.07-.77-2.08-1.46-2.94.36.08.53-.44.5-.81-.1-1.29-.51-2.56-1.21-3.65.31.11.66-.09.81-.38.16-.29.16-.63.16-.95-.01-1.1-.1-2.2-.28-3.29.05.21.25.37.46.37.74-3.55-.62-7.46-3.41-9.78-4.73,1.79-8.32,5.72-12.73,8.2-.83.46-1.8.97-2.35,1.78-.66.98-.1,1.96.24,3,.78,2.38,1.89,4.65,3.29,6.73Z"/>
          <path class="cls-15" d="M297.96,61.38c-.08-.41-.23-.81-.46-1.16-.23-.36-.54-.76-1.02-.69-.11.02-.17.16-.15.26.03.12.14.16.26.15.03,0,.1.02.14.04.07.04.12.09.17.15.11.12.21.27.29.41.17.3.29.62.35.96.02.11.15.17.26.15.12-.03.17-.15.15-.26Z"/>
          <path class="cls-15" d="M321.85,83.82c-.28-.44-.61-.91-1.15-1.05-.27-.07-.54-.04-.81-.1-.29-.06-.43-.27-.52-.54-.14-.44-.19-.98-.62-1.26-.24-.15-.49-.12-.75-.14-.3-.02-.54-.19-.69-.45-.13-.23-.49-.02-.36.21.12.22.31.41.53.52.26.13.5.12.78.14.59.03.58.79.74,1.21.2.54.61.72,1.16.76.28.02.54.04.77.22.23.18.4.44.55.68.14.23.51.02.36-.21Z"/>
          <path class="cls-15" d="M320.55,79.13c-.33-.11-.53-.36-.69-.67-.13-.26-.21-.57-.49-.7-.26-.13-.54,0-.81-.08-.26-.07-.37-.39-.5-.59-.3-.49-.83-.78-1.41-.72-.26.03-.27.44,0,.42.28-.03.55.03.78.2.2.15.3.37.42.57.11.19.25.38.46.48.22.11.45.07.69.07.32,0,.38.33.51.57.12.22.26.44.46.6.21.17.46.25.72.32.26.07.67.16.67.5,0,.27.42.27.42,0,0-.69-.71-.79-1.22-.96Z"/>
          <path class="cls-15" d="M314.9,88.3c-.1-.06-.14-.19-.18-.29-.05-.14-.1-.28-.19-.39-.11-.14-.25-.23-.42-.28-.15-.05-.32-.07-.46-.15-.61-.35-.19-1.26-.71-1.67-.09-.07-.21-.09-.3,0-.07.07-.09.23,0,.3.24.19.18.6.24.87.07.33.23.66.52.84.14.09.31.13.48.18.14.04.27.08.35.21.15.27.18.57.46.75.23.15.44-.21.21-.36Z"/>
          <path class="cls-15" d="M312.74,110.06c-.01-.27-.43-.27-.42,0,.03.58-.04,1.16-.23,1.71-.08.22-.17.53-.37.68-.24.18-.54.02-.73-.15-.13-.11-.37-.05-.36.15.02.36.04.72,0,1.08-.02.14-.05.28-.11.4-.07.14-.2.22-.27.35.13-.23-.23-.44-.36-.21-.13.23,0,.5.26.55.27.04.52-.15.66-.36.27-.39.29-.93.27-1.41.18.08.37.13.57.09.32-.06.53-.31.67-.59.34-.7.47-1.51.43-2.28Z"/>
          <path class="cls-15" d="M313.63,98.16c-.13-.24-.49-.03-.36.21.29.54.4,1.18.31,1.79-.04.26-.1.67-.32.84-.24.19-.38-.11-.4-.32-.02-.24-.36-.26-.41-.07-.03.04-.04.1-.02.16.12.43.17.88.12,1.33-.02.2-.05.45-.14.63-.1.21-.34-.06-.43-.15-.12-.12-.37-.04-.36.15.03.37,0,.75-.09,1.11-.02.09-.07.29-.19.31-.12.01-.21-.19-.26-.27-.13-.23-.49-.02-.36.21.1.18.24.39.45.45.23.07.45-.02.59-.21.15-.2.2-.47.24-.71.02-.15.04-.31.04-.46.1.05.21.07.34.06.33-.04.43-.33.5-.61.09-.37.12-.76.1-1.14.03,0,.07.02.1.02.47.02.7-.44.82-.82.25-.83.14-1.74-.26-2.5Z"/>
          <path class="cls-15" d="M319.51,101.99c-.08-.26-.48-.15-.4.11.14.44.11.9.04,1.35-.03.17-.04.38-.16.52-.05.07-.22.13-.24.01-.05-.24-.4-.17-.41.06,0,.38-.1.77-.31,1.08-.07.11-.18.24-.32.25-.11,0-.22-.06-.2-.17.03-.27-.39-.26-.42,0-.02.23.13.44.33.53.23.11.49.06.69-.09.36-.26.53-.74.61-1.2.05.01.1.02.15.02.29-.01.49-.23.58-.48.11-.29.14-.63.16-.94.03-.35,0-.71-.1-1.05Z"/>
          <path class="cls-15" d="M333.76,96.74c-1.31.74-2.97.29-3.72-1.01-.12-.21-.43-.07-.38.16.14.61-.72.56-1.06.43-.42-.17-.79-.47-1.04-.84-.11-.16-.4-.12-.39.11,0,.18.03.41-.06.58-.12.23-.39.19-.61.15-.42-.07-.82-.23-1.19-.44-.73-.42-1.33-1.09-1.64-1.88-.1-.25-.5-.14-.4.11.4,1.01,1.18,1.85,2.17,2.3.44.2,1.04.43,1.53.33.35-.07.52-.33.59-.63.37.37.83.65,1.35.72.43.06.88-.12,1.08-.46.96,1.16,2.64,1.5,4,.74.23-.13.02-.49-.21-.36Z"/>
          <path class="cls-15" d="M340.34,98.95c-.1.33-.38.58-.72.64-.17.03-.37,0-.53-.06-.12-.06-.31-.16-.31-.32,0-.27-.42-.27-.42,0,0,.59.76.86,1.25.8.53-.06.97-.44,1.13-.94.08-.26-.32-.37-.4-.11Z"/>
          <path class="cls-15" d="M345.2,93.18c-.95.65-2.23.4-2.84-.58-.12-.2-.44-.07-.38.16.04.15.1.33.06.49-.05.22-.22.24-.42.24-.27,0-.54-.01-.81-.04-.54-.06-1.07-.22-1.44-.64-.18-.2-.47.09-.3.3.51.59,1.3.75,2.05.79.33.02.79.1,1.07-.13.15-.12.22-.27.24-.43.8.72,2.02.85,2.97.21.22-.15.01-.51-.21-.36Z"/>
          <path class="cls-15" d="M352.22,95.59c-.09-.09-.21-.07-.3,0-.24.2-.52.36-.8.48-.23.1-.56.21-.75-.03-.07-.09-.22-.07-.3,0-.09.09-.07.21,0,.3.27.33.74.29,1.09.16.38-.15.73-.35,1.05-.61.09-.07.07-.22,0-.3Z"/>
          <path class="cls-15" d="M355.88,103.37c-1.12-2.84-2.07-5.8-2.19-8.88-.01-.27-.43-.27-.42,0,.12,3.12,1.07,6.11,2.2,8.99.1.25.5.14.4-.11Z"/>
          <path class="cls-15" d="M331.38,84.93c-.05.17-.25.21-.4.19-.22-.03-.44-.15-.63-.27-.38-.22-.7-.52-.97-.86-.07-.09-.22-.07-.3,0-.09.09-.07.21,0,.3.34.43.77.79,1.26,1.04.26.13.55.25.85.21.27-.04.51-.22.59-.49.07-.26-.33-.37-.4-.11Z"/>
          <path class="cls-15" d="M346.86,83.16c-.41.06-.83.01-1.22-.13-.36-.13-.65-.37-.97-.56-.29-.17-.61-.29-.95-.25-.38.04-.72.2-1.1.17-.37-.03-.73-.2-.99-.46-.22-.22-.39-.48-.63-.66-.25-.19-.53-.25-.84-.21-.27.03-.71.22-.95.03-.21-.17-.5.12-.3.3.59.48,1.33-.21,1.89.26.26.22.44.52.71.74.28.23.62.37.98.42.4.05.74-.06,1.12-.14.44-.09.77.11,1.13.35.69.46,1.41.68,2.24.56.26-.04.15-.44-.11-.4Z"/>
          <path class="cls-15" d="M350.99,81.19c-.88.1-1.5-.71-2.23-1.04-.34-.16-.71-.24-1.09-.16-.32.07-.84.49-1.16.23-.21-.17-.5.13-.3.3.31.25.69.22,1.04.08.22-.09.43-.2.66-.22.25-.02.49.06.71.17.78.38,1.43,1.17,2.37,1.07.26-.03.27-.45,0-.42Z"/>
          <path class="cls-15" d="M367.67,106.67c-.85-.54-1.41-1.46-1.51-2.46-.03-.27-.39-.27-.42,0-.04.34-.53.41-.78.28-.38-.2-.5-.69-.56-1.07-.03-.2-.36-.19-.4,0-.06.3-.36.46-.65.46-.34,0-.63-.24-.84-.49-.5-.59-.81-1.38-.98-2.12-.06-.26-.46-.15-.4.11.22.92.64,2.03,1.42,2.62.44.33,1.17.38,1.57.02.15.43.43.83.9.93.3.06.6-.01.82-.19.23.93.8,1.74,1.61,2.27.23.15.44-.22.21-.36Z"/>
          <path class="cls-15" d="M371.38,92.93c-.02-.11-.15-.17-.26-.15-.11.03-.17.15-.15.26.07.34.04.69-.07,1.01-.06.16-.13.31-.23.44-.05.07-.1.13-.16.2,0,0-.01.01-.02.02-.02-.01-.04-.02-.06-.03-.12-.03-.21.04-.26.15-.06.14.05.29.19.33.13.03.27,0,.36-.09.19-.16.34-.39.45-.61.23-.47.31-1.01.19-1.53Z"/>
          <path class="cls-15" d="M322.63,97.58c0,.89,0,1.8-.16,2.68-.13.67-.35,1.71-1.11,1.94-.13.04-.16.15-.14.25,0,.02,0,.03,0,.05.11.91.23,1.86-.04,2.76-.24.79-.81,1.47-1.65,1.62-.11.02-.17.16-.15.26.22.8.19,1.63-.1,2.41-.09.25.31.36.4.11.28-.78.33-1.62.15-2.43.79-.22,1.37-.86,1.66-1.61.38-.98.27-2.06.15-3.08.72-.32,1.01-1.19,1.18-1.91.23-1,.23-2.03.23-3.05,0-.27-.42-.27-.42,0Z"/>
          <path class="cls-15" d="M353.57,99.01c-1.67.01-3.34.29-4.93.82-.78.26-1.54.58-2.27.96-.76.39-1.49.85-2.29,1.18-.91.38-1.85.65-2.79.92-.26.07-.15.48.11.4.81-.23,1.63-.47,2.42-.77.77-.29,1.49-.67,2.21-1.07,1.47-.81,3.04-1.41,4.69-1.73.94-.18,1.9-.28,2.86-.28.27,0,.27-.42,0-.42Z"/>
          <path class="cls-1" d="M279.06,58.91c.22.03.46.08.6.26.08.1.11.23.12.36.04.44-.13.86-.31,1.26-.45.97-1.07,1.94-2.04,2.4-.16.07-.35.13-.5.05-.17-.09-.21-.31-.22-.5-.1-1.19.03-2.41.38-3.55.11-.38.32-.52.7-.47.43.06.86.14,1.29.2Z"/>
          <path class="cls-15" d="M300.26,65.58c-.59.43-1.33.7-1.73,1.31-.56.86-.22,2.05-.69,2.96-.48.94-1.68,1.31-2.25,2.2-.73,1.14-.24,2.78-1.01,3.89-.45.66-1.28,1.02-1.61,1.75-.62,1.37.9,3.08.15,4.38-.42.73-1.48,1.11-1.49,1.95,0,.43.28.79.44,1.19.35.91-.02,1.92-.23,2.88-.21.96-.13,2.17.74,2.63.5.26,1.11.18,1.64.36.95.31,1.51,1.37,2.48,1.64,1.5.42,2.82-1.3,4.38-1.34.69-.02,1.34.3,2,.51.66.21,1.44.29,1.99-.14.47-.37.65-1.04,1.14-1.37,1.02-.7,2.72.39,3.56-.52.3-.33.36-.82.39-1.27.11-1.37.23-2.74.34-4.11.04-.47.07-.96-.14-1.38-.22-.43-.68-.72-.85-1.17-.41-1.07.96-2.08.88-3.22-.08-1.12-1.5-1.8-1.53-2.93-.02-.6.38-1.13.7-1.64.63-.99,1.02-2.31.39-3.3-.19-.29-.45-.54-.61-.85-.56-1.09.39-2.52-.18-3.6-.37-.69-1.27-1.01-1.55-1.74-.32-.84.3-1.85-.12-2.65-.24-.47-.78-.7-1.29-.84-1-.28-3.94-.64-4.58.53-.28.5.03,1.42-.12,2.01-.19.75-.62,1.44-1.25,1.91Z"/>
          <path class="cls-14" d="M297.95,75.72c-.19.29-.31.62-.35.97-.04.4.09.76.1,1.15.02.69-.87.82-1.03,1.46-.14.57.23,1.09.33,1.63.12.67-.59.91-.8,1.46-.15.39.05.7.15,1.07.11.4-.03.82-.33,1.11-.2.19.1.48.3.3.52-.49.57-1.16.33-1.8-.14-.38-.06-.6.21-.88.2-.21.42-.41.52-.69.21-.58-.15-1.13-.28-1.67-.07-.31-.01-.56.23-.78.23-.2.5-.34.66-.61.21-.36.12-.77.06-1.15-.08-.49,0-.94.27-1.36.15-.23-.21-.43-.36-.21Z"/>
          <path class="cls-14" d="M302.42,81.36c.13-.3.17-.62,0-.91-.14-.23-.5-.02-.36.21.2.35-.12.73-.3,1.01-.17.28-.32.6-.25.93.07.34.35.58.44.91.11.4,0,.77-.24,1.1-.22.31-.26.59-.14.95.1.31.24.66.11.98-.13.33-.56.32-.79.55-.2.19-.28.49-.12.72.15.22.51.01.36-.21-.16-.24.56-.45.7-.56.22-.19.32-.47.33-.76,0-.35-.13-.64-.21-.97-.06-.26.07-.39.21-.59.09-.14.16-.29.21-.45.09-.32.08-.67-.03-.99-.11-.31-.45-.61-.4-.95.06-.36.36-.64.51-.97Z"/>
          <path class="cls-14" d="M305.22,80.53c.12-.33.31-.64.42-.98.1-.31.12-.64-.02-.94-.17-.35-.64-.63-.43-1.06.1-.21.23-.39.27-.62.04-.26-.01-.52-.08-.77-.09-.31-.33-1.04.17-1.14.26-.05.15-.45-.11-.4-.33.06-.52.34-.59.66-.08.42.08.78.17,1.18.07.29.02.49-.12.75-.1.18-.2.36-.2.57,0,.4.32.64.51.95.37.63-.36,1.38-.47,2-.07.38.05.69.27.99.11.15.25.3.26.5,0,.18-.09.34-.18.49-.21.33-.49.62-.57,1.02-.05.26,0,.51.07.77.05.23.14.58-.1.74-.22.15-.01.51.21.36.3-.21.39-.56.35-.91-.03-.25-.14-.49-.13-.74,0-.19.09-.36.19-.52.18-.29.43-.55.54-.88.12-.37-.01-.7-.24-1-.25-.34-.31-.6-.17-1Z"/>
          <path class="cls-1" d="M287.79,69.04c-.05-.1-.2-.13-.29-.07-.1.07-.12.18-.07.29.01.03.03.06.04.08.02.04,0,0,.01.03.02.05.04.1.05.15,0,.01,0,.02,0,.03-.81.36-1.82.25-2.67.13-.87-.12-1.71-.37-2.52-.68-.83-.32-1.63-.71-2.41-1.13-.8-.42-1.55-.91-2.23-1.52-.2-.18-.49.11-.3.3.7.64,1.48,1.15,2.31,1.59.85.45,1.71.86,2.6,1.2.88.34,1.79.58,2.73.69.84.1,1.74.16,2.54-.15,0,.01,0,.02,0,.03,0,0,0,.04,0,.05,0,.02-.01.05-.02.07,0,.01,0,.03-.01.04,0,0,0,.01,0,.01,0,0,0,0,0,.01,0,.01-.01.02-.02.04-.01.02-.03.05-.04.07-.06.09-.02.24.07.29.11.06.22.02.29-.07.31-.45.16-1.01-.05-1.46Z"/>
          <path class="cls-15" d="M306.85,100.59c-.65-2.26-1.67-4.41-2.99-6.36-.15-.22-.51-.01-.36.21,1.31,1.92,2.31,4.03,2.95,6.26.07.26.48.15.4-.11Z"/>
        </g>
        <g>
          <path class="cls-6" d="M245.8,125.08c.01-.09.03-.18.03-.27v-35.17c0-.96-.78-1.74-1.74-1.74h-81.91c-.96,0-1.74.78-1.74,1.74v35.17c0,.14.02.28.06.42-.04.44-.06.9-.06,1.39,0,1,19.11,1.81,42.69,1.81s42.65-.81,42.69-1.81c.02-.55,0-1.06-.03-1.54Z"/>
          <g>
            <path class="cls-12" d="M205.55,19.76v26.27h-4.48v-26.27c0-1.24,1.01-2.24,2.24-2.24.66,0,1.26.29,1.67.74.36.4.58.92.58,1.5Z"/>
            <g>
              <polygon class="cls-2" points="205.55 38.72 205.55 41.34 201.07 45.83 201.07 43.2 205.55 38.72"/>
              <polygon class="cls-2" points="205.55 31.74 205.55 34.37 201.07 38.85 201.07 36.22 205.55 31.74"/>
              <polygon class="cls-2" points="205.55 24.67 205.55 27.3 201.07 31.78 201.07 29.15 205.55 24.67"/>
              <path class="cls-2" d="M205.55,19.76v.55l-4.48,4.48v-2.63l3.91-3.91c.36.4.58.92.58,1.5Z"/>
            </g>
            <path class="cls-17" d="M207.46,11.81c-.25-1.18-1.03-2.15-1.81-3.04-.43-.49-.91-.97-1.25-1.52-.44-.71-.23-1.34.17-2.01.23-.38-.27-.69-.58-.44-1.03.81-2.26,1.28-3.2,2.22-.83.82-1.45,1.84-1.8,2.96-.5,1.6-.35,3.37.37,4.86.21.53.47,1.04.83,1.5.57.73,1.33,1.18,2.21,1.45.65.2,1.35.3,1.97.06,0,0,0,0,0,0,.06,0,.11-.04.15-.07.12-.06.24-.12.35-.21.61-.47,1.12-1.11,1.56-1.75.87-1.13,1.35-2.51,1.03-4.02Z"/>
            <path class="cls-11" d="M205.87,12.4c-.3-.74-.92-1.28-1.53-1.78-.34-.27-.71-.53-1-.85-.37-.41-.3-.85-.12-1.33.1-.28-.25-.42-.43-.22-.58.65-1.33,1.1-1.84,1.82-.45.63-.74,1.37-.84,2.14-.14,1.1.16,2.24.8,3.14.2.32.43.63.72.89.46.41,1.01.62,1.61.7.45.06.92.04,1.3-.19,0,0,0,0,0,0,.04-.01.07-.04.09-.06.07-.05.14-.11.2-.18.34-.38.61-.85.82-1.33.44-.84.6-1.8.21-2.75Z"/>
          </g>
          <rect class="cls-6" x="186.2" y="43.48" width="33.86" height="20.98" rx="1.74" ry="1.74"/>
          <rect class="cls-6" x="173.32" y="64.46" width="59.62" height="23.44" rx="1.74" ry="1.74"/>
          <path class="cls-12" d="M178.72,112.83c.24.24.82.76,1.11.92.31.17,1.17-.32,1.92-.37.71-.04,1.45.18,1.97.66.52.49.94,1.31.77,2-.17.69-.89,1.39-1.6,1.44-.77.05-1.27-.34-1.44-.2-.15.13.46,1.44.27,2.6-.06.37-1.03,2.01-2.63,1.44-.54-.19-1-.58-1.36-1.03-.61-.76-.99-1.59-.68-2.52.08-.25.37-.78.38-1.04,0-.39-.34-.85-.61-1.15-1.73-1.91-5.78-5.92-6-5.99-.46-.15-1.12.43-1.58.57-1.02.33-1.89.04-2.71-.65-1.52-1.29-.99-2.55-.56-3.06.43-.51,1.21-1.05,2.16-.9,1.01.16,1.59.73,1.68.67.24-.19-.23-.53-.62-1.78-.2-.62.17-1.47.61-1.91.46-.45.98-.71,1.63-.71.64,0,1.27.26,1.78.64.69.52,1.23,1.37,1.03,2.21-.13.54-.52.96-.81,1.41-.38.61-.4.93-.21,1.15,1.04,1.2,2.48,2.54,3.6,3.67.63.63,1.26,1.27,1.9,1.9Z"/>
          <path class="cls-12" d="M238.95,112.83c.24.24.82.76,1.11.92.31.17,1.17-.32,1.92-.37.71-.04,1.45.18,1.97.66.52.49.94,1.31.77,2-.17.69-.89,1.39-1.6,1.44-.77.05-1.27-.34-1.44-.2-.15.13.46,1.44.27,2.6-.06.37-1.03,2.01-2.63,1.44-.54-.19-1-.58-1.36-1.03-.61-.76-.99-1.59-.68-2.52.08-.25.37-.78.38-1.04,0-.39-.34-.85-.61-1.15-1.73-1.91-5.78-5.92-6-5.99-.46-.15-1.12.43-1.58.57-1.02.33-1.89.04-2.71-.65-1.52-1.29-.99-2.55-.56-3.06.43-.51,1.21-1.05,2.16-.9,1.01.16,1.59.73,1.68.67.24-.19-.23-.53-.62-1.78-.2-.62.17-1.47.61-1.91.46-.45.98-.71,1.63-.71.64,0,1.27.26,1.78.64.69.52,1.23,1.37,1.03,2.21-.13.54-.52.96-.81,1.41-.38.61-.4.93-.21,1.15,1.04,1.2,2.48,2.54,3.6,3.67.63.63,1.26,1.27,1.9,1.9Z"/>
          <path class="cls-12" d="M200.82,112.83c-.24.24-.82.76-1.11.92-.31.17-1.17-.32-1.92-.37-.71-.04-1.45.18-1.97.66-.52.49-.94,1.31-.77,2,.17.69.89,1.39,1.6,1.44.77.05,1.27-.34,1.44-.2.15.13-.46,1.44-.27,2.6.06.37,1.03,2.01,2.63,1.44.54-.19,1-.58,1.36-1.03.61-.76.99-1.59.68-2.52-.08-.25-.37-.78-.38-1.04,0-.39.34-.85.61-1.15,1.73-1.91,5.78-5.92,5.99-5.99.46-.15,1.12.43,1.58.57,1.02.33,1.89.04,2.71-.65,1.52-1.29.99-2.55.56-3.06-.43-.51-1.21-1.05-2.16-.9-1.01.16-1.59.73-1.68.67-.24-.19.23-.53.62-1.78.2-.62-.17-1.47-.61-1.91-.46-.45-.98-.71-1.63-.71-.64,0-1.27.26-1.78.64-.69.52-1.23,1.37-1.03,2.21.13.54.52.96.81,1.41.38.61.4.93.21,1.15-1.04,1.2-2.48,2.54-3.6,3.67-.63.63-1.26,1.27-1.9,1.9Z"/>
          <path class="cls-12" d="M159.64,94.38c.03,1.06.12,2.15.59,3.1.47.95,1.39,1.74,2.45,1.78,1.27.05,2.34-.96,2.99-2.05.65-1.09,1.05-2.33,1.85-3.32.79-.99,2.19-1.68,3.34-1.14,1.05.5,1.45,1.8,2.34,2.56,1.08.93,2.9.82,3.86-.23.5-.54.77-1.26,1.23-1.84.46-.57,1.29-1,1.94-.64.64.35.86,1.34,1.58,1.46.79.13,1.24-.84,1.83-1.38,1.17-1.06,3.16-.3,4.09.97.94,1.28,1.24,2.9,1.97,4.31.73,1.41,2.23,2.68,3.76,2.26,1.2-.33,1.9-1.59,2.24-2.78.35-1.2.49-2.49,1.16-3.54.37-.57,1.04-1.08,1.69-.86.92.31.95,1.75,1.82,2.17.71.35,1.56-.2,2.01-.85.45-.65.74-1.45,1.36-1.94,1.12-.9,2.87-.41,3.9.61,1.03,1.01,1.57,2.4,2.3,3.64.8,1.35,2.39,2.66,3.78,1.93.94-.5,1.22-1.68,1.48-2.72.3-1.18.73-2.38,1.59-3.25.86-.87,2.25-1.31,3.34-.77.83.41,1.33,1.27,1.98,1.92.65.66,1.75,1.11,2.48.54.29-.23.46-.57.7-.85.98-1.09,2.86-.69,3.93.32,1.07,1,1.65,2.42,2.53,3.59.89,1.17,1.97,2,3.02,1.68,1.42-.44,1.6-2.99,1.98-4.42.38-1.43,1.12-2.84,2.6-2.77,1.46.08,2.41,1.56,2.95,2.92.54,1.36,1.06,2.91,2.36,3.58.32.16.71.26,1.05.15.73-.24.87-1.2.87-1.97.02-2.08.04-4.17.06-6.25,0-.76-.01-1.6-.53-2.15-.6-.64-1.59-.6-2.47-.6-17.23-.07-73.14-.11-75.59-.07-1.22.02-2.45.06-3.67.11-1.08.05-2.54-.12-3.57.21-1.6.52-1.25,5.17-1.21,6.6Z"/>
          <path class="cls-12" d="M174.26,64.4c-.81.35-1.08,1.34-1.2,2.21-.1.69-.17,1.39-.2,2.09-.04.87-.03,1.75.22,2.58.17.55.46,1.1.96,1.39.81.48,1.91.09,2.54-.61.64-.7.94-1.62,1.26-2.51.12-.31.24-.63.48-.87.24-.24.61-.37.91-.23.63.29.44,1.39,1.04,1.74.37.22.87.01,1.16-.31.29-.32.46-.74.72-1.08.26-.35.68-.65,1.1-.55.26.06.46.24.65.42.39.37.79.74,1.07,1.2.25.41.39.87.58,1.31.29.69.7,1.32,1.21,1.87.46.51,1.02.95,1.67,1.18.65.23,1.4.24,2-.09.96-.51,1.35-1.67,1.7-2.71.4-1.17.87-2.32,1.4-3.43.29-.61,1.45-.63,1.87-.09.42.53.42,1.27.54,1.93.12.67.48,1.41,1.15,1.51,1.56.23,1.8-2.99,3.37-2.85.93.08,1.22,1.26,1.55,2.14.48,1.3,1.9,2.44,3.18,1.91,1.05-.43,1.42-1.68,1.86-2.72.44-1.04,1.42-2.15,2.5-1.8.73.24,1.09,1.05,1.36,1.77.29.79.59,1.57.88,2.35.33.89.85,1.93,1.8,1.99.82.06,1.49-.7,1.76-1.48.27-.78.3-1.63.63-2.39.33-.76,1.12-1.43,1.92-1.2,1.12.32,1.38,2.12,2.53,2.25.78.09,1.38-.67,1.66-1.4.29-.73.48-1.56,1.11-2.02.92-.68,2.3-.14,3.02.74s1.05,2.03,1.61,3.03c.56,1,1.56,1.92,2.7,1.8.88-.1,2.09-.69,2.42-1.51.34-.82.22-4.63.26-5.62.02-.49.02-1.02-.26-1.43-.4-.56-1.44-.74-2.12-.77-9.41-.41-54.14-.81-56.55.24Z"/>
          <path class="cls-12" d="M185.99,50.14c.03.34.08.69.28.96.39.53,1.25.5,1.77.1.53-.39.8-1.03,1.02-1.66.22-.62.42-1.27.86-1.76.09-.1.19-.2.33-.23.32-.08.6.24.72.54.12.31.18.66.44.87.36.28.9.12,1.24-.19.34-.3.57-.72.91-1.02.34-.3.89-.46,1.24-.17.14.12.22.29.29.46.34.86.36,1.85.86,2.63.49.77,1.45,1.22,2.36,1.11.91-.11,1.73-.77,2.03-1.64.37-1.08.06-2.52.98-3.21.24-.18.59-.26.83-.09.14.1.21.25.28.4.51,1.1.97,2.23,1.37,3.38.62.3,1.35-.24,1.65-.87.3-.63.35-1.35.68-1.95.09-.17.23-.34.42-.37.48-.07.56.65.83,1.05.24.36.78.48,1.15.26.38-.23.53-.73.87-1.02.54-.46,1.41-.25,1.91.25.49.5.7,1.21.89,1.89.19.68.38,1.39.86,1.91.91.98,2.77.79,3.45-.37.63-1.05.42-2.66,1.48-3.26.33.36.47.85.75,1.25.28.4.82.71,1.24.47.32-.18.42-.6.48-.97.15-1.02.2-2.05.15-3.07-.03-.77-.17-1.62-.79-2.08-.39-.29-.91-.36-1.39-.41-8.07-.85-29.89-.3-30.75-.16-1.15.19-1.48-.08-1.63,1.17-.24,1.92-.27,3.86-.08,5.78Z"/>
        </g>
        <rect class="cls-6" x="189.8" y="48.98" width="2.28" height="7.29" transform="translate(14.07 -36.51) rotate(11.34)"/>
        <g>
          <path class="cls-5" d="M91.17,111.27c-.4,1.95-2.14,4.16-2.99,5.73h-.01c-1.19-.04-2.37.32-3.45.85-.78.38-1.53.87-2.1,1.53-.38.44-.65.96-.82,1.51-.61-2.32-1.02-5.41-1.39-7.24.38-1.31,9.35-6.66,10.02-6.69-.05.6,1.34,1.36.74,4.31Z"/>
          <path class="cls-5" d="M56.64,102.64c-.13.94-.42,1.85-.74,2.75-.62,1.74-1.56,3.63-3.32,4.21-.61.2-1.27.23-1.85.51-.76.37-1.26,1.16-1.46,1.98-.06.24-.1.48-.12.73-.67.02-1.34.09-2.01.18-.64.09-1.29.21-1.86.51-.57.3-1.04.77-1.45,1.27-.87,1.05-1.51,2.29-1.89,3.6-.9-2.17-1.44-4.49-1.59-6.83-.02-.33-.03-.67.07-.98.32-.91,1.46-1.2,2.15-1.88,1.01-1,.89-2.64.59-4.03-.28-1.29-.66-2.57-.83-3.88-.18-1.31-.14-2.69.37-3.91,2.69-.12,5.4.29,7.93,1.2,1.51.55,2.96,1.27,4.53,1.65.55.13,1.21.06,1.43.66.25.67.14,1.58.05,2.26Z"/>
          <path class="cls-12" d="M53.63,123.85c-.26.37-.77.43-1.22.45-1.91.09-3.82.12-5.74.09-.31,0-.63-.01-.92-.14-.31-.14-.54-.41-.75-.68-1.26-1.57-2.28-3.33-3.05-5.18.38-1.31,1.02-2.55,1.89-3.6.41-.5.88-.97,1.45-1.27.57-.3,1.22-.43,1.86-.51.67-.09,1.34-.16,2.01-.18-.05.6,0,1.2.05,1.8.13,1.3.34,2.59.63,3.87.65.29,1.41.14,2.08.36.77.25,1.31.96,1.57,1.73.26.76.28,1.58.3,2.39,0,.3,0,.63-.16.88Z"/>
          <path class="cls-5" d="M34.93,89.94c-.55.23-1.16.25-1.76.26-2.05.04-4.12.09-6.13-.28-1.66-.3-3.25-.88-4.8-1.54-2.04-.87-4.08-1.92-5.54-3.58-.98-1.11-1.62-1.84-2.27-3.17-.3-.6-.63-1.9-.36-2.51.32.52.86.89,1.46,1.01-.33-1.66-.4-3.38-.2-5.06.09-.78.26-1.61.81-2.16.12.9.56,1.75,1.23,2.36-.3-2.17.23-4.44,1.43-6.26-.04.84.11,1.69.53,2.41.18.31.6.62.85.36.12-.12.12-.3.14-.47.06-.59.4-1.14.88-1.47,0,.63.03,1.26.1,1.88.04.35.26.82.59.7.14-.05.22-.21.29-.35.29-.62.65-1.27,1.28-1.54-.25.97-.35,1.99-.28,2.99.04.62.24,1.36.84,1.54.37-.8.73-1.59,1.1-2.38.35-.75.83-1.61,1.65-1.71-.14.99-.15,1.99-.05,2.97.26-.17.32-.52.4-.82.08-.3.29-.64.6-.61,0,.15-.04.36-.06.6-.26.85-.39,1.75-.41,2.64-.07,2.79.86,5.59,2.59,7.78,1.17,1.49,2.7,2.68,4.42,3.48.53.24,2.16.5,2.3,1.11.16.7-1.11,1.61-1.64,1.83Z"/>
          <path class="cls-5" d="M94.98,79.84c-.61.51-1.47.59-2.27.53-1.5-.11-2.93-.66-4.41-.93-2.53-.46-5.2-.11-7.51,1-.77.37-1.52.83-2.09,1.46-.78.87-1.2,2.01-1.39,3.17-.41,2.44.11,5.01,1.43,7.1.29.46.71.95,1.26.95-.13-.95.31-1.95,1.09-2.5-.09.29-.18.6-.11.89.07.3.38.55.67.46.15-.05.26-.17.37-.29.45-.46,1.04-.79,1.68-.91-.28.4-.42.89-.39,1.38.73-.75,1.73-1.23,2.77-1.35.08.88-.22,1.79-.8,2.46-2.34,2.7-4.69,5.43-5.64,8.88.47-.31.93-.62,1.4-.92-.7,1.61-1.08,3.36-1.13,5.12.52-.51,1.04-1.01,1.56-1.52,0,1.15,0,2.31.01,3.46.47-.13.9-.41,1.2-.8.53,1.69.09,3.65-1.12,4.95-.63.67-1.43,1.16-2.1,1.8-.39.38-.74.83-.94,1.34-4.24,1.47-8.77,2.08-13.25,1.7.34-.4.68-.81,1.02-1.21-2.58.88-5.41,1.03-8.06.43.39-.18.78-.36,1.17-.55-3.24-.45-6.39-1.36-9.53-2.27-5.18-1.5-10.36-2.99-15.54-4.49-1.59-.46-2.77-.64-4.04-1.71-4.12-3.5-2.87-13.71-1.28-16.49.39-.68,2.6-3.41,4.38-3.7,6.61-1.09,12.68-.48,19.05-.43,6.36.05,13.11-.78,18.14-4.68,2.56-1.99,4.51-4.66,6.85-6.9,1.61-1.55,3.24-3.15,5.16-4.19h0c2.81-.06,5.63.35,8.29,1.23,1.04.34,2.07.77,2.91,1.45,1.02.83,1.73,2.05,1.95,3.35.17.98,0,2.11-.76,2.74Z"/>
          <path class="cls-5" d="M93.65,61.23c.2-.25.4-.49.66-.67.26-.18.63-.41.89-.23.37.26,1.3,6.33,1.41,9.55.03,1.08,0,2.18-.35,3.21-.35-.21-.72-.4-1.09-.56-1.03-.46-2.13-.71-3.23-.99-.55-.14-1.1-.28-1.65-.45-.4-.12-1.28-.29-1.56-.62-.25-.29.22-1.07.35-1.4.22-.54.45-1.07.7-1.6.49-1.04,1.03-2.06,1.63-3.04.68-1.11,1.42-2.18,2.23-3.2Z"/>
          <path class="cls-12" d="M109.26,81.52c-.19.62-.43,1.26-.7,1.87-.39.88-.87,1.73-1.44,2.44-1.08,1.36-2.53,2.43-4.22,2.89-2.01.53-4.76.6-5.3,2.61-.17.64-.04,1.31.04,1.97.28,2.2-.03,4.48-.9,6.53-.2-.41-.4-.83-.6-1.24-.33.98-.5,2.16-.83,3.14-.13.4-.84,1.73-.84,1.73,0,0-.37-.93-.67-1.61-.03,1.81-.5,3.6-1.34,5.2l-.57-1.16c-.04,1.85-.97,3.66-2.45,4.77-.03-.49-.05-.97-.07-1.46-3.14,2.82-6.86,4.97-10.84,6.36.2-.5.55-.96.94-1.34.67-.64,1.47-1.13,2.1-1.8,1.21-1.29,1.66-3.26,1.12-4.95-.29.39-.72.68-1.2.8,0-1.15-.01-2.31-.01-3.46-.52.51-1.04,1.01-1.56,1.52.04-1.76.43-3.5,1.13-5.12-.46.31-.93.61-1.4.92.95-3.45,3.3-6.18,5.64-8.88.58-.67.87-1.58.8-2.46-1.04.12-2.04.6-2.77,1.35-.03-.49.11-.98.39-1.38-.63.13-1.23.45-1.68.91-.11.11-.22.24-.37.29-.29.09-.6-.17-.67-.46-.07-.29.02-.6.11-.89-.78.55-1.21,1.55-1.09,2.5-.55,0-.97-.48-1.26-.95-1.32-2.08-1.85-4.66-1.43-7.1.19-1.15.61-2.3,1.39-3.17.57-.63,1.32-1.09,2.09-1.46,2.32-1.11,4.99-1.46,7.51-1,1.48.27,2.91.82,4.41.93.79.06,1.66-.02,2.27-.53.77-.63.92-1.76.76-2.74-.22-1.3-.93-2.51-1.95-3.35-.85-.69-1.88-1.11-2.91-1.45-2.67-.88-5.48-1.29-8.29-1.23.74-.4,1.52-.72,2.37-.92,3.02-.71,8.56-.32,10.95,1.67,1.04.87,2.4,3.59,3.4,4.51,2.71,2.5,4.15,2.26,7.68,2.81h0c1.49.23,3.01,0,2.27,2.38Z"/>
          <path class="cls-12" d="M40.36,65.72c-2.4.33-4.83.71-7.05,1.66-2.23.95-4.27,2.55-5.28,4.76-.14.31-.26.63-.36.96.02-.24.05-.45.06-.6-.31-.03-.52.31-.6.61-.08.3-.14.65-.4.82-.1-.99-.09-1.99.05-2.97-.82.1-1.31.96-1.65,1.71-.37.8-.73,1.59-1.1,2.38-.6-.18-.8-.92-.84-1.54-.07-1,.03-2.02.28-2.99-.63.26-.99.92-1.28,1.54-.07.14-.14.29-.29.35-.33.12-.55-.35-.59-.7-.06-.63-.1-1.26-.1-1.88-.49.33-.82.88-.88,1.47-.02.16-.02.35-.14.47-.25.26-.67-.05-.85-.36-.42-.73-.57-1.58-.53-2.41.16-.24.32-.47.5-.69-.16.79,0,1.64.43,2.32.33-2.34,1.6-4.54,3.47-5.99-.15.7-.08,1.45.22,2.11.41-.63.83-1.26,1.4-1.75.56-.5,1.29-.85,2.04-.8-.78.51-1.35,1.32-1.59,2.21.57-.74,1.57-1.27,2.05-1.56.72-.42,1.56-.61,2.37-.8-.16.18-.29.37-.4.58.27-.08.54-.16.8-.23.96-.28,1.96-.56,2.96-.44.02.04-.02.08-.06.1-.16.08-.31.18-.44.3,1.55-.16,3.09-.12,4.94.12.74.1,2.88.5,2.87,1.24Z"/>
          <path class="cls-5" d="M42.23,104.12c-.13.94-.42,1.85-.74,2.75-.62,1.74-1.56,3.63-3.32,4.21-.61.2-1.27.23-1.85.51-.76.37-1.26,1.16-1.46,1.98-.06.24-.1.48-.12.73-.67.03-1.34.09-2.01.18-.64.09-1.29.21-1.86.51-.57.3-1.04.77-1.45,1.27-.87,1.05-1.51,2.29-1.89,3.6-.9-2.17-1.44-4.49-1.59-6.83-.02-.33-.03-.67.07-.98.32-.91,1.46-1.2,2.15-1.88,1.01-1,.89-2.64.59-4.03-.28-1.29-.66-2.57-.83-3.88-.18-1.31-.14-2.69.37-3.91,2.69-.12,5.4.29,7.93,1.2,1.51.55,2.96,1.27,4.53,1.65.55.13,1.21.06,1.43.66.25.67.14,1.58.05,2.26Z"/>
          <path class="cls-12" d="M39.22,125.33c-.26.37-.77.43-1.22.45-1.91.09-3.82.12-5.74.09-.31,0-.63-.01-.92-.14-.31-.14-.54-.41-.75-.68-1.26-1.57-2.28-3.33-3.05-5.18.38-1.31,1.02-2.55,1.89-3.6.41-.5.88-.97,1.45-1.27.57-.3,1.22-.43,1.86-.51.67-.09,1.34-.16,2.01-.18-.05.6,0,1.2.05,1.8.13,1.3.34,2.59.63,3.87.65.29,1.41.14,2.08.36.77.25,1.31.96,1.57,1.73.26.76.28,1.58.3,2.39,0,.3,0,.63-.16.88Z"/>
          <path class="cls-5" d="M81.09,112.75c-.4,1.96-2.16,4.19-3.01,5.76-1.06.04-2.1.38-3.06.85-.78.38-1.53.86-2.1,1.53-.55.64-.88,1.45-.98,2.28-.73-2.37-1.2-5.99-1.62-8.03.38-1.31,9.35-6.66,10.02-6.69-.05.6,1.34,1.36.74,4.31Z"/>
          <path class="cls-12" d="M81.43,125.33c-.26.37-.77.43-1.22.45-1.91.09-3.82.12-5.74.09-.31,0-.63-.01-.92-.14-.31-.14-.54-.41-.75-.68-.32-.4-.61-1.07-.86-1.89.1-.83.43-1.64.98-2.28.56-.67,1.31-1.15,2.1-1.53.96-.47,2-.8,3.06-.85-.32.6-.51,1.11-.43,1.46.65.29,1.41.14,2.08.36.77.25,1.31.96,1.57,1.73.26.76.28,1.58.3,2.39,0,.3,0,.63-.16.88Z"/>
          <path class="cls-12" d="M91.52,123.85c-.26.37-.77.43-1.22.45-1.91.09-3.82.12-5.74.09-.31,0-.63-.01-.92-.14-.31-.14-.54-.41-.75-.68-.42-.53-.78-1.51-1.09-2.69.17-.55.44-1.07.82-1.51.57-.66,1.31-1.14,2.1-1.53,1.08-.53,2.26-.88,3.45-.85h.01c-.33.62-.53,1.13-.45,1.49.65.29,1.41.14,2.08.36.77.25,1.31.96,1.57,1.73.26.76.28,1.58.29,2.39,0,.3,0,.63-.16.88Z"/>
          <path class="cls-1" d="M109.26,81.52c-.19.62-.43,1.26-.7,1.87-.19-.07-.38-.17-.53-.31-.2-.18-.35-.4-.47-.63-.42-.76-.65-1.63-.65-2.49,0-.28.03-.55.07-.82,1.49.23,3.01,0,2.27,2.38Z"/>
          <path class="cls-1" d="M103.8,85.7c-.51.26-1.11.37-1.65.16-.55-.21-.88-.76-.98-1.33-.04-.26-.45-.15-.4.11.12.7.56,1.33,1.23,1.6.66.27,1.4.14,2.02-.19.24-.12.03-.48-.21-.36Z"/>
          <path class="cls-1" d="M92.81,78.2c.02-.15.08-.3.18-.42.11-.14.3-.24.48-.19.23.06.33.28.34.51,0,.06,0,.11-.01.17,0,.02-.02.05-.02.07,0,.01,0,.03-.01.04-.02.04-.04.09-.06.13-.08.15-.18.31-.34.37-.18.07-.38-.02-.47-.19-.08-.15-.1-.32-.08-.48Z"/>
          <path class="cls-3" d="M42.17,102.68c-.11,3.15-1.04,6.79-4.12,8.29-.86.42-1.8.62-2.64,1.08-.24.13-.03.49.21.36.78-.43,1.66-.64,2.47-1,.7-.32,1.34-.78,1.88-1.33,1.16-1.17,1.87-2.71,2.24-4.31.23-1.02.34-2.06.37-3.1,0-.27-.41-.27-.42,0Z"/>
          <path class="cls-3" d="M49.92,113.66c-1.61-.57-3.21-1.14-4.82-1.71-1.55-.55-3.1-1.08-4.73-1.35-.26-.04-.38.36-.11.4,1.62.27,3.18.8,4.73,1.35,1.61.57,3.21,1.14,4.82,1.71.25.09.36-.31.11-.4Z"/>
          <path class="cls-3" d="M37.96,86.68c-3.39-.18-6.83,1.08-8.89,3.86-.16.22.2.42.36.21,1.97-2.66,5.3-3.83,8.53-3.66.27.01.27-.4,0-.42Z"/>
          <path class="cls-3" d="M81.72,109.41c-.01-.27-.43-.27-.42,0,.13,2.29-.7,4.48-1.81,6.44-.13.23.23.44.36.21,1.15-2.02,2-4.29,1.87-6.65Z"/>
          <path class="cls-3" d="M70.95,117.46c-.25-.82-.5-1.65-.75-2.47-.08-.26-.48-.15-.4.11.25.82.5,1.65.75,2.47.08.26.48.15.4-.11Z"/>
          <path class="cls-18" d="M95.82,95.07c-.01-.11-.09-.21-.21-.21-.1,0-.22.1-.21.21.07.79.02,1.58-.16,2.36-.06.26.34.37.4.11.19-.81.25-1.64.17-2.47Z"/>
          <path class="cls-18" d="M94.85,96.04c-.1-.03-.24.03-.26.15-.11.75-.26,1.5-.44,2.24-.06.26.34.37.4.11.18-.74.32-1.49.44-2.24.02-.11-.03-.22-.15-.26Z"/>
          <path class="cls-18" d="M90.53,103.79c-.16.47-.4.92-.7,1.31-.09.11-.28.43-.45.38-.23-.07-.18-.46-.16-.63.02-.25-.33-.26-.41-.06-.26.7-.6,1.37-1.01,2-.15.23.21.44.36.21.29-.45.54-.91.76-1.4.04.06.08.11.14.16.28.23.61.15.84-.1.47-.49.82-1.12,1.04-1.76.09-.25-.32-.36-.4-.11Z"/>
          <path class="cls-18" d="M84.55,99.72c-.45.88-.6,1.85-.47,2.83.02.11.16.17.26.15.12-.03.16-.14.15-.26-.12-.85.04-1.74.43-2.5.12-.24-.24-.45-.36-.21Z"/>
          <path class="cls-18" d="M84.4,87.2c-.07-.07-.22-.09-.3,0-.44.56-.71,1.22-.77,1.93-.01.11.1.21.21.21.12,0,.2-.1.21-.21.05-.59.28-1.17.65-1.64.07-.09.09-.21,0-.3Z"/>
          <path class="cls-18" d="M80.94,87.87c-.2.19-.38.41-.51.65-.07.12-.12.25-.17.38-.02.07-.04.13-.06.2,0,.03-.01.05-.02.08,0,0,0,0,0,0-.09-.05-.16-.23-.19-.31-.04-.12-.04-.23-.04-.36,0-.21-.05-.46-.27-.55-.1-.04-.23-.04-.29.07-.05.1-.1.2-.17.29-.34-.63-.39-1.38-.12-2.06.1-.25-.31-.36-.4-.11-.34.87-.21,1.89.33,2.65.07.1.23.15.33.04.06-.07.12-.15.17-.23,0,.13.02.26.06.38.09.26.32.64.64.61.33-.03.35-.41.45-.66.12-.31.31-.58.55-.8.2-.18-.1-.48-.3-.3Z"/>
          <path class="cls-3" d="M66.62,113.36c-.81.56-1.73.95-2.7,1.15-.11.02-.23.04-.34.06-.06,0-.13.02-.19.02-.02,0-.03,0-.05,0,.02-.01.07-.04.08-.04.03-.02.06-.04.09-.06.07-.05.15-.08.23-.12.28-.13.55-.28.64-.6.05-.17-.11-.28-.26-.26-.83.12-1.65.25-2.48.39-.26.05-.15.45.11.4.58-.1,1.16-.19,1.75-.28-.16.08-.32.16-.45.29-.13.14-.22.36-.1.54.13.18.36.17.57.15,1.18-.16,2.31-.6,3.3-1.27.22-.15.01-.51-.21-.36Z"/>
          <path class="cls-3" d="M57.81,112.26c-.75.35-1.58.51-2.41.46-.27-.01-.27.4,0,.42.9.05,1.8-.14,2.62-.52.24-.11.03-.47-.21-.36Z"/>
          <path class="cls-3" d="M30.37,104c-.35-.59-.57-1.25-.62-1.94,0-.11-.09-.21-.21-.21-.11,0-.22.1-.21.21.06.76.29,1.5.68,2.15.14.23.5.02.36-.21Z"/>
          <path class="cls-3" d="M30.97,101.59c-.26-.46-.38-.98-.35-1.51,0-.11-.1-.21-.21-.21-.12,0-.2.1-.21.21-.03.6.11,1.2.4,1.72.13.23.49.02.36-.21Z"/>
          <path class="cls-3" d="M28.54,83.37c-.51-.33-.94-.84-1.16-1.41-.04-.1-.14-.18-.26-.15-.1.03-.19.15-.15.26.27.68.74,1.26,1.36,1.66.09.06.23.02.29-.07.06-.1.02-.22-.07-.29Z"/>
          <path class="cls-3" d="M22.18,84.55c-.3-.1-.59-.25-.86-.43-.13-.08-.25-.18-.36-.28-.04-.03-.08-.07-.11-.11.23.03.46.05.7.08.15.02.3.04.41-.07.1-.1.12-.27.05-.4-.06-.12-.17-.2-.27-.29-.09-.1-.18-.21-.25-.32-.15-.25-.24-.52-.28-.81-.02-.11-.16-.17-.26-.15-.12.03-.16.14-.15.26.07.48.28.93.61,1.28.01.01.04.04.07.08-.04,0-.08,0-.11-.01-.3-.04-.6-.07-.91-.11-.06,0-.15.04-.18.1-.1.23.01.4.17.57.15.15.31.29.48.41.34.26.72.45,1.13.59.25.09.36-.32.11-.4Z"/>
          <path class="cls-3" d="M18.13,80.99c-.55-.51-.85-1.23-.83-1.98,0-.27-.41-.27-.42,0-.03.85.33,1.7.95,2.28.2.18.49-.11.3-.3Z"/>
          <path class="cls-18" d="M25.94,68.64c-.23,0-.45.11-.66.19-.12.05-.25.11-.37.16-.04.02-.07.03-.11.05.01-.04.02-.09.04-.12.04-.09.09-.18.15-.27.12-.18.27-.33.44-.46.09-.07.07-.22,0-.3-.09-.09-.21-.07-.3,0-.23.18-.42.39-.56.64-.13.21-.29.52-.22.77.04.13.16.23.3.23.15,0,.31-.11.44-.17.16-.07.32-.14.49-.21.04-.01.08-.03.11-.04-.05.07-.1.14-.16.21-.12.16-.24.32-.35.48-.21.29-.39.59-.47.94-.06.26.34.37.4.11.11-.45.41-.82.69-1.18.08-.1.15-.2.23-.31.08-.11.19-.22.24-.34.08-.22-.12-.38-.33-.38Z"/>
          <path class="cls-18" d="M30.98,67.12c-.03-.11-.14-.18-.26-.15-.49.15-.91.46-1.21.87-.06.09-.02.24.08.29.11.06.22.02.29-.07,0-.01.02-.02.03-.03,0,0,0-.01.01-.02.01-.02.03-.03.04-.05.04-.04.07-.08.11-.12.04-.04.08-.08.12-.11.02-.01.04-.03.05-.04,0,0,0,0,.01,0,.01,0,.02-.02.03-.03.09-.06.18-.12.27-.16.03-.01.05-.03.08-.04,0,0,.03-.01.02-.01,0,0,0,0,.01,0,.05-.02.11-.04.16-.06.1-.03.18-.15.15-.26Z"/>
          <g>
            <path class="cls-2" d="M96.64,49.03c-.13-.22-.4-.29-.62-.17l-3.72,2.15,2.87-3.21c.17-.19.15-.47-.04-.64-.19-.17-.47-.15-.64.04l-1.1,1.23.87-1.42c.13-.21.06-.49-.15-.62-.21-.13-.49-.06-.62.15l-1.66,2.7,1.01-3.01c.08-.24-.05-.49-.29-.57-.24-.08-.49.05-.57.29l-.95,2.81.28-2.93c.02-.25-.16-.47-.41-.49h0c-.25-.02-.47.16-.49.41l-.17,1.75-.14-1.7c-.02-.25-.24-.43-.49-.41-.25.02-.43.24-.41.49l.28,3.26-1.08-3.21c-.08-.24-.34-.36-.57-.29h0c-.24.08-.37.34-.29.57l1.01,3.01-1.66-2.7c-.13-.21-.41-.28-.62-.15-.21.13-.28.41-.15.62l.87,1.42-1.1-1.23c-.17-.19-.45-.2-.64-.04-.19.17-.2.45-.04.64l2.87,3.21-3.72-2.15c-.22-.13-.49-.05-.62.17h0c-.13.22-.05.49.17.62l6.01,3.47s.04.03.05.04c.08.06.19.1.3.09.13-.01.25-.08.32-.18l5.86-3.39c.22-.13.29-.4.17-.62Z"/>
            <g>
              <path class="cls-2" d="M95.11,71.65c-1.59.72-5.43.79-8.27.31-1.21-.2-2.24-.5-2.83-.9-.09-.06-.14-.16-.15-.26,0-.04,0-.09.01-.14.16-.51.33-1.01.49-1.51.15-.48.31-.96.47-1.44.21-.63.41-1.26.62-1.88.17-.51.34-1.02.51-1.53.25-.75.5-1.51.75-2.26.19-.56.37-1.11.56-1.67.27-.8.54-1.61.8-2.42.21-.62.41-1.24.62-1.87h0c.39-1.19.78-2.38,1.17-3.58.11-.33.58-.32.67.02.17.64.34,1.28.51,1.92h0c.13.5.26.99.38,1.49.14.53.27,1.06.4,1.59h0c.13.51.25,1.01.38,1.52.13.54.27,1.08.4,1.61.13.51.25,1.02.38,1.54h0c.13.53.26,1.06.39,1.59.13.51.25,1.02.38,1.53.15.61.3,1.22.46,1.82.13.5.26,1,.39,1.5.22.86.45,1.73.69,2.59.04.16-.03.34-.19.41Z"/>
              <g>
                <path class="cls-11" d="M94.61,68.65c-1.02.82-2.26,1.62-3.75,2.26-1.29.55-2.74.87-4.02,1.05-1.21-.2-2.24-.5-2.83-.9-.09-.06-.14-.16-.15-.26,1.24-.02,4.13-.19,6.44-1.18,1.6-.68,2.89-1.58,3.91-2.48.13.5.26,1,.39,1.5Z"/>
                <path class="cls-11" d="M93.76,65.33c-1.09.94-2.45,1.85-4.12,2.57-1.68.72-3.45,1.14-5.28,1.26.15-.48.31-.96.47-1.44,1.47-.15,2.9-.52,4.26-1.1,1.8-.77,3.22-1.81,4.29-2.82.13.51.25,1.02.38,1.53Z"/>
                <path class="cls-11" d="M92.99,62.21h0c-1.1.95-2.47,1.88-4.16,2.61-1.09.46-2.22.81-3.37,1.02.17-.51.34-1.02.51-1.53.79-.19,1.56-.45,2.32-.77,1.83-.78,3.26-1.84,4.33-2.87.13.51.25,1.02.38,1.54Z"/>
                <path class="cls-11" d="M92.21,59.06c-1.05.88-2.36,1.74-3.94,2.42-.51.22-1.03.41-1.56.57.19-.56.37-1.11.56-1.67.15-.06.3-.12.45-.18,1.71-.73,3.06-1.7,4.11-2.66.13.51.25,1.01.38,1.52Z"/>
                <path class="cls-11" d="M91.43,55.94c-.94.73-2.05,1.44-3.35,2.02.21-.62.41-1.24.62-1.87h0c.9-.51,1.68-1.07,2.35-1.64.13.5.26.99.38,1.49Z"/>
              </g>
            </g>
          </g>
          <path class="cls-5" d="M81.23,60.2c-.13-.15-.28-.32-.48-.35-.33-.06-.6.26-.79.54-2.45,3.73-3.82,8.16-3.89,12.63-.01.94.03,1.89.32,2.78.09.29.23.59.48.76.23.16.53.17.81.17,1.73-.05,3.31-.97,4.74-1.95,1.03-.7,4.29-1.97,4.45-2.38.15-.38-.27-2.25-.39-2.63-.68-2.22-1.65-4.36-2.88-6.33-.71-1.13-1.5-2.22-2.37-3.23Z"/>
          <path class="cls-12" d="M82.04,62.99c.54,1.74,1.06,3.5,1.56,5.25.27.97.54,1.95.59,2.96.01.28.01.56-.08.82-.13.38-.44.66-.74.93-.88.8-1.78,1.6-2.8,2.21-1.03.61-2.21,1.01-3.39.93-.45-1.36-.62-2.8-.52-4.23.32-4.78,1.91-7.43,2.58-9.16.19-.49.97-2.17,1.68-1.72.21.13.94,1.43,1.12,2.02Z"/>
          <path class="cls-3" d="M76.87,76.97c-.34-.62-.51-1.32-.51-2.03,0-.27-.42-.27-.42,0,0,.78.19,1.56.57,2.24.13.24.49.03.36-.21Z"/>
          <path class="cls-3" d="M86.66,69.97c-.07-.26-.47-.15-.4.11.23.84.46,1.69.44,2.57,0,.27.41.27.42,0,.02-.92-.22-1.81-.46-2.69Z"/>
          <path class="cls-18" d="M37.18,120.19c-.24-.17-.56-.18-.84-.2-.32-.03-.65-.04-.97-.04-.67,0-1.33.09-1.99.23-.26.06-.15.46.11.4.59-.13,1.2-.2,1.81-.21.3,0,.6,0,.9.02.25.02.56,0,.77.16.22.15.43-.21.21-.36Z"/>
          <path class="cls-18" d="M51.94,118.7c-1.17-.3-2.37-.36-3.57-.19-.11.02-.17.16-.15.26.03.12.15.16.26.15,1.11-.16,2.25-.09,3.34.19.26.07.37-.34.11-.4Z"/>
          <path class="cls-18" d="M79.54,120.04c-1.22-.2-2.46-.15-3.66.17-.26.07-.15.47.11.4,1.12-.29,2.29-.36,3.44-.17.26.04.38-.36.11-.4Z"/>
          <path class="cls-18" d="M89.54,118.54c-1.32-.18-2.65-.18-3.97.01-.26.04-.15.44.11.4,1.24-.18,2.51-.18,3.75-.01.26.04.38-.37.11-.4Z"/>
        </g>
      </g>
    </g>
  </g>
</svg>