<?xml version="1.0" encoding="UTF-8"?>
<svg xmlns="http://www.w3.org/2000/svg" version="1.1" xmlns:xlink="http://www.w3.org/1999/xlink" viewBox="0 0 236.94 258.04">
  <defs>
    <style>
      .cls-1 {
        fill: url(#linear-gradient-8);
      }

      .cls-1, .cls-2, .cls-3, .cls-4, .cls-5, .cls-6, .cls-7, .cls-8, .cls-9, .cls-10, .cls-11, .cls-12, .cls-13, .cls-14, .cls-15, .cls-16, .cls-17, .cls-18, .cls-19, .cls-20, .cls-21, .cls-22, .cls-23, .cls-24, .cls-25 {
        stroke: #000;
        stroke-miterlimit: 10;
      }

      .cls-1, .cls-2, .cls-7, .cls-9, .cls-11, .cls-12, .cls-13, .cls-14, .cls-15, .cls-17, .cls-18, .cls-20, .cls-21, .cls-22 {
        stroke-width: .34px;
      }

      .cls-2 {
        fill: url(#linear-gradient-7);
      }

      .cls-3 {
        fill: url(#radial-gradient-5);
      }

      .cls-3, .cls-4, .cls-6, .cls-8, .cls-10, .cls-16, .cls-19, .cls-23, .cls-25 {
        stroke-width: .23px;
      }

      .cls-26, .cls-25 {
        fill: #f2705e;
      }

      .cls-27 {
        fill: #fefcfd;
      }

      .cls-4 {
        fill: #fff1de;
      }

      .cls-5 {
        fill: url(#radial-gradient-6);
      }

      .cls-5, .cls-24 {
        stroke-width: .13px;
      }

      .cls-6, .cls-28 {
        fill: #f2c84b;
      }

      .cls-29 {
        fill: #f7c4b7;
      }

      .cls-7 {
        fill: url(#radial-gradient-3);
      }

      .cls-8, .cls-30 {
        fill: #a88674;
      }

      .cls-9 {
        fill: url(#linear-gradient-5);
      }

      .cls-10 {
        fill: #caa483;
      }

      .cls-11 {
        fill: url(#linear-gradient-4);
      }

      .cls-12 {
        fill: url(#linear-gradient-3);
      }

      .cls-31 {
        fill: #aee1e6;
      }

      .cls-13 {
        fill: url(#linear-gradient-9);
      }

      .cls-14 {
        fill: url(#linear-gradient);
      }

      .cls-15 {
        fill: url(#linear-gradient-2);
      }

      .cls-16 {
        fill: #a88674;
      }

      .cls-17 {
        fill: url(#radial-gradient);
      }

      .cls-18 {
        fill: url(#linear-gradient-11);
      }

      .cls-19 {
        fill: #aee1e6;
      }

      .cls-20 {
        fill: url(#linear-gradient-6);
      }

      .cls-21 {
        fill: url(#radial-gradient-2);
      }

      .cls-22 {
        fill: url(#linear-gradient-10);
      }

      .cls-32 {
        fill: #99cfde;
      }

      .cls-23 {
        fill: #fcc2c9;
      }

      .cls-24 {
        fill: url(#radial-gradient-4);
      }
    </style>
    <linearGradient id="linear-gradient" x1="182.03" y1="173.47" x2="182.06" y2="173.47" gradientUnits="userSpaceOnUse">
      <stop offset="0" stop-color="#0f8d82"/>
      <stop offset="1" stop-color="#5e2f81"/>
    </linearGradient>
    <linearGradient id="linear-gradient-2" x1="181.98" y1="173.43" x2="182" y2="173.43" xlink:href="#linear-gradient"/>
    <linearGradient id="linear-gradient-3" x1="175.04" y1="164.26" x2="198.87" y2="164.26" xlink:href="#linear-gradient"/>
    <linearGradient id="linear-gradient-4" x1="64.67" y1="162.87" x2="64.68" y2="162.87" xlink:href="#linear-gradient"/>
    <linearGradient id="linear-gradient-5" x1="64.7" y1="162.81" x2="64.7" y2="162.81" xlink:href="#linear-gradient"/>
    <linearGradient id="linear-gradient-6" x1="56.74" y1="165.9" x2="92.14" y2="165.9" xlink:href="#linear-gradient"/>
    <linearGradient id="linear-gradient-7" x1="66.32" y1="165.84" x2="86.87" y2="165.84" xlink:href="#linear-gradient"/>
    <linearGradient id="linear-gradient-8" x1="67.87" y1="169.27" x2="67.88" y2="169.27" xlink:href="#linear-gradient"/>
    <radialGradient id="radial-gradient" cx="129.18" cy="155.33" fx="129.18" fy="155.33" r="52.27" gradientUnits="userSpaceOnUse">
      <stop offset="0" stop-color="#0f8d82"/>
      <stop offset=".19" stop-color="#128881"/>
      <stop offset=".4" stop-color="#1e7a81"/>
      <stop offset=".63" stop-color="#316381"/>
      <stop offset=".87" stop-color="#4c4481"/>
      <stop offset="1" stop-color="#5e2f81"/>
    </radialGradient>
    <radialGradient id="radial-gradient-2" cx="64.52" cy="116.65" fx="64.52" fy="116.65" r="21.86" gradientUnits="userSpaceOnUse">
      <stop offset="0" stop-color="#0f8d82"/>
      <stop offset="1" stop-color="#5e2f81"/>
    </radialGradient>
    <radialGradient id="radial-gradient-3" cx="38.8" cy="118.29" fx="38.8" fy="118.29" r=".01" xlink:href="#radial-gradient-2"/>
    <radialGradient id="radial-gradient-4" cx="66.77" cy="121.2" fx="66.77" fy="121.2" r="2.38" gradientUnits="userSpaceOnUse">
      <stop offset="0" stop-color="#ee6e0f"/>
      <stop offset=".21" stop-color="#ed6a12"/>
      <stop offset=".42" stop-color="#ec5e1e"/>
      <stop offset=".63" stop-color="#ea4a32"/>
      <stop offset=".84" stop-color="#e72e4d"/>
      <stop offset="1" stop-color="#e41369"/>
    </radialGradient>
    <linearGradient id="linear-gradient-9" x1="65.05" y1="125.78" x2="91.92" y2="125.78" xlink:href="#linear-gradient"/>
    <radialGradient id="radial-gradient-5" cx="83.61" cy="99.41" fx="83.61" fy="99.41" r="16.17" xlink:href="#radial-gradient-4"/>
    <linearGradient id="linear-gradient-10" x1="185.24" y1="137.51" x2="200.23" y2="137.51" xlink:href="#linear-gradient"/>
    <linearGradient id="linear-gradient-11" x1="180.52" y1="167.54" x2="198.54" y2="167.54" xlink:href="#linear-gradient"/>
    <radialGradient id="radial-gradient-6" cx="183.79" cy="151.65" fx="183.79" fy="151.65" r="4.13" xlink:href="#radial-gradient-4"/>
  </defs>
  <!-- Generator: Adobe Illustrator 28.7.1, SVG Export Plug-In . SVG Version: 1.2.0 Build 142)  -->
  <g>
    <g id="Layer_1">
      <g>
        <circle class="cls-27" cx="118.47" cy="128.37" r="106.62"/>
        <g>
          <g>
            <path class="cls-32" d="M66.36,75.89c-.41-.21-.17-1.35-.15-1.75.18-1.53.21-3.08.29-4.62.03-.19-.03-.43.11-.59.14-.15.42-.03.41.18-.02.44-.07.9-.1,1.34,0,0,0,0,0,0,0,0,0,0,0,0-.08,1.14-.2,2.28-.19,3.42-.04.36.29,2.26-.36,2.03Z"/>
            <path class="cls-32" d="M69.93,72.57c-1.62-.03-3.23-.19-4.84-.27-.66-.04-1.33.12-1.98-.02-.23-.02-.42-.29-.2-.47.13-.09.3-.07.44-.08,1.05.04,2.08.26,3.13.26.95,0,1.9-.07,2.85-.02.22.03.66-.03.8.12.17.17.03.48-.21.47Z"/>
            <path class="cls-32" d="M64.2,74.79c-.2-.17-.04-.38.11-.51.94-1.03,1.89-2.1,2.87-3.08.57-.57,1.02-1.25,1.57-1.83.31-.26.58.1.36.4-.39.58-.99.99-1.45,1.52-.55.6-1.07,1.22-1.61,1.83-.32.36-.64.71-.96,1.05-.14.15-.28.3-.41.45-.11.15-.3.33-.48.18Z"/>
            <path class="cls-32" d="M68.61,74.88c-1.01-1.28-2.19-2.4-3.28-3.61-.41-.43-.84-.87-1.15-1.38-.11-.15-.1-.45.14-.43.15.03.26.15.37.24.68.68,1.36,1.37,1.99,2.1.42.5.78,1.05,1.19,1.55.35.42.75.8,1.11,1.22.17.23-.18.52-.37.31Z"/>
            <path class="cls-32" d="M66.26,76.65c-.17-.13-.12-.37-.13-.56,0-.39,0-.77,0-1.16.01-.84.05-1.68.09-2.52,0,0,0,.02,0,.03.04-.88.07-1.76.12-2.64.06-.61-.02-1.38.27-1.92.07-.1.21-.14.31-.07.21.22.13.59.14.87-.05,1.51-.24,3.01-.31,4.52-.03.8-.02,1.6-.02,2.4-.01.3.02.6-.03.89-.04.19-.29.28-.44.16Z"/>
            <path class="cls-32" d="M70.55,72.62c-2.03-.06-4.05-.31-6.09-.37-.64-.03-1.28.02-1.91-.06-.22,0-.5-.24-.29-.44.13-.1.31-.1.47-.12.42-.03.84-.04,1.25-.03,2.33.13,4.66.33,6.99.4.51-.07.64.48.19.58-.21.01-.41.05-.62.03Z"/>
          </g>
          <g>
            <path class="cls-26" d="M195.53,115.67c.04-.44,1.14-.62,1.51-.75,1.43-.37,2.81-.9,4.21-1.36.18-.04.37-.18.56-.11.18.08.17.37-.02.43-.4.14-.82.26-1.23.38,0,0,0,0,0,0,0,0,0,0,0,0-1.04.33-2.1.62-3.11,1.03-.33.09-1.91,1.05-1.93.39Z"/>
            <path class="cls-26" d="M199.74,117.68c-.54-1.45-.96-2.94-1.46-4.41-.2-.6-.57-1.14-.68-1.77-.06-.22.11-.48.34-.34.13.08.17.24.22.37.33.95.5,1.94.87,2.88.33.85.73,1.67,1.02,2.53.05.21.26.58.17.76-.09.21-.42.19-.49-.02Z"/>
            <path class="cls-26" d="M195.75,113.36c.08-.23.33-.17.5-.08,1.24.48,2.54.95,3.75,1.47.71.31,1.47.47,2.19.75.34.19.12.55-.23.46-.66-.15-1.23-.53-1.86-.76-.73-.28-1.47-.52-2.2-.79-.43-.16-.85-.32-1.28-.49-.18-.07-.36-.14-.55-.21-.17-.05-.4-.15-.32-.37Z"/>
            <path class="cls-26" d="M197.21,117.32c.78-1.35,1.37-2.79,2.06-4.19.24-.52.48-1.05.82-1.51.1-.15.37-.25.43-.02.02.14-.04.28-.09.41-.37.85-.74,1.69-1.17,2.51-.3.55-.66,1.06-.96,1.61-.25.46-.45.95-.7,1.41-.15.24-.53.03-.4-.22Z"/>
            <path class="cls-26" d="M194.82,115.85c.06-.2.29-.23.45-.31.34-.14.68-.28,1.03-.41.75-.28,1.51-.54,2.27-.81,0,0-.02,0-.02,0,.8-.28,1.59-.55,2.4-.82.56-.16,1.22-.5,1.81-.43.11.03.2.14.17.25-.12.27-.47.32-.72.43-1.36.49-2.77.84-4.14,1.31-.72.26-1.43.55-2.15.83-.27.09-.53.23-.8.29-.18.03-.35-.16-.29-.34Z"/>
            <path class="cls-26" d="M199.91,118.25c-.66-1.83-1.15-3.72-1.81-5.55-.19-.58-.47-1.13-.62-1.72-.07-.2.04-.52.29-.41.14.08.2.24.27.38.18.36.33.73.47,1.1.7,2.12,1.34,4.26,2.1,6.36.24.43-.21.74-.45.38-.08-.18-.19-.35-.24-.54Z"/>
          </g>
          <g>
            <path class="cls-29" d="M103.81,55.68c.04-.44,1.14-.62,1.5-.75,1.42-.37,2.8-.9,4.2-1.36.18-.04.37-.18.56-.11.18.08.17.37-.02.43-.4.14-.82.26-1.22.38,0,0,0,0,0,0,0,0,0,0,0,0-1.04.33-2.09.62-3.1,1.03-.33.09-1.91,1.05-1.93.39Z"/>
            <path class="cls-29" d="M108,57.68c-.54-1.45-.96-2.93-1.46-4.39-.2-.6-.57-1.14-.68-1.76-.06-.22.11-.48.34-.34.13.08.17.24.22.37.33.94.5,1.94.87,2.87.33.84.73,1.66,1.02,2.53.05.21.25.58.17.76-.09.21-.41.19-.49-.02Z"/>
            <path class="cls-29" d="M104.02,53.38c.08-.23.33-.17.5-.08,1.24.48,2.53.94,3.74,1.47.71.31,1.47.47,2.18.75.34.19.12.55-.23.46-.65-.15-1.23-.53-1.86-.76-.73-.27-1.46-.52-2.19-.79-.43-.16-.85-.32-1.27-.49-.18-.07-.36-.14-.54-.21-.17-.05-.39-.15-.32-.37Z"/>
            <path class="cls-29" d="M105.48,57.32c.78-1.34,1.37-2.78,2.06-4.17.24-.52.48-1.05.82-1.5.1-.15.37-.25.43-.02.02.14-.04.28-.09.41-.36.84-.74,1.69-1.16,2.5-.3.55-.66,1.06-.96,1.6-.25.46-.45.95-.69,1.41-.15.24-.53.03-.4-.22Z"/>
            <path class="cls-29" d="M103.09,55.85c.06-.19.29-.23.45-.31.34-.14.68-.28,1.03-.41.75-.28,1.51-.54,2.26-.8,0,0-.02,0-.02,0,.8-.28,1.59-.55,2.39-.82.56-.16,1.22-.5,1.8-.43.11.03.2.14.17.25-.12.27-.47.32-.72.43-1.36.48-2.76.84-4.12,1.31-.72.26-1.43.55-2.14.82-.27.09-.52.23-.8.28-.18.03-.35-.16-.29-.34Z"/>
            <path class="cls-29" d="M108.17,58.25c-.66-1.82-1.15-3.7-1.81-5.53-.19-.58-.47-1.13-.62-1.72-.07-.19.04-.52.29-.41.14.08.2.24.27.37.18.36.33.73.47,1.1.7,2.11,1.34,4.25,2.1,6.34.24.43-.2.74-.45.37-.08-.18-.19-.35-.24-.54Z"/>
          </g>
          <g>
            <path class="cls-29" d="M172.02,75.02c.04-.44,1.14-.62,1.5-.75,1.42-.37,2.8-.9,4.2-1.36.18-.04.37-.18.56-.11.18.08.17.37-.02.43-.4.14-.82.26-1.22.38,0,0,0,0,0,0,0,0,0,0,0,0-1.04.33-2.09.62-3.1,1.03-.33.09-1.91,1.05-1.93.39Z"/>
            <path class="cls-29" d="M176.22,77.03c-.54-1.45-.96-2.93-1.46-4.39-.2-.6-.57-1.14-.68-1.76-.06-.22.11-.48.34-.34.13.08.17.24.22.37.33.94.5,1.94.87,2.87.33.84.73,1.66,1.02,2.53.05.21.25.58.17.76-.09.21-.41.19-.49-.02Z"/>
            <path class="cls-29" d="M172.23,72.72c.08-.23.33-.17.5-.08,1.24.48,2.53.94,3.74,1.47.71.31,1.47.47,2.18.75.34.19.12.55-.23.46-.65-.15-1.23-.53-1.86-.76-.73-.27-1.46-.52-2.19-.79-.43-.16-.85-.32-1.27-.49-.18-.07-.36-.14-.54-.21-.17-.05-.39-.15-.32-.37Z"/>
            <path class="cls-29" d="M173.7,76.67c.78-1.34,1.37-2.78,2.06-4.17.24-.52.48-1.05.82-1.5.1-.15.37-.25.43-.02.02.14-.04.28-.09.41-.36.84-.74,1.69-1.16,2.5-.3.55-.66,1.06-.96,1.6-.25.46-.45.95-.69,1.41-.15.24-.53.03-.4-.22Z"/>
            <path class="cls-29" d="M171.31,75.2c.06-.19.29-.23.45-.31.34-.14.68-.28,1.03-.41.75-.28,1.51-.54,2.26-.8,0,0-.02,0-.02,0,.8-.28,1.59-.55,2.39-.82.56-.16,1.22-.5,1.8-.43.11.03.2.14.17.25-.12.27-.47.32-.72.43-1.36.48-2.76.84-4.12,1.31-.72.26-1.43.55-2.14.82-.27.09-.52.23-.8.28-.18.03-.35-.16-.29-.34Z"/>
            <path class="cls-29" d="M176.39,77.6c-.66-1.82-1.15-3.7-1.81-5.53-.19-.58-.47-1.13-.62-1.72-.07-.19.04-.52.29-.41.14.08.2.24.27.37.18.36.33.73.47,1.1.7,2.11,1.34,4.25,2.1,6.34.24.43-.2.74-.45.37-.08-.18-.19-.35-.24-.54Z"/>
          </g>
          <g>
            <path class="cls-28" d="M189.41,94.11c.04-.44,1.14-.62,1.5-.75,1.42-.37,2.8-.9,4.2-1.36.18-.04.37-.18.56-.11.18.08.17.37-.02.43-.4.14-.82.26-1.22.38,0,0,0,0,0,0,0,0,0,0,0,0-1.04.33-2.09.62-3.1,1.03-.33.09-1.91,1.05-1.93.39Z"/>
            <path class="cls-28" d="M193.61,96.11c-.54-1.45-.96-2.93-1.46-4.39-.2-.6-.57-1.14-.68-1.76-.06-.22.11-.48.34-.34.13.08.17.24.22.37.33.94.5,1.94.87,2.87.33.84.73,1.66,1.02,2.53.05.21.25.58.17.76-.09.21-.41.19-.49-.02Z"/>
            <path class="cls-28" d="M189.62,91.81c.08-.23.33-.17.5-.08,1.24.48,2.53.94,3.74,1.47.71.31,1.47.47,2.18.75.34.19.12.55-.23.46-.65-.15-1.23-.53-1.86-.76-.73-.27-1.46-.52-2.19-.79-.43-.16-.85-.32-1.27-.49-.18-.07-.36-.14-.54-.21-.17-.05-.39-.15-.32-.37Z"/>
            <path class="cls-28" d="M191.09,95.76c.78-1.34,1.37-2.78,2.06-4.17.24-.52.48-1.05.82-1.5.1-.15.37-.25.43-.02.02.14-.04.28-.09.41-.36.84-.74,1.69-1.16,2.5-.3.55-.66,1.06-.96,1.6-.25.46-.45.95-.69,1.41-.15.24-.53.03-.4-.22Z"/>
            <path class="cls-28" d="M188.7,94.29c.06-.19.29-.23.45-.31.34-.14.68-.28,1.03-.41.75-.28,1.51-.54,2.26-.8,0,0-.02,0-.02,0,.8-.28,1.59-.55,2.39-.82.56-.16,1.22-.5,1.8-.43.11.03.2.14.17.25-.12.27-.47.32-.72.43-1.36.48-2.76.84-4.12,1.31-.72.26-1.43.55-2.14.82-.27.09-.52.23-.8.28-.18.03-.35-.16-.29-.34Z"/>
            <path class="cls-28" d="M193.78,96.68c-.66-1.82-1.15-3.7-1.81-5.53-.19-.58-.47-1.13-.62-1.72-.07-.19.04-.52.29-.41.14.08.2.24.27.37.18.36.33.73.47,1.1.7,2.11,1.34,4.25,2.1,6.34.24.43-.2.74-.45.37-.08-.18-.19-.35-.24-.54Z"/>
          </g>
          <g>
            <path class="cls-28" d="M124,70.27c.04-.44,1.14-.62,1.5-.75,1.42-.37,2.8-.9,4.2-1.36.18-.04.37-.18.56-.11.18.08.17.37-.02.43-.4.14-.82.26-1.22.38,0,0,0,0,0,0,0,0,0,0,0,0-1.04.33-2.09.62-3.1,1.03-.33.09-1.91,1.05-1.93.39Z"/>
            <path class="cls-28" d="M128.2,72.27c-.54-1.45-.96-2.93-1.46-4.39-.2-.6-.57-1.14-.68-1.76-.06-.22.11-.48.34-.34.13.08.17.24.22.37.33.94.5,1.94.87,2.87.33.84.73,1.66,1.02,2.53.05.21.25.58.17.76-.09.21-.41.19-.49-.02Z"/>
            <path class="cls-28" d="M124.21,67.96c.08-.23.33-.17.5-.08,1.24.48,2.53.94,3.74,1.47.71.31,1.47.47,2.18.75.34.19.12.55-.23.46-.65-.15-1.23-.53-1.86-.76-.73-.27-1.46-.52-2.19-.79-.43-.16-.85-.32-1.27-.49-.18-.07-.36-.14-.54-.21-.17-.05-.39-.15-.32-.37Z"/>
            <path class="cls-28" d="M125.68,71.91c.78-1.34,1.37-2.78,2.06-4.17.24-.52.48-1.05.82-1.5.1-.15.37-.25.43-.02.02.14-.04.28-.09.41-.36.84-.74,1.69-1.16,2.5-.3.55-.66,1.06-.96,1.6-.25.46-.45.95-.69,1.41-.15.24-.53.03-.4-.22Z"/>
            <path class="cls-28" d="M123.29,70.44c.06-.19.29-.23.45-.31.34-.14.68-.28,1.03-.41.75-.28,1.51-.54,2.26-.8,0,0-.02,0-.02,0,.8-.28,1.59-.55,2.39-.82.56-.16,1.22-.5,1.8-.43.11.03.2.14.17.25-.12.27-.47.32-.72.43-1.36.48-2.76.84-4.12,1.31-.72.26-1.43.55-2.14.82-.27.09-.52.23-.8.28-.18.03-.35-.16-.29-.34Z"/>
            <path class="cls-28" d="M128.37,72.84c-.66-1.82-1.15-3.7-1.81-5.53-.19-.58-.47-1.13-.62-1.72-.07-.19.04-.52.29-.41.14.08.2.24.27.37.18.36.33.73.47,1.1.7,2.11,1.34,4.25,2.1,6.34.24.43-.2.74-.45.37-.08-.18-.19-.35-.24-.54Z"/>
          </g>
          <g>
            <path class="cls-29" d="M54.81,89.92c.04-.44,1.14-.62,1.5-.75,1.42-.37,2.8-.9,4.2-1.36.18-.04.37-.18.56-.11.18.08.17.37-.02.43-.4.14-.82.26-1.22.38,0,0,0,0,0,0,0,0,0,0,0,0-1.04.33-2.09.62-3.1,1.03-.33.09-1.91,1.05-1.93.39Z"/>
            <path class="cls-29" d="M59,91.93c-.54-1.45-.96-2.93-1.46-4.39-.2-.6-.57-1.14-.68-1.76-.06-.22.11-.48.34-.34.13.08.17.24.22.37.33.94.5,1.94.87,2.87.33.84.73,1.66,1.02,2.53.05.21.25.58.17.76-.09.21-.41.19-.49-.02Z"/>
            <path class="cls-29" d="M55.02,87.62c.08-.23.33-.17.5-.08,1.24.48,2.53.94,3.74,1.47.71.31,1.47.47,2.18.75.34.19.12.55-.23.46-.65-.15-1.23-.53-1.86-.76-.73-.27-1.46-.52-2.19-.79-.43-.16-.85-.32-1.27-.49-.18-.07-.36-.14-.54-.21-.17-.05-.39-.15-.32-.37Z"/>
            <path class="cls-29" d="M56.48,91.57c.78-1.34,1.37-2.78,2.06-4.17.24-.52.48-1.05.82-1.5.1-.15.37-.25.43-.02.02.14-.04.28-.09.41-.36.84-.74,1.69-1.16,2.5-.3.55-.66,1.06-.96,1.6-.25.46-.45.95-.69,1.41-.15.24-.53.03-.4-.22Z"/>
            <path class="cls-29" d="M54.09,90.1c.06-.19.29-.23.45-.31.34-.14.68-.28,1.03-.41.75-.28,1.51-.54,2.26-.8,0,0-.02,0-.02,0,.8-.28,1.59-.55,2.39-.82.56-.16,1.22-.5,1.8-.43.11.03.2.14.17.25-.12.27-.47.32-.72.43-1.36.48-2.76.84-4.12,1.31-.72.26-1.43.55-2.14.82-.27.09-.52.23-.8.28-.18.03-.35-.16-.29-.34Z"/>
            <path class="cls-29" d="M59.17,92.5c-.66-1.82-1.15-3.7-1.81-5.53-.19-.58-.47-1.13-.62-1.72-.07-.19.04-.52.29-.41.14.08.2.24.27.37.18.36.33.73.47,1.1.7,2.11,1.34,4.25,2.1,6.34.24.43-.2.74-.45.37-.08-.18-.19-.35-.24-.54Z"/>
          </g>
          <path class="cls-26" d="M122.56,95.57c-.22-.25-.44-.48-.68-.71-1.22-1.23-2.6-2.34-3.56-3.81-.68-.97-1.11-2.45.13-3.21,1.65-.78,3.18.92,3.91,2.25.37-1.28.78-3.02,2.25-3.4.79-.08,1.42.61,1.77,1.25.48.91.45,1.99.29,2.98-.22,1.34-.81,2.6-1.64,3.67-.41.48-.75,1.11-1.34,1.39-.03.06-.08.12-.13.16-.47.33-.74-.28-1-.57ZM125.84,88.57c-.27-1.28-1.34-2.24-2.1-.65-.35.75-.38,1.59-.54,2.39-.09.5,0,1.42-.75,1.36-.63-.14-.75-.86-1.03-1.36-.48-.97-1.18-2.21-2.4-2.22-.57.01-.96.58-.91,1.12.04.53.38.97.68,1.39,1.36,1.74,3.26,2.95,4.67,4.64.17-.21.33-.44.49-.67,1.29-1.69,2.16-3.85,1.91-6Z"/>
          <path class="cls-26" d="M150.85,79.7c-.22-.25-.44-.48-.68-.71-1.22-1.23-2.6-2.34-3.56-3.81-.68-.97-1.11-2.45.13-3.21,1.65-.78,3.18.92,3.91,2.25.37-1.28.78-3.02,2.25-3.4.79-.08,1.42.61,1.77,1.25.48.91.45,1.99.29,2.98-.22,1.34-.81,2.6-1.64,3.67-.41.48-.75,1.11-1.34,1.39-.03.06-.08.12-.13.16-.47.33-.74-.28-1-.57ZM154.13,72.7c-.27-1.28-1.34-2.24-2.1-.65-.35.75-.38,1.59-.54,2.39-.09.5,0,1.42-.75,1.36-.63-.14-.75-.86-1.03-1.36-.48-.97-1.18-2.21-2.4-2.22-.57.01-.96.58-.91,1.12.04.53.38.97.68,1.39,1.36,1.74,3.26,2.95,4.67,4.64.17-.21.33-.44.49-.67,1.29-1.69,2.16-3.85,1.91-6Z"/>
          <path class="cls-26" d="M136.57,99.05c-1.38.83-.91,2.48-.16,3.57,1.05,1.64,2.59,2.88,3.94,4.26.26.26.51.52.75.79.29.33.59,1,1.11.64.06-.05.11-.11.15-.18.65-.31,1.04-1.01,1.5-1.54.93-1.19,1.59-2.58,1.84-4.08.18-1.1.22-2.3-.31-3.32-.39-.71-1.09-1.48-1.97-1.4-1.64.41-2.11,2.35-2.52,3.77-.8-1.48-2.5-3.39-4.34-2.52Z"/>
          <path class="cls-28" d="M86.73,62.1c.44.42-.26.85-.31,1.29-.13,1.33.04,2.87.99,3.89.42-1.03,1.9-1.92,2.84-1.02.88,1.29-1.01,2.63-2.23,2.18.13,1.01,1.08,1.72,2.01,1.98.87.23,1.78-.03,2.54-.48.2-.1.34-.27.49-.42.34-.14.46.32.29.55-.63.89-1.8,1.39-2.87,1.38-1.76-.01-3.62-1.53-3.29-3.41-1.41-1.01-1.79-2.94-1.68-4.58.1-.48.55-1.84,1.21-1.35ZM89.29,66.33c-.69.11-1.16.76-1.28,1.42,1.61.95,3.08-1.51,1.28-1.42Z"/>
          <path class="cls-26" d="M165.16,96.11c-.69.3-.84-.69-1.32-.95-1.45-.77-3.27-1.31-4.86-.7.97.96,1.28,3.04-.18,3.68-1.87.39-2.5-2.38-1.41-3.54-1.2-.32-2.45.41-3.18,1.34-.68.88-.8,2.03-.65,3.1.02.28.15.51.25.76,0,.45-.58.37-.75.07-.71-1.13-.73-2.68-.21-3.89.84-1.98,3.43-3.37,5.4-2.12,1.81-1.12,4.16-.65,5.97.26.49.34,1.82,1.49.96,2ZM159.18,97.02c.2-.83-.31-1.67-1-2.12-1.83,1.37.26,4.19,1,2.12Z"/>
          <path class="cls-31" d="M163.01,64.08c.48.91.41,2.06-.13,2.93-.26.48-.83.36-.65-.22.09-.51.21-1.02.13-1.54-.14-.76-.67-1.52-1.45-1.69-.93-.17-1.87.12-2.79.24-.87.12-1.79.14-2.64-.13-2.94-1.07-.69-4.24-3.48-5.83-1.07-.59-3.09.24-4.34.29-.53.05-.62-.77-.08-.82,1.09-.12,2.14-.48,3.23-.58,1.51-.22,2.85.98,3.35,2.33.38.96.1,2,.31,2.98,1.33,2.86,6.65-1.88,8.56,2.04Z"/>
          <path class="cls-31" d="M36.39,99.66c-.98.02-1.92-.52-2.43-1.35-.3-.42.04-.85.46-.46.39.29.78.61,1.25.76.7.2,1.57.07,2.05-.52.54-.72.69-1.64.97-2.47.27-.79.64-1.58,1.23-2.19,2.15-2.05,3.89,1.21,6.42-.5.95-.66,1.1-2.72,1.59-3.81.18-.47.91-.2.73.28-.36.97-.5,2.02-.87,2.99-.45,1.38-2.04,2.01-3.39,1.86-.97-.08-1.74-.76-2.67-1-2.99-.08-1.21,6.44-5.35,6.41Z"/>
          <g>
            <path class="cls-14" d="M182.06,173.48s-.02-.02-.04-.02"/>
            <path class="cls-15" d="M181.98,173.43s.01,0,.02.01h0s-.01,0-.02-.01Z"/>
            <path class="cls-12" d="M198.82,178.44s0,0,0,0c-.08-.92-.63-2-.84-2.79-.62-1.78-1.26-3.55-1.95-5.29-2.82-6.91-5.54-14.17-10.67-19.74-.23-.26-.47-.52-.71-.77-.03-.08-.06-.15-.1-.22-.04-.04-.08-.08-.12-.12-.17-.17-.35-.33-.52-.49-.11-.07-.21-.14-.32-.21-.33-.3-.67-.59-1.01-.87-.22-.23-.45-.47-.68-.7-.25-.21-.51-.43-.76-.64-.23-.19-.46-.38-.7-.57-.24-.19-.49-.36-.74-.54-.26-.17-.51-.33-.79-.47-.1-.05-.2-.09-.3-.13-.1-.03-.2-.06-.3-.08-.08-.01-.16-.02-.24-.03-.1,0-.21,0-.31,0-.28.02-.56.05-.84.09,0,0,0,0,0,0-.88.71-1.31,1.88-1.68,2.92-.24.95-.12,1.96-.19,2.93-.03,3.41.08,6.93.35,10.39.15,2.17.29,4.33.42,6.5.11.78-.04,1.67.39,2.35.04.07.09.13.14.18.32.6,1.72.99,2.3,1.49.72.45,1.44.89,2.17,1.33.06,0,.11.02.16.04.11.05.22.1.32.16.02.01.05.03.07.04.19-.03.38.02.54.13.63.47,1.26.93,1.9,1.37.03.02.06.04.09.06.06.04.12.09.17.14.37.22.74.45,1.1.68,2.42,1.52,4.71,3.23,6.97,4.98.36.3.71.71,1.07,1.04-1.2,2.42,1.02,3.06,3.31.54.18-.22.4-.43.62-.65.13-.13.26-.25.38-.38.24-.25.45-.51.6-.8.48-.56.85-1.18.68-1.88Z"/>
          </g>
          <g>
            <path class="cls-11" d="M64.67,162.89s.01-.03.02-.04"/>
            <path class="cls-9" d="M64.7,162.8s0,.01,0,.02h0s0-.01,0-.02Z"/>
            <path class="cls-20" d="M92.12,153.61c-.01-.1-.03-.2-.05-.3-.07-.27-.16-.54-.25-.81,0,0,0,0,0,0-.86-.73-2.09-.94-3.18-1.1-.98-.06-1.95.24-2.91.36-3.36.61-6.79,1.37-10.14,2.28-2.1.55-4.21,1.09-6.31,1.63-.74.25-1.64.27-2.24.82-.06.05-.11.11-.15.17-.53.43-.65,1.88-1.03,2.54-.31.79-.61,1.58-.9,2.38,0,.06,0,.11-.01.17-.03.12-.06.23-.1.35,0,.03-.02.05-.03.08.07.18.06.38-.03.55-.34.7-.68,1.41-.99,2.13-.01.03-.03.07-.04.1-.03.07-.06.13-.11.19-.15.4-.3.81-.46,1.21-1.04,2.66-2.3,5.23-3.59,7.78-.23.41-.56.83-.82,1.25-2.6-.73-2.81,1.57.08,3.35.25.14.5.31.75.49.15.1.3.21.45.3.29.19.59.35.89.45.64.37,1.32.62,1.98.32,0,0,0,0,0,0,.89-.25,1.85-.99,2.58-1.35,1.63-.94,3.25-1.9,4.84-2.91,6.27-4.06,12.89-8.08,17.41-14.16.21-.28.42-.56.62-.84.07-.04.14-.09.2-.14.03-.05.06-.09.09-.14.13-.2.26-.4.39-.61.05-.12.1-.24.15-.36.24-.38.46-.77.67-1.16.19-.26.37-.53.56-.79.16-.29.33-.58.49-.87.15-.26.29-.53.43-.8.14-.27.27-.55.39-.82.12-.28.23-.57.32-.86.03-.11.05-.21.07-.32.01-.1.02-.21.02-.31,0-.08,0-.16-.01-.24Z"/>
          </g>
          <g>
            <path class="cls-2" d="M86.87,153.81c-.02-.13-.04-.25-.07-.38,0-.45-.03-.89-.07-1.33.01-.32.03-.65.04-.97-.02-.33-.04-.66-.06-1-.02-.3-.04-.6-.07-.9-.03-.3-.07-.6-.12-.9-.05-.3-.11-.6-.2-.89-.04-.1-.07-.21-.12-.31-.05-.09-.1-.19-.15-.28-.05-.07-.09-.13-.14-.2-.07-.08-.14-.15-.21-.23-.21-.19-.43-.37-.65-.55,0,0,0,0,0,0-1.12-.14-2.26.35-3.27.8-.85.48-1.5,1.26-2.25,1.89-2.49,2.33-4.96,4.84-7.28,7.42-1.46,1.6-2.94,3.2-4.41,4.79-.49.62-1.23,1.12-1.43,1.91-.02.08-.03.15-.03.23-.21.65.47,1.93.51,2.69.17.83.35,1.66.54,2.49.03.05.06.1.08.15.04.11.08.23.11.34,0,.03.01.06.02.08.15.11.25.29.28.48.09.78.19,1.55.32,2.32,0,.04.01.07.02.11.01.07.02.15.02.22.09.42.18.84.27,1.27.57,2.8.91,5.64,1.2,8.48.03.47-.02,1-.01,1.5-2.58.8-1.51,2.85,1.89,2.77.28-.02.59-.01.9,0,.18,0,.36.01.54.01.34,0,.68-.02.99-.11.73-.04,1.44-.2,1.83-.81.61-.69,1.01-1.84,1.44-2.53.86-1.67,1.7-3.36,2.49-5.07,3.06-6.81,6.44-13.78,6.93-21.34.03-.35.05-.7.07-1.04.04-.07.07-.15.09-.23,0-.06,0-.11,0-.17,0-.24,0-.48,0-.72Z"/>
            <path class="cls-1" d="M67.88,169.28h0s0-.01,0-.02c0,0,0,.01,0,.02Z"/>
          </g>
          <path class="cls-17" d="M198.48,154.69c.23,2.52-.2,5.07-1.24,7.23-2.18,4.5-6.4,7.92-11.47,10.31-11.32,5.33-26.34,6.2-39.12,7.21-12.2.97-24.45,1.61-36.72,1.47-11.17-.13-23.38-.64-34.16-3.58-7.53-2.06-14.37-8.72-15.75-15.79-.64-3.28.18-24.39,6.32-30.53,1.96-1.96,6.52-1.27,8.89-.39,4.52,1.68-.07,9.34,4.21,10.92,6,2.23,12.65,1.96,20.42,2.85,13.85,1.94,28.15,1.91,42.19,1.05,12.73-.59,25.18-4.6,37.98-4.07,9.55.4,17.73,5.2,18.47,13.32Z"/>
          <g>
            <g>
              <path class="cls-6" d="M121.01,135.89c.34,3.42,1.2,6.79,2.55,9.97.15.34.3.69.56.97.33.36.8.57,1.27.75,3.95,1.53,8.82,1.26,12.17-1.28.21-.16.42-.34.56-.56.17-.28.2-.62.23-.95.24-3.02.35-6.05.33-9.08,0-.37-.03-.78-.33-1.01-.14-.11-.33-.16-.51-.2-4.9-1.16-10.1-1.24-15.05-.24-.4.08-.81.17-1.14.41-.33.23-.69.64-.64,1.21Z"/>
              <path class="cls-16" d="M120.34,134.73c-.08.92-.24,1.79.03,2.67.17.56.57,1.2,1.12,1.12.29-.04.51-.27.79-.35.89-.28,1.57.96,2.47,1.17,1.31.31,2.46-1.56,3.74-1.12.44.15.76.54,1.15.8.44.29.99.4,1.5.3.87-.18,1.61-.93,2.5-.9.53.02,1,.32,1.49.53.49.22,1.07.35,1.52.06.43-.28.69-.91,1.19-.91.23,0,.43.14.66.18.3.06.63-.05.86-.26.51-.45.6-1.28.39-1.95-.21-.67.17-2.26-.31-2.76-.4-.42-1.68.23-2.19-.03-.56-.28-1.19-.37-1.8-.44-2.2-.25-4.42-.24-6.63-.24-1.4,0-2.8,0-4.2,0-.95,0-1.92,0-2.8.36-.88.36-1.43,1.21-1.48,1.75Z"/>
              <path class="cls-25" d="M124.73,128.35c2.23-1.31,4.88-1.87,7.44-1.59,2.57.28,5.03,1.4,6.92,3.16.58.54,1.11,1.14,1.41,1.87.51,1.26.21,2.8-.72,3.8-.93,1-2.41,1.42-3.74,1.09-.7-.17-1.48-.52-2.09-.13-.17.11-.31.28-.46.42-.87.84-2.34.95-3.32.26-.19-.14-.37-.3-.59-.39-.22-.09-.47-.09-.71-.07-.78.08-1.49.45-2.24.66-.75.21-1.64.23-2.22-.29-.33-.3-.59-.78-1.04-.79-.23,0-.43.12-.64.21-.61.26-1.35.2-1.92-.15-.57-.35-.95-.98-1-1.65-.06-.75.29-1.48.7-2.12.71-1.13,3.29-3.73,4.23-4.28Z"/>
              <path class="cls-4" d="M126.06,144.38c-.04-.18-.09-.37-.14-.55-.15-.53-.29-1.06-.42-1.59-.1-.42-.2-.83-.29-1.25,0-.03-.02-.11-.03-.15,0-.04-.01-.08-.02-.12,0-.04-.01-.08-.03-.11-.13-.29-.57-.17-.56.15.16,1.01.42,2.01.7,3,.08.27.15.54.26.8.02.04.03.08.05.12.02.06.07.12.13.15.09.05.19.03.27-.02.19-.16.1-.28.08-.43Z"/>
              <path class="cls-4" d="M130.77,145.41s0,0,0,0c0,0,0-.01,0-.02,0-.02,0-.04,0-.06,0,0,0,0,0,0-.02-.36-.1-.71-.18-1.06-.11-.5-.23-1-.34-1.51-.11-.49-.17-.78-.23-1.11-.02-.12-.04-.24-.06-.37-.01-.07,0-.15-.05-.21-.15-.31-.62-.18-.6.16.18,1.19.48,2.35.74,3.53.06.25.14.49.26.72,0-.02-.02-.04-.03-.06,0,.03.02.05.03.08,0,0,0,0,0,.01,0,0,0,0,0,0,.05.15.24.21.36.12.07-.05.11-.14.11-.22Z"/>
              <path class="cls-4" d="M135.32,140.75c-.15-.31-.62-.18-.6.16-.02.9.03,1.8.09,2.7.02.38.05.77.09,1.15,0,.14.03.39.34.4.32-.06.3-.29.29-.44-.01-.16-.03-.32-.04-.48-.05-.64-.08-1.28-.11-1.91-.01-.33-.02-.66-.02-.99,0-.11,0-.23,0-.34,0-.08.01-.16-.03-.23Z"/>
              <path class="cls-23" d="M131.02,127.29c-.03-.53-.07-1.07-.11-1.6-.12-1.47-.24-2.94-.39-4.4-.13-1.28-.28-2.57-.37-3.85-.01-.22-.03-.44-.03-.66.02-.1.01-.2-.01-.3-.01-.11-.05-.22-.12-.31-.06-.1-.14-.17-.23-.23-.09-.07-.19-.11-.3-.13-.08,0-.15-.01-.23-.02-.37.02-.71.31-.78.67-.05.44,0,.87.02,1.31.05.66.11,1.31.18,1.97.17,1.55.33,3.11.45,4.66.08.91.16,1.81.21,2.72.01.18.02.36.03.54.02.2,0,.41.11.59.13.31.48.5.81.48.34-.05.53-.17.71-.47.16-.3.06-.65.06-.98Z"/>
              <g>
                <path class="cls-6" d="M130.38,111.49c-.12-.38-.27-.74-.35-1.13,0,0,0,0,0,0-.03-.16-.05-.31-.07-.47-.02-.12-.02-.24-.05-.36,0,.02,0,.04.01.06-.03-.14-.04-.29-.11-.42-.04-.09-.1-.18-.17-.25-.29-.24-.73-.08-.78.29,0,0,0,.01,0,.02,0,0,0,0,0,.01-.02.1,0,.21.04.3,0,0,0,0,0,0,0,.01-.01.02-.02.03,0,0-.01.02-.02.03-.02.03-.05.06-.06.1-.04.07-.08.14-.13.22-.01.02-.02.03-.03.05,0-.02.02-.04.04-.05-.07.11-.13.22-.2.33-.31.55-.65,1.1-.76,1.73-.07.39-.1.8,0,1.19.12.47.39.99.79,1.28.08.07.18.12.28.16.24.13.54.17.8.06.11-.05.21-.11.3-.19.18-.14.32-.32.44-.51.21-.36.29-.79.3-1.21,0-.44-.12-.87-.25-1.28Z"/>
                <path class="cls-6" d="M129.91,109.53s0-.01,0-.02c0,0,0,.01,0,.02Z"/>
              </g>
            </g>
            <path class="cls-4" d="M124.69,130.9c-.7.1-.59,1.11.11,1.06.7-.1.59-1.11-.11-1.06Z"/>
            <path class="cls-4" d="M129.01,134.25c-.7.1-.59,1.11.11,1.06.7-.1.59-1.11-.11-1.06Z"/>
            <path class="cls-4" d="M135.79,133.01c-.7.1-.59,1.11.11,1.06.7-.1.59-1.11-.11-1.06Z"/>
            <path class="cls-4" d="M133.92,128.37c-.7.1-.59,1.11.11,1.06.7-.1.59-1.11-.11-1.06Z"/>
            <path class="cls-4" d="M131.37,130.37c-.7.1-.59,1.11.11,1.06.7-.1.59-1.11-.11-1.06Z"/>
          </g>
          <g>
            <g>
              <path class="cls-23" d="M144.9,132.77c-.23,3.58.09,7.19.95,10.69.09.38.2.77.41,1.1.28.43.73.72,1.18.99,3.81,2.24,8.86,2.78,12.74.73.25-.13.49-.28.67-.49.22-.26.31-.61.39-.93.75-3.07,1.38-6.17,1.87-9.29.06-.38.1-.81-.17-1.1-.13-.14-.31-.22-.49-.29-4.85-2.02-10.18-2.98-15.45-2.77-.43.02-.86.04-1.24.23-.38.19-.82.55-.86,1.14Z"/>
              <path class="cls-10" d="M144.4,131.47c-.24.93-.55,1.81-.41,2.76.08.61.38,1.33.96,1.34.3,0,.57-.19.87-.23.96-.14,1.45,1.25,2.35,1.62,1.29.54,2.8-1.19,4.04-.53.42.23.69.69,1.04,1.02.41.38.95.58,1.5.56.93-.03,1.81-.69,2.72-.5.54.11.98.49,1.45.8.47.3,1.04.54,1.55.32.49-.21.86-.82,1.37-.74.23.04.42.21.65.3.3.12.65.05.93-.12.6-.38.84-1.21.73-1.94-.11-.73.56-2.3.15-2.89-.35-.5-1.77-.05-2.25-.4-.53-.39-1.16-.59-1.78-.76-2.22-.62-4.51-.99-6.78-1.36-1.44-.23-2.88-.46-4.32-.7-.97-.16-1.97-.31-2.94-.09-.97.22-1.68,1.01-1.82,1.55Z"/>
              <path class="cls-19" d="M149.99,125.64c2.51-.97,5.33-1.11,7.93-.39,2.59.72,4.94,2.29,6.59,4.41.5.65.95,1.36,1.13,2.16.32,1.38-.26,2.92-1.38,3.79-1.12.87-2.72,1.05-4.03.5-.69-.29-1.44-.79-2.13-.49-.2.09-.36.23-.54.36-1.03.71-2.56.58-3.46-.29-.18-.17-.33-.37-.55-.5-.22-.13-.47-.18-.72-.19-.81-.04-1.61.22-2.41.31-.81.09-1.73-.04-2.24-.67-.29-.36-.48-.9-.93-.99-.23-.04-.47.05-.7.1-.68.16-1.43-.02-1.95-.47-.53-.45-.82-1.17-.76-1.86.07-.79.55-1.47,1.07-2.06.92-1.05,4.01-3.29,5.07-3.7Z"/>
              <path class="cls-25" d="M148.67,142.37c0-.2-.03-.39-.05-.59-.06-.57-.12-1.14-.17-1.71-.04-.45-.06-.89-.09-1.34,0-.04,0-.12,0-.15,0-.04,0-.08,0-.12,0-.04,0-.08-.01-.12-.09-.32-.56-.27-.6.06,0,1.07.09,2.14.21,3.2.03.29.07.58.14.87.01.04.02.09.03.13.01.07.05.13.11.17.08.06.19.07.28.03.22-.13.15-.27.16-.43Z"/>
              <path class="cls-25" d="M153.34,144.21s0,0,0,0c0,0,0-.01,0-.02,0-.02,0-.04,0-.06,0,0,0,0,0,0,.04-.37.02-.75,0-1.12-.03-.54-.06-1.07-.1-1.61-.03-.53-.04-.83-.05-1.18,0-.13,0-.26,0-.39,0-.08.02-.15-.01-.22-.1-.34-.61-.29-.65.06-.02,1.25.1,2.5.17,3.75.02.27.07.53.14.79,0-.02-.01-.04-.02-.06,0,.03.01.06.02.08,0,0,0,0,0,.01,0,0,0,0,0,0,.02.16.21.26.35.19.08-.04.14-.12.15-.21Z"/>
              <path class="cls-25" d="M158.82,140.18c-.1-.35-.61-.29-.65.06-.17.92-.27,1.86-.36,2.79-.04.4-.07.8-.1,1.2-.01.14-.03.4.29.46.34,0,.36-.25.37-.4.01-.17.03-.34.04-.5.06-.66.13-1.33.2-1.99.04-.34.09-.69.15-1.03.02-.12.04-.23.06-.35.01-.08.04-.17,0-.25Z"/>
              <path class="cls-25" d="M156.65,125.61c.06-.55.11-1.11.15-1.66.12-1.53.25-3.06.34-4.6.08-1.34.14-2.69.26-4.03.02-.23.04-.46.08-.68.04-.1.05-.21.04-.31,0-.12-.02-.23-.07-.34-.05-.11-.11-.2-.2-.27-.08-.09-.17-.15-.28-.19-.08-.02-.15-.04-.23-.06-.39-.04-.78.2-.92.56-.12.44-.15.9-.2,1.35-.06.68-.1,1.37-.15,2.05-.09,1.63-.19,3.25-.32,4.88-.07.95-.14,1.89-.24,2.84-.02.19-.04.38-.06.57-.02.21-.07.42.01.62.08.34.41.59.75.62.36.01.58-.08.81-.36.21-.29.17-.66.23-1Z"/>
              <g>
                <path class="cls-6" d="M158.64,109.25c-.06-.41-.15-.81-.17-1.22,0,0,0,0,0,0,0-.17,0-.33,0-.5,0-.13.02-.25,0-.38,0,.02,0,.05,0,.07,0-.15,0-.31-.04-.45-.03-.1-.07-.2-.14-.29-.25-.3-.74-.21-.85.17,0,0,0,.01,0,.02,0,0,0,0,0,.01-.04.1-.04.21,0,.31,0,0,0,0,0,.01,0,0-.02.02-.02.03,0,0-.02.02-.03.03-.03.03-.06.06-.08.09-.06.06-.11.13-.17.2-.01.01-.03.03-.04.05.01-.02.03-.03.05-.05-.09.1-.17.21-.26.31-.41.51-.85,1.03-1.07,1.66-.14.39-.24.8-.21,1.22.04.5.24,1.09.6,1.45.07.08.17.16.27.22.23.18.53.27.81.19.12-.03.24-.08.34-.14.21-.12.39-.27.54-.45.28-.34.43-.77.52-1.19.08-.45.02-.91-.04-1.36Z"/>
                <path class="cls-6" d="M158.48,107.15s0-.01,0-.02c0,0,0,.01,0,.02Z"/>
              </g>
            </g>
            <path class="cls-4" d="M150.71,127.78c-.7-.05-.8.97-.11,1.06.7.05.8-.97.11-1.06Z"/>
            <path class="cls-4" d="M149.05,132.27c-.7-.05-.8.97-.11,1.06.7.05.8-.97.11-1.06Z"/>
            <path class="cls-4" d="M158.51,127.53c-.7-.05-.8.97-.11,1.06.7.05.8-.97.11-1.06Z"/>
            <path class="cls-4" d="M155.33,131.7c-.7-.05-.8.97-.11,1.06.7.05.8-.97.11-1.06Z"/>
            <path class="cls-4" d="M162.04,131.86c-.7-.05-.8.97-.11,1.06.7.05.8-.97.11-1.06Z"/>
          </g>
          <g>
            <g>
              <path class="cls-25" d="M167.76,130.55c0,3.59.54,7.18,1.61,10.62.12.37.24.75.48,1.07.31.41.77.68,1.24.91,3.94,2.01,9.02,2.23,12.76-.06.24-.15.48-.31.64-.53.2-.28.27-.62.33-.96.56-3.11,1-6.25,1.29-9.39.04-.38.05-.82-.24-1.08-.14-.13-.32-.2-.51-.26-4.97-1.72-10.35-2.34-15.6-1.82-.42.04-.86.1-1.22.31-.36.21-.78.6-.79,1.19Z"/>
              <path class="cls-16" d="M167.19,129.28c-.18.95-.43,1.84-.24,2.78.12.6.46,1.3,1.04,1.28.3-.01.56-.23.86-.29.95-.2,1.53,1.16,2.45,1.48,1.32.46,2.72-1.36,4-.78.44.2.73.64,1.11.95.43.35.99.52,1.53.47.92-.09,1.77-.8,2.69-.67.54.08,1.01.43,1.49.71.48.28,1.08.47,1.57.22.47-.24.81-.87,1.33-.82.24.02.44.19.66.26.31.1.66.01.92-.18.57-.42.76-1.26.61-1.98-.15-.72.41-2.33-.03-2.9-.38-.48-1.77.06-2.27-.26-.55-.35-1.19-.51-1.83-.65-2.26-.48-4.56-.71-6.86-.94-1.45-.14-2.91-.29-4.36-.43-.98-.1-1.99-.19-2.94.09-.95.28-1.61,1.11-1.72,1.66Z"/>
              <path class="cls-23" d="M172.41,123.12c2.45-1.12,5.26-1.44,7.89-.88,2.63.56,5.08,1.98,6.86,4,.54.62,1.03,1.3,1.27,2.09.4,1.36-.08,2.93-1.14,3.87-1.07.94-2.65,1.22-3.99.74-.71-.25-1.48-.7-2.15-.35-.19.1-.35.25-.52.39-.99.78-2.53.74-3.48-.08-.19-.16-.36-.35-.58-.47-.22-.12-.48-.15-.73-.14-.81,0-1.59.31-2.39.45-.8.14-1.73.07-2.27-.54-.31-.35-.53-.87-.99-.93-.23-.03-.46.08-.69.15-.67.2-1.43.07-1.98-.35-.55-.42-.89-1.12-.87-1.81.02-.79.46-1.5.94-2.13.85-1.1,3.8-3.53,4.83-4.01Z"/>
              <path class="cls-19" d="M172.12,139.9c-.02-.2-.05-.39-.09-.58-.1-.56-.19-1.13-.28-1.7-.06-.44-.12-.89-.17-1.33,0-.04-.01-.11-.02-.15,0-.04,0-.08-.01-.12,0-.04,0-.08-.02-.12-.11-.31-.58-.24-.59.1.06,1.07.22,2.13.41,3.18.05.29.1.58.19.86.01.04.03.08.04.13.02.07.06.13.12.17.09.06.19.06.28.01.21-.14.14-.28.13-.44Z"/>
              <path class="cls-19" d="M176.9,141.45s0,0,0,0c0,0,0-.01,0-.02,0-.02,0-.04,0-.06,0,0,0,0,0,0,.02-.38-.03-.75-.08-1.12-.07-.53-.13-1.07-.2-1.6-.06-.52-.09-.82-.12-1.17,0-.13-.02-.26-.02-.39,0-.07,0-.15-.03-.22-.12-.34-.63-.26-.64.1.06,1.25.26,2.49.4,3.74.03.26.1.53.19.78,0-.02-.02-.04-.02-.06,0,.03.01.06.02.08,0,0,0,0,0,.01,0,0,0,0,0,0,.03.16.22.24.36.17.08-.04.13-.13.13-.22Z"/>
              <path class="cls-19" d="M182.12,137.09c-.12-.34-.63-.26-.64.1-.11.93-.16,1.87-.19,2.81-.02.4-.02.8-.03,1.2,0,.14,0,.41.32.45.34-.02.34-.27.34-.42,0-.17,0-.34,0-.51.02-.67.05-1.33.08-2,.02-.35.05-.69.08-1.03.01-.12.03-.24.04-.35,0-.08.03-.17-.01-.25Z"/>
              <path class="cls-19" d="M179.05,122.67c.02-.56.04-1.11.05-1.67.03-1.54.06-3.07.05-4.61,0-1.35-.02-2.69.02-4.04,0-.23.01-.46.04-.69.03-.1.04-.21.02-.31,0-.12-.03-.23-.09-.33-.05-.11-.12-.19-.22-.26-.08-.08-.18-.14-.3-.17-.08-.01-.16-.03-.23-.04-.39-.02-.77.25-.88.62-.1.45-.1.91-.11,1.36-.02.69-.02,1.37-.02,2.06.01,1.63.01,3.26-.02,4.89-.02.95-.03,1.9-.06,2.85,0,.19-.01.38-.02.57,0,.21-.05.43.05.62.1.34.45.57.79.58.36-.01.57-.12.78-.41.2-.3.13-.67.16-1.01Z"/>
              <g>
                <path class="cls-6" d="M180.04,106.21c-.08-.4-.2-.8-.24-1.21,0,0,0,0,0,0-.01-.16-.02-.33-.03-.5,0-.13,0-.25-.02-.38,0,.02,0,.05,0,.07-.02-.15-.02-.31-.07-.45-.03-.1-.08-.2-.15-.28-.27-.28-.75-.16-.84.22,0,0,0,.01,0,.02,0,0,0,0,0,.01-.03.1-.03.21.01.31,0,0,0,0,0,0,0,.01-.01.02-.02.03,0,0-.01.02-.02.03-.03.03-.06.06-.08.1-.05.07-.1.14-.16.21-.01.01-.02.03-.03.05.01-.02.03-.04.04-.05-.09.1-.16.22-.24.32-.38.54-.79,1.08-.97,1.72-.12.4-.19.82-.13,1.23.07.5.31,1.07.69,1.41.08.08.17.15.28.2.24.16.54.23.82.14.12-.04.23-.09.33-.17.2-.13.37-.3.51-.49.26-.35.38-.79.44-1.22.05-.45-.03-.91-.13-1.35Z"/>
                <path class="cls-6" d="M179.75,104.12s0-.01,0-.02c0,0,0,.01,0,.02Z"/>
              </g>
            </g>
            <path class="cls-4" d="M171.52,127.62c-.7-.09-.85.93-.16,1.05.7.09.85-.93.16-1.05Z"/>
            <path class="cls-4" d="M175.96,123.61c-.7-.09-.85.93-.16,1.05.7.09.85-.93.16-1.05Z"/>
            <path class="cls-4" d="M175.89,127.42c-.7-.09-.85.93-.16,1.05.7.09.85-.93.16-1.05Z"/>
            <path class="cls-4" d="M182.09,130.11c-.7-.09-.85.93-.16,1.05.7.09.85-.93.16-1.05Z"/>
            <path class="cls-4" d="M182.1,124.38c-.7-.09-.85.93-.16,1.05.7.09.85-.93.16-1.05Z"/>
            <path class="cls-4" d="M180.49,128.05c-.8-.1-.98,1.06-.19,1.21.8.1.98-1.06.19-1.21Z"/>
            <path class="cls-4" d="M185.59,127.69c-.7-.09-.85.93-.16,1.05.7.09.85-.93.16-1.05Z"/>
          </g>
          <g>
            <path class="cls-21" d="M90.19,114.45c-.88-7.47-8.13-12.62-13.68-14.09-1.79-.47-3.68-.51-5.52-.73-4.22-.5-8.56.88-11.56,3.93-1.71,1.74-2.69,4.76-4.97,5.7-2.98,1.23-5.92,2.55-9,3.49-1.51.46-3.22.54-4.64,1.25-3.79,1.9-1.61,7.46.59,9.73,2.71,2.8,6.52,4.35,10.02,5.9,6.24,2.77,13.07,3.92,19.87,4.08,4.36.1,8.08.19,10.65-1.72,1.69-1.26,3.22-3.1,3.22-3.1,0,0,1.22-1.47,2.18-3.2.89-1.6,3.42-6.17,2.82-11.24Z"/>
            <path class="cls-7" d="M38.8,118.28s0,0,0,0c0,0,0,0,0,0h0s0,0,0,0c0,0,0,0,0-.01,0,0,0,0,0,0,0,0,0,0,0,0,0,0,0,0,0,0,0,0,0,.01,0,.02,0,0,0,0,0,0,0,0,0,0,0,0,0,0,0,0,0,0,0,0,0,0,0,0,0,0,0,0,0,0,0,0,0,0,0-.01h0s0,0,0,0c0,0,0,0,0,0h0s0,0,0,0c0,0,0,0,0,0,0,0,0,0,0,0Z"/>
          </g>
          <g>
            <path d="M66.53,118.57c-1.52-.26-2.94-1.39-3.21-2.87-.03-.2-.05-.43.04-.62.07-.35.64-.29.64.06.83,1.44,2.63,2.66,4.41,2.13,1.07-.22,1.48-1.28,2.04-.83.72.67-1.28,1.51-1.74,1.79-.67.32-1.43.46-2.17.33Z"/>
            <path d="M41.27,124.3c-.65-.46-.98-1.24-1.35-1.92-.69-1.38-1.4-3.2-1.22-4.75.04-.32.33-.71.66-.43.17.18.19.47.26.7.37,1.48.55,3.04,1.26,4.41.26.51.55,1,.93,1.43.28.35-.18.82-.54.56Z"/>
            <path class="cls-24" d="M66.1,122.99c-3.16-.32-2.63-3.6.35-3.64,1.22-.1,2.81.43,3.1,1.75.28,2.04-2.01,2.08-3.45,1.89Z"/>
            <path d="M67.66,109.2c-.64-.06-1.45-.05-1.85-.63-.44-.63.08-1.46.8-1.51.73-.07,1.57-.24,2.24.17.35.21.39.6.45.96.15.93-.95,1.07-1.63,1.01Z"/>
            <path d="M39.47,118.1c-1.6.51-3.21-2.9-2.97-4.27.19-1.16,1.41-1.33,2.1-.43.34.4.57.89.78,1.38.32-.7.75-1.4,1.42-1.75.93-.52,1.91.2,1.83,1.31-.18,1.69-1.62,3.36-3.16,3.77Z"/>
          </g>
          <path class="cls-13" d="M91.59,122.57c-.03-.34-.06-.69-.09-1.03-.04-1.17-.11-2.33-.22-3.5-.19-2.4-.27-4.86-1.01-7.15-.33-1.05-.75-2.07-1.28-3.02-.25-.54-.59-1.07-1.05-1.57-1.13-1.38-4.17-4.7-4.64-1.66-.06.32-.13.65-.19.98-.45,1.32-1.01,2.59-1.53,3.88-.35.85-.74,1.68-1.11,2.52-.57.88-1.16,1.75-1.73,2.62-2.85,4.44-6.02,8.67-9.1,12.96-3.02,4.48-8.79,12.03.42,18.19,4.72,2.87,10.1,2.62,14.16,1.84,8.21-3,8.14-17.06,7.38-25.08Z"/>
          <path class="cls-3" d="M67.99,100.7c1.76-3.39,15.7-10.88,24.96-16.76,1.29-.82,3.16-1.63,4.84-.77,1.62.82,1.66,2.48,1.47,3.77-1.28,8.65-2.55,17.29-3.83,25.94-.2,1.35-.68,2.93-2.47,3.13-1.06.11-2.21-.33-3.26-.77-8.58-3.58-23.16-11.74-21.71-14.53Z"/>
          <path class="cls-6" d="M107.05,85.66c.17-.4-.03-.91-.45-1.09-1.97-.87-4.13-1.08-6.23-1.11.2-.12.29-.15.32-.16.22-.1.46-.19.7-.26.63-.15.6-.15,1.45-.3.11-.02.23-.03.34-.05.34-.04.71-.08,1.1-.11.14,0,.27-.02.41-.02.5-.05,1.2.1,1.48-.42.32-.46-.04-1.17-.6-1.25-.57-.04-1.13,0-1.7.07-.05,0-.09,0-.14.01-.31.03-.62.07-.93.11-.58.07-1.15.17-1.71.32.44-.31.91-.56,1.39-.81.47-.24.94-.47,1.42-.69.32-.16.67-.29.91-.55.43-.47.26-1.18-.34-1.46-.8-.3-1.69.06-2.41.37-.78.35-1.48.83-2.13,1.36.38-.75.46-.88,1.1-1.77.17-.22.39-.4.52-.66.07-.16.08-.35.03-.52-.09-.47-.67-.78-1.11-.61-.15.06-.27.15-.38.26-.15.13-.28.27-.42.41-.65.72-1.09,1.57-1.42,2.48-.23.51-.43,1.04-.58,1.58-.1.38-.24.82-.19,1.23-.07.52-.08,1.05.04,1.56.08.36.22.79.53,1.01.05.07.1.13.17.2.25.2.58.28.9.29.39.02.78.01,1.17.02,1.17.02,1.8.03,3.26.26.9.16,1.05.2,1.59.38.28.1.56.21.84.33.1.05.21.07.31.07.33.04.65-.18.77-.47Z"/>
          <path class="cls-28" d="M88.85,89.71c-.34-.71-1.25-.85-1.88-.48-.07.04-.14.09-.2.14-.63.34-1.04,1.13-.77,1.79.2.47.78.76,1.31.71.5-.04.93-.31,1.22-.65.35-.41.57-.97.32-1.5Z"/>
          <path class="cls-28" d="M95.8,100.15c-.16-.5-.74-.86-1.3-.82-.11,0-.21.03-.32.06-.11.02-.22.06-.32.12-.03.02-.05.03-.07.05-.6.36-.95,1.06-.67,1.71.08.19.23.34.4.46.31.26.76.38,1.25.23.78-.25,1.29-1.05,1.03-1.81Z"/>
          <path class="cls-28" d="M85.96,101.86c.04-.12.07-.24.08-.36.09-.23.04-.51-.18-.7-.19-.29-.51-.5-.97-.51-.99.02-1.69,1.11-1.31,1.95.25.56.99.83,1.57.61.45-.13.88-.58.82-.99Z"/>
          <path class="cls-28" d="M73.31,99.67c-.11-.23-.38-.36-.64-.36-.09-.07-.18-.12-.29-.16-.18-.23-.52-.37-.81-.28-.64.17-.93.8-.8,1.36-.08.72.51,1.43,1.46,1.27.55-.11,1-.5,1.14-.99.06-.26.09-.58-.06-.83Z"/>
          <path class="cls-28" d="M93.68,111.51c-.18-.47-.78-.75-1.27-.59-.21.06-.39.18-.52.34-.34.19-.58.56-.55.98.09.95,1.31,1.23,1.95.61.36-.34.58-.85.4-1.35Z"/>
          <path class="cls-28" d="M98.07,87.14c.06-.21.06-.44-.02-.65-.09-.25-.29-.44-.53-.54-.16-.34-.69-.52-1.03-.31-.37.22-.64.68-.71,1.15-.03.07-.06.14-.08.21-.29,1.02.82,1.71,1.74,1.1.34-.22.6-.56.62-.94Z"/>
          <g>
            <path d="M83,107.32c-.18-.51-.93-.56-1.17-.05-.99,3.22-2.52,7.38-4.45,10.78-1.27,2.23-2.42,3.92-4.08,6.02-1.24,1.51-3.02,3.28-4.2,4.33-1.65,1.43-3.5,2.55-5.14,3.31-.9.44-1.79.88-2.75,1.19-.2.06-.44.12-.53.33-.14.29.05.66.36.71.17.03.33-.05.49-.09.31-.09.61-.18.92-.28.83-.28,1.66-.6,2.42-1.04,2.85-1.58,4.58-3.24,6.64-5.34,1.85-1.85,3.58-3.81,5.11-5.94,1.24-1.68,2.36-3.46,3.26-5.35,1.11-2.32,2-4.73,2.79-7.17.09-.26.17-.53.25-.79,0,0,0-.02.02-.07.08-.18.12-.38.05-.57Z"/>
            <path d="M62.91,134.2c-.15-.22-.42-.3-.66-.24.12-.43-.32-.89-.78-.71-.2.05-.35.2-.5.34-.23.25-.43.52-.61.81-.39.59-.72,1.24-.83,1.94-.14.94.28,1.74.7,1.87.38.17.82.03,1.12-.23.67-.58,1.06-1.43,1.38-2.24.12-.34.09-.22.23-.78.05-.25.11-.53-.06-.75ZM61.61,135.4c-.16.61-.13.53-.38,1.16-.22.46-.16.39-.49.78,0,0-.01.01-.02.02-.02.02-.05.04-.07.05,0,0-.02,0-.02,0-.05-.12-.12-.33.02-.83.15-.43.35-.83.57-1.22.23-.4.2-.33.29-.48.09-.13.18-.25.28-.37-.01.07-.02.13-.03.2-.03.23-.09.45-.14.68Z"/>
            <path d="M62.85,132.96c-1.51-.69-3.34-.73-4.48-.25-.52.24-.86.43-1.25.89-.59.76-.5,1.63.21,2.04,1.05.58,2.61.04,3.61-.46.27-.14.55-.29.8-.45.22-.14.47-.29.51-.57,0-.02,0-.04,0-.06.09.04.19.08.29.07.68.05.91-.9.3-1.2ZM57.7,134.75s-.03-.02-.04-.02c-.02-.01-.03-.03-.05-.04,0,0-.01-.02-.02-.03-.09-.23,0-.34.11-.55.04-.05.09-.1.13-.14,0,0,.02-.01.03-.02.18-.11.09-.07.41-.19.07-.02.11-.04.1-.03.02,0,.04,0,.06-.01.29-.06.37-.05.42-.07.52-.07,1.42-.03,1.4-.02.25.02.49.05.74.09-.17.11-.35.22-.54.31-1.11.57-2.25.93-2.75.72Z"/>
          </g>
          <path class="cls-22" d="M192.65,126.04c6.15,1.17,8.48,7.75,7.28,11.64-.71,3-2.89,5.16-5.49,7.3-1.6,1.3-2.94,2.89-4.93,3.87-1.75.62-4.13-.51-4.26-2.01-.07-.57.16-1.16.67-1.55,1.18-.86,2.26-1.8,3.3-2.76,2.49-2.28,5.22-4.77,5.06-8.02-.1-1.56-.72-3.15-1.82-4.56-.65-.89-1.83-1.56-2.29-2.52-.5-1.12,1.25-1.6,2.46-1.39Z"/>
          <path class="cls-18" d="M198.5,157.98c0-.09.02-.19.02-.28-.03-.3-.07-.61-.12-.91,0,0,0,0,0-.01,0-.02,0-.03,0-.05,0,0,0,0,0,0-.04-.24-.07-.47-.11-.71-.07-.45-.15-.9-.25-1.35-.02-.08-.04-.17-.06-.25,0,0,0,0,0,0-.01-.05-.02-.1-.03-.15-.01-.06-.03-.12-.04-.18-.02-.1-.05-.2-.08-.3-.01-.06-.03-.11-.04-.17-.03-.12-.06-.23-.1-.34-.01-.04-.02-.08-.03-.12-.05-.16-.09-.32-.14-.47-.14-.44-.3-.88-.47-1.31-.01-.03-.03-.07-.04-.1,0,0,0,0,0-.01-.12-.26-.24-.52-.39-.77-.18-.3-.36-.6-.55-.89-.06-.1-.12-.19-.19-.29,0,0,0,0,0,0-.14-.21-.28-.43-.43-.64-.73.27-1.37,1.18-1.8,2.05-.06.11-.11.22-.17.33-.36.54-.66,1.12-.95,1.65-.68,1.24-1.37,2.47-2.12,3.68,0,0,0,0,0-.01.02-.03.04-.06.05-.09-2.59,4.49-6.38,8.08-9.56,12.13-.72,1.62-.3,3.58.35,5.43.04.19.08.38.12.56.54,2.64.86,5.32,1.13,8,.03.44-.02.94-.01,1.41-2.43.76-1.42,2.69,1.78,2.61.27-.02.55-.01.84,0,.17,0,.34.01.51.01.32,0,.64-.02.93-.11.69-.04,1.36-.19,1.72-.76.58-.65.95-1.73,1.35-2.39.81-1.58,1.6-3.17,2.34-4.78,2.76-6.15,5.79-12.44,6.44-19.22,0-.01.02-.03.03-.04,0-.05,0-.09.02-.14,0-.18.03-.36.09-.52-.01-.16-.03-.32-.04-.48Z"/>
          <path class="cls-5" d="M182.5,155.14c-1.87-.96-3.12-3.12-3.12-5.21.04-1.03.91-2.11,2.02-1.8,1.12.32,1.66,1.49,2.19,2.43.38-.99.99-1.91,1.93-2.43,1.22-.75,2.71-.12,2.65,1.4-.08,1.6-.83,3.12-1.72,4.43-.87,1.42-2.44,1.93-3.95,1.18ZM184.82,153.27s.03-.03.05-.05c-.02,0-.04.02-.05.03,0,0,0,.02,0,.02Z"/>
          <path class="cls-30" d="M180.84,174.17c-.2-.8-.56-1.56-.87-2.34-.03-.27-.66-1.09.06-1.06.13.03.22.13.19.22.32.76.72,1.5.91,2.28,0,.25.48.94.04,1.03-.13.02-.3-.03-.32-.13Z"/>
          <g>
            <path class="cls-8" d="M129.95,179.08s-.02,0-.02,0c0,0,.02,0,.02,0Z"/>
            <path class="cls-8" d="M129.97,179.08s0,0-.01,0c0,0,0,0,0,0,0,0,.01,0,.02,0Z"/>
            <path class="cls-6" d="M109.56,145.41c.38.01.78,0,1.18.02-2.5-2.25-5.65-3.06-9.99-2.03-6.91,1.54-12.32,6.7-16.23,12.37-2.81,4.01-5.17,8.37-8.61,11.9-4.47,4.84-11.38,7.77-17.54,4.22-9.63-5.96-10.26-18.41-14.73-27.79-1.07-2.12-2.65-4.18-5.02-4.88-4.41-1.36-9.22,1.11-11.5,4.95-1.13,1.78-1.82,3.79-2.3,5.83-.81,2.67-.77,7.34-4.45,7.51-.1-.02-.43-.05-.54-.12-.12-.05-.38-.25-.54-.22-.4.03-.46.52-.26.79,1.62,1.66,4.33.15,5.28-1.57,1.45-2.7,1.48-5.89,2.6-8.72.91-2.48,2.48-4.82,4.74-6.25,2.29-1.41,5.41-2.11,7.9-.74,4.61,2.72,6.08,13.68,8.27,18.77,2.62,7.91,8.42,15.38,16.42,15.38,1.85,0,3.81-.4,5.88-1.28,7.74-3.48,11.56-11.5,16.28-18.05,3.66-5.03,8.69-9.56,14.94-10.83,2.99-.67,5.29-.36,7.18.71.35,0,.71.01,1.03.02Z"/>
            <path class="cls-6" d="M184.16,180.41c.34-.45,1.69-.08,1.24.35-.81,1.1-2.79,1.37-4.78,1.39-1.86.06-3.72-.2-5.23-.82-3.27-1.09-5-3.18-8.38-4.17-5.19-1.52-10.18.77-14.57,2.08-4.5,1.42-9.29,2.9-14.64,2.89-3.26-.03-6.47-.64-9.3-1.55.5-.02.99-.05,1.48-.08.02,0,.04,0,.06,0,.01,0,.02,0,.03,0t0,0s0,0,0,0c0,0,0,0,0,0,0,0,0,0,0,0s0,0,0,0c0,0,0,0,0,0,0,0,0,0,0,0h0c.32-.02.64-.04.96-.06.46.11.93.22,1.4.31,3.14.71,6.65.78,9.89.25,4.97-.84,9.41-2.38,13.99-3.69,3.58-1.11,7.47-1.92,11.44-.77,3.36.94,5.1,2.95,8.22,4.08,1.36.59,3.07.84,4.77.76.87-.04,1.81-.07,2.56-.32.39-.16.66-.39.86-.63Z"/>
            <g>
              <path class="cls-25" d="M176.4,181.61c-.51,0-.96-.37-1.1-.85-.17-.59.05-1.24.33-1.75.36-.68.93-1.28,1.57-1.7.24-.16.49-.29.76-.4.12-.04.25-.08.37-.12.23-.06.46-.08.69-.07.51,0,.96.37,1.1.85.17.59-.05,1.24-.33,1.75-.36.68-.93,1.28-1.57,1.7-.24.16-.49.29-.76.4-.12.04-.25.08-.37.12-.18.05-.37.07-.56.07-.05,0-.09,0-.14,0Z"/>
              <path class="cls-25" d="M27.96,156.21c-1.45-.12-2.97-1.15-3.47-2.53-.34-1.54,1.76-1.65,2.74-1.16.99.36,1.77,1.11,2.17,2.06.48.93-.33,1.65-1.21,1.65-.08,0-.15,0-.23-.02Z"/>
              <path class="cls-25" d="M42.77,160.03s-.09-.02-.14-.04c-.53-.12-.91-.61-.94-1.14-.04-.65.34-1.27.74-1.74.54-.62,1.26-1.11,2.03-1.4.29-.11.58-.19.88-.23.14-.01.28-.02.41-.04.25,0,.5.02.74.09.53.12.91.61.94,1.14.04.65-.34,1.27-.74,1.74-.54.62-1.26,1.11-2.03,1.4-.29.11-.58.19-.88.23-.14.01-.28.02-.41.04-.03,0-.05,0-.08,0-.17,0-.35-.02-.52-.06Z"/>
              <path class="cls-25" d="M80.24,162.6c1.32-1.55,5.5.04,6.28,1.89.06.14.1.28.12.42.17,1.08-1.16,1.53-1.98,1.52-.1.02-.22.02-.33.02-1.85,0-5.15-1.94-4.08-3.87Z"/>
              <path class="cls-25" d="M70.21,173.28c-.68-.11-1.23-.65-1.63-1.18-.52-.7-.86-1.56-.98-2.42-.05-.32-.06-.64-.04-.97.02-.15.04-.29.06-.44.05-.26.14-.51.27-.74.25-.52.84-.8,1.4-.71.68.11,1.23.65,1.63,1.18.52.7.86,1.56.98,2.42.05.32.06.64.04.97-.02.15-.04.29-.06.44-.04.21-.11.41-.2.6-.02.05-.05.09-.07.14-.22.46-.7.72-1.18.72-.07,0-.14,0-.22-.02Z"/>
              <path class="cls-25" d="M164.09,174.76c.3-1.4,1.19-3.29,2.83-3.34.95.12,1.22,1.21,1.19,2.02.07,1.49-.67,3.19-2.07,3.82-.05.02-.09.04-.14.06-.2.07-.38.11-.54.11-1.18,0-1.53-1.72-1.27-2.67Z"/>
              <path class="cls-25" d="M87.27,153.84c-.77-.02-1.52-.45-2.09-.89-.75-.58-1.35-1.34-1.71-2.12-.14-.29-.23-.59-.29-.89-.02-.14-.03-.27-.05-.41-.01-.25.02-.48.1-.71.13-.51.71-.84,1.35-.82.77.02,1.52.45,2.09.89.75.58,1.35,1.34,1.71,2.12.14.29.23.59.29.89.02.14.03.27.05.41.01.2,0,.39-.06.58-.01.05-.03.09-.04.14-.11.42-.52.71-1.01.8-.09.01-.18.02-.27.02-.02,0-.04,0-.06,0Z"/>
              <path class="cls-25" d="M50.32,164.23s-.05-.03-.07-.05c-1.25-1.15.92-2.59,1.88-3.22,1.37-.79,3.09-1.22,4.39-.58,1.73.86.17,3.01-1.29,3.56-.67.36-2.02.63-3.18.63-.72,0-1.36-.1-1.73-.35Z"/>
              <path class="cls-25" d="M54.85,177.26c-.41-.64-.38-1.5-.23-2.21.2-.95.66-1.86,1.28-2.59.23-.28.49-.52.77-.74.13-.09.27-.18.4-.27.25-.15.52-.26.81-.33.62-.18,1.28.11,1.62.63.41.64.38,1.5.23,2.21-.2.95-.66,1.86-1.28,2.59-.23.28-.49.52-.77.74-.13.09-.27.18-.4.27-.2.12-.42.22-.64.28-.05.02-.11.03-.17.04-.13.04-.25.05-.38.05-.49,0-.97-.27-1.24-.69Z"/>
              <path class="cls-25" d="M134.27,179.16c-.02-1.64.8-3.57,2.4-4.22,3.36-.76,1.48,6.31-.56,7.17-.08.03-.15.06-.23.07-.16.05-.31.07-.45.07-1.34,0-1.62-2.02-1.16-3.1Z"/>
              <path class="cls-25" d="M150.28,177.69c2.05-.7,4.44,3.53,3.65,5.56-.18.46-.52.8-1.06.96-.06,0-.11,0-.17,0-2.48,0-4.7-5.14-2.42-6.53ZM150.07,178.65s-.04.07-.06.1c.02-.04.05-.07.07-.11,0,0,0,0-.01,0Z"/>
            </g>
          </g>
          <g>
            <g>
              <path class="cls-19" d="M98.64,131.73c-.5,3.47-.47,7.02.09,10.5.06.38.13.76.32,1.1.24.44.65.76,1.07,1.06,3.53,2.48,8.41,3.4,12.34,1.69.25-.11.5-.23.69-.42.24-.24.35-.57.45-.88.97-2.94,1.82-5.91,2.54-8.92.09-.36.16-.78-.08-1.08-.12-.14-.29-.23-.45-.32-4.56-2.34-9.68-3.69-14.82-3.9-.42-.02-.84-.02-1.23.13-.38.15-.84.47-.92,1.04Z"/>
              <path class="cls-16" d="M98.26,130.42c-.31.89-.67,1.72-.62,2.66.03.6.27,1.32.83,1.38.29.03.57-.14.87-.16.95-.06,1.32,1.33,2.16,1.76,1.21.63,2.82-.95,3.97-.2.39.25.61.72.94,1.07.37.4.88.64,1.41.66.9.04,1.82-.53,2.69-.28.52.15.92.56,1.34.89.43.33.97.61,1.49.43.49-.17.9-.73,1.4-.61.22.05.4.24.61.34.29.14.63.1.92-.05.61-.32.91-1.12.86-1.84-.05-.72.72-2.2.37-2.81-.3-.51-1.72-.18-2.16-.56-.49-.42-1.08-.66-1.68-.88-2.12-.78-4.31-1.31-6.5-1.85-1.38-.34-2.77-.68-4.15-1.01-.94-.23-1.9-.46-2.85-.32s-1.71.85-1.89,1.37Z"/>
              <path class="cls-6" d="M104.15,125.16c2.52-.75,5.28-.67,7.74.23,2.47.9,4.63,2.62,6.07,4.81.44.67.82,1.4.94,2.2.2,1.37-.48,2.83-1.64,3.59-1.16.76-2.73.82-3.96.17-.65-.34-1.34-.88-2.03-.64-.2.07-.37.2-.55.3-1.06.62-2.54.37-3.35-.55-.16-.18-.3-.39-.49-.53-.2-.14-.45-.21-.69-.24-.79-.11-1.58.09-2.37.11-.79.02-1.68-.17-2.12-.83-.26-.38-.39-.92-.83-1.04-.22-.06-.46.01-.69.05-.67.11-1.39-.13-1.86-.61-.48-.48-.7-1.2-.59-1.87.13-.76.65-1.39,1.2-1.93.98-.95,4.16-2.9,5.22-3.22Z"/>
              <path class="cls-4" d="M101.56,141.37c0-.19,0-.38,0-.58-.02-.56-.03-1.12-.03-1.68,0-.44,0-.87.02-1.31,0-.04,0-.11,0-.15,0-.04,0-.08,0-.12,0-.04,0-.08,0-.12-.06-.32-.53-.31-.58.01-.08,1.04-.08,2.09-.04,3.14.01.29.02.57.06.86,0,.04.01.09.02.13,0,.07.04.13.09.18.07.07.18.08.27.05.23-.11.17-.25.19-.41Z"/>
              <path class="cls-4" d="M105.97,143.53s0,0,0,0c0,0,0-.01,0-.02,0-.02,0-.04,0-.06,0,0,0,0,0,0,.07-.36.08-.73.08-1.1,0-.52.02-1.05.03-1.57.01-.51.02-.81.04-1.15,0-.13.02-.25.03-.38,0-.07.03-.15,0-.22-.07-.34-.57-.33-.63.01-.11,1.22-.09,2.45-.13,3.67,0,.26.02.52.08.78,0-.02,0-.04-.01-.06,0,.03,0,.06,0,.08,0,0,0,0,0,.01,0,0,0,0,0,0,.01.16.18.27.33.21.08-.03.15-.11.16-.2Z"/>
              <path class="cls-4" d="M111.61,140.02c-.07-.34-.57-.33-.63.01-.23.89-.41,1.79-.57,2.7-.07.39-.13.77-.19,1.16-.02.14-.07.39.24.48.33.02.37-.22.39-.36.03-.16.05-.33.08-.49.11-.64.23-1.28.35-1.92.07-.33.14-.66.22-.99.03-.11.06-.22.09-.34.02-.08.05-.16.02-.24Z"/>
              <path class="cls-25" d="M110.63,125.64c.1-.54.19-1.07.28-1.61.24-1.48.48-2.97.69-4.46.18-1.3.35-2.61.57-3.91.04-.22.07-.44.13-.66.04-.1.06-.2.06-.3.02-.11,0-.23-.04-.34-.04-.11-.09-.2-.18-.28-.07-.09-.16-.16-.26-.21-.07-.02-.15-.05-.22-.07-.37-.07-.78.13-.94.48-.16.42-.22.87-.3,1.31-.11.66-.21,1.33-.3,1.99-.21,1.58-.43,3.16-.69,4.73-.15.92-.29,1.84-.45,2.75-.03.18-.07.36-.1.55-.03.2-.11.41-.04.61.05.34.35.61.68.67.35.04.57-.04.81-.29.23-.26.22-.63.3-.95Z"/>
              <g>
                <path class="cls-6" d="M113.85,109.84c-.03-.4-.08-.8-.07-1.2,0,0,0,0,0,0,0-.16.02-.32.04-.48.01-.12.04-.25.03-.37,0,.02,0,.05,0,.07,0-.15.03-.3,0-.44-.02-.1-.05-.2-.11-.29-.22-.31-.7-.26-.84.1,0,0,0,.01,0,.02,0,0,0,0,0,.01-.04.1-.05.2-.03.3,0,0,0,0,0,0,0,0-.02.02-.03.03,0,0-.02.01-.03.02-.03.03-.06.05-.09.08-.06.06-.12.12-.18.19-.01.01-.03.03-.04.04.01-.01.03-.03.05-.05-.1.09-.18.19-.27.28-.44.47-.91.93-1.17,1.53-.17.37-.3.76-.3,1.17,0,.5.15,1.08.47,1.46.07.09.15.16.24.23.21.19.49.3.77.25.12-.02.23-.06.34-.12.21-.1.4-.24.56-.4.3-.31.48-.71.59-1.12.11-.43.09-.89.06-1.33Z"/>
                <path class="cls-6" d="M113.86,107.78s0-.01,0-.02c0,0,0,.01,0,.02Z"/>
              </g>
            </g>
            <path class="cls-4" d="M102.06,127.2c-.7-.05-.8.97-.1,1.06.7.05.8-.97.1-1.06Z"/>
            <path class="cls-4" d="M110,127.02c-.7-.05-.8.97-.1,1.06.7.05.8-.97.1-1.06Z"/>
            <path class="cls-4" d="M107.02,131.28c-.7-.05-.8.97-.1,1.06.7.05.8-.97.1-1.06Z"/>
            <path class="cls-4" d="M113.9,132.97c-.7-.05-.8.97-.1,1.06.7.05.8-.97.1-1.06Z"/>
            <path class="cls-4" d="M114.13,129.19c-.7-.05-.8.97-.1,1.06.7.05.8-.97.1-1.06Z"/>
          </g>
          <path class="cls-30" d="M80.61,176.46c-.04-.2-.3-.26-.44-.13-.24.23-.32.61-.47.9-.16.29-.41.54-.47.86-.04.23.25.37.42.28.32-.16.52-.58.67-.89.15-.31.36-.67.28-1.02Z"/>
          <g>
            <path class="cls-28" d="M112.46,157.15c0,.31-.17.52-.51.61v2.45c0,.17-.07.31-.22.43-.14.12-.32.18-.51.18s-.37-.06-.51-.18c-.14-.12-.22-.26-.22-.43l.03-2.38-2.35.09.03,2.9c0,.16-.07.31-.22.43-.14.12-.32.18-.51.18-.18,0-.34-.06-.49-.18-.14-.12-.23-.26-.24-.43v-2.88c-.29-.1-.45-.28-.49-.54-.04-.28.12-.48.46-.58l-.05-6.47c0-.16.07-.31.22-.43.14-.12.32-.18.51-.18s.37.06.51.17c.14.11.22.25.22.42l.05,6.4,2.35-.09.03-5.84c0-.16.07-.3.22-.42.14-.11.32-.17.51-.17s.37.06.51.18c.14.12.22.26.22.43l-.03,5.8c.29.08.45.25.49.54Z"/>
            <path class="cls-28" d="M122.52,158.25c.05.28.11.6.16.96.05.35.1.63.14.82.04.19.06.33.08.4.02.17-.04.31-.18.44-.14.13-.3.2-.5.21-.18.01-.35-.03-.5-.13-.15-.1-.25-.24-.28-.4-.05-.42-.18-1.15-.38-2.2-1.57.04-2.51.08-2.81.09-.09.33-.21.82-.37,1.48-.15.66-.27,1.15-.34,1.48-.02.15-.1.27-.24.36-.14.09-.3.13-.46.13-.07,0-.12,0-.14-.02-.2-.02-.36-.09-.47-.24-.12-.14-.16-.3-.12-.46.02,0,.24-.92.68-2.76-.22-.1-.33-.24-.35-.4-.04-.16,0-.31.11-.45.11-.13.26-.22.46-.25,0-.01.02-.02.05-.02.05-.16.13-.43.22-.79.09-.36.15-.62.19-.79.47-1.87.84-3.24,1.11-4.11.27-.87.46-1.39.58-1.55.12-.16.27-.28.47-.34.23-.07.45-.05.65.07.14.08.26.19.35.34.09.15.25.62.47,1.42.23.79.49,1.96.8,3.51.07.3.22,1.02.43,2.16.18.04.32.13.41.27.09.13.12.28.08.43-.05.13-.15.25-.3.36ZM118.55,157.22c.74-.04,1.51-.07,2.3-.07-.02-.12-.05-.29-.09-.51-.05-.22-.09-.42-.12-.6-.04-.18-.07-.35-.11-.52-.14-.78-.37-1.84-.68-3.19-.31,1.06-.74,2.69-1.3,4.88Z"/>
            <path class="cls-28" d="M133.26,153.31c.11,1.26-.32,2.29-1.3,3.1-.88.72-1.98,1.15-3.3,1.3v2.11c0,.17-.07.31-.2.43-.14.12-.3.18-.5.18s-.37-.06-.51-.18c-.14-.12-.22-.26-.22-.43v-2.11c-.36-.1-.52-.31-.49-.61.04-.27.2-.44.49-.52v-5.57c0-.16.07-.31.22-.43.14-.12.32-.18.51-.18.36,0,.59.14.68.43.74-.39,1.47-.52,2.19-.4.68.1,1.24.41,1.68.92.43.51.68,1.16.76,1.96ZM130.93,155.55c.65-.54.94-1.26.87-2.16-.09-1.08-.5-1.68-1.24-1.8-.34-.06-.69,0-1.03.18-.34.18-.63.44-.87.79v3.91c.94-.13,1.69-.44,2.27-.92Z"/>
            <path class="cls-28" d="M143.53,153.31c.11,1.26-.32,2.29-1.3,3.1-.88.72-1.98,1.15-3.3,1.3v2.11c0,.17-.07.31-.2.43-.14.12-.3.18-.5.18s-.37-.06-.51-.18c-.14-.12-.22-.26-.22-.43v-2.11c-.36-.1-.52-.31-.49-.61.04-.27.2-.44.49-.52v-5.57c0-.16.07-.31.22-.43.14-.12.32-.18.51-.18.36,0,.59.14.68.43.74-.39,1.47-.52,2.19-.4.68.1,1.24.41,1.68.92.43.51.68,1.16.76,1.96ZM141.21,155.55c.65-.54.94-1.26.87-2.16-.09-1.08-.5-1.68-1.24-1.8-.34-.06-.69,0-1.03.18-.34.18-.63.44-.87.79v3.91c.94-.13,1.69-.44,2.27-.92Z"/>
            <path class="cls-28" d="M152.94,149.35c.18.04.32.14.42.28.1.14.12.3.07.46-.38,1.05-1.39,3.6-3.03,7.64l-.11,2.63c0,.17-.07.3-.22.42-.14.11-.32.17-.51.17h-.03c-.18,0-.34-.06-.49-.18-.14-.12-.22-.26-.22-.43l.11-2.36s-.03-.04-.03-.07c-.85-2.61-1.48-5-1.89-7.19-.02-.16.03-.31.15-.45.12-.13.27-.22.47-.25.2-.03.38,0,.54.11.16.11.25.24.27.4.22,1.05.64,2.74,1.27,5.08,1.1-2.73,1.87-4.68,2.33-5.87.05-.15.17-.27.34-.35.17-.08.36-.1.55-.06Z"/>
          </g>
          <g>
            <path class="cls-28" d="M102.07,170.23c.88.4,1.22,1.02,1.03,1.87-.18.86-.83,1.48-1.97,1.85-.54.16-1.14.24-1.78.24-.4,0-.74-.03-1.01-.08h-.07c-.14,0-.29-.05-.43-.14-.22-.08-.38-.15-.46-.22-.14-.09-.22-.21-.24-.36-.02-.15.03-.27.14-.38.1-.09.21-.15.34-.18v-8.46c0-.15.06-.27.19-.37.13-.1.28-.15.46-.15.16,0,.3.05.43.16.13.11.19.23.19.36v.46c.88-.77,1.73-1.14,2.54-1.1.16,0,.32.03.48.08.16.05.34.15.53.28.19.13.35.35.48.65.13.3.19.66.19,1.09,0,.69-.17,1.42-.52,2.18-.34.76-.76,1.42-1.26,1.96.26.07.5.15.72.24ZM101.85,171.92c.05-.28,0-.49-.17-.62-.32-.28-.9-.4-1.75-.36-.02,0-.03,0-.05,0-.02,0-.03,0-.05,0-.35.03-.6-.08-.74-.32-.11-.23-.06-.43.14-.6.1-.08.25-.13.46-.16.37-.16.82-.67,1.36-1.53.54-.86.8-1.7.78-2.52,0-.68-.15-1.02-.46-1.04-.38-.03-.87.21-1.45.71-.58.5-.92,1.03-1.02,1.59v6.02c.67.05,1.26,0,1.78-.18.69-.2,1.08-.54,1.18-1.02Z"/>
            <path class="cls-28" d="M108.43,164.2l.05,9.71c0,.15-.06.27-.19.38-.13.11-.28.16-.46.16s-.33-.05-.46-.15c-.13-.1-.19-.22-.19-.37l-.05-9.73c0-.15.06-.27.19-.38.13-.11.28-.16.46-.16s.32.05.44.16c.12.11.19.23.2.38Z"/>
            <path class="cls-28" d="M115.05,170.72c.85.4,1.62.87,2.3,1.41.69.54,1.03.97,1.03,1.31,0,.15-.06.27-.19.38-.13.11-.28.16-.46.16-.16,0-.3-.04-.42-.13-.12-.09-.19-.2-.2-.33-.11-.19-.46-.49-1.04-.91-.58-.42-1.2-.77-1.84-1.05,0,.9-.02,1.72-.05,2.43-.02.15-.08.27-.2.37-.12.1-.27.15-.44.15h-.02c-.18,0-.32-.05-.44-.16-.12-.11-.18-.23-.18-.38.08-1.87.08-3.66,0-5.35-.08-1.69-.22-2.67-.43-2.93-.1-.12-.12-.25-.08-.4.04-.15.13-.26.28-.34.14-.08.3-.11.48-.08.18.03.31.1.41.22.19.23.34.69.43,1.38.42-.51.88-.89,1.39-1.16.74-.4,1.42-.47,2.04-.2.62.27.95.83.98,1.7.05.85-.27,1.61-.95,2.28-.68.67-1.48,1.21-2.39,1.63ZM116.03,166.22c-.51.27-.95.7-1.32,1.31-.37.61-.53,1.25-.48,1.92,0,.05,0,.09-.02.12v.32c.72-.28,1.39-.69,2-1.23.62-.54.92-1.14.9-1.81-.02-.44-.12-.7-.31-.8-.18-.07-.43-.01-.77.16Z"/>
            <path class="cls-28" d="M126.26,164.14c.18-.01.33.03.46.13.13.1.2.22.22.37.02.15-.04.27-.16.38-.12.11-.27.17-.44.18l-1.49.08v7.88c0,.15-.06.27-.18.38-.12.11-.27.16-.44.16s-.33-.05-.46-.16c-.13-.11-.19-.23-.19-.38v-7.82l-1.56.06h-.02c-.18,0-.32-.05-.44-.15-.12-.1-.19-.22-.2-.35-.02-.15.04-.27.16-.38.12-.11.27-.17.44-.18l4.32-.2Z"/>
            <path class="cls-28" d="M135.5,171.02c0,.28-.15.46-.46.54v2.17c0,.15-.06.27-.19.38-.13.11-.28.16-.46.16s-.33-.05-.46-.16c-.13-.11-.19-.23-.19-.38l.02-2.11-2.09.08.02,2.57c0,.15-.06.27-.19.38-.13.11-.28.16-.46.16-.16,0-.3-.05-.43-.16-.13-.11-.2-.23-.22-.38v-2.55c-.26-.09-.4-.25-.43-.48-.03-.25.1-.43.41-.52l-.05-5.74c0-.15.06-.27.19-.38.13-.11.28-.16.46-.16s.33.05.46.15c.13.1.19.22.19.37l.05,5.68,2.09-.08.02-5.19c0-.15.06-.27.19-.37.13-.1.28-.15.46-.15s.33.05.46.16c.13.11.19.23.19.38l-.02,5.15c.26.07.4.23.43.48Z"/>
            <path class="cls-28" d="M142.91,164.78c.69.11,1.26.49,1.72,1.14.46.65.65,1.58.59,2.79-.06.98-.29,1.89-.68,2.71-.39.82-.87,1.48-1.43,1.95-.56.48-1.13.85-1.72,1.12-.58.27-1.12.4-1.6.4h-.07c-.18,0-.33-.06-.46-.17-.13-.11-.18-.24-.17-.39,0-.27.17-.43.5-.5v-8.92c0-.15.06-.27.19-.38.13-.11.28-.16.46-.16s.33.05.46.16c.13.11.19.23.19.38v.42c.62-.49,1.3-.68,2.02-.56ZM143.92,168.67c.05-.85-.05-1.52-.3-2.01-.25-.49-.56-.76-.92-.82-.3-.04-.63.07-.97.32-.34.25-.62.65-.83,1.18v6.18c.75-.36,1.43-.95,2.03-1.78.6-.82.93-1.85,1-3.07Z"/>
            <path class="cls-28" d="M153.86,172c.05.25.1.54.14.85.05.31.09.56.12.73.03.17.06.29.07.36.02.15-.04.28-.16.39-.12.11-.27.18-.44.19-.16.01-.31-.03-.44-.12-.14-.09-.22-.21-.25-.36-.05-.37-.16-1.02-.34-1.95-1.39.04-2.22.07-2.5.08-.08.29-.19.73-.32,1.32-.14.59-.24,1.02-.3,1.32-.02.13-.09.24-.22.32-.13.08-.26.12-.41.12-.06,0-.1,0-.12-.02-.18-.01-.32-.08-.42-.21-.1-.13-.14-.26-.11-.41.02,0,.22-.82.6-2.45-.19-.09-.3-.21-.31-.36-.03-.15,0-.28.1-.4.1-.12.23-.19.41-.22,0-.01.02-.02.05-.02.05-.15.11-.38.19-.7.08-.32.14-.55.17-.7.42-1.66.74-2.88.98-3.65.24-.77.41-1.23.52-1.38.1-.15.24-.25.42-.3.21-.07.4-.05.58.06.13.07.23.17.31.3.08.13.22.55.42,1.26.2.71.44,1.74.71,3.11.06.27.19.9.38,1.91.16.04.28.12.36.24.08.12.1.25.07.38-.05.12-.14.23-.26.32ZM150.33,171.08c.66-.04,1.34-.06,2.04-.06-.02-.11-.04-.26-.08-.45-.04-.19-.08-.37-.11-.53-.03-.16-.06-.31-.1-.46-.13-.69-.33-1.64-.6-2.83-.27.94-.66,2.39-1.15,4.33Z"/>
            <path class="cls-28" d="M162.07,164.1c.16.04.28.12.37.25.09.13.11.26.06.41-.34.93-1.23,3.19-2.69,6.78l-.1,2.33c0,.15-.06.27-.19.37-.13.1-.28.15-.46.15h-.02c-.16,0-.3-.05-.43-.16-.13-.11-.19-.23-.19-.38l.1-2.09s-.02-.03-.02-.06c-.75-2.31-1.31-4.44-1.68-6.38-.02-.15.03-.28.13-.4.1-.12.24-.19.42-.22.18-.03.34,0,.48.1.14.09.22.21.24.36.19.93.57,2.43,1.13,4.51.98-2.42,1.66-4.16,2.06-5.21.05-.13.15-.24.3-.31.15-.07.32-.09.49-.05Z"/>
          </g>
        </g>
      </g>
    </g>
  </g>
</svg>