<?xml version="1.0" encoding="UTF-8"?>
<svg xmlns="http://www.w3.org/2000/svg" version="1.1" xmlns:xlink="http://www.w3.org/1999/xlink" viewBox="0 0 194.45 171.08">
  <defs>
    <style>
      .cls-1 {
        fill: #ffef7d;
      }

      .cls-1, .cls-2, .cls-3, .cls-4, .cls-5, .cls-6, .cls-7, .cls-8, .cls-9, .cls-10, .cls-11, .cls-12, .cls-13, .cls-14 {
        fill-rule: evenodd;
      }

      .cls-2 {
        fill: url(#linear-gradient-10);
      }

      .cls-3 {
        fill: url(#linear-gradient-11);
        filter: url(#drop-shadow-2);
      }

      .cls-4 {
        fill: #ffc533;
      }

      .cls-5 {
        fill: url(#linear-gradient-3);
      }

      .cls-15 {
        filter: url(#drop-shadow-1);
      }

      .cls-6 {
        fill: url(#linear-gradient-5);
      }

      .cls-7 {
        fill: url(#linear-gradient-2);
      }

      .cls-8 {
        fill: url(#linear-gradient-9);
      }

      .cls-9 {
        fill: url(#linear-gradient-12);
      }

      .cls-10 {
        fill: url(#linear-gradient-6);
      }

      .cls-11 {
        fill: url(#linear-gradient-4);
      }

      .cls-16 {
        filter: url(#drop-shadow-3);
      }

      .cls-12 {
        fill: url(#linear-gradient-7);
      }

      .cls-13 {
        fill: url(#linear-gradient-8);
      }

      .cls-14 {
        fill: url(#linear-gradient);
      }
    </style>
    <filter id="drop-shadow-1" x="-14.55" y="85.16" width="234" height="100" filterUnits="userSpaceOnUse">
      <feOffset dx="5.06" dy="10.11"/>
      <feGaussianBlur result="blur" stdDeviation="7.02"/>
      <feFlood flood-color="#282828" flood-opacity=".57"/>
      <feComposite in2="blur" operator="in"/>
      <feComposite in="SourceGraphic"/>
    </filter>
    <linearGradient id="linear-gradient" x1="21.24" y1="171.97" x2="21.24" y2="77.34" gradientTransform="translate(-48.51 42.56) rotate(-42.05)" gradientUnits="userSpaceOnUse">
      <stop offset="0" stop-color="#cfdc2a"/>
      <stop offset="1" stop-color="#1ea6c4"/>
    </linearGradient>
    <linearGradient id="linear-gradient-2" x1="2.21" y1="120.12" x2="95.63" y2="120.12" gradientUnits="userSpaceOnUse">
      <stop offset="0" stop-color="#0f8d82"/>
      <stop offset="1" stop-color="#5e2f81"/>
    </linearGradient>
    <linearGradient id="linear-gradient-3" x1="172.69" y1="308.59" x2="172.69" y2="213.96" gradientTransform="translate(446.92 42.56) rotate(-137.95) scale(1 -1)" xlink:href="#linear-gradient-2"/>
    <linearGradient id="linear-gradient-4" x1="98.82" y1="120.12" x2="192.24" y2="120.12" gradientTransform="matrix(1,0,0,1,0,0)" xlink:href="#linear-gradient"/>
    <linearGradient id="linear-gradient-5" x1="96.1" y1="122.13" x2="96.1" y2="6.46" gradientTransform="translate(-1.52 2.57) rotate(-2.4)" xlink:href="#linear-gradient"/>
    <linearGradient id="linear-gradient-6" x1="75.06" y1="62.66" x2="97.47" y2="62.66" gradientTransform="matrix(1,0,0,1,0,0)" xlink:href="#linear-gradient"/>
    <linearGradient id="linear-gradient-7" x1="97.22" y1="87.51" x2="148.05" y2="87.51" gradientTransform="matrix(1,0,0,1,0,0)" xlink:href="#linear-gradient"/>
    <linearGradient id="linear-gradient-8" x1="71.81" y1="139.42" x2="71.81" y2="35.61" gradientTransform="matrix(1,0,0,1,0,0)" xlink:href="#linear-gradient"/>
    <linearGradient id="linear-gradient-9" x1="47.25" y1="87.25" x2="96.96" y2="87.25" xlink:href="#linear-gradient-2"/>
    <linearGradient id="linear-gradient-10" x1="103.34" y1="87.51" x2="148.18" y2="87.51" xlink:href="#linear-gradient-2"/>
    <linearGradient id="linear-gradient-11" x1="97.22" y1="149.83" x2="97.22" y2="66.11" xlink:href="#linear-gradient-2"/>
    <filter id="drop-shadow-2" x="26.85" y="17.56" width="152" height="191" filterUnits="userSpaceOnUse">
      <feOffset dx="5.06" dy="4.92"/>
      <feGaussianBlur result="blur-2" stdDeviation="17.55"/>
      <feFlood flood-color="#070707" flood-opacity=".79"/>
      <feComposite in2="blur-2" operator="in"/>
      <feComposite in="SourceGraphic"/>
    </filter>
    <linearGradient id="linear-gradient-12" x1="74.8" y1="107.97" x2="97.21" y2="107.97" gradientTransform="matrix(1,0,0,1,0,0)" xlink:href="#linear-gradient"/>
    <filter id="drop-shadow-3" x="80.77" y="19.48" width="43" height="68" filterUnits="userSpaceOnUse">
      <feOffset dx="5.06" dy="4.92"/>
      <feGaussianBlur result="blur-3" stdDeviation="4.92"/>
      <feFlood flood-color="#070707" flood-opacity=".79"/>
      <feComposite in2="blur-3" operator="in"/>
      <feComposite in="SourceGraphic"/>
    </filter>
  </defs>
  <!-- Generator: Adobe Illustrator 28.7.1, SVG Export Plug-In . SVG Version: 1.2.0 Build 142)  -->
  <g>
    <g id="Layer_1">
      <g>
        <g class="cls-15">
          <g>
            <path class="cls-14" d="M2.23,100.95c30.7-1.72,69.85-21.58,93.84,42.79C40.06,171.63,23.5,126.37,2.23,100.95h0Z"/>
            <path class="cls-7" d="M95.63,143.48c-23.91-63.79-62.82-44.33-93.42-42.5l93.42,42.5Z"/>
          </g>
          <g>
            <path class="cls-5" d="M192.22,100.95c-30.7-1.72-69.85-21.58-93.83,42.79,56.01,27.89,72.56-17.37,93.83-42.79h0Z"/>
            <path class="cls-11" d="M98.82,143.48c23.91-63.79,62.82-44.33,93.42-42.5l-93.42,42.5Z"/>
          </g>
        </g>
        <path class="cls-6" d="M97.21,4.91c-12.62,32.12-43.05,66.64.47,115.74,43.12-49.56,12.41-83.76-.47-115.74h0Z"/>
        <path class="cls-10" d="M97.47,5.54c-.09-.21-.18-.43-.26-.64-12.6,32.07-42.94,66.53.26,115.5V5.54Z"/>
        <path class="cls-12" d="M147.16,35.61c-23.8,22.29-64.48,37.61-44.66,103.81,57.89-22.29,43.73-68.6,44.66-103.81h0Z"/>
        <path class="cls-13" d="M47.28,35.61c23.8,22.29,64.48,37.61,44.66,103.81-57.89-22.29-43.73-68.6-44.66-103.81h0Z"/>
        <path class="cls-8" d="M91.77,138.89c19.53-65.72-20.73-81.15-44.52-103.28l44.52,103.28Z"/>
        <path class="cls-2" d="M103.34,139.38c57.23-22.74,43.11-68.61,43.72-103.73l-43.72,103.73Z"/>
        <path class="cls-3" d="M97.22,66.11c12.75,23.18,43.32,48.03,0,83.72-43.32-35.68-12.75-60.53,0-83.72h0Z"/>
        <path class="cls-9" d="M97.21,149.83v-83.72c-12.75,23.18-43.32,48.03,0,83.72Z"/>
        <g class="cls-16">
          <path class="cls-1" d="M97.22,29.35c-12.31,18.31-2.65,33.47,0,37.02,2.65-3.56,12.31-18.71,0-37.02Z"/>
          <path class="cls-4" d="M97.22,29.35v37.02c2.65-3.56,12.31-18.71,0-37.02Z"/>
        </g>
      </g>
    </g>
  </g>
</svg>