<?xml version="1.0" encoding="UTF-8"?>
<svg xmlns="http://www.w3.org/2000/svg" version="1.1" xmlns:xlink="http://www.w3.org/1999/xlink" viewBox="0 0 162.6 170.32">
  <defs>
    <style>
      .cls-1 {
        fill: #f7d3bd;
      }

      .cls-2 {
        fill: #bbd946;
      }

      .cls-3 {
        fill: #9ca8fc;
      }

      .cls-4 {
        fill: #f7c4a5;
      }

      .cls-5 {
        fill: none;
      }

      .cls-6 {
        fill: #abb5fc;
      }

      .cls-7 {
        opacity: .4;
      }

      .cls-7, .cls-8, .cls-9 {
        mix-blend-mode: multiply;
      }

      .cls-10 {
        isolation: isolate;
      }

      .cls-11 {
        fill: #666;
      }

      .cls-8 {
        opacity: .35;
      }

      .cls-12 {
        fill: #b3b3b3;
      }

      .cls-13 {
        fill: #ffeade;
      }

      .cls-14 {
        fill: #949494;
      }

      .cls-9 {
        opacity: .32;
      }

      .cls-15 {
        clip-path: url(#clippath);
      }

      .cls-16 {
        fill: #f7b892;
      }
    </style>
    <clipPath id="clippath">
      <rect class="cls-5" x="-38.05" y="-30.32" width="234.57" height="234.57"/>
    </clipPath>
  </defs>
  <!-- Generator: Adobe Illustrator 28.7.1, SVG Export Plug-In . SVG Version: 1.2.0 Build 142)  -->
  <g class="cls-10">
    <g id="Layer_1">
      <g class="cls-15">
        <g>
          <path class="cls-14" d="M42.88,71.09h-3.06v-.8c0-11.01-8.95-19.96-19.96-19.96h-4.58v-3.06h4.58c12.69,0,23.02,10.32,23.02,23.02v.8Z"/>
          <rect class="cls-14" x="66.16" y="152.61" width="49.8" height="3.06"/>
          <rect class="cls-14" x="59.41" y="125.69" width="61.19" height="3.06" transform="translate(-60.05 85.16) rotate(-39.06)"/>
          <rect class="cls-14" x="90.4" y="96.62" width="3.06" height="61.19" transform="translate(-64.78 118.44) rotate(-50.94)"/>
          <path class="cls-6" d="M145.71,67.76v13.97c0,.81-.03,1.6-.09,2.39-1.22,16.79-15.23,30.02-32.33,30.02h-44.11c-17.1,0-31.1-13.24-32.33-30.02-.06-.79-.09-1.59-.09-2.39v-13.97h108.94Z"/>
          <path class="cls-3" d="M145.19,67.85l-33.43-.08v.08l-16.08-.07-3.62-.02h-.36s-.16,0-.16,0v-.07s.1-1.54.1-1.54l1.03-15.84h-.03s2.51-35.91,2.51-35.91c.38-5.5,4.98-9.53,10.2-9.53.04,0,.07,0,.11,0,.83,0,1.68.12,2.53.34,5.16,1.36,8.23,6.35,7.53,11.32-.06.43-.15.86-.27,1.29h0c-.07.27-.16.53-.25.8.5-.83,1.09-1.56,1.77-2.19,1.92-1.8,4.45-2.77,7.02-2.77,2.09,0,4.21.64,6.05,2,4.14,3.05,5.24,8.51,3.1,12.81-.32.64-.71,1.25-1.17,1.83.61-.43,1.25-.78,1.92-1.05,1.26-.52,2.59-.78,3.92-.78,3.37,0,6.7,1.65,8.67,4.78,2.76,4.39,1.76,9.93-1.88,13.14-.61.54-1.29,1.01-2.04,1.4.81-.24,1.63-.37,2.44-.4,4.91-.2,9.5,3.19,10.47,8.34,1.19,6.32-3.66,12.16-10.09,12.14Z"/>
          <g>
            <g>
              <g>
                <rect class="cls-12" x="42.52" y="153.69" width="27.33" height="1.08"/>
                <rect class="cls-12" x="55.65" y="140.57" width="1.08" height="27.33"/>
                <rect class="cls-12" x="42.52" y="153.69" width="27.33" height="1.08" transform="translate(-92.6 84.9) rotate(-45)"/>
                <rect class="cls-12" x="55.65" y="140.57" width="1.08" height="27.33" transform="translate(-92.6 84.9) rotate(-45)"/>
                <rect class="cls-12" x="42.52" y="153.69" width="27.33" height="1.08" transform="translate(-55.44 33.88) rotate(-22.83)"/>
                <rect class="cls-12" x="55.65" y="140.57" width="1.08" height="27.33" transform="translate(-55.45 33.89) rotate(-22.83)"/>
                <rect class="cls-12" x="42.52" y="153.69" width="27.32" height="1.08" transform="translate(-107.85 148.08) rotate(-67.84)"/>
                <rect class="cls-12" x="55.65" y="140.57" width="1.08" height="27.32" transform="translate(-107.85 148.07) rotate(-67.83)"/>
              </g>
              <path class="cls-14" d="M56.19,139.4c-8.19,0-14.83,6.64-14.83,14.83s6.64,14.83,14.83,14.83,14.83-6.64,14.83-14.83-6.64-14.83-14.83-14.83ZM56.19,163.85c-5.31,0-9.62-4.31-9.62-9.62s4.31-9.62,9.62-9.62,9.62,4.31,9.62,9.62-4.31,9.62-9.62,9.62Z"/>
              <path class="cls-11" d="M56.19,150.73c-1.94,0-3.51,1.57-3.51,3.51s1.57,3.51,3.51,3.51,3.51-1.57,3.51-3.51-1.57-3.51-3.51-3.51ZM56.19,156.5c-1.26,0-2.27-1.02-2.27-2.27s1.02-2.27,2.27-2.27,2.27,1.02,2.27,2.27-1.02,2.27-2.27,2.27Z"/>
              <path class="cls-11" d="M56.19,141.56c-7,0-12.67,5.67-12.67,12.67s5.67,12.67,12.67,12.67,12.67-5.67,12.67-12.67-5.67-12.67-12.67-12.67ZM56.19,163.85c-5.31,0-9.62-4.31-9.62-9.62s4.31-9.62,9.62-9.62,9.62,4.31,9.62,9.62-4.31,9.62-9.62,9.62Z"/>
            </g>
            <g>
              <g>
                <rect class="cls-12" x="112.81" y="153.69" width="27.33" height="1.08"/>
                <rect class="cls-12" x="125.94" y="140.57" width="1.08" height="27.33"/>
                <rect class="cls-12" x="112.81" y="153.69" width="27.33" height="1.08" transform="translate(-72.01 134.6) rotate(-45)"/>
                <rect class="cls-12" x="125.94" y="140.57" width="1.08" height="27.33" transform="translate(-72.01 134.6) rotate(-45)"/>
                <rect class="cls-12" x="112.81" y="153.69" width="27.33" height="1.08" transform="translate(-49.93 61.15) rotate(-22.83)"/>
                <rect class="cls-12" x="125.94" y="140.57" width="1.08" height="27.33" transform="translate(-49.94 61.17) rotate(-22.83)"/>
                <rect class="cls-12" x="112.81" y="153.69" width="27.32" height="1.08" transform="translate(-64.07 213.17) rotate(-67.84)"/>
                <rect class="cls-12" x="125.94" y="140.57" width="1.08" height="27.32" transform="translate(-64.08 213.17) rotate(-67.83)"/>
              </g>
              <path class="cls-14" d="M126.48,139.4c-8.19,0-14.83,6.64-14.83,14.83s6.64,14.83,14.83,14.83,14.83-6.64,14.83-14.83-6.64-14.83-14.83-14.83ZM126.48,163.85c-5.31,0-9.62-4.31-9.62-9.62s4.31-9.62,9.62-9.62,9.62,4.31,9.62,9.62-4.31,9.62-9.62,9.62Z"/>
              <path class="cls-11" d="M126.48,150.73c-1.94,0-3.51,1.57-3.51,3.51s1.57,3.51,3.51,3.51,3.51-1.57,3.51-3.51-1.57-3.51-3.51-3.51ZM126.48,156.5c-1.26,0-2.27-1.02-2.27-2.27s1.02-2.27,2.27-2.27,2.27,1.02,2.27,2.27-1.02,2.27-2.27,2.27Z"/>
              <path class="cls-11" d="M126.48,141.56c-7,0-12.67,5.67-12.67,12.67s5.67,12.67,12.67,12.67,12.67-5.67,12.67-12.67-5.67-12.67-12.67-12.67ZM126.48,163.85c-5.31,0-9.62-4.31-9.62-9.62s4.31-9.62,9.62-9.62,9.62,4.31,9.62,9.62-4.31,9.62-9.62,9.62Z"/>
            </g>
          </g>
          <path class="cls-1" d="M145.71,77.29v4.44c0,.81-.03,1.6-.09,2.39H36.86c-.06-.79-.09-1.59-.09-2.39v-4.44h108.94Z"/>
          <g class="cls-9">
            <path class="cls-6" d="M127.68,102.28h-44.11c-17.9,0-32.41-14.51-32.41-32.41v-2.1h-14.38v13.97c0,17.9,14.51,32.41,32.41,32.41h44.11c11.23,0,21.13-5.71,26.94-14.39-3.86,1.63-8.11,2.52-12.56,2.52Z"/>
          </g>
          <g class="cls-9">
            <path class="cls-6" d="M92.26,78.52s-1.86,6.46-3.83,12.03c-1.04,2.94-2.1,5.63-2.95,7,0,0-8.35-.35-9.71-4.37,0,0,2.7-2.46,5.77-5.39,4.05-3.88,8.76-8.58,8.73-9.53-.02-.61.24-.74.58-.66.28.06.61.27.88.47h0c.3.23.52.44.52.44Z"/>
          </g>
          <g class="cls-9">
            <path class="cls-6" d="M101.43,97.44c-2.76,3.44-9.3,3.43-9.3,3.43-.53-1.47-.79-4.26-.9-7.41-.25-6.98.25-15.73.25-15.73,0,0,1.44-.67,2.35-.75h.1s.01,0,.01,0c0,0,0,0,.01,0,.4-.01.67.11.6.5-.02.14-.09.32-.21.54-.78,1.41,2.42,9.14,4.77,14.42,1.28,2.87,2.31,5.02,2.31,5.02Z"/>
          </g>
          <path class="cls-13" d="M92,80s-1.57,5.47-3.24,10.2c-.88,2.49-1.78,4.77-2.5,5.93,0,0-7.08-.3-8.23-3.71,0,0,2.29-2.08,4.89-4.57,3.44-3.29,7.42-7.27,7.4-8.08-.02-.51.21-.62.49-.56.24.05.52.23.75.4h0c.25.19.44.37.44.37Z"/>
          <g class="cls-8">
            <path class="cls-13" d="M92,80s-1.57,5.47-3.24,10.2c-2.08.15-4.72-.9-5.84-2.34,3.44-3.29,7.42-7.27,7.4-8.08-.02-.51.21-.62.49-.56l.75.4h0c.25.19.44.37.44.37Z"/>
          </g>
          <path class="cls-13" d="M99.77,96.04c-2.34,2.92-7.88,2.91-7.88,2.91-.45-1.24-.67-3.61-.76-6.29-.21-5.92.21-13.34.21-13.34,0,0,1.22-.57,2-.64h.08s0,0,0,0c0,0,0,0,.01,0,.34-.01.56.1.51.43-.02.12-.07.27-.18.46-.66,1.19,2.05,7.75,4.05,12.22,1.09,2.44,1.96,4.26,1.96,4.26Z"/>
          <g class="cls-8">
            <path class="cls-13" d="M97.81,91.78c-2.96,1.71-5.32,1.37-6.69.88-.21-5.92.21-13.34.21-13.34,0,0,1.22-.57,2-.64h.08s0,0,0,0h0s0,0,0,0c.02.01.21.17.51.43-.02.12-.07.27-.18.46-.66,1.19,2.05,7.75,4.05,12.22Z"/>
          </g>
          <g class="cls-9">
            <path class="cls-6" d="M109.17,84.12h-14.05c-.83-.73-1.58-1.56-2.2-2.5-.15.06-.33.1-.5.1-.28,0-.54-.1-.76-.25t0,0s-.06-.05-.09-.07c0,0,0,0,0,0-.02-.01-.04-.03-.05-.05-.24.23-.56.37-.92.36-.11,0-.22-.02-.33-.05h0s-.08-.02-.12-.04t0,0s-.04-.01-.05-.02c-.66.96-1.46,1.8-2.34,2.52h-14.1c.35-.85.84-1.72,1.32-2.56.08-.14.16-.28.24-.42.26-.45.5-.89.7-1.31.1-.21.2-.42.28-.62.06-.15.1-.3.12-.47.01-.08.02-.17.02-.26h0c.01-.37-.05-.77-.14-1.2-.35-1.58-1.16-3.43-.48-5.01h0c.24-.57.68-1.1,1.4-1.57.23-.15.5-.3.79-.44,3.6-1.69,9.27,3.65,12.03,6.61.2-.13.44-.21.7-.21h.02s.1,0,.14,0c0,0,.02,0,.03,0,.04,0,.08.01.12.02,0,0,.01,0,.02,0,.04.01.08.02.12.04,0,0,0,0,0,0,.04.02.09.04.13.06.13.06.25.15.35.25.03-.03.05-.05.08-.07.1-.08.21-.15.33-.19.07-.03.15-.05.22-.07.05-.01.1-.02.16-.03.04,0,.09,0,.13,0,.05,0,.1,0,.15.01.01,0,.02,0,.03,0,.04,0,.08.01.11.02,0,0,.02,0,.03,0,.04.01.08.02.12.04,0,0,.01,0,.02,0,.09.04.18.08.26.13,1.22-1.25,2.99-2.94,4.9-4.32,1.28-.92,2.62-1.7,3.9-2.1,1.22-.38,2.37-.43,3.36.06.23.12.44.23.63.36,0,0,0,0,.01,0,.08.05.17.11.24.17.02.01.04.03.06.04.07.05.14.11.21.16.02.02.04.04.06.06.06.05.12.1.17.15,0,0,.02.01.03.02.15.14.27.29.38.44.15.21.27.43.36.65.6,1.49-.1,3.2-.5,4.7-.14.52-.24,1.01-.24,1.46v.04c0,.06,0,.12,0,.18h0s0,.06,0,.08c.02.16.05.32.11.47.26.7.69,1.49,1.14,2.32,0,.02.02.04.03.05.4.73.8,1.48,1.12,2.23Z"/>
          </g>
          <path class="cls-16" d="M91.54,78.75s-.02.06-.03.08c-.88,2.27-2.65,4.01-4.76,5.29h-13.71c.33-.93.98-1.92,1.6-2.85.09-.14.18-.27.27-.4.25-.39.49-.76.69-1.11.11-.19.2-.37.28-.55.06-.13.1-.27.12-.41.01-.07.02-.15.02-.22h0c.01-.4-.08-.83-.21-1.29h14.23c.93.86,1.5,1.46,1.5,1.47Z"/>
          <path class="cls-16" d="M109.8,84.12h-13.72c-2.04-1.32-3.73-3.09-4.53-5.37,0,0,.6-.6,1.56-1.47h14.28c-.18.54-.32,1.06-.32,1.52v.03s0,.09,0,.14c0,0,0,.02,0,.03,0,.01,0,.02,0,.04.02.15.05.29.11.43.26.61.7,1.31,1.17,2.04,0,.01.02.03.02.04.53.84,1.08,1.72,1.42,2.56Z"/>
          <g>
            <g>
              <path class="cls-13" d="M91.53,78.75s-.02.06-.03.08c-1.75,5.22-7.5,7.62-11.58,8.11-2.21.27-3.92-.01-4.26-.7-.67-1.38.39-3.27,1.36-4.98.42-.74.82-1.44,1.06-2.06.08-.2.11-.41.12-.63.05-1.54-1.29-3.68-.54-5.44h0c.28-.66.86-1.26,1.92-1.76,4.3-2.02,11.94,7.38,11.94,7.38Z"/>
              <path class="cls-13" d="M91.5,78.84c-1.75,5.22-7.5,7.62-11.58,8.11.93-1.55,1.32-3.3,1.42-5,.03-.49.03-.98.01-1.46-.05-1.37-.26-2.64-.49-3.68-.34-1.51-.72-2.5-.72-2.5l7.62,1.77,3.64,2.67.12.09Z"/>
              <path class="cls-4" d="M91.53,78.75s-14.49-.51-13.86-5.62h0c.28-.66.86-1.26,1.92-1.76,4.3-2.02,11.94,7.38,11.94,7.38Z"/>
              <path class="cls-4" d="M77.02,81.27c.42-.74.82-1.44,1.06-2.06.08-.2.11-.41.12-.63.6.95,2.53,1.89,4.44,2.25,3.15.6-2.87,2.03-5.62.44Z"/>
            </g>
            <g>
              <path class="cls-13" d="M107.24,86.56c-.28.55-1.46.82-3.07.74-4.07-.21-10.87-2.69-12.64-8.54,0,0,7.83-9.24,12.08-7.14.1.05.19.1.28.15.39.22.71.45.96.7.31.3.52.62.65.96.72,1.77-.67,3.88-.65,5.43,0,.22.03.44.11.63.23.62.62,1.33,1.02,2.08.94,1.73,1.96,3.64,1.26,5.01Z"/>
              <g class="cls-8">
                <path class="cls-13" d="M107.24,86.56c-.28.55-1.46.82-3.07.74-.42-2.52-2.93-5.92-2.93-5.92.67-.71,1.11-6.75,1.11-6.75l1.54-2.86c.39.22.71.45.96.7.31.3.52.62.65.96.72,1.77-.67,3.88-.65,5.43,0,.22.03.44.11.63.23.62.62,1.33,1.02,2.08.94,1.73,1.96,3.64,1.26,5.01Z"/>
              </g>
              <path class="cls-4" d="M91.53,78.75s14.5-.21,13.97-5.34h0c-.27-.67-.84-1.28-1.89-1.8-4.25-2.1-12.08,7.14-12.08,7.14Z"/>
              <path class="cls-4" d="M105.98,81.56c-.4-.75-.79-1.46-1.02-2.08-.07-.2-.1-.41-.11-.63-.62.94-2.56,1.83-4.48,2.16-3.16.53,2.83,2.09,5.61.56Z"/>
            </g>
            <g>
              <path class="cls-4" d="M92.3,81.41h0c-.63,0-1.14-.52-1.13-1.16l.02-2.12c0-.63.52-1.14,1.16-1.13h0c.63,0,1.14.52,1.13,1.16l-.02,2.12c0,.63-.52,1.14-1.16,1.13Z"/>
              <g class="cls-7">
                <path class="cls-2" d="M91.63,80.37l.02-2.12c0-.63.52-1.14,1.16-1.13.02,0,.03,0,.05,0-.15-.08-.33-.13-.52-.13-.63,0-1.15.5-1.16,1.13l-.02,2.12c0,.62.48,1.12,1.09,1.16-.37-.19-.62-.58-.62-1.03Z"/>
              </g>
              <path class="cls-1" d="M90.7,81.39h0c-.63,0-1.14-.52-1.13-1.16l.02-2.12c0-.63.52-1.14,1.16-1.13h0c.63,0,1.14.52,1.13,1.16l-.02,2.12c0,.63-.52,1.14-1.16,1.13Z"/>
              <g class="cls-8">
                <path class="cls-13" d="M89.99,80.35l.02-2.12c0-.63.52-1.14,1.16-1.13.02,0,.05,0,.07,0-.15-.07-.32-.12-.49-.12-.63,0-1.15.5-1.16,1.13l-.02,2.12c0,.61.46,1.11,1.06,1.15-.38-.19-.65-.58-.64-1.04Z"/>
              </g>
            </g>
          </g>
          <g class="cls-9">
            <path class="cls-6" d="M115.52,16.52c-.06.43-.15.86-.27,1.29h0s-23.65,49.95-23.65,49.95c.32-.76,22.91-54.09,13.86-62.9.83,0,1.68.12,2.53.34,5.16,1.36,8.23,6.35,7.53,11.32Z"/>
          </g>
          <g class="cls-9">
            <path class="cls-6" d="M133.19,29.15c-.22.38-.46.74-.73,1.1h0s-40.86,37.52-40.86,37.52c.57-.58,41.72-41.63,36.6-53.18.77.32,1.51.74,2.22,1.26,4.28,3.19,5.27,8.96,2.77,13.31Z"/>
          </g>
          <g class="cls-9">
            <path class="cls-6" d="M144,46.77c-.34.27-.71.51-1.09.73h0s-51.48,20.26-51.48,20.26c.75-.32,53.85-23.74,53.57-36.36.59.59,1.12,1.26,1.56,2.02,2.73,4.59,1.42,10.29-2.56,13.35Z"/>
          </g>
          <g class="cls-9">
            <path class="cls-6" d="M148.24,67.46c-.42.13-.84.23-1.28.3h0s-55.54-.18-55.54-.18c.82-.03,58.99-2.23,63.18-14.15.34.76.6,1.57.75,2.44.93,5.25-2.3,10.13-7.1,11.59Z"/>
          </g>
          <rect class="cls-3" x="2.97" y="44.57" width="16" height="7.73" rx="1.8" ry="1.8"/>
        </g>
      </g>
    </g>
  </g>
</svg>