<?xml version="1.0" encoding="UTF-8"?>
<svg id="Layer_1" xmlns="http://www.w3.org/2000/svg" viewBox="0 0 1936.18 1405.94">
  <defs>
    <style>
      .cls-1 {
        fill: #197d8e;
      }
    </style>
  </defs>
  <g id="Create_With_Personalisation_background">
    <path class="cls-1" d="M1932.84,1217.6c-67.3,7.65-140.05,14.35-198.88-16.92-18.56-9.87-35.75-23.51-56.87-26.68-21.12-3.18-47.19,11.17-43.85,30.77,1.14,6.67,7.32,26.23,12.48,30.82,6.67,5.93,24.69,48.19-44,45.71-67.03-2.42-80.98,75.28-133.32,59.79-111.7-33.06-227.3-22.68-337.41,23.08-96.74,40.21-216.31,54.9-319.36,28.46-15.81-4.05-25.8-18.06-24.69-33.23.45-6.2-1.21-12.68-5.22-17.56-10.31-12.55-28.56-16.51-45.4-18.74-117.09-15.49-236.3,11.7-354.25,3.45-11.16-.78-24.32-3.19-28.73-12.73-11.45-24.8-4.2-58.32-26.72-56.05-128.51,12.97-56.7-46.8-80.03-50.01-42.94-5.9-45.61,11.33-110.81,11.11-65.2-.22-95.49-7.34-135.77-54.9V0h1936.18l-3.34,1217.6Z"/>
  </g>
</svg>