<?xml version="1.0" encoding="UTF-8"?>
<svg xmlns="http://www.w3.org/2000/svg" version="1.1" viewBox="0 0 1927.15 1177.01">
  <defs>
    <style>
      .cls-1 {
        fill: #d88473;
      }
    </style>
  </defs>
  <!-- Generator: Adobe Illustrator 28.7.1, SVG Export Plug-In . SVG Version: 1.2.0 Build 142)  -->
  <g>
    <g id="Layer_1">
      <g id="Create_With_Personalisation_background">
        <path class="cls-1" d="M1923.83,1007.07c-66.99,6.32-139.39,11.87-197.95-13.99-18.48-8.16-35.59-19.44-56.6-22.07-21.02-2.63-46.97,9.24-43.64,25.45,1.13,5.52,7.28,21.69,12.42,25.49,6.64,4.91,24.58,39.86-43.79,37.81-66.72-2-80.6,62.26-132.7,49.45-111.18-27.35-226.24-18.76-335.84,19.09-96.29,33.26-215.3,45.41-317.87,23.54-15.73-3.35-25.68-14.93-24.58-27.49.45-5.13-1.21-10.49-5.2-14.52-10.26-10.38-28.43-13.65-45.19-15.5-116.55-12.82-235.2,9.68-352.59,2.85-11.11-.65-24.21-2.64-28.59-10.53-11.4-20.51-4.18-48.24-26.59-46.36-127.91,10.72-56.44-38.71-79.66-41.36-42.74-4.88-45.4,9.37-110.3,9.19-64.9-.18-95.04-6.07-135.14-45.41V0h1927.15l-3.32,1007.07Z"/>
      </g>
    </g>
  </g>
</svg>