<?xml version="1.0" encoding="UTF-8"?>
<svg xmlns="http://www.w3.org/2000/svg" version="1.1" xmlns:xlink="http://www.w3.org/1999/xlink" viewBox="0 0 236.94 258.04">
  <defs>
    <style>
      .cls-1 {
        fill: url(#linear-gradient-2);
      }

      .cls-2 {
        fill: #fefcfd;
      }

      .cls-3 {
        fill: url(#radial-gradient-9);
      }

      .cls-4 {
        fill: url(#linear-gradient-4);
      }

      .cls-5 {
        fill: url(#radial-gradient-5);
      }

      .cls-6 {
        fill: url(#radial-gradient);
      }

      .cls-7 {
        fill: url(#radial-gradient-3);
      }

      .cls-8 {
        fill: url(#linear-gradient-3);
      }

      .cls-9 {
        fill: url(#linear-gradient-5);
      }

      .cls-10 {
        fill: url(#radial-gradient-8);
      }

      .cls-11 {
        fill: url(#radial-gradient-2);
      }

      .cls-12 {
        fill: url(#radial-gradient-4);
      }

      .cls-13 {
        fill: url(#linear-gradient-7);
      }

      .cls-14 {
        fill: url(#linear-gradient-6);
      }

      .cls-15 {
        fill: url(#radial-gradient-6);
      }

      .cls-16 {
        fill: url(#radial-gradient-7);
      }

      .cls-17 {
        fill: url(#linear-gradient);
      }
    </style>
    <radialGradient id="radial-gradient" cx="81.61" cy="178.45" fx="81.61" fy="178.45" r="18.25" gradientUnits="userSpaceOnUse">
      <stop offset=".39" stop-color="#ee6e0f"/>
      <stop offset=".57" stop-color="#ed6b11"/>
      <stop offset=".69" stop-color="#ec621a"/>
      <stop offset=".79" stop-color="#eb5329"/>
      <stop offset=".88" stop-color="#e83e3e"/>
      <stop offset=".96" stop-color="#e52259"/>
      <stop offset="1" stop-color="#e41369"/>
    </radialGradient>
    <linearGradient id="linear-gradient" x1="29.8" y1="133.15" x2="91.63" y2="133.15" gradientUnits="userSpaceOnUse">
      <stop offset="0" stop-color="#0f8d82"/>
      <stop offset="1" stop-color="#5e2f81"/>
    </linearGradient>
    <linearGradient id="linear-gradient-2" x1="61.8" y1="102.11" x2="82.35" y2="102.11" gradientUnits="userSpaceOnUse">
      <stop offset=".25" stop-color="#cfdc2a"/>
      <stop offset="1" stop-color="#1ea6c4"/>
    </linearGradient>
    <radialGradient id="radial-gradient-2" cx="102.07" cy="104.04" fx="102.07" fy="104.04" r="5.48" xlink:href="#radial-gradient"/>
    <linearGradient id="linear-gradient-3" x1="59.48" y1="71.91" x2="110.07" y2="71.91" xlink:href="#linear-gradient"/>
    <radialGradient id="radial-gradient-3" cx="126.01" cy="56.1" fx="126.01" fy="56.1" r="6.16" xlink:href="#radial-gradient"/>
    <radialGradient id="radial-gradient-4" cx="130.59" cy="158.59" fx="130.59" fy="158.59" r="5.7" gradientUnits="userSpaceOnUse">
      <stop offset="0" stop-color="#0f8d82"/>
      <stop offset="1" stop-color="#5e2f81"/>
    </radialGradient>
    <radialGradient id="radial-gradient-5" cx="120.86" cy="158.84" fx="120.86" fy="158.84" r="20.21" gradientUnits="userSpaceOnUse">
      <stop offset=".25" stop-color="#cfdc2a"/>
      <stop offset="1" stop-color="#1ea6c4"/>
    </radialGradient>
    <radialGradient id="radial-gradient-6" cx="124.66" cy="71.81" fx="124.66" fy="71.81" r="10.07" xlink:href="#radial-gradient-5"/>
    <radialGradient id="radial-gradient-7" cx="148.34" cy="128.77" fx="148.34" fy="128.77" r="5.19" xlink:href="#radial-gradient"/>
    <radialGradient id="radial-gradient-8" cx="151.21" cy="103.62" fx="151.21" fy="103.62" r="9.38" xlink:href="#radial-gradient-4"/>
    <linearGradient id="linear-gradient-4" x1="145.96" y1="87.44" x2="152.51" y2="87.44" xlink:href="#linear-gradient-2"/>
    <linearGradient id="linear-gradient-5" x1="139.25" y1="71.06" x2="187.86" y2="71.06" xlink:href="#linear-gradient"/>
    <linearGradient id="linear-gradient-6" x1="168.97" y1="103.27" x2="179.31" y2="103.27" xlink:href="#linear-gradient-2"/>
    <radialGradient id="radial-gradient-9" cx="165.24" cy="173.95" fx="165.24" fy="173.95" r="14.21" xlink:href="#radial-gradient"/>
    <linearGradient id="linear-gradient-7" x1="155.26" y1="138.8" x2="206.69" y2="138.8" xlink:href="#linear-gradient"/>
  </defs>
  <!-- Generator: Adobe Illustrator 28.7.1, SVG Export Plug-In . SVG Version: 1.2.0 Build 142)  -->
  <g>
    <g id="Layer_1">
      <g>
        <circle class="cls-2" cx="118.47" cy="125.13" r="106.62"/>
        <g>
          <path d="M206,133.5c-3.93-5.01-11.23-5.13-15.82-1.18-1.77-3.89-5.48-6.78-9.69-7.34.6-16.4.77-32.81.49-49.21.42,0,.85,0,1.27,0,4.58-.02,7.48-.74,7.76-6.14.09-1.83-.6-3.85-2.72-3.64-7.12.69-14.23,1.34-21.35,2.03-8.93.87-17.93.14-26.88.77.09,0-.36-3.45-.53-3.75-.71-1.25-.55-.99-1.99-1.21-.43-.07-4.95.57-4.94.08.1-4.27.41-8.67,0-12.89-.23-2.5-1.71-5.44-4.64-5.25-2.67.17-4.04,2.89-4.82,5.11-1.5,4.2-1.91,8.68-1.48,13.1.03.32-10.47-.06-10.99,1.54-.31.94.87,2.06.28,2.85-17.15-1.2-34.25-1.83-51.44-1.06-.44.02-.95.4-.9.9.31,2.92-.4,6.66,2.36,7.75.9,14.16,1.19,28.35.87,42.53-1.73-2.72-4.95-4.45-8.5-4.07-6.91.74-10.41,7.21-10.41,13.55-7.57-3.06-15.86,4.16-13.61,12.36,1.09,3.99,4.45,6.9,8.41,7.89,4.6,1.15,8.56-1.06,12.95-2.02,4.88-1.08,8.82-.98,13.52.74,4.47,1.63,8.76,4.04,13.54,4.69,1.73.23,3.88.36,5.73-.16.01,2.5.02,5,.04,7.51-5.12.42-7.06,7.81-7.82,12-.03,0-.05,0-.08,0-2.96.29-5.91.77-8.77,1.6-1.82.53-4.07,1.32-4.91,3.2-1.67,3.72,3.84,5.84,7.17,6.73-3.05,4.31-4.06,9.47-2.94,14.63.08.39.49.65.87.66,5.91.1,9.58-4.4,12.57-8.91,1.67,2.46,3.62,4.69,5.94,6.58,1.5,1.22,3.98,3.62,6.13,2.71,1.48-.63,1.85-2.46,1.89-3.9.11-3.48-.93-7.16-.59-10.55,4.63.35,11.77-3.74,10.09-9.15-1.61-5.17-9.19-4.07-13.57-3.79-.18-3.84.03-10.52-4.17-11.66v-.03c-.01-2.81-.03-5.61-.04-8.42.44-.29.84-.65,1.18-1.09.97-1.25,1.15-2.77.61-4.06,5.35-.47,8.97-6.2,6.91-11.52-1.6-4.13-5-6.22-8.81-6.73-.08-16.8-.17-33.6-.25-50.39,5.32,0,10.64-.14,15.96-.39-.11,0,2.54,18.16.81,19.36-2.64,1.83-4.77,3.03-5.5,6.57-.79,3.86.81,8.54,5.12,9.16,6.81.97,11.29-7.24,7.48-12.66-1.19-1.69-3.86-2.44-4.69-3.95-1.06-1.93-.34-7-.51-9.27-.24-3.1-.53-6.19-.9-9.27,2.8-.15,5.61-.32,8.42-.53-.57.04.13,2.82,1.3,3,.81.12,11.57,1.51,11.68.9-.01.06-.02.11-.02.18-.01,17.81-.28,35.62-.79,53.43-4.92,1.33-9.46,4.98-12.34,8.87-4.78,6.46-6.76,15.61-5.95,23.54.77,7.56,4.79,14.03,11.86,17.15,7.94,3.5,16.79,1.7,24.06-2.54.42-.24.5-.66.39-1.01.02-.46-.27-.92-.86-.88-10.39.73-21.41-5.68-24.02-16.2-2.18-8.78,5.74-23.16,15.6-23.54-.27,4.11-.4,8.23-.37,12.36-1.61.43-2.38,2.57-2.74,4.15-1.63.15-4.07.41-4.83,1.92-.74,1.48.74,2.45,2.11,2.96-.84,1.5-1.06,3.23-.7,4.94.08.39.49.65.87.66,1.98.03,3.32-1.22,4.4-2.69.49.62,1.03,1.2,1.64,1.71.71.58,1.72,1.48,2.71,1.1.79-.3,1.07-1.14,1.09-1.93.02-1.02-.09-2.07-.19-3.11,1.81-.45,4.18-1.65,3.45-3.94-.62-1.95-2.93-1.87-4.72-1.76-.07-1.39-.19-3.1-1.33-3.79.02-.07.03-.15.03-.23-.02-3.96-.25-8.27.43-12.16-.17,1,3.01.33,3.35.29.59-.07,1.25-.27,1.53-.8,1.74-3.23-13.62-6.7-13.66-5.44.51-17.68.77-35.37.78-53.05,0-.07,0-.13-.02-.19.07.45,13.91-.45,14.15-2.34.07-.5.12-1,.16-1.5,1.67,0,3.35-.01,5.02-.02.58,7.78,1.1,15.55,1.54,23.33-.94.15-1.87.35-2.79.61-1.12.32-2.41.82-2.94,1.95-1.04,2.17,1.62,3.5,3.67,4.14-1.51,2.37-1.98,5.16-1.38,7.93.08.39.49.65.87.66,1.34.02,2.49-.36,3.49-.99-.1,2.78-.1,5.55-.02,8.33-2.58.54-4.71,2.44-5.25,5.3-.73,3.89,2.17,7.58,5.9,8.47,9.33,2.22,10.99-13.78,1.92-13.87-.26-.03-.52-.06-.78-.07-.1-3.26-.07-6.51.09-9.77.57-.62,1.08-1.3,1.57-2.01.86,1.18,1.83,2.27,2.97,3.2.97.79,2.4,2.12,3.77,1.6,1.01-.38,1.31-1.57,1.34-2.54.05-1.75-.17-3.55-.34-5.32.05,0,.1,0,.16-.02,2.58-.59,6.45-2.23,5.35-5.64-.95-2.93-4.8-2.55-7.43-2.38-.08-2.03-.12-4.8-1.73-5.96.09-.13.15-.29.17-.48.17-2.86-.85-5.61-1.08-8.45-.21-2.68-.11-5.38,0-8.07,4.86-.02,9.72-.04,14.59-.05.35,20.12-.08,40.21-.86,60.32-1.68-1.86-6.39-.1-8.24.57-3.13,1.13-6.16,2.79-5.32,6.7.55,2.57,2.42,4.98,4.58,6.4.62.41,8.06,3.28,8.1,2.64-.13,2.01-.26,4.02-.4,6.03-3.71.68-5.21,6.16-5.83,9.39-2.32.23-4.62.61-6.87,1.26-1.5.43-3.27,1.09-3.98,2.6-1.39,2.98,2.77,4.74,5.51,5.51-2.32,3.39-3.06,7.43-2.2,11.46.08.39.49.65.87.66,4.63.08,7.54-3.35,9.91-6.88,1.29,1.86,2.77,3.55,4.53,4.99,1.26,1.02,3.22,2.91,5.01,2.18,1.26-.51,1.59-2.04,1.63-3.26.08-2.65-.29-5.39-.52-8.06.16.07.34.09.55.04,3.45-.77,9.08-3.06,7.35-7.74-1.45-3.93-7.08-3.18-10.59-2.94-.14-3.18-.05-8.35-3.57-9.16.14-1.98.28-3.96.4-5.94,3.69.2,7.43-.06,10.41-.14,4.54-.14,9.07-.53,13.56-1.16,3.95-.55,8.62-.87,12.2-2.8,5.45-2.94,5.47-10.53,1.98-14.99Z"/>
          <path class="cls-6" d="M86.78,171.72c.59,1.82,3.79.69,5.07.58,2.26-.21,5.07-.28,7.04,1.03,2.82,1.87,1.32,4.34-.81,6-1.03.81-2.24,1.5-3.45,2.01-1.46.61-2.71-.07-3.95.3-.45.14-.73.62-.78,1.09-.2,1.99.36,4.4.5,6.41.1,1.49,1.07,5.07.17,6.36-.71.2-1.43.4-2.14.6-.56-.35-1.11-.73-1.65-1.12-2.38-1.74-6.74-9.59-9.7-7.09-1.61,1.36-2.54,3.76-4.16,5.25-1.73,1.58-3.8,2.7-6.17,2.84-.73.04.17-6.64.34-7.24.34-1.23,4.22-7.34,2.79-7.65-2.36-.5-10.48-3.41-5.57-6.06,2.61-1.41,5.52-1.29,8.36-1.77,3.48-.59,4.22-2.13,4.86-5.52.32-1.68.62-3.43,1.57-4.86.95-1.43,2.76-2.44,4.39-1.91,1.09.36,1.89,1.34,2.31,2.41.42,1.07.52,2.23.61,3.38.06.76-.09,3.51.38,4.97Z"/>
          <path class="cls-17" d="M84.16,129.02c2.56.4,4.89,1.69,6.4,4.17,2.77,4.57-.08,11.46-6.08,10.51-.09-.01-.17-.02-.25-.01-.85.05-1.21,1.09-.44,1.66.18.14.34.27.46.41.7.76.55,1.51.01,2.16-.43.51-1.09.95-1.8,1.31-.92.46-1.93.74-2.56.77-1.94.1-3.9-.26-5.76-.76-5.74-1.54-11.51-4.19-17.55-5.01-3.12-.42-6.26-.3-9.31.49-3,.78-5.93,2.56-9.12,2.18-3.56-.42-6.45-2.71-7.75-6.05-2.86-7.35,4.96-14.81,12.03-10.64.55.32,1.42-.08,1.36-.77-.42-4.87,1.13-10.25,5.91-12.45,5.09-2.34,11.81,1.16,10.5,7.31-.22,1,1.07,1.56,1.65.69,2.12-3.19,6.26-5.97,10.2-4.34,3.21,1.34,4.83,5.48,2.74,8.41-.57.8.5,1.57,1.23,1.23,1.94-.91,4.16-1.45,6.32-1.44.61,0,1.21.05,1.8.15Z"/>
          <path class="cls-1" d="M73.19,119.18c-3.7-1.84-7.73-.34-10.61,2.28,0,0,0,0,0,0,.42-15.05.16-30.11-.78-45.14h0c5.36.61,10.96.46,16.32.53,1.33.02,2.65.03,3.98.04.08,16.75.17,33.51.25,50.26-1.68-.01-3.38.25-5.01.76.89-3.33-.96-7.14-4.14-8.73Z"/>
          <path class="cls-11" d="M102.05,98.29c.78-.05,1.61-.08,2.2-.03,2.16.18,2.97,3.76,2.93,5.5-.05,2.57-1.56,4.87-4,5.75-5.98,2.16-7.68-6.18-4.98-10.04.75-1.06,1.32-.95,2.44-1.06.39-.04.89-.08,1.42-.12Z"/>
          <path class="cls-8" d="M84.03,75.08c-4.73.01-9.45-.07-14.17-.24-2.36-.08-4.72-.19-7.07-.32-.56-.03-1.02-.07-1.39-.17,0,0,0,0,0,0-.14-.11-.3-.17-.47-.2,0,0,0,0,0,0-.49-.3-.8-.85-1.07-1.91-.25-.98-.28-2.1-.35-3.16,16.84-.65,33.78-.4,50.57,1.13,0,1.29,0,2.58.02,3.87-8.67.64-17.35.98-26.04,1Z"/>
          <path class="cls-7" d="M122.87,56.15c.47-2.79,1.06-5.4,1.41-5.94,1.16-1.79,5.26-3.25,5.42.06.14.92.19,1.85.16,2.77.03,1.33-.02,2.67-.03,3.99-.01,2.27-.03,4.54-.05,6.81-2.44-.05-4.88-.04-7.32.05-.64.02-.22-4.03.41-7.75Z"/>
          <path class="cls-12" d="M132.86,157c.92-.03,1.93-.19,2.84-.06.25.07.51.13.76.2-.15.5-.31.99-.46,1.49-.25.26-1.1.41-1.55.5-.55-.33-1.42-.09-1.37.72.05.77.11,1.54.16,2.32.02.36.3,1.51.14,1.94.02-.18-.36-.29-.52-.41-.31-.23-.6-.49-.88-.76-.53-.52-.99-1.09-1.39-1.71-.22-.34-.56-.45-.88-.4-.32-.06-.68.05-.9.4-.69,1.06-1.49,2.29-2.72,2.64-.08-1.24.29-2.41,1.03-3.45.05-.07.08-.13.11-.2.38-.46.34-1.27-.41-1.43-.53-.11-1.03-.26-1.52-.51-.48-.24-.9-.22-.28-.53.95-.48,2.26-.6,3.29-.7.16-.02.29-.06.41-.13.35,0,.69-.19.78-.65.09-.47.89-4.28,2.19-2.89.38.41.23,2.17.27,2.72.04.47.38.92.9.9Z"/>
          <path class="cls-5" d="M129.75,135.28c1.14.39,2.26.97,3.34,1.79-4.65-2.48-12.02,4.09-14.58,7.4-3.41,4.42-5.99,10.44-5.29,16.13,1.38,11.26,12.1,19.01,22.92,19.72-5.89,2.74-12.57,3.73-18.8,1.32-7.17-2.78-11.13-9.29-11.67-16.78-.47-6.61,1.01-13.94,4.43-19.65,3.84-6.42,12.17-12.46,19.64-9.92Z"/>
          <path class="cls-15" d="M137.25,76.72c-.08,0-.15,0-.24.02-8.33,1.54-16.77,1.68-25.13.39,0-.46,0-.92,0-1.39,0-.6,0-1.2,0-1.8-.01-1.18-.01-2.37-.02-3.56,0-.6,0-1.2-.01-1.8,0-.68,0-1.36,0-2.04,5.96-.73,11.95-1.02,17.94-.89.59.02,1.19.03,1.78.05,1.78.07,3.56.17,5.34.31.65,3.55.75,7.11.35,10.71Z"/>
          <path class="cls-16" d="M148.4,123.49c.1,0,.2.01.3.02.1.03.2.06.32.06,0,0,0,0,0,0,.1.02.19.03.29.05.15.03.29.03.42,0,6.04.81,4.34,12.54-2.68,10.1-5.28-1.83-4.82-9.04-.3-10.11l1.63-.12Z"/>
          <path class="cls-10" d="M153.66,95.35c.62.87.36,3.37.45,4.43.04.47.38.92.9.9,1.45-.05,3.03-.29,4.48-.09,1.61.22,1.28,1.58.71,2.64-.98,1.82-2.07,1.31-3.63,1.9-1.68.64-.52,3.04-.44,4.23.05.68.6,2.86.11,3.39-.99,1.09-4.79-3.89-5.25-4.59-.78-1.18-7.16,4.28-7.12,4.52-.3-2.29.57-4.04,1.49-6.03,1.37-2.99-2.3-2.16-3.42-3.59-.12-.15-.21-.33-.2-.52,0-.53.65-.78,1.17-.88,1.42-.29,4.57-.31,5.68-1.24.76-.63,1.06-2.22,1.45-3.08.53-1.19,2.24-4.73,3.62-1.98Z"/>
          <path class="cls-4" d="M151.41,83.94c.22,2.8,1.23,5.6,1.08,8.4-3.1-.14-4.41,4.11-4.94,6.65-.02,0-.05,0-.08,0-.43-7.7-.94-15.4-1.53-23.09,1.82,0,3.64-.01,5.45-.02-.11,2.69-.2,5.38,0,8.06Z"/>
          <path class="cls-9" d="M165.81,74.02c-8.85.04-17.7.07-26.54.11.05-1.18.04-2.36-.02-3.54,8.11-.77,16.28.11,24.41-.57,4-.33,7.99-.83,11.99-1.26,1.9-.21,3.81-.4,5.71-.56,1.14-.09,2.29-.18,3.43-.24.38-.02.76-.04,1.15-.06.33.1.58.13.79.11.02.03.04.06.06.08.04.05.09.09.13.14.21.22.47.27.73.23.38,2.17.51,4.64-1.86,5.47-1.68.59-4.64.02-6.46.03-4.5.02-9.01.04-13.51.06Z"/>
          <path class="cls-14" d="M169.6,75.81s0,0,0,0c1.28,0,2.56-.01,3.85-.02,1.91,0,3.82-.02,5.74-.02,0,0,0,0,0,0,.28,16.37.11,32.75-.49,49.11-.53.01-1.06.07-1.59.16-3.5.6-6.38,2.82-8.13,5.74.74-18.31.94-36.64.62-54.96Z"/>
          <path class="cls-3" d="M169.28,168.66c.04.47.38.92.9.9,2.27-.08,5.43-.73,7.62.07,5.18,1.9-.58,6.59-3.66,6.76-.6.03-1.23-.01-1.78.23-1.83.81-.28,4.36-.19,5.75.08,1.09.85,4.04.14,4.96-1.17,1.51-4.15-1.66-4.92-2.41-1.4-1.36-3.04-5.46-5.39-4.08-1.11.65-2.04,3.04-3.01,4.02-1.27,1.28-2.76,2.31-4.56,2.65-.15.03-.32.05-.45-.04-.12-.09-.15-.26-.17-.41-.38-3.22.51-6.58,2.44-9.19.22-.3.47-.61.56-.97.37-1.39-3.32-1.82-4.27-2.31-.71-.37-1.26-.61-1.56-1.42-.52-.46-.51-.82.03-1.09.24-.29.54-.51.88-.65,2.26-1.21,5.51-1.5,8.01-1.74.27-.03.47-.15.61-.31.42.09.86-.08.96-.62.34-1.84,1.45-7.58,4.07-8.44.32-.11.66-.14,1.03-.09.25.04.47.11.67.21,2.36,1.15,1.85,6.24,2.02,8.24Z"/>
          <path class="cls-13" d="M201.92,147.17c-1.98.92-4.32,1.38-6.48,1.71-10.72,1.64-21.72,3.02-32.34.86-1.99-.4-4.02-.96-5.6-2.24-6.52-5.25,2.73-11.39,8.25-9.41.6.21,1.22.5,1.84.38,1.39-.27,1.63-2.09,1.86-3.48.68-4.14,4.28-7.62,8.44-8.17,4.16-.54,8.53,1.9,10.25,5.73.44.99,1.13,2.28,2.18,2,.37-.1.65-.39.92-.66,2.29-2.18,5.76-3.04,8.81-2.18,3.05.86,5.55,3.41,6.36,6.47.46,1.75.38,3.67-.41,5.29-.85,1.73-2.32,2.89-4.07,3.7Z"/>
        </g>
      </g>
    </g>
  </g>
</svg>