<?xml version="1.0" encoding="UTF-8"?>
<svg xmlns="http://www.w3.org/2000/svg" version="1.1" xmlns:xlink="http://www.w3.org/1999/xlink" viewBox="0 0 236.94 258.04">
  <defs>
    <style>
      .cls-1 {
        fill: url(#radial-gradient);
      }

      .cls-1, .cls-2, .cls-3, .cls-4, .cls-5, .cls-6, .cls-7, .cls-8, .cls-9, .cls-10, .cls-11, .cls-12, .cls-13, .cls-14, .cls-15, .cls-16, .cls-17, .cls-18, .cls-19, .cls-20 {
        stroke: #000;
        stroke-miterlimit: 10;
      }

      .cls-1, .cls-13, .cls-18 {
        stroke-width: 1.27px;
      }

      .cls-2 {
        fill: url(#radial-gradient-2);
      }

      .cls-2, .cls-4, .cls-5, .cls-6, .cls-7, .cls-8, .cls-9, .cls-10, .cls-11, .cls-12, .cls-14, .cls-15, .cls-16, .cls-17, .cls-19 {
        stroke-width: .64px;
      }

      .cls-3 {
        fill: #ffc533;
      }

      .cls-3, .cls-20 {
        fill-rule: evenodd;
        stroke-width: .32px;
      }

      .cls-4 {
        fill: url(#linear-gradient-2);
      }

      .cls-21 {
        fill: #fefcfd;
      }

      .cls-5 {
        fill: url(#linear-gradient-4);
      }

      .cls-6 {
        fill: url(#radial-gradient-7);
      }

      .cls-7 {
        fill: url(#linear-gradient);
      }

      .cls-8 {
        fill: url(#radial-gradient-3);
      }

      .cls-9 {
        fill: url(#linear-gradient-7);
      }

      .cls-10 {
        fill: url(#radial-gradient-5);
      }

      .cls-11 {
        fill: url(#linear-gradient-8);
      }

      .cls-12 {
        fill: url(#radial-gradient-6);
      }

      .cls-13 {
        fill: url(#radial-gradient-9);
      }

      .cls-14 {
        fill: url(#linear-gradient-9);
      }

      .cls-15 {
        fill: url(#linear-gradient-6);
      }

      .cls-16 {
        fill: url(#linear-gradient-5);
      }

      .cls-17 {
        fill: url(#radial-gradient-4);
      }

      .cls-18 {
        fill: url(#radial-gradient-8);
      }

      .cls-19 {
        fill: url(#linear-gradient-3);
      }

      .cls-20 {
        fill: #ffef7d;
      }
    </style>
    <radialGradient id="radial-gradient" cx="799.14" cy="199.79" fx="799.14" fy="199.79" r="57.89" gradientTransform="translate(-553.93) scale(.84 1)" gradientUnits="userSpaceOnUse">
      <stop offset="0" stop-color="#0f8d82"/>
      <stop offset=".29" stop-color="#108a81"/>
      <stop offset=".48" stop-color="#13817e"/>
      <stop offset=".64" stop-color="#197278"/>
      <stop offset=".78" stop-color="#215d71"/>
      <stop offset=".91" stop-color="#2c4368"/>
      <stop offset="1" stop-color="#362c60"/>
    </radialGradient>
    <linearGradient id="linear-gradient" x1="6.72" y1="248.86" x2="182.81" y2="72.77" gradientUnits="userSpaceOnUse">
      <stop offset="0" stop-color="#0f8d82"/>
      <stop offset="1" stop-color="#362c60"/>
    </linearGradient>
    <radialGradient id="radial-gradient-2" cx="145.33" cy="97.45" fx="145.33" fy="97.45" r="7.47" gradientUnits="userSpaceOnUse">
      <stop offset="0" stop-color="#ee6e0f"/>
      <stop offset=".18" stop-color="#ed6715"/>
      <stop offset=".42" stop-color="#eb5527"/>
      <stop offset=".71" stop-color="#e83844"/>
      <stop offset="1" stop-color="#e41369"/>
    </radialGradient>
    <radialGradient id="radial-gradient-3" cy="70.69" fy="70.69" r="7.47" xlink:href="#radial-gradient-2"/>
    <linearGradient id="linear-gradient-2" x1="-6.37" y1="235.77" x2="169.71" y2="59.68" xlink:href="#linear-gradient"/>
    <linearGradient id="linear-gradient-3" x1="-19.56" y1="222.58" x2="156.53" y2="46.49" xlink:href="#linear-gradient"/>
    <linearGradient id="linear-gradient-4" x1="-8.61" y1="233.53" x2="167.48" y2="57.44" xlink:href="#linear-gradient"/>
    <radialGradient id="radial-gradient-4" cx="114.68" fx="114.68" r="7.47" xlink:href="#radial-gradient-2"/>
    <radialGradient id="radial-gradient-5" cx="114.68" cy="70.69" fx="114.68" fy="70.69" r="7.47" xlink:href="#radial-gradient-2"/>
    <linearGradient id="linear-gradient-5" x1="-21.7" y1="220.44" x2="154.39" y2="44.35" xlink:href="#linear-gradient"/>
    <linearGradient id="linear-gradient-6" x1="-34.88" y1="207.26" x2="141.21" y2="31.17" xlink:href="#linear-gradient"/>
    <linearGradient id="linear-gradient-7" x1="-23.93" y1="218.21" x2="152.16" y2="42.12" xlink:href="#linear-gradient"/>
    <radialGradient id="radial-gradient-6" cx="84.03" fx="84.03" r="7.47" xlink:href="#radial-gradient-2"/>
    <radialGradient id="radial-gradient-7" cx="84.03" cy="70.69" fx="84.03" fy="70.69" r="7.47" xlink:href="#radial-gradient-2"/>
    <linearGradient id="linear-gradient-8" x1="-37.02" y1="205.12" x2="139.07" y2="29.03" xlink:href="#linear-gradient"/>
    <linearGradient id="linear-gradient-9" x1="-50.21" y1="191.93" x2="125.88" y2="15.85" xlink:href="#linear-gradient"/>
    <radialGradient id="radial-gradient-8" cx="118.31" cy="142.14" fx="118.31" fy="142.14" r="53.51" gradientUnits="userSpaceOnUse">
      <stop offset=".39" stop-color="#ee6e0f"/>
      <stop offset=".57" stop-color="#ed6b11"/>
      <stop offset=".69" stop-color="#ec621a"/>
      <stop offset=".79" stop-color="#eb5329"/>
      <stop offset=".88" stop-color="#e83e3e"/>
      <stop offset=".96" stop-color="#e52259"/>
      <stop offset="1" stop-color="#e41369"/>
    </radialGradient>
    <radialGradient id="radial-gradient-9" cx="118.63" cy="172.06" fx="118.63" fy="172.06" r="50.77" gradientUnits="userSpaceOnUse">
      <stop offset="0" stop-color="#cfdc2a"/>
      <stop offset="1" stop-color="#1ea6c4"/>
    </radialGradient>
  </defs>
  <!-- Generator: Adobe Illustrator 28.7.1, SVG Export Plug-In . SVG Version: 1.2.0 Build 142)  -->
  <g>
    <g id="Layer_1">
      <g>
        <circle class="cls-21" cx="118.47" cy="129.02" r="106.62"/>
        <g>
          <g>
            <path class="cls-20" d="M84.03,37.67c-6.95,10.02-1.5,18.31,0,20.26,1.5-1.95,6.95-10.24,0-20.26Z"/>
            <path class="cls-3" d="M84.03,37.67v20.26c1.5-1.95,6.95-10.24,0-20.26Z"/>
          </g>
          <g>
            <path class="cls-20" d="M114.68,37.67c-6.95,10.02-1.5,18.31,0,20.26,1.5-1.95,6.95-10.24,0-20.26Z"/>
            <path class="cls-3" d="M114.68,37.67v20.26c1.5-1.95,6.95-10.24,0-20.26Z"/>
          </g>
          <g>
            <path class="cls-20" d="M145.33,37.67c-6.95,10.02-1.5,18.31,0,20.26,1.5-1.95,6.95-10.24,0-20.26Z"/>
            <path class="cls-3" d="M145.33,37.67v20.26c1.5-1.95,6.95-10.24,0-20.26Z"/>
          </g>
          <path class="cls-1" d="M183.68,204.24H53.57c-2.07,0-3.74-1.99-3.74-4.45h0c0-2.46,1.68-4.45,3.74-4.45h130.11c2.07,0,3.74,1.99,3.74,4.45h0c0,2.46-1.68,4.45-3.74,4.45Z"/>
          <polygon class="cls-7" points="150.49 108.55 150.49 101.61 143.56 108.55 150.49 108.55"/>
          <polygon class="cls-2" points="140.16 106.66 150.49 96.33 150.49 88.23 140.16 98.57 140.16 106.66"/>
          <polygon class="cls-8" points="140.16 79.9 150.49 69.57 150.49 61.47 140.16 71.8 140.16 79.9"/>
          <polygon class="cls-4" points="140.16 93.28 150.49 82.95 150.49 74.85 140.16 85.18 140.16 93.28"/>
          <polygon class="cls-19" points="140.16 66.52 147.47 59.21 140.16 59.21 140.16 66.52"/>
          <polygon class="cls-5" points="119.84 108.55 119.84 101.61 112.91 108.55 119.84 108.55"/>
          <polygon class="cls-17" points="109.51 106.66 119.84 96.33 119.84 88.23 109.51 98.57 109.51 106.66"/>
          <polygon class="cls-10" points="109.51 79.9 119.84 69.57 119.84 61.47 109.51 71.8 109.51 79.9"/>
          <polygon class="cls-16" points="109.51 93.28 119.84 82.95 119.84 74.85 109.51 85.18 109.51 93.28"/>
          <polygon class="cls-15" points="109.51 66.52 116.82 59.21 109.51 59.21 109.51 66.52"/>
          <polygon class="cls-9" points="89.19 108.55 89.19 101.61 82.26 108.55 89.19 108.55"/>
          <polygon class="cls-12" points="78.86 106.66 89.19 96.33 89.19 88.23 78.86 98.57 78.86 106.66"/>
          <polygon class="cls-6" points="78.86 79.9 89.19 69.57 89.19 61.47 78.86 71.8 78.86 79.9"/>
          <polygon class="cls-11" points="78.86 93.28 89.19 82.95 89.19 74.85 78.86 85.18 78.86 93.28"/>
          <polygon class="cls-14" points="78.86 66.52 86.17 59.21 78.86 59.21 78.86 66.52"/>
          <path class="cls-18" d="M169.71,110.62h-102.81c-9.61,0-17.4,7.79-17.4,17.4v17.92h.78c5.19,0,9.42,4.22,9.42,9.42v14.13c0,2.31,1.88,4.19,4.19,4.19s4.19-1.88,4.19-4.19v-14.13c0-5.19,4.22-9.42,9.42-9.42s9.42,4.22,9.42,9.42v14.13c0,2.31,1.88,4.19,4.19,4.19s4.19-1.88,4.19-4.19v-14.13c0-5.19,4.22-9.42,9.42-9.42s9.42,4.22,9.42,9.42v14.13c0,2.31,1.88,4.19,4.19,4.19s4.19-1.88,4.19-4.19v-14.13c0-5.19,4.22-9.42,9.42-9.42s9.42,4.22,9.42,9.42v14.13c0,2.31,1.88,4.19,4.19,4.19s4.19-1.88,4.19-4.19v-14.13c0-5.19,4.22-9.42,9.42-9.42s9.42,4.22,9.42,9.42v14.13c0,2.31,1.88,4.19,4.19,4.19s4.19-1.88,4.19-4.19v-14.13c0-5.19,4.22-9.42,9.42-9.42h.78v-17.92c0-9.61-7.79-17.4-17.4-17.4Z"/>
          <path class="cls-13" d="M182.46,155.71v14.13c0,5.19-4.22,9.42-9.42,9.42s-9.42-4.22-9.42-9.42v-14.13c0-2.31-1.88-4.19-4.19-4.19s-4.19,1.88-4.19,4.19v14.13c0,5.19-4.22,9.42-9.42,9.42s-9.42-4.22-9.42-9.42v-14.13c0-2.31-1.88-4.19-4.19-4.19s-4.19,1.88-4.19,4.19v14.13c0,5.19-4.22,9.42-9.42,9.42s-9.42-4.22-9.42-9.42v-14.13c0-2.31-1.88-4.19-4.19-4.19s-4.19,1.88-4.19,4.19v14.13c0,5.19-4.22,9.42-9.42,9.42s-9.42-4.22-9.42-9.42v-14.13c0-2.31-1.88-4.19-4.19-4.19s-4.19,1.88-4.19,4.19v14.13c0,5.19-4.22,9.42-9.42,9.42s-9.42-4.22-9.42-9.42v-14.13c0-2.31-1.88-4.19-4.19-4.19h-.78v41.07h137.6v-41.07h-.78c-2.31,0-4.19,1.88-4.19,4.19Z"/>
        </g>
      </g>
    </g>
  </g>
</svg>