<?xml version="1.0" encoding="UTF-8"?>
<svg xmlns="http://www.w3.org/2000/svg" version="1.1" xmlns:xlink="http://www.w3.org/1999/xlink" viewBox="0 0 236.94 258.04">
  <defs>
    <style>
      .cls-1 {
        fill: url(#radial-gradient-24);
      }

      .cls-1, .cls-2, .cls-3, .cls-4, .cls-5, .cls-6, .cls-7, .cls-8, .cls-9, .cls-10, .cls-11, .cls-12, .cls-13, .cls-14, .cls-15, .cls-16, .cls-17, .cls-18, .cls-19, .cls-20, .cls-21, .cls-22, .cls-23, .cls-24, .cls-25, .cls-26, .cls-27, .cls-28, .cls-29, .cls-30, .cls-31, .cls-32, .cls-33, .cls-34, .cls-35, .cls-36, .cls-37, .cls-38, .cls-39, .cls-40, .cls-41, .cls-42, .cls-43, .cls-44, .cls-45, .cls-46 {
        stroke: #000;
      }

      .cls-1, .cls-2, .cls-3, .cls-4, .cls-5, .cls-6, .cls-7, .cls-8, .cls-9, .cls-10, .cls-11, .cls-12, .cls-13, .cls-15, .cls-16, .cls-17, .cls-18, .cls-19, .cls-20, .cls-21, .cls-22, .cls-23, .cls-24, .cls-25, .cls-26, .cls-27, .cls-28, .cls-29, .cls-30, .cls-31, .cls-32, .cls-34, .cls-35, .cls-36, .cls-37, .cls-38, .cls-39, .cls-40, .cls-41, .cls-42, .cls-43, .cls-44, .cls-45, .cls-46 {
        stroke-miterlimit: 10;
      }

      .cls-1, .cls-2, .cls-3, .cls-4, .cls-5, .cls-6, .cls-8, .cls-9, .cls-11, .cls-13, .cls-15, .cls-17, .cls-18, .cls-20, .cls-21, .cls-22, .cls-23, .cls-24, .cls-25, .cls-26, .cls-27, .cls-29, .cls-31, .cls-32, .cls-35, .cls-37, .cls-38, .cls-39, .cls-40, .cls-41, .cls-43, .cls-44, .cls-45, .cls-46 {
        stroke-width: .23px;
      }

      .cls-2 {
        fill: url(#radial-gradient-42);
      }

      .cls-3 {
        fill: url(#radial-gradient-31);
      }

      .cls-4 {
        fill: url(#radial-gradient-39);
      }

      .cls-5 {
        fill: url(#radial-gradient-43);
      }

      .cls-6 {
        fill: url(#radial-gradient-37);
      }

      .cls-7 {
        fill: url(#radial-gradient);
      }

      .cls-7, .cls-16, .cls-19 {
        stroke-width: 1.39px;
      }

      .cls-47 {
        fill: #fefcfd;
      }

      .cls-8 {
        fill: url(#radial-gradient-20);
      }

      .cls-9 {
        fill: url(#radial-gradient-32);
      }

      .cls-10 {
        fill: url(#radial-gradient-3);
      }

      .cls-10, .cls-42 {
        stroke-width: 1.39px;
      }

      .cls-11 {
        fill: url(#radial-gradient-29);
      }

      .cls-12 {
        fill: url(#radial-gradient-5);
      }

      .cls-12, .cls-28, .cls-34, .cls-36 {
        stroke-width: .46px;
      }

      .cls-13 {
        fill: url(#radial-gradient-41);
      }

      .cls-14 {
        stroke-width: 2.02px;
      }

      .cls-14, .cls-33 {
        fill: none;
        stroke-linecap: round;
        stroke-linejoin: round;
      }

      .cls-15 {
        fill: url(#radial-gradient-27);
      }

      .cls-16 {
        fill: url(#radial-gradient-4);
      }

      .cls-17 {
        fill: url(#radial-gradient-23);
      }

      .cls-18 {
        fill: url(#radial-gradient-19);
      }

      .cls-19 {
        fill: url(#radial-gradient-8);
      }

      .cls-20 {
        fill: url(#radial-gradient-30);
      }

      .cls-21 {
        fill: url(#radial-gradient-36);
      }

      .cls-22 {
        fill: url(#radial-gradient-38);
      }

      .cls-23 {
        fill: url(#radial-gradient-12);
      }

      .cls-24 {
        fill: url(#radial-gradient-34);
      }

      .cls-25 {
        fill: url(#radial-gradient-14);
      }

      .cls-26 {
        fill: url(#radial-gradient-11);
      }

      .cls-27 {
        fill: url(#radial-gradient-10);
      }

      .cls-28 {
        fill: #ffda40;
      }

      .cls-29 {
        fill: url(#radial-gradient-21);
      }

      .cls-30 {
        fill: url(#radial-gradient-9);
        stroke-width: .92px;
      }

      .cls-31 {
        fill: url(#radial-gradient-17);
      }

      .cls-32 {
        fill: url(#radial-gradient-22);
      }

      .cls-33 {
        stroke-width: 1.7px;
      }

      .cls-34 {
        fill: url(#radial-gradient-2);
      }

      .cls-35 {
        fill: url(#radial-gradient-28);
      }

      .cls-36 {
        fill: url(#radial-gradient-7);
      }

      .cls-37 {
        fill: url(#radial-gradient-25);
      }

      .cls-38 {
        fill: url(#radial-gradient-35);
      }

      .cls-39 {
        fill: url(#radial-gradient-16);
      }

      .cls-40 {
        fill: url(#radial-gradient-40);
      }

      .cls-41 {
        fill: url(#radial-gradient-18);
      }

      .cls-42 {
        fill: url(#radial-gradient-6);
      }

      .cls-43 {
        fill: url(#radial-gradient-13);
      }

      .cls-44 {
        fill: url(#radial-gradient-33);
      }

      .cls-45 {
        fill: url(#radial-gradient-15);
      }

      .cls-46 {
        fill: url(#radial-gradient-26);
      }
    </style>
    <radialGradient id="radial-gradient" cx="166.39" cy="149.96" fx="166.39" fy="149.96" r="33.85" gradientUnits="userSpaceOnUse">
      <stop offset="0" stop-color="#0f8d82"/>
      <stop offset="1" stop-color="#5e2f81"/>
    </radialGradient>
    <radialGradient id="radial-gradient-2" cx="165.11" cy="148.52" fx="165.11" fy="148.52" r="12.37" gradientTransform="translate(299.95 -27.94) rotate(85.41)" gradientUnits="userSpaceOnUse">
      <stop offset="0" stop-color="#ee6e0f"/>
      <stop offset="1" stop-color="#e41369"/>
    </radialGradient>
    <radialGradient id="radial-gradient-3" cx="166.64" cy="175.67" fx="166.64" fy="175.67" r="38.97" gradientUnits="userSpaceOnUse">
      <stop offset=".25" stop-color="#cfdc2a"/>
      <stop offset="1" stop-color="#1ea6c4"/>
    </radialGradient>
    <radialGradient id="radial-gradient-4" cx="74.6" cy="137.98" fx="74.6" fy="137.98" r="40.41" xlink:href="#radial-gradient"/>
    <radialGradient id="radial-gradient-5" cx="72.43" cy="137.39" fx="72.43" fy="137.39" r="14.76" gradientTransform="translate(70.43 -17.91) rotate(27.06)" xlink:href="#radial-gradient-2"/>
    <radialGradient id="radial-gradient-6" cx="79.71" cy="156.97" fx="79.71" fy="156.97" r="49.83" xlink:href="#radial-gradient-3"/>
    <radialGradient id="radial-gradient-7" cx="93.56" cy="111.92" fx="93.56" fy="111.92" r="50.72" gradientTransform="matrix(1,0,0,1,0,0)" xlink:href="#radial-gradient-2"/>
    <radialGradient id="radial-gradient-8" cx="131.56" cy="177.33" fx="131.56" fy="177.33" r="16.63" xlink:href="#radial-gradient"/>
    <radialGradient id="radial-gradient-9" cx="129.84" cy="170.83" fx="129.84" fy="170.83" r="17.53" xlink:href="#radial-gradient-3"/>
    <radialGradient id="radial-gradient-10" cx="-2481.15" cy="237.63" fx="-2481.15" fy="237.63" r="4.45" gradientTransform="translate(2126.37 -1288.9) rotate(-28.72)" xlink:href="#radial-gradient-2"/>
    <radialGradient id="radial-gradient-11" cx="-2483.78" cy="236.29" fx="-2483.78" fy="236.29" r="3.6" gradientTransform="translate(2126.37 -1288.9) rotate(-28.72)" xlink:href="#radial-gradient-2"/>
    <radialGradient id="radial-gradient-12" cx="-2482.7" cy="235.55" fx="-2482.7" fy="235.55" r="2.88" gradientTransform="translate(2126.37 -1288.9) rotate(-28.72)" xlink:href="#radial-gradient-2"/>
    <radialGradient id="radial-gradient-13" cx="-2481.33" cy="235.82" fx="-2481.33" fy="235.82" r="2.69" gradientTransform="translate(2126.37 -1288.9) rotate(-28.72)" xlink:href="#radial-gradient-2"/>
    <radialGradient id="radial-gradient-14" cx="-2480.28" cy="236.74" fx="-2480.28" fy="236.74" r="2.98" gradientTransform="translate(2126.37 -1288.9) rotate(-28.72)" xlink:href="#radial-gradient-2"/>
    <radialGradient id="radial-gradient-15" cx="-2481.37" cy="236.71" fx="-2481.37" fy="236.71" r="2.95" gradientTransform="translate(2126.37 -1288.9) rotate(-28.72)" xlink:href="#radial-gradient-2"/>
    <radialGradient id="radial-gradient-16" cx="-2481.37" cy="236.71" fx="-2481.37" fy="236.71" r="3.01" gradientTransform="translate(2126.37 -1288.9) rotate(-28.72)" xlink:href="#radial-gradient-2"/>
    <radialGradient id="radial-gradient-17" cx="-2482.09" cy="236.55" fx="-2482.09" fy="236.55" r="3.04" gradientTransform="translate(2126.37 -1288.9) rotate(-28.72)" xlink:href="#radial-gradient-2"/>
    <radialGradient id="radial-gradient-18" cx="-2482.77" cy="236.51" fx="-2482.77" fy="236.51" r="3.26" gradientTransform="translate(2126.37 -1288.9) rotate(-28.72)" xlink:href="#radial-gradient-2"/>
    <radialGradient id="radial-gradient-19" cx="-2483.86" cy="236.64" fx="-2483.86" fy="236.64" r="3.27" gradientTransform="translate(2126.37 -1288.9) rotate(-28.72)" xlink:href="#radial-gradient-2"/>
    <radialGradient id="radial-gradient-20" cx="-2483.86" cy="236.64" fx="-2483.86" fy="236.64" r="3.33" gradientTransform="translate(2126.37 -1288.9) rotate(-28.72)" xlink:href="#radial-gradient-2"/>
    <radialGradient id="radial-gradient-21" cx="-2485.45" cy="239.5" fx="-2485.45" fy="239.5" r="1.15" gradientTransform="translate(2126.37 -1288.9) rotate(-28.72)" xlink:href="#radial-gradient-2"/>
    <radialGradient id="radial-gradient-22" cx="-2484.84" cy="239.75" fx="-2484.84" fy="239.75" r="1.12" gradientTransform="translate(2126.37 -1288.9) rotate(-28.72)" xlink:href="#radial-gradient-2"/>
    <radialGradient id="radial-gradient-23" cx="-2484.52" cy="240.36" fx="-2484.52" fy="240.36" r="1.15" gradientTransform="translate(2126.37 -1288.9) rotate(-28.72)" xlink:href="#radial-gradient-2"/>
    <radialGradient id="radial-gradient-24" cx="-2483.87" cy="240.56" fx="-2483.87" fy="240.56" r="1.18" gradientTransform="translate(2126.37 -1288.9) rotate(-28.72)" xlink:href="#radial-gradient-2"/>
    <radialGradient id="radial-gradient-25" cx="-2482.73" cy="240.61" fx="-2482.73" fy="240.61" r="1.67" gradientTransform="translate(2126.37 -1288.9) rotate(-28.72)" xlink:href="#radial-gradient-2"/>
    <radialGradient id="radial-gradient-26" cx="-2482.31" cy="241.02" fx="-2482.31" fy="241.02" r="1.81" gradientTransform="translate(2126.37 -1288.9) rotate(-28.72)" xlink:href="#radial-gradient-2"/>
    <radialGradient id="radial-gradient-27" cx="-2488.91" cy="229.31" fx="-2488.91" fy="229.31" r="4.4" gradientTransform="translate(2126.37 -1288.9) rotate(-28.72)" xlink:href="#radial-gradient-2"/>
    <radialGradient id="radial-gradient-28" cx="-2489.08" cy="232.82" fx="-2489.08" fy="232.82" r="3.61" gradientTransform="translate(2126.37 -1288.9) rotate(-28.72)" xlink:href="#radial-gradient-2"/>
    <radialGradient id="radial-gradient-29" cx="-2490.29" cy="231.97" fx="-2490.29" fy="231.97" r="2.85" gradientTransform="translate(2126.37 -1288.9) rotate(-28.72)" xlink:href="#radial-gradient-2"/>
    <radialGradient id="radial-gradient-30" cx="-2490.86" cy="230.25" fx="-2490.86" fy="230.25" r="2.74" gradientTransform="translate(2126.37 -1288.9) rotate(-28.72)" xlink:href="#radial-gradient-2"/>
    <radialGradient id="radial-gradient-31" cx="-2490.54" cy="229.04" fx="-2490.54" fy="229.04" r="3.02" gradientTransform="translate(2126.37 -1288.9) rotate(-28.72)" xlink:href="#radial-gradient-2"/>
    <radialGradient id="radial-gradient-32" cx="-2490.14" cy="229.45" fx="-2490.14" fy="229.45" r="2.99" gradientTransform="translate(2126.37 -1288.9) rotate(-28.72)" xlink:href="#radial-gradient-2"/>
    <radialGradient id="radial-gradient-33" cx="-2490.14" cy="229.45" fx="-2490.14" fy="229.45" r="3.04" gradientTransform="translate(2126.37 -1288.9) rotate(-28.72)" xlink:href="#radial-gradient-2"/>
    <radialGradient id="radial-gradient-34" cx="-2489.92" cy="230.42" fx="-2489.92" fy="230.42" r="2.96" gradientTransform="translate(2126.37 -1288.9) rotate(-28.72)" xlink:href="#radial-gradient-2"/>
    <radialGradient id="radial-gradient-35" cx="-2489.51" cy="231.52" fx="-2489.51" fy="231.52" r="3.21" gradientTransform="translate(2126.37 -1288.9) rotate(-28.72)" xlink:href="#radial-gradient-2"/>
    <radialGradient id="radial-gradient-36" cx="-2488.76" cy="232.49" fx="-2488.76" fy="232.49" r="3.26" gradientTransform="translate(2126.37 -1288.9) rotate(-28.72)" xlink:href="#radial-gradient-2"/>
    <radialGradient id="radial-gradient-37" cx="-2488.76" cy="232.49" fx="-2488.76" fy="232.49" r="3.31" gradientTransform="translate(2126.37 -1288.9) rotate(-28.72)" xlink:href="#radial-gradient-2"/>
    <radialGradient id="radial-gradient-38" cx="-2485.5" cy="231.58" fx="-2485.5" fy="231.58" r="1.15" gradientTransform="translate(2126.37 -1288.9) rotate(-28.72)" xlink:href="#radial-gradient-2"/>
    <radialGradient id="radial-gradient-39" cx="-2485.65" cy="230.92" fx="-2485.65" fy="230.92" r="1.1" gradientTransform="translate(2126.37 -1288.9) rotate(-28.72)" xlink:href="#radial-gradient-2"/>
    <radialGradient id="radial-gradient-40" cx="-2485.34" cy="230.22" fx="-2485.34" fy="230.22" r="1.14" gradientTransform="translate(2126.37 -1288.9) rotate(-28.72)" xlink:href="#radial-gradient-2"/>
    <radialGradient id="radial-gradient-41" cx="-2485.58" cy="229.56" fx="-2485.58" fy="229.56" r="1.13" gradientTransform="translate(2126.37 -1288.9) rotate(-28.72)" xlink:href="#radial-gradient-2"/>
    <radialGradient id="radial-gradient-42" cx="-2486.22" cy="228.63" fx="-2486.22" fy="228.63" r="1.64" gradientTransform="translate(2126.37 -1288.9) rotate(-28.72)" xlink:href="#radial-gradient-2"/>
    <radialGradient id="radial-gradient-43" cx="-2486.12" cy="228.04" fx="-2486.12" fy="228.04" r="1.78" gradientTransform="translate(2126.37 -1288.9) rotate(-28.72)" xlink:href="#radial-gradient-2"/>
  </defs>
  <!-- Generator: Adobe Illustrator 28.7.1, SVG Export Plug-In . SVG Version: 1.2.0 Build 142)  -->
  <g>
    <g id="Layer_1">
      <g>
        <circle class="cls-47" cx="118.47" cy="129.02" r="106.62"/>
        <g>
          <path class="cls-7" d="M120.62,146.14s-.01.1-.01.15c-.6,7.42,19.42,15.08,44.71,17.11,25.29,2.03,46.27-2.35,46.87-9.77.04-.46,0-.92-.12-1.38,0,0,0,0,0,0-1.78-6.97-20.87-13.83-44.59-15.73-25.12-2.02-45.99,2.29-46.85,9.62Z"/>
          <ellipse class="cls-34" cx="165.11" cy="148.52" rx="4.93" ry="16.78" transform="translate(3.87 301.22) rotate(-85.41)"/>
          <path class="cls-10" d="M120.62,146.06c-3.99,32.45,19.29,55.32,35.55,58.68,13.56,2.8,38.96-5.32,49.83-24.78,10.78-19.3,6.13-27.66,6.06-27.79.12.46.16.92.12,1.38-.6,7.42-21.58,11.8-46.87,9.77-25.29-2.03-45.3-9.69-44.71-17.11,0-.05,0-.1.01-.15Z"/>
          <path class="cls-33" d="M213.06,159.63s-7.03,10.05-37.87,10.45c-30.84.4-48.22-8.66-55.28-16.18"/>
          <path class="cls-33" d="M206.39,164.38s-13.09,31-41.13,40.43"/>
          <path class="cls-33" d="M188.31,169.22s-10.57,22.2-31.14,35.73"/>
          <path class="cls-33" d="M168.66,170.02s-8.59,16.25-26.52,26.92"/>
          <path class="cls-33" d="M156.19,169.51s-9.89,12.76-25.01,16.04"/>
          <path class="cls-33" d="M138.86,165.04s-6.27,7.79-16.14,4.95"/>
          <path class="cls-33" d="M209.42,173.09s-5.36,3.88-15.58-4.75"/>
          <path class="cls-33" d="M201.2,186.86s-14.75,3.84-31.97-16.19"/>
          <path class="cls-33" d="M189.3,197.02s-26.63,1.88-38.96-28.96"/>
          <path class="cls-33" d="M169.33,204.76s-32.21-11.2-37.64-42.66"/>
          <path class="cls-16" d="M25.7,162.76c.02.05.05.11.08.16,4.04,7.92,29.18,3.16,56.14-10.61,26.96-13.78,45.54-31.36,41.5-39.27-.25-.49-.58-.93-.99-1.33,0,0,0,0,0,0-6.18-5.96-29.86-.98-55.15,11.94-26.79,13.68-45.3,31.12-41.58,39.11Z"/>
          <ellipse class="cls-12" cx="72.43" cy="137.39" rx="20.03" ry="5.88" transform="translate(-54.58 47.99) rotate(-27.06)"/>
          <path class="cls-42" d="M25.7,162.76c16.26,35.47,54.24,44.12,72.87,37.36,15.53-5.64,36.25-29.81,35.11-56.38-1.13-26.37-11.09-31.94-11.25-32.02.41.39.74.84.99,1.33,4.04,7.92-14.54,25.5-41.5,39.27-26.96,13.77-52.1,18.52-56.14,10.61-.03-.05-.05-.11-.08-.16Z"/>
          <path class="cls-14" d="M128.12,118.66s-.84,14.62-31.93,34.33c-31.09,19.72-54.41,21.39-66.3,18.18"/>
          <path class="cls-14" d="M124.31,127.66s6.11,39.69-16.47,66.83"/>
          <path class="cls-14" d="M108.97,143.9s3.16,29.18-9.26,55.8"/>
          <path class="cls-14" d="M89.51,157.02s1.44,21.89-10.09,43.96"/>
          <path class="cls-14" d="M76.52,164.3s-2.06,19.16-15.36,31.96"/>
          <path class="cls-14" d="M56.11,170.61s-1.49,11.84-13.3,15.14"/>
          <path class="cls-14" d="M132.85,134.61s-3.02,7.29-18.81,4.93"/>
          <path class="cls-14" d="M133.11,153.75s-12.58,13.13-42.62,3.57"/>
          <path class="cls-14" d="M127.39,171.53s-25.88,18.59-57.72-5.03"/>
          <path class="cls-14" d="M111.94,191.9s-39.75,8.79-64.96-19.78"/>
          <path class="cls-28" d="M25.63,91.17c1.04-3.1,2.72-6.02,4.92-8.44,2.29-2.52,5.01-4.63,7.9-6.41,3.22-1.99,6.65-3.59,10.11-5.11,3.57-1.57,7.15-3.13,10.82-4.43.91-.32,1.81-.68,2.7-1.05.41-.17.86-.1,1.1.31.2.36.08.92-.31,1.1-1.69.77-3.32,1.63-4.97,2.47-1.58.8-3.25,1.46-4.87,2.18-3.25,1.44-6.54,2.82-9.7,4.46-5.6,2.91-10.97,6.75-14.41,12.15-3.19,5.03-4.29,11.23-2.89,17.03,1.41,5.83,5.38,11.38,11.41,12.95,3.07.8,6.54.54,9.27-1.18,2.52-1.59,4.5-4.83,3.71-7.88-.02-.09.12-.15.16-.06.49,1.14.66,2.46.32,3.67-.37,1.3-1.11,2.49-2.03,3.47-2.01,2.14-4.97,3.14-7.86,3.19-6.42.12-11.77-4.26-14.44-9.85-2.71-5.68-2.94-12.63-.94-18.57Z"/>
          <path class="cls-36" d="M52.94,56.92s54.44,80.13,56.09,91.47c1.63,11.19,2.05,22.3,2.05,22.3,0,0,15.79-15.53,23.61-14.16,0,0-6.7-4.61-15.84-13.31-9.14-8.69-64.9-90.06-64.9-90.06,0,0-2.6-.33-1.01,3.76Z"/>
          <path class="cls-19" d="M148.86,163.77s7.26,5.25-6.98,17.3c-14.24,12.04-29.78,12.13-29.46,5.5.32-6.63,8.74-24.27,36.44-22.79Z"/>
          <path class="cls-30" d="M134.82,156.53s9.09.74,14.17,7.24c0,0-32.25-1.36-36.44,22.79,0,0-4.08-10.26-.16-21.18,3.92-10.92,19.3-11.78,22.42-8.86Z"/>
          <path class="cls-28" d="M57.75,63.72c-.41-1.35.12-2.86,1.18-3.77,1.16-1,2.74-1.08,4.08-.4,1.3.65,2.14,1.94,2.23,3.39.05.73-.12,1.45-.46,2.1-.26.5-.8,1.19-1.38,1.3-.12.02-.28-.07-.26-.21.07-.42.32-.82.45-1.24.13-.46.2-.91.21-1.4.01-.96-.46-1.83-1.28-2.32-.73-.43-1.69-.5-2.4.02-.69.5-1.03,1.36-.81,2.19.27,1-1.26,1.35-1.56.37Z"/>
          <path class="cls-28" d="M34.13,93.81c-.46-3,.09-6.12,1.6-8.76,1.51-2.63,3.76-4.75,6.17-6.54,5.31-3.93,12.18-6.73,15.06-13.12.27-.6,1.33-.14,1.06.47-1.07,2.47-2.76,4.56-4.85,6.24-2.12,1.7-4.46,3.13-6.75,4.59-2.33,1.47-4.73,2.99-6.65,4.98-1.94,2.01-3.22,4.32-3.73,7.07-.46,2.52-.18,5.34.86,7.69,1.03,2.33,2.75,4.22,4.91,5.56,4.38,2.72,11.46,3.05,14.51-1.84,1.57-2.52,1.2-5.95-1.27-7.76-2.39-1.75-5.84-.86-7.05,1.85-.03.07-.15.02-.13-.06.63-2.26,3.29-3.58,5.53-3.22,2.59.42,4.46,3,4.72,5.49.29,2.77-1.2,5.54-3.38,7.18-2.6,1.96-6.07,2.47-9.22,1.89-5.8-1.08-10.49-5.86-11.38-11.7Z"/>
          <g>
            <path class="cls-27" d="M64.52,117.75c.91-2.12,2.22-4.06,2-6.48-.19-2.12-1.75-4.14-4.04-4.04-.45.02-.43-.69.02-.7,2.38-.09,4.22,1.9,4.59,4.13.42,2.55-.65,5.35-2.37,7.21-.08.09-.26-.01-.21-.13Z"/>
            <path class="cls-26" d="M61.99,106.89c.25-.29.67.15.41.43-1.13,1.25-1.83,2.86-2,4.54-.17,1.65.21,3.19.75,4.74.03.1-.12.19-.19.1-2.13-2.85-1.2-7.3,1.03-9.81Z"/>
            <path class="cls-23" d="M60.91,110.61c.22-1.31.78-2.57,1.52-3.66.32-.47,1.05-.04.76.46-.62,1.07-.99,2.23-1.19,3.45-.19,1.16-.03,2.33-.25,3.48-.04.2-.31.18-.4.04-.75-1.09-.64-2.52-.43-3.78Z"/>
            <path class="cls-43" d="M63.67,112.36c.08-.6.11-1.2.07-1.81-.08-1.19-.51-2.32-1.18-3.3-.29-.42.4-.94.72-.54.84,1.05,1.41,2.29,1.62,3.62.15,1.03.28,2.92-.82,3.49-.11.05-.27.03-.32-.09-.2-.45-.15-.9-.08-1.38Z"/>
            <path class="cls-25" d="M63.72,106.83c1.32.85,2.33,2.05,2.75,3.59.33,1.23.4,3.34-.83,4.12-.12.08-.3,0-.33-.15-.11-.58.02-1.16.08-1.74.07-.66.04-1.3-.1-1.95-.27-1.29-.99-2.5-2.02-3.33-.31-.25.11-.76.44-.55Z"/>
            <g>
              <path class="cls-45" d="M64.23,114.91c-.12.07-.25.1-.38.11-.07,0-.13-.06-.15-.13-.11-.35.04-.73.19-1.09.05-.13.1-.26.14-.38l.04-.12c.18-.57.36-1.16.41-1.78.12-1.48-.22-2.84-1.01-4.04-.05-.07-.06-.15-.04-.23.03-.1.1-.2.21-.25.12-.07.29-.08.4.06,1.09,1.37,1.65,2.96,1.57,4.49-.04.87-.21,1.6-.49,2.17-.16.33-.47.95-.91,1.2Z"/>
              <path class="cls-39" d="M63.68,107.05h0s.21-.1.33.05c1.08,1.36,1.64,2.94,1.56,4.45-.04.86-.21,1.58-.48,2.14-.16.33-.46.94-.89,1.17-.11.06-.23.1-.35.1-.04,0-.08-.04-.09-.09-.1-.33.05-.7.19-1.05.05-.13.1-.26.14-.38l.04-.12c.18-.57.37-1.16.42-1.79.12-1.5-.22-2.87-1.02-4.08-.04-.06-.05-.12-.03-.18.02-.08.09-.17.18-.21M63.63,106.94c-.2.11-.33.35-.18.57.8,1.21,1.11,2.56,1,4-.05.66-.26,1.27-.45,1.89-.15.47-.49,1.01-.33,1.51.03.09.11.17.21.17.15,0,.28-.05.4-.11.44-.24.73-.81.93-1.22.33-.67.45-1.45.49-2.19.08-1.64-.57-3.26-1.59-4.53-.13-.16-.32-.16-.48-.08h0Z"/>
            </g>
            <path class="cls-31" d="M62.52,111.16c.18-1.25.41-2.49.56-3.75.06-.51.82-.51.81.03-.02,1.29.05,2.59.06,3.88,0,1.2.09,2.58-.49,3.66-.25.46-.84.25-.99-.15-.42-1.13-.12-2.51.05-3.67Z"/>
            <path class="cls-41" d="M61.19,111.48c.24-1.49.87-2.92,1.68-4.19.32-.5,1.08-.04.79.48-.68,1.22-1.05,2.53-1.21,3.92-.08.66-.09,1.31-.05,1.97.04.65.13,1.31-.08,1.94-.08.24-.38.32-.57.14-1-1.02-.76-2.98-.55-4.26Z"/>
            <g>
              <path class="cls-18" d="M61.29,116.61s-.13.01-.17-.04c-.71-1.02-.95-2.54-.73-4.52.16-1.44.72-2.94,1.62-4.36.02-.04.05-.06.08-.08.1-.05.2-.01.27.05.07.07.08.17.03.26-.7,1.25-1.11,2.62-1.28,4.33-.09.89,0,1.77.09,2.63.06.54.12,1.09.13,1.65,0,.04-.01.07-.04.09Z"/>
              <path class="cls-8" d="M62.12,107.66h0c.07-.04.15,0,.2.04.03.03.08.1.02.19-.71,1.26-1.12,2.64-1.29,4.35-.09.9,0,1.78.09,2.64.06.54.12,1.09.13,1.65,0,.02,0,.03-.01.03-.03.01-.07,0-.1-.02-.7-1.01-.94-2.52-.72-4.48.16-1.43.72-2.93,1.61-4.33.02-.03.04-.05.06-.06M62.06,107.56s-.07.05-.1.1c-.83,1.31-1.46,2.83-1.63,4.38-.17,1.48-.14,3.29.74,4.56.06.08.17.1.25.06.04-.02.08-.07.07-.14-.03-1.44-.37-2.82-.22-4.27.15-1.53.52-2.96,1.27-4.3.15-.27-.16-.51-.38-.39h0Z"/>
            </g>
            <path class="cls-29" d="M61.1,114.1c-.02-.33.5-.31.52.02.06.92.43,1.74.54,2.64.01.1-.1.19-.19.1-.68-.71-.81-1.82-.87-2.76Z"/>
            <path class="cls-32" d="M62.16,115.58c0-.55,0-1.1.01-1.64,0-.21.33-.2.33.01,0,.51,0,1.02,0,1.54,0,.44.06.91-.12,1.33-.02.04-.09.07-.11.01-.16-.4-.11-.82-.11-1.24Z"/>
            <path class="cls-17" d="M62.79,115.96c.03-.51,0-1-.11-1.5-.07-.33.43-.45.5-.12.17.81.41,2.25-.26,2.89-.06.05-.15.02-.17-.05-.12-.4.01-.81.04-1.22Z"/>
            <path class="cls-1" d="M63.23,116.24c.23-.62.33-1.26.31-1.91,0-.4.62-.38.63.02,0,.58-.06,1.15-.23,1.7-.08.25-.26,1.1-.68,1-.39-.09-.11-.59-.03-.81Z"/>
            <path class="cls-37" d="M64.45,115.33c.26-.72.43-1.48.49-2.24.02-.31.48-.3.49.02,0,.82-.09,1.63-.34,2.42-.17.53-.42,1.57-1.05,1.69-.09.02-.17-.03-.2-.12-.16-.54.43-1.27.61-1.76Z"/>
            <path class="cls-46" d="M64.13,117.23c.24-.65.65-1.2.94-1.82.32-.69.52-1.44.59-2.2.04-.4.65-.39.63.02-.08,1.44-.53,3.44-1.86,4.24-.15.09-.37-.07-.31-.25Z"/>
          </g>
          <g>
            <path class="cls-15" d="M58.06,104.72c-2.25.51-4.59.6-6.42,2.2-1.6,1.4-2.31,3.86-.88,5.64.28.35-.3.75-.58.4-1.47-1.87-.95-4.53.64-6.14,1.81-1.84,4.71-2.63,7.23-2.34.12.01.14.21.02.24Z"/>
            <path class="cls-35" d="M50.78,113.16c-.38-.04-.28-.63.1-.59,1.68.18,3.39-.21,4.85-1.05,1.43-.83,2.46-2.05,3.39-3.4.06-.09.22-.01.19.09-1.04,3.4-5.19,5.27-8.53,4.95Z"/>
            <path class="cls-11" d="M54.42,111.84c-1.19.6-2.53.88-3.85.93-.57.02-.65-.83-.07-.89,1.23-.13,2.39-.51,3.49-1.07,1.05-.53,1.9-1.35,2.96-1.84.19-.09.33.14.27.3-.44,1.25-1.66,2-2.8,2.58Z"/>
            <path class="cls-20" d="M54.21,108.58c-.53.29-1.04.62-1.5,1.01-.92.77-1.58,1.78-1.97,2.9-.17.48-.99.23-.86-.27.35-1.3,1.02-2.49,1.98-3.44.74-.73,2.19-1.95,3.3-1.39.11.05.18.2.11.31-.24.43-.64.65-1.06.88Z"/>
            <path class="cls-3" d="M49.72,111.79c-.09-1.57.28-3.09,1.28-4.33.8-.99,2.46-2.29,3.81-1.76.13.05.17.25.08.35-.4.43-.95.67-1.45.96-.57.33-1.07.73-1.52,1.22-.89.98-1.44,2.27-1.5,3.59-.02.4-.68.36-.7-.03Z"/>
            <g>
              <path class="cls-9" d="M50.24,111.75c-.13.07-.31.05-.44-.05-.06-.05-.15-.15-.11-.31.46-1.69,1.42-3.08,2.7-3.92.18-.12.36-.23.54-.32.53-.29,1.03-.48,1.5-.56.49-.09,1.4-.25,1.81.27.04.05.03.14-.02.19-.07.1-.17.18-.3.25-.21.11-.45.17-.7.23-.14.03-.27.07-.39.11l-.12.04c-.5.17-1.01.34-1.49.6-.06.04-.13.07-.19.11-1.27.78-2.17,1.85-2.67,3.19-.03.07-.07.12-.13.16Z"/>
              <path class="cls-44" d="M52.91,107.1l.06.1c.52-.29,1.02-.47,1.48-.55.48-.08,1.36-.24,1.75.25.02.03,0,.09-.02.12-.07.09-.16.17-.28.24-.2.11-.44.17-.68.23-.14.03-.27.07-.39.11l-.12.04c-.5.17-1.02.34-1.5.61-.07.04-.13.07-.19.11-1.28.79-2.19,1.87-2.69,3.22-.02.06-.06.1-.1.12-.1.06-.26.04-.37-.05-.06-.05-.12-.13-.09-.25.46-1.68,1.41-3.05,2.68-3.88.18-.12.36-.23.53-.32l-.06-.1M52.91,107.1c-.19.1-.37.21-.54.33-1.38.9-2.3,2.39-2.73,3.95-.1.36.36.58.63.43.07-.04.13-.1.16-.19.51-1.36,1.41-2.41,2.64-3.16.06-.04.12-.07.19-.11.51-.28,1.05-.45,1.6-.64.34-.11.77-.17,1.09-.35.13-.07.24-.16.32-.27.05-.07.08-.19.01-.27-.42-.52-1.28-.4-1.87-.29-.52.09-1.04.3-1.52.57h0Z"/>
            </g>
            <path class="cls-24" d="M53.92,110.22c-1.12.59-2.26,1.14-3.36,1.75-.45.25-.9-.37-.46-.67,1.06-.75,2.06-1.56,3.11-2.33.96-.71,2.03-1.6,3.25-1.76.52-.07.7.53.46.89-.67,1.01-1.96,1.57-3,2.12Z"/>
            <path class="cls-38" d="M54.96,111.1c-1.34.68-2.87,1.02-4.37,1.11-.6.03-.67-.85-.08-.92,1.39-.17,2.66-.65,3.88-1.33.58-.32,1.12-.7,1.63-1.12.5-.42.98-.88,1.61-1.07.24-.07.49.12.44.38-.23,1.41-1.96,2.36-3.12,2.96Z"/>
            <g>
              <path class="cls-21" d="M55.78,111.48c-1.23.68-2.74,1.09-4.36,1.19-.16.01-.21-.11-.22-.15-.03-.09,0-.21.1-.27.03-.01.06-.02.09-.03,1.29-.15,2.55-.58,3.87-1.3.13-.07.25-.14.38-.22.77-.45,1.43-1.05,2.07-1.62.4-.36.82-.74,1.26-1.08,0,0,.01,0,.02-.01.04-.02.08,0,.1.01.04.03.06.09.04.15-.41,1.17-1.49,2.27-3.22,3.25-.04.02-.08.04-.12.07Z"/>
              <path class="cls-6" d="M59,108.05s.02,0,.03,0c.02.02.04.05.03.08-.4,1.16-1.48,2.24-3.2,3.22-.04.02-.08.04-.12.07-1.23.67-2.73,1.08-4.34,1.18-.11,0-.15-.07-.16-.11-.02-.07,0-.16.07-.2.02-.01.04-.02.07-.02,1.3-.15,2.57-.58,3.89-1.3.13-.07.26-.14.38-.22.78-.46,1.44-1.05,2.08-1.63.4-.36.81-.74,1.25-1.07,0,0,0,0,0,0M58.94,107.95s-.02,0-.02.02c-1.14.87-2.06,1.96-3.32,2.7-.13.07-.25.15-.38.22-1.21.66-2.46,1.13-3.85,1.29-.04,0-.08.02-.11.03-.23.13-.16.55.16.53,1.5-.1,3.06-.47,4.38-1.2.04-.02.08-.04.12-.07,1.29-.74,2.74-1.83,3.25-3.28.05-.14-.09-.31-.23-.23h0Z"/>
            </g>
            <path class="cls-22" d="M57.13,109.63c-.25.21-.55-.22-.29-.43.71-.59,1.15-1.37,1.82-1.99.07-.07.21-.03.19.09-.18.97-.99,1.72-1.72,2.33Z"/>
            <path class="cls-4" d="M57.7,107.9c-.45.32-.89.64-1.34.96-.17.12-.36-.15-.19-.27.41-.3.83-.6,1.24-.9.36-.26.7-.58,1.14-.69.05-.01.11.03.08.09-.23.36-.59.57-.94.82Z"/>
            <path class="cls-40" d="M57.64,107.16c-.43.27-.8.6-1.15.97-.22.24-.62-.09-.39-.33.55-.61,1.58-1.66,2.49-1.49.08.01.11.11.06.17-.26.33-.66.47-1.01.69Z"/>
            <path class="cls-13" d="M57.61,106.65c-.64.18-1.21.48-1.73.88-.32.24-.68-.27-.35-.52.46-.35.96-.63,1.51-.82.25-.09,1.05-.44,1.21-.04.15.37-.41.44-.63.5Z"/>
            <path class="cls-2" d="M56.15,106.2c-.74.21-1.45.52-2.1.93-.27.16-.53-.21-.27-.4.66-.49,1.37-.89,2.16-1.15.53-.18,1.51-.59,1.99-.15.07.06.08.16.02.23-.35.45-1.28.4-1.79.54Z"/>
            <path class="cls-5" d="M57.88,105.34c-.66.19-1.35.18-2.03.31-.75.15-1.46.43-2.12.81-.34.2-.7-.3-.35-.52,1.21-.78,3.09-1.6,4.52-1,.17.07.16.34-.02.39Z"/>
          </g>
          <path class="cls-28" d="M41.86,100.15c2.11,1.52,4.84,2.25,7.43,2.04.92-.07,1.88-.29,2.78-.65,1.08.67,2.3,1.16,3.47,1.57,1.52.54,3.09,1.08,4.45,1.96,1.29.84,2.23,2.01,2.82,3.43.09.22.42.07.38-.15-.58-2.79-3.65-4.19-6.07-5.04-1.53-.54-3.24-1.08-4.69-1.95,1.48-.7,2.71-1.86,3.08-3.54.26-1.17.13-2.39-.59-3.37-.64-.87-1.67-1.48-2.77-1.46-2.52.05-3.7,2.97-3,5.09.41,1.25,1.2,2.19,2.17,2.94-1.85.68-4.04.7-5.86.23-2.45-.63-4.64-2.13-5.95-4.31-1.33-2.23-1.73-4.92-.96-7.41.73-2.38,2.34-4.37,4.01-6.15,1.97-2.09,4.05-4.08,6.08-6.11,2.21-2.21,4.42-4.42,6.63-6.62.18-.18-.09-.46-.27-.28-2.82,2.81-5.64,5.63-8.46,8.44-2.35,2.34-4.93,4.6-6.79,7.37-1.47,2.18-2.32,4.71-1.93,7.36.39,2.64,1.89,5.07,4.04,6.63ZM53.08,100.08c-.43.32-.89.59-1.39.8-.89-.66-1.62-1.48-2.08-2.56-.55-1.32-.44-2.85.52-3.95.89-1.01,2.29-1.33,3.45-.59,1.08.68,1.66,1.96,1.47,3.22-.18,1.22-1,2.35-1.97,3.08Z"/>
          <path d="M105,163.94c-4.48.06-8.98-1.21-12.77-3.62,1.67,4.4,1.46,9.48-.57,13.73,2.26.41,4.53.82,6.79,1.23,1.22.22,4.23,1.39,5.36.63,1.16-.78,1.16-4.2,1.27-5.46.2-2.17.17-4.35-.09-6.51Z"/>
          <path d="M82.13,188.91c-3.45-.84-6.89-1.69-10.34-2.53,2.31-3.83,3.89-8.1,4.6-12.52,1.36,1.22,2.87,2.27,4.49,3.12,1.02.54,2.92.95,3.59,1.98.7,1.09-2.31,9.94-2.34,9.94Z"/>
          <path d="M101.38,190.11c-4.73-.18-9.46-.37-14.19-.55.47-3.25.94-6.5,1.41-9.75-.14.95,10.95,1.83,11.99,1.85,1.75.04,2.67.22,2.31,2.14-.39,2.12-1.02,4.22-1.53,6.32Z"/>
          <path d="M96.88,199.97c-1.28,1.05-2.93,1.54-4.55,1.89-3.58.79-7.28,1.08-10.94.87.94-1.66,1.88-3.32,2.81-4.98.3-.53.61-1.07,1.08-1.46.87-.71,2.1-.72,3.22-.71,2.84.04,5.68.08,8.52.12,1.36.02,1.85.05,1.53,1.59-.21,1.02-.86,2.03-1.68,2.67Z"/>
          <path d="M77.1,199.33c-.26.59-.55,1.21-1.07,1.59-.71.52-1.69.47-2.57.36-3.52-.45-6.95-1.55-10.08-3.24,2.43-2.11,4.41-4.72,5.81-7.61,2.71.92,5.42,1.84,8.13,2.75,1.6.54,2.3.4,1.57,2.09-.58,1.35-1.2,2.7-1.8,4.04Z"/>
          <path d="M57.85,195.76c-3.69-2.74-7.38-5.48-11.07-8.22,2.81-1.06,5.3-2.95,7.09-5.37,1.63,1.02,3.27,2.05,4.9,3.07,1.22.76,3.76,1.74,4.53,2.97.97,1.54-5.49,7.52-5.45,7.55Z"/>
          <path d="M67.67,184.13c-3.4-2.23-6.8-4.45-10.2-6.68.75-2.2,1.5-4.41,2.25-6.61,1.3-.47,2.59-.95,3.89-1.42,1.08-.39,2.75-1.39,3.89-1.43,1.15-.04,3.7,2.29,4.37,3.53,1.13,2.11-4.92,12.15-4.21,12.62Z"/>
          <path d="M85.61,172.28c-2.32-1.03-4.64-2.06-6.96-3.09.16-2,.33-4.01.49-6.01,1.66-.62,3.25-1.44,4.73-2.42.44-.29,1.69-1.6,2.18-1.62.84-.04.69,1.15.74,1.85.12,1.9.09,3.8-.11,5.7-.05.48-1.01,5.62-1.06,5.6Z"/>
          <path d="M41.44,184.46c-2.97-3.45-5.93-6.91-8.9-10.36,2.16.93,4.51,1.4,6.86,1.42,1.76.01,5.75-1.48,6.92-.79,1.79,1.06,2.4,3.79,1.13,5.26-.43.5-5.75,4.78-6.02,4.47Z"/>
          <path d="M105.5,157.45c-4.06-.54-8.11-1.08-12.17-1.62,3.92-2.04,7.61-4.62,10.99-7.63,2.46-2.18,2.24-1.04,1.95,1.82-.06.6-.83,7.43-.77,7.44Z"/>
          <path d="M122.75,137.9c-2.01.17-4.03.33-6.04.5,1.07-1.14,2.08-2.34,3.02-3.59.76-1.01,1.55-2.76,2.53-3.4.25.54,1.3,6.42.49,6.48Z"/>
          <path d="M128.5,136.52c.24-1.55.1-3.16-.4-4.65-.34-1.03-.86-2.04-.83-3.13.05-2.12,2.08-3.63,2.86-5.61-.23.6.93,2.94,1.14,3.59.36,1.13,1.17,2.66,1.14,3.85-.05,2.08-2.7,4.37-3.91,5.95Z"/>
          <path d="M127.76,143.67c.42,1.79.35,3.69-.21,5.44,1.98.99,3.75,2.38,5.18,4.07-.24-.28,1.06-4.29,1.15-4.9.26-1.68.69-3.83.39-5.52-.6-3.31-4.49.45-6.51.92Z"/>
          <path d="M160.86,199.98c1.76-1.69,3.57-3.33,5.14-5.2,1.6-1.9,3.19-3.83,4.71-5.79,2.96-3.81,5.55-7.95,7.84-12.19,1.31-2.42,2.61-4.83,3.77-7.33.24-.52,1-.06.77.45-1.97,4.52-4.31,8.82-7.09,12.89-1.37,2.01-2.84,3.95-4.34,5.86-1.51,1.91-3.05,3.8-4.78,5.52-1.98,1.95-3.88,4.01-5.96,5.85-.04.03-.09-.02-.06-.06Z"/>
          <path d="M145.75,199.92c.91-.91,1.95-1.61,2.97-2.39,1.02-.78,2.01-1.57,2.98-2.41,1.88-1.63,3.69-3.34,5.39-5.15,3.5-3.72,6.67-7.73,9.44-12.02,1.55-2.4,3.03-4.84,4.36-7.37.33-.62,1.27-.07.95.56-4.76,9.11-11.39,17.12-19.18,23.82-1.07.92-2.15,1.82-3.26,2.7-1.12.9-2.22,1.82-3.52,2.44-.12.06-.24-.09-.14-.19Z"/>
          <path d="M143.27,192.78c3.09-2.44,6.23-4.77,9.05-7.52,2.84-2.77,5.39-5.83,7.65-9.09,1.29-1.85,2.46-3.77,3.53-5.75.3-.56,1.15-.06.85.5-3.81,7.09-9.06,13.31-15.37,18.3-1.75,1.39-3.63,2.67-5.63,3.67-.07.03-.15-.06-.08-.11Z"/>
          <path d="M141.99,185.86c1.39-1.24,3.09-2.18,4.58-3.31,1.57-1.19,3.07-2.46,4.51-3.8,2.83-2.64,5.39-5.63,7.62-8.8.44-.63,1.49-.02,1.04.61-2.33,3.26-5,6.19-8,8.85-1.47,1.31-3.02,2.53-4.63,3.67-1.54,1.09-3.21,2.33-5.02,2.94-.1.03-.17-.1-.1-.17Z"/>
          <path d="M174.42,194.53c2.64-2.91,5.26-5.84,7.58-9.02,2.31-3.16,4.38-6.52,6.2-9.98,1.04-1.98,1.99-4,2.84-6.06.23-.56,1.16-.32.92.25-3.05,7.39-7.28,14.15-12.58,20.13-1.51,1.7-3.14,3.31-4.88,4.76-.05.05-.12-.03-.08-.08Z"/>
          <path d="M181.84,191.82c1.39-1.46,2.84-2.87,4.19-4.38,1.38-1.55,2.68-3.17,3.96-4.8,2.51-3.21,4.83-6.61,6.87-10.14,1.15-1.99,2.22-4.03,3.19-6.11.28-.59,1.15-.07.88.52-3.49,7.47-8.08,14.36-13.89,20.23-1.63,1.66-3.31,3.32-5.14,4.75-.05.04-.11-.02-.07-.07Z"/>
          <path d="M190.63,190.5c1.39-1.56,2.86-3.05,4.23-4.62,1.42-1.62,2.77-3.31,4.03-5.07,2.46-3.42,4.68-6.99,6.6-10.74,1.09-2.12,2.07-4.3,2.94-6.52.26-.66,1.33-.38,1.07.29-3.14,8.03-7.68,15.36-13.49,21.73-1.64,1.8-3.34,3.56-5.28,5.04-.08.06-.18-.03-.11-.11Z"/>
          <path d="M199.64,167.84c1.46,1.14,3.13,2.1,4.85,2.79.85.34,1.72.61,2.62.81.88.2,1.79.26,2.65.55.11.04.13.21,0,.24-.88.21-1.76.09-2.64-.04-1.01-.15-2-.39-2.97-.69-1.91-.59-3.65-1.5-5.24-2.71-.69-.52.04-1.49.74-.94Z"/>
          <path d="M190.16,169.45c2.45,2.03,5.1,3.78,7.9,5.3,1.4.76,2.84,1.45,4.32,2.06,1.39.58,2.94.94,4.26,1.66.09.05.05.21-.06.2-1.54-.13-3.11-.87-4.54-1.45-1.45-.59-2.88-1.25-4.27-1.98-2.85-1.5-5.53-3.33-8.01-5.39-.28-.23.12-.63.4-.4Z"/>
          <path d="M174.03,171.12c5.72,5.54,12.84,9.71,20.48,11.96,1.09.32,2.19.6,3.3.84,1.09.24,2.28.31,3.33.66.29.1.25.53-.07.54-.96.03-1.99-.26-2.93-.46-1.01-.21-2.01-.45-3.01-.72-1.96-.54-3.88-1.18-5.76-1.95-3.76-1.53-7.32-3.51-10.58-5.92-1.85-1.37-3.6-2.86-5.24-4.47-.31-.3.17-.78.48-.47Z"/>
          <path d="M167.87,174.83c.75.82,1.39,1.73,2.09,2.6.69.84,1.41,1.65,2.17,2.44,1.53,1.6,3.21,3.05,5,4.35,3.59,2.59,7.63,4.53,11.89,5.71,2.44.67,4.93,1.09,7.46,1.23.35.02.36.57,0,.55-9.02-.48-17.71-4.43-24.11-10.77-.91-.9-1.76-1.85-2.55-2.84-.78-.98-1.57-2.01-2.08-3.16-.04-.08.07-.18.14-.1Z"/>
          <path d="M149.28,172.75c4.53,10.58,13.14,19.36,23.6,24.14,1.48.67,2.98,1.29,4.51,1.82.73.25,1.46.48,2.2.7.77.22,1.56.36,2.26.76.23.13.12.47-.13.48-.72.04-1.39-.17-2.08-.36-.71-.2-1.42-.42-2.12-.65-1.38-.46-2.74-.98-4.06-1.58-2.63-1.2-5.13-2.65-7.53-4.27-4.79-3.24-8.94-7.37-12.27-12.09-1.91-2.72-3.53-5.63-4.81-8.7-.12-.28.3-.53.42-.24Z"/>
          <path d="M156.16,169.74c4.75,9.77,12.62,17.98,22.2,23.11,1.33.71,2.68,1.36,4.07,1.95,1.42.61,2.99,1,4.31,1.8.1.06.07.24-.06.23-1.35-.12-2.63-.72-3.87-1.23-1.24-.52-2.46-1.08-3.66-1.69-2.48-1.27-4.87-2.73-7.13-4.37-4.4-3.19-8.35-7.06-11.58-11.43-1.86-2.52-3.49-5.21-4.86-8.03-.18-.38.38-.71.57-.33Z"/>
          <path d="M165.11,170.79c.64,1.28,1.42,2.49,2.35,3.59.9,1.07,2.01,1.93,2.9,3,.1.12-.02.27-.16.21-1.32-.6-2.33-1.74-3.24-2.85-.92-1.13-1.7-2.35-2.34-3.66-.16-.32.33-.61.49-.28Z"/>
          <path d="M161.32,169.93c.59,1.89,1.56,3.65,2.84,5.16.61.71,1.29,1.37,2.02,1.96.74.6,1.57,1.11,2.29,1.73.08.07,0,.21-.11.18-1.88-.48-3.56-2.13-4.76-3.58-1.3-1.56-2.28-3.36-2.89-5.29-.12-.39.48-.55.6-.16Z"/>
          <path d="M158.6,171.62c1.07,1.47,2.21,2.92,3.14,4.48.04.07-.06.15-.11.08-1.2-1.38-2.23-2.93-3.3-4.41-.12-.16.15-.32.27-.16Z"/>
          <path d="M146.99,176.13c.85,2.04,1.9,4,3.16,5.82,1.28,1.86,2.82,3.51,4.2,5.3.08.11-.03.31-.16.21-1.81-1.34-3.21-3.18-4.44-5.05-1.26-1.92-2.32-3.97-3.17-6.11-.09-.24.32-.41.42-.17Z"/>
          <path d="M144.77,179.43c.51,1.27,1.16,2.49,1.93,3.62.75,1.09,1.75,1.99,2.47,3.1.08.12-.08.26-.19.19-1.14-.68-2-1.94-2.74-3.02-.8-1.17-1.46-2.43-1.99-3.75-.13-.32.39-.45.51-.14Z"/>
          <path d="M138.37,184.88c1.7,3.26,3.92,6.26,6.51,8.87,2.63,2.66,5.83,4.46,8.98,6.4.06.04.02.14-.05.11-3.48-1.23-6.48-3.69-9.18-6.14-2.8-2.55-5.1-5.55-6.89-8.89-.22-.41.41-.77.62-.36Z"/>
          <path d="M160.76,194.53c2.1,1.73,4.16,3.45,6.5,4.86,2.32,1.4,4.78,2.53,7.35,3.38.23.08.13.44-.1.36-2.59-.87-5.09-2.02-7.43-3.44-2.31-1.4-4.6-3.05-6.4-5.07-.05-.06.03-.14.09-.09Z"/>
          <path d="M154.64,199.77c1.48,1.02,2.93,2.05,4.51,2.92,1.63.89,3.33,1.62,5.09,2.21.18.06.1.35-.08.29-3.42-1.16-6.92-2.87-9.6-5.33-.05-.04.02-.12.07-.09Z"/>
          <path d="M135.66,186.66c.85,1.41,1.84,2.72,2.97,3.92,1.1,1.16,2.33,2.18,3.47,3.29.11.1-.03.26-.15.2-2.93-1.44-5.18-4.35-6.79-7.12-.19-.32.31-.61.5-.29Z"/>
          <path d="M136.17,187.43c.68-.51,1.62-.72,2.41-1.01.87-.32,1.75-.64,2.62-.96.36-.13.52.45.16.57-.88.31-1.75.61-2.63.92-.79.27-1.64.7-2.48.73-.16,0-.17-.19-.07-.26Z"/>
          <path d="M61.6,69.45c.03-.5.47-.82.89-1.01.48-.22,1.01-.35,1.53-.4.22-.02.22-.37,0-.35-.62.05-1.23.21-1.79.48-.51.25-.94.68-.98,1.27-.01.22.33.22.35,0h0Z"/>
          <path d="M63.76,72.44c-.03-.26.16-.46.34-.62s.41-.3.64-.4c.46-.21.98-.28,1.48-.22.09.01.17-.09.17-.17,0-.1-.08-.16-.17-.17-.59-.07-1.2.04-1.73.3-.46.23-1.14.68-1.08,1.28.03.22.37.22.35,0h0Z"/>
          <path d="M65.99,75.66c0-.24.26-.45.43-.59.19-.16.41-.29.64-.38.47-.18.98-.23,1.47-.11.22.05.31-.28.09-.33-.59-.14-1.22-.08-1.78.16-.27.12-.52.28-.74.47s-.46.46-.47.78c0,.22.34.22.35,0h0Z"/>
          <path d="M68.67,80.17c-.04-.26.17-.49.35-.65.21-.18.45-.32.7-.44.5-.24,1.06-.35,1.62-.35.22,0,.22-.34,0-.35-.67-.01-1.33.15-1.92.46-.53.28-1.18.74-1.08,1.41.03.22.37.13.33-.09h0Z"/>
          <path d="M71.12,83.71c0-.25.24-.44.41-.6.19-.18.4-.35.63-.48.47-.28,1.03-.43,1.57-.33.22.04.31-.3.09-.33-.66-.11-1.32.05-1.88.39-.26.16-.51.36-.73.58s-.44.46-.44.78c0,.22.35.22.35,0h0Z"/>
          <path d="M73.5,87.41c.09-.26.39-.44.62-.58.24-.15.5-.26.77-.35.5-.16,1.21-.3,1.69-.02.19.11.37-.19.17-.3-.58-.33-1.4-.2-2.01,0-.32.11-.63.25-.92.44s-.55.39-.66.71c-.07.21.26.3.33.09h0Z"/>
          <path d="M76.32,91.6c-.16-.3.22-.62.41-.8.24-.25.51-.44.85-.54.65-.2,1.39-.15,2.06-.09.22.02.22-.32,0-.35-.8-.08-1.72-.12-2.47.22-.36.17-.65.46-.91.75-.25.28-.43.63-.24.99.11.2.4.02.3-.17h0Z"/>
          <path d="M78.46,95.34c.26-.59.74-1,1.29-1.3.28-.16.58-.29.88-.39.37-.13.76-.24,1.15-.13.22.06.31-.28.09-.33-.76-.2-1.59.18-2.25.54-.61.33-1.18.8-1.46,1.45-.09.2.21.38.3.17h0Z"/>
          <path d="M80.83,98.71c-.13-.36.11-.67.35-.92.25-.26.52-.51.82-.72.62-.44,1.34-.63,2.09-.54.22.03.22-.32,0-.35-.87-.11-1.71.16-2.41.69-.32.25-.64.52-.9.84s-.42.7-.28,1.09c.07.21.41.12.33-.09h0Z"/>
          <path d="M82.97,102.24c.04-.69.56-1.24,1.16-1.51.76-.34,1.66-.25,2.46-.11.22.04.31-.29.09-.33-.92-.16-1.91-.25-2.77.17-.7.33-1.24,1-1.28,1.79-.01.22.33.22.35,0h0Z"/>
          <path d="M85.55,105.88c-.08-.38.27-.74.48-1.02s.45-.55.75-.73c.33-.2.7-.25,1.08-.26.4,0,.82-.02,1.2.11.21.07.3-.26.09-.33-.43-.15-.94-.14-1.39-.12s-.88.11-1.25.36c-.33.23-.59.54-.83.86-.27.36-.55.74-.46,1.21.04.22.38.13.33-.09h0Z"/>
          <path d="M87.86,109.75c-.1-.41.25-.84.51-1.13s.6-.53.97-.7c.82-.37,1.79-.32,2.58.09.2.1.37-.2.17-.3-.93-.48-2.04-.52-2.99-.06-.43.2-.81.51-1.11.87s-.6.82-.47,1.31c.06.22.39.12.33-.09h0Z"/>
          <path d="M90.45,113.9c-.02-.47.05-.99.27-1.41s.61-.63,1.03-.77c.92-.31,1.92-.3,2.85-.01.21.07.3-.27.09-.33-1.03-.32-2.21-.33-3.22.08-.43.17-.82.44-1.04.86-.25.47-.34,1.05-.32,1.58.01.22.36.22.35,0h0Z"/>
          <path d="M92.71,117.4c-.29-1.08,1.04-1.74,1.87-1.98.94-.27,1.94-.22,2.84.13.21.08.3-.25.09-.33-1.06-.41-2.27-.42-3.34-.03-.94.35-2.12,1.13-1.8,2.3.06.21.39.12.33-.09h0Z"/>
          <path d="M95.57,122.3c.04-.34-.07-.68-.01-1.01.06-.31.28-.58.5-.78.41-.38.94-.6,1.48-.69,1.25-.22,2.47.29,3.55.86.2.1.37-.19.17-.3-1.22-.64-2.6-1.17-3.99-.86-.59.13-1.17.42-1.58.87-.2.22-.39.47-.46.77-.09.38.03.77-.01,1.15-.03.22.32.22.35,0h0Z"/>
          <path d="M97.86,126.26c.39-1.05.92-2.26,2.19-2.36s2.75.38,3.91.96c.2.1.37-.2.17-.3-.69-.35-1.41-.62-2.16-.8-.7-.16-1.47-.3-2.18-.19-1.29.21-1.86,1.48-2.26,2.58-.08.21.26.3.33.09h0Z"/>
          <path d="M100.39,130.46c-.13-.68.33-1.3.78-1.76.41-.41.89-.75,1.42-.98,1.19-.52,2.58-.47,3.75.1.2.1.38-.2.17-.3-1.32-.64-2.85-.68-4.18-.06-1.1.51-2.54,1.73-2.27,3.09.04.22.38.13.33-.09h0Z"/>
          <path d="M102.54,134.25c.3-1.32,1.28-2.43,2.53-2.93,1.51-.6,3.12-.11,4.46.7.19.12.36-.18.17-.3-1.44-.88-3.19-1.37-4.82-.69-1.33.55-2.36,1.73-2.68,3.13-.05.22.28.31.33.09h0Z"/>
          <path d="M105.24,138.79c.79-2.83,3.76-4.47,6.57-3.63.21.06.31-.27.09-.33-1.5-.44-3.16-.26-4.5.56-1.22.74-2.11,1.95-2.49,3.32-.06.22.27.31.33.09h0Z"/>
          <path d="M107.52,143.21c-.15-.28.47-.88.62-1.06.24-.27.5-.52.78-.75.62-.51,1.34-.91,2.1-1.17,1.62-.54,3.4-.41,4.94.31.2.09.38-.2.17-.3-1.77-.83-3.83-.92-5.65-.18-.8.33-1.53.81-2.16,1.4-.32.31-.61.64-.87,1-.2.28-.4.57-.23.92.1.2.4.02.3-.17h0Z"/>
          <path d="M109.33,150.05c1.1-1.93,2.48-3.99,4.8-4.49,2.45-.52,5.17.02,7.6.39.22.03.31-.3.09-.33-1.36-.2-2.72-.41-4.09-.51-1.28-.09-2.65-.15-3.91.17-2.3.59-3.69,2.66-4.79,4.6-.11.19.19.37.3.17h0Z"/>
          <path d="M110.22,156.06c.39-1.55,1.44-2.7,2.64-3.69,1.26-1.04,2.52-1.97,4.09-2.49,1.46-.49,3-.73,4.54-.72.83,0,1.66.09,2.48.25.61.12,1.72.23,2.2.65v-.24h.13c-.2-.11-.37.19-.17.3l.04.02c.06.03.16.03.21-.03l.04-.05c.06-.07.07-.18,0-.24-.5-.44-1.44-.55-2.08-.68-.8-.17-1.61-.27-2.43-.3-1.75-.07-3.53.18-5.19.76-1.56.54-2.84,1.49-4.1,2.54s-2.33,2.24-2.73,3.84c-.05.22.28.31.33.09h0Z"/>
          <path d="M110.71,161.71c.15-1.82,1.93-3.5,3.19-4.68,1.39-1.31,2.98-2.08,4.76-2.74,1.58-.58,3.18-1.28,4.83-1.67,1.97-.47,4-.33,5.91.3.21.07.3-.26.09-.33-1.86-.62-3.84-.77-5.76-.38-2.06.42-4.13,1.32-6.09,2.1-1.77.7-3.25,1.69-4.57,3.06-1.14,1.18-2.57,2.63-2.71,4.34-.02.22.33.22.35,0h0Z"/>
          <path d="M114.68,178.5c-1.23-1.04-1.74-2.88-1.08-4.38.19-.43.46-.77.89-.97s.9-.29,1.36-.32c.93-.05,1.84.19,2.63.69.38.24.72-.36.35-.6-1.37-.88-3.41-1.15-4.86-.28-1.36.82-1.56,2.83-1.15,4.21.25.82.72,1.58,1.38,2.13.34.29.83-.2.49-.49h0Z"/>
          <path d="M123.32,169.14c-.61-.49-.56-1.36-.52-2.07.02-.43.05-.88.29-1.25s.61-.58,1-.72c1.64-.6,3.79-.37,4.79,1.22.24.38.84.03.6-.35-1.21-1.93-3.87-2.29-5.84-1.43-.46.2-.87.5-1.14.92-.29.46-.35,1.01-.38,1.54-.05.9-.05,2,.72,2.62.34.28.84-.21.49-.49h0Z"/>
          <path d="M134.06,164.74c-.52-.9-.55-2.05-.03-2.96.49-.86,1.42-1.36,2.39-1.48,2.17-.27,3.95,1.3,4.94,3.08.22.39.81.04.6-.35-1.18-2.14-3.39-3.87-5.95-3.36-1.13.22-2.18.92-2.68,1.97s-.48,2.4.13,3.46c.22.38.82.04.6-.35h0Z"/>
          <path d="M136.45,164.07c-.34-.12-.54-.51-.54-.85,0-.2.04-.39.21-.52.16-.12.35-.18.54-.22.38-.09.82-.08,1.17.12.42.24.57.72.68,1.16s.78.25.67-.18c-.13-.5-.31-1.03-.71-1.37-.38-.32-.87-.47-1.37-.47-.46,0-.98.11-1.36.39-.46.34-.59.89-.47,1.43s.49.99,1.01,1.18c.18.06.38-.07.43-.24.05-.19-.07-.36-.24-.43h0Z"/>
          <path d="M125.04,168.01c-.24-.03-.63-.12-.68-.4-.03-.2.06-.42.14-.6.06-.14.13-.34.28-.41s.37-.04.53-.02c.22.03.43.09.62.21.33.21.54.59.74.92.23.38.83.03.6-.35s-.47-.76-.81-1.03c-.39-.31-.88-.44-1.38-.45-.24,0-.5.03-.71.16s-.34.34-.44.56c-.21.46-.41,1-.13,1.48.26.44.76.57,1.23.63.19.02.35-.18.35-.35,0-.21-.16-.32-.35-.35h0Z"/>
          <path d="M115.26,176.72s-.04,0-.05-.01c-.05-.01-.01,0-.05-.02-.06-.04-.1-.07-.16-.14-.09-.12-.13-.24-.17-.4-.06-.28-.08-.68-.01-.98.01-.06.04-.11.06-.13.02-.03.05-.05.08-.08.01-.01.08-.07.06-.05.06-.05.13-.09.2-.13.03-.02.06-.03.1-.05.04-.02,0,0,0,0,.02,0,.04-.02.07-.02.07-.02.13-.04.2-.05.02,0,.1-.01.04,0,.04,0,.08,0,.12,0,.07,0,.14,0,.21,0,.04,0,0,0,0,0,.02,0,.03,0,.05,0,.04,0,.08.02.12.03s.08.02.12.04c.02,0,.03.01.05.02-.04-.02.02,0,.03.02.08.04.15.08.22.13.02.01.03.02.04.03-.03-.02.01.01.02.02.03.03.07.06.1.09.08.07.14.15.22.22.12.09.32.05.42-.05.11-.11.13-.29.05-.42-.08-.15-.26-.23-.42-.17-.18.06-.29.24-.24.43.05.18.25.3.43.24h.01c-.11-.03-.22-.06-.34-.09l-.04-.05.47-.47c.08.06-.03-.05-.04-.07-.03-.03-.06-.06-.1-.09-.09-.08-.18-.15-.28-.21-.17-.11-.36-.2-.55-.25-.37-.1-.79-.1-1.15.04-.41.16-.85.45-.98.89-.07.23-.07.49-.07.73s.02.46.08.69c.13.54.51,1.01,1.09,1.06.19.02.35-.17.35-.35,0-.2-.16-.33-.35-.35h0Z"/>
          <path d="M114.26,179.1c-.3.32-.74.5-1.18.39-.36-.09-.6-.38-.39-.73.14-.23.4-.34.63-.43.17-.06.16-.35-.05-.34-.55.03-1.57.04-1.6-.73-.02-.54.64-.69,1.06-.78.19-.04.15-.34-.05-.34-.45,0-1.18,0-1.25-.57-.09-.74.91-.63,1.36-.54.22.04.3-.26.09-.33-.58-.2-1.34-.57-1.27-1.3.11-1.1,1.37-.36,1.85.04l.21-.27c-.37-.27-.7-.78-.37-1.21.45-.57,1.08.06,1.34.46.12.19.41.02.3-.17-.23-.43.08-1.01.56-1.08.53-.08.97.36,1.11.83.05.18.35.15.34-.05-.03-.5.38-1.28.96-.78.34.29.27.8.23,1.2h.35c.04-.76,1.13-.64,1.01.09-.04.22.3.31.33.09.08-.48-.2-.99-.72-1.07s-.95.39-.97.89c-.01.23.32.22.35,0,.06-.63.02-1.58-.79-1.69-.73-.09-1.13.64-1.08,1.27l.34-.05c-.2-.69-.92-1.3-1.67-1.05-.63.21-.95.97-.63,1.56l.3-.17c-.38-.59-1.24-1.26-1.86-.56-.54.6-.13,1.38.42,1.78.16.11.36-.14.21-.27-.62-.53-1.98-1.28-2.38-.11-.35,1.02.63,1.66,1.46,1.94l.09-.33c-.65-.13-1.77-.15-1.83.77-.06.87.99,1.03,1.63,1.02l-.05-.34c-.6.13-1.42.43-1.32,1.19.12.94,1.22,1.03,1.95.99l-.05-.34c-.58.22-1.38.9-.77,1.55.55.59,1.56.32,2.05-.19.15-.16-.09-.41-.24-.24h0Z"/>
          <path d="M123.13,169.74c-.32.24-.7.5-1.12.44-.74-.1-.83-1.18.03-1.16l-.05-.34c-.51.1-1.47.25-1.44-.52.03-.65.75-.67,1.25-.68.18,0,.22-.22.09-.32-.28-.2-.68-.2-.94-.4-.22-.42-.19-.66.11-.72.14-.06.28-.09.43-.1.28-.03.55.02.82.1.2.06.28-.21.13-.32-.38-.28-1.33-.53-.74-1.18.48-.55,1.27-.12,1.71.23.14.11.33-.1.24-.24-.11-.16-.29-.4-.3-.6-.02-.48.34-.48.65-.41.42.1.74.42.86.83.06.19.33.15.34-.05,0-.15,0-.31.04-.46l.09-.27c.08-.22.24-.28.48-.18.35.01.36,0,.53.24.13.18.26.39.14.63l.24-.06.2-.45c.11-.04.22-.05.33-.03.16.02.3.07.44.15.3.19.48.51.48.86,0,.14.2.24.3.12.34-.41,1.04-.99,1.51-.41s-.4,1.08-.8,1.33l.24.24c.4-.51,1.09-.42,1.39.12.11.19.41.02.3-.17-.45-.8-1.44-.84-1.99-.12-.11.14.1.32.24.24.59-.38,1.56-1.04.95-1.82s-1.58-.25-2.08.35l.3.12c0-.73-.62-1.38-1.38-1.37-.59.01-1.26.7-.59,1.13.07.05.2.02.24-.06.29-.58-.26-1.45-.89-1.54-.79-.11-1.02.81-1.05,1.41l.34-.05c-.2-.68-.86-1.2-1.6-1.11-.92.11-.63,1-.25,1.54l.24-.24c-.62-.47-1.71-.86-2.24-.03-.16.25-.2.6-.07.87.19.41.66.47.99.72l.13-.32c-.58-.18-1.74-.24-2.04.46-.36.85.92.98,1.35,1.29l.09-.32c-.66.02-1.74.21-1.67,1.11.08.98,1.27.92,1.95.78.2-.04.14-.34-.05-.34-.71-.01-1.26.7-.88,1.37.48.84,1.55.44,2.14,0,.18-.13,0-.43-.17-.3h0Z"/>
          <path d="M133.87,165.08c-.36.18-.8.32-1.18.1-.44-.25-.51-1.06.17-1.03l-.05-.34c-1.07.2-1.12-1.49-.03-1.33.21.03.31-.29.09-.33-.11-.02-.22-.04-.33-.07-.41-.54-.38-.86.09-.96.31-.1.62-.09.94,0,.16.04.3-.17.17-.29-.86-.8.4-1.95,1.14-1.05.11.13.35,0,.29-.17-.22-.58.36-.99.89-.83.42.12.69.51.84.89.07.17.35.17.34-.05-.02-.57.65-.75,1.02-.4.22.21.29.51.29.8,0,.2.28.22.34.05.16-.44.72-.6,1.11-.37.44.26.49.86.36,1.29-.05.16.17.3.29.17.31-.34.93-.59,1.24-.06.26.43-.12.85-.38,1.15l.27.21c.22-.41.79-.31,1.01.04s.11.78-.02,1.12c-.08.21.25.3.33.09.22-.57.25-1.38-.36-1.73-.44-.26-1.02-.14-1.27.31-.09.17.14.36.27.21.41-.48.84-1.15.32-1.72-.49-.53-1.24-.33-1.67.14l.29.17c.2-.65.02-1.48-.67-1.76-.59-.24-1.25.07-1.47.65l.34.05c0-.58-.31-1.25-.96-1.33-.56-.07-1.05.38-1.03.93l.34-.05c-.27-.66-.82-1.29-1.61-1.17-.62.09-1.01.71-.79,1.3l.29-.17c-.41-.49-1.2-.61-1.69-.15s-.41,1.26.06,1.7l.17-.29c-.6-.16-1.54-.09-1.86.54-.35.69.46,1.06.98,1.16l.09-.33c-.62-.09-1.3.33-1.29,1.02s.7,1.09,1.32.98c.2-.04.14-.33-.05-.34-.64-.03-1.07.63-.79,1.21.38.78,1.32.69,1.97.36.2-.1.02-.4-.17-.3h0Z"/>
          <path d="M113.59,181s.08,0,.03-.05c-.02-.02-.06-.04-.08-.05-.06-.04-.12-.08-.18-.12-.12-.08-.23-.16-.35-.24-.23-.16-.45-.34-.66-.53-.39-.36-.73-.76-1.01-1.21-.12-.19-.42-.01-.3.17.33.52.74,1,1.21,1.41.25.21.51.41.78.59.14.1.28.2.43.28.12.07.26.09.37-.02.16-.16-.09-.4-.24-.24h0Z"/>
          <path d="M111.29,171.76c.75-1.65,3.06-2.31,4.72-2.34,1.86-.04,3.64.65,5.12,1.76.18.13.35-.17.17-.3-1.61-1.21-3.6-1.93-5.63-1.79-1.68.11-3.93.84-4.69,2.5-.09.2.21.38.3.17h0Z"/>
          <path d="M117.57,169.1c-.3-.21.02-1.2.09-1.47.12-.47.28-.93.48-1.37.37-.8.87-1.53,1.47-2.17,1.17-1.23,2.73-2.1,4.4-2.43,3.28-.64,6.7,1.12,8.01,4.21.09.2.39.03.3-.17-1.48-3.48-5.48-5.24-9.08-4.21-1.78.51-3.39,1.61-4.5,3.1-.61.81-1.08,1.73-1.36,2.71-.16.55-.57,1.69,0,2.1.18.13.36-.17.17-.3h0Z"/>
          <path d="M129.44,162.28c.46-1.39,1.33-2.62,2.51-3.49.62-.46,1.3-.84,1.98-1.2.72-.38,1.48-.81,2.31-.77.22.01.22-.33,0-.35-.82-.04-1.55.33-2.26.7-.8.41-1.6.85-2.31,1.39-1.21.91-2.09,2.18-2.56,3.62-.07.21.26.3.33.09h0Z"/>
          <path d="M111.94,168.56c1.19-1,2.72-1.23,4.15-.67.14.05.23-.1.21-.21-.52-3,2-5.61,4.54-6.73,2.26-1,5.54-1.63,7.73-.19.08.05.2.02.24-.06,1.06-2.03,2.75-3.56,4.88-4.39.21-.08.12-.41-.09-.33-1.78.69-3.32,1.85-4.42,3.43-.39.55-.35.96-1.02.71-.45-.17-.87-.33-1.36-.41-.96-.16-1.96-.09-2.92.05-3.83.55-8.71,3.5-7.92,8.03l.21-.21c-1.56-.61-3.22-.32-4.49.76-.17.14.08.39.24.24h0Z"/>
          <path d="M112.91,165.58c.52-.31,1.01-.37,1.59-.13.09.04.23.02.25-.1.63-3.4,4.1-5.74,6.95-7.26,3.1-1.65,6.55-2.52,10.06-2.44.22,0,.22-.34,0-.35-3.68-.09-7.3.86-10.52,2.63-2.84,1.56-6.2,3.91-6.83,7.31l.25-.1c-.68-.29-1.3-.26-1.94.13-.19.12-.02.42.17.3h0Z"/>
        </g>
      </g>
    </g>
  </g>
</svg>