<?xml version="1.0" encoding="UTF-8"?>
<svg xmlns="http://www.w3.org/2000/svg" version="1.1" viewBox="0 0 63.8 50.49">
  <defs>
    <style>
      .cls-1 {
        fill: #197d8e;
      }
    </style>
  </defs>
  <!-- Generator: Adobe Illustrator 28.7.1, SVG Export Plug-In . SVG Version: 1.2.0 Build 142)  -->
  <g>
    <g id="Layer_1">
      <g id="Cart">
        <g>
          <path class="cls-1" d="M57.43,44.79c0,2.4-1.95,4.34-4.35,4.34s-4.34-1.95-4.34-4.34,1.95-4.34,4.34-4.34,4.35,1.95,4.35,4.34Z"/>
          <path class="cls-1" d="M29.24,44.79c0,2.4-1.95,4.34-4.34,4.34s-4.34-1.95-4.34-4.34,1.95-4.34,4.34-4.34,4.34,1.95,4.34,4.34Z"/>
          <path class="cls-1" d="M57.91,35.38H21.04L11.49,2.29s-.02-.04-.03-.07c-.02-.04-.03-.09-.05-.13-.02-.04-.04-.07-.06-.11-.02-.04-.04-.07-.07-.11-.03-.03-.05-.07-.08-.1-.03-.03-.06-.06-.09-.09-.03-.03-.06-.05-.1-.08-.03-.03-.07-.05-.1-.07-.03-.02-.07-.04-.11-.06-.04-.02-.08-.04-.12-.05-.04-.01-.08-.03-.12-.04-.04-.01-.08-.02-.12-.03-.05,0-.09-.01-.14-.01-.02,0-.05,0-.07,0H3c-.71,0-1.29.58-1.29,1.29s.58,1.29,1.29,1.29h6.27l9.55,33.1s.02.06.03.08c.01.03.02.06.03.09.02.05.05.1.08.15.01.02.02.04.03.05.04.06.09.12.15.18,0,0,.02.02.03.03.05.04.09.08.14.12.02.02.05.03.07.04.04.03.09.05.13.07.03.01.05.02.08.03.05.02.1.03.15.05.03,0,.05.01.07.02.08.01.16.02.24.02,0,0,0,0,0,0h37.84c.71,0,1.29-.58,1.29-1.29s-.58-1.29-1.29-1.29Z"/>
          <path class="cls-1" d="M62.09,9.23s0-.09-.01-.14c0-.04-.02-.08-.03-.12-.01-.04-.02-.08-.04-.12-.02-.04-.03-.08-.05-.12-.02-.04-.04-.07-.06-.11-.02-.04-.05-.07-.07-.1-.03-.03-.05-.07-.08-.1-.03-.03-.06-.06-.09-.08-.03-.03-.06-.06-.1-.08-.03-.03-.07-.05-.11-.07-.03-.02-.07-.04-.11-.06-.04-.02-.09-.04-.13-.05-.03,0-.05-.02-.08-.03-.01,0-.02,0-.03,0-.04-.01-.09-.01-.13-.02-.04,0-.09-.01-.13-.01-.01,0-.02,0-.03,0H17.18c-.71,0-1.29.58-1.29,1.29s.58,1.29,1.29,1.29h41.95l-4.32,16.47h-30.73c-.71,0-1.29.58-1.29,1.29s.58,1.29,1.29,1.29h31.72s0,0,0,0c.08,0,.16,0,.24-.02.03,0,.05-.01.08-.02.05-.01.1-.03.15-.05.03-.01.06-.02.08-.04.04-.02.09-.04.13-.07.03-.02.05-.03.07-.05.04-.03.08-.07.12-.1.02-.02.04-.03.05-.05.11-.11.2-.24.26-.38.01-.03.02-.05.03-.08.01-.04.03-.07.04-.11l5-19.06s0-.02,0-.03c.01-.04.02-.09.02-.13,0-.04.01-.09.01-.13,0-.01,0-.02,0-.03,0-.03,0-.06,0-.08Z"/>
        </g>
      </g>
    </g>
  </g>
</svg>